<?xml version="1.0" encoding="utf-8"?>
<!-- Generator: Adobe Illustrator 24.2.1, SVG Export Plug-In . SVG Version: 6.00 Build 0)  -->
<svg version="1.1" id="圖層_1" xmlns="http://www.w3.org/2000/svg" xmlns:xlink="http://www.w3.org/1999/xlink" x="0px" y="0px"
	 viewBox="0 0 854.3 854.3" style="enable-background:new 0 0 854.3 854.3;" xml:space="preserve">
<style type="text/css">
	.st0{fill:#491A32;stroke:#CA9763;stroke-width:2;stroke-linecap:round;stroke-linejoin:round;stroke-miterlimit:10;}
	.st1{fill:none;stroke:#CA9763;stroke-width:2;stroke-linecap:round;stroke-linejoin:round;stroke-miterlimit:10;}
	.st2{fill:none;stroke:#CA9763;stroke-width:3;stroke-linecap:round;stroke-linejoin:round;stroke-miterlimit:10;}
	.st3{fill:#CA9763;}
	.st4{fill:none;stroke:#CA9763;stroke-linecap:round;stroke-linejoin:round;stroke-miterlimit:10;}
	.st5{fill:#CA9763;stroke:#CA9763;stroke-width:2;stroke-linecap:round;stroke-linejoin:round;stroke-miterlimit:10;}
</style>
<circle class="st0" cx="427.2" cy="427.2" r="426.2"/>
<circle class="st1" cx="427.2" cy="427.2" r="413.4"/>
<circle class="st1" cx="427.2" cy="427.2" r="76.7"/>
<circle class="st2" cx="427.2" cy="427.2" r="82.2"/>
<path class="st1" d="M333.8,78.8l-1.9-7.1C268.6,88.6,212,122,167,167l5.2,5.2C216.3,128.1,271.8,95.4,333.8,78.8z"/>
<path class="st1" d="M427.2,66.6c32.3,0,63.6,4.2,93.3,12.2l1.9-7.1c-30.4-8.1-62.3-12.5-95.2-12.5s-64.9,4.3-95.2,12.5l1.9,7.1
	C363.6,70.9,394.9,66.6,427.2,66.6z"/>
<path class="st1" d="M787.7,427.2c0,32.3-4.2,63.6-12.2,93.3l7.1,1.9c8.1-30.4,12.5-62.3,12.5-95.2s-4.3-64.9-12.5-95.2l-7.1,1.9
	C783.4,363.6,787.7,394.9,787.7,427.2z"/>
<path class="st1" d="M172.2,172.2L167,167c-45,45-78.4,101.6-95.3,164.9l7.1,1.9C95.4,271.8,128.1,216.3,172.2,172.2z"/>
<path class="st1" d="M775.5,333.8l7.1-1.9C765.7,268.6,732.3,212,687.3,167l-5.2,5.2C726.2,216.3,758.9,271.8,775.5,333.8z"/>
<path class="st1" d="M682.1,172.2l5.2-5.2c-45-45-101.6-78.4-164.9-95.3l-1.9,7.1C582.5,95.4,638,128.1,682.1,172.2z"/>
<path class="st1" d="M78.8,520.5l-7.1,1.9C88.6,585.7,122,642.3,167,687.3l5.2-5.2C128.1,638,95.4,582.5,78.8,520.5z"/>
<path class="st1" d="M782.6,522.4l-7.1-1.9c-16.6,62.1-49.3,117.5-93.4,161.6l5.2,5.2C732.3,642.3,765.7,585.7,782.6,522.4z"/>
<path class="st1" d="M520.5,775.5l1.9,7.1c63.3-16.9,119.9-50.3,164.9-95.3l-5.2-5.2C638,726.2,582.5,758.9,520.5,775.5z"/>
<path class="st1" d="M66.6,427.2c0-32.3,4.2-63.6,12.2-93.3l-7.1-1.9c-8.1,30.4-12.5,62.3-12.5,95.2s4.3,64.9,12.5,95.2l7.1-1.9
	C70.9,490.7,66.6,459.4,66.6,427.2z"/>
<path class="st1" d="M427.2,787.7c-32.3,0-63.6-4.2-93.3-12.2l-1.9,7.1c30.4,8.1,62.3,12.5,95.2,12.5s64.9-4.3,95.2-12.5l-1.9-7.1
	C490.7,783.4,459.4,787.7,427.2,787.7z"/>
<path class="st1" d="M172.2,682.1l-5.2,5.2c45,45,101.6,78.4,164.9,95.3l1.9-7.1C271.8,758.9,216.3,726.2,172.2,682.1z"/>
<path class="st1" d="M427.2,220.5c18.5,0,36.4,2.4,53.5,7l39.8-148.7c-29.8-8-61.1-12.2-93.3-12.2s-63.6,4.2-93.3,12.2l39.8,148.7
	C390.7,222.9,408.6,220.5,427.2,220.5z"/>
<path class="st1" d="M373.6,227.5L333.8,78.8c-62.1,16.6-117.5,49.3-161.6,93.4L281,281C306.3,255.7,338.1,237,373.6,227.5z"/>
<path class="st1" d="M281,281L172.2,172.2c-44.1,44.1-76.8,99.6-93.4,161.6l148.7,39.8C237,338.1,255.7,306.3,281,281z"/>
<path class="st1" d="M626.8,373.6l148.7-39.8c-16.6-62.1-49.3-117.5-93.4-161.6L573.3,281C598.6,306.3,617.3,338.1,626.8,373.6z"/>
<path class="st1" d="M220.5,427.2c0-18.5,2.4-36.4,7-53.5L78.8,333.8c-8,29.8-12.2,61.1-12.2,93.3s4.2,63.6,12.2,93.3l148.7-39.8
	C222.9,463.6,220.5,445.7,220.5,427.2z"/>
<path class="st0" d="M573.3,281l108.8-108.8c-44.1-44.1-99.6-76.8-161.6-93.4l-39.8,148.7C516.2,237,548,255.7,573.3,281z"/>
<path class="st1" d="M281,573.3L172.2,682.1c44.1,44.1,99.6,76.8,161.6,93.4l39.8-148.7C338.1,617.3,306.3,598.6,281,573.3z"/>
<path class="st1" d="M573.3,573.3l108.8,108.8c44.1-44.1,76.8-99.6,93.4-161.6l-148.7-39.8C617.3,516.2,598.6,548,573.3,573.3z"/>
<path class="st1" d="M480.7,626.8l39.8,148.7c62.1-16.6,117.5-49.3,161.6-93.4L573.3,573.3C548,598.6,516.2,617.3,480.7,626.8z"/>
<path class="st1" d="M227.5,480.7L78.8,520.5c16.6,62.1,49.3,117.5,93.4,161.6L281,573.3C255.7,548,237,516.2,227.5,480.7z"/>
<path class="st1" d="M427.2,633.8c-18.5,0-36.4-2.4-53.5-7l-39.8,148.7c29.8,8,61.1,12.2,93.3,12.2s63.6-4.2,93.3-12.2l-39.8-148.7
	C463.6,631.4,445.7,633.8,427.2,633.8z"/>
<path class="st1" d="M775.5,333.8l-148.7,39.8c4.6,17.1,7,35,7,53.5s-2.4,36.4-7,53.5l148.7,39.8c8-29.8,12.2-61.1,12.2-93.3
	S783.4,363.6,775.5,333.8z"/>
<path class="st1" d="M233.5,479l-6,1.6c9.5,35.6,28.3,67.4,53.5,92.6l4.4-4.4C260.9,544.4,242.7,513.6,233.5,479z"/>
<path class="st1" d="M285.4,285.4L281,281c-25.3,25.3-44,57.1-53.5,92.6l6,1.6C242.7,340.7,260.9,309.9,285.4,285.4z"/>
<path class="st1" d="M226.7,427.2c0-17.9,2.4-35.3,6.8-51.9l-6-1.6c-4.6,17.1-7,35-7,53.5s2.4,36.4,7,53.5l6-1.6
	C229,462.5,226.7,445.1,226.7,427.2z"/>
<path class="st1" d="M375.3,233.5l-1.6-6c-35.6,9.5-67.4,28.3-92.6,53.5l4.4,4.4C309.9,260.9,340.7,242.7,375.3,233.5z"/>
<path class="st1" d="M427.2,226.7c17.9,0,35.3,2.4,51.9,6.8l1.6-6c-17.1-4.6-35-7-53.5-7c-18.5,0-36.4,2.4-53.5,7l1.6,6
	C391.8,229,409.2,226.7,427.2,226.7z"/>
<path class="st1" d="M568.9,285.4l4.4-4.4c-25.3-25.3-57.1-44-92.6-53.5l-1.6,6C513.6,242.7,544.4,260.9,568.9,285.4z"/>
<path class="st1" d="M568.9,568.9l4.4,4.4c25.3-25.3,44-57.1,53.5-92.6l-6-1.6C611.6,513.6,593.4,544.4,568.9,568.9z"/>
<path class="st1" d="M627.6,427.2c0,17.9-2.4,35.3-6.8,51.9l6,1.6c4.6-17.1,7-35,7-53.5s-2.4-36.4-7-53.5l-6,1.6
	C625.3,391.8,627.6,409.2,627.6,427.2z"/>
<path class="st1" d="M568.9,285.4c24.5,24.5,42.7,55.4,51.9,89.9l6-1.6c-9.5-35.6-28.3-67.4-53.5-92.6L568.9,285.4z"/>
<path class="st1" d="M285.4,568.9l-4.4,4.4c25.3,25.3,57.1,44,92.6,53.5l1.6-6C340.7,611.6,309.9,593.4,285.4,568.9z"/>
<path class="st1" d="M479,620.8l1.6,6c35.6-9.5,67.4-28.3,92.6-53.5l-4.4-4.4C544.4,593.4,513.6,611.6,479,620.8z"/>
<path class="st1" d="M427.2,627.6c-17.9,0-35.3-2.4-51.9-6.8l-1.6,6c17.1,4.6,35,7,53.5,7s36.4-2.4,53.5-7l-1.6-6
	C462.5,625.3,445.1,627.6,427.2,627.6z"/>
<path class="st1" d="M341.9,450L233.5,479c9.2,34.5,27.4,65.3,51.9,89.9l79.4-79.4C354,478.7,346,465.2,341.9,450z"/>
<path class="st1" d="M338.9,427.2c0-7.9,1-15.6,3-22.8l-108.5-29.1c-4.4,16.6-6.8,33.9-6.8,51.9s2.4,35.3,6.8,51.9L341.9,450
	C340,442.7,338.9,435,338.9,427.2z"/>
<path class="st1" d="M404.3,341.9l-29.1-108.5c-34.5,9.2-65.3,27.4-89.9,51.9l79.4,79.4C375.6,354,389.1,346,404.3,341.9z"/>
<path class="st1" d="M364.8,489.5l-79.4,79.4c24.5,24.5,55.4,42.7,89.9,51.9l29.1-108.5C389.1,508.3,375.6,500.3,364.8,489.5z"/>
<path class="st1" d="M427.2,338.9c7.9,0,15.6,1,22.8,3L479,233.5c-16.6-4.4-33.9-6.8-51.9-6.8s-35.3,2.4-51.9,6.8l29.1,108.5
	C411.6,340,419.3,338.9,427.2,338.9z"/>
<path class="st1" d="M364.8,364.8l-79.4-79.4c-24.5,24.5-42.7,55.4-51.9,89.9l108.5,29.1C346,389.1,354,375.6,364.8,364.8z"/>
<path class="st1" d="M515.4,427.2c0,7.9-1,15.6-3,22.8L620.8,479c4.4-16.6,6.8-33.9,6.8-51.9s-2.4-35.3-6.8-51.9l-108.5,29.1
	C514.3,411.6,515.4,419.3,515.4,427.2z"/>
<path class="st1" d="M512.4,404.3l108.5-29.1c-9.2-34.5-27.4-65.3-51.9-89.9l-79.4,79.4C500.3,375.6,508.3,389.1,512.4,404.3z"/>
<path class="st1" d="M427.2,515.4c-7.9,0-15.6-1-22.8-3l-29.1,108.5c16.6,4.4,33.9,6.8,51.9,6.8s35.3-2.4,51.9-6.8L450,512.4
	C442.7,514.3,435,515.4,427.2,515.4z"/>
<path class="st0" d="M450,341.9c15.2,4.1,28.8,12.1,39.5,22.8l79.4-79.4c-24.5-24.5-55.4-42.7-89.9-51.9L450,341.9z"/>
<path class="st1" d="M489.5,489.5l79.4,79.4c24.5-24.5,42.7-55.4,51.9-89.9L512.4,450C508.3,465.2,500.3,478.7,489.5,489.5z"/>
<path class="st1" d="M450,512.4L479,620.8c34.5-9.2,65.3-27.4,89.9-51.9l-79.4-79.4C478.7,500.3,465.2,508.3,450,512.4z"/>
<line class="st1" x1="316.9" y1="15.5" x2="323.2" y2="39.2"/>
<line class="st1" x1="125.8" y1="125.8" x2="143.2" y2="143.2"/>
<line class="st1" x1="15.5" y1="316.9" x2="39.2" y2="323.2"/>
<line class="st1" x1="15.5" y1="537.4" x2="39.2" y2="531.1"/>
<line class="st1" x1="125.8" y1="728.5" x2="143.2" y2="711.1"/>
<line class="st1" x1="316.9" y1="838.8" x2="323.2" y2="815.1"/>
<line class="st1" x1="537.4" y1="838.8" x2="531.1" y2="815.1"/>
<line class="st1" x1="728.5" y1="728.5" x2="711.1" y2="711.1"/>
<line class="st1" x1="838.8" y1="537.4" x2="815.1" y2="531.1"/>
<line class="st1" x1="838.8" y1="316.9" x2="815.1" y2="323.2"/>
<line class="st1" x1="728.5" y1="125.8" x2="711.1" y2="143.2"/>
<line class="st1" x1="537.4" y1="15.5" x2="531.1" y2="39.2"/>
<line class="st1" x1="316.9" y1="15.5" x2="323.2" y2="39.2"/>
<line class="st1" x1="281.4" y1="26.7" x2="287.9" y2="44.5"/>
<line class="st1" x1="247.1" y1="40.9" x2="255.1" y2="58.1"/>
<line class="st1" x1="214.1" y1="58.1" x2="223.5" y2="74.5"/>
<line class="st1" x1="182.7" y1="78.1" x2="193.6" y2="93.6"/>
<line class="st1" x1="153.2" y1="100.7" x2="165.4" y2="115.2"/>
<line class="st1" x1="125.8" y1="125.8" x2="139.2" y2="139.2"/>
<line class="st1" x1="100.7" y1="153.2" x2="115.2" y2="165.4"/>
<line class="st1" x1="78.1" y1="182.7" x2="93.6" y2="193.6"/>
<line class="st1" x1="58.1" y1="214.1" x2="74.5" y2="223.5"/>
<line class="st1" x1="40.9" y1="247.1" x2="58.1" y2="255.1"/>
<line class="st1" x1="26.7" y1="281.4" x2="44.5" y2="287.9"/>
<line class="st1" x1="15.5" y1="316.9" x2="33.8" y2="321.8"/>
<line class="st1" x1="7.5" y1="353.2" x2="26.1" y2="356.4"/>
<line class="st1" x1="2.6" y1="390" x2="21.5" y2="391.7"/>
<line class="st1" x1="1" y1="427.2" x2="19.9" y2="427.2"/>
<line class="st1" x1="2.6" y1="464.3" x2="21.5" y2="462.6"/>
<line class="st1" x1="7.5" y1="501.2" x2="26.1" y2="497.9"/>
<line class="st1" x1="15.5" y1="537.4" x2="33.8" y2="532.5"/>
<line class="st1" x1="26.7" y1="572.9" x2="44.5" y2="566.4"/>
<line class="st1" x1="40.9" y1="607.3" x2="58.1" y2="599.2"/>
<line class="st1" x1="58.1" y1="640.2" x2="74.5" y2="630.8"/>
<line class="st1" x1="78.1" y1="671.6" x2="93.6" y2="660.7"/>
<line class="st1" x1="100.7" y1="701.1" x2="115.2" y2="688.9"/>
<line class="st1" x1="125.8" y1="728.5" x2="139.2" y2="715.1"/>
<line class="st1" x1="153.2" y1="753.6" x2="165.4" y2="739.1"/>
<line class="st1" x1="182.7" y1="776.2" x2="193.6" y2="760.7"/>
<line class="st1" x1="214.1" y1="796.2" x2="223.5" y2="779.8"/>
<line class="st1" x1="247.1" y1="813.4" x2="255.1" y2="796.2"/>
<line class="st1" x1="281.4" y1="827.6" x2="287.9" y2="809.8"/>
<line class="st1" x1="316.9" y1="838.8" x2="321.8" y2="820.5"/>
<line class="st1" x1="353.2" y1="846.8" x2="356.4" y2="828.2"/>
<line class="st1" x1="390" y1="851.7" x2="391.7" y2="832.8"/>
<line class="st1" x1="427.2" y1="853.3" x2="427.2" y2="834.4"/>
<line class="st1" x1="464.3" y1="851.7" x2="462.6" y2="832.8"/>
<line class="st1" x1="501.2" y1="846.8" x2="497.9" y2="828.2"/>
<line class="st1" x1="537.4" y1="838.8" x2="532.5" y2="820.5"/>
<line class="st1" x1="572.9" y1="827.6" x2="566.4" y2="809.8"/>
<line class="st1" x1="607.3" y1="813.4" x2="599.2" y2="796.2"/>
<line class="st1" x1="640.2" y1="796.2" x2="630.8" y2="779.8"/>
<line class="st1" x1="671.6" y1="776.2" x2="660.7" y2="760.7"/>
<line class="st1" x1="701.1" y1="753.6" x2="688.9" y2="739.1"/>
<line class="st1" x1="728.5" y1="728.5" x2="715.1" y2="715.1"/>
<line class="st1" x1="753.6" y1="701.1" x2="739.1" y2="688.9"/>
<line class="st1" x1="776.2" y1="671.6" x2="760.7" y2="660.7"/>
<line class="st1" x1="796.2" y1="640.2" x2="779.8" y2="630.8"/>
<line class="st1" x1="813.4" y1="607.3" x2="796.2" y2="599.2"/>
<line class="st1" x1="827.6" y1="572.9" x2="809.8" y2="566.4"/>
<line class="st1" x1="838.8" y1="537.4" x2="820.5" y2="532.5"/>
<line class="st1" x1="846.8" y1="501.2" x2="828.2" y2="497.9"/>
<line class="st1" x1="851.7" y1="464.3" x2="832.8" y2="462.6"/>
<line class="st1" x1="853.3" y1="427.2" x2="834.4" y2="427.2"/>
<line class="st1" x1="851.7" y1="390" x2="832.8" y2="391.7"/>
<line class="st1" x1="846.8" y1="353.2" x2="828.2" y2="356.4"/>
<line class="st1" x1="838.8" y1="316.9" x2="820.5" y2="321.8"/>
<line class="st1" x1="827.6" y1="281.4" x2="809.8" y2="287.9"/>
<line class="st1" x1="813.4" y1="247.1" x2="796.2" y2="255.1"/>
<line class="st1" x1="796.2" y1="214.1" x2="779.8" y2="223.5"/>
<line class="st1" x1="776.2" y1="182.7" x2="760.7" y2="193.6"/>
<line class="st1" x1="753.6" y1="153.2" x2="739.1" y2="165.4"/>
<line class="st1" x1="728.5" y1="125.8" x2="715.1" y2="139.2"/>
<line class="st1" x1="701.1" y1="100.7" x2="688.9" y2="115.2"/>
<line class="st1" x1="671.6" y1="78.1" x2="660.7" y2="93.6"/>
<line class="st1" x1="640.2" y1="58.1" x2="630.8" y2="74.5"/>
<line class="st1" x1="607.3" y1="40.9" x2="599.2" y2="58.1"/>
<line class="st1" x1="572.9" y1="26.7" x2="566.4" y2="44.5"/>
<line class="st1" x1="537.4" y1="15.5" x2="532.5" y2="33.8"/>
<line class="st1" x1="501.2" y1="7.5" x2="497.9" y2="26.1"/>
<line class="st1" x1="464.3" y1="2.6" x2="462.6" y2="21.5"/>
<line class="st1" x1="427.2" y1="1" x2="427.2" y2="19.9"/>
<line class="st1" x1="390" y1="2.6" x2="391.7" y2="21.5"/>
<line class="st1" x1="353.2" y1="7.5" x2="356.4" y2="26.1"/>
<polygon class="st3" points="425.2,37 427.2,33.4 429.1,37 432.7,38.9 429.1,40.9 427.2,44.4 425.2,40.9 421.6,38.9 "/>
<polygon class="st3" points="391.2,38.6 392.8,34.9 395.1,38.3 398.8,39.9 395.4,42.2 393.8,45.9 391.5,42.5 387.8,40.9 "/>
<polygon class="st3" points="357.5,43.3 358.8,39.4 361.3,42.6 365.2,43.9 362,46.4 360.7,50.3 358.2,47.1 354.3,45.8 "/>
<polygon class="st3" points="331.7,52.8 334.7,50 330.7,49.1 330.8,45 327.3,47.1 324.5,44.2 323.6,48.1 319.5,48 321.6,51.5 
	318.7,54.3 322.6,55.3 322.5,59.3 326,57.2 328.8,60.1 329.8,56.2 333.8,56.3 "/>
<polygon class="st3" points="157.3,150.7 158.5,146.8 154.6,147.9 152.6,144.4 150.7,147.9 146.8,146.8 147.9,150.7 144.4,152.6 
	147.9,154.6 146.8,158.5 150.7,157.3 152.6,160.9 154.6,157.3 158.5,158.5 157.3,154.6 160.9,152.6 "/>
<polygon class="st3" points="55.3,322.6 54.3,318.7 51.5,321.6 48,319.5 48.1,323.6 44.2,324.5 47.1,327.3 45,330.8 49.1,330.7 
	50,334.7 52.8,331.7 56.3,333.8 56.2,329.8 60.1,328.8 57.2,326 59.3,322.5 "/>
<polygon class="st3" points="52.8,522.6 50,519.6 49.1,523.6 45,523.5 47.1,527 44.2,529.8 48.1,530.7 48,534.8 51.5,532.7 
	54.3,535.6 55.3,531.7 59.3,531.8 57.2,528.3 60.1,525.5 56.2,524.5 56.3,520.5 "/>
<polygon class="st3" points="150.7,697 146.8,695.8 147.9,699.7 144.4,701.7 147.9,703.6 146.8,707.5 150.7,706.4 152.6,709.9 
	154.6,706.4 158.5,707.5 157.3,703.6 160.9,701.7 157.3,699.7 158.5,695.8 154.6,697 152.6,693.4 "/>
<polygon class="st3" points="322.6,799 318.7,800 321.6,802.8 319.5,806.3 323.6,806.2 324.5,810.1 327.3,807.2 330.8,809.3 
	330.7,805.2 334.7,804.3 331.7,801.5 333.8,798 329.8,798.1 328.8,794.2 326,797.1 322.5,795 "/>
<polygon class="st3" points="522.6,801.5 519.6,804.3 523.6,805.2 523.5,809.3 527,807.2 529.8,810.1 530.7,806.2 534.8,806.3 
	532.7,802.8 535.6,800 531.7,799 531.8,795 528.3,797.1 525.5,794.2 524.5,798.1 520.5,798 "/>
<polygon class="st3" points="697,703.6 695.8,707.5 699.7,706.4 701.7,709.9 703.6,706.4 707.5,707.5 706.4,703.6 709.9,701.7 
	706.4,699.7 707.5,695.8 703.6,697 701.7,693.4 699.7,697 695.8,695.8 697,699.7 693.4,701.7 "/>
<polygon class="st3" points="799,531.7 800,535.6 802.8,532.7 806.3,534.8 806.2,530.7 810.1,529.8 807.2,527 809.3,523.5 
	805.2,523.6 804.3,519.6 801.5,522.6 798,520.5 798.1,524.5 794.2,525.5 797.1,528.3 795,531.8 "/>
<polygon class="st3" points="801.5,331.7 804.3,334.7 805.2,330.7 809.3,330.8 807.2,327.3 810.1,324.5 806.2,323.6 806.3,319.5 
	802.8,321.6 800,318.7 799,322.6 795,322.5 797.1,326 794.2,328.8 798.1,329.8 798,333.8 "/>
<polygon class="st3" points="703.6,157.3 707.5,158.5 706.4,154.6 709.9,152.6 706.4,150.7 707.5,146.8 703.6,147.9 701.7,144.4 
	699.7,147.9 695.8,146.8 697,150.7 693.4,152.6 697,154.6 695.8,158.5 699.7,157.3 701.7,160.9 "/>
<polygon class="st3" points="531.7,55.3 535.6,54.3 532.7,51.5 534.8,48 530.7,48.1 529.8,44.2 527,47.1 523.5,45 523.6,49.1 
	519.6,50 522.6,52.8 520.5,56.3 524.5,56.2 525.5,60.1 528.3,57.2 531.8,59.3 "/>
<polygon class="st3" points="291.9,61.2 292.5,57.2 295.5,59.8 299.6,60.5 296.9,63.5 296.3,67.5 293.2,64.8 289.2,64.2 "/>
<polygon class="st3" points="260.5,74.4 260.8,70.3 264,72.7 268.1,73 265.7,76.2 265.4,80.3 262.1,77.9 258.1,77.6 "/>
<polygon class="st3" points="230.4,90.2 230.3,86.2 233.8,88.3 237.8,88.2 235.7,91.7 235.8,95.7 232.3,93.6 228.3,93.7 "/>
<polygon class="st3" points="201.8,108.7 201.3,104.6 205,106.4 209,106 207.2,109.6 207.6,113.7 204,111.9 200,112.3 "/>
<polygon class="st3" points="174.9,129.5 174.1,125.5 177.8,127 181.8,126.2 180.4,130 181.2,134 177.4,132.5 173.4,133.3 "/>
<polygon class="st3" points="127,177.8 125.5,174.1 129.5,174.9 133.3,173.4 132.5,177.4 134,181.2 130,180.4 126.2,181.8 "/>
<polygon class="st3" points="106.4,205 104.6,201.3 108.7,201.8 112.3,200 111.9,204 113.7,207.6 109.6,207.2 106,209 "/>
<polygon class="st3" points="88.3,233.8 86.2,230.3 90.2,230.4 93.7,228.3 93.6,232.3 95.7,235.8 91.7,235.7 88.2,237.8 "/>
<polygon class="st3" points="72.7,264 70.3,260.8 74.4,260.5 77.6,258.1 77.9,262.1 80.3,265.4 76.2,265.7 73,268.1 "/>
<polygon class="st3" points="59.8,295.5 57.2,292.5 61.2,291.9 64.2,289.2 64.8,293.2 67.5,296.3 63.5,296.9 60.5,299.6 "/>
<polygon class="st3" points="42.6,361.3 39.4,358.8 43.3,357.5 45.8,354.3 47.1,358.2 50.3,360.7 46.4,362 43.9,365.2 "/>
<polygon class="st3" points="38.3,395.1 34.9,392.8 38.6,391.2 40.9,387.8 42.5,391.5 45.9,393.8 42.2,395.4 39.9,398.8 "/>
<polygon class="st3" points="37,429.1 33.4,427.2 37,425.2 38.9,421.6 40.9,425.2 44.4,427.2 40.9,429.1 38.9,432.7 "/>
<polygon class="st3" points="38.6,463.1 34.9,461.5 38.3,459.2 39.9,455.5 42.2,458.9 45.9,460.5 42.5,462.8 40.9,466.5 "/>
<polygon class="st3" points="43.3,496.8 39.4,495.5 42.6,493 43.9,489.1 46.4,492.3 50.3,493.6 47.1,496.1 45.8,500 "/>
<polygon class="st3" points="61.2,562.4 57.2,561.8 59.8,558.8 60.5,554.8 63.5,557.4 67.5,558 64.8,561.1 64.2,565.1 "/>
<polygon class="st3" points="74.4,593.8 70.3,593.5 72.7,590.3 73,586.2 76.2,588.6 80.3,588.9 77.9,592.2 77.6,596.2 "/>
<polygon class="st3" points="90.2,623.9 86.2,624 88.3,620.5 88.2,616.5 91.7,618.6 95.7,618.5 93.6,622 93.7,626 "/>
<polygon class="st3" points="108.7,652.5 104.6,653 106.4,649.3 106,645.3 109.6,647.1 113.7,646.7 111.9,650.3 112.3,654.3 "/>
<polygon class="st3" points="129.5,679.4 125.5,680.2 127,676.5 126.2,672.5 130,673.9 134,673.2 132.5,676.9 133.3,680.9 "/>
<polygon class="st3" points="177.8,727.3 174.1,728.8 174.9,724.8 173.4,721 177.4,721.8 181.2,720.3 180.4,724.3 181.8,728.1 "/>
<polygon class="st3" points="205,747.9 201.3,749.7 201.8,745.6 200,742 204,742.4 207.6,740.6 207.2,744.7 209,748.3 "/>
<polygon class="st3" points="233.8,766 230.3,768.1 230.4,764.1 228.3,760.6 232.3,760.7 235.8,758.6 235.7,762.6 237.8,766.1 "/>
<polygon class="st3" points="264,781.6 260.8,784 260.5,779.9 258.1,776.7 262.1,776.4 265.4,774 265.7,778.1 268.1,781.3 "/>
<polygon class="st3" points="295.5,794.5 292.5,797.1 291.9,793.1 289.2,790.1 293.2,789.5 296.3,786.8 296.9,790.8 299.6,793.8 "/>
<polygon class="st3" points="361.3,811.7 358.8,814.9 357.5,811.1 354.3,808.5 358.2,807.2 360.7,804 362,807.9 365.2,810.4 "/>
<polygon class="st3" points="395.1,816 392.8,819.4 391.2,815.7 387.8,813.4 391.5,811.8 393.8,808.4 395.4,812.1 398.8,814.4 "/>
<polygon class="st3" points="429.1,817.3 427.2,820.9 425.2,817.3 421.6,815.4 425.2,813.4 427.2,809.9 429.1,813.4 432.7,815.4 "/>
<polygon class="st3" points="463.1,815.7 461.5,819.4 459.2,816 455.5,814.4 458.9,812.1 460.5,808.4 462.8,811.8 466.5,813.4 "/>
<polygon class="st3" points="496.8,811.1 495.5,814.9 493,811.7 489.1,810.4 492.3,807.9 493.6,804 496.1,807.2 500,808.5 "/>
<polygon class="st3" points="562.4,793.1 561.8,797.1 558.8,794.5 554.8,793.8 557.4,790.8 558,786.8 561.1,789.5 565.1,790.1 "/>
<polygon class="st3" points="593.8,779.9 593.5,784 590.3,781.6 586.2,781.3 588.6,778.1 588.9,774 592.2,776.4 596.2,776.7 "/>
<polygon class="st3" points="623.9,764.1 624,768.1 620.5,766 616.5,766.1 618.6,762.6 618.5,758.6 622,760.7 626,760.6 "/>
<polygon class="st3" points="652.5,745.6 653,749.7 649.3,747.9 645.3,748.3 647.1,744.7 646.7,740.6 650.3,742.4 654.3,742 "/>
<polygon class="st3" points="679.4,724.8 680.2,728.8 676.5,727.3 672.5,728.1 673.9,724.3 673.2,720.3 676.9,721.8 680.9,721 "/>
<polygon class="st3" points="727.3,676.5 728.8,680.2 724.8,679.4 721,680.9 721.8,676.9 720.3,673.2 724.3,673.9 728.1,672.5 "/>
<polygon class="st3" points="747.9,649.3 749.7,653 745.6,652.5 742,654.3 742.4,650.3 740.6,646.7 744.7,647.1 748.3,645.3 "/>
<polygon class="st3" points="766,620.5 768.1,624 764.1,623.9 760.6,626 760.7,622 758.6,618.5 762.6,618.6 766.1,616.5 "/>
<polygon class="st3" points="781.6,590.3 784,593.5 779.9,593.8 776.7,596.2 776.4,592.2 774,588.9 778.1,588.6 781.3,586.2 "/>
<polygon class="st3" points="794.5,558.8 797.1,561.8 793.1,562.4 790.1,565.1 789.5,561.1 786.8,558 790.8,557.4 793.8,554.8 "/>
<polygon class="st3" points="811.7,493 814.9,495.5 811.1,496.8 808.5,500 807.2,496.1 804,493.6 807.9,492.3 810.4,489.1 "/>
<polygon class="st3" points="816,459.2 819.4,461.5 815.7,463.1 813.4,466.5 811.8,462.8 808.4,460.5 812.1,458.9 814.4,455.5 "/>
<polygon class="st3" points="817.3,425.2 820.9,427.2 817.3,429.1 815.4,432.7 813.4,429.1 809.9,427.2 813.4,425.2 815.4,421.6 "/>
<polygon class="st3" points="815.7,391.2 819.4,392.8 816,395.1 814.4,398.8 812.1,395.4 808.4,393.8 811.8,391.5 813.4,387.8 "/>
<polygon class="st3" points="811.1,357.5 814.9,358.8 811.7,361.3 810.4,365.2 807.9,362 804,360.7 807.2,358.2 808.5,354.3 "/>
<polygon class="st3" points="793.1,291.9 797.1,292.5 794.5,295.5 793.8,299.6 790.8,296.9 786.8,296.3 789.5,293.2 790.1,289.2 "/>
<polygon class="st3" points="779.9,260.5 784,260.8 781.6,264 781.3,268.1 778.1,265.7 774,265.4 776.4,262.1 776.7,258.1 "/>
<polygon class="st3" points="764.1,230.4 768.1,230.3 766,233.8 766.1,237.8 762.6,235.7 758.6,235.8 760.7,232.3 760.6,228.3 "/>
<polygon class="st3" points="745.6,201.8 749.7,201.3 747.9,205 748.3,209 744.7,207.2 740.6,207.6 742.4,204 742,200 "/>
<polygon class="st3" points="724.8,174.9 728.8,174.1 727.3,177.8 728.1,181.8 724.3,180.4 720.3,181.2 721.8,177.4 721,173.4 "/>
<polygon class="st3" points="676.5,127 680.2,125.5 679.4,129.5 680.9,133.3 676.9,132.5 673.2,134 673.9,130 672.5,126.2 "/>
<polygon class="st3" points="649.3,106.4 653,104.6 652.5,108.7 654.3,112.3 650.3,111.9 646.7,113.7 647.1,109.6 645.3,106 "/>
<polygon class="st3" points="620.5,88.3 624,86.2 623.9,90.2 626,93.7 622,93.6 618.5,95.7 618.6,91.7 616.5,88.2 "/>
<polygon class="st3" points="590.3,72.7 593.5,70.3 593.8,74.4 596.2,77.6 592.2,77.9 588.9,80.3 588.6,76.2 586.2,73 "/>
<polygon class="st3" points="558.8,59.8 561.8,57.2 562.4,61.2 565.1,64.2 561.1,64.8 558,67.5 557.4,63.5 554.8,60.5 "/>
<polygon class="st3" points="493,42.6 495.5,39.4 496.8,43.3 500,45.8 496.1,47.1 493.6,50.3 492.3,46.4 489.1,43.9 "/>
<polygon class="st3" points="459.2,38.3 461.5,34.9 463.1,38.6 466.5,40.9 462.8,42.5 460.5,45.9 458.9,42.2 455.5,39.9 "/>
<g>
	<line class="st4" x1="418.6" y1="361.9" x2="435.7" y2="492.4"/>
	<line class="st4" x1="410.1" y1="363.6" x2="444.2" y2="490.7"/>
	<line class="st4" x1="402" y1="366.4" x2="452.3" y2="487.9"/>
	<line class="st4" x1="387.1" y1="375" x2="467.2" y2="479.3"/>
	<line class="st4" x1="380.6" y1="380.6" x2="473.7" y2="473.7"/>
	<line class="st4" x1="375" y1="387.1" x2="479.3" y2="467.2"/>
	<line class="st4" x1="366.4" y1="402" x2="487.9" y2="452.3"/>
	<line class="st4" x1="363.6" y1="410.1" x2="490.7" y2="444.2"/>
	<line class="st4" x1="361.9" y1="418.6" x2="492.4" y2="435.7"/>
	<line class="st4" x1="361.9" y1="435.7" x2="492.4" y2="418.6"/>
	<line class="st4" x1="363.6" y1="444.2" x2="490.7" y2="410.1"/>
	<line class="st4" x1="366.4" y1="452.3" x2="487.9" y2="402"/>
	<line class="st4" x1="375" y1="467.2" x2="479.3" y2="387.1"/>
	<line class="st4" x1="380.6" y1="473.7" x2="473.7" y2="380.6"/>
	<line class="st4" x1="387.1" y1="479.3" x2="467.2" y2="375"/>
	<line class="st4" x1="402" y1="487.9" x2="452.3" y2="366.4"/>
	<line class="st4" x1="410.1" y1="490.7" x2="444.2" y2="363.6"/>
	<line class="st4" x1="418.6" y1="492.4" x2="435.7" y2="361.9"/>
</g>
<g>
	<path class="st5" d="M399.6,439.3L372,459l30.9-14l6.7-3c-1.7-2-3.1-4.4-4-7L399.6,439.3z"/>
	<path class="st5" d="M451.4,445l30.9,14l-27.6-19.7l-5.9-4.3c-0.9,2.6-2.3,4.9-4,7L451.4,445z"/>
	<path class="st5" d="M431.9,404.6l-1.1-10.7l-3.7-37.5l-3.7,37.5l-1.1,10.7c1.5-0.3,3.1-0.5,4.7-0.5
		C428.8,404.1,430.4,404.3,431.9,404.6z"/>
	<path class="st5" d="M415,399.6L395.3,372l14,30.9l3,6.7c2-1.7,4.4-3.1,7-4L415,399.6z"/>
	<path class="st5" d="M409.3,451.4l-14,30.9l19.7-27.6l4.3-5.9c-2.6-0.9-4.9-2.3-7-4L409.3,451.4z"/>
	<path class="st5" d="M402.9,409.3l-30.9-14l27.6,19.7l5.9,4.3c0.9-2.6,2.3-4.9,4-7L402.9,409.3z"/>
	<path class="st5" d="M454.7,415l27.6-19.7l-30.9,14l-6.7,3c1.7,2,3.1,4.4,4,7L454.7,415z"/>
	<path class="st5" d="M439.3,454.7l19.7,27.6l-14-30.9l-3-6.7c-2,1.7-4.4,3.1-7,4L439.3,454.7z"/>
	<path class="st5" d="M445,402.9l14-30.9l-19.7,27.6l-4.3,5.9c2.6,0.9,4.9,2.3,7,4L445,402.9z"/>
	<path class="st5" d="M404.6,422.4l-10.7,1.1l-37.5,3.7l37.5,3.7l10.7,1.1c-0.3-1.5-0.5-3.1-0.5-4.7
		C404.1,425.5,404.3,423.9,404.6,422.4z"/>
	<path class="st5" d="M422.4,449.7l1.1,10.7l3.7,37.5l3.7-37.5l1.1-10.7c-1.5,0.3-3.1,0.5-4.7,0.5
		C425.5,450.2,423.9,450,422.4,449.7z"/>
	<path class="st5" d="M449.7,431.9l10.7-1.1l37.5-3.7l-37.5-3.7l-10.7-1.1c0.3,1.5,0.5,3.1,0.5,4.7
		C450.2,428.8,450,430.4,449.7,431.9z"/>
</g>
<circle class="st0" cx="427.2" cy="427.2" r="23"/>
<circle class="st0" cx="427.2" cy="427.2" r="18"/>
</svg>
