<svg width="235" height="240" viewBox="0 0 235 240" fill="none" xmlns="http://www.w3.org/2000/svg">
<path d="M212.245 119.777C225.663 107.134 234.039 89.208 234.039 69.3186C234.039 31.0337 202.997 0 164.71 0C146.234 0 129.449 7.22651 117.019 19.0087C104.593 7.22651 87.8044 0 69.328 0C31.0376 0 -0.000488281 31.0337 -0.000488281 69.3186C-0.000488281 89.2038 8.37952 107.134 21.7933 119.777C8.37541 132.419 -0.000488281 150.345 -0.000488281 170.235C-0.000488281 208.52 31.0376 239.553 69.328 239.553C87.8044 239.553 104.589 232.327 117.019 220.544C129.445 232.327 146.234 239.553 164.71 239.553C203.001 239.553 234.039 208.52 234.039 170.235C234.039 150.345 225.659 132.415 212.245 119.777Z" fill="#C39A6B"/>
<path d="M97.0491 68.8582C97.0491 69.7759 97.0491 70.6937 97.0491 71.6073C105.067 72.1834 110.224 75.9037 112.517 82.7763C114.464 90.5666 115.439 96.9824 115.439 102.024C115.439 105.118 114.237 106.662 111.829 106.662C109.306 106.662 108.047 105.345 108.047 102.711C107.816 97.2128 106.956 91.6571 105.47 86.0438C104.437 82.0355 101.63 79.5128 97.0491 78.484C97.0491 86.8463 97.1603 94.9247 97.3949 102.715C97.3949 105.81 96.0778 107.353 93.4436 107.353C91.1511 107.353 89.8916 104.834 89.6611 99.7931C89.6611 93.0358 89.6611 86.1591 89.6611 79.1712C86.6812 80.2042 84.3351 82.4964 82.6146 86.0438C81.0094 92.1181 79.9228 98.1306 79.3507 104.09C79.3507 107.184 78.0336 108.728 75.3994 108.728C73.2221 108.728 72.1355 106.723 72.1355 102.711C72.1355 98.1305 73.3374 91.8835 75.7452 83.9779C78.2641 77.2206 82.9027 73.097 89.6652 71.6032C89.6652 70.6895 89.6652 69.7718 89.6652 68.8541C79.4659 67.5948 73.5637 61.6976 71.9626 51.1541C72.4195 48.7466 73.6213 47.5449 75.5723 47.5449C77.7496 47.5449 78.9515 48.7466 79.182 51.1541C80.3262 57.5699 83.763 61.179 89.4923 61.9815C89.3771 57.4012 89.2042 53.5616 88.9778 50.4668C88.9778 47.7178 90.4637 45.8865 93.4477 44.9688C96.0819 45.4297 97.399 47.261 97.399 50.4668C97.399 54.4793 97.3414 58.3148 97.2261 61.9815C102.61 60.7222 105.993 57.1131 107.368 51.1541C108.281 49.2075 109.43 48.0059 110.805 47.5449C113.784 47.5449 115.274 48.9771 115.274 51.8413C113.319 62.3889 107.244 68.0599 97.0491 68.8582ZM121.798 135.535C122.025 165.778 122.37 184.626 122.831 192.071C122.831 195.738 121.111 197.569 117.674 197.569C114.694 197.569 113.204 195.507 113.204 191.384C113.43 187.717 113.546 169.103 113.546 135.535C102.774 135.535 90.7436 135.765 77.4533 136.222C74.3581 136.222 72.6953 134.905 72.4689 132.271C72.4689 130.325 73.7284 129.123 76.2514 128.662C84.615 128.321 97.9629 127.917 116.299 127.46C127.643 127.46 141.678 127.691 158.409 128.148C161.389 128.489 162.879 129.637 162.879 131.584C162.879 134.679 161.389 136.226 158.409 136.226C147.753 136.226 135.549 135.996 121.798 135.535ZM97.0491 142.584C99.7986 142.584 101.173 143.959 101.173 146.708C101.173 150.72 99.0536 158.967 94.8142 171.453C91.719 180.157 88.4551 187.034 85.0183 192.075C83.6436 193.907 82.096 194.824 80.3797 194.824C78.2024 194.824 77.0005 193.45 76.77 190.701C76.77 189.211 78.7745 184.857 82.7875 177.639C85.5369 172.597 87.883 166.585 89.8339 159.593C91.5544 154.095 92.641 149.28 93.0979 145.156C93.5506 143.44 94.8718 142.584 97.0491 142.584ZM154.627 112.337C157.491 112.798 158.924 114.172 158.924 116.46C158.924 118.752 157.491 119.897 154.627 119.897C126.898 119.897 102.951 119.897 82.7834 119.897C80.7213 119.897 79.6306 118.464 79.5195 115.6C79.5195 113.88 81.4087 112.793 85.1912 112.337C96.761 112.337 119.909 112.337 154.627 112.337ZM146.378 68.3438C146.378 69.6072 146.378 70.6937 146.378 71.6073C153.709 73.097 158.467 77.2206 160.644 83.9821C162.591 91.8876 163.566 98.5915 163.566 104.09C163.566 107.184 162.476 108.728 160.303 108.728C157.664 108.728 156.351 107.411 156.351 104.777C156.121 98.8219 155.261 92.8053 153.775 86.7311C152.746 82.7228 150.276 80.2001 146.383 79.1712C146.383 87.0768 146.494 94.9247 146.728 102.715C146.728 105.353 145.354 106.666 142.604 106.666C140.427 106.666 139.225 104.147 138.994 99.1059C138.994 92.3485 138.994 85.4718 138.994 78.484C135.899 79.5169 133.549 81.8092 131.948 85.3566C130.573 90.3979 129.655 95.4391 129.199 100.48C129.199 104.147 127.881 105.978 125.247 105.978C123.07 105.978 121.983 103.917 121.983 99.7931C121.983 95.6696 123.07 89.9987 125.247 82.7804C127.655 76.3646 132.236 72.6402 138.999 71.6114C138.999 70.6978 138.999 69.6072 138.999 68.3479C129.03 67.4343 123.243 61.9321 121.642 51.8496C122.099 48.9853 123.362 47.5532 125.424 47.5532C127.371 47.5532 128.519 48.9853 128.861 51.8496C129.89 57.3477 133.269 60.7305 139.003 61.9897C138.887 57.4094 138.715 53.5698 138.488 50.4751C138.488 47.726 139.863 45.8947 142.612 44.977C145.362 45.4379 146.736 47.2692 146.736 50.4751C146.736 54.0266 146.679 57.6933 146.564 61.4712C151.606 60.5576 154.697 57.1172 155.845 51.1623C156.759 49.2158 157.965 48.0141 159.455 47.5532C162.319 47.5532 163.752 48.9853 163.752 51.8496C162.019 61.928 156.228 67.4302 146.378 68.3438ZM138.64 143.099C140.818 143.099 142.02 144.074 142.25 146.021C145.456 157.939 149.008 168.017 152.906 176.264C155.314 180.845 156.516 184.511 156.516 187.264C156.516 190.013 155.314 191.388 152.906 191.388C151.186 191.388 149.869 190.927 148.955 190.013C146.09 184.972 142.481 175.577 138.126 161.832C135.833 153.585 134.574 148.77 134.343 147.395C134.574 144.988 136.006 143.556 138.64 143.099Z" fill="#EFECE0"/>
</svg>
