<svg width="129" height="274" viewBox="0 0 129 274" fill="none" xmlns="http://www.w3.org/2000/svg">
<g clip-path="url(#clip0_452_10194)">
<path d="M98.7494 270.286L89.2585 269.251L103.939 135.07L118.62 0.894531L128.105 1.93045L113.43 136.105L98.7494 270.286Z" fill="#E4007E" stroke="#C39A6B" stroke-width="2" stroke-miterlimit="10" stroke-linecap="round" stroke-linejoin="round"/>
<path d="M113.973 1.92969L114.11 10.2051L103.498 134.944L102.692 144.344L92.0802 269.119L83.7585 269.25L83.6213 260.974L94.2336 136.236L95.033 126.829L105.651 2.05471L113.973 1.92969Z" fill="#E4007E" stroke="#C39A6B" stroke-width="2" stroke-miterlimit="10" stroke-linecap="round" stroke-linejoin="round"/>
<path d="M99.8351 1.92969L101.142 9.03822L93.5596 133.783L92.9929 143.189L85.405 267.958L78.2586 269.25L76.9521 262.135L84.5341 137.397L85.1008 127.99L92.6887 3.22161L99.8351 1.92969Z" fill="#E4007E" stroke="#C39A6B" stroke-width="2" stroke-miterlimit="10" stroke-linecap="round" stroke-linejoin="round"/>
<path d="M85.7032 1.92969L88.1788 7.87728L83.6272 132.616L83.2872 142.029L78.7357 266.791L72.7525 269.25L70.2769 263.302L74.8284 138.558L75.1684 129.151L79.72 4.38255L85.7032 1.92969Z" fill="#E4007E" stroke="#C39A6B" stroke-width="2" stroke-miterlimit="10" stroke-linecap="round" stroke-linejoin="round"/>
<path d="M71.5654 1.92969L75.2102 6.71038L73.695 131.455L73.5817 140.868L72.0665 265.63L67.2525 269.25L63.6077 264.463L65.1229 139.719L65.2362 130.306L66.7574 5.54944L71.5654 1.92969Z" fill="#E4007E" stroke="#C39A6B" stroke-width="2" stroke-miterlimit="10" stroke-linecap="round" stroke-linejoin="round"/>
<path d="M57.4336 1.92969L62.2476 5.54944L63.7628 130.294L63.8762 139.707L65.3914 264.469L61.7525 269.25L56.9385 265.63L55.4174 140.879L55.304 131.467L53.7888 6.71038L57.4336 1.92969Z" fill="#E4007E" stroke="#C39A6B" stroke-width="2" stroke-miterlimit="10" stroke-linecap="round" stroke-linejoin="round"/>
<path d="M43.2958 1.92969L49.279 4.38255L53.8306 129.133L54.1766 138.552L58.7221 263.302L56.2465 269.25L50.2693 266.791L45.7177 142.046L45.3717 132.628L40.8262 7.87133L43.2958 1.92969Z" fill="#E4007E" stroke="#C39A6B" stroke-width="2" stroke-miterlimit="10" stroke-linecap="round" stroke-linejoin="round"/>
<path d="M29.1638 1.92969L36.3162 3.22161L43.8982 127.972L44.4708 137.391L52.0527 262.141L50.7463 269.25L43.5939 267.958L36.012 143.207L35.4393 133.789L27.8574 9.03822L29.1638 1.92969Z" fill="#E4007E" stroke="#C39A6B" stroke-width="2" stroke-miterlimit="10" stroke-linecap="round" stroke-linejoin="round"/>
<path d="M15.026 1.92969L23.3476 2.05471L33.9659 126.805L34.7652 136.23L45.3775 260.974L45.2463 269.25L36.9247 269.119L26.3064 144.368L25.5071 134.944L14.8948 10.1992L15.026 1.92969Z" fill="#E4007E" stroke="#C39A6B" stroke-width="2" stroke-miterlimit="10" stroke-linecap="round" stroke-linejoin="round"/>
<path d="M30.2556 270.286L39.7404 269.251L25.0598 135.07L10.3851 0.894531L0.894287 1.93045L15.5749 136.105L30.2556 270.286Z" fill="#E4007E" stroke="#C39A6B" stroke-miterlimit="10" stroke-linecap="round" stroke-linejoin="round"/>
<path d="M86.0791 72.8555H64.5025H42.92L2.32007 88.9658V257.594L18.4622 273.704H64.5025H110.537L126.679 257.594V88.9658L86.0791 72.8555Z" fill="#431D31" stroke="#C39A6B" stroke-width="2" stroke-miterlimit="10"/>
<path d="M41.8342 88.8789V257.674" stroke="#C39A6B" stroke-width="2.5" stroke-miterlimit="10"/>
<path d="M86.4668 88.8789V257.674" stroke="#C39A6B" stroke-width="2.5" stroke-miterlimit="10"/>
<path d="M58.8235 117.194H70.3187V118.129H58.8235V117.194ZM64.246 119.04C63.7568 121.451 62.9813 123.082 61.0784 124.678C60.4699 125.19 59.76 125.589 59.086 125.982L58.9547 125.863C60.0762 124.666 61.1738 122.779 61.5019 121.171C61.6451 120.463 61.7525 119.748 61.83 119.04H64.246ZM63.0469 114.164C63.6793 114.218 64.9857 114.337 65.5166 114.718C65.8089 114.926 66.125 115.444 66.125 115.783C66.125 116.456 65.6776 116.665 65.0692 116.665C64.8843 116.665 64.3056 116.557 64.1326 116.468C63.7628 116.272 63.7508 115.926 63.6435 115.557C63.4884 114.992 63.3273 114.676 62.9157 114.253L63.0469 114.164ZM65.6478 118.945C66.5844 119.629 68.7259 120.975 69.3046 121.975C69.74 122.755 70.086 123.44 70.086 124.345C70.086 124.952 69.74 125.66 69.0838 125.66C68.6484 125.66 68.3322 125.529 68.1473 125.119C67.9504 124.708 67.8192 123.815 67.6879 123.315C67.4792 122.565 67.1451 121.88 66.7932 121.195C66.5963 120.802 66.3994 120.38 66.1489 120.01C65.9222 119.683 65.7134 119.35 65.4867 119.01L65.6478 118.945Z" fill="white"/>
<path d="M58.6505 139.501H63.4705V135.262H65.5404V139.501H70.3425V140.423H65.5524V147.062H63.4645V140.423H58.6445V139.501H58.6505Z" fill="white"/>
<path d="M67.5985 156.766L68.1413 156.242L70.1099 156.653L69.4656 157.195V164.214H67.6581V163.767H65.2541V168.209H63.4466V163.767H61.2931V164.214H59.4558V156.457H61.2931V156.772H67.5985V156.766ZM63.4406 159.594V157.552H61.2872V159.594H63.4406ZM63.4406 162.97V160.404H61.2872V162.97H63.4406ZM67.6522 159.594V157.552H65.2481V159.594H67.6522ZM67.6522 162.97V160.404H65.2481V162.97H67.6522Z" fill="white"/>
<path d="M63.9179 182.272V180.808H64.3295C64.8962 180.212 65.4629 179.623 65.964 178.992H59.8257V178.057H66.65L67.2942 177.414L69.567 177.944C69.3403 178.099 69.1196 178.248 68.9049 178.402C68.7856 178.48 68.5887 178.73 68.4694 178.837C68.1652 179.129 67.8609 179.403 67.5209 179.641C66.9005 180.075 66.2145 180.444 65.5285 180.814H65.952V182.278H70.1874V183.189H65.952V187.458C65.952 187.684 65.964 187.904 65.9401 188.13C65.9401 188.291 65.8327 188.488 65.7671 188.619C65.606 188.922 65.093 189.041 64.7888 189.107C64.3653 189.184 63.9179 189.279 63.4824 189.279C63.3869 189.279 63.0708 189.279 63.0052 189.202C62.9634 189.148 62.9634 189.083 62.9634 189.018C62.9634 188.214 62.0805 188.124 61.4721 188.017V187.791C62.1342 187.833 62.7904 187.868 63.4406 187.868C63.8343 187.868 63.9179 187.803 63.9179 187.41V183.195H58.8652V182.284H63.9179V182.272Z" fill="white"/>
<path d="M63.2081 203.371L62.9993 203.276L63.2081 202.854L62.88 202.961C62.4446 203.104 61.6273 202.568 61.5975 202.222L61.5736 201.895C61.0964 202.556 60.3984 202.699 59.7124 203.157L59.5693 203.08C60.1777 202.353 60.3984 201.96 60.649 200.907H62.1523C62.0866 200.972 61.9554 201.276 61.8361 201.502C62.361 201.478 63.3274 201.728 63.5243 202.175C63.6555 201.728 63.7211 201.794 63.7748 201.347H65.0932C65.0156 201.651 64.9202 201.454 64.8188 201.758C65.2304 201.758 66.0058 201.615 66.4294 202.419L66.4413 201.3H67.5867C67.5867 202.193 67.6105 202.484 67.6403 203.383H69.9907V204.145H67.6403C67.6523 205.146 67.6642 205.253 67.706 206.253C67.9684 205.473 68.1414 205.11 68.2607 204.461L69.6447 204.58C69.5671 204.884 69.4598 205.146 69.3285 205.425C68.8274 206.467 68.6008 206.61 68.0639 207.533C68.1713 207.795 68.2071 207.902 68.392 208.11C68.4039 208.122 68.4994 208.23 68.5232 208.23C68.5769 208.23 68.6544 207.991 68.6664 207.968C68.8513 207.456 68.9945 206.914 69.1436 206.402L69.3524 206.426C69.2868 206.95 69.2331 207.491 69.2331 208.033C69.2331 208.14 69.2212 208.307 69.2868 208.402C69.4061 208.575 69.7461 208.563 69.7461 208.813C69.7461 209.105 69.4299 209.92 69.2331 210.159C69.1794 210.236 69.1138 210.278 69.0243 210.278C68.392 210.278 67.533 208.867 67.2586 208.42C66.6501 208.998 65.5823 209.617 64.4191 209.932L64.1148 209.694C64.944 209.236 65.463 208.92 65.9641 208.599C64.4847 209.021 60.9771 209.242 59.4679 209.563L58.9131 208.509C59.4679 208.486 60.9592 208.444 61.514 208.39V207.682H59.3784V206.932H61.514V206.586H59.3784V205.836H61.514V205.491H59.3784V204.753H61.514V204.407H62.6474V208.295L63.5064 208.253V204.431H64.5622V204.776H66.3459V205.485H64.5622V205.83H66.3697V206.58H64.5622V206.926H66.4473V207.676H64.5622V208.152C64.9082 208.11 66.2624 208.075 66.6083 208.033L66.9006 207.718C66.8052 207.271 66.7396 206.991 66.674 206.533C66.5189 205.414 66.5427 205.271 66.5189 204.151H59.1398C59.1398 203.598 59.1398 203.741 59.1398 203.389H63.2081V203.371ZM59.0205 201.514C59.8258 200.764 60.303 199.71 60.5237 198.656H62.5698L62.2119 199.341H64.8128V200.133H61.5259C60.8399 200.794 59.9809 201.175 59.1517 201.621L59.0205 201.514ZM61.514 200.288C61.9375 200.264 62.373 200.246 62.7965 200.246C63.1007 200.246 63.6018 200.27 63.8404 200.484C63.9597 200.591 64.0671 200.776 63.9717 201.014C63.8404 201.317 63.4944 201.317 63.1902 201.317C62.5579 201.317 62.6235 200.99 62.1761 200.698C61.9793 200.579 61.7168 200.49 61.502 200.395L61.514 200.288ZM66.489 203.371L66.4652 202.949C66.3578 203.026 65.9104 203.187 65.7672 203.187C65.4928 203.187 64.7531 202.925 64.6994 202.687C64.6458 202.49 64.5801 202.425 64.5026 202.228C64.079 202.705 63.739 203.008 63.2081 203.371H66.489ZM66.9961 199.341H70.0563V200.133H66.3996C65.8567 200.621 65.2661 201.056 64.5921 201.359L64.4489 201.294C64.95 200.466 65.2005 199.609 65.3198 198.662H67.3361C67.2168 198.877 67.1393 199.115 66.9961 199.341ZM66.4234 200.329C66.662 200.329 66.9006 200.305 67.1333 200.305C67.5151 200.305 67.9505 200.24 68.3502 200.282C68.6425 200.323 69.2629 200.609 69.2629 200.99C69.2629 201.466 68.9885 201.556 68.5113 201.556C67.7835 201.556 67.6284 201.056 67.1273 200.74C66.9185 200.609 66.6501 200.532 66.4115 200.466L66.4234 200.329ZM67.7596 201.55C68.3025 201.657 68.8155 201.734 69.1615 202.026C69.4001 202.234 69.3882 202.371 69.412 202.687C69.4538 203.014 69.2808 203.264 68.8871 203.24C68.4755 203.199 68.1593 202.967 68.1056 202.264C68.0937 201.972 67.9088 201.919 67.694 201.699L67.7596 201.55Z" fill="white"/>
</g>
<defs>
<clipPath id="clip0_452_10194">
<rect width="129" height="274" fill="white" transform="translate(-0.000488281)"/>
</clipPath>
</defs>
</svg>
