<?xml version="1.0" encoding="utf-8"?>
<!-- Generator: Adobe Illustrator 26.3.1, SVG Export Plug-In . SVG Version: 6.00 Build 0)  -->
<svg version="1.1" id="圖層_1" xmlns="http://www.w3.org/2000/svg" xmlns:xlink="http://www.w3.org/1999/xlink" x="0px" y="0px"
	 viewBox="0 0 270.6 270.6" style="enable-background:new 0 0 270.6 270.6;" xml:space="preserve">
<style type="text/css">
	.st0{clip-path:url(#SVGID_00000049907066772410436000000018233737502529732525_);}
	.st1{fill:#E4007E;stroke:#C39A6B;stroke-width:2;stroke-linecap:round;stroke-linejoin:round;stroke-miterlimit:10;}
	.st2{fill:#431D31;stroke:#C39A6B;stroke-width:2;stroke-miterlimit:10;}
	.st3{fill:none;stroke:#C39A6B;stroke-width:2.5;stroke-miterlimit:10;}
	.st4{fill:#FFFFFF;}
</style>
<g>
	<defs>
		<rect id="SVGID_1_" x="70.8" y="-4.7" width="129" height="274"/>
	</defs>
	<clipPath id="SVGID_00000021113619881963859120000005653707785307702706_">
		<use xlink:href="#SVGID_1_"  style="overflow:visible;"/>
	</clipPath>
	<g style="clip-path:url(#SVGID_00000021113619881963859120000005653707785307702706_);">
		<g>
			
				<rect x="80.7" y="9.9" transform="matrix(0.997 -7.733867e-02 7.733867e-02 0.997 -10.4248 7.042)" class="st1" width="10" height="256.5"/>
		</g>
		<g>
			
				<rect x="93.1" y="5.9" transform="matrix(0.9993 -3.658033e-02 3.658033e-02 0.9993 -4.8402 3.6783)" class="st1" width="10" height="256.5"/>
		</g>
		<g>
			<rect x="105.6" y="3.9" class="st1" width="10" height="256.5"/>
		</g>
		<g>
			
				<rect x="122" y="2.9" transform="matrix(1 -3.157384e-03 3.157384e-03 1 -0.4133 0.4017)" class="st1" width="10" height="256.5"/>
		</g>
		<g>
			
				<rect x="56.7" y="133.1" transform="matrix(7.733867e-02 -0.997 0.997 7.733867e-02 32.9197 311.7981)" class="st1" width="256.5" height="10"/>
		</g>
		<g>
			
				<rect x="44.3" y="129.1" transform="matrix(3.658033e-02 -0.9993 0.9993 3.658033e-02 32.1905 301.6158)" class="st1" width="256.5" height="10"/>
		</g>
		<g>
			<rect x="155" y="3.9" class="st1" width="10" height="256.5"/>
		</g>
		<g>
			
				<rect x="15.4" y="126.1" transform="matrix(3.157384e-03 -1 1 3.157384e-03 12.0478 274.3109)" class="st1" width="256.5" height="10"/>
		</g>
		<path class="st2" d="M156.9,68.2h-21.6h-21.6L73.1,84.3v168.6L89.3,269h46h46l16.1-16.1V84.3L156.9,68.2z"/>
		<path class="st3" d="M112.6,84.2V253"/>
		<path class="st3" d="M157.3,84.2V253"/>
		<path class="st4" d="M129.6,112.5h11.5v0.9h-11.5V112.5z M135.1,114.3c-0.5,2.4-1.3,4-3.2,5.6c-0.6,0.5-1.3,0.9-2,1.3l-0.1-0.1
			c1.1-1.2,2.2-3.1,2.5-4.7c0.1-0.7,0.3-1.4,0.3-2.1H135.1z M133.9,109.5c0.6,0.1,1.9,0.2,2.5,0.6c0.3,0.2,0.6,0.7,0.6,1.1
			c0,0.7-0.4,0.9-1.1,0.9c-0.2,0-0.8-0.1-0.9-0.2c-0.4-0.2-0.4-0.5-0.5-0.9c-0.2-0.6-0.3-0.9-0.7-1.3L133.9,109.5z M136.5,114.3
			c0.9,0.7,3.1,2,3.7,3c0.4,0.8,0.8,1.5,0.8,2.4c0,0.6-0.3,1.3-1,1.3c-0.4,0-0.8-0.1-0.9-0.5c-0.2-0.4-0.3-1.3-0.5-1.8
			c-0.2-0.8-0.5-1.4-0.9-2.1c-0.2-0.4-0.4-0.8-0.6-1.2c-0.2-0.3-0.4-0.7-0.7-1L136.5,114.3z"/>
		<path class="st4" d="M129.5,134.8h4.8v-4.2h2.1v4.2h4.8v0.9h-4.8v6.6h-2.1v-6.6h-4.8L129.5,134.8L129.5,134.8z"/>
		<path class="st4" d="M138.4,152.1l0.5-0.5l2,0.4l-0.6,0.5v7h-1.8v-0.4h-2.4v4.4h-1.8v-4.4h-2.2v0.4h-1.8v-7.8h1.8v0.3L138.4,152.1
			L138.4,152.1z M134.3,154.9v-2h-2.2v2H134.3z M134.3,158.3v-2.6h-2.2v2.6H134.3z M138.5,154.9v-2h-2.4v2H138.5z M138.5,158.3v-2.6
			h-2.4v2.6H138.5z"/>
		<path class="st4" d="M134.7,177.6v-1.5h0.4c0.6-0.6,1.1-1.2,1.6-1.8h-6.1v-0.9h6.8l0.6-0.6l2.3,0.5c-0.2,0.2-0.4,0.3-0.7,0.5
			c-0.1,0.1-0.3,0.3-0.4,0.4c-0.3,0.3-0.6,0.6-0.9,0.8c-0.6,0.4-1.3,0.8-2,1.2h0.4v1.5h4.2v0.9h-4.2v4.3c0,0.2,0,0.4,0,0.7
			c0,0.2-0.1,0.4-0.2,0.5c-0.2,0.3-0.7,0.4-1,0.5c-0.4,0.1-0.9,0.2-1.3,0.2c-0.1,0-0.4,0-0.5-0.1c0-0.1,0-0.1,0-0.2
			c0-0.8-0.9-0.9-1.5-1v-0.2c0.7,0,1.3,0.1,2,0.1c0.4,0,0.5-0.1,0.5-0.5v-4.2h-5.1v-0.9L134.7,177.6L134.7,177.6z"/>
		<path class="st4" d="M134,198.7l-0.2-0.1l0.2-0.4l-0.3,0.1c-0.4,0.1-1.3-0.4-1.3-0.7l0-0.3c-0.5,0.7-1.2,0.8-1.9,1.3l-0.1-0.1
			c0.6-0.7,0.8-1.1,1.1-2.2h1.5c-0.1,0.1-0.2,0.4-0.3,0.6c0.5,0,1.5,0.2,1.7,0.7c0.1-0.4,0.2-0.4,0.3-0.8h1.3
			c-0.1,0.3-0.2,0.1-0.3,0.4c0.4,0,1.2-0.1,1.6,0.7l0-1.1h1.1c0,0.9,0,1.2,0.1,2.1h2.4v0.8h-2.4c0,1,0,1.1,0.1,2.1
			c0.3-0.8,0.4-1.1,0.6-1.8l1.4,0.1c-0.1,0.3-0.2,0.6-0.3,0.8c-0.5,1-0.7,1.2-1.3,2.1c0.1,0.3,0.1,0.4,0.3,0.6c0,0,0.1,0.1,0.1,0.1
			c0.1,0,0.1-0.2,0.1-0.3c0.2-0.5,0.3-1.1,0.5-1.6l0.2,0c-0.1,0.5-0.1,1.1-0.1,1.6c0,0.1,0,0.3,0.1,0.4c0.1,0.2,0.5,0.2,0.5,0.4
			c0,0.3-0.3,1.1-0.5,1.3c-0.1,0.1-0.1,0.1-0.2,0.1c-0.6,0-1.5-1.4-1.8-1.9c-0.6,0.6-1.7,1.2-2.8,1.5l-0.3-0.2
			c0.8-0.5,1.3-0.8,1.8-1.1c-1.5,0.4-5,0.6-6.5,1l-0.6-1.1c0.6,0,2-0.1,2.6-0.1V203h-2.1v-0.8h2.1v-0.3h-2.1v-0.8h2.1v-0.3h-2.1
			v-0.7h2.1v-0.3h1.1v3.9l0.9,0v-3.8h1.1v0.3h1.8v0.7h-1.8v0.3h1.8v0.8h-1.8v0.3h1.9v0.8h-1.9v0.5c0.3,0,1.7-0.1,2-0.1l0.3-0.3
			c-0.1-0.4-0.2-0.7-0.2-1.2c-0.2-1.1-0.1-1.3-0.2-2.4H130c0-0.6,0-0.4,0-0.8L134,198.7L134,198.7z M129.8,196.8
			c0.8-0.8,1.3-1.8,1.5-2.9h2l-0.4,0.7h2.6v0.8h-3.3c-0.7,0.7-1.5,1-2.4,1.5L129.8,196.8z M132.3,195.6c0.4,0,0.9,0,1.3,0
			c0.3,0,0.8,0,1,0.2c0.1,0.1,0.2,0.3,0.1,0.5c-0.1,0.3-0.5,0.3-0.8,0.3c-0.6,0-0.6-0.3-1-0.6c-0.2-0.1-0.5-0.2-0.7-0.3L132.3,195.6
			z M137.3,198.7l0-0.4c-0.1,0.1-0.6,0.2-0.7,0.2c-0.3,0-1-0.3-1.1-0.5c-0.1-0.2-0.1-0.3-0.2-0.5c-0.4,0.5-0.8,0.8-1.3,1.1H137.3z
			 M137.8,194.7h3.1v0.8h-3.7c-0.5,0.5-1.1,0.9-1.8,1.2l-0.1-0.1c0.5-0.8,0.8-1.7,0.9-2.6h2C138,194.2,137.9,194.4,137.8,194.7z
			 M137.2,195.6c0.2,0,0.5,0,0.7,0c0.4,0,0.8-0.1,1.2,0c0.3,0,0.9,0.3,0.9,0.7c0,0.5-0.3,0.6-0.8,0.6c-0.7,0-0.9-0.5-1.4-0.8
			c-0.2-0.1-0.5-0.2-0.7-0.3L137.2,195.6z M138.6,196.9c0.5,0.1,1.1,0.2,1.4,0.5c0.2,0.2,0.2,0.3,0.3,0.7c0,0.3-0.1,0.6-0.5,0.6
			c-0.4,0-0.7-0.3-0.8-1c0-0.3-0.2-0.3-0.4-0.6L138.6,196.9z"/>
	</g>
</g>
</svg>
