<svg width="207" height="226" viewBox="0 0 207 226" fill="none" xmlns="http://www.w3.org/2000/svg">
<path d="M14.9995 61L188.999 65.7342L184.475 135.931L137.021 173L35.3345 153.117L14.9995 83.5227V61Z" fill="#431D31"/>
<path d="M191.807 40C183.971 40 177.62 46.3398 177.62 54.1641V107.563C177.62 116.458 172.51 131.834 161.293 144.576C151.65 155.522 133.805 168.559 103.494 168.672C73.1831 168.564 55.3376 155.528 45.6951 144.576C34.4774 131.84 29.3682 116.463 29.3682 107.563V54.1641C29.3682 46.3398 23.017 40 15.181 40C7.34507 40 0.999512 46.3455 0.999512 54.1641V107.563C0.999512 121.013 7.1249 143.675 24.3945 163.278C37.7744 178.468 62.1235 196.53 102.353 196.977C102.608 196.989 102.862 197 103.121 197C103.251 197 103.37 196.994 103.5 196.994C103.624 196.994 103.748 197 103.878 197C104.137 197 104.392 196.994 104.646 196.977C144.876 196.53 169.225 178.468 182.604 163.278C199.868 143.675 206 121.013 206 107.563V54.1641C205.994 46.3455 199.643 40 191.807 40Z" fill="#431D31" stroke="#C39A6B" stroke-width="2" stroke-miterlimit="10" stroke-linecap="round" stroke-linejoin="round"/>
<path d="M43.4995 86C34.9419 86 27.9995 79.3226 27.9995 71.079V49H58.9995V71.079C58.9995 79.3226 52.0571 86 43.4995 86Z" fill="white" stroke="#C39A6B" stroke-width="2" stroke-miterlimit="10" stroke-linecap="round" stroke-linejoin="round"/>
<path d="M73.4995 86C65.494 86 58.9995 79.3226 58.9995 71.079V49H87.9995V71.079C87.9995 79.3226 81.505 86 73.4995 86Z" fill="white" stroke="#C39A6B" stroke-width="2" stroke-miterlimit="10" stroke-linecap="round" stroke-linejoin="round"/>
<path d="M103 86C94.718 86 87.9995 79.3226 87.9995 71.079V49H118V71.079C118 79.3226 111.281 86 103 86Z" fill="white" stroke="#C39A6B" stroke-width="2" stroke-miterlimit="10" stroke-linecap="round" stroke-linejoin="round"/>
<path d="M133 86C124.718 86 118 79.3226 118 71.079V49H148V71.079C148 79.3226 141.287 86 133 86Z" fill="white" stroke="#C39A6B" stroke-width="2" stroke-miterlimit="10" stroke-linecap="round" stroke-linejoin="round"/>
<path d="M163 86C154.718 86 148 79.3226 148 71.079V49H178V71.079C178 79.3226 171.287 86 163 86Z" fill="white" stroke="#C39A6B" stroke-width="2" stroke-miterlimit="10" stroke-linecap="round" stroke-linejoin="round"/>
<path d="M128.508 112C114.424 112 103.005 123.509 103.005 137.704C103.005 123.509 91.5865 112 77.5023 112C63.4182 112 51.9995 123.509 51.9995 137.704V173.597C51.9995 201.988 74.8368 225 103 225C131.168 225 154 201.982 154 173.597V137.704C154.005 123.509 142.592 112 128.508 112Z" fill="#BD2027" stroke="#C39A6B" stroke-width="2" stroke-miterlimit="10" stroke-linecap="round" stroke-linejoin="round"/>
<path d="M103 168V138" stroke="#C39A6B" stroke-width="2" stroke-miterlimit="10" stroke-linecap="round" stroke-linejoin="round"/>
<path d="M103 52C103 23.8317 80.1634 1 52.0023 1C23.8412 1 0.999512 23.8373 0.999512 52H103Z" fill="#431D31" stroke="#C39A6B" stroke-width="2" stroke-miterlimit="10" stroke-linecap="round" stroke-linejoin="round"/>
<path d="M206 52C206 23.8317 183.162 1 155 1C126.837 1 104 23.8373 104 52H206Z" fill="#431D31" stroke="#C39A6B" stroke-width="2" stroke-miterlimit="10" stroke-linecap="round" stroke-linejoin="round"/>
</svg>
