<?xml version="1.0" encoding="utf-8"?>
<!-- Generator: Adobe Illustrator 26.3.1, SVG Export Plug-In . SVG Version: 6.00 Build 0)  -->
<svg version="1.1" id="圖層_1" xmlns="http://www.w3.org/2000/svg" xmlns:xlink="http://www.w3.org/1999/xlink" x="0px" y="0px"
	 viewBox="0 0 270.6 270.6" style="enable-background:new 0 0 270.6 270.6;" xml:space="preserve">
<style type="text/css">
	.st0{fill:#431D31;}
	.st1{fill:#431D31;stroke:#C39A6B;stroke-width:2;stroke-linecap:round;stroke-linejoin:round;stroke-miterlimit:10;}
	.st2{fill:#FFFFFF;stroke:#C39A6B;stroke-width:2;stroke-linecap:round;stroke-linejoin:round;stroke-miterlimit:10;}
	.st3{fill:#BD2027;stroke:#C39A6B;stroke-width:2;stroke-linecap:round;stroke-linejoin:round;stroke-miterlimit:10;}
	.st4{fill:none;stroke:#C39A6B;stroke-width:2;stroke-linecap:round;stroke-linejoin:round;stroke-miterlimit:10;}
</style>
<g>
	<path class="st0" d="M46.8,83.3l174,4.7l-4.5,70.2l-47.5,37.1L67.1,175.4l-20.3-69.6V83.3z"/>
	<path class="st1" d="M223.6,62.3c-7.8,0-14.2,6.3-14.2,14.2v53.4c0,8.9-5.1,24.3-16.3,37c-9.6,10.9-27.5,24-57.8,24.1
		c-30.3-0.1-48.2-13.1-57.8-24.1c-11.2-12.7-16.3-28.1-16.3-37V76.5c0-7.8-6.4-14.2-14.2-14.2c-7.8,0-14.2,6.3-14.2,14.2v53.4
		c0,13.4,6.1,36.1,23.4,55.7c13.4,15.2,37.7,33.3,78,33.7c0.3,0,0.5,0,0.8,0c0.1,0,0.2,0,0.4,0c0.1,0,0.2,0,0.4,0c0.3,0,0.5,0,0.8,0
		c40.2-0.4,64.6-18.5,78-33.7c17.3-19.6,23.4-42.3,23.4-55.7V76.5C237.8,68.7,231.5,62.3,223.6,62.3z"/>
	<path class="st2" d="M75.3,108.3c-8.6,0-15.5-6.7-15.5-14.9V71.3h31v22.1C90.8,101.6,83.9,108.3,75.3,108.3z"/>
	<path class="st2" d="M105.3,108.3c-8,0-14.5-6.7-14.5-14.9V71.3h29v22.1C119.8,101.6,113.3,108.3,105.3,108.3z"/>
	<path class="st2" d="M134.8,108.3c-8.3,0-15-6.7-15-14.9V71.3h30v22.1C149.8,101.6,143.1,108.3,134.8,108.3z"/>
	<path class="st2" d="M164.8,108.3c-8.3,0-15-6.7-15-14.9V71.3h30v22.1C179.8,101.6,173.1,108.3,164.8,108.3z"/>
	<path class="st2" d="M194.8,108.3c-8.3,0-15-6.7-15-14.9V71.3h30v22.1C209.8,101.6,203.1,108.3,194.8,108.3z"/>
	<path class="st3" d="M160.3,134.3c-14.1,0-25.5,11.5-25.5,25.7c0-14.2-11.4-25.7-25.5-25.7c-14.1,0-25.5,11.5-25.5,25.7v35.9
		c0,28.4,22.8,51.4,51,51.4c28.2,0,51-23,51-51.4V160C185.8,145.8,174.4,134.3,160.3,134.3z"/>
	<path class="st4" d="M134.8,190.3v-30"/>
	<path class="st1" d="M134.8,74.3c0-28.2-22.8-51-51-51s-51,22.8-51,51H134.8z"/>
	<path class="st1" d="M237.8,74.3c0-28.2-22.8-51-51-51c-28.2,0-51,22.8-51,51H237.8z"/>
</g>
</svg>
