<svg width="240" height="240" viewBox="0 0 240 240" fill="none" xmlns="http://www.w3.org/2000/svg">
<path d="M29.6341 15.2308C21.5998 17.6589 15.3601 24.0253 13.0634 32.0954C5.6342 58.236 -0.000488281 87.0145 -0.000488281 114.172C-0.000488281 144.218 6.89779 177.885 15.4918 208.166C17.7967 216.285 24.0858 222.684 32.1777 225.08C59.5815 233.191 90.2698 239.549 119.122 239.549C147.028 239.549 178.058 233.602 206.602 225.87C214.961 223.606 221.539 217.141 223.91 208.812C232.586 178.362 239.583 144.427 239.583 114.167C239.583 86.7758 233.849 57.738 226.326 31.4205C223.959 23.1405 217.472 16.6671 209.17 14.3748C179.935 6.31291 147.872 0 119.126 0C89.3725 0 57.6759 6.76148 29.6341 15.2308Z" fill="#C39A6B"/>
<path d="M80.898 75.9037C79.2928 78.0807 77.8605 80.1425 76.601 82.089C76.0248 83.8092 74.8229 84.6652 72.9913 84.6652C70.2419 84.2084 68.8672 82.8915 68.8672 80.7145C68.8672 79.6816 71.1021 75.9613 75.572 69.5455C82.3304 60.8416 88.4013 53.9649 93.7891 48.9236C93.7891 45.3762 95.7359 43.3103 99.6337 42.7383C100.667 42.7383 101.696 43.2527 102.729 44.2856C103.988 46.0059 105.248 47.0964 106.511 47.5491C114.99 53.5081 119.23 58.5494 119.23 62.6729C119.23 66.7965 116.995 70.7513 112.525 74.5292C104.849 81.7475 98.259 89.081 92.7601 96.5256C90.4675 100.649 88.2902 105.234 86.2281 110.275C84.6229 117.493 83.8203 125.514 83.8203 134.333C83.4787 137.082 81.9846 138.457 79.3504 138.457C77.7452 138.457 76.6586 137.485 76.0865 135.535C75.1687 134.276 74.5965 131.815 74.366 128.144C74.5924 113.366 79.2352 100.534 88.2861 89.6489C89.0846 88.7353 89.8913 87.5295 90.6939 86.0398C90.2329 85.583 89.8337 85.122 89.492 84.6652C86.7426 81.5746 83.8779 78.6569 80.898 75.9037ZM100.836 128.148C103.931 128.148 105.589 129.753 105.82 132.959C105.589 144.761 104.272 155.07 101.869 163.894C100.263 171.112 98.3701 177.009 96.1969 181.594C94.8222 184.915 93.3322 186.976 91.727 187.779C90.698 189.269 89.2615 190.014 87.43 190.014C85.2526 189.437 84.1661 188.063 84.1661 185.89C84.3924 184.515 85.5408 181.993 87.6028 178.33C89.3233 175.005 90.7515 171.573 91.8999 168.021C95.4478 156.107 97.23 143.963 97.23 131.588C98.1437 129.292 99.3456 128.148 100.836 128.148ZM88.8047 65.5948C87.3148 67.4302 85.94 68.9735 84.6806 70.2328C86.1705 70.6937 87.6028 71.8954 88.9775 73.8419C91.8422 76.9366 93.962 79.4552 95.3367 81.4018C96.7114 79.4552 98.1437 77.7926 99.6337 76.4181C99.4032 76.0765 99.2303 75.9037 99.1192 75.9037C95.7935 71.669 92.3526 68.2327 88.8047 65.5948ZM116.13 121.102C109.368 121.563 102.609 122.02 95.8512 122.477C93.9002 122.477 92.756 120.929 92.4144 117.839C92.4144 115.892 94.1348 114.46 97.5716 113.542C104.445 113.201 111.261 113.028 118.024 113.028C127.877 113.028 136.183 113.201 142.945 113.542C145.925 114.003 147.584 115.431 147.93 117.839C147.93 120.016 146.497 121.102 143.633 121.102C136.644 121.102 130.285 121.102 124.556 121.102C124.782 157.877 125.185 180.845 125.757 190.014C125.757 193.565 123.979 195.343 120.427 195.343C117.332 195.343 115.789 193.281 115.789 189.158C116.015 184.684 116.13 162 116.13 121.102ZM104.445 71.6073C107.882 68.5126 109.602 65.7635 109.602 63.3602C109.602 62.4466 108.401 60.8992 105.993 58.7222C104.042 56.3147 102.383 55.1131 101.008 55.1131C99.8601 55.1131 97.3987 57.002 93.6162 60.784C95.102 61.2449 96.4232 62.1009 97.5675 63.3602C100.778 67.0269 103.07 69.776 104.445 71.6073ZM120.259 94.4638C127.589 94.4638 133.722 94.6943 138.648 95.1511C141.398 96.0688 142.888 97.3857 143.118 99.1018C143.118 101.509 141.916 102.711 139.509 102.711C132.746 102.711 126.848 102.711 121.806 102.711C115.846 102.711 109.833 103.172 103.758 104.085C101.807 103.629 100.72 101.966 100.494 99.1018C100.494 97.3816 102.099 96.0688 105.305 95.1511C110.343 94.6943 115.328 94.4638 120.259 94.4638ZM152.396 75.9037C150.56 77.6239 148.383 79.4552 145.864 81.4018C137.385 86.4431 130.396 88.9616 124.897 88.9616C121.802 88.9616 120.254 87.5295 120.254 84.6652C120.481 83.4059 121.399 82.3195 123.004 81.4018C127.815 80.4882 133.66 78.1959 140.534 74.5292C141.908 73.6156 143.168 72.6402 144.316 71.6073C143.629 71.6073 142.941 71.6073 142.254 71.6073C137.442 71.6073 132.631 71.6073 127.815 71.6073C125.864 71.6073 124.893 70.5209 124.893 68.3439C125.119 65.9364 126.095 64.7347 127.815 64.7347C131.363 64.2779 135.035 64.0474 138.813 64.0474C143.168 64.0474 146.946 64.2779 150.157 64.7347C151.301 62.9034 151.931 60.8992 152.046 58.7181C152.046 57.2283 150.613 56.4835 147.749 56.4835H128.671C126.379 56.4835 125.235 55.397 125.235 53.22C125.461 50.8126 126.893 49.3845 129.532 48.9236H150.671C157.314 49.3845 160.64 52.1336 160.64 57.1707C160.64 60.8375 159.722 64.5619 157.89 68.3397C158.462 68.6854 158.977 69.0846 159.438 69.5414C161.5 71.9489 162.817 78.6486 163.389 89.6489C163.961 102.941 165.221 113.88 167.172 122.473C169.349 128.547 170.436 132.498 170.436 134.329C170.436 136.506 169.061 137.592 166.312 137.592C164.361 137.592 162.875 136.732 161.842 135.016C159.203 130.777 157.257 120.469 155.997 104.085C155.318 90.3403 154.116 80.9491 152.396 75.9037ZM140.365 129.349C142.773 129.349 144.201 130.782 144.662 133.646C145.003 141.321 145.979 148.885 147.584 156.33C148.959 164.577 150.963 171.684 153.602 177.639C154.289 179.359 154.919 180.96 155.491 182.45C156.063 183.363 156.351 184.281 156.351 185.199C156.351 188.404 154.688 190.009 151.367 190.009C150.103 190.009 148.502 187.487 146.555 182.45C144.032 176.375 141.855 169.276 140.023 161.14C137.5 148.766 136.183 139.605 136.072 133.646C136.755 130.786 138.187 129.349 140.365 129.349Z" fill="#EFECE0"/>
</svg>
