<svg width="246" height="240" viewBox="0 0 246 240" fill="none" xmlns="http://www.w3.org/2000/svg">
<path d="M85.7338 12.0157L25.9418 55.4489C3.88875 71.4699 -5.33913 99.8697 3.08203 125.796L25.9213 196.074C34.3465 221.996 58.507 239.548 85.7708 239.548H159.676C186.94 239.548 211.1 221.996 219.526 196.074L242.365 125.796C250.79 99.8738 241.562 71.474 219.505 55.4489L159.709 12.0157C137.656 -4.00524 107.791 -4.00524 85.7338 12.0157Z" fill="#C39A6B"/>
<path d="M96.2539 80.0314C96.4803 138.691 96.8836 174.832 97.4557 188.466C97.4557 191.787 95.8505 193.45 92.6442 193.45C89.7796 193.45 88.3472 191.561 88.3472 187.779C88.5736 180.561 88.6888 144.646 88.6888 80.0314C84.5647 80.0314 79.8643 80.2618 74.5959 80.7186C71.5008 80.7186 69.8379 79.2865 69.6116 76.4222C69.6116 74.702 70.9287 73.3892 73.567 72.4715C77.2342 71.8995 83.1324 71.6114 91.2695 71.6114C96.3115 71.6114 102.498 71.8995 109.832 72.4715C113.154 72.9324 114.817 74.0765 114.817 75.9078C114.817 79.1178 113.154 80.7186 109.832 80.7186C105.819 80.7186 101.296 80.4882 96.2539 80.0314ZM77.5182 86.0439C80.1524 86.0439 81.4736 87.7065 81.4736 91.0275C81.4736 100.196 81.4736 109.357 81.4736 118.522C81.4736 134.103 81.2431 146.934 80.7863 157.017C80.4405 167.099 79.8684 173.972 79.0658 177.639C78.4896 179.816 77.0038 180.902 74.5959 180.902C72.3034 180.902 71.1592 179.585 71.1592 176.951C71.2703 176.034 71.616 173.515 72.1881 169.392C72.7602 164.35 73.106 160.227 73.2212 157.017C73.6781 147.395 73.9086 134.564 73.9086 118.522C73.9086 109.357 73.6781 100.192 73.2212 91.0275C73.4517 87.7065 74.8841 86.0439 77.5182 86.0439ZM106.396 51.1582C109.145 52.076 110.52 53.6233 110.52 55.7962C110.52 57.7469 109.145 58.9486 106.396 59.4054C94.9368 59.4054 85.0833 59.4054 76.835 59.4054C74.6577 59.4054 73.4558 57.9732 73.2253 55.109C73.2253 52.9319 75.1146 51.615 78.8971 51.1582C83.5933 51.1582 92.7554 51.1582 106.396 51.1582ZM108.112 85.3566C110.746 85.3566 112.063 87.0192 112.063 90.3403C111.491 98.5874 111.203 106.32 111.203 113.538C111.203 134.16 111.66 150.029 112.578 161.14C113.376 170.194 113.779 175.688 113.779 177.639C113.779 179.359 112.75 180.445 110.684 180.902C108.964 180.902 107.532 179.812 106.387 177.639C104.897 167.099 104.037 145.963 103.811 114.226C103.811 106.551 103.811 98.5874 103.811 90.3403C104.272 87.4801 105.708 85.8175 108.112 85.3566ZM142.83 70.92C142.714 62.3272 142.541 54.7674 142.315 48.2364C142.315 45.6025 143.747 43.7671 146.612 42.7383C149.477 43.3144 150.909 45.1457 150.909 48.2364C150.909 56.1419 150.852 63.7018 150.736 70.92C155.433 71.381 159.902 71.6073 164.142 71.6073C170.443 73.0971 173.596 75.3893 173.596 78.4799C174.168 78.4799 174.456 85.8134 174.456 100.476C174.456 109.184 174.053 115.201 173.254 118.522C173.254 127.23 165.689 131.815 150.568 132.271C150.568 151.976 150.679 171.223 150.913 190.014C150.913 193.219 149.481 194.824 146.616 194.824C144.439 194.824 143.237 192.075 143.007 186.577C143.007 168.593 143.007 150.72 143.007 132.959C129.827 132.045 122.555 127.23 121.18 118.522C120.493 113.481 120.147 108.444 120.147 103.398C120.147 95.1511 120.147 86.8464 120.147 78.4799C121.637 75.3852 124.271 73.3851 128.053 72.4633C132.058 71.4386 136.989 70.92 142.83 70.92ZM128.395 97.9001H143.002C143.002 91.0275 142.945 84.7846 142.83 79.1672C133.659 79.1672 129.078 80.5993 129.078 83.4636C128.737 86.2167 128.506 91.0275 128.395 97.9001ZM143.002 124.711C143.002 119.213 143.002 113.658 143.002 108.044C143.002 107.127 143.002 106.271 143.002 105.468H128.395C128.506 110.053 128.967 113.946 129.77 117.156C130.457 121.732 134.865 124.255 143.002 124.711ZM166.895 104.777L150.568 105.464C150.568 107.641 150.568 109.933 150.568 112.337C150.452 116.46 150.452 120.584 150.568 124.711C159.046 123.683 163.8 121.617 164.833 118.526C166.089 115.201 166.776 110.621 166.895 104.777ZM150.736 79.1713C150.736 85.2455 150.679 91.2621 150.563 97.217H166.718C166.718 91.2621 166.546 86.4513 166.204 82.7804C166.208 80.9491 161.051 79.7433 150.736 79.1713Z" fill="#EFECE0"/>
</svg>
