<?xml version="1.0" encoding="utf-8"?>
<!-- Generator: Adobe Illustrator 26.3.1, SVG Export Plug-In . SVG Version: 6.00 Build 0)  -->
<svg version="1.1" xmlns="http://www.w3.org/2000/svg" xmlns:xlink="http://www.w3.org/1999/xlink" x="0px" y="0px"
	 viewBox="0 0 270.6 270.6" style="enable-background:new 0 0 270.6 270.6;" xml:space="preserve">
<style type="text/css">
	.st0{clip-path:url(#SVGID_00000142881959490144796230000012478237418075634110_);}
	.st1{fill:#431D31;stroke:#C39A6B;stroke-width:2;stroke-linecap:round;stroke-linejoin:round;stroke-miterlimit:10;}
	.st2{fill:#FE6830;stroke:#C39A6B;stroke-width:2.5;stroke-linecap:round;stroke-linejoin:round;stroke-miterlimit:10;}
	.st3{fill:#FE6830;}
	.st4{fill:none;stroke:#C39A6B;stroke-width:2.5;stroke-linecap:round;stroke-linejoin:round;stroke-miterlimit:10;}
	.st5{fill:none;stroke:#C39A6B;stroke-width:4;stroke-linecap:round;stroke-linejoin:round;stroke-miterlimit:10;}
</style>
<g id="圖層_1">
	<g>
		<defs>
			<rect id="SVGID_1_" x="13.3" y="14.3" width="244" height="242"/>
		</defs>
		<clipPath id="SVGID_00000085230819360753436110000014193273689455669650_">
			<use xlink:href="#SVGID_1_"  style="overflow:visible;"/>
		</clipPath>
		<g style="clip-path:url(#SVGID_00000085230819360753436110000014193273689455669650_);">
			<path class="st1" d="M27.8,131.5V63.7L51,35.2h52.5l24,38.9h4.1l24-38.9h52.2l23.4,28.5v67.8l-101.7,86.1L27.8,131.5z"/>
			<path class="st2" d="M238.7,32.9l-7.9-7.9l12.9-4.9l12.9-4.9L251.6,28l-4.9,12.8L238.7,32.9z"/>
			<path class="st3" d="M33.8,236.4l-2.2,19.1L68,219.9V202h-0.2h-18l-35.7,36.3l19.2-2.2"/>
			<path class="st4" d="M33.8,236.4l-2.2,19.1L68,219.9V202h-0.2h-18l-35.7,36.3l19.2-2.2"/>
			<path class="st5" d="M204.2,67.1l34.2-33.9"/>
			<path class="st5" d="M33.3,236.1l53.5-53"/>
			<path class="st5" d="M197.1,63.9c0,0,8.9,1.3,12.9,10.7"/>
		</g>
	</g>
</g>
<g id="圖層_2">
</g>
</svg>
