<svg width="244" height="242" viewBox="0 0 244 242" fill="none" xmlns="http://www.w3.org/2000/svg">
<g clip-path="url(#clip0_452_10174)">
<path d="M14.5137 117.209V49.3607L37.7055 20.9023H90.2004L114.156 59.7779H118.237L142.193 20.9023H194.433L217.879 49.3607V117.209L116.186 203.353L14.5137 117.209Z" fill="#431D31" stroke="#C39A6B" stroke-width="2" stroke-miterlimit="10" stroke-linecap="round" stroke-linejoin="round"/>
<path d="M225.391 18.5565L217.457 10.645L230.31 5.74049L243.162 0.835938L238.243 13.6519L233.325 26.4612L225.391 18.5565Z" fill="#FE6830" stroke="#C39A6B" stroke-width="2.5" stroke-miterlimit="10" stroke-linecap="round" stroke-linejoin="round"/>
<path d="M20.518 222.054L18.2866 241.164L54.6926 205.61V187.695H54.458H36.4929L0.837402 223.992L20.002 221.773" fill="#FE6830"/>
<path d="M20.518 222.054L18.2866 241.164L54.6926 205.61V187.695H54.458H36.4929L0.837402 223.992L20.002 221.773" stroke="#C39A6B" stroke-width="2.5" stroke-miterlimit="10" stroke-linecap="round" stroke-linejoin="round"/>
<path d="M190.875 52.7692L225.123 18.8984" stroke="#C39A6B" stroke-width="4" stroke-miterlimit="10" stroke-linecap="round" stroke-linejoin="round"/>
<path d="M20.0017 221.774L73.5486 168.812" stroke="#C39A6B" stroke-width="4" stroke-miterlimit="10" stroke-linecap="round" stroke-linejoin="round"/>
<path d="M183.785 49.5586C183.785 49.5586 192.697 50.895 196.711 60.223" stroke="#C39A6B" stroke-width="4" stroke-miterlimit="10" stroke-linecap="round" stroke-linejoin="round"/>
</g>
<defs>
<clipPath id="clip0_452_10174">
<rect width="244" height="242" fill="white" transform="translate(-0.000488281)"/>
</clipPath>
</defs>
</svg>
