<?xml version="1.0" encoding="utf-8"?>
<!-- Generator: Adobe Illustrator 26.3.1, SVG Export Plug-In . SVG Version: 6.00 Build 0)  -->
<svg version="1.1" id="圖層_1" xmlns="http://www.w3.org/2000/svg" xmlns:xlink="http://www.w3.org/1999/xlink" x="0px" y="0px"
	 viewBox="0 0 270.6 270.6" style="enable-background:new 0 0 270.6 270.6;" xml:space="preserve">
<style type="text/css">
	.st0{clip-path:url(#SVGID_00000055696232093763926920000007144130691913818799_);}
	.st1{fill:#431D31;stroke:#C39A6B;stroke-width:2;stroke-linecap:round;stroke-linejoin:round;}
	.st2{fill:#C39A6B;stroke:#C39A6B;stroke-width:2;stroke-linecap:round;stroke-linejoin:round;}
	.st3{fill:none;stroke:#C39A6B;stroke-width:2;stroke-linecap:round;stroke-linejoin:round;}
	.st4{fill:#35B1DF;stroke:#C39A6B;stroke-width:3;stroke-linecap:round;stroke-linejoin:round;stroke-miterlimit:10;}
</style>
<g>
	<g>
		<defs>
			<rect id="SVGID_1_" x="49.6" y="67" width="171.5" height="200.6"/>
		</defs>
		<clipPath id="SVGID_00000129170366057314866460000002669987764036468611_">
			<use xlink:href="#SVGID_1_"  style="overflow:visible;"/>
		</clipPath>
		<g style="clip-path:url(#SVGID_00000129170366057314866460000002669987764036468611_);">
			<path class="st1" d="M182.6,234.9v5.2c0,2.4-1.9,4.3-4.3,4.3c-2.4,0-4.3-1.9-4.3-4.3v-19c0-2.4-1.9-4.3-4.3-4.3h-0.4
				c-2.4,0-4.3,1.9-4.3,4.3v19c0,2.4-1.9,4.3-4.3,4.3c-2.3,0-4.3-1.9-4.3-4.3v-19c0-2.4-1.9-4.3-4.3-4.3h-0.1
				c-2.4,0-4.3,1.9-4.3,4.3v19c0,2.4-1.9,4.3-4.3,4.3c-2.3,0-4.3-1.9-4.3-4.3v-19c0-2.4-1.9-4.3-4.3-4.3h-0.1
				c-2.4,0-4.3,1.9-4.3,4.3v19c0,2.4-1.9,4.3-4.3,4.3s-4.3-1.9-4.3-4.3v-19c0-2.4-1.9-4.3-4.3-4.3h-0.1c-2.3,0-4.3,1.9-4.3,4.3v19
				c0,2.4-1.9,4.3-4.3,4.3c-2.3,0-4.3-1.9-4.3-4.3v-19c0-2.4-1.9-4.3-4.3-4.3h-0.1c-2.4,0-4.3,1.9-4.3,4.3v19c0,2.4-1.9,4.3-4.3,4.3
				s-4.3-1.9-4.3-4.3v-5.2c0-2.4-1.9-4.3-4.3-4.3h-0.6c-2.3,0-4.3,1.9-4.3,4.3v10.5c0,6.6,4.6,12.2,11.1,13.5l31,6.3
				c9.5,1.9,19.3,1.9,28.9,0l31-6.3c6.4-1.3,11.1-7,11.1-13.5v-10.5c0-2.4-1.9-4.3-4.3-4.3h-0.6
				C184.5,230.6,182.6,232.6,182.6,234.9L182.6,234.9z"/>
			<path class="st1" d="M135.3,68c-28.3,0-84.8,19.1-84.8,69v40.8c0,7.3,4.4,13.9,11.1,16.7l17.1,7.2v24.7c0,2.4,1.9,4.3,4.3,4.3
				h0.6c2.4,0,4.3,1.9,4.3,4.3v5.2c0,2.4,1.9,4.3,4.3,4.3s4.3-1.9,4.3-4.3v-19c0-2.3,1.9-4.3,4.3-4.3h0.1c2.3,0,4.3,1.9,4.3,4.3v19
				c0,2.4,1.9,4.3,4.3,4.3s4.3-1.9,4.3-4.3v-19c0-2.3,1.9-4.3,4.3-4.3h0.1c2.3,0,4.3,1.9,4.3,4.3v19c0,2.4,1.9,4.3,4.3,4.3
				c2.3,0,4.3-1.9,4.3-4.3v-19c0-2.3,1.9-4.3,4.3-4.3h0.1c2.4,0,4.3,1.9,4.3,4.3v19c0,2.4,1.9,4.3,4.3,4.3c2.3,0,4.3-1.9,4.3-4.3
				v-19c0-2.3,1.9-4.3,4.3-4.3h0.1c2.3,0,4.3,1.9,4.3,4.3v19c0,2.4,1.9,4.3,4.3,4.3c2.3,0,4.3-1.9,4.3-4.3v-19
				c0-2.3,1.9-4.3,4.3-4.3h0.4c2.4,0,4.3,1.9,4.3,4.3v19c0,2.4,1.9,4.3,4.3,4.3s4.3-1.9,4.3-4.3v-5.2c0-2.3,1.9-4.3,4.3-4.3h0.6
				c2.4,0,4.3-1.9,4.3-4.3v-24.7l17.1-7.2c6.7-2.8,11.1-9.4,11.1-16.7V137C220.1,87.1,163.6,68,135.3,68z"/>
			<path class="st2" d="M161.1,163.4c3.6,0,6.4-2.9,6.4-6.4c0-3.6-2.9-6.4-6.4-6.4c-3.6,0-6.4,2.9-6.4,6.4
				C154.6,160.5,157.5,163.4,161.1,163.4z"/>
			<path class="st2" d="M109.6,163.4c3.6,0,6.4-2.9,6.4-6.4c0-3.6-2.9-6.4-6.4-6.4s-6.4,2.9-6.4,6.4
				C103.1,160.5,106,163.4,109.6,163.4z"/>
			<path class="st2" d="M135.3,165.7l-6.3,13.1h6.3h6.3L135.3,165.7z"/>
			<path class="st3" d="M189.5,181.3l-14,9.2v23.5"/>
			<path class="st3" d="M81.1,181.3l14,9.2v23.5"/>
		</g>
	</g>
	<path class="st4" d="M129.7,3c0,0,6.5,5.6,5.4,13.2c-3.3,14.7-12.2,21.3-15.5,27.1c-3.3,5.8-14.5,22.2-4,37
		c8.4,11.7,28.7,13,37.7,1c6.2-8.3,3.5-20.6-0.4-29.3c-3.6-8.1,0.3-13.6,0.3-13.6s-4.5,7.7-9.9,5.4c-5.4-2.3-1.9-17.2-1.9-21.1
		C141.4,18.8,140.5,8.9,129.7,3z"/>
</g>
</svg>
