<svg width="172" height="267" viewBox="0 0 172 267" fill="none" xmlns="http://www.w3.org/2000/svg">
<g clip-path="url(#clip0_895_2785)">
<path d="M133.08 233.908V239.138C133.08 241.488 131.17 243.398 128.82 243.398C126.47 243.398 124.56 241.488 124.56 239.138V220.158C124.56 217.808 122.65 215.898 120.3 215.898H119.88C117.53 215.898 115.62 217.808 115.62 220.158V239.138C115.62 241.488 113.71 243.398 111.36 243.398C109.01 243.398 107.1 241.488 107.1 239.138V220.158C107.1 217.808 105.19 215.898 102.84 215.898H102.71C100.36 215.898 98.4495 217.808 98.4495 220.158V239.138C98.4495 241.488 96.5395 243.398 94.1895 243.398C91.8395 243.398 89.9295 241.488 89.9295 239.138V220.158C89.9295 217.808 88.0195 215.898 85.6695 215.898H85.5395C83.1895 215.898 81.2795 217.808 81.2795 220.158V239.138C81.2795 241.488 79.3695 243.398 77.0195 243.398C74.6695 243.398 72.7595 241.488 72.7595 239.138V220.158C72.7595 217.808 70.8495 215.898 68.4995 215.898H68.3695C66.0195 215.898 64.1095 217.808 64.1095 220.158V239.138C64.1095 241.488 62.1995 243.398 59.8495 243.398C57.4995 243.398 55.5895 241.488 55.5895 239.138V220.158C55.5895 217.808 53.6795 215.898 51.3295 215.898H51.1995C48.8495 215.898 46.9395 217.808 46.9395 220.158V239.138C46.9395 241.488 45.0295 243.398 42.6795 243.398C40.3295 243.398 38.4195 241.488 38.4195 239.138V233.908C38.4195 231.558 36.5095 229.648 34.1595 229.648H33.5295C31.1795 229.648 29.2695 231.558 29.2695 233.908V244.368C29.2695 250.938 33.8995 256.598 40.3395 257.898L71.3095 264.158C80.8295 266.088 90.6495 266.088 100.17 264.158L131.14 257.898C137.58 256.598 142.21 250.938 142.21 244.368V233.908C142.21 231.558 140.3 229.648 137.95 229.648H137.32C134.97 229.648 133.06 231.558 133.06 233.908H133.08Z" fill="#431D31" stroke="#C39A6B" stroke-width="2" stroke-linecap="round" stroke-linejoin="round"/>
<path d="M85.7595 67C57.4395 67 0.999512 86.14 0.999512 136.01V176.77C0.999512 184.08 5.38951 190.68 12.1295 193.5L29.2795 200.68V225.4C29.2795 227.75 31.1895 229.66 33.5395 229.66H34.1695C36.5195 229.66 38.4295 231.57 38.4295 233.92V239.15C38.4295 241.5 40.3395 243.41 42.6895 243.41C45.0395 243.41 46.9495 241.5 46.9495 239.15V220.17C46.9495 217.82 48.8595 215.91 51.2095 215.91H51.3395C53.6895 215.91 55.5995 217.82 55.5995 220.17V239.15C55.5995 241.5 57.5095 243.41 59.8595 243.41C62.2095 243.41 64.1195 241.5 64.1195 239.15V220.17C64.1195 217.82 66.0295 215.91 68.3795 215.91H68.5095C70.8595 215.91 72.7695 217.82 72.7695 220.17V239.15C72.7695 241.5 74.6795 243.41 77.0295 243.41C79.3795 243.41 81.2895 241.5 81.2895 239.15V220.17C81.2895 217.82 83.1995 215.91 85.5495 215.91H85.6795C88.0295 215.91 89.9395 217.82 89.9395 220.17V239.15C89.9395 241.5 91.8495 243.41 94.1995 243.41C96.5495 243.41 98.4595 241.5 98.4595 239.15V220.17C98.4595 217.82 100.37 215.91 102.72 215.91H102.85C105.2 215.91 107.11 217.82 107.11 220.17V239.15C107.11 241.5 109.02 243.41 111.37 243.41C113.72 243.41 115.63 241.5 115.63 239.15V220.17C115.63 217.82 117.54 215.91 119.89 215.91H120.31C122.66 215.91 124.57 217.82 124.57 220.17V239.15C124.57 241.5 126.48 243.41 128.83 243.41C131.18 243.41 133.09 241.5 133.09 239.15V233.92C133.09 231.57 135 229.66 137.35 229.66H137.98C140.33 229.66 142.24 227.75 142.24 225.4V200.68L159.39 193.5C166.13 190.68 170.52 184.08 170.52 176.77V136.01C170.51 86.14 114.07 67 85.7595 67Z" fill="#431D31" stroke="#C39A6B" stroke-width="2" stroke-linecap="round" stroke-linejoin="round"/>
<path d="M111.5 162.419C115.051 162.419 117.93 159.54 117.93 155.989C117.93 152.437 115.051 149.559 111.5 149.559C107.948 149.559 105.07 152.437 105.07 155.989C105.07 159.54 107.948 162.419 111.5 162.419Z" fill="#C39A6B" stroke="#C39A6B" stroke-width="2" stroke-linecap="round" stroke-linejoin="round"/>
<path d="M60.0096 162.419C63.5608 162.419 66.4396 159.54 66.4396 155.989C66.4396 152.437 63.5608 149.559 60.0096 149.559C56.4584 149.559 53.5796 152.437 53.5796 155.989C53.5796 159.54 56.4584 162.419 60.0096 162.419Z" fill="#C39A6B" stroke="#C39A6B" stroke-width="2" stroke-linecap="round" stroke-linejoin="round"/>
<path d="M85.7594 164.719L79.4294 177.839H85.7594H92.0794L85.7594 164.719Z" fill="#C39A6B" stroke="#C39A6B" stroke-width="2" stroke-linecap="round" stroke-linejoin="round"/>
<path d="M139.95 180.27L125.99 189.47V212.95" stroke="#C39A6B" stroke-width="2" stroke-linecap="round" stroke-linejoin="round"/>
<path d="M31.5596 180.27L45.5196 189.47V212.95" stroke="#C39A6B" stroke-width="2" stroke-linecap="round" stroke-linejoin="round"/>
</g>
<path d="M80.124 2C80.124 2 86.6129 7.57833 85.514 15.2365C82.215 29.8941 73.3052 36.5679 70.0061 42.3658C66.7071 48.1637 55.4879 64.5484 66.0473 79.3417C74.4288 91.0856 94.7538 92.3488 103.711 80.3385C109.882 72.061 107.231 59.7053 103.331 51.0084C99.7024 42.9135 103.661 37.4438 103.661 37.4438C103.661 37.4438 99.1517 45.1019 93.7641 42.805C88.374 40.508 91.8938 25.6308 91.8938 21.6932C91.8938 17.7555 90.9016 7.90647 80.124 2Z" fill="#35B1DF" stroke="#C39A6B" stroke-width="3" stroke-miterlimit="10" stroke-linecap="round" stroke-linejoin="round"/>
<defs>
<clipPath id="clip0_895_2785">
<rect width="171.51" height="200.62" fill="white" transform="translate(-0.000488281 66)"/>
</clipPath>
</defs>
</svg>
