<?xml version="1.0" encoding="utf-8"?>
<!-- Generator: Adobe Illustrator 26.3.1, SVG Export Plug-In . SVG Version: 6.00 Build 0)  -->
<svg version="1.1" xmlns="http://www.w3.org/2000/svg" xmlns:xlink="http://www.w3.org/1999/xlink" x="0px" y="0px"
	 viewBox="0 0 1186 918" style="enable-background:new 0 0 1186 918;" xml:space="preserve">
<style type="text/css">
	.st0{display:none;}
	.st1{display:inline;}
	.st2{fill:#FFFFFF;stroke:#C1986B;stroke-width:2.5;stroke-linecap:round;stroke-linejoin:round;stroke-miterlimit:10;}
	.st3{fill:#BB2027;stroke:#C1986B;stroke-width:2.5;stroke-linecap:round;stroke-linejoin:round;stroke-miterlimit:10;}
	.st4{fill:#C1986B;}
	.st5{fill:none;stroke:#EDEADE;stroke-width:2.5;stroke-miterlimit:10;}
	.st6{fill:#E2007E;stroke:#C1986B;stroke-width:2.5;stroke-miterlimit:10;}
	.st7{fill:#47B78E;stroke:#C1986B;stroke-width:2.5;stroke-miterlimit:10;}
	.st8{fill:#E2007E;}
	.st9{fill:none;stroke:#C1986B;stroke-width:2.5;stroke-miterlimit:10;}
	.st10{fill:none;stroke:#C1986B;stroke-width:2.5;stroke-linecap:round;stroke-linejoin:round;stroke-miterlimit:10;}
	.st11{fill:#338773;}
	.st12{fill:#FFFFFF;filter:url(#Adobe_OpacityMaskFilter);}
	.st13{mask:url(#mask0_452_5915_00000060720408224991277540000016041009271186368643_);}
	.st14{fill:none;stroke:#C1986B;stroke-width:4.1981;stroke-linecap:round;stroke-linejoin:round;stroke-miterlimit:10;}
	.st15{fill:#FFFFFF;filter:url(#Adobe_OpacityMaskFilter_00000156554206926770327160000000836824925689880724_);}
	.st16{mask:url(#mask1_452_5915_00000095304223567074270600000004775010842253945247_);}
	.st17{fill:#47B78E;}
	.st18{fill:#FFFFFF;filter:url(#Adobe_OpacityMaskFilter_00000088090602317738598770000008197277344735085217_);}
	.st19{mask:url(#mask2_452_5915_00000167364210441351210140000001559278469785580177_);}
</style>
<g id="圖層_3" class="st0">
</g>
<g id="圖層_1">
	<g>
		<g>
			<g>
				<path class="st2" d="M523.26,892.93c-2.84,0-5.15-2.3-5.15-5.15V28.11c0-2.84,2.3-5.15,5.15-5.15c2.84,0,5.15,2.3,5.15,5.15
					v859.68C528.41,890.62,526.11,892.93,523.26,892.93z"/>
			</g>
			<g>
				<path class="st2" d="M516.42,892.93c-0.1,0-0.2,0-0.3-0.01c-2.84-0.17-5-2.6-4.84-5.44l50.2-859.68
					c0.17-2.84,2.62-4.99,5.44-4.84c2.84,0.17,5,2.6,4.84,5.44l-50.2,859.68C521.4,890.82,519.13,892.93,516.42,892.93z"/>
				<path class="st2" d="M510.37,892.93c-0.1,0-0.2,0-0.3-0.01c-2.84-0.17-5-2.6-4.84-5.44l50.2-859.68
					c0.17-2.84,2.62-4.99,5.44-4.84c2.84,0.17,5,2.6,4.84,5.44l-50.2,859.68C515.34,890.82,513.08,892.93,510.37,892.93z"/>
				<path class="st2" d="M504.32,892.93c-0.1,0-0.2,0-0.3-0.01c-2.84-0.17-5-2.6-4.84-5.44l50.2-859.68
					c0.17-2.84,2.62-4.99,5.44-4.84c2.84,0.17,5,2.6,4.84,5.44l-50.2,859.68C509.29,890.82,507.02,892.93,504.32,892.93z"/>
				<path class="st2" d="M498.27,892.93c-0.1,0-0.2,0-0.3-0.01c-2.84-0.17-5-2.6-4.84-5.44l50.2-859.68
					c0.17-2.84,2.62-4.99,5.44-4.84c2.84,0.17,5,2.6,4.84,5.44l-50.2,859.68C503.24,890.82,500.97,892.93,498.27,892.93z"/>
				<path class="st2" d="M492.22,892.93c-0.1,0-0.2,0-0.3-0.01c-2.84-0.17-5-2.6-4.84-5.44l50.2-859.68
					c0.17-2.84,2.62-4.99,5.44-4.84c2.84,0.17,5,2.6,4.84,5.44l-50.2,859.68C497.19,890.82,494.92,892.93,492.22,892.93z"/>
				<path class="st2" d="M486.16,892.93c-0.1,0-0.2,0-0.3-0.01c-2.84-0.17-5-2.6-4.84-5.44l50.2-859.68
					c0.17-2.84,2.62-4.99,5.44-4.84c2.84,0.17,5,2.6,4.84,5.44l-50.2,859.68C491.14,890.82,488.87,892.93,486.16,892.93z"/>
				<path class="st2" d="M480.11,892.93c-0.1,0-0.2,0-0.3-0.01c-2.84-0.17-5-2.6-4.84-5.44l50.2-859.68
					c0.17-2.84,2.61-4.99,5.44-4.84c2.84,0.17,5,2.6,4.84,5.44l-50.2,859.68C485.08,890.82,482.82,892.93,480.11,892.93z"/>
			</g>
			<g>
				<path class="st2" d="M530.3,892.93c-2.7,0-4.97-2.11-5.13-4.85l-50.2-859.68c-0.17-2.84,2-5.27,4.84-5.44
					c2.82-0.16,5.27,2,5.44,4.84l50.2,859.68c0.16,2.84-2,5.27-4.84,5.44C530.5,892.93,530.4,892.93,530.3,892.93z"/>
				<path class="st2" d="M536.35,892.93c-2.7,0-4.97-2.11-5.13-4.85l-50.2-859.68c-0.17-2.84,2-5.27,4.84-5.44
					c2.82-0.16,5.27,2,5.44,4.84l50.2,859.68c0.17,2.84-2,5.27-4.84,5.44C536.56,892.93,536.45,892.93,536.35,892.93z"/>
				<path class="st2" d="M542.4,892.93c-2.7,0-4.97-2.11-5.13-4.85l-50.2-859.68c-0.17-2.84,2-5.27,4.84-5.44
					c2.82-0.16,5.27,2,5.44,4.84l50.2,859.68c0.17,2.84-2,5.27-4.84,5.44C542.61,892.93,542.51,892.93,542.4,892.93z"/>
				<path class="st2" d="M548.46,892.93c-2.7,0-4.97-2.11-5.13-4.85l-50.2-859.68c-0.17-2.84,2-5.27,4.84-5.44
					c2.83-0.16,5.27,2,5.44,4.84l50.2,859.68c0.17,2.84-2,5.27-4.84,5.44C548.66,892.93,548.56,892.93,548.46,892.93z"/>
				<path class="st2" d="M554.51,892.93c-2.7,0-4.97-2.11-5.13-4.85l-50.2-859.68c-0.17-2.84,2-5.27,4.84-5.44
					c2.83-0.16,5.27,2,5.44,4.84l50.2,859.68c0.17,2.84-2,5.27-4.84,5.44C554.71,892.93,554.61,892.93,554.51,892.93z"/>
				<path class="st2" d="M560.56,892.93c-2.7,0-4.97-2.11-5.13-4.85l-50.2-859.68c-0.17-2.84,2-5.27,4.84-5.44
					c2.83-0.16,5.27,2,5.44,4.84l50.2,859.68c0.16,2.84-2,5.27-4.84,5.44C560.76,892.93,560.66,892.93,560.56,892.93z"/>
				<path class="st2" d="M566.61,892.93c-2.7,0-4.97-2.11-5.13-4.85l-50.2-859.68c-0.17-2.84,2-5.27,4.84-5.44
					c2.83-0.16,5.27,2,5.44,4.84l50.2,859.68c0.17,2.84-2,5.27-4.84,5.44C566.82,892.93,566.71,892.93,566.61,892.93z"/>
			</g>
			<rect x="492.46" y="395.73" class="st3" width="63.32" height="124.43"/>
		</g>
		<g>
			<g>
				<path class="st2" d="M375.45,889.53c-2.84,0-5.15-2.3-5.15-5.15V24.71c0-2.84,2.3-5.15,5.15-5.15c2.84,0,5.15,2.3,5.15,5.15
					v859.68C380.59,887.23,378.29,889.53,375.45,889.53z"/>
			</g>
			<g>
				<path class="st2" d="M368.61,889.53c-0.1,0-0.2,0-0.3-0.01c-2.84-0.17-5-2.6-4.84-5.44l50.2-859.68
					c0.17-2.84,2.62-4.99,5.44-4.84c2.84,0.17,5,2.6,4.84,5.44l-50.2,859.68C373.58,887.42,371.31,889.53,368.61,889.53z"/>
				<path class="st2" d="M362.55,889.53c-0.1,0-0.2,0-0.3-0.01c-2.84-0.17-5-2.6-4.84-5.44l50.2-859.68
					c0.17-2.84,2.62-4.99,5.44-4.84c2.84,0.17,5,2.6,4.84,5.44l-50.2,859.68C367.53,887.42,365.26,889.53,362.55,889.53z"/>
				<path class="st2" d="M356.5,889.53c-0.1,0-0.2,0-0.3-0.01c-2.84-0.17-5-2.6-4.84-5.44l50.2-859.68
					c0.17-2.84,2.62-4.99,5.44-4.84c2.84,0.17,5,2.6,4.84,5.44l-50.2,859.68C361.47,887.42,359.21,889.53,356.5,889.53z"/>
				<path class="st2" d="M350.45,889.53c-0.1,0-0.2,0-0.3-0.01c-2.84-0.17-5-2.6-4.84-5.44l50.2-859.68
					c0.17-2.84,2.62-4.99,5.44-4.84c2.84,0.17,5,2.6,4.84,5.44l-50.2,859.68C355.42,887.42,353.15,889.53,350.45,889.53z"/>
				<path class="st2" d="M344.4,889.53c-0.1,0-0.2,0-0.3-0.01c-2.84-0.17-5-2.6-4.84-5.44l50.2-859.68
					c0.17-2.84,2.62-4.99,5.44-4.84c2.84,0.17,5,2.6,4.84,5.44l-50.2,859.68C349.37,887.42,347.1,889.53,344.4,889.53z"/>
				<path class="st2" d="M338.35,889.53c-0.1,0-0.2,0-0.3-0.01c-2.84-0.17-5-2.6-4.84-5.44l50.2-859.68
					c0.17-2.84,2.62-4.99,5.44-4.84c2.84,0.17,5,2.6,4.84,5.44l-50.2,859.68C343.32,887.42,341.05,889.53,338.35,889.53z"/>
				<path class="st2" d="M332.29,889.53c-0.1,0-0.2,0-0.3-0.01c-2.84-0.17-5-2.6-4.84-5.44l50.2-859.68
					c0.17-2.84,2.62-4.99,5.44-4.84c2.84,0.17,5,2.6,4.84,5.44l-50.2,859.68C337.27,887.42,335,889.53,332.29,889.53z"/>
			</g>
			<g>
				<path class="st2" d="M382.48,889.53c-2.7,0-4.97-2.11-5.13-4.85l-50.2-859.68c-0.17-2.84,2-5.27,4.84-5.44
					c2.82-0.16,5.27,2,5.44,4.84l50.2,859.68c0.17,2.84-2,5.27-4.84,5.44C382.69,889.53,382.58,889.53,382.48,889.53z"/>
				<path class="st2" d="M388.54,889.53c-2.7,0-4.97-2.11-5.13-4.85L333.2,25.01c-0.17-2.84,2-5.27,4.84-5.44
					c2.82-0.16,5.27,2,5.44,4.84l50.2,859.68c0.17,2.84-2,5.27-4.84,5.44C388.74,889.53,388.64,889.53,388.54,889.53z"/>
				<path class="st2" d="M394.59,889.53c-2.7,0-4.97-2.11-5.13-4.85l-50.2-859.68c-0.17-2.84,2-5.27,4.84-5.44
					c2.82-0.16,5.27,2,5.44,4.84l50.2,859.68c0.17,2.84-2,5.27-4.84,5.44C394.79,889.53,394.69,889.53,394.59,889.53z"/>
				<path class="st2" d="M400.64,889.53c-2.7,0-4.97-2.11-5.13-4.85l-50.2-859.68c-0.17-2.84,2-5.27,4.84-5.44
					c2.83-0.16,5.27,2,5.44,4.84l50.2,859.68c0.17,2.84-2,5.27-4.84,5.44C400.84,889.53,400.74,889.53,400.64,889.53z"/>
				<path class="st2" d="M406.69,889.53c-2.7,0-4.97-2.11-5.13-4.85l-50.2-859.68c-0.17-2.84,2-5.27,4.84-5.44
					c2.83-0.16,5.27,2,5.44,4.84l50.2,859.68c0.17,2.84-2,5.27-4.84,5.44C406.89,889.53,406.79,889.53,406.69,889.53z"/>
				<path class="st2" d="M412.74,889.53c-2.7,0-4.97-2.11-5.13-4.85l-50.2-859.68c-0.17-2.84,2-5.27,4.84-5.44
					c2.83-0.16,5.27,2,5.44,4.84l50.2,859.68c0.17,2.84-2,5.27-4.84,5.44C412.95,889.53,412.84,889.53,412.74,889.53z"/>
				<path class="st2" d="M418.79,889.53c-2.7,0-4.97-2.11-5.13-4.85l-50.2-859.68c-0.17-2.84,2-5.27,4.84-5.44
					c2.83-0.16,5.27,2,5.44,4.84l50.2,859.68c0.17,2.84-2,5.27-4.84,5.44C419,889.53,418.9,889.53,418.79,889.53z"/>
			</g>
			<rect x="344.64" y="392.33" class="st3" width="63.32" height="124.43"/>
		</g>
		<g>
			<g>
				<path class="st2" d="M227.63,889.53c-2.84,0-5.15-2.3-5.15-5.15V24.71c0-2.84,2.3-5.15,5.15-5.15s5.15,2.3,5.15,5.15v859.68
					C232.77,887.23,230.47,889.53,227.63,889.53z"/>
			</g>
			<g>
				<path class="st2" d="M220.79,889.53c-0.1,0-0.2,0-0.3-0.01c-2.84-0.17-5-2.6-4.84-5.44l50.2-859.68
					c0.17-2.84,2.62-4.99,5.44-4.84c2.84,0.17,5,2.6,4.84,5.44l-50.2,859.68C225.76,887.42,223.49,889.53,220.79,889.53z"/>
				<path class="st2" d="M214.74,889.53c-0.1,0-0.2,0-0.3-0.01c-2.84-0.17-5-2.6-4.84-5.44l50.2-859.68
					c0.17-2.84,2.62-4.99,5.44-4.84c2.84,0.17,5,2.6,4.84,5.44l-50.2,859.68C219.71,887.42,217.44,889.53,214.74,889.53z"/>
				<path class="st2" d="M208.68,889.53c-0.1,0-0.2,0-0.3-0.01c-2.84-0.17-5-2.6-4.84-5.44l50.2-859.68
					c0.17-2.84,2.62-4.99,5.44-4.84c2.84,0.17,5,2.6,4.84,5.44l-50.2,859.68C213.66,887.42,211.39,889.53,208.68,889.53z"/>
				<path class="st2" d="M202.63,889.53c-0.1,0-0.2,0-0.3-0.01c-2.84-0.17-5-2.6-4.84-5.44l50.2-859.68
					c0.17-2.84,2.62-4.99,5.44-4.84c2.84,0.17,5,2.6,4.84,5.44l-50.2,859.68C207.6,887.42,205.34,889.53,202.63,889.53z"/>
				<path class="st2" d="M196.58,889.53c-0.1,0-0.2,0-0.3-0.01c-2.84-0.17-5-2.6-4.84-5.44l50.2-859.68
					c0.17-2.84,2.62-4.99,5.44-4.84c2.84,0.17,5,2.6,4.84,5.44l-50.2,859.68C201.55,887.42,199.28,889.53,196.58,889.53z"/>
				<path class="st2" d="M190.53,889.53c-0.1,0-0.2,0-0.3-0.01c-2.84-0.17-5-2.6-4.84-5.44l50.2-859.68
					c0.17-2.84,2.62-4.99,5.44-4.84c2.84,0.17,5,2.6,4.84,5.44l-50.2,859.68C195.5,887.42,193.23,889.53,190.53,889.53z"/>
				<path class="st2" d="M184.48,889.53c-0.1,0-0.2,0-0.3-0.01c-2.84-0.17-5-2.6-4.84-5.44l50.2-859.68
					c0.17-2.84,2.62-4.99,5.44-4.84c2.84,0.17,5,2.6,4.84,5.44l-50.2,859.68C189.45,887.42,187.18,889.53,184.48,889.53z"/>
			</g>
			<g>
				<path class="st2" d="M234.67,889.53c-2.7,0-4.97-2.11-5.13-4.85l-50.2-859.68c-0.17-2.84,2-5.27,4.84-5.44
					c2.82-0.16,5.27,2,5.44,4.84l50.2,859.68c0.17,2.84-2,5.27-4.84,5.44C234.87,889.53,234.77,889.53,234.67,889.53z"/>
				<path class="st2" d="M240.72,889.53c-2.7,0-4.97-2.11-5.13-4.85l-50.2-859.68c-0.17-2.84,2-5.27,4.84-5.44
					c2.82-0.16,5.27,2,5.44,4.84l50.2,859.68c0.17,2.84-2,5.27-4.84,5.44C240.92,889.53,240.82,889.53,240.72,889.53z"/>
				<path class="st2" d="M246.77,889.53c-2.7,0-4.97-2.11-5.13-4.85l-50.2-859.68c-0.17-2.84,2-5.27,4.84-5.44
					c2.82-0.16,5.27,2,5.44,4.84l50.2,859.68c0.17,2.84-2,5.27-4.84,5.44C246.97,889.53,246.87,889.53,246.77,889.53z"/>
				<path class="st2" d="M252.82,889.53c-2.7,0-4.97-2.11-5.13-4.85l-50.2-859.68c-0.17-2.84,2-5.27,4.84-5.44
					c2.83-0.16,5.27,2,5.44,4.84l50.2,859.68c0.17,2.84-2,5.27-4.84,5.44C253.02,889.53,252.92,889.53,252.82,889.53z"/>
				<path class="st2" d="M258.87,889.53c-2.7,0-4.97-2.11-5.13-4.85l-50.2-859.68c-0.17-2.84,2-5.27,4.84-5.44
					c2.83-0.16,5.27,2,5.44,4.84l50.2,859.68c0.17,2.84-2,5.27-4.84,5.44C259.08,889.53,258.97,889.53,258.87,889.53z"/>
				<path class="st2" d="M264.93,889.53c-2.7,0-4.97-2.11-5.13-4.85l-50.2-859.68c-0.17-2.84,2-5.27,4.84-5.44
					c2.83-0.16,5.27,2,5.44,4.84l50.2,859.68c0.17,2.84-2,5.27-4.84,5.44C265.13,889.53,265.03,889.53,264.93,889.53z"/>
				<path class="st2" d="M270.98,889.53c-2.7,0-4.97-2.11-5.13-4.85l-50.2-859.68c-0.17-2.84,2-5.27,4.84-5.44
					c2.83-0.16,5.27,2,5.44,4.84l50.2,859.68c0.17,2.84-2,5.27-4.84,5.44C271.18,889.53,271.08,889.53,270.98,889.53z"/>
			</g>
			<rect x="196.82" y="392.33" class="st3" width="63.32" height="124.43"/>
		</g>
		<g>
			<g>
				<g>
					<polygon class="st4" points="153.51,642.73 158.14,639.94 162.34,636.13 167.58,634.26 171.8,630.5 176.38,627.39 
						182.42,627.02 186.93,623.8 192.16,621.9 196.44,617.97 201.41,620.73 206.77,622.51 211.56,625.38 216.81,627.37 
						220.99,631.39 225.97,633.91 230.6,637.09 235.76,639.25 240.98,641.3 245.49,644.7 250.22,647.71 255.91,648.89 
						261.11,650.89 264.7,655.8 270.77,656.23 275.58,658.95 280.05,662.24 285.08,664.57 288.7,669.33 293.97,671.24 299.34,673 
						302.86,677.87 307.67,680.56 312.53,683.17 317.59,685.48 321.75,689.22 326.34,692.28 332.04,693.6 336.97,696.15 
						340.55,700.75 345.31,703.56 349.74,706.86 354.45,709.74 359.55,712.09 363.63,715.88 368.52,718.55 372.52,722.42 
						377.74,724.69 382.11,728.09 386.05,732.03 388.92,737.16 393.81,739.93 398.81,742.71 402.46,746.91 405.09,751.97 
						408,756.62 411.32,760.91 414.23,765.52 415.59,770.82 413.22,775.45 409.22,778.7 405.19,782.25 401.13,786.37 395.28,786.51 
						390.83,790.2 384.94,789.64 380.06,792.28 374.68,793.18 369.24,793.76 364.24,796.17 359.14,798.28 353.4,797.41 
						348.47,800.44 342.92,800.36 337.49,800.81 332.25,802.35 326.95,803.58 321.76,805.56 316.14,804.78 310.72,805.25 
						305.24,805.26 300.14,808.03 294.78,808.93 289.21,808.3 283.88,809.41 278.42,809.52 273.28,812.29 267.67,811.13 
						262.23,811.4 256.86,812.29 251.38,812.2 245.98,812.81 240.61,813.69 235.39,816.1 229.8,814.8 224.33,814.78 218.98,815.86 
						213.74,818.26 208.33,818.87 202.75,817.46 197.5,819.88 191.97,818.93 186.63,820.36 181.1,819.38 175.64,819.37 
						170.3,820.76 164.95,822.05 159.38,820.51 154.1,822.8 148.61,822.31 143.17,822.32 137.83,823.91 132.35,823.3 126.98,823.52 
						122.14,820.86 116.24,821 111.75,817.35 106.25,816.41 101.29,814.01 96.38,811.47 91.06,810.03 85.64,808.88 80.3,807.49 
						75.34,805.09 70.81,801.54 65.24,800.75 59.91,799.34 56,796.07 54.91,791.28 52.2,786.15 52,780.45 49.79,775.2 48.82,769.68 
						47.7,764.18 45.45,758.56 50.53,755.09 52.82,750.08 56.95,746.4 59.91,741.86 63.06,737.47 65.29,732.4 68.13,727.78 
						71.83,723.79 74.78,719.25 78.13,715.01 82.09,711.2 85.33,706.87 87.33,701.63 90.41,697.19 95.02,693.85 97.88,689.24 
						99.43,683.67 103.93,680.25 106.56,675.4 111.03,671.75 115.82,668.61 121.35,666.46 125.16,661.99 129.82,658.67 
						133.75,654.36 138.24,650.82 143.19,647.89 147.8,644.34 					"/>
					<polygon class="st5" points="153.51,642.73 158.14,639.94 162.34,636.13 167.58,634.26 171.8,630.5 176.38,627.39 
						182.42,627.02 186.93,623.8 192.16,621.9 196.44,617.97 201.41,620.73 206.77,622.51 211.56,625.38 216.81,627.37 
						220.99,631.39 225.97,633.91 230.6,637.09 235.76,639.25 240.98,641.3 245.49,644.7 250.22,647.71 255.91,648.89 
						261.11,650.89 264.7,655.8 270.77,656.23 275.58,658.95 280.05,662.24 285.08,664.57 288.7,669.33 293.97,671.24 299.34,673 
						302.86,677.87 307.67,680.56 312.53,683.17 317.59,685.48 321.75,689.22 326.34,692.28 332.04,693.6 336.97,696.15 
						340.55,700.75 345.31,703.56 349.74,706.86 354.45,709.74 359.55,712.09 363.63,715.88 368.52,718.55 372.52,722.42 
						377.74,724.69 382.11,728.09 386.05,732.03 388.92,737.16 393.81,739.93 398.81,742.71 402.46,746.91 405.09,751.97 
						408,756.62 411.32,760.91 414.23,765.52 415.59,770.82 413.22,775.45 409.22,778.7 405.19,782.25 401.13,786.37 395.28,786.51 
						390.83,790.2 384.94,789.64 380.06,792.28 374.68,793.18 369.24,793.76 364.24,796.17 359.14,798.28 353.4,797.41 
						348.47,800.44 342.92,800.36 337.49,800.81 332.25,802.35 326.95,803.58 321.76,805.56 316.14,804.78 310.72,805.25 
						305.24,805.26 300.14,808.03 294.78,808.93 289.21,808.3 283.88,809.41 278.42,809.52 273.28,812.29 267.67,811.13 
						262.23,811.4 256.86,812.29 251.38,812.2 245.98,812.81 240.61,813.69 235.39,816.1 229.8,814.8 224.33,814.78 218.98,815.86 
						213.74,818.26 208.33,818.87 202.75,817.46 197.5,819.88 191.97,818.93 186.63,820.36 181.1,819.38 175.64,819.37 
						170.3,820.76 164.95,822.05 159.38,820.51 154.1,822.8 148.61,822.31 143.17,822.32 137.83,823.91 132.35,823.3 126.98,823.52 
						122.14,820.86 116.24,821 111.75,817.35 106.25,816.41 101.29,814.01 96.38,811.47 91.06,810.03 85.64,808.88 80.3,807.49 
						75.34,805.09 70.81,801.54 65.24,800.75 59.91,799.34 56,796.07 54.91,791.28 52.2,786.15 52,780.45 49.79,775.2 48.82,769.68 
						47.7,764.18 45.45,758.56 50.53,755.09 52.82,750.08 56.95,746.4 59.91,741.86 63.06,737.47 65.29,732.4 68.13,727.78 
						71.83,723.79 74.78,719.25 78.13,715.01 82.09,711.2 85.33,706.87 87.33,701.63 90.41,697.19 95.02,693.85 97.88,689.24 
						99.43,683.67 103.93,680.25 106.56,675.4 111.03,671.75 115.82,668.61 121.35,666.46 125.16,661.99 129.82,658.67 
						133.75,654.36 138.24,650.82 143.19,647.89 147.8,644.34 					"/>
				</g>
				<g>
					<polygon class="st4" points="35.44,768.89 39.2,765.63 43.05,761.74 47.04,757.99 51.56,754.92 56.68,752.6 60.35,748.47 
						64.35,744.73 69.54,742.5 73.71,738.98 77.21,734.63 81.98,731.88 85.75,727.85 90.13,724.61 94.44,721.27 98.19,717.22 
						103.51,715.15 107.23,711.08 112.07,708.4 116.2,704.82 120.44,701.4 124.12,697.26 128.18,693.61 132.75,690.6 136.87,687.02 
						141.24,683.75 145.97,680.94 150.27,677.59 153.81,673.28 158.01,669.8 163.14,667.49 167.21,663.84 170.47,659.18 
						175.54,656.78 179.44,652.92 183.58,649.35 188.01,646.14 192.32,643.91 196.08,646.97 199.66,651.12 203.97,654.62 
						207.73,658.62 211.02,663.03 214.73,667.06 217.88,671.6 221.66,675.57 224.55,680.34 228.01,684.61 232.95,687.55 
						235.49,692.64 240.67,695.36 242.81,700.8 247.11,704.31 250.42,708.71 254.92,712.06 257.28,717.29 262.32,720.16 
						265.9,724.32 269.09,728.82 272.42,733.2 276.39,737.01 280.8,740.42 283.99,744.93 286.52,750.02 291.45,752.98 
						294.27,757.81 298.64,761.27 301.58,766 304.9,770.4 309.27,773.85 312.08,778.71 315.76,782.78 319.76,786.58 324.01,790.15 
						328.48,794.9 321.96,795.04 316.63,796.38 311.24,797.33 305.84,798.12 300.37,798.41 294.95,799.07 289.33,798.2 
						284.06,800.02 278.57,800.09 273.28,801.85 267.76,801.75 262.47,803.42 257,803.67 251.66,805 246.13,804.82 240.69,805.36 
						235.17,805.3 229.77,806.1 224.41,807.25 218.99,807.94 213.74,809.97 208.14,809.25 202.9,811.34 197.48,812.05 191.83,810.9 
						186.41,811.68 181.08,814.06 175.71,811.53 170.23,810.85 164.74,810.18 159.13,810.5 153.68,809.49 148.07,809.8 
						142.66,808.47 137.08,808.58 131.6,807.83 126.28,805.8 120.82,804.89 115.29,804.54 109.92,802.95 104.27,803.57 
						98.74,803.28 93.21,802.89 87.87,801.05 82.3,800.95 76.76,800.7 71.53,797.99 65.76,799.47 60.48,797.15 54.94,796.97 
						50.95,792.75 48.14,787.66 44.36,783.27 40.94,778.61 39.06,772.91 					"/>
					<polygon class="st5" points="35.44,768.89 39.2,765.63 43.05,761.74 47.04,757.99 51.56,754.92 56.68,752.6 60.35,748.47 
						64.35,744.73 69.54,742.5 73.71,738.98 77.21,734.63 81.98,731.88 85.75,727.85 90.13,724.61 94.44,721.27 98.19,717.22 
						103.51,715.15 107.23,711.08 112.07,708.4 116.2,704.82 120.44,701.4 124.12,697.26 128.18,693.61 132.75,690.6 136.87,687.02 
						141.24,683.75 145.97,680.94 150.27,677.59 153.81,673.28 158.01,669.8 163.14,667.49 167.21,663.84 170.47,659.18 
						175.54,656.78 179.44,652.92 183.58,649.35 188.01,646.14 192.32,643.91 196.08,646.97 199.66,651.12 203.97,654.62 
						207.73,658.62 211.02,663.03 214.73,667.06 217.88,671.6 221.66,675.57 224.55,680.34 228.01,684.61 232.95,687.55 
						235.49,692.64 240.67,695.36 242.81,700.8 247.11,704.31 250.42,708.71 254.92,712.06 257.28,717.29 262.32,720.16 
						265.9,724.32 269.09,728.82 272.42,733.2 276.39,737.01 280.8,740.42 283.99,744.93 286.52,750.02 291.45,752.98 
						294.27,757.81 298.64,761.27 301.58,766 304.9,770.4 309.27,773.85 312.08,778.71 315.76,782.78 319.76,786.58 324.01,790.15 
						328.48,794.9 321.96,795.04 316.63,796.38 311.24,797.33 305.84,798.12 300.37,798.41 294.95,799.07 289.33,798.2 
						284.06,800.02 278.57,800.09 273.28,801.85 267.76,801.75 262.47,803.42 257,803.67 251.66,805 246.13,804.82 240.69,805.36 
						235.17,805.3 229.77,806.1 224.41,807.25 218.99,807.94 213.74,809.97 208.14,809.25 202.9,811.34 197.48,812.05 191.83,810.9 
						186.41,811.68 181.08,814.06 175.71,811.53 170.23,810.85 164.74,810.18 159.13,810.5 153.68,809.49 148.07,809.8 
						142.66,808.47 137.08,808.58 131.6,807.83 126.28,805.8 120.82,804.89 115.29,804.54 109.92,802.95 104.27,803.57 
						98.74,803.28 93.21,802.89 87.87,801.05 82.3,800.95 76.76,800.7 71.53,797.99 65.76,799.47 60.48,797.15 54.94,796.97 
						50.95,792.75 48.14,787.66 44.36,783.27 40.94,778.61 39.06,772.91 					"/>
				</g>
				<g>
					<polyline class="st4" points="416,764.54 413.02,759.98 410.78,755.03 408.64,750.04 405.64,745.48 402.74,740.87 
						401.16,735.59 397.8,731.22 395.82,726.14 393.58,721.19 390.83,716.51 388.2,711.75 385.23,707.18 383.48,701.99 
						381.15,697.09 379.02,692.09 375.65,687.72 373.1,682.93 371.22,677.8 368.56,673.06 366.33,668.11 362.92,663.76 
						361.24,658.52 358.91,653.6 356.24,648.76 350.98,647.28 345.73,646.2 340.46,645.26 335.03,645.07 329.97,643.08 
						324.79,641.72 319.49,640.9 314.05,640.73 308.8,639.69 303.75,637.67 298.31,637.52 293.2,635.74 287.86,635.12 
						282.76,633.33 277.56,632.02 272.21,631.4 267.14,630.7 263.65,634.85 261.61,640.15 258.39,644.74 255.38,649.47 
						253.05,654.6 249.79,659.18 246.89,663.97 243.69,668.58 241.77,673.95 238.11,678.3 235.69,683.39 232.61,688.08 					"/>
					<polyline class="st5" points="416,764.54 413.02,759.98 410.78,755.03 408.64,750.04 405.64,745.48 402.74,740.87 
						401.16,735.59 397.8,731.22 395.82,726.14 393.58,721.19 390.83,716.51 388.2,711.75 385.23,707.18 383.48,701.99 
						381.15,697.09 379.02,692.09 375.65,687.72 373.1,682.93 371.22,677.8 368.56,673.06 366.33,668.11 362.92,663.76 
						361.24,658.52 358.91,653.6 356.24,648.76 350.98,647.28 345.73,646.2 340.46,645.26 335.03,645.07 329.97,643.08 
						324.79,641.72 319.49,640.9 314.05,640.73 308.8,639.69 303.75,637.67 298.31,637.52 293.2,635.74 287.86,635.12 
						282.76,633.33 277.56,632.02 272.21,631.4 267.14,630.7 263.65,634.85 261.61,640.15 258.39,644.74 255.38,649.47 
						253.05,654.6 249.79,659.18 246.89,663.97 243.69,668.58 241.77,673.95 238.11,678.3 235.69,683.39 232.61,688.08 					"/>
				</g>
				<g>
					<polyline class="st4" points="39.38,764.55 42.88,760.17 44.65,754.86 47.29,750.02 50.15,745.3 52.63,740.37 56.04,735.95 
						58.35,730.92 60.58,725.86 64.02,721.44 66.59,716.57 69.14,711.67 71.55,706.7 74.52,702.04 77.21,697.22 79.2,692.02 
						81.66,687.08 84.93,682.57 87.47,677.68 90.2,672.88 92.74,667.99 95.05,662.96 97.94,658.25 100.34,653.27 103.22,648.55 
						105.4,643.45 108.03,638.6 110.86,633.85 114.18,629.37 116.39,624.34 121.34,626.13 126.07,628.53 130.62,631.31 
						135.31,633.8 140.16,635.94 145.06,638 149.89,640.19 154.55,642.74 159.26,645.19 164.19,647.19 169.29,648.82 173.74,651.83 
						178.86,653.45 					"/>
					<polyline class="st5" points="39.38,764.55 42.88,760.17 44.65,754.86 47.29,750.02 50.15,745.3 52.63,740.37 56.04,735.95 
						58.35,730.92 60.58,725.86 64.02,721.44 66.59,716.57 69.14,711.67 71.55,706.7 74.52,702.04 77.21,697.22 79.2,692.02 
						81.66,687.08 84.93,682.57 87.47,677.68 90.2,672.88 92.74,667.99 95.05,662.96 97.94,658.25 100.34,653.27 103.22,648.55 
						105.4,643.45 108.03,638.6 110.86,633.85 114.18,629.37 116.39,624.34 121.34,626.13 126.07,628.53 130.62,631.31 
						135.31,633.8 140.16,635.94 145.06,638 149.89,640.19 154.55,642.74 159.26,645.19 164.19,647.19 169.29,648.82 173.74,651.83 
						178.86,653.45 					"/>
				</g>
			</g>
			<g>
				<path class="st6" d="M31.77,762.86c0,0.19-0.01,0.37-0.01,0.56v0c0,66.54,53.94,120.48,120.48,120.48h147.44
					c66.54,0,120.49-53.94,120.49-120.48v0c0-0.19-0.01-0.37-0.01-0.56H31.77z"/>
			</g>
			<g>
				<g>
					<path class="st6" d="M89.98,810.32c18.29,43.24,61.11,73.59,111.02,73.59"/>
				</g>
				<path class="st6" d="M144.37,810.32c10.97,43.24,36.67,73.59,66.61,73.59"/>
				<path class="st6" d="M198.77,810.32c3.66,43.24,12.22,73.59,22.2,73.59"/>
				<path class="st6" d="M253.17,810.32c-3.66,43.24-12.22,73.59-22.2,73.59"/>
				<path class="st6" d="M307.56,810.32c-10.97,43.24-36.67,73.59-66.61,73.59"/>
				<g>
					<path class="st6" d="M361.96,810.32c-18.29,43.24-61.11,73.59-111.02,73.59"/>
				</g>
			</g>
			<rect x="153.68" y="883.91" class="st6" width="144.57" height="18.62"/>
			<path class="st6" d="M422.59,763.08H29.35c-5.08,0-9.21-4.12-9.21-9.21v0c0-5.08,4.12-9.21,9.21-9.21h393.24
				c5.08,0,9.21,4.12,9.21,9.21v0C431.79,758.96,427.67,763.08,422.59,763.08z"/>
		</g>
		<g>
			<path class="st8" d="M877.57,873.04L877.57,873.04c-148.44,0-268.77-120.33-268.77-268.77V363.69
				c0-148.44,120.33-268.77,268.77-268.77h0c148.44,0,268.77,120.33,268.77,268.77v240.57
				C1146.34,752.7,1026.01,873.04,877.57,873.04z"/>
			<g>
				<path class="st9" d="M1001.89,700.59l-16.11,12.51l44.35,112.45c24.41-16.86,45.89-37.64,63.53-61.46
					c-0.54-0.26-1.07-0.55-1.57-0.9L1001.89,700.59z"/>
				<polygon class="st9" points="778.23,399.05 778.23,568.8 876.41,649.75 974.58,568.8 974.58,399.05 876.41,318.1 				"/>
				<path class="st9" d="M842.13,688.09c0.42-3.61-0.96-7.2-3.68-9.6l-67.85-59.86c-3.47-3.06-8.47-3.65-12.55-1.48l-135.58,71.91
					c2.36,7.09,5,14.06,7.92,20.88c0.35-0.14,0.7-0.3,1.04-0.48l130.25-69.08l57.74,50.94l-19.64,170.28
					c7.09,2.14,14.31,4,21.64,5.56c0.09-0.41,0.17-0.82,0.22-1.24L842.13,688.09z"/>
				<path class="st9" d="M790.74,713.5c1.81-4.59,0.38-9.82-3.52-12.85l-29.12-22.61c-3.83-2.98-9.16-3.12-13.14-0.35l-96.57,67.03
					c3.88,6.32,8.02,12.47,12.4,18.43l90.13-62.56l16.11,12.51l-43.85,111.19c6.12,4.3,12.43,8.35,18.91,12.14
					c0.33-0.54,0.62-1.11,0.86-1.71L790.74,713.5z"/>
				<path class="st9" d="M617.48,598.38l104.75-50.55c3.84-1.85,6.28-5.74,6.28-10V424.77c0-4.73-3-8.94-7.46-10.49l-104.75-36.34
					c-2.53-0.88-5.16-0.79-7.49,0.08v20.82c0.07,0.03,0.14,0.06,0.22,0.09l97.28,33.75v98.19l-97.5,47.05v20.86
					c1.23,0.46,2.53,0.72,3.86,0.72C614.28,599.49,615.92,599.13,617.48,598.38z"/>
				<path class="st9" d="M676.26,511.15c4.56-1.49,7.65-5.75,7.65-10.55v-34.58c0-5.52-4.05-10.2-9.51-10.99l-64.01-9.31
					c-0.54-0.08-1.07-0.1-1.6-0.1v22.32l52.9,7.7v16.93l-52.9,17.32v22.79c1.14,0,2.31-0.18,3.45-0.55L676.26,511.15z"/>
				<path class="st9" d="M996.79,400.85l147.27-72.28c-0.95-7.28-2.2-14.47-3.72-21.55c-1.7-0.03-3.44,0.33-5.07,1.13L987.3,380.76
					l-99.79-82.29V95.12c-3.3-0.12-6.61-0.2-9.94-0.2h0c-4.11,0-8.2,0.11-12.27,0.29v203.26l-99.79,82.29l-147.96-72.62
					c-0.9-0.44-1.84-0.74-2.78-0.92c-1.58,7.37-2.87,14.84-3.82,22.42l145.09,71.21v166.27l-145.09,71.21
					c0.96,7.58,2.25,15.05,3.82,22.42c0.94-0.18,1.88-0.48,2.78-0.92l148.05-72.66l99.71,82.22v203.37
					c4.07,0.18,8.16,0.29,12.27,0.29h0c3.33,0,6.64-0.08,9.94-0.2V669.38l99.71-82.22l148.05,72.66c1.57,0.77,3.24,1.14,4.88,1.14
					c0.06,0,0.12-0.01,0.19-0.01c1.52-7.09,2.77-14.27,3.72-21.55l-147.27-72.28V400.85z M974.58,568.8l-98.17,80.95l-98.17-80.95
					V399.05l98.17-80.95l98.17,80.95V568.8z"/>
				<path class="st9" d="M994.77,617.15c-4.08-2.17-9.08-1.58-12.55,1.48l-67.85,59.86c-2.72,2.4-4.1,5.99-3.68,9.6L931.2,865.9
					c0.07,0.59,0.19,1.16,0.35,1.72c7.31-1.49,14.51-3.29,21.59-5.36l-19.72-170.95l57.74-50.94l130.25,69.08
					c1,0.53,2.04,0.89,3.1,1.09c2.87-6.67,5.5-13.47,7.83-20.4c-0.17-0.1-0.34-0.22-0.52-0.31L994.77,617.15z"/>
				<path class="st9" d="M1007.86,677.69c-3.99-2.77-9.31-2.62-13.14,0.35l-29.12,22.61c-3.9,3.02-5.33,8.26-3.52,12.85l47.8,121.21
					c0.39,0.99,0.91,1.89,1.53,2.69c6.42-3.69,12.66-7.66,18.73-11.85L985.79,713.1l16.11-12.51l90.2,62.61
					c0.51,0.35,1.03,0.64,1.57,0.9c4.35-5.87,8.45-11.92,12.32-18.14c-0.38-0.36-0.79-0.7-1.23-1.01L1007.86,677.69z"/>
				<path class="st9" d="M763.24,352.11c2.65,0,5.27-0.95,7.35-2.78l67.85-59.86c2.72-2.4,4.1-5.99,3.68-9.6l-20.51-177.81
					c-0.05-0.42-0.13-0.84-0.22-1.25c-7.33,1.56-14.54,3.42-21.64,5.56l19.64,170.28l-57.74,50.94l-130.25-69.08
					c-0.34-0.18-0.69-0.34-1.04-0.48c-2.92,6.82-5.56,13.78-7.92,20.88l135.58,71.91C759.68,351.68,761.47,352.11,763.24,352.11z"/>
				<path class="st9" d="M751.28,292.25c2.41,0,4.81-0.78,6.81-2.33l29.12-22.61c3.9-3.03,5.33-8.26,3.52-12.85l-47.8-121.21
					c-0.24-0.61-0.53-1.17-0.86-1.71c-6.48,3.79-12.78,7.84-18.9,12.14l43.85,111.19l-16.11,12.51l-90.13-62.56
					c-4.38,5.96-8.52,12.11-12.4,18.43l96.57,67.03C746.86,291.59,749.07,292.25,751.28,292.25z"/>
				<path class="st9" d="M910.69,279.87c-0.42,3.61,0.96,7.2,3.68,9.6l67.85,59.86c2.08,1.83,4.7,2.78,7.35,2.78
					c1.78,0,3.56-0.43,5.2-1.29l137.03-72.68c0.18-0.1,0.35-0.21,0.52-0.31c-2.34-6.93-4.96-13.73-7.83-20.4
					c-1.06,0.2-2.1,0.56-3.1,1.09l-130.25,69.08l-57.74-50.94l19.72-170.95c-7.08-2.07-14.28-3.87-21.59-5.36
					c-0.16,0.56-0.28,1.13-0.35,1.72L910.69,279.87z"/>
				<path class="st9" d="M962.07,254.46c-1.81,4.59-0.38,9.82,3.52,12.85l29.12,22.61c2,1.55,4.4,2.33,6.81,2.33
					c2.21,0,4.42-0.66,6.33-1.98l96.9-67.26c0.44-0.31,0.84-0.65,1.23-1.01c-3.87-6.22-7.97-12.27-12.32-18.14
					c-0.54,0.26-1.07,0.55-1.57,0.9l-90.2,62.61l-16.11-12.51l44.35-112.45c-6.07-4.19-12.31-8.16-18.73-11.85
					c-0.62,0.8-1.14,1.7-1.53,2.69L962.07,254.46z"/>
				<path class="st9" d="M1046.52,530.87v-98.19l97.28-33.75c0.92-0.32,1.77-0.76,2.55-1.28v-18.42c-2.8-1.87-6.4-2.47-9.82-1.28
					l-104.75,36.34c-4.47,1.55-7.46,5.76-7.46,10.49v113.06c0,4.26,2.44,8.15,6.28,10l104.75,50.55c1.56,0.75,3.2,1.11,4.82,1.11
					c2.21,0,4.36-0.68,6.19-1.91v-18.41c-0.43-0.29-0.88-0.56-1.36-0.79L1046.52,530.87z"/>
				<path class="st9" d="M1091.11,492.54v-16.93l54.5-7.93c0.25-0.04,0.49-0.09,0.73-0.14v-21.7c-1.26-0.27-2.58-0.34-3.93-0.14
					l-64.01,9.31c-5.46,0.79-9.51,5.47-9.51,10.99v34.58c0,4.8,3.09,9.06,7.65,10.55l64.01,20.96c1.15,0.38,2.31,0.55,3.46,0.55
					c0.79,0,1.57-0.09,2.33-0.26v-21.77L1091.11,492.54z"/>
			</g>
			<g>
				<path class="st10" d="M805.71,440.52l0.4-0.01c32.41-0.63,74.5-1.27,125.05-1.9c1.75,0,1.75,0.29,1.75,1.48
					c0,0.08-0.07,2.1-5.69,7.69c-0.72,0.47-1.88,1.28-2.81,2.43c0.01-0.21,0.02-0.42,0.02-0.63c0-2.1-0.82-7.12-8.4-8.43l-0.3-0.05
					h-80.97l-0.43,0.03c-8.94,1.1-10.82,5.2-10.82,8.46l0.01,0.32c0.18,2.03,1.32,8.64,8.23,8.64c10.38,0,21.86-0.27,34.17-0.8
					c0.03,0.75,0.04,1.52,0.04,2.28v1.01h-39.46l-0.46,0.03c-8.95,1.17-10.29,5.8-10.29,8.45l0.01,0.32
					c0.71,7.8,5.81,8.64,8.04,8.64c0,0,0,0,0,0c27.49-0.47,60.66-0.71,98.59-0.71c5.79,0,9.24-3.08,9.24-8.25
					c0-2.1-0.84-7.14-8.67-8.44l-0.28-0.05h-37.73c-0.01-0.35-0.02-0.69-0.02-1.01v-2.43h30.47c2.82,0,5.77-0.89,7.49-3.12v0.21
					l0.2,0.56c2.23,6.38,6.78,7.33,9.3,7.33c5.04,0,9.86-3.23,14.74-9.88c3.81-4.56,5.74-9.84,5.74-15.69
					c0-6.26-3.21-13.93-18.52-14.88l-0.22-0.01c-60.86,0-104.28,0.64-129.05,1.9l-0.53,0.03l-0.5,0.18
					c-4.25,1.56-5.61,4.51-5.99,6.72l-0.05,0.3v0.3c0,4.67,2.65,7.91,7.28,8.88L805.71,440.52z"/>
				<path class="st10" d="M939.65,532c-0.14-2.72-0.33-4.92-0.58-6.67c3.37-5.57,5.32-12.77,5.82-21.43l0.02-0.29l-0.03-0.28
					c-0.18-1.69-0.84-4.19-2.99-6.19c2.58-1.46,4.01-4.11,4.01-7.68c0-2.15-0.88-7.25-9.08-8.22l-0.33-0.02
					c-25.5-0.63-47.13-0.95-64.27-0.95c-27.51,0-47.98,0.32-60.86,0.95l-0.43,0.02l-0.41,0.12c-6.6,2-7.98,5.5-7.98,8.1l0.03,0.48
					c0.74,5.39,4.46,8.48,10.28,8.48c23.67-0.47,44.99-0.71,63.29-0.71c19.11,0.4,36.49,0.63,51.8,0.69
					c-0.88,1.16-1.39,2.38-1.67,3.46l-0.08,0.4c-0.14,0.97-0.29,1.96-0.45,2.97c-7.1-2.75-16.84-4.09-29.55-4.09l-0.26,0.01
					c-6.21,0.47-12.43,0.7-18.47,0.7h-0.44l-0.42,0.11c-3.91,0.99-6.35,3.82-6.86,7.95l-0.03,0.43c0,5.09,2.97,8.25,7.75,8.25h26.14
					c5.34,0.27,8.77,0.86,10.97,1.47c-0.21,0.05-0.43,0.11-0.66,0.16l-0.38,0.11c-3.27,1.13-7.67,1.71-13.09,1.71l-0.26,0.01
					c-6.21,0.47-14.53,0.7-24.71,0.7h-0.3l-0.3,0.05c-3.16,0.55-5.15,1.74-6.39,3.1l0.49-17.68c0-1.88-0.68-8.01-9.49-8.01h-0.44
					l-0.42,0.11c-3.54,0.9-6,2.73-7.29,5.44l-0.34,0.72v3.23h-21.47v-2.43l-0.01-0.2c-0.27-4.89-3.35-7.81-8.24-7.81
					c-4.55,0-7.87,2.58-9.12,7.08l-0.14,0.51l0.76,27.24c0,13.68,14.67,16.55,26.98,16.55c18.17,0,27.73-4.86,28.43-14.35
					c1.75,2.53,4.68,3.91,8.53,3.91c21.24,0,35.99-1.17,44.84-3.57c0.36,2.8,0.65,6.07,0.87,9.77l0.01,0.17
					c1.74,15.88,4.21,26.09,7.54,31.2l0.06,0.09c2.32,3.3,5.55,5.05,9.36,5.05h0.31l0.31-0.06c7.33-1.33,8.12-6,8.12-7.95
					c0-1.65-0.45-4.58-3.96-12.6C941.82,554.38,940.29,544.19,939.65,532z M840.25,533.18c-7.15,0-10.13-1.33-10.49-2.31v-4.7h20.88
					l-0.15,5.6C849.91,532.16,847.63,533.18,840.25,533.18z"/>
				<path class="st10" d="M815.53,399.7c3.55,0,11.9-0.32,24.81-0.95c8.37,0,16.63-0.24,24.64-0.72v5.11
					c-15.1,0.05-26.55,0.46-34.06,1.2l-0.11,0.01c-2.54,0.33-10.29,1.35-10.29,7.27l0.01,0.32c0.71,7.79,5.81,8.64,8.06,8.64
					c0,0,0,0,0,0c25.11-0.63,55.33-0.95,89.82-0.95c8.35,0,9-5.4,9-7.06c0-4.81-3.01-8.22-8.25-9.35l-0.37-0.08h-33.84v-5.34h26.62
					c11.26,0.63,18.52,0.95,21.58,0.95c8.58,0,9.24-6.13,9.24-8.01c0-2.4-0.9-8.12-9.22-9.39l-0.37-0.04
					c-12.91-0.6-29-0.92-47.86-0.95v-6c0-2.82-1.3-7.74-10.02-8.93l-0.55-0.08l-0.55,0.1c-6.25,1.13-8.23,4.56-8.79,7.23l-0.08,0.36
					v0.36c0,2.53-0.04,4.89-0.11,7.06c-16.73,0.58-32.5,1.18-46.92,1.78c-9.85,0.03-10.92,5.94-10.92,8.48l0.01,0.32
					C807.54,396.47,810.71,399.7,815.53,399.7z"/>
				<path class="st10" d="M912,543.67l-0.28-0.05h-26.01l-0.42,0.03c-8.94,1.09-10.82,5.2-10.82,8.46l0.01,0.32
					c0.18,2.03,1.32,8.64,8.23,8.64h0.14l0.14-0.01c8.01-0.62,17.59-0.94,28.45-0.94c8.58,0,9.24-6.13,9.24-8.01
					C920.67,550,919.83,544.96,912,543.67z"/>
			</g>
			<path class="st6" d="M1080.26,158.6c-54.14-54.14-126.12-83.96-202.69-83.96s-148.55,29.82-202.69,83.96
				c-54.14,54.14-83.96,126.12-83.96,202.69v245.38c0,76.57,29.82,148.55,83.96,202.69c54.14,54.14,126.12,83.96,202.69,83.96
				c76.57,0,148.55-29.82,202.69-83.96c54.14-54.14,83.96-126.12,83.96-202.69V361.29C1164.22,284.72,1134.4,212.74,1080.26,158.6z
				 M1139.22,606.67c0,69.89-27.22,135.59-76.64,185.01c-49.42,49.42-115.12,76.64-185.01,76.64h0
				c-69.89,0-135.59-27.22-185.01-76.64c-49.42-49.42-76.63-115.12-76.63-185.01V361.29c0-69.89,27.22-135.59,76.63-185.01
				s115.12-76.64,185.01-76.64c69.89,0,135.59,27.22,185.01,76.64c49.42,49.42,76.64,115.12,76.64,185.01V606.67z"/>
		</g>
		<g>
			<path class="st7" d="M541.2,811.76h-11.74h-70.04c-0.82,0-1.34,0.86-0.96,1.59c0.79,1.51,2.27,3.91,4.77,6.4
				c4.12,4.12,6.18,18.55,8.59,28.51c2.4,9.96,8.93,35.72,34.35,47.06h23.29h11.74h23.29c25.42-11.34,31.94-37.1,34.35-47.06
				c2.4-9.96,4.47-24.39,8.59-28.51c2.49-2.49,3.98-4.89,4.77-6.4c0.38-0.72-0.14-1.59-0.96-1.59H541.2z"/>
			<rect x="506.13" y="895.32" class="st7" width="58.39" height="7.21"/>
		</g>
		<g>
			<path class="st7" d="M716.05,811.76H704.3h-70.04c-0.82,0-1.34,0.86-0.96,1.59c0.79,1.51,2.27,3.91,4.77,6.4
				c4.12,4.12,6.18,18.55,8.59,28.51c2.4,9.96,8.93,35.72,34.35,47.06h23.29h11.74h23.29c25.42-11.34,31.94-37.1,34.35-47.06
				c2.4-9.96,4.47-24.39,8.59-28.51c2.49-2.49,3.98-4.89,4.77-6.4c0.38-0.72-0.14-1.59-0.96-1.59H716.05z"/>
			<rect x="680.98" y="895.32" class="st7" width="58.39" height="7.21"/>
		</g>
		<g>
			<path class="st7" d="M890.89,811.76h-11.74h-70.04c-0.82,0-1.34,0.86-0.96,1.59c0.79,1.51,2.27,3.91,4.77,6.4
				c4.12,4.12,6.18,18.55,8.59,28.51c2.4,9.96,8.93,35.72,34.35,47.06h23.29h11.74h23.29c25.42-11.34,31.94-37.1,34.35-47.06
				c2.4-9.96,4.47-24.39,8.59-28.51c2.49-2.49,3.98-4.89,4.77-6.4c0.38-0.72-0.14-1.59-0.96-1.59H890.89z"/>
			<rect x="855.82" y="895.32" class="st7" width="58.39" height="7.21"/>
		</g>
	</g>
</g>
<g id="圖層_2">
</g>
<g id="圖層_4">
</g>
</svg>
