<svg width="244" height="240" viewBox="0 0 244 240" fill="none" xmlns="http://www.w3.org/2000/svg">
<path d="M243.888 61.7052C243.888 27.6262 216.258 0 182.174 0H61.7136C27.6297 0 -0.000488281 27.6262 -0.000488281 61.7052C-0.000488281 88.4466 7.87329 111.213 31.6674 119.777C7.87329 128.341 -0.000488281 151.107 -0.000488281 177.848C-0.000488281 211.927 27.6297 239.553 61.7136 239.553H182.174C216.258 239.553 243.888 211.927 243.888 177.848C243.888 151.107 234.796 128.341 211.002 119.777C234.796 111.213 243.888 88.4466 243.888 61.7052Z" fill="#C39A6B"/>
<path d="M85.8548 129.347C85.3938 129.347 84.8217 129.347 84.1344 129.347C73.9351 129.347 68.7203 122.244 68.4939 108.038C68.4939 94.404 68.4939 80.9468 68.4939 67.6543C68.9508 65.2469 70.0415 64.0452 71.7578 64.0452C74.392 64.0452 75.8243 65.2469 76.0548 67.6543C76.0548 80.9468 76.0548 94.4081 76.0548 108.038C76.1659 113.079 77.0838 116.573 78.8043 118.52C80.4095 120.697 82.7555 121.783 85.8507 121.783C85.8507 118.232 85.8507 114.627 85.8507 110.956C85.8507 85.7535 85.6778 66.5062 85.3362 53.2136C85.3362 49.8926 86.9414 47.7732 90.1477 46.8555C93.0124 47.3164 94.4448 49.4317 94.4448 53.2136C94.4448 62.3826 94.4448 71.5433 94.4448 80.7081C99.4868 80.7081 102.179 78.4159 102.524 73.8356C103.096 71.4281 103.385 64.5555 103.385 53.2136C103.385 51.3823 104.529 50.1807 106.821 49.6045C109.34 49.6045 110.773 50.8062 111.118 53.2136L110.431 70.9137C110.431 82.486 105.105 88.2721 94.4489 88.2721C94.3336 96.8649 94.2184 105.746 94.1072 114.911C94.1072 140.689 94.2184 165.949 94.4489 190.694C94.4489 193.789 93.0165 195.332 90.1518 195.332C87.5135 195.332 86.0853 192.641 85.8548 187.254C85.8548 167.9 85.8548 148.595 85.8548 129.347ZM126.932 137.598C122.919 137.598 118.395 137.887 113.353 138.459C110.028 138.459 108.254 136.858 108.023 133.648C108.023 132.273 109.455 131.072 112.32 130.039C115.415 129.582 120.284 129.125 126.928 128.664C126.928 124.084 126.928 119.273 126.928 114.227C127.269 112.507 128.475 111.421 130.537 110.964C133.517 111.425 135.007 112.742 135.007 114.915C135.007 119.499 135.007 124.084 135.007 128.664C138.674 128.664 142.741 128.895 147.211 129.351C150.532 129.812 152.195 131.24 152.195 133.648C152.195 136.286 150.532 137.598 147.211 137.598C143.659 137.598 139.588 137.598 135.007 137.598C135.007 143.212 135.007 148.767 135.007 154.27C139.477 154.731 144.573 154.957 150.302 154.957C153.623 155.418 155.286 156.735 155.286 158.908C155.286 162.233 153.623 163.891 150.302 163.891C144.342 163.891 137.353 163.665 129.335 163.204C123.837 163.204 117.477 163.434 110.258 163.891C107.048 163.891 105.331 162.459 105.101 159.595C105.101 157.875 106.476 156.562 109.225 155.644C113.008 155.187 118.906 154.726 126.928 154.27C126.932 148.767 126.932 143.212 126.932 137.598ZM142.058 80.0291C136.67 79.0003 129.681 78.4818 121.091 78.4818C118.227 78.4818 116.794 77.1649 116.794 74.531C117.021 71.6668 118.28 70.2346 120.577 70.2346C131.344 70.2346 140.111 71.21 146.873 73.1565C149.392 69.033 150.709 64.679 150.825 60.0945C150.825 58.72 149.277 58.0327 146.186 58.0327H121.437C118.687 58.0327 117.313 56.6582 117.313 53.9091C117.539 51.0449 119.26 49.3864 122.47 48.9255L149.454 49.6127C156.328 49.6127 159.764 52.6499 159.764 58.72C159.764 65.1358 158.39 71.0371 155.64 76.42C159.649 78.8274 162.226 81.8069 163.374 85.3544C165.094 92.8031 166.123 105.919 166.469 124.709C167.268 142.924 168.589 156.846 170.42 166.467C171.565 171.966 172.766 177.295 174.03 182.447C175.063 185.196 175.578 187.431 175.578 189.151C175.578 191.559 174.314 192.76 171.795 192.76C169.959 192.76 168.585 192.073 167.671 190.699C162.629 176.031 159.534 153.294 158.39 122.475C157.929 102.314 156.669 90.3997 154.607 86.7289C153.92 85.3544 152.771 84.2679 151.17 83.4654C148.19 87.1322 144.523 90.5109 140.173 93.6056C128.94 101.511 119.721 105.462 112.501 105.462C109.521 105.462 108.031 104.03 108.031 101.165C108.258 99.7909 109.118 98.8732 110.608 98.4164C117.366 97.1571 125.446 93.2599 134.842 86.7289C137.588 84.556 139.996 82.3214 142.058 80.0291Z" fill="#EFECE0"/>
</svg>
