<svg width="522" height="462" viewBox="0 0 522 462" fill="none" xmlns="http://www.w3.org/2000/svg">
<g clip-path="url(#clip0_452_4958)">
<path d="M378.109 125.762C367.673 120.998 355.67 127.956 354.614 139.382C351.882 168.707 343.986 221.911 321.35 268.351C299.031 314.115 264.113 358.243 243.486 382.392C235.426 391.833 240.165 406.46 252.234 409.402C285.268 417.46 345.227 424.287 401.729 390.221C485.486 339.729 500.062 212.467 420.793 149.962C404.661 138.869 389.63 131.016 378.12 125.765L378.109 125.762Z" fill="#E4007E" stroke="#C39A6B" stroke-width="5" stroke-linecap="round" stroke-linejoin="round"/>
<path d="M209.204 344.155C220.67 343.953 228.506 332.507 224.541 321.741C214.377 294.104 198.557 242.688 198.976 191.027C199.394 139.367 211.886 85.2481 220.09 54.5635C223.291 42.5709 212.716 31.4271 200.567 33.9664C167.281 40.9223 110.226 60.608 73.9145 115.702C20.104 197.364 61.7968 318.473 160.255 340.723C179.591 343.776 196.549 344.388 209.189 344.163L209.204 344.155Z" fill="#E4007E" stroke="#C39A6B" stroke-width="5" stroke-linecap="round" stroke-linejoin="round"/>
<path d="M152.861 258.701C166.568 285.341 186.75 308.033 210.874 325.844L152.861 258.701Z" fill="#E4007E"/>
<path d="M152.861 258.701C166.568 285.341 186.75 308.033 210.874 325.844" stroke="#C39A6B" stroke-width="5" stroke-linecap="round" stroke-linejoin="round"/>
<path d="M193.119 56.8576C149.856 104.581 121.369 174.362 143.533 236.868L193.119 56.8576Z" fill="#E4007E"/>
<path d="M193.119 56.8576C149.856 104.581 121.369 174.362 143.533 236.868" stroke="#C39A6B" stroke-width="5" stroke-linecap="round" stroke-linejoin="round"/>
</g>
<defs>
<clipPath id="clip0_452_4958">
<rect width="440.057" height="350.81" fill="white" transform="translate(100.16) rotate(16.5894)"/>
</clipPath>
</defs>
</svg>
