<?xml version="1.0" encoding="utf-8"?>
<!-- Generator: Adobe Illustrator 27.2.0, SVG Export Plug-In . SVG Version: 6.00 Build 0)  -->
<svg version="1.1" id="圖層_1" xmlns="http://www.w3.org/2000/svg" xmlns:xlink="http://www.w3.org/1999/xlink" x="0px" y="0px"
	 viewBox="0 0 14.6 70.3" style="enable-background:new 0 0 14.6 70.3;" xml:space="preserve">
<style type="text/css">
	.st0{fill:#431D31;}
</style>
<g>
	<path class="st0" d="M6.9,0c2.2,0.1,3.7,0.1,4.3,0.1c1.6,0.2,2.4,0.6,2.4,1.3c0.1,1.5,0.1,4.3,0.1,8.3c0,2.6-0.1,4.3-0.3,5.2
		C13.3,18.3,11.1,20,7,20c-3.3-0.1-5.3-1.7-6.1-4.7c-0.2-1.4-0.3-3.1-0.3-5.1c0-3,0-6,0-8.9c0.2-0.6,0.8-1,1.7-1.2
		C3.1,0.1,4.6,0.1,6.9,0z M7,18.9c3,0,4.8-1.1,5.3-3.4c0.2-0.7,0.3-2.6,0.3-5.9c0-2.3,0-4.8-0.1-7.5c0-0.5-0.5-0.8-1.5-0.9
		c-1.2,0-2.6,0-4.1-0.1c-1.3,0-2.5,0-3.4,0.1c-1,0.1-1.6,0.4-1.6,0.9c0,1.9,0,4.6,0,8.1c0,2.7,0.1,4.4,0.3,5.2
		C2.7,17.5,4.3,18.7,7,18.9z M6.9,4.2c0.7,0,1.4,0,1.9,0.1c0.7,0.1,1,0.4,1.1,0.9c0,0,0,1,0,2.9c0,1.4,0,2.4-0.1,3c0,1.3-1,2-2.9,2
		c-1.6,0-2.5-0.7-2.7-2.2c0-0.6-0.1-1.7-0.1-3.2c0-0.9,0-1.7,0-2.3C4.4,4.8,4.6,4.5,5,4.4C5.6,4.3,6.2,4.2,6.9,4.2z M7,11.8
		c1,0,1.5-0.4,1.7-1.1c0.1-0.3,0.1-1,0.1-2.3c0-1.4,0-2.3-0.1-2.7c0-0.2-0.6-0.3-1.8-0.3c-1,0-1.5,0.1-1.5,0.3c0,0.8,0,1.7,0,2.4
		c0,1.1,0.1,2,0.2,2.6C5.8,11.4,6.3,11.8,7,11.8z"/>
	<path class="st0" d="M6.1,28.2c0.4,0,0.8,0,1.2,0c0.5,0,1,0,1.5,0l1-3.7c0.2-0.2,0.4-0.4,0.6-0.5c0.4,0,0.7,0.2,0.7,0.6
		c0,0.7-0.3,1.9-0.9,3.6c1.4,0,2.6,0,3.6,0.1c0.5,0.1,0.7,0.3,0.7,0.7c0,0.3-0.2,0.5-0.6,0.5c-0.3,0-1.1,0-2.4-0.1
		c-1.1,0-2.3,0-3.4,0c0.1,0.4,0.1,0.9,0.2,1.4c0,0.5,0.8,1,2.3,1.7c0.1,0.1,0.3,0.1,0.4,0.1c0-0.3,0-0.7,0-1.1
		c0-0.4,0.2-0.6,0.6-0.6c0.5,0,0.7,0.2,0.7,0.6c0,2.4-0.1,4.7-0.1,6.9c0,0.8-0.1,1.6-0.2,2.3c-0.1,0.6-0.3,1-0.5,1.4
		c-0.5,1.1-1.9,1.7-4,1.7c-1.5,0-2.7-0.3-3.4-1c-0.5-0.3-0.8-0.9-1-1.7c-0.2-0.8-0.3-1.8-0.3-3c0-2.9,0.1-5.1,0.1-6.5
		c0-0.5,0.2-0.7,0.6-0.8c0.4,0.1,0.7,0.3,0.7,0.7c0,0.4,0,0.8,0,1.2c0.1-0.1,0.3-0.2,0.6-0.2c1.3-0.6,2-1.1,2.1-1.6
		c0.1-0.5,0.2-1,0.2-1.6c-1.1,0.1-2.2,0.1-3.3,0.1c-1.4,0.1-2.4,0.1-2.7,0.1c-0.4,0-0.6-0.2-0.6-0.6c0-0.4,0.3-0.6,0.8-0.6
		c1.2-0.1,2.4-0.1,3.7-0.1C4.2,26.4,4,25.2,4,24.6c0-0.2,0.2-0.3,0.5-0.4c0.2,0,0.4,0.1,0.6,0.2C5.3,24.7,5.7,26,6.1,28.2z
		 M10.9,35.4c0-0.4,0-0.8,0-1.3c0,0.1-0.1,0.1-0.1,0.1c-1-0.2-2.1-1-3.3-2.1c-1.1,1.1-2.2,1.8-3.3,2.1c-0.1,0-0.1,0-0.2,0
		c0,0.4,0,0.8,0,1.3L10.9,35.4z M4,36.6c0,0.5,0,1.1,0,1.6c0,0.1,0,0.3,0,0.3h7c0-0.2,0-0.4,0-0.7c0-0.5,0-0.9,0-1.4L4,36.6z
		 M4.1,39.8c0,0.2,0.1,0.4,0.1,0.7c0.1,0.6,0.3,1,0.6,1.2c0.6,0.6,1.5,0.9,2.7,1c1.5-0.1,2.4-0.5,2.9-1.3c0.2-0.2,0.3-0.7,0.4-1.3
		c0-0.1,0-0.2,0-0.3L4.1,39.8z"/>
	<path class="st0" d="M4.9,62.9c-1.8-0.5-2.7-1.5-2.7-3.2L2,53c0.1-0.4,0.3-0.6,0.6-0.6c0.3,0,0.5,0.2,0.6,0.5v0.4
		C4,53.2,4.8,53,5.6,52.8c0.6-0.1,0.9-0.3,0.9-0.7v-1.4c-1,0-2.1,0-3.1,0.1c-1.5,0-2.4,0-2.8,0.1C0.2,51,0,50.7,0,50.3
		c0-0.3,0.3-0.5,0.8-0.5c1.9-0.1,4-0.1,6.4-0.2c2.8,0,5,0,6.7,0.1c0.4,0.1,0.7,0.3,0.7,0.6c0,0.4-0.2,0.6-0.6,0.6
		c-0.3,0-1.1,0-2.4-0.1c-1.2,0-2.5,0-3.7,0v1.3c0,0.4,0.3,0.6,1,0.8c1,0.2,1.8,0.4,2.4,0.5c0,0,0.1,0,0.1,0.1v-0.5
		c0.1-0.3,0.3-0.5,0.6-0.5c0.5,0,0.7,0.2,0.7,0.5l-0.1,7c0,1.6-0.9,2.6-2.7,3c2.3,4.2,3.5,6.5,3.5,6.9c0,0.3-0.1,0.4-0.4,0.5
		c-0.3,0-0.5-0.1-0.6-0.4c-0.5-0.3-1.7-2.6-3.6-6.9c-0.3,0.1-0.7,0.1-1.1,0.1c-0.5,0-1,0-1.5-0.1c-1,3-2,5.2-2.9,6.8
		c-0.1,0.3-0.3,0.5-0.7,0.5c-0.3,0-0.5-0.2-0.5-0.6c0-0.4,0.4-1.1,1-2.3C3.7,66,4.3,64.5,4.9,62.9z M11.3,55.9l0-1.4
		c-0.1,0-0.2,0-0.2,0c-0.3,0-1-0.2-2-0.5c-1-0.3-1.6-0.5-1.8-0.5c-0.3,0-0.9,0.2-2,0.5c-1,0.3-1.6,0.5-1.9,0.5c-0.1,0-0.2,0-0.3,0
		v1.4H11.3z M3.2,57.1l0,1.4h8l0-1.5L3.2,57.1z M3.2,59.7l0,0.5C3.4,61.4,4.8,62,7.5,62c2.4,0,3.7-0.6,3.7-1.8v-0.7L3.2,59.7z"/>
</g>
</svg>
