<?xml version="1.0" encoding="utf-8"?>
<!-- Generator: Adobe Illustrator 26.3.1, SVG Export Plug-In . SVG Version: 6.00 Build 0)  -->
<svg version="1.1" id="圖層_1" xmlns="http://www.w3.org/2000/svg" xmlns:xlink="http://www.w3.org/1999/xlink" x="0px" y="0px"
	 viewBox="0 0 2507.9 1982.1" style="enable-background:new 0 0 2507.9 1982.1;" xml:space="preserve">
<style type="text/css">
	.st0{clip-path:url(#SVGID_00000171694522558947483670000001657204573452473220_);}
	.st1{fill:none;stroke:#C39A6B;stroke-width:6;stroke-linecap:round;stroke-linejoin:round;}
	.st2{clip-path:url(#SVGID_00000160192472712876819000000014330636722213639090_);}
</style>
<g>
	<g>
		<defs>
			
				<rect id="SVGID_1_" x="-3.7" y="81.5" transform="matrix(0.9958 -9.131026e-02 9.131026e-02 0.9958 -88.9711 89.3318)" width="1871" height="1871"/>
		</defs>
		<clipPath id="SVGID_00000170958442615703577660000013607113995270363280_">
			<use xlink:href="#SVGID_1_"  style="overflow:visible;"/>
		</clipPath>
		<g style="clip-path:url(#SVGID_00000170958442615703577660000013607113995270363280_);">
			<path class="st1" d="M912.5,85.2l24,579.3"/>
			<path class="st1" d="M846.9,91.2l52.9,576.7"/>
			<path class="st1" d="M973.6,455l-8.3,206.9"/>
			<path class="st1" d="M781.3,97.2l81.8,574"/>
			<path class="st1" d="M788.5,472l45.7,202"/>
			<path class="st1" d="M449.2,219.7l310.4,489.8"/>
			<path class="st1" d="M395.4,257.7l334.1,473"/>
			<path class="st1" d="M687,509.4l96.3,183.3"/>
			<path class="st1" d="M341.6,295.7l357.9,456.2"/>
			<path class="st1" d="M535.1,616.7l140.6,152"/>
			<path class="st1" d="M115.2,567.8l513.7,268.9"/>
			<path class="st1" d="M87.6,627.6l525.9,242.6"/>
			<path class="st1" d="M466,699.8l175,110.6"/>
			<path class="st1" d="M60,687.4l538,216.2"/>
			<path class="st1" d="M388.1,868.6L585.9,930"/>
			<path class="st1" d="M0,1036.3l579.3-24"/>
			<path class="st1" d="M6,1101.9l576.7-52.9"/>
			<path class="st1" d="M369.8,975.2l206.9,8.3"/>
			<path class="st1" d="M12,1167.5l574-81.8"/>
			<path class="st1" d="M386.7,1160.3l202-45.7"/>
			<path class="st1" d="M134.5,1499.7l489.8-310.4"/>
			<path class="st1" d="M172.5,1553.4l473-334.1"/>
			<path class="st1" d="M424.1,1261.8l183.3-96.3"/>
			<path class="st1" d="M210.5,1607.2l456.2-357.9"/>
			<path class="st1" d="M531.5,1413.7l152-140.6"/>
			<path class="st1" d="M482.6,1833.6l268.9-513.7"/>
			<path class="st1" d="M542.4,1861.2L785,1335.3"/>
			<path class="st1" d="M614.6,1482.8l110.6-175"/>
			<path class="st1" d="M602.2,1888.8l216.2-538.1"/>
			<path class="st1" d="M783.4,1560.7l61.3-197.8"/>
			<path class="st1" d="M951.1,1948.8l-24-579.3"/>
			<path class="st1" d="M1016.7,1942.8l-52.9-576.7"/>
			<path class="st1" d="M890,1579.1l8.3-206.9"/>
			<path class="st1" d="M1082.3,1936.8l-81.8-574"/>
			<path class="st1" d="M1075.1,1562.1l-45.7-202"/>
			<path class="st1" d="M1176.6,1524.7l-96.3-183.3"/>
		</g>
	</g>
	<g>
		<defs>
			
				<rect id="SVGID_00000000215252475061180920000001632015223389762213_" x="628.2" y="29.6" transform="matrix(0.9958 -9.131026e-02 9.131026e-02 0.9958 -81.5909 146.8139)" width="1871" height="1871"/>
		</defs>
		<clipPath id="SVGID_00000139291323728477301160000009124859100996307897_">
			<use xlink:href="#SVGID_00000000215252475061180920000001632015223389762213_"  style="overflow:visible;"/>
		</clipPath>
		<g style="clip-path:url(#SVGID_00000139291323728477301160000009124859100996307897_);">
			<path class="st1" d="M1544.4,33.3l24,579.3"/>
			<path class="st1" d="M1478.8,39.3l52.9,576.7"/>
			<path class="st1" d="M1605.5,403.1l-8.2,206.9"/>
			<path class="st1" d="M1413.2,45.3l81.8,574"/>
			<path class="st1" d="M1420.4,420l45.8,202"/>
			<path class="st1" d="M1583,1896.9l-24-579.3"/>
			<path class="st1" d="M1648.6,1890.9l-52.9-576.7"/>
			<path class="st1" d="M1521.9,1527.1l8.2-206.9"/>
			<path class="st1" d="M1714.2,1884.9l-81.8-574"/>
			<path class="st1" d="M1707,1510.2l-45.7-202"/>
			<path class="st1" d="M2046.3,1762.4l-310.4-489.8"/>
			<path class="st1" d="M2100.1,1724.4l-334.1-473"/>
			<path class="st1" d="M1808.5,1472.8l-96.3-183.3"/>
			<path class="st1" d="M2153.9,1686.4L1796,1230.2"/>
			<path class="st1" d="M1960.4,1365.5l-140.6-152"/>
			<path class="st1" d="M2380.3,1414.3l-513.7-268.9"/>
			<path class="st1" d="M2407.9,1354.5L1882,1111.9"/>
			<path class="st1" d="M2029.5,1282.3l-175.1-110.6"/>
			<path class="st1" d="M2435.5,1294.7l-538-216.2"/>
			<path class="st1" d="M2107.4,1113.5l-197.8-61.3"/>
			<path class="st1" d="M2495.5,945.8l-579.3,24"/>
			<path class="st1" d="M2489.5,880.2l-576.7,52.9"/>
			<path class="st1" d="M2125.7,1006.9l-206.9-8.3"/>
			<path class="st1" d="M2483.5,814.6l-574,81.8"/>
			<path class="st1" d="M2108.8,821.8l-202,45.7"/>
			<path class="st1" d="M2361,482.5l-489.8,310.4"/>
			<path class="st1" d="M2323,428.7l-473,334.1"/>
			<path class="st1" d="M2071.4,720.3L1888,816.6"/>
			<path class="st1" d="M2285,374.9l-456.2,357.9"/>
			<path class="st1" d="M1964.1,568.4L1812,709"/>
			<path class="st1" d="M2012.9,148.5l-268.9,513.7"/>
			<path class="st1" d="M1953.1,120.9l-242.5,525.9"/>
			<path class="st1" d="M1881,499.3l-110.6,175"/>
			<path class="st1" d="M1893.3,93.3l-216.2,538"/>
			<path class="st1" d="M1712.1,421.4l-61.3,197.8"/>
		</g>
	</g>
</g>
</svg>
