<svg width="576" height="592" viewBox="0 0 576 592" fill="none" xmlns="http://www.w3.org/2000/svg">
<path d="M239.02 264.901C239.927 264.089 252.517 252.456 248.948 232.772L263.018 224.386L281.666 220.507L297.081 211.422C297.081 211.422 329.208 186.574 318.122 160.273C318.122 160.273 310.788 155.335 295.686 168.798C280.584 182.26 240.655 181.667 240.655 181.667C240.655 181.667 182.414 181.106 156.151 199.388C129.888 217.669 109.121 221.616 86.2927 261.023C63.4644 300.43 60.4686 319.619 62.2288 346.583C62.2288 346.583 61.0912 379.633 102.942 409.648C102.942 409.648 94.9238 447.129 134.817 472.854C174.71 498.579 205.484 492.484 238.329 485.751C271.175 479.019 341.542 430.694 341.542 430.694L365.763 411.483L387.948 405.121L414.465 393.495L436.306 376.628L454.73 355.18L472.659 333.186L483.859 322.154L508.347 308.404C508.347 308.404 504.136 295.952 493.336 296.167C482.536 296.383 477.951 295.992 477.951 295.992C477.951 295.992 497.198 261.93 497.578 261.465C497.958 260.999 511.266 243.972 511.266 243.972L533.681 224.145C533.681 224.145 532.471 215.853 522.83 215.299C513.189 214.745 500.126 215.606 500.126 215.606L526.749 197.985C526.749 197.985 532.596 191.589 524.656 186.769C516.715 181.949 501.488 175.189 486.492 183.208C486.492 183.208 469.691 168.103 464.171 169.787C458.651 171.47 447.167 164.68 424.63 184.734L404.949 214.565C404.949 214.565 375.151 215.027 362.019 228.28C348.887 241.532 348.614 248.533 348.614 248.533C348.614 248.533 324.58 248.266 309.985 258.551C295.39 268.835 288.63 276.201 288.63 276.201L259.924 266.452L239.018 264.879L239.02 264.901Z" fill="#431D31"/>
<path d="M176.123 289.963C176.123 289.963 224.087 243.783 289.198 276.618C289.198 276.618 308.87 248.677 349.327 249.7C349.327 249.7 355.122 215.999 405.775 214.64C405.775 214.64 440.953 139.834 485.671 182.471" stroke="#C39A6B" stroke-width="3" stroke-linecap="round" stroke-linejoin="round"/>
<path d="M325.302 314.661C325.302 314.661 346.53 272.154 394.744 271.256" stroke="#C39A6B" stroke-width="3" stroke-linecap="round" stroke-linejoin="round"/>
<path d="M390.198 284.427C390.198 284.427 405.061 233.262 438.859 224.734" stroke="#C39A6B" stroke-width="3" stroke-linecap="round" stroke-linejoin="round"/>
<path d="M440.241 238.226C437.342 228.374 443.093 217.084 449.426 209.941C460.912 196.979 475.605 186.775 492.176 181.509C504.531 177.582 526.27 179.386 530.165 195.009C531.125 198.894 515.891 199.862 497.482 219.914" stroke="#C39A6B" stroke-width="3" stroke-linecap="round" stroke-linejoin="round"/>
<path d="M478.187 297.118C478.756 296.419 486.617 281.564 496.777 264.338C506.938 247.112 518.511 237.201 531.411 226.84C541.784 218.502 518.47 214.72 514.072 214.726C493.949 214.749 483.544 228.164 470.692 241.624L470.266 242.072C463.241 249.386 459.818 258.472 457.295 268.109" stroke="#C39A6B" stroke-width="3" stroke-linecap="round" stroke-linejoin="round"/>
<path d="M461.5 255.558C461.5 255.558 431.504 261.777 408.487 307.581" stroke="#C39A6B" stroke-width="3" stroke-linecap="round" stroke-linejoin="round"/>
<path d="M339.768 346.289C340.105 345.4 372.559 308.045 412.989 299.251" stroke="#C39A6B" stroke-width="3" stroke-linecap="round" stroke-linejoin="round"/>
<path d="M443.817 332.137C443.817 332.137 454.151 301.89 480.28 296.906C506.409 291.922 509.889 307.126 508.793 308.947C507.697 310.767 489.759 316.632 481.25 325.165C472.742 333.697 469.334 337.878 453.71 357.996C438.086 378.115 414.39 402.897 365.844 411.646C365.844 411.646 262.601 506.941 173.205 489.184C116.34 477.888 76.0436 414.612 124.754 379.57" stroke="#C39A6B" stroke-width="3" stroke-linecap="round" stroke-linejoin="round"/>
<path d="M402.498 361.469C402.498 361.469 416.37 325.781 448.95 321.505" stroke="#C39A6B" stroke-width="3" stroke-linecap="round" stroke-linejoin="round"/>
<path d="M354.46 375.286C355.789 373.655 374.148 352.664 406.983 351.984" stroke="#C39A6B" stroke-width="3" stroke-linecap="round" stroke-linejoin="round"/>
<path d="M249.134 231.428C249.134 231.428 254.775 248.393 239.88 264.861" stroke="#C39A6B" stroke-width="3" stroke-linecap="round" stroke-linejoin="round"/>
<path d="M239.211 235.707C239.211 235.707 251.566 232.881 263.144 225.321C264.874 224.201 269.73 224.485 271.798 224.029C278.785 222.5 285.582 220.001 291.842 216.533C302.583 210.576 311.117 200.983 316.197 189.839C319.137 183.4 326.773 164.034 318.085 159.278C315.523 157.884 312.363 158.879 309.746 160.133C300.075 164.779 292.09 172.269 282.414 176.87C271.162 182.227 259.269 181.226 247.216 181.501C238.473 181.7 229.738 182.089 221.026 182.926C199.459 184.996 178.142 189.842 158.36 198.796C143.276 205.62 129.304 214.739 116.977 225.75C62.0275 274.786 31.5864 360.249 103.851 409.649" stroke="#C39A6B" stroke-width="3" stroke-linecap="round" stroke-linejoin="round"/>
</svg>
