<svg width="562" height="591" viewBox="0 0 562 591" fill="none" xmlns="http://www.w3.org/2000/svg">
<path d="M331.338 268.662C330.5 267.78 318.895 255.164 324.047 235.835L310.704 226.335L292.432 220.958L277.803 210.653C277.803 210.653 247.797 183.282 260.978 157.966C260.978 157.966 268.688 153.639 282.649 168.282C296.61 182.925 336.456 185.57 336.456 185.57C336.456 185.57 394.551 189.731 419.245 210.082C443.94 230.432 464.319 236.049 483.878 277.177C503.428 318.292 504.867 337.674 500.927 364.406C500.927 364.406 499.382 397.44 455.236 423.963C455.236 423.963 460.19 461.971 418.343 484.378C376.504 506.797 346.317 498.215 314.126 488.842C281.934 479.469 215.716 425.6 215.716 425.6L193.131 404.488L171.535 396.349L146.047 382.611L125.646 364.03L109.021 341.159L92.9335 317.784L82.6648 305.88L59.3714 290.191C59.3714 290.191 64.5784 278.121 75.3254 279.211C86.0724 280.302 90.6739 280.284 90.6739 280.284C90.6739 280.284 74.2511 244.774 73.9104 244.279C73.5696 243.784 61.6854 225.734 61.6854 225.734L40.9515 204.155C40.9515 204.155 42.8287 195.989 52.4833 196.219C62.1378 196.448 75.0877 198.365 75.0877 198.365L49.9805 178.644C49.9805 178.644 44.6709 171.795 52.9764 167.634C61.2819 163.473 77.0066 157.97 91.3029 167.178C91.3029 167.178 109.273 153.485 114.638 155.611C120.004 157.736 132 151.899 152.838 173.713L170.036 205.042C170.036 205.042 199.698 207.918 211.713 222.191C223.737 236.477 223.432 243.465 223.432 243.465C223.432 243.465 247.409 245.147 261.122 256.581C274.835 268.015 280.976 275.904 280.976 275.904L310.378 268.514L331.342 268.64L331.338 268.662Z" fill="#431D31"/>
<path d="M392.889 298.824C392.889 298.824 348.826 248.907 281.267 276.356C281.267 276.356 263.925 246.913 223.518 244.653C223.518 244.653 220.474 210.593 170.098 205.133C170.098 205.133 141.1 127.721 93.0719 166.594" stroke="#C39A6B" stroke-width="3" stroke-linecap="round" stroke-linejoin="round"/>
<path d="M242.212 311.338C242.212 311.338 224.499 267.25 176.516 262.447" stroke="#C39A6B" stroke-width="3" stroke-linecap="round" stroke-linejoin="round"/>
<path d="M179.967 275.952C179.967 275.952 169.3 223.751 136.304 212.512" stroke="#C39A6B" stroke-width="3" stroke-linecap="round" stroke-linejoin="round"/>
<path d="M133.833 225.849C137.521 216.264 132.704 204.545 126.971 196.913C116.574 183.062 102.756 171.7 86.6659 165.109C74.6701 160.193 52.8564 160.229 47.7079 175.485C46.4359 179.279 61.5413 181.479 78.2648 202.957" stroke="#C39A6B" stroke-width="3" stroke-linecap="round" stroke-linejoin="round"/>
<path d="M91.2516 281.459C90.7405 280.717 84.1098 265.272 75.3791 247.28C66.6264 229.283 55.9166 218.47 43.8992 207.098C34.2361 197.946 57.7799 196.067 62.1629 196.429C82.2179 198.084 91.5007 212.298 103.22 226.756L103.608 227.237C110.017 235.096 112.692 244.43 114.426 254.239" stroke="#C39A6B" stroke-width="3" stroke-linecap="round" stroke-linejoin="round"/>
<path d="M111.24 241.398C111.24 241.398 140.632 250.029 159.861 297.548" stroke="#C39A6B" stroke-width="3" stroke-linecap="round" stroke-linejoin="round"/>
<path d="M225.216 341.7C224.953 340.786 195.634 300.923 156.049 288.881" stroke="#C39A6B" stroke-width="3" stroke-linecap="round" stroke-linejoin="round"/>
<path d="M122.657 319.158C122.657 319.158 114.808 288.174 89.1697 281.088C63.5311 274.002 58.8294 288.874 59.7742 290.778C60.719 292.681 78.1232 299.981 85.9119 309.175C93.7006 318.369 96.7585 322.812 110.7 344.131C124.651 365.462 146.251 392.071 193.928 404.726C193.928 404.726 289.107 508.076 379.649 497.625C437.242 490.974 482.535 431.173 436.825 392.298" stroke="#C39A6B" stroke-width="3" stroke-linecap="round" stroke-linejoin="round"/>
<path d="M161.476 351.735C161.476 351.735 150.542 315.04 118.417 308.137" stroke="#C39A6B" stroke-width="3" stroke-linecap="round" stroke-linejoin="round"/>
<path d="M208.236 369.399C207.043 367.666 190.447 345.255 157.775 341.916" stroke="#C39A6B" stroke-width="3" stroke-linecap="round" stroke-linejoin="round"/>
<path d="M324.862 234.563C324.862 234.563 317.865 251.015 331.376 268.636" stroke="#C39A6B" stroke-width="3" stroke-linecap="round" stroke-linejoin="round"/>
<path d="M334.405 239.631C334.405 239.631 322.32 235.814 311.393 227.339C309.759 226.083 304.897 225.973 302.872 225.35C296.032 223.261 289.46 220.219 283.502 216.255C273.279 209.446 265.55 199.194 261.39 187.675C258.982 181.018 252.941 161.097 261.986 157.061C264.652 155.879 267.722 157.127 270.228 158.589C279.491 164.004 286.843 172.116 296.114 177.486C306.895 183.738 318.829 183.704 330.821 184.955C339.519 185.862 348.194 186.958 356.809 188.498C378.137 192.31 398.991 198.868 417.982 209.395C432.464 217.42 445.65 227.642 457.044 239.616C507.838 292.945 531.251 380.594 455.221 423.973" stroke="#C39A6B" stroke-width="3" stroke-linecap="round" stroke-linejoin="round"/>
</svg>
