<?xml version="1.0" encoding="utf-8"?>
<!-- Generator: Adobe Illustrator 26.3.1, SVG Export Plug-In . SVG Version: 6.00 Build 0)  -->
<svg version="1.1" xmlns="http://www.w3.org/2000/svg" xmlns:xlink="http://www.w3.org/1999/xlink" x="0px" y="0px"
	 viewBox="0 0 362.3 538.8" style="enable-background:new 0 0 362.3 538.8;" xml:space="preserve">
<style type="text/css">
	.st0{fill:#FDFFFE;stroke:#C2996B;stroke-width:2;stroke-miterlimit:10;}
	.st1{fill:none;stroke:#C2996B;stroke-width:2;stroke-miterlimit:10;}
	.st2{fill:#431D31;stroke:#C2996B;stroke-width:2;stroke-miterlimit:10;}
	.st3{stroke:#000000;stroke-width:16;stroke-miterlimit:10;}
	.st4{font-family:'ARHeiB5-Bold-B5pc-H';}
	.st5{font-size:28.5101px;}
	.st6{letter-spacing:2;}
	.st7{font-family:'YuGo-Bold-83pv-RKSJ-H';}
	.st8{font-size:14.7641px;}
	.st9{font-size:12.3035px;glyph-orientation-vertical:0;writing-mode:tb;}
	.st10{letter-spacing:1;}
	.st11{font-size:20.7205px;}
	.st12{letter-spacing:3;}
	.st13{font-size:10px;}
</style>
<g id="圖層_2">
	<g>
		<rect x="45" y="82.4" class="st0" width="316.1" height="455.4"/>
		<rect x="39.5" y="82.3" class="st0" width="316.1" height="455.4"/>
		<rect x="34" y="82.2" class="st0" width="316.1" height="455.4"/>
		<rect x="28.5" y="82.1" class="st0" width="316.1" height="455.4"/>
		<rect x="23" y="82" class="st0" width="316.1" height="455.4"/>
		<rect x="17.5" y="82" class="st0" width="316.1" height="455.4"/>
		<rect x="12" y="81.9" class="st0" width="316.1" height="455.4"/>
		<rect x="6.5" y="81.8" class="st0" width="316.1" height="455.4"/>
		<rect x="1" y="81.7" class="st0" width="316.1" height="455.4"/>
	</g>
	<line class="st1" x1="1" y1="113.3" x2="317.1" y2="113.3"/>
	<line class="st1" x1="1" y1="402.1" x2="317.1" y2="402.1"/>
	<path class="st2" d="M352,1H28.8c-5.1,0-9.3,4.2-9.3,9.3v71.8h341.8V10.3C361.3,5.2,357.1,1,352,1z M181.5,54.4
		c-7.1,0-12.9-5.8-12.9-12.9c0-7.1,5.8-12.9,12.9-12.9c7.1,0,12.9,5.8,12.9,12.9C194.4,48.6,188.6,54.4,181.5,54.4z"/>
	<path class="st2" d="M343.1,1H15.9c-5.1,0-9.3,4.2-9.3,9.3v71.8h345.8V10.3C352.4,5.2,348.3,1,343.1,1z M174.7,54.4
		c-7.1,0-12.9-5.8-12.9-12.9c0-7.1,5.8-12.9,12.9-12.9c7.1,0,12.9,5.8,12.9,12.9C187.5,48.6,181.8,54.4,174.7,54.4z"/>
</g>
<g id="圖層_1">
	<g>
		<g>
			<path class="st3" d="M104.8,204.8h-0.3l-17.7,10.2l-2-6.5l20.2-11.7h7.8V305h-8V204.8z"/>
			<path class="st3" d="M221.8,202.3c-3.7,0-8.5,0.2-13.5,1.2c-24.3,4.7-39.8,24.3-41.8,46.5h0.3c5.2-8.3,16.3-16.3,31-16.3
				c22.2,0,35.5,15.3,35.5,35.3c0,18-12.7,38.1-37,38.1c-20,0-38.5-14.5-38.5-46c0-22.7,8.8-39.6,19.8-49.6
				c8.3-7.7,19.3-13,31.6-15.3c4.7-1,9.2-1.3,12.3-1.3L221.8,202.3z M224.8,269.2c0-18.3-12.3-28.7-29-28.7
				c-11.3,0-22.2,6.8-27.5,16c-1.2,2.2-2.2,4.5-2.2,7c0,20,10.3,36.6,30.7,36.6C214.1,300.2,224.8,286.1,224.8,269.2z"/>
		</g>
	</g>
	<text transform="matrix(1 0 0 1 113.001 369.3704)" class="st4 st5 st6">宜啟航</text>
	<text transform="matrix(1 0 0 1 15.7837 434.7727)"><tspan x="0" y="0" class="st7 st8 st6">滾滾長江東逝水滾滾長江東逝水滾滾長</tspan><tspan x="0" y="29.5" class="st7 st8 st6">江東逝水滾滾長江東逝水滾滾長江東逝</tspan><tspan x="0" y="59.1" class="st7 st8 st6">滾滾長江東逝水滾滾長江東逝水水</tspan></text>
	<g>
		<text transform="matrix(1 0 0 1 73.1953 136.843)" class="st4 st9 st10">八月</text>
		<text transform="matrix(1 0 0 1 244.9004 136.843)" class="st4 st9 st10">十六</text>
		<text transform="matrix(1 0 0 1 106.7949 155.2473)" class="st7 st11 st12">AUGUST</text>
	</g>
	<text transform="matrix(1 0 0 1 70.2422 101.2942)" class="st7 st13 st10">七月 (小) 十九 屬虎 戊申月 辛丑日</text>
</g>
</svg>
