<?xml version="1.0" encoding="utf-8"?>
<!-- Generator: Adobe Illustrator 26.3.1, SVG Export Plug-In . SVG Version: 6.00 Build 0)  -->
<svg version="1.1" id="圖層_1" xmlns="http://www.w3.org/2000/svg" xmlns:xlink="http://www.w3.org/1999/xlink" x="0px" y="0px"
	 viewBox="0 0 362.3 538.8" style="enable-background:new 0 0 362.3 538.8;" xml:space="preserve">
<style type="text/css">
	.st0{fill:#FDFFFE;stroke:#C2996B;stroke-width:2;stroke-miterlimit:10;}
	.st1{fill:none;stroke:#C2996B;stroke-width:2;stroke-miterlimit:10;}
	.st2{fill:#431D31;stroke:#C2996B;stroke-width:2;stroke-miterlimit:10;}
</style>
<g id="圖層_2_00000114756382306690657040000007232040588867659412_">
	<g>
		<rect x="45" y="82.4" class="st0" width="316.1" height="455.4"/>
		<rect x="39.5" y="82.3" class="st0" width="316.1" height="455.4"/>
		<rect x="34" y="82.2" class="st0" width="316.1" height="455.4"/>
		<rect x="28.5" y="82.1" class="st0" width="316.1" height="455.4"/>
		<rect x="23" y="82" class="st0" width="316.1" height="455.4"/>
		<rect x="17.5" y="82" class="st0" width="316.1" height="455.4"/>
		<rect x="12" y="81.9" class="st0" width="316.1" height="455.4"/>
		<rect x="6.5" y="81.8" class="st0" width="316.1" height="455.4"/>
		<rect x="1" y="81.7" class="st0" width="316.1" height="455.4"/>
	</g>
	<line class="st1" x1="1" y1="113.3" x2="317.1" y2="113.3"/>
	<line class="st1" x1="1" y1="402.1" x2="317.1" y2="402.1"/>
	<path class="st2" d="M352,1H28.8c-5.1,0-9.3,4.2-9.3,9.3v71.8h341.8V10.3C361.3,5.2,357.1,1,352,1z M181.5,54.4
		c-7.1,0-12.9-5.8-12.9-12.9s5.8-12.9,12.9-12.9c7.1,0,12.9,5.8,12.9,12.9S188.6,54.4,181.5,54.4z"/>
	<path class="st2" d="M343.1,1H15.9c-5.1,0-9.3,4.2-9.3,9.3v71.8h345.8V10.3C352.4,5.2,348.3,1,343.1,1z M174.7,54.4
		c-7.1,0-12.9-5.8-12.9-12.9s5.8-12.9,12.9-12.9c7.1,0,12.9,5.8,12.9,12.9C187.5,48.6,181.8,54.4,174.7,54.4z"/>
</g>
</svg>
