<svg width="1163" height="239" viewBox="0 0 1163 239" fill="none" xmlns="http://www.w3.org/2000/svg">
<path d="M1160.65 -218.141C1160.65 -218.141 1103.12 -228.284 1076.04 -211.371C1060.79 -202.221 1030.28 -219.997 1016.11 -225.147C980.86 -237.982 942.084 -242.766 904.72 -244.726C876.011 -246.242 842.778 -242.243 829.835 -212.547C829.835 -212.547 776.547 -217.54 763.84 -194.144C751.159 -170.748 743.576 -128.452 801.518 -130.988C818.853 -130.151 822.226 -133.523 822.226 -133.523V-119.982C822.226 -119.982 795.164 -119.982 788.392 -109.84C788.392 -109.84 767.919 -154.906 700.329 -149.286C686.863 -147.064 680.117 -143.666 680.117 -143.666C680.117 -143.666 636.112 -187.661 581.987 -170.722C527.837 -153.809 509.429 -101.37 496.643 -93.763C483.858 -86.156 456.717 -84.4569 456.743 -115.747C456.769 -147.038 460.169 -163.951 402.619 -184.263C345.096 -204.574 267.256 -177.492 246.94 -150.436C226.623 -123.381 170.25 -126.753 137.54 -180.89C98.0585 -221.487 19.5651 -213.044 -2.11084 -180.054C-23.7867 -147.064 -26.5582 -79.4117 57.7397 -72.6413C98.0585 -72.6413 117.59 -88.7179 117.59 -88.7179C117.59 -88.7179 131.893 -38.815 189.416 -45.5855C206.333 -45.5855 225.159 -67.4654 225.159 -67.4654C225.159 -67.4654 235.644 -28.6724 297.116 -28.6724C297.116 -28.6724 273.557 -23.6011 277.165 2.61819C280.774 28.8374 321.38 45.7506 372.131 38.9801C422.883 32.2096 487.021 20.1064 514.188 36.3137C541.355 52.521 537.956 62.6637 517.666 66.062C497.376 69.4603 450.834 59.2915 379.348 66.062C307.862 72.8325 196.188 69.4342 152.183 62.6898C108.177 55.9455 89.5868 53.1484 66.7344 69.774C43.8818 86.3734 57.7397 96.5422 57.7397 96.5422C57.7397 96.5422 40.5088 99.9144 40.5088 113.455C40.5088 126.996 30.3638 154.052 142.038 150.68C253.712 147.308 254.078 160.744 258.967 172.638C263.857 184.532 256.091 212.424 197.365 217.078C138.639 221.731 60.799 225.103 47.2548 221.731C47.2548 221.731 111.446 238.539 216.4 236.892C321.354 235.245 384.342 237.807 396.84 199.302C409.339 160.822 372.21 149.817 356.94 146.863C341.67 143.909 317.981 143.909 317.981 143.909C317.981 143.909 298.711 125.898 250.835 128.146C202.934 130.368 148.784 137.139 142.012 123.624C135.239 110.083 138.639 96.5683 175.846 93.17C213.079 89.7979 360.025 84.3344 411.77 102.293C463.489 120.252 473.66 133.767 483.805 154.078C493.95 174.39 516.934 191.643 568.051 186.388C619.168 181.134 636.242 159.986 636.242 159.986C636.242 159.986 707.153 177.736 754.532 147.308C754.532 147.308 822.2 154.078 856.06 130.395C889.921 106.711 893.294 72.8848 872.978 59.3438C862.832 52.5733 846.125 56.8081 846.125 56.8081C846.125 56.8081 836.241 33.1768 800.472 24.2628C764.703 15.3488 707.179 13.4666 675.019 36.4183C675.019 36.4183 636.112 18.7471 615.795 22.1454C615.795 22.1454 598.878 1.83398 554.873 1.83398C510.867 1.83398 470.261 8.60445 470.261 8.60445C470.261 8.60445 460.116 -15.0791 443.199 -18.4513C443.199 -18.4513 441.709 -33.6653 496.591 -36.2009C551.474 -38.7366 586.877 -14.9746 606.409 -13.3277C625.941 -11.6808 669.92 -4.91037 683.464 -25.2218C683.464 -25.2218 734.215 5.23227 764.677 -8.30867C795.138 -21.8496 805.283 -35.3644 805.283 -35.3644C805.283 -35.3644 814.591 -18.4513 833.626 -28.5939C852.661 -38.7366 845.889 -52.2776 845.889 -52.2776C845.889 -52.2776 876.35 -31.9661 913.558 -52.2776C950.791 -72.589 950.791 -113.186 950.791 -113.186C950.791 -113.186 1011.71 -116.558 1048.92 -116.558C1086.13 -116.558 1106.44 -123.328 1150.45 -99.6447" fill="#C39A6B"/>
<path d="M1160.65 -218.141C1160.65 -218.141 1103.12 -228.284 1076.04 -211.371C1060.79 -202.221 1030.28 -219.997 1016.11 -225.147C980.86 -237.982 942.084 -242.766 904.72 -244.726C876.011 -246.243 842.778 -242.243 829.835 -212.547C829.835 -212.547 776.547 -217.54 763.84 -194.144C751.159 -170.748 743.576 -128.452 801.518 -130.988C818.853 -130.151 822.226 -133.523 822.226 -133.523V-119.982C822.226 -119.982 795.164 -119.982 788.392 -109.84C788.392 -109.84 767.919 -154.906 700.329 -149.286C686.863 -147.064 680.117 -143.666 680.117 -143.666C680.117 -143.666 636.112 -187.661 581.987 -170.722C527.837 -153.809 509.429 -101.37 496.643 -93.763C483.858 -86.156 456.717 -84.4569 456.743 -115.747C456.769 -147.038 460.169 -163.951 402.619 -184.263C345.095 -204.574 267.256 -177.492 246.939 -150.436C226.623 -123.381 170.25 -126.753 137.54 -180.89C98.0585 -221.487 19.5651 -213.044 -2.11082 -180.054C-23.7867 -147.064 -26.5582 -79.4117 57.7397 -72.6413C98.0584 -72.6413 117.59 -88.7178 117.59 -88.7178C117.59 -88.7178 131.893 -38.815 189.416 -45.5855C206.333 -45.5855 225.159 -67.4654 225.159 -67.4654C225.159 -67.4654 235.644 -28.6724 297.116 -28.6724C297.116 -28.6724 273.557 -23.6011 277.165 2.61819C280.774 28.8374 321.38 45.7506 372.131 38.9801C422.883 32.2096 487.021 20.1064 514.188 36.3137C541.355 52.521 537.956 62.6637 517.666 66.062C497.376 69.4603 450.834 59.2915 379.348 66.062C307.862 72.8325 196.188 69.4342 152.183 62.6898C108.177 55.9455 89.5868 53.1484 66.7343 69.774C43.8818 86.3734 57.7397 96.5422 57.7397 96.5422C57.7397 96.5422 40.5088 99.9143 40.5088 113.455C40.5088 126.996 30.3638 154.052 142.038 150.68C253.712 147.308 254.078 160.744 258.967 172.638C263.857 184.532 256.091 212.424 197.365 217.078C138.639 221.731 60.7989 225.103 47.2548 221.731C47.2548 221.731 111.446 238.539 216.4 236.892C321.354 235.245 384.342 237.807 396.84 199.302C409.339 160.822 372.21 149.817 356.94 146.863C341.67 143.909 317.981 143.909 317.981 143.909C317.981 143.909 298.711 125.898 250.835 128.146C202.934 130.368 148.784 137.139 142.012 123.624C135.239 110.083 138.639 96.5683 175.846 93.17C213.079 89.7979 360.025 84.3344 411.77 102.293C463.489 120.252 473.66 133.767 483.805 154.078C493.95 174.39 516.934 191.643 568.051 186.388C619.168 181.134 636.242 159.986 636.242 159.986C636.242 159.986 707.153 177.736 754.532 147.308C754.532 147.308 822.2 154.078 856.06 130.395C889.921 106.711 893.294 72.8847 872.978 59.3438C862.832 52.5733 846.125 56.8081 846.125 56.8081C846.125 56.8081 836.241 33.1768 800.472 24.2628C764.703 15.3488 707.179 13.4666 675.019 36.4183C675.019 36.4183 636.112 18.7471 615.795 22.1454C615.795 22.1454 598.878 1.83398 554.873 1.83398C510.868 1.83398 470.261 8.60444 470.261 8.60444C470.261 8.60444 460.116 -15.0791 443.199 -18.4513C443.199 -18.4513 441.709 -33.6653 496.591 -36.2009C551.474 -38.7366 586.877 -14.9746 606.409 -13.3277C625.941 -11.6808 669.92 -4.91037 683.464 -25.2218C683.464 -25.2218 734.215 5.23227 764.677 -8.30868C795.138 -21.8496 805.283 -35.3644 805.283 -35.3644C805.283 -35.3644 814.591 -18.4513 833.626 -28.5939C852.661 -38.7366 845.889 -52.2775 845.889 -52.2775C845.889 -52.2775 876.35 -31.9661 913.558 -52.2775C950.791 -72.589 950.791 -113.186 950.791 -113.186C950.791 -113.186 1011.71 -116.558 1048.92 -116.558C1086.13 -116.558 1106.44 -123.328 1150.45 -99.6447" stroke="#EEECE0" stroke-width="3" stroke-linecap="round" stroke-linejoin="round"/>
<path d="M615.795 22.0665C615.795 22.0665 599.715 27.4515 604.369 38.2999C609.023 49.1484 625.94 42.3779 625.94 42.3779" fill="#C39A6B"/>
<path d="M615.795 22.0665C615.795 22.0665 599.715 27.4515 604.369 38.2999C609.023 49.1484 625.94 42.3779 625.94 42.3779" stroke="#EEECE0" stroke-width="3" stroke-linecap="round" stroke-linejoin="round"/>
<path d="M675.018 36.3665C675.018 36.3665 702.76 56.2073 691.413 88.2037C680.091 120.2 604.709 144.72 576.392 139.231C548.075 133.741 541.329 116.828 541.329 116.828C541.329 116.828 512.776 130.578 496.591 127.101C480.406 123.598 463.489 99.9148 439.8 93.1443C416.111 86.3739 399.193 83.0017 392.421 83.0017" fill="#C39A6B"/>
<path d="M675.018 36.3665C675.018 36.3665 702.76 56.2073 691.413 88.2037C680.091 120.2 604.709 144.72 576.392 139.231C548.075 133.741 541.329 116.828 541.329 116.828C541.329 116.828 512.776 130.578 496.591 127.101C480.406 123.598 463.489 99.9148 439.8 93.1443C416.111 86.3739 399.193 83.0017 392.421 83.0017" stroke="#EEECE0" stroke-width="3" stroke-linecap="round" stroke-linejoin="round"/>
<path d="M815.454 103.286C815.454 103.286 812.081 69.4596 768.076 76.2301C724.07 83.0006 727.313 98.7112 727.313 98.7112C727.313 98.7112 703.78 99.9137 707.153 126.969C710.526 154.025 754.532 147.281 754.532 147.281" fill="#C39A6B"/>
<path d="M815.454 103.286C815.454 103.286 812.081 69.4596 768.076 76.2301C724.07 83.0006 727.313 98.7112 727.313 98.7112C727.313 98.7112 703.78 99.9137 707.153 126.969C710.526 154.025 754.532 147.281 754.532 147.281" stroke="#EEECE0" stroke-width="3" stroke-linecap="round" stroke-linejoin="round"/>
<path d="M353.802 -48.9844C353.802 -48.9844 335.787 -42.1878 335.369 -8.36153C334.95 25.4647 376.838 37.2019 415.117 33.0194" fill="#C39A6B"/>
<path d="M353.802 -48.9844C353.802 -48.9844 335.787 -42.1878 335.369 -8.36153C334.95 25.4647 376.838 37.2019 415.117 33.0194" stroke="#EEECE0" stroke-width="3" stroke-linecap="round" stroke-linejoin="round"/>
<path d="M412.764 22.0663C412.764 22.0663 466.914 24.2883 473.687 28.2617L412.764 22.0663Z" fill="#C39A6B"/>
<path d="M412.764 22.0663C412.764 22.0663 466.914 24.2883 473.687 28.2617" stroke="#EEECE0" stroke-width="3" stroke-linecap="round" stroke-linejoin="round"/>
<path d="M252.875 128.042C252.875 128.042 290.919 140.512 284.147 170.94C280.774 184.48 274.002 184.48 274.002 184.48" fill="#C39A6B"/>
<path d="M252.875 128.042C252.875 128.042 290.919 140.512 284.147 170.94C280.774 184.48 274.002 184.48 274.002 184.48" stroke="#EEECE0" stroke-width="3" stroke-linecap="round" stroke-linejoin="round"/>
<path d="M318.007 143.883C331.917 152.536 343.317 165.92 337.669 183.12C331.996 200.399 318.451 213.365 301.09 218.332" fill="#C39A6B"/>
<path d="M318.007 143.883C331.917 152.536 343.317 165.92 337.669 183.12C331.996 200.399 318.451 213.365 301.09 218.332" stroke="#EEECE0" stroke-width="3" stroke-linecap="round" stroke-linejoin="round"/>
</svg>
