<svg width="1154" height="242" viewBox="0 0 1154 242" fill="none" xmlns="http://www.w3.org/2000/svg">
<path d="M1.99951 457.147C1.99951 457.147 59.5229 467.29 86.6112 450.376C101.855 441.227 132.369 459.003 146.54 464.153C181.786 476.988 220.562 481.772 257.927 483.732C286.636 485.248 319.869 481.249 332.812 451.553C332.812 451.553 386.099 456.546 398.807 433.15C411.488 409.754 419.071 367.458 361.129 369.993C343.793 369.157 340.42 372.529 340.42 372.529V358.988C340.42 358.988 367.482 358.988 374.255 348.845C374.255 348.845 394.728 393.912 462.318 388.292C475.783 386.07 482.529 382.672 482.529 382.672C482.529 382.672 526.535 426.667 580.659 409.728C634.81 392.814 653.217 340.376 666.003 332.769C678.789 325.162 705.93 323.463 705.903 354.753C705.877 386.044 702.478 402.957 760.028 423.268C817.551 443.58 895.391 416.498 915.707 389.442C936.023 362.386 992.396 365.759 1025.11 419.896C1064.59 460.493 1143.08 452.049 1164.76 419.06C1186.43 386.07 1189.2 318.418 1104.91 311.647C1064.59 311.647 1045.06 327.724 1045.06 327.724C1045.06 327.724 1030.75 277.821 973.23 284.591C956.313 284.591 937.487 306.471 937.487 306.471C937.487 306.471 927.003 267.678 865.531 267.678C865.531 267.678 889.089 262.607 885.481 236.388C881.873 210.168 841.266 193.255 790.515 200.026C739.764 206.796 675.625 218.899 648.458 202.692C621.292 186.485 624.691 176.342 644.981 172.944C665.271 169.546 711.812 179.714 783.298 172.944C854.784 166.173 966.458 169.572 1010.46 176.316C1054.47 183.06 1073.06 185.857 1095.91 169.232C1118.76 152.632 1104.91 142.464 1104.91 142.464C1104.91 142.464 1122.14 139.092 1122.14 125.551C1122.14 112.01 1132.28 84.9539 1020.61 88.326C908.935 91.6982 908.569 78.2618 903.679 66.3677C898.79 54.4736 906.555 26.5814 965.282 21.9283C1024.01 17.2753 1101.85 13.9031 1115.39 17.2753C1115.39 17.2753 1051.2 0.466698 946.247 2.11357C841.293 3.76044 778.304 1.19864 765.806 39.7041C753.308 78.1834 790.437 89.1887 805.706 92.1426C820.976 95.0965 844.665 95.0965 844.665 95.0965C844.665 95.0965 863.936 113.108 911.811 110.859C959.712 108.637 1013.86 101.867 1020.63 115.382C1027.41 128.923 1024.01 142.438 986.801 145.836C949.567 149.208 802.621 154.671 750.876 136.713C699.157 118.754 688.986 105.239 678.841 84.9277C668.696 64.6163 645.713 47.3633 594.596 52.6176C543.478 57.872 526.404 79.0199 526.404 79.0199C526.404 79.0199 455.493 61.2703 408.115 91.6982C408.115 91.6982 340.446 84.9277 306.586 108.611C272.726 132.295 269.353 166.121 289.669 179.662C299.814 186.433 316.522 182.198 316.522 182.198C316.522 182.198 326.406 205.829 362.175 214.743C397.944 223.657 455.467 225.539 487.628 202.588C487.628 202.588 526.535 220.259 546.851 216.86C546.851 216.86 563.768 237.172 607.774 237.172C651.779 237.172 692.385 230.401 692.385 230.401C692.385 230.401 702.53 254.085 719.448 257.457C719.448 257.457 720.938 272.671 666.055 275.207C611.173 277.742 575.77 253.98 556.238 252.334C536.706 250.687 492.727 243.916 479.183 264.228C479.183 264.228 428.431 233.774 397.97 247.315C367.509 260.855 357.364 274.37 357.364 274.37C357.364 274.37 348.055 257.457 329.02 267.6C309.985 277.742 316.757 291.283 316.757 291.283C316.757 291.283 286.296 270.972 249.089 291.283C211.855 311.595 211.855 352.192 211.855 352.192C211.855 352.192 150.933 355.564 113.726 355.564C76.5185 355.564 56.2023 362.334 12.1968 338.651" fill="#C39A6B"/>
<path d="M1.99951 457.147C1.99951 457.147 59.5229 467.29 86.6112 450.376C101.855 441.227 132.369 459.003 146.54 464.153C181.786 476.988 220.562 481.772 257.927 483.732C286.636 485.248 319.869 481.249 332.812 451.553C332.812 451.553 386.099 456.546 398.807 433.15C411.488 409.754 419.071 367.458 361.129 369.993C343.793 369.157 340.42 372.529 340.42 372.529V358.988C340.42 358.988 367.482 358.988 374.255 348.846C374.255 348.846 394.728 393.912 462.318 388.292C475.783 386.07 482.529 382.672 482.529 382.672C482.529 382.672 526.535 426.667 580.659 409.728C634.81 392.814 653.217 340.376 666.003 332.769C678.789 325.162 705.93 323.463 705.903 354.753C705.877 386.044 702.478 402.957 760.028 423.268C817.551 443.58 895.391 416.498 915.707 389.442C936.023 362.386 992.396 365.759 1025.11 419.896C1064.59 460.493 1143.08 452.049 1164.76 419.06C1186.43 386.07 1189.2 318.418 1104.91 311.647C1064.59 311.647 1045.06 327.724 1045.06 327.724C1045.06 327.724 1030.75 277.821 973.23 284.591C956.313 284.591 937.487 306.471 937.487 306.471C937.487 306.471 927.002 267.678 865.531 267.678C865.531 267.678 889.089 262.607 885.481 236.388C881.873 210.168 841.266 193.255 790.515 200.026C739.764 206.796 675.625 218.899 648.458 202.692C621.292 186.485 624.691 176.342 644.981 172.944C665.271 169.546 711.813 179.714 783.298 172.944C854.784 166.173 966.458 169.572 1010.46 176.316C1054.47 183.06 1073.06 185.857 1095.91 169.232C1118.76 152.632 1104.91 142.464 1104.91 142.464C1104.91 142.464 1122.14 139.092 1122.14 125.551C1122.14 112.01 1132.28 84.9539 1020.61 88.326C908.935 91.6982 908.569 78.2618 903.679 66.3677C898.79 54.4736 906.555 26.5814 965.282 21.9283C1024.01 17.2753 1101.85 13.9031 1115.39 17.2753C1115.39 17.2753 1051.2 0.466698 946.247 2.11357C841.293 3.76044 778.304 1.19864 765.806 39.7041C753.308 78.1834 790.437 89.1887 805.706 92.1426C820.976 95.0965 844.665 95.0965 844.665 95.0965C844.665 95.0965 863.936 113.108 911.811 110.859C959.712 108.637 1013.86 101.867 1020.63 115.382C1027.41 128.923 1024.01 142.438 986.801 145.836C949.567 149.208 802.621 154.671 750.876 136.713C699.157 118.754 688.986 105.239 678.841 84.9277C668.696 64.6163 645.713 47.3633 594.596 52.6176C543.478 57.872 526.404 79.0199 526.404 79.0199C526.404 79.0199 455.493 61.2703 408.115 91.6982C408.115 91.6982 340.446 84.9277 306.586 108.611C272.726 132.295 269.353 166.121 289.669 179.662C299.814 186.433 316.522 182.198 316.522 182.198C316.522 182.198 326.406 205.829 362.175 214.743C397.944 223.657 455.467 225.539 487.628 202.588C487.628 202.588 526.535 220.259 546.851 216.86C546.851 216.86 563.768 237.172 607.774 237.172C651.779 237.172 692.385 230.401 692.385 230.401C692.385 230.401 702.53 254.085 719.447 257.457C719.447 257.457 720.938 272.671 666.055 275.207C611.173 277.742 575.77 253.98 556.238 252.334C536.706 250.687 492.727 243.916 479.183 264.228C479.183 264.228 428.431 233.774 397.97 247.315C367.509 260.855 357.364 274.37 357.364 274.37C357.364 274.37 348.055 257.457 329.02 267.6C309.985 277.742 316.757 291.283 316.757 291.283C316.757 291.283 286.296 270.972 249.089 291.283C211.855 311.595 211.855 352.192 211.855 352.192C211.855 352.192 150.933 355.564 113.726 355.564C76.5185 355.564 56.2023 362.334 12.1968 338.651" stroke="white" stroke-width="3" stroke-linecap="round" stroke-linejoin="round"/>
<path d="M546.851 216.939C546.851 216.939 562.932 211.554 558.277 200.706C553.623 189.858 536.706 196.628 536.706 196.628" fill="#C39A6B"/>
<path d="M546.851 216.939C546.851 216.939 562.932 211.554 558.277 200.706C553.623 189.858 536.706 196.628 536.706 196.628" stroke="white" stroke-width="3" stroke-linecap="round" stroke-linejoin="round"/>
<path d="M487.628 202.639C487.628 202.639 459.886 182.799 471.234 150.802C482.556 118.806 557.938 94.2857 586.255 99.7752C614.572 105.265 621.318 122.178 621.318 122.178C621.318 122.178 649.87 108.428 666.055 111.905C682.24 115.407 699.158 139.091 722.847 145.862C746.536 152.632 763.453 156.004 770.225 156.004" fill="#C39A6B"/>
<path d="M487.628 202.639C487.628 202.639 459.886 182.799 471.234 150.802C482.556 118.806 557.938 94.2857 586.255 99.7752C614.572 105.265 621.318 122.178 621.318 122.178C621.318 122.178 649.87 108.428 666.055 111.905C682.24 115.407 699.158 139.091 722.847 145.862C746.536 152.632 763.453 156.004 770.225 156.004" stroke="white" stroke-width="3" stroke-linecap="round" stroke-linejoin="round"/>
<path d="M347.192 135.72C347.192 135.72 350.565 169.546 394.571 162.776C438.576 156.005 435.334 140.295 435.334 140.295C435.334 140.295 458.866 139.092 455.493 112.036C452.12 84.9807 408.115 91.725 408.115 91.725" fill="#C39A6B"/>
<path d="M347.192 135.72C347.192 135.72 350.565 169.546 394.571 162.776C438.576 156.005 435.334 140.295 435.334 140.295C435.334 140.295 458.866 139.092 455.493 112.036C452.12 84.9807 408.115 91.725 408.115 91.725" stroke="white" stroke-width="3" stroke-linecap="round" stroke-linejoin="round"/>
<path d="M808.844 287.99C808.844 287.99 826.859 281.194 827.278 247.367C827.696 213.541 785.809 201.804 747.529 205.986" fill="#C39A6B"/>
<path d="M808.844 287.99C808.844 287.99 826.859 281.194 827.278 247.367C827.696 213.541 785.809 201.804 747.529 205.986" stroke="white" stroke-width="3" stroke-linecap="round" stroke-linejoin="round"/>
<path d="M749.882 216.94C749.882 216.94 695.732 214.718 688.96 210.744L749.882 216.94Z" fill="#C39A6B"/>
<path d="M749.882 216.94C749.882 216.94 695.732 214.718 688.96 210.744" stroke="white" stroke-width="3" stroke-linecap="round" stroke-linejoin="round"/>
<path d="M909.772 110.963C909.772 110.963 871.728 98.4943 878.5 68.0663C881.873 54.5254 888.645 54.5254 888.645 54.5254" fill="#C39A6B"/>
<path d="M909.772 110.963C909.772 110.963 871.728 98.4943 878.5 68.0663C881.873 54.5254 888.645 54.5254 888.645 54.5254" stroke="white" stroke-width="3" stroke-linecap="round" stroke-linejoin="round"/>
<path d="M844.64 95.1229C830.729 86.4703 819.329 73.0862 824.977 55.8855C830.651 38.6064 844.195 25.6406 861.557 20.6738" fill="#C39A6B"/>
<path d="M844.64 95.1229C830.729 86.4703 819.329 73.0862 824.977 55.8855C830.651 38.6064 844.195 25.6406 861.557 20.6738" stroke="white" stroke-width="3" stroke-linecap="round" stroke-linejoin="round"/>
</svg>
