<svg width="702" height="561" viewBox="0 0 702 561" fill="none" xmlns="http://www.w3.org/2000/svg">
<path d="M242.438 308.335C243.625 308.602 260.405 312.103 274.364 297.774L289.359 304.364L303.34 317.3L319.684 324.581C319.684 324.581 358.565 336.324 373.55 312.032C373.55 312.032 373.315 303.194 353.587 298.708C333.859 294.223 311.169 261.361 311.169 261.361C311.169 261.361 277.827 213.606 247.697 202.828C217.568 192.05 202.301 177.428 156.961 181.707C111.621 185.986 94.255 194.682 73.3179 211.764C73.3179 211.764 45.7428 230.018 45.5875 281.519C45.5875 281.519 10.4107 296.741 12.6126 344.158C14.8145 391.576 37.6376 413.099 62.1821 435.94C86.7266 458.782 166.918 488.042 166.918 488.042L196.62 496.618L214.676 510.993L239.533 525.84L265.944 533.838L294.103 536.395L322.419 538.232L337.903 540.95L363.312 552.914C363.312 552.914 371.009 542.257 364.565 533.587C358.122 524.917 355.78 520.956 355.78 520.956C355.78 520.956 394.688 516.863 395.288 516.902C395.888 516.941 417.478 517.897 417.478 517.897L446.632 524.645C446.632 524.645 452.683 518.848 447.539 510.675C442.395 502.502 434.113 492.364 434.113 492.364L463.913 503.819C463.913 503.819 472.515 504.869 471.832 495.604C471.15 486.34 467.818 470.017 452.585 462.458C452.585 462.458 455.135 440.01 450.56 436.492C445.986 432.974 444.851 419.681 415.441 412.965L379.726 414.25C379.726 414.25 362.056 390.252 343.642 387.248C325.229 384.244 319.369 388.086 319.369 388.086C319.369 388.086 305.638 368.358 288.793 362.441C271.947 356.524 262.025 355.293 262.025 355.293L253.305 326.258L242.454 308.32L242.438 308.335Z" fill="#431D31"/>
<path d="M185.524 271.659C185.524 271.659 250.968 283.919 262.015 355.999C262.015 355.999 296.185 355.804 318.831 389.345C318.831 389.345 349.64 374.506 380.142 414.968C380.142 414.968 461.478 400.202 452.707 461.364" stroke="#C39A6B" stroke-width="3" stroke-linecap="round" stroke-linejoin="round"/>
<path d="M251.987 407.478C251.987 407.478 298.923 400.097 327.635 438.84" stroke="#C39A6B" stroke-width="3" stroke-linecap="round" stroke-linejoin="round"/>
<path d="M314.271 442.782C314.271 442.782 364.564 425.193 391.123 447.768" stroke="#C39A6B" stroke-width="3" stroke-linecap="round" stroke-linejoin="round"/>
<path d="M380.937 456.724C387.278 448.646 399.81 446.777 409.302 447.789C426.524 449.621 443.361 455.664 457.266 466.104C467.635 473.886 478.782 492.637 468.319 504.875C465.713 507.912 456.083 496.068 429.07 492.712" stroke="#C39A6B" stroke-width="3" stroke-linecap="round" stroke-linejoin="round"/>
<path d="M354.999 521.803C355.899 521.861 372.559 519.641 392.484 517.919C412.408 516.196 427.196 519.869 443.12 524.362C455.931 527.97 445.48 506.789 442.923 503.211C431.226 486.837 414.263 486.149 395.842 483.494L395.23 483.407C385.197 481.931 375.811 484.416 366.499 487.954" stroke="#C39A6B" stroke-width="3" stroke-linecap="round" stroke-linejoin="round"/>
<path d="M379.161 484.093C379.161 484.093 356.688 463.275 306.029 471.113" stroke="#C39A6B" stroke-width="3" stroke-linecap="round" stroke-linejoin="round"/>
<path d="M234.625 437.615C235.544 437.373 284.8 442.124 315.425 469.946" stroke="#C39A6B" stroke-width="3" stroke-linecap="round" stroke-linejoin="round"/>
<path d="M306.535 514.137C306.535 514.137 337.164 504.999 356.387 523.385C375.609 541.771 365.248 553.429 363.129 553.593C361.01 553.757 345.823 542.552 333.937 540.575C322.051 538.598 316.668 538.249 291.217 537.201C265.766 536.152 231.832 531.237 196.534 496.78C196.534 496.78 59.0121 468.006 21.5918 384.899C-2.2095 332.034 25.9348 262.496 82.7406 281.828" stroke="#C39A6B" stroke-width="3" stroke-linecap="round" stroke-linejoin="round"/>
<path d="M258.667 497.51C258.667 497.51 295.782 488.096 318.171 512.146" stroke="#C39A6B" stroke-width="3" stroke-linecap="round" stroke-linejoin="round"/>
<path d="M219.538 466.407C221.637 466.543 249.386 469.311 268.996 495.657" stroke="#C39A6B" stroke-width="3" stroke-linecap="round" stroke-linejoin="round"/>
<path d="M275.565 297.146C275.565 297.146 265.023 311.586 242.968 309.012" stroke="#C39A6B" stroke-width="3" stroke-linecap="round" stroke-linejoin="round"/>
<path d="M266.324 291.549C266.324 291.549 275.795 299.971 288.671 305.012C290.587 305.771 293.173 309.89 294.745 311.309C300.045 316.112 306.025 320.198 312.482 323.282C323.567 328.572 336.332 329.956 348.355 327.625C355.305 326.283 375.507 321.262 374.338 311.426C373.987 308.531 371.343 306.535 368.803 305.132C359.407 299.952 348.673 297.796 339.311 292.586C328.418 286.532 322.332 276.266 315.112 266.61C309.876 259.605 304.49 252.717 298.753 246.108C284.551 229.746 268.234 215.199 249.461 204.285C235.15 195.961 219.615 189.875 203.494 186.227C131.671 169.935 44.4057 194.743 46.1141 282.261" stroke="#C39A6B" stroke-width="3" stroke-linecap="round" stroke-linejoin="round"/>
<g clip-path="url(#clip0_1017_2801)">
<path d="M199.358 289.713L192.306 294.791L175.369 303.254L190.583 343.943L247.371 422.804L281.137 450.135L294.533 436.754L301.585 431.676" fill="white"/>
<path d="M199.358 289.713L192.306 294.791L175.369 303.254L190.583 343.943L247.371 422.804L281.137 450.135L294.533 436.754L301.585 431.676" stroke="#C39A6B" stroke-width="3" stroke-linecap="round" stroke-linejoin="round"/>
<path d="M587.279 191.753C591.824 188.739 597.558 188.898 601.859 191.704L626.922 175.086L623.045 169.239L634.231 161.825L638.108 167.672L680.822 139.353C680.12 135.435 681.219 131.366 683.857 128.32L676.666 117.479C672.831 118.724 668.647 118.151 665.325 115.984L622.611 144.302L626.488 150.149L615.302 157.563L611.425 151.716L586.362 168.335C587.266 173.389 585.188 178.718 580.634 181.738C576.081 184.758 570.355 184.593 566.055 181.787L561.517 184.796L577.015 208.165L581.552 205.157C580.648 200.102 582.726 194.773 587.279 191.753Z" fill="#F9007F" stroke="#431D31" stroke-width="3" stroke-linecap="round" stroke-linejoin="round"/>
<path d="M577.016 208.161L561.525 184.789L257.48 386.318L272.971 409.69L577.016 208.161Z" fill="#C39A6B" stroke="#431D31" stroke-width="3" stroke-linecap="round" stroke-linejoin="round"/>
<path d="M559.11 152.26C563.574 149.132 565.519 143.738 564.48 138.719L589.094 121.476L593.117 127.217L604.099 119.519L600.075 113.778L642.018 84.3884C645.404 86.4725 649.598 86.9401 653.393 85.5875L660.851 96.2363C658.288 99.3511 657.293 103.445 658.099 107.337L616.157 136.726L612.133 130.985L601.152 138.683L605.175 144.424L580.562 161.668C576.199 158.981 570.47 158.965 566.007 162.093C561.543 165.221 559.598 170.614 560.637 175.634L556.181 178.756L540.1 155.807L544.555 152.685C548.918 155.372 554.647 155.387 559.119 152.254L559.11 152.26Z" fill="#F9007F" stroke="#431D31" stroke-width="3" stroke-linecap="round" stroke-linejoin="round"/>
<path d="M540.098 155.804L241.556 364.98L257.635 387.928L556.177 178.752L540.098 155.804Z" fill="#C39A6B" stroke="#431D31" stroke-width="3" stroke-linecap="round" stroke-linejoin="round"/>
<path d="M537.652 122.734C542.033 119.492 543.835 114.054 542.67 109.064L566.828 91.1881L570.997 96.8241L581.78 88.8499L577.61 83.2139L618.782 52.7535C622.217 54.7526 626.424 55.1003 630.182 53.663L637.917 64.1132C635.437 67.2916 634.55 71.4172 635.447 75.2813L594.276 105.742L590.107 100.106L579.324 108.08L583.493 113.716L559.336 131.592C554.905 129.016 549.173 129.15 544.791 132.392C540.41 135.634 538.608 141.072 539.765 146.067L535.391 149.303L518.726 126.775L523.099 123.539C527.53 126.116 533.262 125.981 537.644 122.739L537.652 122.734Z" fill="#F9007F" stroke="#431D31" stroke-width="3" stroke-linecap="round" stroke-linejoin="round"/>
<path d="M535.406 149.298L518.74 126.773L225.701 343.591L242.366 366.116L535.406 149.298Z" fill="#C39A6B" stroke="#431D31" stroke-width="3" stroke-linecap="round" stroke-linejoin="round"/>
<path d="M516.274 93.1486C520.574 89.7934 522.241 84.3047 520.943 79.3366L544.651 60.8354L548.966 66.3662L559.545 58.1081L555.229 52.5772L595.629 21.0457C599.123 22.9538 603.331 23.2016 607.055 21.6656L615.057 31.9229C612.66 35.165 611.877 39.3146 612.879 43.1527L572.479 74.6843L568.164 69.1535L557.585 77.4117L561.901 82.9425L538.193 101.444C533.686 98.9837 527.974 99.2649 523.665 102.626C519.357 105.987 517.699 111.47 518.996 116.438L514.705 119.787L497.455 97.68L501.746 94.3307C506.253 96.7907 511.966 96.5095 516.274 93.1486Z" fill="#F9007F" stroke="#431D31" stroke-width="3" stroke-linecap="round" stroke-linejoin="round"/>
<path d="M209.909 322.124L227.164 344.227L514.695 119.765L497.44 97.6624L209.909 322.124Z" fill="#C39A6B" stroke="#431D31" stroke-width="3" stroke-linecap="round" stroke-linejoin="round"/>
<path d="M206.408 294.197L199.358 289.712L182.412 298.18L197.627 338.869L254.415 417.731L288.181 445.062L301.585 431.675L299.566 423.567" fill="white"/>
<path d="M206.408 294.197L199.358 289.712L182.412 298.18L197.627 338.869L254.415 417.731L288.181 445.062L301.585 431.675L299.566 423.567" stroke="#C39A6B" stroke-width="3" stroke-linecap="round" stroke-linejoin="round"/>
<path d="M523.078 210.972L478.901 149.623L213.208 340.947L257.385 402.296L523.078 210.972Z" fill="white" stroke="#C39A6B" stroke-width="3" stroke-linecap="round" stroke-linejoin="round"/>
<path d="M290.347 430.205L257.385 402.295L523.078 210.972L551.982 241.803L290.347 430.205Z" fill="white" stroke="#C39A6B" stroke-width="3" stroke-linecap="round" stroke-linejoin="round"/>
<path d="M197.19 300.835L213.208 340.946L478.9 149.622L458.825 112.434L197.19 300.835Z" fill="white" stroke="#C39A6B" stroke-width="3" stroke-linecap="round" stroke-linejoin="round"/>
<path d="M441.333 131.389L459.512 165.926L500.259 222.512L527.251 250.703" stroke="#C39A6B" stroke-width="3" stroke-linecap="round" stroke-linejoin="round"/>
<path d="M432.318 137.881L450.497 172.418L491.244 229.004L518.235 257.195" stroke="#C39A6B" stroke-width="3" stroke-linecap="round" stroke-linejoin="round"/>
<path d="M228.534 284.623L246.713 319.16L287.46 375.746L314.452 403.938" stroke="#C39A6B" stroke-width="3" stroke-linecap="round" stroke-linejoin="round"/>
<path d="M216.503 286.928L236.579 324.117L280.756 385.466L309.661 416.297" stroke="#C39A6B" stroke-width="3" stroke-linecap="round" stroke-linejoin="round"/>
<path d="M257.385 402.295L254.415 417.73L247.371 422.802" stroke="#C39A6B" stroke-width="3" stroke-linecap="round" stroke-linejoin="round"/>
<path d="M290.347 430.205L288.181 445.062L281.137 450.134" stroke="#C39A6B" stroke-width="3" stroke-linecap="round" stroke-linejoin="round"/>
<path d="M213.208 340.946L197.627 338.869L190.583 343.941" stroke="#C39A6B" stroke-width="3" stroke-linecap="round" stroke-linejoin="round"/>
<path d="M197.19 300.836L182.412 298.181L175.369 303.253" stroke="#C39A6B" stroke-width="3" stroke-linecap="round" stroke-linejoin="round"/>
</g>
<defs>
<clipPath id="clip0_1017_2801">
<rect width="184" height="529.8" fill="white" transform="translate(593.931) rotate(54.2426)"/>
</clipPath>
</defs>
</svg>
