<svg width="883" height="584" viewBox="0 0 883 584" fill="none" xmlns="http://www.w3.org/2000/svg">
<g clip-path="url(#clip0_1017_2800)">
<path d="M468.381 84.7288C468.381 84.7288 457.52 119.166 496.589 129.63C496.589 129.63 494.462 190.929 525.132 195.3" stroke="#C39A6B" stroke-width="3" stroke-linecap="round" stroke-linejoin="round"/>
<path d="M527.456 182.617C527.456 182.617 517.958 204.337 536.46 222.347C554.961 240.357 585.796 251.635 632.268 269.757C678.74 287.88 724.854 307.357 769.138 309.666" stroke="#C39A6B" stroke-width="3" stroke-linecap="round" stroke-linejoin="round"/>
<path d="M405.97 106.008C405.97 106.008 400.659 153.057 465.272 149.153" stroke="#C39A6B" stroke-width="3" stroke-linecap="round" stroke-linejoin="round"/>
<path d="M470.959 133.917C470.959 133.917 457.289 154.321 471.788 171.603C486.287 188.886 510.988 199.417 510.988 199.417" stroke="#C39A6B" stroke-width="3" stroke-linecap="round" stroke-linejoin="round"/>
<path d="M762.983 187.8C738.861 175.775 701.023 170.457 650.263 178.897C566.142 192.879 560.779 167.892 542.449 121.074C524.119 74.2564 482.278 60.794 452.266 61.9239C433.218 62.6363 416.402 56.5965 406.67 52.0781C401.961 49.9049 396.667 53.518 396.945 58.7034C397.385 66.7693 400.14 77.7281 410.259 86.5998L410.62 86.8953C410.62 86.8953 397.182 88.8315 379.049 96.0582C365.254 101.55 341.136 97.9426 325.588 90.8843C319.263 88.0165 312.394 93.5753 313.884 100.348C316.212 110.868 323.959 123.593 346.399 130.215C346.399 130.215 323.603 129.525 305.711 126.2C299.021 124.964 294.012 132.147 297.454 138.015C307.886 155.765 336.068 179.584 402.77 161.926C410.994 168.708 426.96 174.407 457.827 169.326L459.477 168.847C459.64 171.389 460.182 174.897 461.615 178.972L461.546 178.992C461.546 178.992 430.117 204.551 402.88 252.272C402.88 252.272 401.114 267.958 422.373 288.957C434.437 300.867 436.49 323.2 436.022 340.298C435.757 350.032 447.826 354.76 454.266 347.462C463.547 336.938 471.842 320.858 468.689 298.269C466.281 281.005 461.82 269.728 457.181 262.368C483.439 262.916 497.491 227.965 497.491 227.965C497.491 227.965 515.58 256.839 540.317 254.088C540.317 254.088 542.574 280.615 581.409 294.625C620.243 308.635 637.556 342.163 562.236 357.068L560.834 357.025C559.464 354.458 557.508 352.161 554.768 350.392C541.9 342.093 482.214 327.668 468.28 368.676C465.88 375.752 470.618 383.283 478.05 384.103C491.622 385.606 513.077 389.736 525.992 401.086C545.982 418.664 575.965 407.435 575.965 407.435C575.965 407.435 718.571 451.371 777.064 337.061C777.064 337.061 835.61 318.806 846.567 284.654C857.524 250.501 841.761 191.88 780.493 176.789C780.493 176.789 771.254 186.425 764.645 188.656L762.964 187.78L762.983 187.8Z" fill="#431D31"/>
<path d="M792.534 218.189C783.028 188.713 734.395 164.912 650.274 178.894C566.153 192.876 560.79 167.889 542.461 121.071C524.131 74.2533 482.29 60.7909 452.278 61.9208C433.23 62.6332 416.414 56.5934 406.682 52.075C401.973 49.9018 396.678 53.5149 396.957 58.7003C397.827 74.847 408.012 102.526 467.702 102.002" stroke="#C39A6B" stroke-width="3" stroke-linecap="round" stroke-linejoin="round"/>
<path d="M468.381 84.7288C468.381 84.7288 457.52 119.166 496.589 129.63C496.589 129.63 494.462 190.929 525.132 195.3" stroke="#C39A6B" stroke-width="3" stroke-linecap="round" stroke-linejoin="round"/>
<path d="M527.456 182.615C527.456 182.615 517.958 204.335 536.46 222.345C554.961 240.355 585.796 251.633 632.268 269.755C678.74 287.878 724.854 307.355 769.138 309.664" stroke="#C39A6B" stroke-width="3" stroke-linecap="round" stroke-linejoin="round"/>
<path d="M410.632 86.8914C410.632 86.8914 397.194 88.8277 379.06 96.0544C365.266 101.547 341.148 97.9387 325.6 90.8804C319.275 88.0127 312.406 93.5714 313.896 100.344C317.773 117.882 336.731 141.564 413.752 132.819" stroke="#C39A6B" stroke-width="3" stroke-linecap="round" stroke-linejoin="round"/>
<path d="M405.97 106.008C405.97 106.008 400.659 153.057 465.272 149.153" stroke="#C39A6B" stroke-width="3" stroke-linecap="round" stroke-linejoin="round"/>
<path d="M470.959 133.917C470.959 133.917 457.289 154.321 471.788 171.603C486.287 188.886 510.988 199.417 510.988 199.417" stroke="#C39A6B" stroke-width="3" stroke-linecap="round" stroke-linejoin="round"/>
<path d="M346.41 130.211C346.41 130.211 323.615 129.521 305.726 126.207C299.036 124.971 294.027 132.154 297.469 138.023C307.901 155.773 334.729 179.972 401.443 162.311" stroke="#C39A6B" stroke-width="3" stroke-linecap="round" stroke-linejoin="round"/>
<path d="M394.135 147.994C394.135 147.994 397.514 179.249 457.851 169.318" stroke="#C39A6B" stroke-width="3" stroke-linecap="round" stroke-linejoin="round"/>
<path d="M459.576 164.403C459.576 164.403 453.598 201.526 517.585 222.146" stroke="#C39A6B" stroke-width="3" stroke-linecap="round" stroke-linejoin="round"/>
<path d="M461.569 178.984C461.569 178.984 430.14 204.543 402.903 252.264C402.903 252.264 401.137 267.95 422.396 288.949C434.46 300.859 436.513 323.192 436.045 340.29C435.78 350.024 447.85 354.752 454.289 347.454C463.571 336.93 471.865 320.85 468.712 298.261C462.27 252.096 441.188 248.733 441.188 248.733" stroke="#C39A6B" stroke-width="3" stroke-linecap="round" stroke-linejoin="round"/>
<path d="M457.219 262.37C483.477 262.917 497.529 227.967 497.529 227.967C497.529 227.967 515.618 256.841 540.355 254.09C540.355 254.09 542.612 280.617 581.447 294.627C620.281 308.636 637.594 342.165 562.274 357.07" stroke="#C39A6B" stroke-width="3" stroke-linecap="round" stroke-linejoin="round"/>
<path d="M562.169 383.006C562.169 383.006 569.006 359.531 554.814 350.378C541.946 342.079 482.26 327.654 468.326 368.662C465.926 375.738 470.664 383.27 478.096 384.09C491.669 385.592 513.123 389.723 526.038 401.073C546.028 418.65 576.012 407.421 576.012 407.421C576.012 407.421 718.617 451.357 777.11 337.048C777.11 337.048 835.657 318.792 846.613 284.64C857.57 250.488 841.808 191.867 780.539 176.775C780.539 176.775 771.3 186.412 764.691 188.643" stroke="#C39A6B" stroke-width="3" stroke-linecap="round" stroke-linejoin="round"/>
</g>
<g clip-path="url(#clip1_1017_2800)">
<path d="M363.51 409.386C368.542 407.282 374.143 408.519 377.838 412.084L405.583 400.484L402.876 394.012L415.259 388.838L417.965 395.31L465.249 375.544C465.297 371.564 467.143 367.774 470.307 365.28L465.287 353.278C461.286 353.779 457.285 352.428 454.431 349.674L407.147 369.44L409.854 375.912L397.472 381.086L394.765 374.614L367.02 386.214C366.956 391.349 363.911 396.191 358.87 398.299C353.83 400.407 348.237 399.167 344.543 395.601L339.52 397.701L350.338 423.571L355.36 421.471C355.425 416.336 358.469 411.495 363.51 409.386Z" fill="#F9007F" stroke="#431D31" stroke-width="3" stroke-linecap="round" stroke-linejoin="round"/>
<path d="M350.348 423.561L339.536 397.689L2.9738 538.341L13.7857 564.212L350.348 423.561Z" fill="#C39A6B" stroke="#431D31" stroke-width="3" stroke-linecap="round" stroke-linejoin="round"/>
</g>
<defs>
<clipPath id="clip0_1017_2800">
<rect width="503" height="427" fill="white" transform="translate(280 85.2012) rotate(-16.1844)"/>
</clipPath>
<clipPath id="clip1_1017_2800">
<rect width="49.95" height="501.36" fill="white" transform="translate(454.754 327) rotate(65.0997)"/>
</clipPath>
</defs>
</svg>
