<?xml version="1.0" encoding="utf-8"?>
<!-- Generator: Adobe Illustrator 26.3.1, SVG Export Plug-In . SVG Version: 6.00 Build 0)  -->
<svg version="1.1" id="圖層_1" xmlns="http://www.w3.org/2000/svg" xmlns:xlink="http://www.w3.org/1999/xlink" x="0px" y="0px"
	 viewBox="0 0 1047.1 1046.9" style="enable-background:new 0 0 1047.1 1046.9;" xml:space="preserve">
<style type="text/css">
	.st0{fill:#ECEADE;stroke:#C39A6B;stroke-width:2.7947;stroke-miterlimit:10;}
	.st1{fill:#C39A6B;}
</style>
<g>
	<circle class="st0" cx="523.5" cy="523.4" r="514.2"/>
	<circle class="st1" cx="1031.7" cy="447.5" r="15.4"/>
	<path class="st1" d="M1022.5,380.9c0.1-0.1,0.2-0.3,0.3-0.4c0-0.1,0.1-0.1,0.1-0.2c0.1-0.1,0.1-0.3,0.2-0.4c0-0.1,0.1-0.2,0.1-0.3
		c0.1-0.1,0.1-0.2,0.1-0.3c0-0.1,0.1-0.2,0.1-0.3c0,0,0-0.1,0-0.1c0.1-0.2,0.1-0.4,0.2-0.6l5.4-22c1-4-1.5-8-5.5-9c-4-1-8,1.5-9,5.5
		l-2.4,9.9l-7.6-6.9c-3.1-2.8-7.8-2.5-10.5,0.5c-2.8,3.1-2.5,7.8,0.5,10.5l16.8,15.2c0.1,0.1,0.2,0.2,0.3,0.2
		c0.1,0.1,0.2,0.2,0.3,0.2c0.1,0.1,0.2,0.1,0.2,0.2c0.1,0.1,0.2,0.2,0.4,0.2c0.1,0,0.1,0.1,0.2,0.1c0.1,0.1,0.3,0.2,0.4,0.2
		c0.1,0,0.1,0.1,0.2,0.1c0.2,0.1,0.3,0.1,0.5,0.2c0.1,0,0.1,0,0.2,0.1c0.2,0.1,0.3,0.1,0.5,0.2c0,0,0.1,0,0.1,0c0,0,0,0,0.1,0
		c0.2,0,0.3,0.1,0.5,0.1c0.1,0,0.1,0,0.2,0c0.2,0,0.3,0,0.5,0c0.1,0,0.1,0,0.2,0c0.3,0,0.5,0,0.8,0c0,0,0.1,0,0.1,0
		c0.2,0,0.4,0,0.6-0.1c0.1,0,0.1,0,0.2,0c0.2,0,0.4-0.1,0.6-0.1c0.1,0,0.1,0,0.2,0c0.2-0.1,0.5-0.1,0.7-0.2c0,0,0.1,0,0.1,0
		c0.2-0.1,0.4-0.2,0.5-0.3c0.1,0,0.2-0.1,0.3-0.1c0.1-0.1,0.3-0.2,0.4-0.2c0.1-0.1,0.2-0.1,0.2-0.2c0.2-0.1,0.4-0.3,0.5-0.4
		c0,0,0,0,0.1,0c0.2-0.2,0.4-0.4,0.6-0.5c0,0,0,0,0,0c0,0,0.1-0.1,0.1-0.1c0.1-0.1,0.2-0.3,0.3-0.4
		C1022.4,381,1022.4,381,1022.5,380.9z"/>
	<circle class="st1" cx="711.9" cy="45.4" r="15.4"/>
	<path class="st1" d="M649.6,20.1c-0.1-0.1-0.1-0.3-0.2-0.4c0-0.1-0.1-0.1-0.1-0.2c-0.1-0.1-0.2-0.2-0.2-0.4
		c-0.1-0.1-0.1-0.2-0.2-0.2c-0.1-0.1-0.2-0.2-0.2-0.3c-0.1-0.1-0.1-0.2-0.2-0.3c0,0-0.1-0.1-0.1-0.1c-0.1-0.1-0.3-0.3-0.4-0.4
		L631.5,2.1c-3-2.8-7.7-2.7-10.5,0.2c-2.8,3-2.7,7.7,0.2,10.5l7.4,7.1l-9.8,3.1c-3.9,1.3-6.1,5.5-4.8,9.4c1.3,3.9,5.5,6.1,9.4,4.8
		l21.6-7c0.1,0,0.2-0.1,0.3-0.1c0.1,0,0.2-0.1,0.3-0.1c0.1,0,0.2-0.1,0.3-0.1c0.1-0.1,0.3-0.1,0.4-0.2c0.1,0,0.1-0.1,0.2-0.1
		c0.1-0.1,0.3-0.2,0.4-0.2c0.1,0,0.1-0.1,0.2-0.1c0.1-0.1,0.3-0.2,0.4-0.3c0.1,0,0.1-0.1,0.2-0.1c0.1-0.1,0.3-0.2,0.4-0.4
		c0,0,0.1-0.1,0.1-0.1c0,0,0,0,0-0.1c0.1-0.1,0.2-0.3,0.3-0.4c0-0.1,0.1-0.1,0.1-0.2c0.1-0.1,0.2-0.3,0.3-0.4c0,0,0.1-0.1,0.1-0.1
		c0.1-0.2,0.3-0.4,0.4-0.7c0,0,0-0.1,0-0.1c0.1-0.2,0.2-0.4,0.3-0.6c0-0.1,0-0.1,0.1-0.2c0.1-0.2,0.1-0.4,0.2-0.6c0-0.1,0-0.1,0-0.2
		c0.1-0.2,0.1-0.5,0.1-0.7c0,0,0-0.1,0-0.1c0-0.2,0-0.4,0-0.6c0-0.1,0-0.2,0-0.3c0-0.2,0-0.3,0-0.5c0-0.1,0-0.2,0-0.3
		c0-0.2-0.1-0.4-0.1-0.7c0,0,0,0,0-0.1c-0.1-0.3-0.1-0.5-0.2-0.8c0,0,0,0,0-0.1c0,0,0-0.1,0-0.1c-0.1-0.2-0.1-0.3-0.2-0.5
		C649.6,20.2,649.6,20.2,649.6,20.1z"/>
	<circle class="st1" cx="203.7" cy="121.3" r="15.4"/>
	<path class="st1" d="M150.6,162.6c-0.2,0-0.3,0-0.5,0c-0.1,0-0.2,0-0.3,0c-0.1,0-0.3,0-0.4,0c-0.1,0-0.2,0-0.3,0
		c-0.1,0-0.2,0-0.4,0.1c-0.1,0-0.2,0-0.3,0c0,0-0.1,0-0.1,0c-0.2,0-0.4,0.1-0.6,0.1l-21.8,6.3c-4,1.1-6.2,5.3-5.1,9.2
		c1.1,4,5.3,6.2,9.2,5.1l9.8-2.9l-2.2,10c-0.9,4,1.7,8,5.7,8.9c4,0.9,8-1.7,8.9-5.7l4.8-22.2c0-0.1,0-0.2,0.1-0.4
		c0-0.1,0-0.2,0.1-0.3c0-0.1,0-0.2,0-0.3c0-0.1,0-0.3,0-0.4c0-0.1,0-0.2,0-0.2c0-0.2,0-0.3,0-0.5c0-0.1,0-0.2,0-0.2
		c0-0.2,0-0.3-0.1-0.5c0-0.1,0-0.1,0-0.2c0-0.2-0.1-0.3-0.1-0.5c0,0,0-0.1,0-0.1c0,0,0,0,0-0.1c-0.1-0.2-0.1-0.3-0.2-0.5
		c0-0.1,0-0.1-0.1-0.2c-0.1-0.2-0.1-0.3-0.2-0.5c0-0.1,0-0.1-0.1-0.2c-0.1-0.2-0.3-0.4-0.4-0.7c0,0,0-0.1-0.1-0.1
		c-0.1-0.2-0.3-0.4-0.4-0.5c0,0-0.1-0.1-0.1-0.1c-0.1-0.1-0.3-0.3-0.4-0.4c0,0-0.1-0.1-0.1-0.1c-0.2-0.2-0.4-0.3-0.6-0.5
		c0,0-0.1,0-0.1-0.1c-0.2-0.1-0.3-0.2-0.5-0.3c-0.1-0.1-0.2-0.1-0.2-0.1c-0.1-0.1-0.3-0.2-0.4-0.2c-0.1,0-0.2-0.1-0.3-0.1
		c-0.2-0.1-0.4-0.2-0.6-0.2c0,0,0,0-0.1,0c-0.2-0.1-0.5-0.1-0.7-0.2c0,0,0,0-0.1,0c0,0-0.1,0-0.1,0c-0.2,0-0.3-0.1-0.5-0.1
		C150.8,162.7,150.7,162.7,150.6,162.6z"/>
	<circle class="st1" cx="15.4" cy="599.4" r="15.4"/>
	<path class="st1" d="M24.6,666c-0.1,0.1-0.2,0.3-0.3,0.4c0,0.1-0.1,0.1-0.1,0.2c-0.1,0.1-0.1,0.3-0.2,0.4c0,0.1-0.1,0.2-0.1,0.3
		c-0.1,0.1-0.1,0.2-0.1,0.3c0,0.1-0.1,0.2-0.1,0.3c0,0,0,0.1,0,0.1c-0.1,0.2-0.1,0.4-0.2,0.6l-5.4,22c-1,4,1.5,8,5.5,9
		c4,1,8-1.5,9-5.5l2.4-9.9l7.6,6.9c3.1,2.8,7.8,2.5,10.5-0.5c2.8-3.1,2.5-7.8-0.5-10.5l-16.8-15.2c-0.1-0.1-0.2-0.2-0.3-0.2
		c-0.1-0.1-0.2-0.2-0.3-0.2c-0.1-0.1-0.2-0.1-0.2-0.2c-0.1-0.1-0.2-0.2-0.4-0.2c-0.1,0-0.1-0.1-0.2-0.1c-0.1-0.1-0.3-0.2-0.4-0.2
		c-0.1,0-0.1-0.1-0.2-0.1c-0.2-0.1-0.3-0.1-0.5-0.2c-0.1,0-0.1,0-0.2-0.1c-0.2-0.1-0.3-0.1-0.5-0.2c0,0-0.1,0-0.1,0c0,0,0,0-0.1,0
		c-0.2,0-0.3-0.1-0.5-0.1c-0.1,0-0.1,0-0.2,0c-0.2,0-0.3,0-0.5,0c-0.1,0-0.1,0-0.2,0c-0.3,0-0.5,0-0.8,0c0,0-0.1,0-0.1,0
		c-0.2,0-0.4,0-0.6,0.1c-0.1,0-0.1,0-0.2,0c-0.2,0-0.4,0.1-0.6,0.1c-0.1,0-0.1,0-0.2,0c-0.2,0.1-0.5,0.1-0.7,0.2c0,0-0.1,0-0.1,0
		c-0.2,0.1-0.4,0.2-0.5,0.3c-0.1,0-0.2,0.1-0.3,0.1c-0.1,0.1-0.3,0.2-0.4,0.2c-0.1,0.1-0.2,0.1-0.2,0.2c-0.2,0.1-0.4,0.3-0.5,0.4
		c0,0,0,0-0.1,0c-0.2,0.2-0.4,0.4-0.6,0.5c0,0,0,0,0,0c0,0-0.1,0.1-0.1,0.1c-0.1,0.1-0.2,0.3-0.3,0.4
		C24.7,665.9,24.7,665.9,24.6,666z"/>
	<circle class="st1" cx="335.2" cy="1001.5" r="15.4"/>
	<path class="st1" d="M397.5,1026.8c0.1,0.1,0.1,0.3,0.2,0.4c0,0.1,0.1,0.1,0.1,0.2c0.1,0.1,0.2,0.2,0.2,0.4
		c0.1,0.1,0.1,0.2,0.2,0.2c0.1,0.1,0.2,0.2,0.2,0.3c0.1,0.1,0.1,0.2,0.2,0.3c0,0,0.1,0.1,0.1,0.1c0.1,0.1,0.3,0.3,0.4,0.4l16.4,15.7
		c3,2.8,7.7,2.7,10.5-0.2c2.8-3,2.7-7.7-0.2-10.5l-7.4-7.1l9.8-3.1c3.9-1.3,6.1-5.5,4.8-9.4c-1.3-3.9-5.5-6.1-9.4-4.8l-21.6,7
		c-0.1,0-0.2,0.1-0.3,0.1c-0.1,0-0.2,0.1-0.3,0.1c-0.1,0-0.2,0.1-0.3,0.1c-0.1,0.1-0.3,0.1-0.4,0.2c-0.1,0-0.1,0.1-0.2,0.1
		c-0.1,0.1-0.3,0.2-0.4,0.2c-0.1,0-0.1,0.1-0.2,0.1c-0.1,0.1-0.3,0.2-0.4,0.3c-0.1,0-0.1,0.1-0.2,0.1c-0.1,0.1-0.3,0.2-0.4,0.4
		c0,0-0.1,0.1-0.1,0.1c0,0,0,0,0,0.1c-0.1,0.1-0.2,0.3-0.3,0.4c0,0.1-0.1,0.1-0.1,0.2c-0.1,0.1-0.2,0.3-0.3,0.4c0,0-0.1,0.1-0.1,0.1
		c-0.1,0.2-0.3,0.4-0.4,0.7c0,0,0,0.1,0,0.1c-0.1,0.2-0.2,0.4-0.3,0.6c0,0.1,0,0.1-0.1,0.2c-0.1,0.2-0.1,0.4-0.2,0.6
		c0,0.1,0,0.1,0,0.2c-0.1,0.2-0.1,0.5-0.1,0.7c0,0,0,0.1,0,0.1c0,0.2,0,0.4,0,0.6c0,0.1,0,0.2,0,0.3c0,0.2,0,0.3,0,0.5
		c0,0.1,0,0.2,0,0.3c0,0.2,0.1,0.4,0.1,0.7c0,0,0,0,0,0.1c0.1,0.3,0.1,0.5,0.2,0.8c0,0,0,0,0,0.1c0,0,0,0.1,0,0.1
		c0.1,0.2,0.1,0.3,0.2,0.5C397.5,1026.7,397.5,1026.7,397.5,1026.8z"/>
	<circle class="st1" cx="843.4" cy="925.6" r="15.4"/>
	<path class="st1" d="M896.5,884.2c0.2,0,0.3,0,0.5,0c0.1,0,0.2,0,0.3,0c0.1,0,0.3,0,0.4,0c0.1,0,0.2,0,0.3,0c0.1,0,0.2,0,0.4-0.1
		c0.1,0,0.2,0,0.3,0c0,0,0.1,0,0.1,0c0.2,0,0.4-0.1,0.6-0.1l21.8-6.3c4-1.1,6.2-5.3,5.1-9.2c-1.1-4-5.3-6.2-9.2-5.1l-9.8,2.9l2.2-10
		c0.9-4-1.7-8-5.7-8.9c-4-0.9-8,1.7-8.9,5.7l-4.8,22.2c0,0.1,0,0.2-0.1,0.4c0,0.1,0,0.2-0.1,0.3c0,0.1,0,0.2,0,0.3
		c0,0.1,0,0.3,0,0.4c0,0.1,0,0.2,0,0.2c0,0.2,0,0.3,0,0.5c0,0.1,0,0.2,0,0.2c0,0.2,0,0.3,0.1,0.5c0,0.1,0,0.1,0,0.2
		c0,0.2,0.1,0.3,0.1,0.5c0,0,0,0.1,0,0.1c0,0,0,0,0,0.1c0.1,0.2,0.1,0.3,0.2,0.5c0,0.1,0,0.1,0.1,0.2c0.1,0.2,0.1,0.3,0.2,0.5
		c0,0.1,0,0.1,0.1,0.2c0.1,0.2,0.3,0.4,0.4,0.7c0,0,0,0.1,0.1,0.1c0.1,0.2,0.2,0.4,0.4,0.5c0,0,0.1,0.1,0.1,0.1
		c0.1,0.1,0.3,0.3,0.4,0.4c0,0,0.1,0.1,0.1,0.1c0.2,0.2,0.4,0.3,0.6,0.5c0,0,0.1,0,0.1,0.1c0.2,0.1,0.3,0.2,0.5,0.3
		c0.1,0.1,0.2,0.1,0.2,0.1c0.1,0.1,0.3,0.2,0.4,0.2c0.1,0,0.2,0.1,0.3,0.1c0.2,0.1,0.4,0.2,0.6,0.2c0,0,0,0,0.1,0
		c0.2,0.1,0.5,0.1,0.7,0.2c0,0,0,0,0.1,0c0,0,0.1,0,0.1,0c0.2,0,0.3,0.1,0.5,0.1C896.3,884.2,896.4,884.2,896.5,884.2z"/>
</g>
</svg>
