<?xml version="1.0" encoding="utf-8"?>
<!-- Generator: Adobe Illustrator 27.2.0, SVG Export Plug-In . SVG Version: 6.00 Build 0)  -->
<svg version="1.1" id="圖層_1" xmlns="http://www.w3.org/2000/svg" xmlns:xlink="http://www.w3.org/1999/xlink" x="0px" y="0px"
	 viewBox="0 0 1860.87 496.66" style="enable-background:new 0 0 1860.87 496.66;" xml:space="preserve">
<style type="text/css">
	.st0{fill:#FFFFFF;stroke:#C39A6B;stroke-linecap:round;stroke-linejoin:round;stroke-miterlimit:10;}
	.st1{fill:#FFFFFF;}
	.st2{fill:none;stroke:#C39A6B;stroke-linecap:round;stroke-linejoin:round;stroke-miterlimit:10;}
	.st3{fill:#FFFFFF;stroke:#C39A6B;stroke-width:1.1012;stroke-linecap:round;stroke-linejoin:round;stroke-miterlimit:10;}
	.st4{fill:none;stroke:#C39A6B;stroke-width:1.1012;stroke-linecap:round;stroke-linejoin:round;stroke-miterlimit:10;}
</style>
<g>
	<g>
		<g>
			<path class="st0" d="M285.89,279.01c0,0,18.84,3.33,27.71-2.22c4.99-2.99,14.99,2.82,19.63,4.51
				c11.55,4.21,24.25,5.78,36.48,6.42c9.41,0.49,20.29-0.81,24.53-10.54c0,0,17.46,1.64,21.62-6.03
				c4.16-7.66,6.64-21.52-12.34-20.69c-5.67-0.28-6.78,0.83-6.78,0.83v-4.43c0,0,8.87,0,11.08-3.33c0,0,6.7,14.77,28.85,12.93
				c4.41-0.73,6.62-1.84,6.62-1.84s14.41,14.41,32.15,8.87c17.74-5.54,23.76-22.72,27.95-25.22s13.08-3.05,13.07,7.21
				c-0.01,10.25-1.12,15.8,17.73,22.45c18.84,6.65,44.34-2.22,50.99-11.08c6.65-8.87,25.12-7.76,35.84,9.98
				c12.93,13.3,38.64,10.53,45.74-0.28c7.1-10.81,8.01-32.98-19.6-35.19c-13.2,0-19.6,5.27-19.6,5.27s-4.68-16.35-23.53-14.13
				c-5.54,0-11.71,7.17-11.71,7.17s-3.43-12.71-23.57-12.71c0,0,7.72-1.66,6.53-10.25s-14.48-14.13-31.11-11.92
				c-16.63,2.22-37.63,6.19-46.53,0.88c-8.9-5.31-7.79-8.64-1.14-9.74c6.65-1.11,21.89,2.22,45.31,0c23.42-2.22,60-1.11,74.41,1.11
				c14.41,2.22,20.51,3.13,27.99-2.32c7.48-5.44,2.95-8.77,2.95-8.77s5.64-1.11,5.64-5.54c0-4.43,3.33-13.3-33.25-12.19
				s-36.7-3.3-38.3-7.19c-1.6-3.89,0.94-13.04,20.18-14.56c19.24-1.52,44.73-2.63,49.17-1.52c0,0-21.02-5.51-55.41-4.97
				s-55.01-0.3-59.11,12.31s8.06,16.21,13.07,17.18s12.76,0.97,12.76,0.97s6.31,5.9,22,5.17c15.69-0.73,33.43-2.95,35.64,1.48
				s1.11,8.87-11.08,9.98c-12.19,1.11-60.33,2.89-77.28-2.99c-16.94-5.88-20.27-10.31-23.59-16.97
				c-3.33-6.65-10.85-12.31-27.6-10.59s-22.34,8.65-22.34,8.65s-23.23-5.82-38.75,4.16c0,0-22.17-2.22-33.25,5.54
				c-11.08,7.76-12.19,18.84-5.54,23.28c3.33,2.22,8.8,0.83,8.8,0.83s3.24,7.75,14.96,10.66s30.56,3.53,41.09-3.98
				c0,0,12.75,5.79,19.4,4.68c0,0,5.54,6.65,19.95,6.65c14.41,0,27.71-2.22,27.71-2.22s3.33,7.76,8.87,8.87
				c0,0,0.49,4.99-17.49,5.82c-17.98,0.83-29.58-6.96-35.97-7.5c-6.39-0.54-20.81-2.76-25.24,3.89c0,0-16.63-9.98-26.6-5.54
				c-9.98,4.43-13.3,8.87-13.3,8.87s-3.05-5.54-9.28-2.22c-6.24,3.33-4.02,7.76-4.02,7.76s-9.98-6.65-22.17,0
				s-12.19,19.95-12.19,19.95s-19.95,1.11-32.15,1.11s-18.84,2.22-33.25-5.54"/>
			<path class="st0" d="M285.89,265.57c1.11,0.14,9.98,5.68,22.17,4.57s24.39-1.11,31.04,2.22c6.65,3.33,12.75,0,12.75,0"/>
			<path class="st0" d="M354.62,275.68c0,0-6.65-3.33-4.43-12.19c1.11-6.65,14.4-4.44,14.41-4.43c0.08,0.01,2.13-2.43,2.38-2.62
				c1.74-1.33,3.98-1.55,5.93-0.44c2.94,1.68,2.77,4.58,2.77,7.5"/>
			<path class="st0" d="M370.13,279.01c0,0-5.27-8.04,1.25-13.44c6.51-5.4,13.16-3.19,13.16-3.19"/>
			<path class="st0" d="M287,254.62c0,0,13.3,4.43,25.5,3.33c12.19-1.11,27.71-11.08,42.12-6.65"/>
			<path class="st0" d="M363.21,250.17c0,0,1.39-5.52-8.59-5.52"/>
			<path class="st0" d="M361.27,235.78c0,0,7.97-9.42,15.07-8.04c7.1,1.39,10.43,3.6,10.43,3.6s2.22-7.76,12.19-7.76
				s9.98,2.22,9.98,2.22s4.43-9.98,18.84-7.76c14.41,2.22,18.84,7.76,17.74,18.84c0,0-1.63-13.8,14.15-14.66s28.92,1.91,30.67,13.28
				c1.74,11.36-2.42,18.17-9.2,18.65"/>
			<path class="st0" d="M454.38,249.08c0,0-13.3,2.22-13.3-6.65"/>
			<path class="st0" d="M426.67,242.43c0,0,5.54,0,6.65-3.33c1.11-3.33,0-12.19-11.08-12.19s-13.3,5.54-14.41,16.63"/>
			<path class="st0" d="M402.14,265.57c0,0-8.73,1.25-9.84-6.51c-1.11-7.76,6.92-8.49,6.92-8.49"/>
			<path class="st0" d="M381.22,261.93c0,0,2.4-12.95,12.84-9.02"/>
			<path class="st0" d="M464.36,200.31c0,0,5.27-1.76,3.74-5.32s-7.07-1.33-7.07-1.33"/>
			<path class="st0" d="M444.96,195.63c0,0-9.08-6.5-5.37-16.98c3.71-10.48,28.4-18.52,37.67-16.72c9.27,1.8,11.49,7.34,11.49,7.34
				s9.35-4.51,14.65-3.36c5.3,1.15,10.84,8.9,18.6,11.12c7.76,2.22,13.3,3.33,15.52,3.33"/>
			<path class="st0" d="M398.96,173.7c0,0,1.11,11.08,15.52,8.87c14.41-2.22,13.35-7.37,13.35-7.37s7.71-0.39,6.6-9.26
				c-1.11-8.87-15.52-6.65-15.52-6.65"/>
			<path class="st0" d="M530.87,222.48c0,0,8.87-1.11,8.87-12.19"/>
			<path class="st0" d="M550.18,223.59c0,0,5.9-2.22,6.04-13.31c0.14-11.08-13.58-14.93-26.12-13.56"/>
			<path class="st0" d="M530.87,200.31c0,0-17.74-0.73-19.95-2.03"/>
			<path class="st0" d="M528.93,249.33c0,0,5.27,13.06,24.11,9.73c18.84-3.33,17.18-13.18,17.18-13.18"/>
			<path class="st0" d="M543.16,245.88c0,0-7.1-12.9,9.14-15.38c16.25-2.48,18.57,5.44,18.57,5.44s7.03-5.19,12.33-2.67
				c5.3,2.52,15.56,11.99,3.78,21.67"/>
			<path class="st0" d="M628.53,235.93c0,0-6.76,4.28-5.66,10.93c1.11,6.65,7.76,9.98,13.3,9.98s8.87-4.43,6.65-8.87
				s-10.51-2.77-9.69,2.49"/>
			<path class="st0" d="M583.23,165.59c0,0-12.46-4.08-10.25-14.06c1.11-4.43,3.33-4.43,3.33-4.43"/>
			<path class="st0" d="M561.9,160.4c-4.56-2.84-8.29-7.22-6.44-12.85c1.86-5.66,6.3-9.91,11.98-11.54"/>
		</g>
		<g>
			<path class="st1" d="M69.33,256.96c-4.43-1.11-8.87,3.33-6.65,8.87c2.22,5.54,11.08,7.76,15.52,4.43
				c4.43-3.32,5.54-6.64,5.54-6.65c-0.25,0.75,2.83,1.47,3.3,1.55c1.67,0.27,3.44-0.04,4.9-0.9c3.33-1.94,4.37-6.38,4.06-9.97
				c-0.33-3.81-2.33-7.48-5.61-9.53c0,0-3.33-2.22-6.65-2.22c0,0-6.44-10.19-24.28-7.87s-14.51,10.08-14.51,10.08
				s-19.95-4.43-27.71,4.43c-7.76,8.87-7.76,23.28,7.76,29.93c15.52,6.65,23.28-1.11,23.28-1.11s13.3,18.84,35.47,16.63
				c11.08-1.11,18.84-4.43,24.39-7.76c0,0,11.08,5.54,17.74-1.11c3.33-3.33,4.43-6.65,3.33-8.87c0,0,6.65,3.33,13.3,2.22
				c0,0-18.84,8.87-12.19,29.93c6.65,21.06,37.69,17.74,42.12,11.08c0,0,13.3,28.82,49.88,27.71c0,0,10.39,11.43,29.03,6.82
				c7.55-2.39,11.99-5.72,11.99-5.72s8.87,9.98,24.39,4.43c15.52-5.54,21.06-16.63,19.95-23.28c-1.11-6.65-3.33-7.76-3.33-7.76
				s9.14-4.57,3.46-13.93c0,0,23.14,7.27,30.9-9.35c4.43-8.87,3.33-15.52,3.33-15.52s14.41,3.33,19.95-6.65
				c2.22-4.43,2.22-8.87,2.22-13.3c0,0,22.17,5.54,33.25-1.11c11.08-6.65,14.41-18.84,11.08-27.71c-1.11-3.33-2.22-4.43-2.22-4.43
				s6.65,3.33,12.19,1.11V216.9v-7.61c0,0-12.19-3.33-23.28,0c-0.05,0.02-1.16-1.51-1.24-1.6c-1.1-1.26-2.37-2.39-3.76-3.32
				c-4.08-2.72-9.05-3.01-13.65-1.51c-4.63,1.51-9.38,4.24-12.65,7.89c-0.94,1.05-2.14,2.57-1.95,4.09l-22.34,0.24
				c0,0-7.59-12.43-31.97-9.11c-8.87,1.11-11.08,7.76-11.08,9.98c0,0-15.52-2.22-22.17,8.87c-2.22,3.33-3.61,9.56-3.47,10.88
				c0,0-14.27-3.12-22.03,6.86c0,0-1.11-4.43-3.33-5.54c0,0,7.76-23.28-21.06-36.58c-28.82-13.3-50.99,2.22-50.99,2.22
				s-15.52-3.33-31.04,4.43c-15.52,7.76-8.79,21.07-8.79,21.07s-16.71-2.23-18.93,11.08c0,0-16.63-14.41-31.04,2.22"/>
			<path class="st2" d="M418.5,209.29c0,0-12.19-3.33-23.28,0c-0.05,0.02-1.16-1.51-1.24-1.6c-1.1-1.26-2.37-2.39-3.76-3.32
				c-4.08-2.72-9.05-3.01-13.65-1.51c-4.63,1.51-9.38,4.24-12.65,7.89c-0.94,1.05-2.14,2.57-1.95,4.09l-22.34,0.24
				c0,0-7.59-12.43-31.97-9.11c-8.87,1.11-11.08,7.76-11.08,9.98c0,0-15.52-2.22-22.17,8.87c-2.22,3.33-3.61,9.56-3.47,10.88
				c0,0-14.27-3.12-22.03,6.86c0,0-1.11-4.43-3.33-5.54c0,0,7.76-23.28-21.06-36.58c-28.82-13.3-50.99,2.22-50.99,2.22
				s-15.52-3.33-31.04,4.43c-15.52,7.76-8.79,21.07-8.79,21.07s-16.71-2.23-18.93,11.08c0,0-16.63-14.41-31.04,2.22"/>
			<path class="st2" d="M69.33,256.96c-4.43-1.11-8.87,3.33-6.65,8.87c2.22,5.54,11.08,7.76,15.52,4.43
				c4.43-3.32,5.54-6.64,5.54-6.65c-0.25,0.75,2.83,1.47,3.3,1.55c1.67,0.27,3.44-0.04,4.9-0.9c3.33-1.94,4.37-6.38,4.06-9.97
				c-0.33-3.81-2.33-7.48-5.61-9.53c0,0-3.33-2.22-6.65-2.22c0,0-6.44-10.19-24.28-7.87s-14.51,10.08-14.51,10.08
				s-19.95-4.43-27.71,4.43c-7.76,8.87-7.76,23.28,7.76,29.93c15.52,6.65,23.28-1.11,23.28-1.11s13.3,18.84,35.47,16.63
				c11.08-1.11,18.84-4.43,24.39-7.76c0,0,11.08,5.54,17.74-1.11c3.33-3.33,4.43-6.65,3.33-8.87c0,0,6.65,3.33,13.3,2.22
				c0,0-18.84,8.87-12.19,29.93c6.65,21.06,37.69,17.74,42.12,11.08c0,0,13.3,28.82,49.88,27.71c0,0,10.39,11.43,29.03,6.82
				c7.55-2.39,11.99-5.72,11.99-5.72s8.87,9.98,24.39,4.43c15.52-5.54,21.06-16.63,19.95-23.28c-1.11-6.65-3.33-7.76-3.33-7.76
				s9.14-4.57,3.46-13.93c0,0,23.14,7.27,30.9-9.35c4.43-8.87,3.33-15.52,3.33-15.52s14.41,3.33,19.95-6.65
				c2.22-4.43,2.22-8.87,2.22-13.3c0,0,22.17,5.54,33.25-1.11c11.08-6.65,14.41-18.84,11.08-27.71c-1.11-3.33-2.22-4.43-2.22-4.43
				s6.65,3.33,12.19,1.11"/>
			<path class="st0" d="M103.69,264.72c0,0,1.66,14.72,15.8,10.69c4.16-1.82,4.16-4.04,4.16-4.04"/>
			<path class="st0" d="M120.63,259.73c0,0-4.75,6.1,5.23,11.64c9.98,5.54,22.17-3.33,21.06-13.3"/>
			<path class="st0" d="M114.78,239.22c0,0,6.1,3.75,10.25,8.53"/>
			<path class="st0" d="M123.64,249.34c0,0,1.11-2.36,4.43-2.36"/>
			<path class="st0" d="M119.5,242.59c0,0,0.81-10.02,15.22-6.7c14.41,3.33,14.41,8.87,14.41,8.87s13.3-6.65,21.06,1.11
				c7.76,7.76,3.88,23.88-9.7,19.7"/>
			<path class="st0" d="M164.66,223.7c0,0-4.43-2.22-2.22-7.76c2.22-5.54,6.65-3.33,6.65-3.33s-1.11-12.19,14.41-7.76
				s9.98,12.19,9.98,12.19s12.19,4.43,8.87,15.52c-3.33,11.08-12.19,9.98-12.19,9.98"/>
			<path class="st0" d="M214.54,237c0,0,9.98-5.37,4.99-13.77s-16.65-10.13-25.23-8.16"/>
			<path class="st0" d="M196.8,290.21c-3.11-0.66-6.21-2.33-8.26-4.77c-4.34-5.15-2.91-13.41,1.33-18.09c0,0-5.82-12.47,4.99-19.19
				c10.81-6.72,33.86-9.21,43.39-1.87"/>
			<path class="st0" d="M155.51,273.89c0.73,3.45,2.27,6.86,4.37,9.68c4.79,6.44,12.23,7.91,19.79,5.93
				c3.4-0.89,5.98-2.32,8.04-5.19"/>
			<path class="st0" d="M177.96,297.97c0,0-12.75,7.76-22.45,0s-3-21.08,0.85-21.07"/>
			<path class="st0" d="M200.13,278.02c0,0-5.54-8.87,6.65-14.41c12.19-5.54,42.12-9.98,42.12,5.54"/>
			<path class="st0" d="M220.08,274.69c0,0,7.76-1.11,9.42,0c0,0,22.17-10.78,36.86-4.28c14.69,6.5,15.24,10.01,15.24,10.01
				s4.16-2.4,6.79-2.4c0,0-1.8-8.03,10.39-10.67c12.19-2.64,38.8-0.42,43.23,16.21"/>
			<path class="st0" d="M262.2,253.63c0,0,4.99,11.08,14.69,6.1c9.7-4.99,6.09-20.92-5.96-24.04"/>
			<path class="st0" d="M291.58,313.09c0,0,3.6-28.31-25.08-23.93c-6.51,1.05-6.79,4.33-6.79,4.33s-10.81-4.39-13.02,10.02"/>
			<path class="st0" d="M282.46,305.59c2.46,6.34,2.98,15.07-2.67,19.9c-1.92,1.64-4.26,2.74-6.66,3.54c-6,2-12.42,2.25-18.67,1.71
				c-6.34-0.55-11.84-2.8-17.88-4.58c-1.03-0.3-2.25,0.25-3.27,0.4c-1.38,0.21-2.82,0.25-4.21,0.24
				c-8.79-0.05-16.04-3.76-21.25-10.8c-4.42-5.97-7.1-13.65-6.53-21.12c0.17-2.19,0.62-4.36,1.43-6.4c1.02-2.59,2.72-4.84,4.88-6.59
				"/>
			<path class="st0" d="M303.6,280.42c0,0,8.76,1.23,10.28,8.28s-2.63,11.16-4.43,11.33"/>
			<path class="st0" d="M343.95,273.89c0,0,10.27,1.91,11.93-4.74c1.65-6.65-5.62-13.3-13.07-12.75c-7.45,0.55-9.39,3.9-9.53,6.1"/>
			<path class="st0" d="M300.6,267.02c0,0,10.92-3.13,9.54-14.91c0,0,12.87,6.62,19.6-10.89c0,0,4.77,13.53,19.6,7.98
				c0,0,9.85,17.74,30.63,10.53s10.25-27.44,0-20.65"/>
			<path class="st0" d="M362.42,245.04c0,0-8.76-16.3,8.7-19.37s30.87,0.61,36.36,6.52"/>
			<path class="st0" d="M302.11,230.35c0,0,3.33-8.87-5.54-14.41"/>
			<path class="st0" d="M360.23,237c0,0-9.35,2.22-19.33-4.43s-26.49-12.69-38.19-6.9"/>
			<path class="st0" d="M300.26,219.19c0,0,6.01-6.47,18.34-4.86c7.49,0.98,13.98,4.97,20.72,8.08c6.62,3.06,15.91,6.03,23.1,3.25
				c0,0-0.45-16.38,13.96-16.38c14.41,0,16.35,5.04,16.35,5.04"/>
			<path class="st0" d="M415.18,189.34c0,0-25.04,8.87-36.91-6.1c-11.87-14.96,23.61-31.59,43.56-22.72"/>
		</g>
	</g>
	<g>
		<g>
			<path class="st0" d="M644.35,260.22c0,0,20.96-3.7,30.82,2.47c5.55,3.33,16.67-3.14,21.83-5.02c12.84-4.68,26.97-6.42,40.57-7.14
				c10.46-0.55,22.56,0.9,27.27,11.73c0,0,19.41-1.82,24.04,6.7c4.62,8.52,7.38,23.93-13.72,23.01c-6.31,0.31-7.54-0.92-7.54-0.92
				v4.93c0,0,9.86,0,12.33,3.7c0,0,7.45-16.42,32.08-14.37c4.9,0.81,7.37,2.05,7.37,2.05s16.02-16.02,35.75-9.86
				c19.72,6.16,26.43,25.27,31.09,28.04c4.66,2.77,14.54,3.39,14.53-8.01c-0.01-11.4-1.24-17.57,19.71-24.96
				c20.96-7.4,49.31,2.47,56.7,12.33s27.93,8.63,39.85-11.09c14.38-14.79,42.97-11.71,50.87,0.31c7.89,12.02,8.91,36.67-21.8,39.14
				c-14.68,0-21.8-5.86-21.8-5.86s-5.21,18.18-26.16,15.72c-6.16,0-13.02-7.97-13.02-7.97s-3.82,14.13-26.22,14.13
				c0,0,8.58,1.85,7.27,11.4c-1.31,9.55-16.1,15.72-34.59,13.25c-18.49-2.47-41.85-6.88-51.74-0.97c-9.89,5.91-8.66,9.6-1.26,10.84
				c7.4,1.23,24.34-2.47,50.38,0c26.04,2.47,66.72,1.23,82.74-1.23c16.02-2.47,22.8-3.48,31.12,2.58c8.32,6.05,3.28,9.75,3.28,9.75
				s6.27,1.23,6.27,6.16s3.7,14.79-36.98,13.56c-40.68-1.23-40.81,3.67-42.59,8c-1.78,4.33,1.04,14.5,22.44,16.19
				c21.39,1.69,49.74,2.93,54.67,1.69c0,0-23.38,6.12-61.61,5.53c-38.23-0.6-61.17,0.33-65.73-13.69
				c-4.55-14.02,8.97-18.03,14.53-19.11s14.19-1.08,14.19-1.08s7.01-6.56,24.46-5.74c17.45,0.81,37.17,3.28,39.64-1.65
				s1.23-9.86-12.33-11.09c-13.56-1.23-67.09-3.22-85.93,3.32c-18.84,6.54-22.54,11.47-26.24,18.87
				c-3.7,7.4-12.07,13.69-30.69,11.78c-18.62-1.91-24.84-9.62-24.84-9.62s-25.83,6.47-43.09-4.62c0,0-24.65,2.47-36.98-6.16
				s-13.56-20.96-6.16-25.89c3.7-2.47,9.78-0.92,9.78-0.92s3.6-8.61,16.63-11.86c13.03-3.24,33.99-3.93,45.7,4.43
				c0,0,14.18-6.44,21.57-5.2c0,0,6.16-7.4,22.19-7.4c16.02,0,30.82,2.47,30.82,2.47s3.7-8.63,9.86-9.86c0,0,0.54-5.55-19.45-6.47
				c-19.99-0.92-32.89,7.74-40,8.34c-7.11,0.6-23.14,3.07-28.07-4.33c0,0-18.49,11.09-29.58,6.16c-11.09-4.93-14.79-9.86-14.79-9.86
				s-3.39,6.17-10.32,2.47c-6.93-3.7-4.47-8.63-4.47-8.63s-11.09,7.4-24.65,0c-13.56-7.4-13.56-22.19-13.56-22.19
				s-22.19-1.23-35.75-1.23c-13.56,0-20.96-2.47-36.98,6.16"/>
			<path class="st0" d="M644.35,275.16c1.23-0.15,11.09-6.32,24.65-5.08c13.56,1.23,27.12,1.23,34.51-2.47c7.4-3.7,14.18,0,14.18,0"
				/>
			<path class="st0" d="M720.78,263.91c0,0-7.4,3.7-4.93,13.56c1.23,7.39,16.01,4.93,16.02,4.93c0.09-0.01,2.37,2.7,2.65,2.92
				c1.94,1.48,4.43,1.73,6.59,0.49c3.27-1.86,3.09-5.1,3.09-8.34"/>
			<path class="st0" d="M738.03,260.22c0,0-5.86,8.94,1.39,14.95s14.64,3.54,14.64,3.54"/>
			<path class="st0" d="M645.58,287.34c0,0,14.79-4.93,28.35-3.7c13.56,1.23,30.82,12.33,46.84,7.4"/>
			<path class="st0" d="M730.33,292.29c0,0,1.54,6.14-9.55,6.14"/>
			<path class="st0" d="M728.17,308.29c0,0,8.86,10.48,16.76,8.94c7.9-1.54,11.6-4.01,11.6-4.01s2.47,8.63,13.56,8.63
				s11.09-2.47,11.09-2.47s4.93,11.09,20.96,8.63c16.02-2.47,20.96-8.63,19.72-20.96c0,0-1.81,15.35,15.73,16.3
				c17.55,0.95,32.16-2.13,34.1-14.76c1.94-12.63-2.69-20.21-10.24-20.73"/>
			<path class="st0" d="M831.72,293.5c0,0-14.79-2.47-14.79,7.4"/>
			<path class="st0" d="M800.9,300.89c0,0,6.16,0,7.4,3.7c1.23,3.7,0,13.56-12.33,13.56s-14.79-6.16-16.02-18.49"/>
			<path class="st0" d="M773.63,275.16c0,0-9.71-1.39-10.94,7.24c-1.23,8.63,7.7,9.45,7.7,9.45"/>
			<path class="st0" d="M750.36,279.21c0,0,2.67,14.4,14.28,10.03"/>
			<path class="st0" d="M842.81,347.74c0,0,5.86,1.96,4.16,5.91c-1.69,3.95-7.86,1.48-7.86,1.48"/>
			<path class="st0" d="M821.24,352.94c0,0-10.1,7.23-5.98,18.88c4.13,11.66,31.59,20.6,41.89,18.59c10.31-2,12.77-8.17,12.77-8.17
				s10.4,5.01,16.29,3.74c5.89-1.27,12.06-9.9,20.69-12.37c8.63-2.47,14.79-3.7,17.26-3.7"/>
			<path class="st0" d="M770.08,377.32c0,0,1.23-12.33,17.26-9.86c16.02,2.47,14.85,8.19,14.85,8.19s8.58,0.43,7.34,10.3
				c-1.23,9.86-17.26,7.4-17.26,7.4"/>
			<path class="st0" d="M916.77,323.08c0,0,9.86,1.23,9.86,13.56"/>
			<path class="st0" d="M938.25,321.84c0,0,6.56,2.47,6.72,14.8c0.15,12.33-15.1,16.6-29.05,15.08"/>
			<path class="st0" d="M916.77,347.74c0,0-19.73,0.81-22.19,2.26"/>
			<path class="st0" d="M914.61,293.22c0,0,5.86-14.52,26.81-10.82c20.96,3.7,19.11,14.65,19.11,14.65"/>
			<path class="st0" d="M930.44,297.06c0,0-7.9,14.35,10.17,17.1c18.07,2.76,20.65-6.05,20.65-6.05s7.82,5.77,13.71,2.97
				c5.89-2.8,17.3-13.34,4.2-24.09"/>
			<path class="st0" d="M1025.37,308.12c0,0-7.52-4.76-6.29-12.15s8.63-11.09,14.79-11.09s9.86,4.93,7.4,9.86
				s-11.69,3.08-10.78-2.77"/>
			<path class="st0" d="M975,386.34c0,0-13.86,4.54-11.39,15.63c1.23,4.93,3.7,4.93,3.7,4.93"/>
			<path class="st0" d="M951.28,392.11c-5.07,3.15-9.22,8.02-7.16,14.29c2.06,6.3,7,11.02,13.33,12.83"/>
		</g>
		<g>
			<path class="st0" d="M403.53,284.74c-4.93,1.23-9.86-3.7-7.4-9.86c2.47-6.16,12.33-8.63,17.26-4.93
				c4.92,3.69,6.16,7.39,6.16,7.39c-0.28-0.84,3.14-1.64,3.67-1.72c1.86-0.3,3.82,0.05,5.45,1c3.7,2.16,4.86,7.09,4.51,11.09
				c-0.37,4.24-2.59,8.31-6.23,10.59c0,0-3.7,2.47-7.4,2.47c0,0-7.16,11.33-27,8.75c-19.84-2.59-16.14-11.21-16.14-11.21
				s-22.19,4.93-30.82-4.93s-8.63-25.89,8.63-33.28c17.26-7.4,25.89,1.23,25.89,1.23s14.79-20.96,39.45-18.49
				c12.33,1.23,20.96,4.93,27.12,8.63c0,0,12.33-6.16,19.72,1.23c3.7,3.7,4.93,7.4,3.7,9.86c0,0,7.4-3.7,14.79-2.47
				c0,0-20.96-9.86-13.56-33.28c7.4-23.42,41.91-19.72,46.84-12.33c0,0,14.79-32.05,55.47-30.82c0,0,11.55-12.71,32.28-7.59
				c8.4,2.66,13.33,6.36,13.33,6.36s9.86-11.09,27.12-4.93c17.26,6.16,23.42,18.49,22.19,25.89s-3.7,8.63-3.7,8.63
				s10.17,5.08,3.85,15.49c0,0,25.73-8.09,34.36,10.4c4.93,9.86,3.7,17.26,3.7,17.26s16.02-3.7,22.19,7.4
				c2.47,4.93,2.47,9.86,2.47,14.79c0,0,24.65-6.16,36.98,1.23c12.33,7.4,16.02,20.96,12.33,30.82c-1.23,3.7-2.47,4.93-2.47,4.93
				s7.4-3.7,13.56-1.23v24.65c0,0-13.56,3.7-25.89,0c-0.06-0.02-1.29,1.67-1.38,1.78c-1.23,1.4-2.63,2.65-4.18,3.69
				c-4.54,3.03-10.06,3.35-15.18,1.68c-5.15-1.68-10.43-4.71-14.07-8.77c-1.04-1.16-2.38-2.86-2.17-4.55l-24.85-0.27
				c0,0-8.44,13.83-35.55,10.13c-9.86-1.23-12.33-8.63-12.33-11.09c0,0-17.26,2.47-24.65-9.86c-2.47-3.7-4.01-10.63-3.86-12.1
				c0,0-15.87,3.47-24.5-7.63c0,0-1.23,4.93-3.7,6.16c0,0,8.63,25.89-23.42,40.68s-56.7-2.47-56.7-2.47s-17.26,3.7-34.51-4.93
				c-17.26-8.63-9.77-23.43-9.77-23.43s-18.58,2.47-21.05-12.32c0,0-18.49,16.02-34.51-2.47"/>
			<path class="st0" d="M441.74,276.11c0,0,1.85-16.37,17.57-11.88c4.62,2.02,4.62,4.49,4.62,4.49"/>
			<path class="st0" d="M460.58,281.66c0,0-5.28-6.78,5.81-12.94s24.65,3.7,23.42,14.79"/>
			<path class="st0" d="M454.07,304.46c0,0,6.78-4.17,11.4-9.48"/>
			<path class="st0" d="M463.93,293.21c0,0,1.23,2.62,4.93,2.62"/>
			<path class="st0" d="M459.33,300.71c0,0,0.91,11.14,16.93,7.45s16.02-9.86,16.02-9.86s14.79,7.4,23.42-1.23
				c8.63-8.63,4.31-26.55-10.79-21.91"/>
			<path class="st0" d="M509.54,321.72c0,0-4.93,2.47-2.47,8.63c2.47,6.16,7.4,3.7,7.4,3.7s-1.23,13.56,16.02,8.63
				c17.26-4.93,11.09-13.56,11.09-13.56s13.56-4.93,9.86-17.26c-3.7-12.33-13.56-11.09-13.56-11.09"/>
			<path class="st0" d="M565.01,306.93c0,0,11.09,5.98,5.55,15.31c-5.55,9.34-18.52,11.27-28.06,9.07"/>
			<path class="st0" d="M545.29,247.76c-3.45,0.74-6.9,2.59-9.19,5.3c-4.82,5.73-3.24,14.91,1.48,20.12c0,0-6.47,13.87,5.55,21.34
				s37.65,10.25,48.25,2.08"/>
			<path class="st0" d="M499.37,265.91c0.82-3.83,2.52-7.62,4.86-10.76c5.32-7.16,13.6-8.8,22-6.59c3.78,0.99,6.65,2.58,8.94,5.77"
				/>
			<path class="st0" d="M524.33,239.13c0,0-14.18-8.63-24.96,0c-10.79,8.63-3.34,23.44,0.95,23.43"/>
			<path class="st0" d="M548.98,261.32c0,0-6.16,9.86,7.4,16.02c13.56,6.16,46.84,11.09,46.84-6.16"/>
			<path class="st0" d="M571.17,265.02c0,0,8.63,1.23,10.48,0c0,0,24.65,11.99,40.99,4.76c16.33-7.23,16.95-11.13,16.95-11.13
				s4.62,2.67,7.55,2.67c0,0-2,8.93,11.56,11.86c13.56,2.93,43.14,0.47,48.07-18.02"/>
			<path class="st0" d="M618.01,288.44c0,0,5.55-12.33,16.33-6.78s6.77,23.27-6.63,26.73"/>
			<path class="st0" d="M650.68,222.31c0,0,4.01,31.48-27.89,26.62c-7.24-1.17-7.55-4.82-7.55-4.82s-12.02,4.88-14.48-11.14"/>
			<path class="st0" d="M640.53,230.66c2.73-7.05,3.31-16.76-2.97-22.12c-2.14-1.83-4.74-3.04-7.41-3.94
				c-6.67-2.23-13.81-2.51-20.77-1.9c-7.05,0.61-13.16,3.11-19.88,5.09c-1.15,0.34-2.5-0.27-3.63-0.45
				c-1.54-0.24-3.13-0.28-4.68-0.27c-9.77,0.05-17.84,4.19-23.63,12.01c-4.92,6.64-7.9,15.18-7.27,23.49
				c0.18,2.43,0.69,4.85,1.59,7.12c1.14,2.88,3.02,5.39,5.42,7.33"/>
			<path class="st0" d="M664.05,258.65c0,0,9.74-1.36,11.44-9.21c1.69-7.84-2.93-12.41-4.93-12.59"/>
			<path class="st0" d="M708.92,265.91c0,0,11.42-2.13,13.26,5.27c1.84,7.4-6.25,14.79-14.53,14.18
				c-8.28-0.62-10.44-4.33-10.59-6.79"/>
			<path class="st0" d="M660.71,273.55c0,0,12.14,3.48,10.61,16.58c0,0,14.32-7.36,21.8,12.11c0,0,5.3-15.04,21.8-8.88
				c0,0,10.95-19.72,34.07-11.71c23.11,8.01,11.4,30.51,0,22.96"/>
			<path class="st0" d="M729.45,297.99c0,0-9.74,18.12,9.67,21.54c19.41,3.42,34.33-0.67,40.43-7.26"/>
			<path class="st0" d="M662.39,314.32c0,0,3.7,9.86-6.16,16.02"/>
			<path class="st0" d="M727.02,306.93c0,0-10.4-2.47-21.49,4.93c-11.09,7.4-29.46,14.11-42.46,7.67"/>
			<path class="st0" d="M660.33,326.73c0,0,6.68,7.19,20.39,5.4c8.33-1.09,15.55-5.53,23.04-8.99c7.36-3.4,17.7-6.7,25.69-3.62
				c0,0-0.5,18.21,15.53,18.21c16.02,0,18.18-5.61,18.18-5.61"/>
			<path class="st0" d="M788.12,359.93c0,0-27.85-9.86-41.04,6.78c-13.19,16.64,26.25,35.13,48.44,25.27"/>
		</g>
	</g>
</g>
<g>
	<g>
		<g>
			<path class="st3" d="M1222.46,321.98c0,0-20.75,3.66-30.52-2.44c-5.49-3.3-16.51,3.11-21.62,4.97
				c-12.72,4.63-26.7,6.36-40.18,7.07c-10.36,0.54-22.34-0.89-27.01-11.61c0,0-19.23,1.8-23.8-6.64
				c-4.58-8.44-7.31-23.7,13.59-22.78c6.25-0.31,7.47,0.92,7.47,0.92v-4.88c0,0-9.77,0-12.21-3.66c0,0-7.38,16.26-31.77,14.23
				c-4.85-0.81-7.3-2.03-7.3-2.03s-15.87,15.87-35.4,9.77c-19.53-6.1-26.17-25.02-30.79-27.77c-4.62-2.75-14.4-3.36-14.39,7.93
				s1.23,17.4-19.52,24.72s-48.83-2.44-56.15-12.21c-7.32-9.77-27.66-8.55-39.47,10.99c-14.24,14.65-42.56,11.6-50.37-0.31
				c-7.82-11.9-8.82-36.32,21.59-38.76c14.54,0,21.59,5.8,21.59,5.8s5.16-18.01,25.91-15.56c6.1,0,12.89,7.89,12.89,7.89
				s3.78-14,25.96-14c0,0-8.5-1.83-7.2-11.29c1.3-9.46,15.95-15.56,34.26-13.12s41.44,6.81,51.24,0.97
				c9.8-5.85,8.58-9.51,1.25-10.73c-7.32-1.22-24.11,2.44-49.9,0c-25.79-2.44-66.07-1.22-81.94,1.22s-22.58,3.44-30.82-2.55
				c-8.24-5.99-3.25-9.66-3.25-9.66s-6.21-1.22-6.21-6.1s-3.66-14.65,36.62-13.43c40.28,1.22,40.42-3.63,42.18-7.92
				c1.76-4.29-1.03-14.36-22.22-16.04c-21.18-1.68-49.26-2.9-54.14-1.68c0,0,23.15-6.06,61.02-5.47
				c37.86,0.59,60.58-0.33,65.09,13.56c4.51,13.89-8.88,17.85-14.39,18.92s-14.06,1.07-14.06,1.07s-6.95,6.5-24.23,5.69
				c-17.28-0.81-36.81-3.25-39.25,1.64c-2.44,4.88-1.22,9.77,12.21,10.99s66.44,3.19,85.1-3.29s22.32-11.36,25.98-18.68
				c3.66-7.32,11.95-13.56,30.39-11.66s24.6,9.53,24.6,9.53s25.58-6.41,42.67,4.58c0,0,24.41-2.44,36.62,6.1
				c12.21,8.55,13.43,20.75,6.1,25.64c-3.66,2.44-9.69,0.92-9.69,0.92s-3.57,8.53-16.47,11.74s-33.66,3.89-45.25-4.38
				c0,0-14.04,6.37-21.36,5.15c0,0-6.1,7.32-21.97,7.32c-15.87,0-30.52-2.44-30.52-2.44s-3.66,8.55-9.77,9.77
				c0,0-0.53,5.49,19.26,6.41c19.8,0.92,32.57-7.66,39.61-8.26c7.04-0.59,22.91-3.04,27.79,4.29c0,0,18.31-10.99,29.3-6.1
				s14.65,9.77,14.65,9.77s3.36-6.11,10.22-2.44c6.87,3.66,4.43,8.55,4.43,8.55s10.99-7.32,24.41,0
				c13.43,7.32,13.43,21.97,13.43,21.97s21.97,1.22,35.4,1.22s20.75,2.44,36.62-6.1"/>
			<path class="st3" d="M1222.46,307.18c-1.22,0.15-10.99,6.26-24.41,5.04c-13.43-1.22-26.86-1.22-34.18,2.44
				c-7.32,3.66-14.04,0-14.04,0"/>
			<path class="st3" d="M1146.78,318.32c0,0,7.32-3.66,4.88-13.43c-1.22-7.32-15.86-4.89-15.87-4.88c-0.09,0.01-2.34-2.67-2.62-2.89
				c-1.92-1.46-4.39-1.71-6.53-0.49c-3.24,1.85-3.06,5.05-3.06,8.26"/>
			<path class="st3" d="M1129.69,321.98c0,0,5.8-8.85-1.37-14.8c-7.17-5.95-14.5-3.51-14.5-3.51"/>
			<path class="st3" d="M1221.24,295.13c0,0-14.65,4.88-28.08,3.66c-13.43-1.22-30.52-12.21-46.39-7.32"/>
			<path class="st3" d="M1137.32,290.22c0,0-1.53-6.08,9.46-6.08"/>
			<path class="st3" d="M1139.45,274.37c0,0-8.77-10.38-16.59-8.85s-11.48,3.97-11.48,3.97s-2.44-8.55-13.43-8.55
				s-10.99,2.44-10.99,2.44s-4.88-10.99-20.75-8.55c-15.87,2.44-20.75,8.55-19.53,20.75c0,0,1.8-15.2-15.58-16.14
				c-17.38-0.95-31.85,2.11-33.77,14.62c-1.92,12.51,2.66,20.01,10.14,20.53"/>
			<path class="st3" d="M1036.91,289.02c0,0,14.65,2.44,14.65-7.32"/>
			<path class="st3" d="M1067.43,281.7c0,0-6.1,0-7.32-3.66c-1.22-3.66,0-13.43,12.21-13.43c12.21,0,14.65,6.1,15.87,18.31"/>
			<path class="st3" d="M1094.44,307.18c0,0,9.61,1.37,10.83-7.17c1.22-8.55-7.62-9.35-7.62-9.35"/>
			<path class="st3" d="M1117.48,303.18c0,0-2.64-14.26-14.14-9.94"/>
			<path class="st3" d="M1025.93,235.31c0,0-5.8-1.94-4.12-5.85c1.68-3.91,7.78-1.47,7.78-1.47"/>
			<path class="st3" d="M1047.29,230.16c0,0,10-7.16,5.92-18.7c-4.09-11.55-31.28-20.4-41.49-18.41s-12.65,8.09-12.65,8.09
				s-10.3-4.96-16.14-3.7c-5.84,1.26-11.94,9.81-20.48,12.25s-14.65,3.66-17.09,3.66"/>
			<path class="st3" d="M1097.95,206.01c0,0-1.22,12.21-17.09,9.77c-15.87-2.44-14.7-8.12-14.7-8.12s-8.49-0.43-7.27-10.2
				c1.22-9.77,17.09-7.32,17.09-7.32"/>
			<path class="st3" d="M952.68,259.73c0,0-9.77-1.22-9.77-13.43"/>
			<path class="st3" d="M931.41,260.95c0,0-6.5-2.45-6.65-14.66s14.96-16.44,28.77-14.93"/>
			<path class="st3" d="M952.68,235.31c0,0,19.53-0.8,21.97-2.23"/>
			<path class="st3" d="M954.82,289.29c0,0-5.8,14.38-26.55,10.72c-20.75-3.66-18.92-14.51-18.92-14.51"/>
			<path class="st3" d="M939.14,285.5c0,0,7.82-14.21-10.07-16.94c-17.89-2.73-20.45,5.99-20.45,5.99s-7.74-5.72-13.58-2.94
				c-5.84,2.77-17.14,13.21-4.16,23.86"/>
			<path class="st3" d="M845.14,274.55c0,0,7.45,4.71,6.23,12.04c-1.22,7.32-8.54,10.99-14.65,10.99c-6.1,0-9.77-4.88-7.32-9.77
				c2.44-4.88,11.58-3.05,10.67,2.75"/>
			<path class="st3" d="M895.01,197.08c0,0,13.72-4.5,11.28-15.48c-1.22-4.88-3.66-4.88-3.66-4.88"/>
			<path class="st3" d="M918.5,191.37c5.02-3.12,9.13-7.95,7.09-14.15c-2.04-6.23-6.94-10.91-13.2-12.7"/>
		</g>
		<g>
			<path class="st1" d="M1460.95,297.7c4.88-1.22,9.77,3.66,7.32,9.77s-12.21,8.55-17.09,4.88c-4.88-3.66-6.1-7.31-6.1-7.32
				c0.28,0.83-3.11,1.62-3.63,1.71c-1.84,0.29-3.78-0.05-5.4-0.99c-3.66-2.14-4.81-7.02-4.47-10.98c0.36-4.2,2.56-8.23,6.17-10.49
				c0,0,3.66-2.44,7.32-2.44c0,0,7.1-11.22,26.74-8.66c19.65,2.56,15.98,11.11,15.98,11.11s21.97-4.88,30.52,4.88
				s8.55,25.64-8.55,32.96c-17.09,7.32-25.64-1.22-25.64-1.22s-14.65,20.75-39.06,18.31c-12.21-1.22-20.75-4.88-26.86-8.55
				c0,0-12.21,6.1-19.53-1.22c-3.66-3.66-4.88-7.32-3.66-9.77c0,0-7.32,3.66-14.65,2.44c0,0,20.75,9.77,13.43,32.96
				s-41.5,19.53-46.39,12.21c0,0-14.65,31.74-54.93,30.52c0,0-11.44,12.59-31.97,7.52c-8.32-2.63-13.2-6.29-13.2-6.29
				s-9.77,10.99-26.86,4.88c-17.09-6.1-23.19-18.31-21.97-25.64c1.22-7.32,3.66-8.55,3.66-8.55s-10.07-5.04-3.81-15.34
				c0,0-25.48,8.01-34.03-10.3c-4.88-9.77-3.66-17.09-3.66-17.09s-15.87,3.66-21.97-7.32c-2.44-4.88-2.44-9.77-2.44-14.65
				c0,0-24.41,6.1-36.62-1.22c-12.21-7.32-15.87-20.75-12.21-30.52c1.22-3.66,2.44-4.88,2.44-4.88s-7.32,3.66-13.43,1.22v-16.04
				v-8.38c0,0,13.43-3.66,25.63,0c0.06,0.02,1.28-1.66,1.37-1.76c1.21-1.39,2.61-2.63,4.14-3.65c4.5-3,9.97-3.32,15.03-1.67
				c5.1,1.66,10.33,4.67,13.93,8.68c1.03,1.15,2.36,2.83,2.15,4.5l24.61,0.27c0,0,8.35-13.69,35.21-10.03
				c9.77,1.22,12.21,8.55,12.21,10.99c0,0,17.09-2.44,24.41,9.77c2.44,3.66,3.97,10.53,3.82,11.98c0,0,15.71-3.43,24.26,7.55
				c0,0,1.22-4.88,3.66-6.1c0,0-8.55-25.64,23.19-40.28c31.74-14.65,56.15,2.44,56.15,2.44s17.09-3.66,34.18,4.88
				c17.09,8.55,9.67,23.2,9.67,23.2s18.4-2.45,20.84,12.2c0,0,18.31-15.87,34.18,2.44"/>
			<path class="st4" d="M1076.43,245.21c0,0,13.43-3.66,25.63,0c0.06,0.02,1.28-1.66,1.37-1.76c1.21-1.39,2.61-2.63,4.14-3.65
				c4.5-3,9.97-3.32,15.03-1.67c5.1,1.66,10.33,4.67,13.93,8.68c1.03,1.15,2.36,2.83,2.15,4.5l24.61,0.27
				c0,0,8.35-13.69,35.21-10.03c9.77,1.22,12.21,8.55,12.21,10.99c0,0,17.09-2.44,24.41,9.77c2.44,3.66,3.97,10.53,3.82,11.98
				c0,0,15.71-3.43,24.26,7.55c0,0,1.22-4.88,3.66-6.1c0,0-8.55-25.64,23.19-40.28c31.74-14.65,56.15,2.44,56.15,2.44
				s17.09-3.66,34.18,4.88c17.09,8.55,9.67,23.2,9.67,23.2s18.4-2.45,20.84,12.2c0,0,18.31-15.87,34.18,2.44"/>
			<path class="st4" d="M1460.95,297.7c4.88-1.22,9.77,3.66,7.32,9.77s-12.21,8.55-17.09,4.88c-4.88-3.66-6.1-7.31-6.1-7.32
				c0.28,0.83-3.11,1.62-3.63,1.71c-1.84,0.29-3.78-0.05-5.4-0.99c-3.66-2.14-4.81-7.02-4.47-10.98c0.36-4.2,2.56-8.23,6.17-10.49
				c0,0,3.66-2.44,7.32-2.44c0,0,7.1-11.22,26.74-8.66c19.65,2.56,15.98,11.11,15.98,11.11s21.97-4.88,30.52,4.88
				s8.55,25.64-8.55,32.96c-17.09,7.32-25.64-1.22-25.64-1.22s-14.65,20.75-39.06,18.31c-12.21-1.22-20.75-4.88-26.86-8.55
				c0,0-12.21,6.1-19.53-1.22c-3.66-3.66-4.88-7.32-3.66-9.77c0,0-7.32,3.66-14.65,2.44c0,0,20.75,9.77,13.43,32.96
				s-41.5,19.53-46.39,12.21c0,0-14.65,31.74-54.93,30.52c0,0-11.44,12.59-31.97,7.52c-8.32-2.63-13.2-6.29-13.2-6.29
				s-9.77,10.99-26.86,4.88c-17.09-6.1-23.19-18.31-21.97-25.64c1.22-7.32,3.66-8.55,3.66-8.55s-10.07-5.04-3.81-15.34
				c0,0-25.48,8.01-34.03-10.3c-4.88-9.77-3.66-17.09-3.66-17.09s-15.87,3.66-21.97-7.32c-2.44-4.88-2.44-9.77-2.44-14.65
				c0,0-24.41,6.1-36.62-1.22c-12.21-7.32-15.87-20.75-12.21-30.52c1.22-3.66,2.44-4.88,2.44-4.88s-7.32,3.66-13.43,1.22"/>
			<path class="st3" d="M1423.11,306.24c0,0-1.83,16.22-17.4,11.77c-4.58-2-4.58-4.45-4.58-4.45"/>
			<path class="st3" d="M1404.45,300.75c0,0,5.23,6.71-5.76,12.82c-10.99,6.1-24.41-3.66-23.19-14.65"/>
			<path class="st3" d="M1410.9,278.16c0,0-6.71,4.13-11.29,9.39"/>
			<path class="st3" d="M1401.14,289.3c0,0-1.22-2.59-4.88-2.59"/>
			<path class="st3" d="M1405.7,281.88c0,0-0.9-11.04-16.77-7.37c-15.87,3.66-15.87,9.77-15.87,9.77s-14.65-7.32-23.19,1.22
				c-8.55,8.55-4.27,26.3,10.68,21.69"/>
			<path class="st3" d="M1355.97,261.07c0,0,4.88-2.44,2.44-8.55c-2.44-6.1-7.32-3.66-7.32-3.66s1.22-13.43-15.87-8.55
				c-17.09,4.88-10.99,13.43-10.99,13.43s-13.43,4.88-9.77,17.09c3.66,12.21,13.43,10.99,13.43,10.99"/>
			<path class="st3" d="M1301.04,275.72c0,0-10.99-5.92-5.49-15.17c5.49-9.25,18.34-11.16,27.78-8.98"/>
			<path class="st3" d="M1320.57,334.32c3.42-0.73,6.84-2.56,9.1-5.25c4.78-5.67,3.21-14.77-1.47-19.92c0,0,6.41-13.74-5.49-21.14
				c-11.9-7.4-37.28-10.15-47.79-2.06"/>
			<path class="st3" d="M1366.04,316.34c-0.81,3.8-2.5,7.55-4.81,10.66c-5.27,7.09-13.47,8.71-21.79,6.53
				c-3.74-0.98-6.59-2.56-8.86-5.71"/>
			<path class="st3" d="M1341.32,342.86c0,0,14.04,8.55,24.72,0s3.31-23.21-0.94-23.2"/>
			<path class="st3" d="M1316.91,320.89c0,0,6.1-9.77-7.32-15.87c-13.43-6.1-46.39-10.99-46.39,6.1"/>
			<path class="st3" d="M1294.93,317.23c0,0-8.55-1.22-10.38,0c0,0-24.41-11.87-40.59-4.72c-16.17,7.16-16.78,11.03-16.78,11.03
				s-4.58-2.65-7.48-2.65c0,0,1.98-8.84-11.44-11.75c-13.43-2.9-42.73-0.46-47.61,17.85"/>
			<path class="st3" d="M1248.55,294.03c0,0-5.49,12.21-16.17,6.71s-6.71-23.04,6.57-26.47"/>
			<path class="st3" d="M1216.2,359.52c0,0-3.97-31.18,27.62-26.36c7.17,1.16,7.48,4.77,7.48,4.77s11.9-4.83,14.34,11.04"/>
			<path class="st3" d="M1226.24,351.26c-2.7,6.98-3.28,16.6,2.94,21.91c2.12,1.81,4.69,3.02,7.34,3.9
				c6.6,2.21,13.68,2.48,20.57,1.89c6.98-0.6,13.03-3.08,19.69-5.04c1.14-0.33,2.48,0.27,3.6,0.44c1.52,0.23,3.1,0.28,4.64,0.27
				c9.68-0.05,17.67-4.15,23.4-11.89c4.87-6.57,7.82-15.03,7.19-23.26c-0.18-2.41-0.69-4.8-1.58-7.05
				c-1.13-2.85-2.99-5.33-5.37-7.26"/>
			<path class="st3" d="M1202.96,323.54c0,0-9.65,1.35-11.33,9.12s2.9,12.29,4.88,12.47"/>
			<path class="st3" d="M1158.52,316.34c0,0-11.31,2.11-13.13-5.22c-1.82-7.32,6.19-14.65,14.39-14.04
				c8.2,0.61,10.34,4.29,10.49,6.72"/>
			<path class="st3" d="M1206.26,308.78c0,0-12.02-3.45-10.5-16.42c0,0-14.18,7.29-21.59-12c0,0-5.25,14.9-21.59,8.79
				c0,0-10.85,19.53-33.74,11.6c-22.89-7.93-11.29-30.21,0-22.74"/>
			<path class="st3" d="M1138.19,284.57c0,0,9.65-17.95-9.58-21.33s-34,0.67-40.04,7.19"/>
			<path class="st3" d="M1204.6,268.4c0,0-3.66-9.77,6.1-15.87"/>
			<path class="st3" d="M1140.59,275.72c0,0,10.3,2.44,21.28-4.88s29.17-13.98,42.05-7.6"/>
			<path class="st3" d="M1206.64,256.11c0,0-6.61-7.12-20.19-5.35c-8.25,1.08-15.4,5.48-22.81,8.9c-7.29,3.37-17.52,6.64-25.44,3.58
				c0,0,0.49-18.04-15.38-18.04c-15.87,0-18.01,5.55-18.01,5.55"/>
			<path class="st3" d="M1080.09,223.23c0,0,27.58,9.77,40.65-6.71c13.07-16.48-26-34.79-47.97-25.02"/>
		</g>
	</g>
	<g>
		<g>
			<path class="st3" d="M827.71,301.29c0,0-23.08-4.07-33.94,2.71c-6.11,3.67-18.36-3.46-24.04-5.53
				c-14.14-5.15-29.7-7.07-44.68-7.86c-11.52-0.6-24.85,1-30.04,12.91c0,0-21.38-2-26.47,7.38c-5.09,9.38-8.13,26.35,15.11,25.34
				c6.95,0.34,8.31-1.02,8.31-1.02v5.43c0,0-10.86,0-13.57,4.07c0,0-8.21-18.08-35.33-15.83c-5.4,0.9-8.11,2.25-8.11,2.25
				s-17.65-17.65-39.37-10.86c-21.72,6.79-29.1,27.83-34.23,30.88c-5.13,3.05-16.02,3.73-16-8.82s1.37-19.34-21.71-27.49
				c-23.08-8.14-54.3,2.71-62.44,13.57c-8.14,10.86-30.76,9.5-43.89-12.22c-15.84-16.29-47.32-12.9-56.02,0.34
				s-9.81,40.38,24.01,43.1c16.17,0,24.01-6.45,24.01-6.45s5.74,20.02,28.81,17.31c6.79,0,14.34-8.78,14.34-8.78
				s4.2,15.57,28.87,15.56c0,0-9.45,2.03-8,12.56c1.45,10.52,17.74,17.31,38.1,14.59s46.09-7.58,56.98-1.07
				c10.89,6.5,9.54,10.58,1.39,11.93c-8.14,1.36-26.81-2.71-55.49,0c-28.68,2.71-73.47,1.36-91.12-1.36
				c-17.65-2.71-25.11-3.83-34.28,2.84s-3.61,10.74-3.61,10.74s-6.91,1.36-6.91,6.79c0,5.43-4.07,16.29,40.72,14.93
				s44.95,4.04,46.91,8.81c1.96,4.77-1.15,15.97-24.71,17.83c-23.56,1.87-54.78,3.22-60.21,1.87c0,0,25.75,6.74,67.85,6.09
				c42.1-0.66,67.37,0.36,72.38-15.08s-9.88-19.85-16-21.04c-6.13-1.19-15.63-1.19-15.63-1.19s-7.72-7.22-26.94-6.33
				s-40.93,3.61-43.65-1.82c-2.71-5.43-1.36-10.86,13.57-12.22c14.93-1.36,73.88-3.54,94.63,3.66c20.75,7.2,24.82,12.63,28.89,20.78
				s13.29,15.08,33.8,12.97s27.35-10.59,27.35-10.59s28.44,7.13,47.45-5.09c0,0,27.15,2.71,40.72-6.79
				c13.57-9.5,14.93-23.08,6.79-28.51c-4.07-2.71-10.77-1.02-10.77-1.02s-3.97-9.49-18.32-13.06c-14.35-3.57-37.43-4.33-50.32,4.87
				c0,0-15.61-7.09-23.76-5.73c0,0-6.79-8.14-24.43-8.14s-33.94,2.71-33.94,2.71s-4.07-9.5-10.86-10.86c0,0-0.59-6.11,21.42-7.13
				c22.02-1.02,36.22,8.52,44.05,9.18c7.83,0.66,25.48,3.38,30.91-4.77c0,0,20.36,12.22,32.58,6.79
				c12.22-5.43,16.29-10.86,16.29-10.86s3.73,6.79,11.37,2.72c7.64-4.07,4.92-9.5,4.92-9.5s12.22,8.14,27.15,0
				c14.93-8.14,14.93-24.43,14.93-24.43s24.43-1.36,39.37-1.36c14.93,0,23.08-2.71,40.72,6.79"/>
			<path class="st3" d="M827.71,317.75c-1.36-0.17-12.22-6.96-27.15-5.6c-14.93,1.36-29.86,1.36-38.01-2.71s-15.61,0-15.61,0"/>
			<path class="st3" d="M743.54,305.36c0,0,8.14,4.07,5.43,14.93c-1.36,8.14-17.63,5.43-17.65,5.43c-0.09-0.02-2.61,2.97-2.92,3.21
				c-2.13,1.63-4.88,1.9-7.26,0.54c-3.6-2.05-3.4-5.61-3.4-9.19"/>
			<path class="st3" d="M724.54,301.29c0,0,6.45,9.84-1.53,16.46c-7.98,6.62-16.12,3.9-16.12,3.9"/>
			<path class="st3" d="M826.35,331.15c0,0-16.29-5.43-31.22-4.07c-14.93,1.36-33.94,13.57-51.58,8.14"/>
			<path class="st3" d="M733.02,336.61c0,0-1.7,6.76,10.52,6.76"/>
			<path class="st3" d="M735.4,354.23c0,0-9.76,11.54-18.45,9.84c-8.7-1.7-12.77-4.41-12.77-4.41s-2.71,9.5-14.93,9.5
				s-12.22-2.71-12.22-2.71s-5.43,12.22-23.08,9.5s-23.08-9.5-21.72-23.08c0,0,2,16.9-17.33,17.95
				c-19.32,1.05-35.42-2.34-37.55-16.26s2.96-22.25,11.27-22.83"/>
			<path class="st3" d="M621.37,337.94c0,0,16.29-2.71,16.29,8.14"/>
			<path class="st3" d="M655.31,346.08c0,0-6.79,0-8.14,4.07c-1.36,4.07,0,14.93,13.57,14.93c13.57,0,16.29-6.79,17.65-20.36"/>
			<path class="st3" d="M685.34,317.75c0,0,10.69-1.53,12.05,7.98c1.36,9.5-8.48,10.4-8.48,10.4"/>
			<path class="st3" d="M710.97,322.2c0,0-2.94,15.86-15.72,11.05"/>
			<path class="st3" d="M609.16,397.67c0,0-6.45,2.16-4.58,6.51c1.87,4.35,8.65,1.63,8.65,1.63"/>
			<path class="st3" d="M632.91,403.4c0,0,11.12,7.96,6.58,20.8c-4.54,12.84-34.78,22.68-46.13,20.47
				c-11.35-2.21-14.07-8.99-14.07-8.99s-11.45,5.52-17.94,4.12c-6.49-1.4-13.28-10.91-22.78-13.62c-9.5-2.71-16.29-4.07-19-4.07"/>
			<path class="st3" d="M689.25,430.25c0,0-1.36-13.57-19-10.86c-17.65,2.71-16.35,9.02-16.35,9.02s-9.44,0.48-8.09,11.34
				c1.36,10.86,19,8.14,19,8.14"/>
			<path class="st3" d="M527.71,370.52c0,0-10.86,1.36-10.86,14.93"/>
			<path class="st3" d="M504.05,369.15c0,0-7.23,2.72-7.4,16.3c-0.17,13.57,16.63,18.28,31.99,16.61"/>
			<path class="st3" d="M527.71,397.67c0,0,21.72,0.89,24.44,2.48"/>
			<path class="st3" d="M530.08,337.64c0,0-6.45-15.99-29.52-11.92c-23.08,4.07-21.04,16.14-21.04,16.14"/>
			<path class="st3" d="M512.65,341.86c0,0,8.7,15.8-11.2,18.84c-19.9,3.03-22.74-6.66-22.74-6.66s-8.61,6.36-15.1,3.27
				c-6.49-3.08-19.06-14.69-4.63-26.53"/>
			<path class="st3" d="M408.11,354.04c0,0,8.28-5.24,6.93-13.38c-1.36-8.14-9.5-12.22-16.29-12.22c-6.79,0-10.86,5.43-8.14,10.86
				c2.71,5.43,12.87,3.39,11.87-3.05"/>
			<path class="st3" d="M463.58,440.18c0,0,15.26,5,12.55,17.22c-1.36,5.43-4.07,5.43-4.07,5.43"/>
			<path class="st3" d="M489.7,446.54c5.58,3.47,10.15,8.84,7.89,15.74c-2.27,6.93-7.71,12.14-14.68,14.13"/>
		</g>
		<g>
			<path class="st3" d="M1092.91,328.29c5.43,1.36,10.86-4.07,8.14-10.86c-2.71-6.79-13.57-9.5-19-5.43
				c-5.42,4.07-6.78,8.13-6.79,8.14c0.31-0.92-3.46-1.8-4.04-1.9c-2.05-0.33-4.21,0.05-6,1.1c-4.07,2.38-5.35,7.81-4.97,12.21
				c0.4,4.67,2.85,9.16,6.87,11.67c0,0,4.07,2.71,8.14,2.71c0,0,7.89,12.48,29.74,9.63c21.85-2.85,17.77-12.35,17.77-12.35
				s24.43,5.43,33.94-5.43c9.5-10.86,9.5-28.51-9.5-36.65c-19-8.14-28.51,1.36-28.51,1.36s-16.29-23.08-43.44-20.36
				c-13.57,1.36-23.08,5.43-29.86,9.5c0,0-13.57-6.79-21.72,1.36c-4.07,4.07-5.43,8.14-4.07,10.86c0,0-8.14-4.07-16.29-2.71
				c0,0,23.08-10.86,14.93-36.65c-8.14-25.79-46.15-21.72-51.58-13.57c0,0-16.29-35.29-61.09-33.94c0,0-12.72-14-35.55-8.36
				c-9.25,2.93-14.68,7-14.68,7s-10.86-12.22-29.86-5.43c-19,6.79-25.79,20.36-24.43,28.51s4.07,9.5,4.07,9.5s-11.19,5.6-4.24,17.05
				c0,0-28.34-8.91-37.84,11.45c-5.43,10.86-4.07,19-4.07,19s-17.65-4.07-24.43,8.14c-2.71,5.43-2.71,10.86-2.71,16.29
				c0,0-27.15-6.79-40.72,1.36c-13.57,8.14-17.65,23.08-13.57,33.94c1.36,4.07,2.71,5.43,2.71,5.43s-8.14-4.07-14.93-1.36v27.15
				c0,0,14.93,4.07,28.51,0c0.06-0.02,1.42,1.84,1.52,1.96c1.35,1.54,2.9,2.92,4.6,4.06c5,3.34,11.08,3.69,16.72,1.85
				c5.67-1.85,11.49-5.19,15.49-9.66c1.15-1.28,2.62-3.15,2.39-5.01l27.36-0.3c0,0,9.29,15.23,39.15,11.15
				c10.86-1.36,13.57-9.5,13.57-12.22c0,0,19,2.71,27.15-10.86c2.71-4.07,4.42-11.71,4.25-13.32c0,0,17.47,3.82,26.98-8.4
				c0,0,1.36,5.43,4.07,6.79c0,0-9.5,28.51,25.79,44.8s62.44-2.71,62.44-2.71s19,4.07,38.01-5.43c19-9.5,10.76-25.8,10.76-25.8
				s20.46,2.73,23.18-13.56c0,0,20.36,17.65,38.01-2.71"/>
			<path class="st3" d="M1050.83,318.79c0,0-2.04-18.03-19.34-13.09c-5.09,2.23-5.09,4.94-5.09,4.94"/>
			<path class="st3" d="M1030.08,324.9c0,0,5.82-7.47-6.4-14.25s-27.15,4.07-25.79,16.29"/>
			<path class="st3" d="M1037.26,350.01c0,0-7.47-4.6-12.56-10.44"/>
			<path class="st3" d="M1026.4,337.63c0,0-1.36,2.88-5.43,2.88"/>
			<path class="st3" d="M1031.47,345.89c0,0-1,12.27-18.64,8.2s-17.65-10.86-17.65-10.86s-16.29,8.14-25.79-1.36
				c-9.5-9.5-4.75-29.24,11.88-24.12"/>
			<path class="st3" d="M976.17,369.02c0,0,5.43,2.71,2.71,9.5c-2.71,6.79-8.14,4.07-8.14,4.07s1.36,14.93-17.65,9.5
				c-19-5.43-12.22-14.93-12.22-14.93s-14.93-5.43-10.86-19c4.07-13.57,14.93-12.22,14.93-12.22"/>
			<path class="st3" d="M915.08,352.73c0,0-12.22,6.58-6.11,16.87c6.11,10.28,20.39,12.41,30.9,9.99"/>
			<path class="st3" d="M936.8,287.57c3.8,0.81,7.6,2.85,10.12,5.84c5.31,6.31,3.57,16.42-1.63,22.16c0,0,7.13,15.28-6.11,23.51
				c-13.24,8.23-41.46,11.28-53.14,2.29"/>
			<path class="st3" d="M987.37,307.56c-0.9-4.22-2.78-8.4-5.35-11.85c-5.86-7.88-14.98-9.69-24.23-7.26
				c-4.16,1.09-7.33,2.84-9.85,6.35"/>
			<path class="st3" d="M959.88,278.07c0,0,15.61-9.5,27.49,0c11.88,9.5,3.68,25.81-1.05,25.8"/>
			<path class="st3" d="M932.73,302.5c0,0,6.79,10.86-8.14,17.65c-14.93,6.79-51.58,12.22-51.58-6.79"/>
			<path class="st3" d="M908.3,306.57c0,0-9.5,1.36-11.54,0c0,0-27.15,13.2-45.14,5.24c-17.99-7.96-18.67-12.26-18.67-12.26
				s-5.09,2.94-8.31,2.94c0,0,2.21,9.83-12.73,13.06c-14.93,3.23-47.51,0.51-52.94-19.85"/>
			<path class="st3" d="M856.71,332.37c0,0-6.11-13.57-17.99-7.47c-11.88,6.11-7.46,25.62,7.3,29.44"/>
			<path class="st3" d="M820.74,259.55c0,0-4.41,34.67,30.71,29.31c7.98-1.29,8.31-5.3,8.31-5.3s13.24,5.37,15.95-12.27"/>
			<path class="st3" d="M831.91,268.74c-3.01-7.76-3.65-18.45,3.27-24.36c2.36-2.01,5.22-3.35,8.16-4.34
				c7.34-2.45,15.21-2.76,22.87-2.1c7.77,0.67,14.49,3.43,21.9,5.6c1.26,0.37,2.76-0.3,4-0.49c1.69-0.26,3.45-0.31,5.16-0.3
				c10.76,0.06,19.65,4.61,26.03,13.23c5.42,7.31,8.7,16.71,8,25.87c-0.2,2.68-0.76,5.34-1.75,7.84c-1.25,3.17-3.33,5.93-5.97,8.07"
				/>
			<path class="st3" d="M806.02,299.56c0,0-10.73-1.5-12.59-10.14c-1.87-8.64,3.22-13.67,5.43-13.87"/>
			<path class="st3" d="M756.6,307.56c0,0-12.58-2.34-14.6,5.8c-2.02,8.14,6.89,16.29,16,15.61c9.12-0.68,11.5-4.77,11.67-7.48"/>
			<path class="st3" d="M809.69,315.97c0,0-13.37,3.84-11.68,18.26c0,0-15.76-8.11-24.01,13.34c0,0-5.84-16.56-24.01-9.78
				c0,0-12.06-21.72-37.52-12.9c-25.45,8.82-12.56,33.6,0,25.28"/>
			<path class="st3" d="M733.99,342.89c0,0,10.73,19.96-10.65,23.72c-21.38,3.77-37.81-0.74-44.53-7.99"/>
			<path class="st3" d="M807.84,360.87c0,0-4.07,10.86,6.79,17.65"/>
			<path class="st3" d="M736.67,352.73c0,0,11.45-2.71,23.67,5.43s32.44,15.54,46.76,8.45"/>
			<path class="st3" d="M810.11,374.54c0,0-7.35,7.92-22.46,5.95c-9.17-1.2-17.12-6.09-25.37-9.9c-8.11-3.74-19.49-7.38-28.29-3.98
				c0,0,0.55,20.06-17.1,20.06c-17.65,0-20.02-6.18-20.02-6.18"/>
			<path class="st3" d="M669.38,411.1c0,0,30.67-10.86,45.2,7.47s-28.91,38.69-53.34,27.83"/>
		</g>
	</g>
</g>
<g>
	<g>
		<g>
			<path class="st0" d="M1400.2,187.01c0,0,22,3.88,32.36-2.59c5.83-3.5,17.5,3.3,22.92,5.27c13.48,4.91,28.31,6.74,42.6,7.49
				c10.98,0.58,23.69-0.95,28.64-12.31c0,0,20.38,1.91,25.24-7.04s7.75-25.13-14.41-24.16c-6.63-0.32-7.92,0.97-7.92,0.97v-5.18
				c0,0,10.35,0,12.94-3.88c0,0,7.83,17.24,33.68,15.09c5.15-0.85,7.73-2.15,7.73-2.15s16.83,16.83,37.53,10.35
				c20.71-6.47,27.75-26.53,32.64-29.44c4.89-2.91,15.27-3.56,15.26,8.41c-0.01,11.97-1.31,18.44,20.7,26.21s51.77-2.59,59.54-12.94
				c7.77-10.35,29.33-9.06,41.84,11.65c15.1,15.53,45.12,12.3,53.41-0.32s9.35-38.5-22.89-41.09c-15.42,0-22.89,6.15-22.89,6.15
				s-5.47-19.09-27.47-16.5c-6.47,0-13.67,8.37-13.67,8.37s-4.01-14.84-27.52-14.84c0,0,9.01-1.94,7.63-11.97
				s-16.91-16.5-36.32-13.91c-19.41,2.59-43.94,7.22-54.33,1.02c-10.39-6.2-9.09-10.08-1.33-11.38c7.77-1.29,25.56,2.59,52.9,0
				c27.34-2.59,70.05-1.29,86.88,1.29c16.83,2.59,23.94,3.65,32.68-2.71c8.74-6.35,3.44-10.24,3.44-10.24s6.59-1.29,6.59-6.47
				c0-5.18,3.88-15.53-38.83-14.24c-42.71,1.29-42.85-3.85-44.72-8.4s1.1-15.22,23.56-17s52.23-3.07,57.41-1.78
				c0,0-24.55-6.43-64.69-5.8c-40.14,0.63-64.23-0.35-69.01,14.38c-4.78,14.72,9.42,18.93,15.26,20.06
				c5.84,1.13,14.9,1.13,14.9,1.13s7.37,6.89,25.68,6.03c18.32-0.85,39.03-3.44,41.62,1.73c2.59,5.18,1.29,10.35-12.94,11.65
				s-70.44,3.38-90.23-3.49s-23.67-12.04-27.55-19.81c-3.88-7.77-12.67-14.37-32.22-12.36c-19.55,2.01-26.08,10.1-26.08,10.1
				s-27.12-6.79-45.24,4.85c0,0-25.88-2.59-38.83,6.47c-12.94,9.06-14.24,22-6.47,27.18c3.88,2.59,10.27,0.97,10.27,0.97
				s3.78,9.04,17.46,12.45c13.68,3.41,35.68,4.13,47.98-4.65c0,0,14.88,6.76,22.65,5.46c0,0,6.47,7.77,23.3,7.77
				c16.83,0,32.36-2.59,32.36-2.59s3.88,9.06,10.35,10.35c0,0,0.57,5.82-20.42,6.79c-20.99,0.97-34.53-8.12-42-8.75
				s-24.29-3.22-29.47,4.55c0,0-19.41-11.65-31.06-6.47c-11.65,5.18-15.53,10.35-15.53,10.35s-3.56-6.47-10.84-2.59
				c-7.28,3.88-4.69,9.06-4.69,9.06s-11.65-7.77-25.88,0c-14.24,7.77-14.24,23.3-14.24,23.3s-23.3,1.29-37.53,1.29
				s-22,2.59-38.83-6.47"/>
			<path class="st0" d="M1400.2,171.31c1.29,0.16,11.65,6.63,25.88,5.34c14.24-1.29,28.47-1.29,36.24,2.59
				c7.77,3.88,14.88,0,14.88,0"/>
			<path class="st0" d="M1480.44,183.12c0,0-7.77-3.88-5.18-14.24c1.29-7.76,16.81-5.18,16.83-5.18c0.09,0.02,2.48-2.84,2.78-3.06
				c2.03-1.55,4.65-1.81,6.92-0.52c3.44,1.96,3.24,5.35,3.24,8.76"/>
			<path class="st0" d="M1498.56,187.01c0,0-6.15-9.38,1.46-15.69c7.6-6.31,15.37-3.72,15.37-3.72"/>
			<path class="st0" d="M1401.49,158.53c0,0,15.53,5.18,29.77,3.88s32.36-12.94,49.18-7.77"/>
			<path class="st0" d="M1490.47,153.33c0,0,1.62-6.45-10.03-6.45"/>
			<path class="st0" d="M1488.21,136.53c0,0,9.3-11,17.59-9.38s12.17,4.21,12.17,4.21s2.59-9.06,14.24-9.06s11.65,2.59,11.65,2.59
				s5.18-11.65,22-9.06c16.83,2.59,22,9.06,20.71,22c0,0-1.9-16.12,16.52-17.12s33.77,2.23,35.8,15.5
				c2.03,13.27-2.82,21.21-10.75,21.77"/>
			<path class="st0" d="M1596.92,152.06c0,0-15.53,2.59-15.53-7.77"/>
			<path class="st0" d="M1564.57,144.3c0,0,6.47,0,7.77-3.88c1.29-3.88,0-14.24-12.94-14.24c-12.94,0-15.53,6.47-16.83,19.41"/>
			<path class="st0" d="M1535.93,171.31c0,0-10.19,1.46-11.49-7.6c-1.29-9.06,8.08-9.92,8.08-9.92"/>
			<path class="st0" d="M1511.5,167.07c0,0,2.8-15.12,14.99-10.54"/>
			<path class="st0" d="M1608.57,95.11c0,0,6.15-2.06,4.37-6.21c-1.78-4.15-8.25-1.56-8.25-1.56"/>
			<path class="st0" d="M1585.92,89.65c0,0-10.61-7.59-6.27-19.83s33.16-21.62,43.99-19.52c10.82,2.1,13.41,8.57,13.41,8.57
				s10.92-5.26,17.11-3.93c6.19,1.34,12.66,10.4,21.72,12.99c9.06,2.59,15.53,3.88,18.12,3.88"/>
			<path class="st0" d="M1532.21,64.05c0,0,1.29,12.94,18.12,10.35s15.59-8.6,15.59-8.6s9-0.46,7.71-10.81s-18.12-7.77-18.12-7.77"
				/>
			<path class="st0" d="M1686.23,121c0,0,10.35-1.29,10.35-14.24"/>
			<path class="st0" d="M1708.78,122.3c0,0,6.89-2.6,7.05-15.54c0.16-12.94-15.86-17.43-30.5-15.83"/>
			<path class="st0" d="M1686.23,95.11c0,0-20.71-0.85-23.3-2.37"/>
			<path class="st0" d="M1683.96,152.35c0,0,6.15,15.24,28.15,11.36c22-3.88,20.06-15.39,20.06-15.39"/>
			<path class="st0" d="M1700.58,148.32c0,0-8.29-15.06,10.68-17.96s21.68,6.35,21.68,6.35s8.21-6.06,14.4-3.12s18.17,14,4.41,25.3"
				/>
			<path class="st0" d="M1800.25,136.71c0,0-7.9,5-6.6,12.76c1.29,7.77,9.06,11.65,15.53,11.65s10.35-5.18,7.77-10.35
				s-12.28-3.24-11.31,2.91"/>
			<path class="st0" d="M1747.37,54.58c0,0-14.55-4.77-11.96-16.41c1.29-5.18,3.88-5.18,3.88-5.18"/>
			<path class="st0" d="M1722.47,48.52c-5.32-3.31-9.68-8.43-7.52-15.01c2.17-6.61,7.35-11.57,13.99-13.47"/>
		</g>
		<g>
			<path class="st1" d="M1147.35,161.26c-5.18-1.29-10.35,3.88-7.77,10.35c2.59,6.47,12.94,9.06,18.12,5.18
				c5.17-3.88,6.47-7.75,6.47-7.76c-0.29,0.88,3.3,1.72,3.85,1.81c1.95,0.31,4.01-0.05,5.72-1.05c3.88-2.27,5.1-7.44,4.74-11.64
				c-0.38-4.45-2.72-8.73-6.55-11.12c0,0-3.88-2.59-7.77-2.59c0,0-7.52-11.9-28.35-9.19c-20.83,2.71-16.95,11.77-16.95,11.77
				s-23.3-5.18-32.36,5.18s-9.06,27.18,9.06,34.94s27.18-1.29,27.18-1.29s15.53,22,41.42,19.41c12.94-1.29,22-5.18,28.47-9.06
				c0,0,12.94,6.47,20.71-1.29c3.88-3.88,5.18-7.77,3.88-10.35c0,0,7.77,3.88,15.53,2.59c0,0-22,10.35-14.24,34.94
				c7.77,24.59,44,20.71,49.18,12.94c0,0,15.53,33.65,58.24,32.36c0,0,12.13,13.35,33.89,7.97c8.82-2.79,14-6.67,14-6.67
				s10.35,11.65,28.47,5.18c18.12-6.47,24.59-19.41,23.3-27.18c-1.29-7.77-3.88-9.06-3.88-9.06s10.67-5.34,4.04-16.26
				c0,0,27.02,8.49,36.08-10.92c5.18-10.35,3.88-18.12,3.88-18.12s16.83,3.88,23.3-7.77c2.59-5.18,2.59-10.35,2.59-15.53
				c0,0,25.88,6.47,38.83-1.29c12.94-7.77,16.83-22,12.94-32.36c-1.29-3.88-2.59-5.18-2.59-5.18s7.77,3.88,14.24,1.29v-17v-8.88
				c0,0-14.24-3.88-27.18,0c-0.06,0.02-1.35-1.76-1.45-1.87c-1.29-1.47-2.76-2.79-4.39-3.87c-4.77-3.18-10.57-3.52-15.94-1.77
				c-5.4,1.76-10.96,4.95-14.77,9.21c-1.1,1.22-2.5,3-2.28,4.77l-26.09,0.28c0,0-8.86-14.52-37.33-10.64
				c-10.35,1.29-12.94,9.06-12.94,11.65c0,0-18.12-2.59-25.88,10.35c-2.59,3.88-4.21,11.16-4.05,12.7c0,0-16.66-3.64-25.72,8.01
				c0,0-1.29-5.18-3.88-6.47c0,0,9.06-27.18-24.59-42.71c-33.65-15.53-59.54,2.59-59.54,2.59s-18.12-3.88-36.24,5.18
				s-10.26,24.6-10.26,24.6s-19.51-2.6-22.1,12.93c0,0-19.41-16.83-36.24,2.59"/>
			<path class="st2" d="M1555.03,105.6c0,0-14.24-3.88-27.18,0c-0.06,0.02-1.35-1.76-1.45-1.87c-1.29-1.47-2.76-2.79-4.39-3.87
				c-4.77-3.18-10.57-3.52-15.94-1.77c-5.4,1.76-10.96,4.95-14.77,9.21c-1.1,1.22-2.5,3-2.28,4.77l-26.09,0.28
				c0,0-8.86-14.52-37.33-10.64c-10.35,1.29-12.94,9.06-12.94,11.65c0,0-18.12-2.59-25.88,10.35c-2.59,3.88-4.21,11.16-4.05,12.7
				c0,0-16.66-3.64-25.72,8.01c0,0-1.29-5.18-3.88-6.47c0,0,9.06-27.18-24.59-42.71c-33.65-15.53-59.54,2.59-59.54,2.59
				s-18.12-3.88-36.24,5.18s-10.26,24.6-10.26,24.6s-19.51-2.6-22.1,12.93c0,0-19.41-16.83-36.24,2.59"/>
			<path class="st2" d="M1147.35,161.26c-5.18-1.29-10.35,3.88-7.77,10.35c2.59,6.47,12.94,9.06,18.12,5.18
				c5.17-3.88,6.47-7.75,6.47-7.76c-0.29,0.88,3.3,1.72,3.85,1.81c1.95,0.31,4.01-0.05,5.72-1.05c3.88-2.27,5.1-7.44,4.74-11.64
				c-0.38-4.45-2.72-8.73-6.55-11.12c0,0-3.88-2.59-7.77-2.59c0,0-7.52-11.9-28.35-9.19c-20.83,2.71-16.95,11.77-16.95,11.77
				s-23.3-5.18-32.36,5.18s-9.06,27.18,9.06,34.94s27.18-1.29,27.18-1.29s15.53,22,41.42,19.41c12.94-1.29,22-5.18,28.47-9.06
				c0,0,12.94,6.47,20.71-1.29c3.88-3.88,5.18-7.77,3.88-10.35c0,0,7.77,3.88,15.53,2.59c0,0-22,10.35-14.24,34.94
				c7.77,24.59,44,20.71,49.18,12.94c0,0,15.53,33.65,58.24,32.36c0,0,12.13,13.35,33.89,7.97c8.82-2.79,14-6.67,14-6.67
				s10.35,11.65,28.47,5.18c18.12-6.47,24.59-19.41,23.3-27.18c-1.29-7.77-3.88-9.06-3.88-9.06s10.67-5.34,4.04-16.26
				c0,0,27.02,8.49,36.08-10.92c5.18-10.35,3.88-18.12,3.88-18.12s16.83,3.88,23.3-7.77c2.59-5.18,2.59-10.35,2.59-15.53
				c0,0,25.88,6.47,38.83-1.29c12.94-7.77,16.83-22,12.94-32.36c-1.29-3.88-2.59-5.18-2.59-5.18s7.77,3.88,14.24,1.29"/>
			<path class="st0" d="M1187.47,170.32c0,0,1.94,17.19,18.44,12.48c4.85-2.12,4.85-4.71,4.85-4.71"/>
			<path class="st0" d="M1207.25,164.49c0,0-5.54,7.12,6.1,13.59c11.65,6.47,25.88-3.88,24.59-15.53"/>
			<path class="st0" d="M1200.41,140.55c0,0,7.12,4.38,11.97,9.96"/>
			<path class="st0" d="M1210.76,152.36c0,0,1.29-2.75,5.18-2.75"/>
			<path class="st0" d="M1205.93,144.48c0,0,0.95-11.7,17.78-7.82c16.83,3.88,16.83,10.35,16.83,10.35s15.53-7.77,24.59,1.29
				s4.53,27.88-11.32,23"/>
			<path class="st0" d="M1258.65,122.43c0,0-5.18-2.59-2.59-9.06s7.77-3.88,7.77-3.88s-1.29-14.24,16.83-9.06
				c18.12,5.18,11.65,14.24,11.65,14.24s14.24,5.18,10.35,18.12s-14.24,11.65-14.24,11.65"/>
			<path class="st0" d="M1316.89,137.96c0,0,11.65-6.27,5.82-16.08s-19.44-11.83-29.46-9.52"/>
			<path class="st0" d="M1296.18,200.08c-3.63-0.78-7.25-2.72-9.65-5.57c-5.06-6.01-3.4-15.66,1.56-21.12c0,0-6.79-14.56,5.82-22.41
				c12.62-7.85,39.53-10.76,50.67-2.18"/>
			<path class="st0" d="M1247.97,181.02c0.86,4.03,2.65,8,5.1,11.3c5.59,7.52,14.28,9.23,23.1,6.92c3.97-1.04,6.99-2.71,9.39-6.06"
				/>
			<path class="st0" d="M1274.18,209.14c0,0-14.88,9.06-26.21,0c-11.32-9.06-3.51-24.61,1-24.6"/>
			<path class="st0" d="M1300.07,185.85c0,0-6.47-10.35,7.77-16.83c14.24-6.47,49.18-11.65,49.18,6.47"/>
			<path class="st0" d="M1323.36,181.96c0,0,9.06-1.29,11,0c0,0,25.88-12.59,43.03-5c17.15,7.59,17.8,11.69,17.8,11.69
				s4.85-2.81,7.93-2.81c0,0-2.1-9.37,12.13-12.45c14.24-3.08,45.3-0.49,50.48,18.92"/>
			<path class="st0" d="M1372.54,157.37c0,0,5.82,12.94,17.15,7.12c11.32-5.82,7.11-24.43-6.96-28.07"/>
			<path class="st0" d="M1406.84,226.8c0,0,4.21-33.06-29.28-27.95c-7.6,1.23-7.93,5.06-7.93,5.06s-12.62-5.12-15.21,11.7"/>
			<path class="st0" d="M1396.19,218.04c2.87,7.4,3.48,17.6-3.12,23.23c-2.25,1.92-4.98,3.2-7.78,4.13c-7,2.34-14.5,2.63-21.8,2
				c-7.4-0.64-13.82-3.27-20.88-5.34c-1.2-0.35-2.63,0.29-3.82,0.47c-1.61,0.25-3.29,0.29-4.92,0.29
				c-10.26-0.05-18.73-4.4-24.81-12.61c-5.16-6.97-8.29-15.93-7.63-24.66c0.19-2.55,0.73-5.09,1.67-7.47
				c1.19-3.02,3.17-5.65,5.69-7.7"/>
			<path class="st0" d="M1420.88,188.65c0,0,10.23,1.43,12.01,9.67s-3.07,13.03-5.18,13.22"/>
			<path class="st0" d="M1468,181.02c0,0,11.99,2.23,13.92-5.53s-6.56-15.53-15.26-14.88s-10.96,4.55-11.12,7.13"/>
			<path class="st0" d="M1417.37,173c0,0,12.75-3.66,11.14-17.41c0,0,15.03,7.73,22.89-12.72c0,0,5.56,15.79,22.89,9.32
				c0,0,11.5,20.71,35.77,12.3c24.27-8.41,11.97-32.03,0-24.11"/>
			<path class="st0" d="M1489.55,147.34c0,0-10.23-19.03,10.16-22.62c20.38-3.59,36.05,0.71,42.45,7.62"/>
			<path class="st0" d="M1419.14,130.19c0,0,3.88-10.35-6.47-16.83"/>
			<path class="st0" d="M1487,137.96c0,0-10.92,2.59-22.56-5.18s-30.93-14.82-44.59-8.06"/>
			<path class="st0" d="M1416.98,117.17c0,0,7.01-7.55,21.41-5.67c8.74,1.14,16.33,5.81,24.19,9.44c7.73,3.57,18.58,7.04,26.97,3.8
				c0,0-0.52-19.12,16.3-19.12s19.09,5.89,19.09,5.89"/>
		</g>
	</g>
</g>
</svg>
