<svg width="2014" height="692" viewBox="0 0 2014 692" fill="none" xmlns="http://www.w3.org/2000/svg">
<g clip-path="url(#clip0_452_10097)">
<path d="M1176.96 456.418C1176.96 456.418 1119.43 466.561 1092.34 449.648C1077.1 440.499 1046.59 458.274 1032.41 463.424C997.169 476.259 958.393 481.043 921.029 483.004C892.319 484.52 859.086 480.52 846.144 450.824C846.144 450.824 792.856 455.817 780.148 432.421C767.467 409.025 759.885 366.729 817.826 369.265C835.162 368.428 838.535 371.801 838.535 371.801V358.26C838.535 358.26 811.473 358.26 804.701 348.117C804.701 348.117 784.227 393.184 716.637 387.563C703.172 385.342 696.426 381.943 696.426 381.943C696.426 381.943 652.42 425.938 598.296 408.999C544.146 392.086 525.738 339.647 512.952 332.04C500.166 324.433 473.026 322.734 473.052 354.025C473.078 385.315 476.477 402.229 418.928 422.54C361.404 442.851 283.564 415.769 263.248 388.714C242.932 361.658 186.559 365.03 153.849 419.168C114.367 459.764 35.8737 451.321 14.1978 418.331C-7.47815 385.342 -10.2496 317.689 74.0483 310.919C114.367 310.919 133.899 326.995 133.899 326.995C133.899 326.995 148.201 277.092 205.725 283.863C222.642 283.863 241.468 305.743 241.468 305.743C241.468 305.743 251.953 266.95 313.424 266.95C313.424 266.95 289.866 261.878 293.474 235.659C297.082 209.44 337.689 192.527 388.44 199.297C439.191 206.068 503.33 218.171 530.497 201.964C557.664 185.756 554.264 175.614 533.974 172.215C513.684 168.817 467.143 178.986 395.657 172.215C324.171 165.445 212.497 168.843 168.491 175.588C124.486 182.332 105.895 185.129 83.043 168.503C60.1904 151.904 74.0483 141.735 74.0483 141.735C74.0483 141.735 56.8174 138.363 56.8174 124.822C56.8174 111.281 46.6724 84.2253 158.346 87.5975C270.02 90.9697 270.386 77.5333 275.276 65.6392C280.165 53.7451 272.4 25.8529 213.673 21.1998C154.947 16.5467 77.1075 13.1746 63.5634 16.5467C63.5634 16.5467 127.754 -0.261817 232.708 1.38505C337.663 3.03193 400.651 0.470127 413.149 38.9756C425.647 77.4549 388.518 88.4602 373.249 91.4141C357.979 94.368 334.29 94.368 334.29 94.368C334.29 94.368 315.019 112.379 267.144 110.131C219.243 107.909 165.092 101.138 158.32 114.653C151.548 128.194 154.947 141.709 192.154 145.107C229.388 148.479 376.334 153.943 428.079 135.984C479.798 118.025 489.969 104.511 500.114 84.1992C510.259 63.8878 533.242 46.6348 584.36 51.8891C635.477 57.1434 652.551 78.2914 652.551 78.2914C652.551 78.2914 723.462 60.5417 770.84 90.9697C770.84 90.9697 838.509 84.1992 872.369 107.883C906.229 131.566 909.602 165.393 889.286 178.934C879.141 185.704 862.433 181.469 862.433 181.469C862.433 181.469 852.55 205.101 816.78 214.015C781.011 222.929 723.488 224.811 691.327 201.859C691.327 201.859 652.42 219.53 632.104 216.132C632.104 216.132 615.187 236.443 571.182 236.443C527.176 236.443 486.57 229.673 486.57 229.673C486.57 229.673 476.425 253.356 459.508 256.729C459.508 256.729 458.017 271.943 512.9 274.478C567.782 277.014 603.186 253.252 622.717 251.605C642.249 249.958 686.228 243.188 699.773 263.499C699.773 263.499 750.524 233.045 780.985 246.586C811.446 260.127 821.591 273.642 821.591 273.642C821.591 273.642 830.9 256.729 849.935 266.871C868.97 277.014 862.198 290.555 862.198 290.555C862.198 290.555 892.659 270.243 929.866 290.555C967.1 310.866 967.1 351.463 967.1 351.463C967.1 351.463 1028.02 354.835 1065.23 354.835C1102.44 354.835 1122.75 361.606 1166.76 337.922" fill="white"/>
<path d="M1176.96 456.418C1176.96 456.418 1119.43 466.561 1092.34 449.648C1077.1 440.499 1046.59 458.274 1032.41 463.424C997.169 476.259 958.393 481.043 921.029 483.004C892.319 484.52 859.086 480.52 846.144 450.824C846.144 450.824 792.856 455.817 780.148 432.421C767.467 409.025 759.885 366.729 817.826 369.265C835.162 368.428 838.535 371.801 838.535 371.801V358.26C838.535 358.26 811.473 358.26 804.701 348.117C804.701 348.117 784.227 393.184 716.637 387.563C703.172 385.342 696.426 381.943 696.426 381.943C696.426 381.943 652.42 425.938 598.296 408.999C544.146 392.086 525.738 339.647 512.952 332.04C500.166 324.433 473.026 322.734 473.052 354.025C473.078 385.315 476.477 402.229 418.928 422.54C361.404 442.851 283.564 415.769 263.248 388.714C242.932 361.658 186.559 365.03 153.849 419.168C114.367 459.764 35.8736 451.321 14.1978 418.331C-7.4781 385.342 -10.2497 317.689 74.0483 310.919C114.367 310.919 133.899 326.995 133.899 326.995C133.899 326.995 148.201 277.092 205.725 283.863C222.642 283.863 241.468 305.743 241.468 305.743C241.468 305.743 251.953 266.95 313.424 266.95C313.424 266.95 289.866 261.878 293.474 235.659C297.082 209.44 337.689 192.527 388.44 199.297C439.191 206.068 503.33 218.171 530.497 201.964C557.664 185.756 554.264 175.614 533.974 172.215C513.684 168.817 467.143 178.986 395.657 172.215C324.171 165.445 212.497 168.843 168.491 175.588C124.486 182.332 105.895 185.129 83.0429 168.503C60.1904 151.904 74.0483 141.735 74.0483 141.735C74.0483 141.735 56.8174 138.363 56.8174 124.822C56.8174 111.281 46.6724 84.2253 158.346 87.5975C270.02 90.9697 270.386 77.5333 275.276 65.6392C280.165 53.7451 272.4 25.8529 213.673 21.1998C154.947 16.5467 77.1075 13.1746 63.5634 16.5467C63.5634 16.5467 127.754 -0.261817 232.708 1.38505C337.663 3.03193 400.651 0.470127 413.149 38.9756C425.647 77.4549 388.518 88.4602 373.249 91.4141C357.979 94.368 334.29 94.368 334.29 94.368C334.29 94.368 315.019 112.379 267.144 110.131C219.243 107.909 165.092 101.138 158.32 114.653C151.548 128.194 154.947 141.709 192.154 145.107C229.388 148.479 376.334 153.943 428.079 135.984C479.798 118.025 489.969 104.511 500.114 84.1992C510.259 63.8878 533.242 46.6348 584.36 51.8891C635.477 57.1434 652.551 78.2914 652.551 78.2914C652.551 78.2914 723.462 60.5417 770.84 90.9697C770.84 90.9697 838.509 84.1992 872.369 107.883C906.229 131.566 909.602 165.393 889.286 178.934C879.141 185.704 862.433 181.469 862.433 181.469C862.433 181.469 852.55 205.101 816.78 214.015C781.011 222.929 723.488 224.811 691.327 201.859C691.327 201.859 652.42 219.53 632.104 216.132C632.104 216.132 615.187 236.443 571.182 236.443C527.176 236.443 486.57 229.673 486.57 229.673C486.57 229.673 476.425 253.356 459.508 256.729C459.508 256.729 458.017 271.943 512.9 274.478C567.782 277.014 603.186 253.252 622.717 251.605C642.249 249.958 686.228 243.188 699.773 263.499C699.773 263.499 750.524 233.045 780.985 246.586C811.446 260.127 821.591 273.642 821.591 273.642C821.591 273.642 830.9 256.729 849.935 266.871C868.97 277.014 862.198 290.555 862.198 290.555C862.198 290.555 892.659 270.243 929.866 290.555C967.1 310.866 967.1 351.463 967.1 351.463C967.1 351.463 1028.02 354.835 1065.23 354.835C1102.44 354.835 1122.75 361.606 1166.76 337.922" stroke="#C39A6B" stroke-width="3" stroke-linecap="round" stroke-linejoin="round"/>
<path d="M1176.96 415.379C1173.58 415.797 1146.49 432.71 1109.29 429.338C1072.05 425.966 1034.85 425.966 1014.53 436.109C994.214 446.251 975.624 436.109 975.624 436.109" fill="white"/>
<path d="M1176.96 415.379C1173.58 415.797 1146.49 432.71 1109.29 429.338C1072.05 425.966 1034.85 425.966 1014.53 436.109C994.214 446.251 975.624 436.109 975.624 436.109" stroke="#C39A6B" stroke-width="3" stroke-linecap="round" stroke-linejoin="round"/>
<path d="M967.126 446.249C967.126 446.249 987.442 436.107 980.67 409.025C977.297 388.739 936.717 395.484 936.664 395.484C936.429 395.536 930.18 388.06 929.396 387.485C924.088 383.433 917.237 382.753 911.302 386.125C902.307 391.249 902.83 400.111 902.83 409.025" fill="white"/>
<path d="M967.126 446.249C967.126 446.249 987.442 436.107 980.67 409.025C977.297 388.739 936.717 395.484 936.664 395.484C936.429 395.536 930.18 388.06 929.396 387.485C924.088 383.433 917.237 382.753 911.302 386.125C902.307 391.249 902.83 400.111 902.83 409.025" stroke="#C39A6B" stroke-width="3" stroke-linecap="round" stroke-linejoin="round"/>
<path d="M919.747 456.42C919.747 456.42 935.828 431.9 915.93 415.405C896.058 398.91 875.742 405.681 875.742 405.681" fill="white"/>
<path d="M919.747 456.42C919.747 456.42 935.828 431.9 915.93 415.405C896.058 398.91 875.742 405.681 875.742 405.681" stroke="#C39A6B" stroke-width="3" stroke-linecap="round" stroke-linejoin="round"/>
<path d="M1173.56 381.971C1173.56 381.971 1132.95 395.512 1095.72 392.113C1058.48 388.741 1011.1 358.287 967.126 371.802" fill="white"/>
<path d="M1173.56 381.971C1173.56 381.971 1132.95 395.512 1095.72 392.113C1058.48 388.741 1011.1 358.287 967.126 371.802" stroke="#C39A6B" stroke-width="3" stroke-linecap="round" stroke-linejoin="round"/>
<path d="M940.9 368.376C940.9 368.376 936.664 351.516 967.126 351.516L940.9 368.376Z" fill="white"/>
<path d="M940.9 368.376C940.9 368.376 936.664 351.516 967.126 351.516" stroke="#C39A6B" stroke-width="3" stroke-linecap="round" stroke-linejoin="round"/>
<path d="M946.836 324.459C946.836 324.459 922.519 295.704 900.843 299.939C879.167 304.174 869.022 310.944 869.022 310.944C869.022 310.944 862.25 287.26 831.789 287.26C801.327 287.26 801.327 294.031 801.327 294.031C801.327 294.031 787.783 263.577 743.804 270.347C699.799 277.118 686.281 294.031 689.654 327.857C689.654 327.857 694.621 285.718 646.459 283.104C598.296 280.49 558.16 288.933 552.852 323.622C547.545 358.311 560.226 379.067 580.96 380.531" fill="white"/>
<path d="M946.836 324.459C946.836 324.459 922.519 295.704 900.843 299.939C879.167 304.174 869.022 310.944 869.022 310.944C869.022 310.944 862.25 287.26 831.789 287.26C801.327 287.26 801.327 294.031 801.327 294.031C801.327 294.031 787.783 263.577 743.804 270.347C699.799 277.118 686.281 294.031 689.654 327.857C689.654 327.857 694.621 285.718 646.459 283.104C598.296 280.49 558.16 288.933 552.852 323.622C547.545 358.311 560.226 379.067 580.96 380.531" stroke="#C39A6B" stroke-width="3" stroke-linecap="round" stroke-linejoin="round"/>
<path d="M662.565 365.057C662.565 365.057 703.172 371.828 703.172 344.746L662.565 365.057Z" fill="white"/>
<path d="M662.565 365.057C662.565 365.057 703.172 371.828 703.172 344.746" stroke="#C39A6B" stroke-width="3" stroke-linecap="round" stroke-linejoin="round"/>
<path d="M747.177 344.771C747.177 344.771 730.26 344.771 726.861 334.629C723.488 324.486 726.861 297.404 760.695 297.404C794.529 297.404 801.301 314.317 804.701 348.144" fill="white"/>
<path d="M747.177 344.771C747.177 344.771 730.26 344.771 726.861 334.629C723.488 324.486 726.861 297.404 760.695 297.404C794.529 297.404 801.301 314.317 804.701 348.144" stroke="#C39A6B" stroke-width="3" stroke-linecap="round" stroke-linejoin="round"/>
<path d="M822.036 415.377C822.036 415.377 848.68 419.193 852.079 395.51C855.478 371.826 830.952 369.578 830.952 369.578" fill="white"/>
<path d="M822.036 415.377C822.036 415.377 848.68 419.193 852.079 395.51C855.478 371.826 830.952 369.578 830.952 369.578" stroke="#C39A6B" stroke-width="3" stroke-linecap="round" stroke-linejoin="round"/>
<path d="M885.913 404.295C885.913 404.295 878.592 364.77 846.719 376.743L885.913 404.295Z" fill="white"/>
<path d="M885.913 404.295C885.913 404.295 878.592 364.77 846.719 376.743" stroke="#C39A6B" stroke-width="3" stroke-linecap="round" stroke-linejoin="round"/>
<path d="M632.104 216.211C632.104 216.211 616.024 210.826 620.678 199.977C625.332 189.129 642.249 195.899 642.249 195.899" fill="white"/>
<path d="M632.104 216.211C632.104 216.211 616.024 210.826 620.678 199.977C625.332 189.129 642.249 195.899 642.249 195.899" stroke="#C39A6B" stroke-width="3" stroke-linecap="round" stroke-linejoin="round"/>
<path d="M691.327 201.911C691.327 201.911 719.069 182.07 707.721 150.074C696.4 118.077 621.018 93.5572 592.7 99.0467C564.383 104.536 557.637 121.449 557.637 121.449C557.637 121.449 529.085 107.699 512.9 111.176C496.715 114.679 479.798 138.363 456.108 145.133C432.419 151.903 415.502 155.276 408.73 155.276" fill="white"/>
<path d="M691.327 201.911C691.327 201.911 719.069 182.07 707.721 150.074C696.4 118.077 621.018 93.5572 592.7 99.0467C564.383 104.536 557.637 121.449 557.637 121.449C557.637 121.449 529.085 107.699 512.9 111.176C496.715 114.679 479.798 138.363 456.108 145.133C432.419 151.903 415.502 155.276 408.73 155.276" stroke="#C39A6B" stroke-width="3" stroke-linecap="round" stroke-linejoin="round"/>
<path d="M831.763 134.991C831.763 134.991 828.39 168.818 784.384 162.047C740.379 155.277 743.621 139.566 743.621 139.566C743.621 139.566 720.089 138.364 723.462 111.308C726.835 84.2521 770.84 90.9965 770.84 90.9965" fill="white"/>
<path d="M831.763 134.991C831.763 134.991 828.39 168.818 784.384 162.047C740.379 155.277 743.621 139.566 743.621 139.566C743.621 139.566 720.089 138.364 723.462 111.308C726.835 84.2521 770.84 90.9965 770.84 90.9965" stroke="#C39A6B" stroke-width="3" stroke-linecap="round" stroke-linejoin="round"/>
<path d="M429.073 283.863C429.073 283.863 402.01 280.491 402.01 246.639L429.073 283.863Z" fill="white"/>
<path d="M429.073 283.863C429.073 283.863 402.01 280.491 402.01 246.639" stroke="#C39A6B" stroke-width="3" stroke-linecap="round" stroke-linejoin="round"/>
<path d="M370.111 287.262C370.111 287.262 352.096 280.465 351.677 246.639C351.259 212.813 393.146 201.075 431.426 205.258" fill="white"/>
<path d="M370.111 287.262C370.111 287.262 352.096 280.465 351.677 246.639C351.259 212.813 393.146 201.075 431.426 205.258" stroke="#C39A6B" stroke-width="3" stroke-linecap="round" stroke-linejoin="round"/>
<path d="M429.073 216.211C429.073 216.211 483.223 213.989 489.995 210.016L429.073 216.211Z" fill="white"/>
<path d="M429.073 216.211C429.073 216.211 483.223 213.989 489.995 210.016" stroke="#C39A6B" stroke-width="3" stroke-linecap="round" stroke-linejoin="round"/>
<path d="M434.982 365.816C434.982 365.816 418.901 405.655 361.378 395.512C303.854 385.369 308.927 355.281 308.927 355.281" fill="white"/>
<path d="M434.982 365.816C434.982 365.816 418.901 405.655 361.378 395.512C303.854 385.369 308.927 355.281 308.927 355.281" stroke="#C39A6B" stroke-width="3" stroke-linecap="round" stroke-linejoin="round"/>
<path d="M391.525 355.28C391.525 355.28 413.201 315.911 363.6 308.331C313.999 300.776 306.914 324.93 306.914 324.93C306.914 324.93 285.447 309.089 269.262 316.774C253.077 324.46 221.753 353.371 257.731 382.91" fill="white"/>
<path d="M391.525 355.28C391.525 355.28 413.201 315.911 363.6 308.331C313.999 300.776 306.914 324.93 306.914 324.93C306.914 324.93 285.447 309.089 269.262 316.774C253.077 324.46 221.753 353.371 257.731 382.91" stroke="#C39A6B" stroke-width="3" stroke-linecap="round" stroke-linejoin="round"/>
<path d="M130.918 324.93C130.918 324.93 151.574 338 148.175 358.285C144.802 378.597 124.486 388.739 107.569 388.739C90.6516 388.739 80.5065 375.198 87.2524 361.684C94.0245 348.143 119.335 353.214 116.825 369.291" fill="white"/>
<path d="M130.918 324.93C130.918 324.93 151.574 338 148.175 358.285C144.802 378.597 124.486 388.739 107.569 388.739C90.6516 388.739 80.5065 375.198 87.2524 361.684C94.0245 348.143 119.335 353.214 116.825 369.291" stroke="#C39A6B" stroke-width="3" stroke-linecap="round" stroke-linejoin="round"/>
<path d="M269.183 110.235C269.183 110.235 307.227 97.7658 300.455 67.3378C297.082 53.7969 290.31 53.7969 290.31 53.7969" fill="white"/>
<path d="M269.183 110.235C269.183 110.235 307.227 97.7657 300.455 67.3378C297.082 53.7969 290.31 53.7969 290.31 53.7969" stroke="#C39A6B" stroke-width="3" stroke-linecap="round" stroke-linejoin="round"/>
<path d="M334.316 94.3944C348.226 85.7418 359.626 72.3577 353.978 55.157C348.304 37.8779 334.76 24.9121 317.399 19.9453" fill="white"/>
<path d="M334.316 94.3944C348.226 85.7418 359.626 72.3577 353.978 55.157C348.304 37.8779 334.76 24.9121 317.399 19.9453" stroke="#C39A6B" stroke-width="3" stroke-linecap="round" stroke-linejoin="round"/>
<path d="M1838.08 389.106C1851.63 385.734 1865.15 399.248 1858.4 416.161C1851.65 433.075 1824.56 439.845 1811.02 429.702C1797.5 419.56 1794.1 409.443 1794.1 409.417C1794.86 411.718 1785.48 413.913 1784.04 414.149C1778.94 414.959 1773.55 414.018 1769.08 411.404C1758.94 405.47 1755.75 391.955 1756.69 380.976C1757.68 369.343 1763.8 358.155 1773.81 351.907C1773.81 351.907 1783.96 345.137 1794.13 345.137C1794.13 345.137 1813.79 314.029 1868.26 321.113C1922.72 328.198 1912.58 351.881 1912.58 351.881C1912.58 351.881 1973.5 338.34 1997.19 365.422C2020.88 392.478 2020.88 436.473 1973.5 456.758C1926.12 477.07 1902.43 453.386 1902.43 453.386C1902.43 453.386 1861.82 510.896 1794.13 504.125C1760.3 500.753 1736.61 490.584 1719.69 480.442C1719.69 480.442 1685.85 497.355 1665.54 477.07C1655.39 466.927 1651.99 456.758 1655.39 450.014C1655.39 450.014 1635.08 460.156 1614.79 456.784C1614.79 456.784 1672.31 483.84 1652.02 548.12C1631.73 612.401 1536.97 602.258 1523.43 581.947C1523.43 581.947 1482.82 669.91 1371.15 666.538C1371.15 666.538 1339.43 701.436 1282.54 687.373C1259.48 680.079 1245.93 669.937 1245.93 669.937C1245.93 669.937 1218.87 700.391 1171.49 683.478C1124.11 666.564 1107.2 632.738 1110.57 612.427C1113.94 592.115 1120.71 588.743 1120.71 588.743C1120.71 588.743 1092.81 574.784 1110.15 546.238C1110.15 546.238 1039.5 568.432 1015.81 517.692C1002.27 490.637 1005.67 470.325 1005.67 470.325C1005.67 470.325 961.661 480.468 944.744 450.014C937.972 436.473 937.972 422.958 937.972 409.417C937.972 409.417 870.304 426.33 836.443 406.045C802.609 385.734 792.438 348.535 802.609 321.453C805.982 311.311 809.381 307.912 809.381 307.912C809.381 307.912 789.065 318.055 772.148 311.284V243.632C772.148 243.632 809.381 233.489 843.215 243.632C843.372 243.684 846.745 239.031 847.006 238.744C850.38 234.901 854.223 231.45 858.485 228.627C870.957 220.314 886.123 219.426 900.163 224C914.283 228.601 928.821 236.94 938.783 248.076C941.659 251.265 945.319 255.918 944.744 260.545L1012.96 261.277C1012.96 261.277 1036.13 223.321 1110.57 233.463C1137.63 236.835 1144.4 257.147 1144.4 263.917C1144.4 263.917 1191.78 257.147 1212.07 290.973C1218.84 301.116 1223.08 320.146 1222.66 324.172C1222.66 324.172 1266.22 314.657 1289.91 345.111C1289.91 345.111 1293.28 331.57 1300.06 328.198C1300.06 328.198 1276.37 257.147 1364.35 216.55C1452.34 175.953 1520.03 223.321 1520.03 223.321C1520.03 223.321 1567.41 213.178 1614.79 236.862C1662.17 260.545 1641.61 301.168 1641.61 301.168C1641.61 301.168 1692.63 294.371 1699.4 334.968C1699.4 334.968 1750.15 290.973 1794.16 341.739" fill="white"/>
<path d="M772.095 243.632C772.095 243.632 809.329 233.489 843.163 243.632C843.32 243.684 846.693 239.031 846.954 238.744C850.327 234.901 854.171 231.45 858.433 228.627C870.905 220.314 886.07 219.426 900.111 224C914.231 228.601 928.768 236.94 938.73 248.076C941.606 251.265 945.267 255.918 944.692 260.545L1012.91 261.277C1012.91 261.277 1036.08 223.321 1110.52 233.463C1137.58 236.835 1144.35 257.147 1144.35 263.917C1144.35 263.917 1191.73 257.147 1212.02 290.973C1218.79 301.116 1223.03 320.146 1222.61 324.172C1222.61 324.172 1266.17 314.657 1289.86 345.111C1289.86 345.111 1293.23 331.57 1300 328.198C1300 328.198 1276.31 257.147 1364.3 216.55C1452.28 175.953 1519.98 223.321 1519.98 223.321C1519.98 223.321 1567.36 213.178 1614.74 236.862C1662.11 260.545 1641.56 301.168 1641.56 301.168C1641.56 301.168 1692.57 294.371 1699.35 334.968C1699.35 334.968 1750.1 290.973 1794.1 341.739" stroke="#C39A6B" stroke-width="3" stroke-linecap="round" stroke-linejoin="round"/>
<path d="M1838.08 389.107C1851.63 385.735 1865.15 399.25 1858.4 416.163C1851.65 433.076 1824.56 439.847 1811.02 429.704C1797.5 419.562 1794.1 409.445 1794.1 409.419C1794.86 411.719 1785.48 413.915 1784.04 414.15C1778.94 414.961 1773.55 414.02 1769.08 411.406C1758.94 405.472 1755.75 391.957 1756.69 380.978C1757.68 369.345 1763.8 358.157 1773.81 351.909C1773.81 351.909 1783.96 345.139 1794.13 345.139C1794.13 345.139 1813.79 314.031 1868.26 321.115C1922.72 328.199 1912.58 351.883 1912.58 351.883C1912.58 351.883 1973.5 338.342 1997.19 365.424C2020.88 392.48 2020.88 436.475 1973.5 456.76C1926.12 477.071 1902.43 453.388 1902.43 453.388C1902.43 453.388 1861.82 510.898 1794.13 504.127C1760.3 500.755 1736.61 490.586 1719.69 480.444C1719.69 480.444 1685.85 497.357 1665.54 477.071C1655.39 466.929 1651.99 456.76 1655.39 450.016C1655.39 450.016 1635.08 460.158 1614.79 456.786C1614.79 456.786 1672.31 483.842 1652.02 548.122C1631.73 612.402 1536.97 602.26 1523.43 581.948C1523.43 581.948 1482.82 669.912 1371.15 666.54C1371.15 666.54 1339.43 701.438 1282.54 687.374C1259.48 680.081 1245.93 669.938 1245.93 669.938C1245.93 669.938 1218.87 700.392 1171.49 683.479C1124.11 666.566 1107.2 632.74 1110.57 612.429C1113.94 592.117 1120.71 588.745 1120.71 588.745C1120.71 588.745 1092.81 574.786 1110.15 546.24C1110.15 546.24 1039.5 568.434 1015.81 517.694C1002.27 490.638 1005.67 470.327 1005.67 470.327C1005.67 470.327 961.661 480.47 944.744 450.016C937.972 436.475 937.972 422.96 937.972 409.419C937.972 409.419 870.304 426.332 836.443 406.047C802.609 385.735 792.438 348.537 802.609 321.455C805.982 311.312 809.381 307.914 809.381 307.914C809.381 307.914 789.065 318.057 772.148 311.286" stroke="#C39A6B" stroke-width="3" stroke-linecap="round" stroke-linejoin="round"/>
<path d="M1733.18 412.789C1733.18 412.789 1728.11 457.725 1684.97 445.413C1672.28 439.871 1672.28 433.1 1672.28 433.1" fill="white"/>
<path d="M1733.18 412.789C1733.18 412.789 1728.11 457.725 1684.97 445.413C1672.28 439.871 1672.28 433.1 1672.28 433.1" stroke="#C39A6B" stroke-width="3" stroke-linecap="round" stroke-linejoin="round"/>
<path d="M1681.46 397.548C1681.46 397.548 1695.95 416.16 1665.51 433.073C1635.05 449.986 1597.84 422.931 1601.22 392.477" fill="white"/>
<path d="M1681.46 397.548C1681.46 397.548 1695.95 416.16 1665.51 433.073C1635.05 449.986 1597.84 422.931 1601.22 392.477" stroke="#C39A6B" stroke-width="3" stroke-linecap="round" stroke-linejoin="round"/>
<path d="M1699.35 334.969C1699.35 334.969 1680.73 346.418 1668.05 361.005L1699.35 334.969Z" fill="white"/>
<path d="M1699.35 334.969C1699.35 334.969 1680.73 346.418 1668.05 361.005" stroke="#C39A6B" stroke-width="3" stroke-linecap="round" stroke-linejoin="round"/>
<path d="M1672.26 365.841C1672.26 365.841 1668.89 358.652 1658.71 358.652L1672.26 365.841Z" fill="white"/>
<path d="M1672.26 365.841C1672.26 365.841 1668.89 358.652 1658.71 358.652" stroke="#C39A6B" stroke-width="3" stroke-linecap="round" stroke-linejoin="round"/>
<path d="M1684.91 345.269C1684.91 345.269 1682.43 314.684 1638.42 324.827C1594.42 334.97 1594.42 351.883 1594.42 351.883C1594.42 351.883 1553.81 331.571 1530.12 355.255C1506.43 378.938 1518.28 428.135 1559.72 415.379" fill="white"/>
<path d="M1684.91 345.269C1684.91 345.269 1682.43 314.684 1638.42 324.827C1594.42 334.97 1594.42 351.883 1594.42 351.883C1594.42 351.883 1553.81 331.571 1530.12 355.255C1506.43 378.938 1518.28 428.135 1559.72 415.379" stroke="#C39A6B" stroke-width="3" stroke-linecap="round" stroke-linejoin="round"/>
<path d="M1547.04 287.6C1547.04 287.6 1560.58 280.83 1553.81 263.917C1547.04 247.004 1533.5 253.774 1533.5 253.774C1533.5 253.774 1536.87 216.549 1489.49 230.09C1442.11 243.631 1459.03 267.315 1459.03 267.315C1459.03 267.315 1421.8 280.856 1431.97 314.682C1442.14 348.508 1469.2 345.136 1469.2 345.136" fill="white"/>
<path d="M1547.04 287.6C1547.04 287.6 1560.58 280.83 1553.81 263.917C1547.04 247.004 1533.5 253.774 1533.5 253.774C1533.5 253.774 1536.87 216.549 1489.49 230.09C1442.11 243.631 1459.03 267.315 1459.03 267.315C1459.03 267.315 1421.8 280.856 1431.97 314.682C1442.14 348.508 1469.2 345.136 1469.2 345.136" stroke="#C39A6B" stroke-width="3" stroke-linecap="round" stroke-linejoin="round"/>
<path d="M1394.76 328.197C1394.76 328.197 1364.3 311.807 1379.54 286.163C1394.76 260.519 1430.37 255.238 1456.57 261.277" fill="white"/>
<path d="M1394.76 328.197C1394.76 328.197 1364.3 311.807 1379.54 286.163C1394.76 260.519 1430.37 255.238 1456.57 261.277" stroke="#C39A6B" stroke-width="3" stroke-linecap="round" stroke-linejoin="round"/>
<path d="M1448.91 490.611C1458.4 488.572 1467.87 483.501 1474.14 476.051C1487.37 460.34 1483.03 435.115 1470.06 420.842C1470.06 420.842 1487.82 382.781 1454.85 362.26C1421.87 341.739 1351.49 334.132 1322.39 356.561" fill="white"/>
<path d="M1448.91 490.611C1458.4 488.572 1467.87 483.501 1474.14 476.051C1487.37 460.34 1483.03 435.114 1470.06 420.842C1470.06 420.842 1487.82 382.781 1454.85 362.26C1421.87 341.739 1351.49 334.132 1322.39 356.561" stroke="#C39A6B" stroke-width="3" stroke-linecap="round" stroke-linejoin="round"/>
<path d="M1574.97 440.785C1572.72 451.32 1568.04 461.698 1561.63 470.324C1547.01 489.982 1524.29 494.452 1501.23 488.414C1490.85 485.695 1482.98 481.33 1476.68 472.572" fill="white"/>
<path d="M1574.97 440.785C1572.72 451.32 1568.04 461.698 1561.63 470.324C1547.01 489.982 1524.29 494.452 1501.23 488.414C1490.85 485.695 1482.98 481.33 1476.68 472.572" stroke="#C39A6B" stroke-width="3" stroke-linecap="round" stroke-linejoin="round"/>
<path d="M1506.43 514.295C1506.43 514.295 1545.34 537.978 1574.97 514.295C1604.56 490.611 1584.14 449.962 1572.35 449.988" fill="white"/>
<path d="M1506.43 514.295C1506.43 514.295 1545.34 537.978 1574.97 514.295C1604.56 490.611 1584.14 449.962 1572.35 449.988" stroke="#C39A6B" stroke-width="3" stroke-linecap="round" stroke-linejoin="round"/>
<path d="M1438.77 453.387C1438.77 453.387 1455.68 426.331 1418.45 409.392C1381.22 392.479 1289.86 378.938 1289.86 426.305" fill="white"/>
<path d="M1438.77 453.387C1438.77 453.387 1455.68 426.331 1418.45 409.392C1381.22 392.479 1289.86 378.938 1289.86 426.305" stroke="#C39A6B" stroke-width="3" stroke-linecap="round" stroke-linejoin="round"/>
<path d="M1377.84 443.243C1377.84 443.243 1354.15 439.871 1349.08 443.243C1349.08 443.243 1281.41 410.332 1236.57 430.172C1191.73 450.013 1190.03 460.731 1190.03 460.731C1190.03 460.731 1177.35 453.386 1169.29 453.386C1169.29 453.386 1174.79 428.892 1137.58 420.84C1100.34 412.789 1019.13 419.559 1005.59 470.299" fill="white"/>
<path d="M1377.84 443.243C1377.84 443.243 1354.15 439.871 1349.08 443.243C1349.08 443.243 1281.41 410.332 1236.57 430.172C1191.73 450.013 1190.03 460.731 1190.03 460.731C1190.03 460.731 1177.35 453.386 1169.29 453.386C1169.29 453.386 1174.79 428.892 1137.58 420.84C1100.34 412.789 1019.13 419.559 1005.59 470.299" stroke="#C39A6B" stroke-width="3" stroke-linecap="round" stroke-linejoin="round"/>
<path d="M1249.25 378.964C1249.25 378.964 1234.03 412.79 1204.41 397.577C1174.81 382.363 1185.82 333.714 1222.61 324.199" fill="white"/>
<path d="M1249.25 378.964C1249.25 378.964 1234.03 412.79 1204.41 397.577C1174.81 382.363 1185.82 333.714 1222.61 324.199" stroke="#C39A6B" stroke-width="3" stroke-linecap="round" stroke-linejoin="round"/>
<path d="M1159.57 560.432C1159.57 560.432 1148.56 474.01 1236.13 487.368C1256 490.583 1256.86 500.595 1256.86 500.595C1256.86 500.595 1289.86 487.211 1296.63 531.18" fill="white"/>
<path d="M1159.57 560.432C1159.57 560.432 1148.56 474.01 1236.13 487.368C1256 490.583 1256.86 500.595 1256.86 500.595C1256.86 500.595 1289.86 487.211 1296.63 531.18" stroke="#C39A6B" stroke-width="3" stroke-linecap="round" stroke-linejoin="round"/>
<path d="M1187.44 537.532C1179.94 556.876 1178.34 583.54 1195.6 598.257C1201.48 603.276 1208.62 606.622 1215.94 609.053C1234.24 615.17 1253.85 615.928 1272.94 614.282C1292.03 612.635 1309.08 605.734 1327.54 600.322C1330.67 599.407 1334.41 601.08 1337.52 601.551C1341.73 602.204 1346.13 602.309 1350.39 602.309C1377.22 602.178 1399.36 590.807 1415.26 569.345C1428.75 551.125 1436.94 527.703 1435.21 504.882C1434.71 498.216 1433.3 491.577 1430.84 485.355C1427.73 477.46 1422.55 470.585 1415.97 465.227" fill="white"/>
<path d="M1187.44 537.532C1179.94 556.876 1178.34 583.54 1195.6 598.257C1201.48 603.276 1208.62 606.622 1215.94 609.053C1234.24 615.17 1253.85 615.928 1272.94 614.282C1292.03 612.635 1309.08 605.734 1327.54 600.322C1330.67 599.407 1334.41 601.08 1337.52 601.551C1341.73 602.204 1346.13 602.309 1350.39 602.309C1377.22 602.178 1399.36 590.807 1415.26 569.345C1428.75 551.125 1436.94 527.703 1435.21 504.882C1434.71 498.216 1433.3 491.577 1430.84 485.355C1427.73 477.46 1422.55 470.585 1415.97 465.227" stroke="#C39A6B" stroke-width="3" stroke-linecap="round" stroke-linejoin="round"/>
<path d="M1122.86 460.73C1122.86 460.73 1096.11 464.469 1091.45 486.009C1086.8 507.549 1099.48 520.07 1105 520.567" fill="white"/>
<path d="M1122.86 460.73C1122.86 460.73 1096.11 464.469 1091.45 486.009C1086.8 507.549 1099.48 520.07 1105 520.567" stroke="#C39A6B" stroke-width="3" stroke-linecap="round" stroke-linejoin="round"/>
<path d="M999.679 440.785C999.679 440.785 968.329 446.615 963.282 426.329C958.236 406.018 980.435 385.733 1003.18 387.432C1025.93 389.131 1031.84 399.326 1032.26 406.07" fill="white"/>
<path d="M999.679 440.785C999.679 440.785 968.329 446.615 963.282 426.329C958.236 406.018 980.435 385.733 1003.18 387.432C1025.93 389.131 1031.84 399.326 1032.26 406.07" stroke="#C39A6B" stroke-width="3" stroke-linecap="round" stroke-linejoin="round"/>
<path d="M1132.04 419.794C1132.04 419.794 1098.7 410.227 1102.91 374.283C1102.91 374.283 1063.61 394.49 1043.06 341.032C1043.06 341.032 1028.52 382.308 983.206 365.395C983.206 365.395 953.137 419.533 889.678 397.548C826.22 375.564 858.38 313.819 889.678 334.523" fill="white"/>
<path d="M1132.04 419.794C1132.04 419.794 1098.7 410.227 1102.91 374.283C1102.91 374.283 1063.61 394.49 1043.06 341.032C1043.06 341.032 1028.52 382.308 983.206 365.395C983.206 365.395 953.137 419.533 889.678 397.548C826.22 375.564 858.38 313.819 889.678 334.523" stroke="#C39A6B" stroke-width="3" stroke-linecap="round" stroke-linejoin="round"/>
<path d="M943.332 352.744C943.332 352.744 970.08 302.998 916.767 293.614C863.479 284.229 822.507 295.47 805.773 313.533" fill="white"/>
<path d="M943.332 352.744C943.332 352.744 970.08 302.998 916.767 293.614C863.479 284.229 822.507 295.47 805.773 313.533" stroke="#C39A6B" stroke-width="3" stroke-linecap="round" stroke-linejoin="round"/>
<path d="M1127.43 307.913C1127.43 307.913 1117.29 280.857 1144.35 263.918L1127.43 307.913Z" fill="white"/>
<path d="M1127.43 307.913C1127.43 307.913 1117.29 280.857 1144.35 263.918" stroke="#C39A6B" stroke-width="3" stroke-linecap="round" stroke-linejoin="round"/>
<path d="M950 328.198C950 328.198 978.552 334.968 1008.99 314.657C1039.45 294.345 1089.86 275.916 1125.58 293.587" fill="white"/>
<path d="M950 328.198C950 328.198 978.552 334.968 1008.99 314.657C1039.45 294.345 1089.86 275.916 1125.58 293.587" stroke="#C39A6B" stroke-width="3" stroke-linecap="round" stroke-linejoin="round"/>
<path d="M1133.08 273.851C1133.08 273.851 1114.75 254.115 1077.1 259.029C1054.25 262.009 1034.4 274.217 1013.85 283.706C993.639 293.038 965.269 302.109 943.332 293.639C943.332 293.639 944.692 243.658 900.712 243.658C856.733 243.658 850.798 259.055 850.798 259.055" fill="white"/>
<path d="M1133.08 273.851C1133.08 273.851 1114.75 254.115 1077.1 259.029C1054.25 262.009 1034.4 274.217 1013.85 283.706C993.639 293.038 965.269 302.109 943.332 293.639C943.332 293.639 944.692 243.658 900.712 243.658C856.733 243.658 850.798 259.055 850.798 259.055" stroke="#C39A6B" stroke-width="3" stroke-linecap="round" stroke-linejoin="round"/>
</g>
<defs>
<clipPath id="clip0_452_10097">
<rect width="2014" height="692" fill="white" transform="matrix(-1 0 0 1 2014 0)"/>
</clipPath>
</defs>
</svg>
