<svg width="143" height="89" viewBox="0 0 143 89" fill="none" xmlns="http://www.w3.org/2000/svg">
<g clip-path="url(#clip0_452_12295)">
<path d="M142.555 74.7285C97.0791 64.3119 51.5985 94.6047 6.12233 87.4422C4.22638 63.1189 2.33487 38.7288 0.443359 14.2675C45.9195 24.6841 91.4002 -5.60874 136.876 1.55381C138.768 25.8816 140.659 50.2717 142.555 74.7285Z" fill="#C39A6B"/>
<path d="M142.555 74.7285C97.0791 64.3119 51.5985 94.6047 6.12233 87.4422C4.22638 63.1189 2.33487 38.7288 0.443359 14.2675C45.9195 24.6841 91.4002 -5.60874 136.876 1.55381C138.768 25.8816 140.659 50.2717 142.555 74.7285Z" stroke="#C39A6B" stroke-width="2" stroke-miterlimit="10" stroke-linecap="round" stroke-linejoin="round"/>
<path d="M137.804 62.0459C136.53 45.6286 135.251 29.2468 133.977 12.8874C129.772 12.3621 126.091 8.8231 125.758 4.56296C87.9058 3.2542 50.0534 23.4732 12.201 20.1612C12.534 24.4214 9.39478 27.6576 5.18994 26.9498C6.46427 43.3672 7.74304 59.7489 9.01736 76.1084C13.2222 76.6337 16.9031 80.1727 17.2361 84.4328C55.0885 85.746 92.9365 65.5226 130.789 68.8346C130.46 64.5744 133.6 61.3381 137.804 62.0459Z" fill="#EFECE0" stroke="#C39A6B" stroke-width="2" stroke-miterlimit="10" stroke-linecap="round" stroke-linejoin="round"/>
<path d="M133.977 12.8874C133.777 10.301 133.573 7.71469 133.373 5.13279C130.833 4.83898 128.298 4.65202 125.758 4.56299C126.091 8.82313 129.772 12.3621 133.977 12.8874Z" fill="#E4007E" stroke="#C39A6B" stroke-width="2" stroke-miterlimit="10" stroke-linecap="round" stroke-linejoin="round"/>
<path d="M137.805 62.0457C133.6 61.3379 130.461 64.5742 130.794 68.8344C133.334 69.0569 135.869 69.3863 138.409 69.8315C138.209 67.2362 138.005 64.641 137.805 62.0457Z" fill="#E4007E" stroke="#C39A6B" stroke-width="2" stroke-miterlimit="10" stroke-linecap="round" stroke-linejoin="round"/>
<path d="M12.2013 20.1612C9.66154 19.9386 7.1262 19.6092 4.58643 19.1641C4.78623 21.7593 4.99048 24.3546 5.19029 26.9498C9.39957 27.6576 12.5388 24.4214 12.2013 20.1612Z" fill="#E4007E" stroke="#C39A6B" stroke-width="2" stroke-miterlimit="10" stroke-linecap="round" stroke-linejoin="round"/>
<path d="M9.02197 76.1084C9.22178 78.6948 9.42603 81.2811 9.62584 83.863C12.1656 84.1568 14.7009 84.3438 17.2407 84.4328C16.9077 80.1771 13.2268 76.6337 9.02197 76.1084Z" fill="#E4007E" stroke="#C39A6B" stroke-width="2" stroke-miterlimit="10" stroke-linecap="round" stroke-linejoin="round"/>
<path d="M94.2377 39.4674C95.2367 51.9273 85.8635 63.9643 73.3067 67.0136C60.7499 70.0808 49.7561 62.0724 48.7615 49.5324C47.7624 37.0725 57.1356 25.0355 69.6924 21.9861C82.2492 18.919 93.2386 26.9274 94.2377 39.4674Z" fill="#E4007E" stroke="#C39A6B" stroke-width="2" stroke-miterlimit="10" stroke-linecap="round" stroke-linejoin="round"/>
<path d="M31.5335 55.2172C31.6268 57.0913 31.1517 58.5825 30.1082 59.6821C29.0604 60.7772 27.5107 61.3959 25.4549 61.4849C23.0484 61.5829 21.148 60.9463 19.7493 59.6509C18.3551 58.351 17.5603 56.4814 17.3738 54.0909C17.1962 51.8251 17.7246 50.0444 18.959 48.709C20.1933 47.3735 21.9339 46.7058 24.1762 46.639C24.9266 46.6167 25.6326 46.6657 26.2986 46.7948C26.9646 46.9239 27.604 47.1331 28.2167 47.4269C28.3144 47.1598 28.4121 46.8972 28.5098 46.6301C29.2646 46.5811 30.0194 46.5233 30.7698 46.4609C30.9208 48.3796 31.0718 50.2937 31.2272 52.2123C30.3969 52.2836 29.5621 52.3503 28.7318 52.4082C28.381 51.0817 27.9326 50.129 27.3864 49.5503C26.8403 48.9716 26.1432 48.7045 25.2951 48.7357C24.3138 48.7757 23.6345 49.2075 23.2526 50.0533C22.8708 50.8991 22.7553 52.2391 22.9019 54.0865C23.0528 55.9917 23.3903 57.3628 23.9142 58.1863C24.4381 59.0099 25.2196 59.4061 26.2542 59.3571C27.1955 59.3126 27.937 58.9253 28.4876 58.2131C29.0337 57.4964 29.3001 56.5615 29.2868 55.4086C30.0416 55.3418 30.7876 55.2839 31.5335 55.2172Z" fill="#F477A0" stroke="#C39A6B" stroke-width="2" stroke-miterlimit="10" stroke-linecap="round" stroke-linejoin="round"/>
<path d="M34.8459 53.3029C34.6639 50.997 35.2366 49.1139 36.5643 47.6271C37.8919 46.1403 39.8233 45.2233 42.3498 44.8182C44.8629 44.4176 46.8876 44.7114 48.4239 45.7486C49.9558 46.7813 50.8172 48.4329 50.9992 50.7254C51.1813 53.0135 50.6085 54.9544 49.2809 56.5258C47.9533 58.0972 46.0174 59.1166 43.482 59.535C40.9733 59.949 38.9531 59.5707 37.4212 58.4489C35.8849 57.3182 35.028 55.5954 34.8459 53.3029ZM42.5185 46.9327C41.5772 47.084 40.9289 47.596 40.5649 48.4863C40.2008 49.3766 40.0942 50.7343 40.2363 52.5595C40.3828 54.4202 40.7025 55.7334 41.1954 56.4991C41.6882 57.2647 42.3986 57.5719 43.3311 57.4206C44.2768 57.2648 44.9295 56.735 45.2892 55.8403C45.6488 54.9455 45.7554 53.5833 45.6089 51.7537C45.4624 49.9108 45.1427 48.6109 44.6498 47.8497C44.1658 47.084 43.451 46.7813 42.5185 46.9327Z" fill="#F477A0" stroke="#C39A6B" stroke-width="2" stroke-miterlimit="10" stroke-linecap="round" stroke-linejoin="round"/>
<path d="M60.5236 51.0324C60.608 52.0963 60.8344 52.8086 61.2074 53.1602C61.5759 53.5119 62.1576 53.5965 62.9568 53.414C63.9026 53.1958 64.5641 52.8264 64.946 52.31C65.3234 51.7936 65.4744 51.0502 65.3989 50.0887C65.2302 48.0053 65.0659 45.9175 64.8972 43.8342C64.8528 43.2911 64.7595 42.9751 64.613 42.886C64.4665 42.797 64.1512 42.8104 63.6672 42.9216C63.4319 42.9751 63.1921 43.0329 62.9568 43.0864C62.9035 42.4364 62.8547 41.7865 62.8014 41.1366C64.9549 40.6425 67.1084 40.135 69.2618 39.623C69.3151 40.273 69.364 40.9229 69.4172 41.5728C69.2041 41.6218 68.991 41.6752 68.7779 41.7242C68.2894 41.8399 67.9831 41.9735 67.8543 42.1337C67.7255 42.2895 67.6811 42.6145 67.7211 43.1131C67.8987 45.3299 68.0763 47.5513 68.2539 49.7681C68.3738 51.2416 67.9253 52.488 66.913 53.5075C65.9006 54.5269 64.3555 55.2792 62.2819 55.7555C60.3948 56.1873 58.9074 56.1339 57.8106 55.6041C56.7139 55.0744 56.1145 54.1129 56.0035 52.7329C55.8215 50.4715 55.6394 48.2146 55.4618 45.9532C55.4218 45.4323 55.3242 45.1163 55.1687 45.0183C55.0178 44.9159 54.6937 44.9204 54.2008 45.0228C53.9655 45.0718 53.7257 45.1207 53.4904 45.1697C53.4371 44.5198 53.3882 43.8698 53.335 43.2155C56.1323 42.6368 58.934 42.018 61.7313 41.3814C61.7846 42.0313 61.8334 42.6813 61.8867 43.3312C61.6292 43.3891 61.3717 43.4469 61.1141 43.5048C60.6124 43.6205 60.3016 43.7541 60.1728 43.9188C60.0441 44.0791 59.9996 44.4218 60.044 44.9471C60.195 46.9726 60.3593 49.0025 60.5236 51.0324Z" fill="#F477A0" stroke="#C39A6B" stroke-width="2" stroke-miterlimit="10" stroke-linecap="round" stroke-linejoin="round"/>
<path d="M80.9924 36.8632C82.946 36.4181 84.4024 36.4092 85.3659 36.8321C86.3294 37.255 86.8623 38.1319 86.9688 39.4496C87.0754 40.7762 86.698 41.849 85.841 42.6681C84.9796 43.4872 83.5721 44.1104 81.6095 44.56C80.7171 44.7648 79.8246 44.9695 78.9321 45.1743C79.012 46.1626 79.092 47.1508 79.1719 48.139C79.2163 48.6732 79.3095 48.9893 79.4605 49.0872C79.6115 49.1807 79.9223 49.1763 80.4018 49.065C80.6638 49.0026 80.9302 48.9448 81.1922 48.8825C81.2454 49.5368 81.2987 50.1868 81.3476 50.8411C78.5503 51.4777 75.7574 52.1365 72.9601 52.7998C72.9068 52.1454 72.8535 51.4955 72.8047 50.8411C73.04 50.7877 73.2709 50.7298 73.5062 50.6764C73.9947 50.5607 74.301 50.4227 74.4298 50.2624C74.5586 50.1022 74.603 49.755 74.5586 49.2208C74.3587 46.7101 74.1545 44.1994 73.9547 41.6887C73.9103 41.1546 73.817 40.8385 73.6705 40.7495C73.524 40.656 73.2043 40.6693 72.7114 40.7851C72.4761 40.8385 72.2452 40.8964 72.0099 40.9498C71.9566 40.2998 71.9078 39.6499 71.8545 39C74.9004 38.2788 77.9464 37.5577 80.9924 36.8632ZM78.8167 43.4605C79.123 43.3892 79.425 43.318 79.7314 43.2512C80.6904 43.0287 81.3564 42.717 81.7339 42.3164C82.1068 41.9158 82.2667 41.346 82.2045 40.607C82.1468 39.9126 81.9203 39.463 81.5163 39.2582C81.1167 39.0579 80.4418 39.0623 79.496 39.2804C79.163 39.3561 78.8344 39.4318 78.5014 39.5119C78.608 40.8296 78.7101 42.1472 78.8167 43.4605Z" fill="#F477A0" stroke="#C39A6B" stroke-width="2" stroke-miterlimit="10" stroke-linecap="round" stroke-linejoin="round"/>
<path d="M90.4192 41.849C90.2371 39.5609 90.8099 37.6156 92.1375 36.0309C93.4651 34.4461 95.3966 33.4089 97.923 32.9726C100.436 32.5364 102.461 32.897 103.997 34.0054C105.533 35.1138 106.39 36.8366 106.572 39.138C106.755 41.4439 106.182 43.3314 104.854 44.8227C103.527 46.3184 101.591 47.2488 99.0553 47.6761C96.5466 48.0946 94.5263 47.8186 92.9945 46.7903C91.4582 45.762 90.6012 44.1238 90.4192 41.849ZM98.0918 35.0782C97.1505 35.2385 96.5022 35.7771 96.1381 36.6763C95.774 37.5755 95.6674 38.9377 95.8095 40.7629C95.956 42.6192 96.2757 43.919 96.7686 44.6713C97.2615 45.4236 97.9719 45.7174 98.9043 45.5616C99.8501 45.4014 100.503 44.885 100.862 43.9947C101.222 43.1044 101.329 41.7467 101.182 39.9126C101.036 38.0652 100.716 36.7609 100.223 35.9908C99.7391 35.2251 99.0242 34.918 98.0918 35.0782Z" fill="#F477A0" stroke="#C39A6B" stroke-width="2" stroke-miterlimit="10" stroke-linecap="round" stroke-linejoin="round"/>
<path d="M116.003 31.2453C117.962 34.2946 119.92 37.3884 121.878 40.5357C121.714 38.4434 121.549 36.3512 121.385 34.259C121.341 33.6936 121.243 33.3509 121.087 33.2396C120.932 33.1238 120.621 33.0704 120.146 33.0793C119.884 33.0838 119.618 33.0882 119.356 33.0971C119.303 32.4383 119.254 31.775 119.2 31.1162C121.243 31.0628 123.285 31.0628 125.323 31.1206C125.377 31.7839 125.426 32.4472 125.479 33.1105C125.315 33.106 125.146 33.1016 124.982 33.0971C124.493 33.0838 124.187 33.1416 124.058 33.2663C123.929 33.3909 123.885 33.7248 123.929 34.2723C124.213 37.9004 124.502 41.5328 124.786 45.1653C123.192 45.1252 121.603 45.1208 120.009 45.1564C117.939 41.84 115.87 38.577 113.801 35.3674C113.983 37.6466 114.161 39.9258 114.343 42.205C114.387 42.7481 114.481 43.0775 114.631 43.1977C114.782 43.3179 115.098 43.3624 115.586 43.3313C115.79 43.3179 115.999 43.309 116.203 43.2956C116.257 43.9589 116.31 44.6222 116.359 45.281C114.312 45.3879 112.26 45.5437 110.214 45.744C110.16 45.0852 110.107 44.4263 110.058 43.7631C110.285 43.7408 110.511 43.7185 110.737 43.6963C111.23 43.6518 111.546 43.5538 111.674 43.4114C111.808 43.2689 111.852 42.9262 111.808 42.392C111.608 39.8501 111.403 37.3128 111.204 34.7754C111.164 34.2456 111.066 33.9251 110.915 33.8049C110.764 33.6847 110.44 33.6491 109.943 33.6981C109.716 33.7203 109.49 33.7426 109.263 33.7693C109.21 33.1149 109.161 32.4561 109.108 31.8017C111.408 31.5613 113.703 31.3699 116.003 31.2453Z" fill="#F477A0" stroke="#C39A6B" stroke-width="2" stroke-miterlimit="10" stroke-linecap="round" stroke-linejoin="round"/>
</g>
<defs>
<clipPath id="clip0_452_12295">
<rect width="143" height="89" fill="white" transform="translate(-0.000488281)"/>
</clipPath>
</defs>
</svg>
