<?xml version="1.0" encoding="utf-8"?>
<!-- Generator: Adobe Illustrator 26.3.1, SVG Export Plug-In . SVG Version: 6.00 Build 0)  -->
<svg version="1.1" id="圖層_1" xmlns="http://www.w3.org/2000/svg" xmlns:xlink="http://www.w3.org/1999/xlink" x="0px" y="0px"
	 viewBox="0 0 143 89" style="enable-background:new 0 0 143 89;" xml:space="preserve">
<style type="text/css">
	.st0{clip-path:url(#SVGID_00000108296779205904859300000001764057688607338156_);}
	.st1{fill:#C39A6B;}
	.st2{fill:none;stroke:#C39A6B;stroke-width:2;stroke-linecap:round;stroke-linejoin:round;stroke-miterlimit:10;}
	.st3{fill:#EFECE0;stroke:#C39A6B;stroke-width:2;stroke-linecap:round;stroke-linejoin:round;stroke-miterlimit:10;}
	.st4{fill:#338973;stroke:#C39A6B;stroke-width:2;stroke-linecap:round;stroke-linejoin:round;stroke-miterlimit:10;}
	.st5{fill:#47B990;stroke:#C39A6B;stroke-width:2;stroke-linecap:round;stroke-linejoin:round;stroke-miterlimit:10;}
</style>
<g>
	<defs>
		<rect id="SVGID_1_" x="0" width="143" height="89"/>
	</defs>
	<clipPath id="SVGID_00000165919506886747899840000003726135933511762338_">
		<use xlink:href="#SVGID_1_"  style="overflow:visible;"/>
	</clipPath>
	<g style="clip-path:url(#SVGID_00000165919506886747899840000003726135933511762338_);">
		<path class="st1" d="M142.6,74.7C97.1,64.3,51.6,94.6,6.1,87.4C4.2,63.1,2.3,38.7,0.4,14.3c45.5,10.4,91-19.9,136.4-12.7
			C138.8,25.9,140.7,50.3,142.6,74.7z"/>
		<path class="st2" d="M142.6,74.7C97.1,64.3,51.6,94.6,6.1,87.4C4.2,63.1,2.3,38.7,0.4,14.3c45.5,10.4,91-19.9,136.4-12.7
			C138.8,25.9,140.7,50.3,142.6,74.7z"/>
		<path class="st3" d="M137.8,62c-1.3-16.4-2.6-32.8-3.8-49.2c-4.2-0.5-7.9-4.1-8.2-8.3C87.9,3.3,50.1,23.5,12.2,20.2
			c0.3,4.3-2.8,7.5-7,6.8C6.5,43.4,7.7,59.7,9,76.1c4.2,0.5,7.9,4.1,8.2,8.3c37.9,1.3,75.7-18.9,113.6-15.6
			C130.5,64.6,133.6,61.3,137.8,62z"/>
		<path class="st4" d="M134,12.9c-0.2-2.6-0.4-5.2-0.6-7.8c-2.5-0.3-5.1-0.5-7.6-0.6C126.1,8.8,129.8,12.4,134,12.9z"/>
		<path class="st4" d="M137.8,62c-4.2-0.7-7.3,2.5-7,6.8c2.5,0.2,5.1,0.6,7.6,1C138.2,67.2,138,64.6,137.8,62z"/>
		<path class="st4" d="M12.2,20.2c-2.5-0.2-5.1-0.6-7.6-1c0.2,2.6,0.4,5.2,0.6,7.8C9.4,27.7,12.5,24.4,12.2,20.2z"/>
		<path class="st4" d="M9,76.1c0.2,2.6,0.4,5.2,0.6,7.8c2.5,0.3,5.1,0.5,7.6,0.6C16.9,80.2,13.2,76.6,9,76.1z"/>
		<path class="st4" d="M94.2,39.5c1,12.5-8.4,24.5-20.9,27.5c-12.6,3.1-23.6-4.9-24.5-17.5C47.8,37.1,57.1,25,69.7,22
			C82.2,18.9,93.2,26.9,94.2,39.5z"/>
		<path class="st5" d="M31.5,55.2c0.1,1.9-0.4,3.4-1.4,4.5c-1,1.1-2.6,1.7-4.7,1.8c-2.4,0.1-4.3-0.5-5.7-1.8
			c-1.4-1.3-2.2-3.2-2.4-5.6c-0.2-2.3,0.4-4,1.6-5.4c1.2-1.3,3-2,5.2-2.1c0.8,0,1.5,0,2.1,0.2c0.7,0.1,1.3,0.3,1.9,0.6
			c0.1-0.3,0.2-0.5,0.3-0.8c0.8,0,1.5-0.1,2.3-0.2c0.2,1.9,0.3,3.8,0.5,5.8c-0.8,0.1-1.7,0.1-2.5,0.2c-0.4-1.3-0.8-2.3-1.3-2.9
			c-0.5-0.6-1.2-0.8-2.1-0.8c-1,0-1.7,0.5-2,1.3c-0.4,0.8-0.5,2.2-0.4,4c0.2,1.9,0.5,3.3,1,4.1c0.5,0.8,1.3,1.2,2.3,1.2
			c0.9,0,1.7-0.4,2.2-1.1c0.5-0.7,0.8-1.7,0.8-2.8C30,55.3,30.8,55.3,31.5,55.2z"/>
		<path class="st5" d="M34.8,53.3c-0.2-2.3,0.4-4.2,1.7-5.7c1.3-1.5,3.3-2.4,5.8-2.8c2.5-0.4,4.5-0.1,6.1,0.9c1.5,1,2.4,2.7,2.6,5
			c0.2,2.3-0.4,4.2-1.7,5.8c-1.3,1.6-3.3,2.6-5.8,3c-2.5,0.4-4.5,0-6.1-1.1C35.9,57.3,35,55.6,34.8,53.3z M42.5,46.9
			c-0.9,0.2-1.6,0.7-2,1.6c-0.4,0.9-0.5,2.2-0.3,4.1c0.1,1.9,0.5,3.2,1,3.9c0.5,0.8,1.2,1.1,2.1,0.9c0.9-0.2,1.6-0.7,2-1.6
			c0.4-0.9,0.5-2.3,0.3-4.1c-0.1-1.8-0.5-3.1-1-3.9C44.2,47.1,43.5,46.8,42.5,46.9z"/>
		<path class="st5" d="M60.5,51c0.1,1.1,0.3,1.8,0.7,2.1c0.4,0.4,1,0.4,1.7,0.3c0.9-0.2,1.6-0.6,2-1.1c0.4-0.5,0.5-1.3,0.5-2.2
			c-0.2-2.1-0.3-4.2-0.5-6.3c0-0.5-0.1-0.9-0.3-0.9c-0.1-0.1-0.5-0.1-0.9,0C63.4,43,63.2,43,63,43.1c-0.1-0.6-0.1-1.3-0.2-1.9
			c2.2-0.5,4.3-1,6.5-1.5c0.1,0.6,0.1,1.3,0.2,1.9c-0.2,0-0.4,0.1-0.6,0.2c-0.5,0.1-0.8,0.2-0.9,0.4c-0.1,0.2-0.2,0.5-0.1,1
			c0.2,2.2,0.4,4.4,0.5,6.7c0.1,1.5-0.3,2.7-1.3,3.7c-1,1-2.6,1.8-4.6,2.2c-1.9,0.4-3.4,0.4-4.5-0.2c-1.1-0.5-1.7-1.5-1.8-2.9
			c-0.2-2.3-0.4-4.5-0.5-6.8c0-0.5-0.1-0.8-0.3-0.9c-0.2-0.1-0.5-0.1-1,0c-0.2,0-0.5,0.1-0.7,0.1c-0.1-0.6-0.1-1.3-0.2-2
			c2.8-0.6,5.6-1.2,8.4-1.8c0.1,0.6,0.1,1.3,0.2,1.9c-0.3,0.1-0.5,0.1-0.8,0.2c-0.5,0.1-0.8,0.2-0.9,0.4c-0.1,0.2-0.2,0.5-0.1,1
			C60.2,47,60.4,49,60.5,51z"/>
		<path class="st5" d="M81,36.9c2-0.4,3.4-0.5,4.4,0s1.5,1.3,1.6,2.6c0.1,1.3-0.3,2.4-1.1,3.2c-0.9,0.8-2.3,1.4-4.2,1.9
			c-0.9,0.2-1.8,0.4-2.7,0.6c0.1,1,0.2,2,0.2,3c0,0.5,0.1,0.9,0.3,0.9c0.2,0.1,0.5,0.1,0.9,0c0.3-0.1,0.5-0.1,0.8-0.2
			c0.1,0.7,0.1,1.3,0.2,2c-2.8,0.6-5.6,1.3-8.4,2c-0.1-0.7-0.1-1.3-0.2-2c0.2-0.1,0.5-0.1,0.7-0.2c0.5-0.1,0.8-0.3,0.9-0.4
			c0.1-0.2,0.2-0.5,0.1-1c-0.2-2.5-0.4-5-0.6-7.5c0-0.5-0.1-0.9-0.3-0.9c-0.1-0.1-0.5-0.1-1,0c-0.2,0.1-0.5,0.1-0.7,0.2
			c-0.1-0.6-0.1-1.3-0.2-1.9C74.9,38.3,77.9,37.6,81,36.9z M78.8,43.5c0.3-0.1,0.6-0.1,0.9-0.2c1-0.2,1.6-0.5,2-0.9
			c0.4-0.4,0.5-1,0.5-1.7c-0.1-0.7-0.3-1.1-0.7-1.3c-0.4-0.2-1.1-0.2-2,0c-0.3,0.1-0.7,0.2-1,0.2C78.6,40.8,78.7,42.1,78.8,43.5z"/>
		<path class="st5" d="M90.4,41.8c-0.2-2.3,0.4-4.2,1.7-5.8c1.3-1.6,3.3-2.6,5.8-3.1c2.5-0.4,4.5-0.1,6.1,1c1.5,1.1,2.4,2.8,2.6,5.1
			c0.2,2.3-0.4,4.2-1.7,5.7c-1.3,1.5-3.3,2.4-5.8,2.9c-2.5,0.4-4.5,0.1-6.1-0.9C91.5,45.8,90.6,44.1,90.4,41.8z M98.1,35.1
			c-0.9,0.2-1.6,0.7-2,1.6s-0.5,2.3-0.3,4.1c0.1,1.9,0.5,3.2,1,3.9s1.2,1,2.1,0.9c0.9-0.2,1.6-0.7,2-1.6c0.4-0.9,0.5-2.2,0.3-4.1
			c-0.1-1.8-0.5-3.2-1-3.9C99.7,35.2,99,34.9,98.1,35.1z"/>
		<path class="st5" d="M116,31.2c2,3,3.9,6.1,5.9,9.3c-0.2-2.1-0.3-4.2-0.5-6.3c0-0.6-0.1-0.9-0.3-1c-0.2-0.1-0.5-0.2-0.9-0.2
			c-0.3,0-0.5,0-0.8,0c-0.1-0.7-0.1-1.3-0.2-2c2-0.1,4.1-0.1,6.1,0c0.1,0.7,0.1,1.3,0.2,2c-0.2,0-0.3,0-0.5,0c-0.5,0-0.8,0-0.9,0.2
			c-0.1,0.1-0.2,0.5-0.1,1c0.3,3.6,0.6,7.3,0.9,10.9c-1.6,0-3.2,0-4.8,0c-2.1-3.3-4.1-6.6-6.2-9.8c0.2,2.3,0.4,4.6,0.5,6.8
			c0,0.5,0.1,0.9,0.3,1c0.2,0.1,0.5,0.2,1,0.1c0.2,0,0.4,0,0.6,0c0.1,0.7,0.1,1.3,0.2,2c-2,0.1-4.1,0.3-6.1,0.5
			c-0.1-0.7-0.1-1.3-0.2-2c0.2,0,0.5,0,0.7-0.1c0.5,0,0.8-0.1,0.9-0.3c0.1-0.1,0.2-0.5,0.1-1c-0.2-2.5-0.4-5.1-0.6-7.6
			c0-0.5-0.1-0.9-0.3-1c-0.2-0.1-0.5-0.2-1-0.1c-0.2,0-0.5,0-0.7,0.1c-0.1-0.7-0.1-1.3-0.2-2C111.4,31.6,113.7,31.4,116,31.2z"/>
	</g>
</g>
</svg>
