<?xml version="1.0" encoding="utf-8"?>
<!-- Generator: Adobe Illustrator 26.3.1, SVG Export Plug-In . SVG Version: 6.00 Build 0)  -->
<svg version="1.1" id="圖層_1" xmlns="http://www.w3.org/2000/svg" xmlns:xlink="http://www.w3.org/1999/xlink" x="0px" y="0px"
	 viewBox="0 0 144.1 90.1" style="enable-background:new 0 0 144.1 90.1;" xml:space="preserve">
<style type="text/css">
	.st0{clip-path:url(#SVGID_00000072275467052426567310000008302333108266774169_);}
	.st1{fill:#A1A1A1;}
	.st2{fill:none;stroke:#A1A1A1;stroke-width:2;stroke-linecap:round;stroke-linejoin:round;stroke-miterlimit:10;}
	.st3{fill:#ECECEC;stroke:#A1A1A1;stroke-width:2;stroke-linecap:round;stroke-linejoin:round;stroke-miterlimit:10;}
	.st4{fill:#525252;stroke:#A1A1A1;stroke-width:2;stroke-linecap:round;stroke-linejoin:round;stroke-miterlimit:10;}
	.st5{fill:#BCBCBC;stroke:#A1A1A1;stroke-width:2;stroke-linecap:round;stroke-linejoin:round;stroke-miterlimit:10;}
</style>
<g>
	<defs>
		<rect id="SVGID_1_" x="0.6" y="0.6" width="143" height="89"/>
	</defs>
	<clipPath id="SVGID_00000041980369037807279930000012460024818025121665_">
		<use xlink:href="#SVGID_1_"  style="overflow:visible;"/>
	</clipPath>
	<g style="clip-path:url(#SVGID_00000041980369037807279930000012460024818025121665_);">
		<path class="st1" d="M143.1,75.3C97.6,64.9,52.2,95.2,6.7,88C4.8,63.7,2.9,39.3,1,14.8C46.5,25.2,92-5.1,137.4,2.1
			C139.3,26.4,141.2,50.8,143.1,75.3z"/>
		<path class="st2" d="M143.1,75.3C97.6,64.9,52.2,95.2,6.7,88C4.8,63.7,2.9,39.3,1,14.8C46.5,25.2,92-5.1,137.4,2.1
			C139.3,26.4,141.2,50.8,143.1,75.3z"/>
		<path class="st3" d="M138.4,62.6c-1.3-16.4-2.6-32.8-3.8-49.2c-4.2-0.5-7.9-4.1-8.2-8.3C88.5,3.8,50.6,24,12.8,20.7
			c0.3,4.3-2.8,7.5-7,6.8C7,43.9,8.3,60.3,9.6,76.7c4.2,0.5,7.9,4.1,8.2,8.3c37.9,1.3,75.7-18.9,113.6-15.6
			C131,65.1,134.2,61.9,138.4,62.6z"/>
		<path class="st4" d="M134.5,13.4c-0.2-2.6-0.4-5.2-0.6-7.8c-2.5-0.3-5.1-0.5-7.6-0.6C126.6,9.4,130.3,12.9,134.5,13.4z"/>
		<path class="st4" d="M138.4,62.6c-4.2-0.7-7.3,2.5-7,6.8c2.5,0.2,5.1,0.6,7.6,1C138.8,67.8,138.6,65.2,138.4,62.6z"/>
		<path class="st4" d="M12.8,20.7c-2.5-0.2-5.1-0.6-7.6-1c0.2,2.6,0.4,5.2,0.6,7.8C10,28.2,13.1,25,12.8,20.7z"/>
		<path class="st4" d="M9.6,76.7c0.2,2.6,0.4,5.2,0.6,7.8c2.5,0.3,5.1,0.5,7.6,0.6C17.5,80.7,13.8,77.2,9.6,76.7z"/>
		<path class="st4" d="M94.8,40c1,12.5-8.4,24.5-20.9,27.5c-12.6,3.1-23.6-4.9-24.5-17.5c-1-12.5,8.4-24.5,20.9-27.5
			C82.8,19.5,93.8,27.5,94.8,40z"/>
		<path class="st5" d="M32.1,55.8c0.1,1.9-0.4,3.4-1.4,4.5c-1,1.1-2.6,1.7-4.7,1.8c-2.4,0.1-4.3-0.5-5.7-1.8
			c-1.4-1.3-2.2-3.2-2.4-5.6c-0.2-2.3,0.4-4,1.6-5.4c1.2-1.3,3-2,5.2-2.1c0.8,0,1.5,0,2.1,0.2c0.7,0.1,1.3,0.3,1.9,0.6
			c0.1-0.3,0.2-0.5,0.3-0.8c0.8,0,1.5-0.1,2.3-0.2c0.2,1.9,0.3,3.8,0.5,5.8c-0.8,0.1-1.7,0.1-2.5,0.2c-0.4-1.3-0.8-2.3-1.3-2.9
			c-0.5-0.6-1.2-0.8-2.1-0.8c-1,0-1.7,0.5-2,1.3c-0.4,0.8-0.5,2.2-0.4,4c0.2,1.9,0.5,3.3,1,4.1c0.5,0.8,1.3,1.2,2.3,1.2
			c0.9,0,1.7-0.4,2.2-1.1c0.5-0.7,0.8-1.7,0.8-2.8C30.6,55.9,31.3,55.8,32.1,55.8z"/>
		<path class="st5" d="M35.4,53.9c-0.2-2.3,0.4-4.2,1.7-5.7c1.3-1.5,3.3-2.4,5.8-2.8c2.5-0.4,4.5-0.1,6.1,0.9c1.5,1,2.4,2.7,2.6,5
			c0.2,2.3-0.4,4.2-1.7,5.8c-1.3,1.6-3.3,2.6-5.8,3c-2.5,0.4-4.5,0-6.1-1.1C36.4,57.9,35.6,56.2,35.4,53.9z M43.1,47.5
			c-0.9,0.2-1.6,0.7-2,1.6c-0.4,0.9-0.5,2.2-0.3,4.1c0.1,1.9,0.5,3.2,1,3.9c0.5,0.8,1.2,1.1,2.1,0.9c0.9-0.2,1.6-0.7,2-1.6
			c0.4-0.9,0.5-2.3,0.3-4.1c-0.1-1.8-0.5-3.1-1-3.9C44.7,47.6,44,47.3,43.1,47.5z"/>
		<path class="st5" d="M61.1,51.6c0.1,1.1,0.3,1.8,0.7,2.1c0.4,0.4,1,0.4,1.7,0.3c0.9-0.2,1.6-0.6,2-1.1c0.4-0.5,0.5-1.3,0.5-2.2
			c-0.2-2.1-0.3-4.2-0.5-6.3c0-0.5-0.1-0.9-0.3-0.9c-0.1-0.1-0.5-0.1-0.9,0c-0.2,0.1-0.5,0.1-0.7,0.2c-0.1-0.6-0.1-1.3-0.2-1.9
			c2.2-0.5,4.3-1,6.5-1.5c0.1,0.6,0.1,1.3,0.2,1.9c-0.2,0-0.4,0.1-0.6,0.2c-0.5,0.1-0.8,0.2-0.9,0.4c-0.1,0.2-0.2,0.5-0.1,1
			c0.2,2.2,0.4,4.4,0.5,6.7c0.1,1.5-0.3,2.7-1.3,3.7c-1,1-2.6,1.8-4.6,2.2c-1.9,0.4-3.4,0.4-4.5-0.2c-1.1-0.5-1.7-1.5-1.8-2.9
			c-0.2-2.3-0.4-4.5-0.5-6.8c0-0.5-0.1-0.8-0.3-0.9c-0.2-0.1-0.5-0.1-1,0c-0.2,0-0.5,0.1-0.7,0.1c-0.1-0.6-0.1-1.3-0.2-2
			c2.8-0.6,5.6-1.2,8.4-1.8c0.1,0.6,0.1,1.3,0.2,1.9c-0.3,0.1-0.5,0.1-0.8,0.2c-0.5,0.1-0.8,0.2-0.9,0.4c-0.1,0.2-0.2,0.5-0.1,1
			C60.8,47.5,60.9,49.6,61.1,51.6z"/>
		<path class="st5" d="M81.5,37.4c2-0.4,3.4-0.5,4.4,0s1.5,1.3,1.6,2.6c0.1,1.3-0.3,2.4-1.1,3.2c-0.9,0.8-2.3,1.4-4.2,1.9
			c-0.9,0.2-1.8,0.4-2.7,0.6c0.1,1,0.2,2,0.2,3c0,0.5,0.1,0.9,0.3,0.9c0.2,0.1,0.5,0.1,0.9,0c0.3-0.1,0.5-0.1,0.8-0.2
			c0.1,0.7,0.1,1.3,0.2,2c-2.8,0.6-5.6,1.3-8.4,2c-0.1-0.7-0.1-1.3-0.2-2c0.2-0.1,0.5-0.1,0.7-0.2c0.5-0.1,0.8-0.3,0.9-0.4
			c0.1-0.2,0.2-0.5,0.1-1c-0.2-2.5-0.4-5-0.6-7.5c0-0.5-0.1-0.9-0.3-0.9c-0.1-0.1-0.5-0.1-1,0c-0.2,0.1-0.5,0.1-0.7,0.2
			c-0.1-0.6-0.1-1.3-0.2-1.9C75.5,38.8,78.5,38.1,81.5,37.4z M79.4,44c0.3-0.1,0.6-0.1,0.9-0.2c1-0.2,1.6-0.5,2-0.9
			c0.4-0.4,0.5-1,0.5-1.7c-0.1-0.7-0.3-1.1-0.7-1.3c-0.4-0.2-1.1-0.2-2,0c-0.3,0.1-0.7,0.2-1,0.2C79.2,41.4,79.3,42.7,79.4,44z"/>
		<path class="st5" d="M91,42.4c-0.2-2.3,0.4-4.2,1.7-5.8C94,35,96,34,98.5,33.5c2.5-0.4,4.5-0.1,6.1,1c1.5,1.1,2.4,2.8,2.6,5.1
			c0.2,2.3-0.4,4.2-1.7,5.7c-1.3,1.5-3.3,2.4-5.8,2.9c-2.5,0.4-4.5,0.1-6.1-0.9C92,46.3,91.2,44.7,91,42.4z M98.6,35.6
			c-0.9,0.2-1.6,0.7-2,1.6s-0.5,2.3-0.3,4.1c0.1,1.9,0.5,3.2,1,3.9s1.2,1,2.1,0.9c0.9-0.2,1.6-0.7,2-1.6c0.4-0.9,0.5-2.2,0.3-4.1
			c-0.1-1.8-0.5-3.2-1-3.9C100.3,35.8,99.6,35.5,98.6,35.6z"/>
		<path class="st5" d="M116.6,31.8c2,3,3.9,6.1,5.9,9.3c-0.2-2.1-0.3-4.2-0.5-6.3c0-0.6-0.1-0.9-0.3-1c-0.2-0.1-0.5-0.2-0.9-0.2
			c-0.3,0-0.5,0-0.8,0c-0.1-0.7-0.1-1.3-0.2-2c2-0.1,4.1-0.1,6.1,0c0.1,0.7,0.1,1.3,0.2,2c-0.2,0-0.3,0-0.5,0c-0.5,0-0.8,0-0.9,0.2
			c-0.1,0.1-0.2,0.5-0.1,1c0.3,3.6,0.6,7.3,0.9,10.9c-1.6,0-3.2,0-4.8,0c-2.1-3.3-4.1-6.6-6.2-9.8c0.2,2.3,0.4,4.6,0.5,6.8
			c0,0.5,0.1,0.9,0.3,1c0.2,0.1,0.5,0.2,1,0.1c0.2,0,0.4,0,0.6,0c0.1,0.7,0.1,1.3,0.2,2c-2,0.1-4.1,0.3-6.1,0.5
			c-0.1-0.7-0.1-1.3-0.2-2c0.2,0,0.5,0,0.7-0.1c0.5,0,0.8-0.1,0.9-0.3c0.1-0.1,0.2-0.5,0.1-1c-0.2-2.5-0.4-5.1-0.6-7.6
			c0-0.5-0.1-0.9-0.3-1c-0.2-0.1-0.5-0.2-1-0.1c-0.2,0-0.5,0-0.7,0.1c-0.1-0.7-0.1-1.3-0.2-2C112,32.1,114.3,31.9,116.6,31.8z"/>
	</g>
</g>
</svg>
