<svg width="989" height="887" viewBox="0 0 989 887" fill="none" xmlns="http://www.w3.org/2000/svg">
<path d="M279.576 710.359C279.576 710.359 271.982 683.122 402.984 683.122C426.735 683.122 469.498 684.149 486.654 663.187C499.957 646.93 477.662 631.9 464.759 625.569C434.043 610.539 399.501 605.918 365.616 606.289C365.616 606.289 368.785 591.117 344.72 589.206C344.72 589.206 332.702 570.24 405.467 570.24C448.516 570.24 473.18 565.791 470.64 553.47C470.64 553.47 526.334 547.481 529.503 525.977C532.044 509.55 511.776 508.894 511.776 508.894C511.776 508.894 521.91 490.555 467.471 477.293C413.032 464.003 371.268 459.583 360.506 434.941C349.744 410.272 413.032 392.589 437.069 389.423C461.105 386.258 526.934 381.21 521.253 348.326C517.456 329.36 482.658 319.863 477.577 316.07C472.524 312.277 461.134 297.104 500.357 290.145C539.609 283.187 531.159 276.855 529.674 271.807C528.19 266.759 542.749 264.221 550.97 262.966C559.192 261.711 595.275 237.669 547.802 218.703C500.328 199.737 421.225 202.903 386.427 201.62C351.628 200.336 334.529 188.985 333.9 173.813C333.272 158.64 373.78 166.226 383.886 159.267C394.02 152.309 398.445 130.804 352.256 124.502C306.067 118.199 258.594 118.798 258.594 118.798C258.594 118.798 249.745 104.88 232.645 104.88C215.545 104.88 216.83 123.218 204.812 123.218C192.794 123.218 192.794 113.094 192.794 113.094C192.794 113.094 200.387 105.507 192.794 95.3827C192.794 95.3827 213.033 85.2581 180.775 70.0855C173.182 64.3815 185.2 42.2785 210.521 53.658C229.505 68.2032 244.064 75.7895 263.675 65.0375C263.675 65.0375 272.525 59.3335 281.403 58.0786C290.252 56.8237 282.659 42.906 294.049 41.6511C305.439 40.3962 351 46.6991 365.559 37.8579C380.118 29.0168 387.083 32.1539 390.88 30.2716C394.677 28.3608 395.305 18.8922 385.827 16.3539C385.827 16.3539 401.014 18.8922 405.439 10.6499C409.863 2.43615 423.166 5.60187 423.166 5.60187C423.166 5.60187 405.439 -1.9274 388.996 5.00295C372.553 11.9333 356.081 1.06719 345.319 2.06539C334.557 3.06359 333.301 20.147 352.285 22.6568C371.268 25.1666 356.081 40.9951 321.283 35.2911C286.484 29.5871 278.234 33.3803 276.978 40.9951C275.722 48.61 267.472 57.4226 259.251 58.0786C251.029 58.706 239.011 61.8717 235.842 51.7472C232.674 41.6226 211.806 28.3608 194.078 34.0363C194.078 34.0363 135.843 34.6637 125.737 65.0089C119.942 82.3776 155.569 74.449 161.535 78.1852C162.934 79.0693 163.99 80.6949 163.733 82.3205C162.762 88.652 138.469 86.5985 134.615 86.4845C89.0546 85.2296 64.3616 77.6433 45.378 106.705C45.0639 107.19 39.0691 107.133 38.3554 107.247C22.8545 109.643 2.55776 121.849 2.10101 139.532C1.92973 145.635 4.61313 151.596 8.55259 156.301C29.9912 181.941 68.4152 177.149 96.0485 166.255C96.0485 166.255 140.981 179.545 167.558 172.586C194.135 165.627 197.932 154.875 196.048 148.572C196.048 148.572 219.456 151.111 222.625 145.407C225.794 139.703 225.166 129.607 268.186 130.862C311.234 132.116 328.305 146.034 325.765 156.786C323.253 167.51 244.777 180.8 228.334 193.434C211.891 206.069 223.91 229.484 344.149 225.034C464.388 220.585 540.751 228.828 535.27 250.332C529.789 271.836 506.78 264.249 500.471 267.415C494.134 270.581 506.808 282.588 470.725 288.919C434.642 295.251 417.571 328.134 459.335 330.016C501.099 331.927 528.961 359.734 435.299 371.741C341.637 383.748 256.824 420.025 251.143 458.157C249.231 481.115 318.228 490.584 361.905 489.956C405.581 489.329 430.246 505.756 410.634 516.508C391.023 527.26 349.259 524.722 306.21 538.954C263.162 553.185 274.58 585.413 290.395 586.696C290.395 586.696 284.686 596.507 325.194 601.412C325.194 601.412 304.954 622.118 381.517 618.325C458.079 614.531 467.585 654.26 424.565 666.951C381.517 679.643 302.413 674.024 276.464 692.334L279.576 710.359Z" fill="#C39A6B" stroke="#EEECE0" stroke-width="3" stroke-miterlimit="10"/>
<path d="M470.725 553.497C346.062 566.445 397.303 527.259 426.421 521.612C437.44 519.473 454.796 519.644 461.79 530.453C463.132 532.535 463.475 535.444 461.962 537.355C457.48 543.002 445.519 540.264 441.636 535.472C441.636 535.472 457.366 528.571 430.817 529.455C404.268 530.339 393.621 559.486 496.732 548.42" stroke="#EEECE0" stroke-width="3" stroke-miterlimit="10"/>
<path d="M377.806 382.379C343.778 392.133 252.371 439.618 309.95 458.156C367.529 476.694 506.78 484.281 490.309 514.626C490.309 514.626 537.696 529.599 488.396 549.278" stroke="#EEECE0" stroke-width="3" stroke-miterlimit="10"/>
<path d="M510.834 543.603C510.834 543.603 525.764 528.63 520.711 521.614C515.658 514.626 503.611 513.343 503.611 513.343C503.611 513.343 501.699 493.122 471.981 486.791" stroke="#EEECE0" stroke-width="3" stroke-miterlimit="10"/>
<path d="M390.88 545.454C390.88 545.454 335.271 542.46 310.607 571.55C304.269 581.047 325.165 587.978 344.777 589.261" stroke="#EEECE0" stroke-width="3" stroke-miterlimit="10"/>
<path d="M440.38 555.838C440.38 555.838 444.148 563.966 395.419 561.428C346.69 558.89 336.384 579.31 339.01 588.693" stroke="#EEECE0" stroke-width="3" stroke-miterlimit="10"/>
<path d="M346.061 550.732C320.084 557.007 297.361 565.762 296.047 579.766C294.734 593.74 323.881 593.056 330.846 596.193C337.811 599.359 344.805 610.139 332.445 615.501" stroke="#EEECE0" stroke-width="3" stroke-miterlimit="10"/>
<path d="M337.184 129.578C337.184 129.578 368.814 133.999 375.779 140.958C382.744 147.916 382.744 159.866 356.481 163.374C330.218 166.882 323.881 172.558 322.625 178.889C321.369 185.221 330.989 190.696 345.462 191.752" stroke="#EEECE0" stroke-width="3" stroke-miterlimit="10"/>
<path d="M295.391 170.59C257.938 181.427 239.097 192.807 240.981 203.559C242.893 214.311 329.59 223.152 373.895 216.849" stroke="#EEECE0" stroke-width="3" stroke-miterlimit="10"/>
<path d="M108.153 85.3452C83.3171 85.06 56.8257 96.0973 54.913 110.642C54.913 110.642 23.9112 114.436 12.521 137.822C9.35233 149.201 22.0271 165.23 67.5878 160.695C67.5878 160.695 62.4779 175.098 88.1415 169.108" stroke="#EEECE0" stroke-width="3" stroke-miterlimit="10"/>
<path d="M196.048 148.544C196.048 148.544 188.455 133.372 166.931 133.999C166.931 133.999 159.708 114.263 129.791 127.925C129.791 127.925 116.46 140.331 108.153 141.586C99.8456 142.84 87.6561 135.083 108.153 129.579C108.153 129.579 85.3153 130.206 82.1466 142.213C78.9779 154.22 105.555 155.503 121.398 135.882C131.533 127.896 161.278 126.955 161.906 140.274C161.906 140.274 177.664 140.416 177.721 154.847C177.778 169.307 149.232 174.555 149.232 174.555" stroke="#EEECE0" stroke-width="3" stroke-miterlimit="10"/>
<path d="M213.862 34.4082C213.862 34.4082 196.048 35.3779 188.455 42.9642C188.455 42.9642 150.602 42.1371 144.15 59.3917C138.955 67.6054 159.337 68.2329 165.675 70.7711C172.012 73.3094 192.88 90.9918 134.673 86.5712" stroke="#EEECE0" stroke-width="3" stroke-miterlimit="10"/>
<path d="M370.098 22.0875C370.098 22.0875 363.761 11.3355 385.913 16.3835" stroke="#EEECE0" stroke-width="3" stroke-miterlimit="10"/>
<path d="M857.932 735.102C867.972 737.445 877.808 727.315 872.641 714.898C867.474 702.48 847.393 697.776 837.501 705.415C827.628 713.054 825.228 720.563 825.228 720.582C825.763 718.875 818.807 717.356 817.742 717.198C813.967 716.655 809.999 717.409 806.726 719.388C799.298 723.882 797.09 733.898 797.905 741.997C798.766 750.577 803.407 758.774 810.872 763.279C810.872 763.279 818.439 768.168 825.951 768.057C825.951 768.057 840.813 790.817 880.961 784.989C921.108 779.161 913.357 761.78 913.357 761.78C913.357 761.78 958.5 771.115 975.7 750.854C992.9 730.612 992.418 698.119 957.205 683.656C921.991 669.173 904.754 686.923 904.754 686.923C904.754 686.923 874.134 644.893 824.212 650.634C799.26 653.495 781.875 661.264 769.492 668.94C769.492 668.94 744.318 656.819 729.535 672.023C722.153 679.625 719.754 687.172 722.339 692.116C722.339 692.116 707.223 684.847 692.274 687.56C692.274 687.56 734.463 666.948 718.774 619.695C703.086 572.442 633.213 580.97 623.432 596.119C623.432 596.119 592.479 531.596 510.038 535.308C510.038 535.308 486.232 509.881 444.365 520.89C427.412 526.529 417.52 534.168 417.52 534.168C417.52 534.168 397.2 511.972 362.393 524.981C327.586 537.991 315.462 563.159 318.175 578.123C320.888 593.088 325.927 595.504 325.927 595.504C325.927 595.504 305.474 606.119 318.59 627.012C318.59 627.012 266.168 611.394 249.227 649.127C239.52 669.257 242.253 684.221 242.253 684.221C242.253 684.221 209.641 677.212 197.48 699.889C192.626 709.964 192.774 719.945 192.922 729.946C192.922 729.946 142.76 718.195 117.974 733.547C93.2073 748.919 86.1021 776.503 93.9104 796.394C96.5125 803.848 99.0601 806.32 99.0601 806.32C99.0601 806.32 83.9443 799.052 71.524 804.237L72.264 854.203C72.264 854.203 99.8741 861.286 124.752 853.425C124.867 853.385 127.409 856.785 127.605 856.994C130.139 859.795 133.015 862.302 136.194 864.34C145.496 870.343 156.706 870.834 167.026 867.302C177.404 863.749 188.05 857.431 195.286 849.098C197.375 846.711 200.028 843.234 199.552 839.823L249.927 838.537C249.927 838.537 267.452 866.316 322.32 858.011C342.27 855.225 347.05 840.149 346.976 835.149C346.976 835.149 382.041 839.631 396.657 814.426C401.548 806.861 404.468 792.76 404.115 789.791C404.115 789.791 436.391 796.342 453.554 773.591C453.554 773.591 456.193 783.555 461.232 785.972C461.232 785.972 444.513 838.706 509.939 867.727C575.365 896.748 624.844 861.024 624.844 861.024C624.844 861.024 659.947 867.996 694.68 849.986C729.412 831.976 713.79 802.199 713.79 802.199C713.79 802.199 751.54 806.66 756.098 776.603C756.098 776.603 794.062 808.541 826.007 770.566" fill="#C39A6B"/>
<path d="M72.2254 854.202C72.2254 854.202 99.8355 861.286 124.713 853.425C124.828 853.385 127.371 856.784 127.567 856.994C130.1 859.795 132.976 862.301 136.155 864.34C145.457 870.343 156.668 870.834 166.988 867.301C177.365 863.749 188.011 857.431 195.247 849.098C197.336 846.711 199.989 843.234 199.514 839.823L249.888 838.536C249.888 838.536 267.413 866.316 322.281 858.011C342.232 855.224 347.011 840.149 346.937 835.149C346.937 835.149 382.003 839.631 396.618 814.426C401.509 806.861 404.429 792.76 404.076 789.791C404.076 789.791 436.353 796.342 453.516 773.591C453.516 773.591 456.155 783.555 461.193 785.971C461.193 785.971 444.475 838.706 509.901 867.727C575.327 896.747 624.805 861.023 624.805 861.023C624.805 861.023 659.908 867.996 694.641 849.986C729.374 831.976 713.751 802.198 713.751 802.198C713.751 802.198 751.501 806.66 756.059 776.603C756.059 776.603 794.023 808.541 825.969 770.566" fill="#C39A6B"/>
<path d="M72.2254 854.202C72.2254 854.202 99.8355 861.286 124.713 853.425C124.828 853.385 127.371 856.784 127.567 856.994C130.1 859.795 132.976 862.301 136.155 864.34C145.457 870.343 156.668 870.834 166.988 867.301C177.365 863.749 188.011 857.431 195.247 849.098C197.336 846.711 199.989 843.234 199.514 839.823L249.888 838.536C249.888 838.536 267.413 866.316 322.281 858.011C342.232 855.224 347.011 840.149 346.937 835.149C346.937 835.149 382.003 839.631 396.618 814.426C401.509 806.861 404.429 792.76 404.076 789.791C404.076 789.791 436.353 796.342 453.516 773.591C453.516 773.591 456.155 783.555 461.193 785.971C461.193 785.971 444.475 838.706 509.901 867.727C575.327 896.747 624.805 861.023 624.805 861.023C624.805 861.023 659.908 867.996 694.641 849.986C729.374 831.976 713.751 802.198 713.751 802.198C713.751 802.198 751.501 806.66 756.059 776.603C756.059 776.603 794.023 808.541 825.969 770.566" stroke="#EEECE0" stroke-width="3" stroke-linecap="round" stroke-linejoin="round"/>
<path d="M857.932 735.102C867.972 737.445 877.808 727.315 872.641 714.898C867.473 702.48 847.393 697.776 837.501 705.415C827.628 713.054 825.228 720.563 825.228 720.582C825.763 718.875 818.806 717.356 817.742 717.198C813.967 716.655 809.999 717.409 806.726 719.388C799.298 723.882 797.09 733.898 797.905 741.997C798.766 750.577 803.407 758.774 810.872 763.279C810.872 763.279 818.439 768.168 825.951 768.057C825.951 768.057 840.813 790.817 880.961 784.989C921.108 779.161 913.357 761.78 913.357 761.78C913.357 761.78 958.5 771.115 975.699 750.854C992.9 730.612 992.418 698.119 957.205 683.656C921.991 669.173 904.754 686.923 904.754 686.923C904.754 686.923 874.134 644.893 824.212 650.634C799.26 653.495 781.875 661.264 769.492 668.94C769.492 668.94 744.318 656.819 729.535 672.023C722.153 679.625 719.754 687.172 722.338 692.116C722.338 692.116 707.223 684.847 692.274 687.56C692.274 687.56 734.463 666.948 718.774 619.695C703.086 572.442 633.213 580.97 623.432 596.119C623.432 596.119 592.479 531.596 510.038 535.308C510.038 535.308 486.232 509.881 444.365 520.89C427.412 526.529 417.52 534.168 417.52 534.168C417.52 534.168 397.2 511.972 362.393 524.981C327.586 537.991 315.462 563.159 318.175 578.123C320.888 593.088 325.927 595.504 325.927 595.504C325.927 595.504 305.474 606.119 318.59 627.012C318.59 627.012 266.168 611.394 249.227 649.127C239.52 669.257 242.253 684.221 242.253 684.221C242.253 684.221 209.641 677.212 197.48 699.889C192.626 709.964 192.774 719.945 192.922 729.946C192.922 729.946 142.76 718.195 117.974 733.547C93.2072 748.919 86.102 776.503 93.9103 796.394C96.5124 803.848 99.06 806.32 99.06 806.32C99.06 806.32 83.9442 799.052 71.5239 804.237" fill="#C39A6B"/>
<path d="M857.932 735.102C867.972 737.445 877.808 727.315 872.641 714.898C867.473 702.48 847.393 697.776 837.501 705.415C827.628 713.054 825.228 720.563 825.228 720.582C825.763 718.875 818.806 717.356 817.742 717.198C813.967 716.655 809.999 717.409 806.726 719.388C799.298 723.882 797.09 733.898 797.905 741.997C798.766 750.577 803.407 758.774 810.872 763.279C810.872 763.279 818.439 768.168 825.951 768.057C825.951 768.057 840.813 790.817 880.961 784.989C921.108 779.161 913.357 761.78 913.357 761.78C913.357 761.78 958.5 771.115 975.699 750.854C992.9 730.612 992.418 698.119 957.205 683.656C921.991 669.173 904.754 686.923 904.754 686.923C904.754 686.923 874.134 644.893 824.212 650.634C799.26 653.495 781.875 661.264 769.492 668.94C769.492 668.94 744.318 656.819 729.535 672.023C722.153 679.625 719.754 687.172 722.338 692.116C722.338 692.116 707.223 684.847 692.274 687.56C692.274 687.56 734.463 666.948 718.774 619.695C703.086 572.442 633.213 580.97 623.432 596.119C623.432 596.119 592.479 531.596 510.038 535.308C510.038 535.308 486.232 509.881 444.365 520.89C427.412 526.529 417.52 534.168 417.52 534.168C417.52 534.168 397.2 511.972 362.393 524.981C327.586 537.991 315.462 563.159 318.175 578.123C320.888 593.088 325.927 595.504 325.927 595.504C325.927 595.504 305.474 606.119 318.59 627.012C318.59 627.012 266.168 611.394 249.227 649.127C239.52 669.257 242.253 684.221 242.253 684.221C242.253 684.221 209.641 677.212 197.48 699.889C192.626 709.964 192.774 719.945 192.922 729.946C192.922 729.946 142.76 718.195 117.974 733.547C93.2072 748.919 86.102 776.503 93.9103 796.394C96.5124 803.848 99.06 806.32 99.06 806.32C99.06 806.32 83.9442 799.052 71.5239 804.237" stroke="#EEECE0" stroke-width="3" stroke-linecap="round" stroke-linejoin="round"/>
<path d="M780.196 718.758C780.196 718.758 775.958 685.625 744.23 695.191C734.924 699.422 734.998 704.423 734.998 704.423" fill="#C39A6B"/>
<path d="M780.196 718.758C780.196 718.758 775.958 685.625 744.23 695.191C734.924 699.422 734.998 704.423 734.998 704.423" stroke="#EEECE0" stroke-width="3" stroke-linecap="round" stroke-linejoin="round"/>
<path d="M742.166 730.579C742.166 730.579 752.66 716.675 729.997 704.516C707.315 692.358 680.131 712.747 682.955 735.202" fill="#C39A6B"/>
<path d="M742.166 730.579C742.166 730.579 752.66 716.675 729.997 704.516C707.315 692.358 680.131 712.747 682.955 735.202" stroke="#EEECE0" stroke-width="3" stroke-linecap="round" stroke-linejoin="round"/>
<path d="M756.059 776.604C756.059 776.604 742.184 768.351 732.659 757.716Z" fill="#C39A6B"/>
<path d="M756.059 776.604C756.059 776.604 742.184 768.351 732.659 757.716" stroke="#EEECE0" stroke-width="3" stroke-linecap="round" stroke-linejoin="round"/>
<path d="M735.715 754.099C735.715 754.099 733.302 759.445 725.79 759.556Z" fill="#C39A6B"/>
<path d="M735.715 754.099C735.715 754.099 733.302 759.445 725.79 759.556" stroke="#EEECE0" stroke-width="3" stroke-linecap="round" stroke-linejoin="round"/>
<path d="M745.286 769.155C745.286 769.155 743.786 791.771 711.175 784.761C678.563 777.752 678.378 765.26 678.378 765.26C678.378 765.26 648.61 780.706 630.855 763.473C613.1 746.24 621.31 709.776 652.058 718.744" fill="#C39A6B"/>
<path d="M745.286 769.155C745.286 769.155 743.786 791.771 711.175 784.761C678.563 777.752 678.378 765.26 678.378 765.26C678.378 765.26 648.61 780.706 630.855 763.473C613.1 746.24 621.31 709.776 652.058 718.744" stroke="#EEECE0" stroke-width="3" stroke-linecap="round" stroke-linejoin="round"/>
<path d="M644.089 813.252C644.089 813.252 654.167 818.105 649.35 830.67C644.533 843.236 634.456 838.383 634.456 838.383C634.456 838.383 637.354 865.839 602.214 856.356C567.074 846.874 579.31 829.197 579.31 829.197C579.31 829.197 551.662 819.603 558.805 794.509C565.947 769.415 585.971 771.61 585.971 771.61" fill="#C39A6B"/>
<path d="M644.089 813.252C644.089 813.252 654.167 818.105 649.35 830.67C644.533 843.236 634.456 838.383 634.456 838.383C634.456 838.383 637.354 865.839 602.214 856.356C567.074 846.874 579.31 829.197 579.31 829.197C579.31 829.197 551.662 819.603 558.805 794.509C565.947 769.415 585.971 771.61 585.971 771.61" stroke="#EEECE0" stroke-width="3" stroke-linecap="round" stroke-linejoin="round"/>
<path d="M531.177 784.934C531.177 784.934 508.859 797.373 520.397 816.146C531.917 834.919 558.277 838.429 577.56 833.683" fill="#C39A6B"/>
<path d="M531.177 784.934C531.177 784.934 508.859 797.373 520.397 816.146C531.917 834.919 558.277 838.429 577.56 833.683" stroke="#EEECE0" stroke-width="3" stroke-linecap="round" stroke-linejoin="round"/>
<path d="M569.394 664.39C576.426 665.793 583.472 669.434 588.189 674.868C598.132 686.327 595.202 705.005 585.78 715.688C585.78 715.688 599.308 743.605 575.182 759.121C551.055 774.637 499.152 781.025 477.413 764.779" fill="#C39A6B"/>
<path d="M569.394 664.39C576.426 665.793 583.472 669.434 588.189 674.868C598.132 686.327 595.202 705.005 585.78 715.688C585.78 715.688 599.308 743.605 575.182 759.121C551.055 774.637 499.152 781.025 477.413 764.779" stroke="#EEECE0" stroke-width="3" stroke-linecap="round" stroke-linejoin="round"/>
<path d="M663.038 699.811C661.262 692.055 657.692 684.441 652.867 678.14C641.857 663.781 625.026 660.728 608.06 665.44C600.423 667.562 594.658 670.872 590.1 677.409" fill="#C39A6B"/>
<path d="M663.038 699.811C661.262 692.055 657.692 684.441 652.867 678.14C641.857 663.781 625.026 660.728 608.06 665.44C600.423 667.562 594.658 670.872 590.1 677.409" stroke="#EEECE0" stroke-width="3" stroke-linecap="round" stroke-linejoin="round"/>
<path d="M611.62 646.27C611.62 646.27 640.096 628.353 662.234 645.521C684.354 662.689 669.716 692.934 661.006 693.044" fill="#C39A6B"/>
<path d="M611.62 646.27C611.62 646.27 640.096 628.353 662.234 645.521C684.354 662.689 669.716 692.934 661.006 693.044" stroke="#EEECE0" stroke-width="3" stroke-linecap="round" stroke-linejoin="round"/>
<path d="M562.308 691.995C562.308 691.995 575.099 711.792 547.785 724.71C520.471 737.609 453.145 748.609 452.627 713.625" fill="#C39A6B"/>
<path d="M562.308 691.995C562.308 691.995 575.099 711.792 547.785 724.71C520.471 737.609 453.145 748.609 452.627 713.625" stroke="#EEECE0" stroke-width="3" stroke-linecap="round" stroke-linejoin="round"/>
<path d="M517.424 700.153C517.424 700.153 499.965 702.902 496.182 700.467C496.182 700.467 446.565 725.514 413.229 711.351C379.893 697.188 378.521 689.291 378.521 689.291C378.521 689.291 369.235 694.855 363.287 694.943C363.287 694.943 367.61 712.973 340.219 719.326C312.808 725.68 252.753 721.568 242.195 684.242" fill="#C39A6B"/>
<path d="M517.424 700.153C517.424 700.153 499.965 702.902 496.182 700.467C496.182 700.467 446.565 725.514 413.229 711.351C379.893 697.188 378.521 689.291 378.521 689.291C378.521 689.291 369.235 694.855 363.287 694.943C363.287 694.943 367.61 712.973 340.219 719.326C312.808 725.68 252.753 721.568 242.195 684.242" stroke="#EEECE0" stroke-width="3" stroke-linecap="round" stroke-linejoin="round"/>
<path d="M423.155 749.033C423.155 749.033 411.546 724.217 389.833 735.777C368.139 747.337 376.801 783.147 404.076 789.772" fill="#C39A6B"/>
<path d="M423.155 749.033C423.155 749.033 411.546 724.217 389.833 735.777C368.139 747.337 376.801 783.147 404.076 789.772" stroke="#EEECE0" stroke-width="3" stroke-linecap="round" stroke-linejoin="round"/>
<path d="M354.933 615.989C354.933 615.989 347.748 679.937 412.275 669.114C426.916 666.522 427.444 659.118 427.444 659.118C427.444 659.118 451.961 668.642 456.482 636.094" fill="#C39A6B"/>
<path d="M354.933 615.989C354.933 615.989 347.748 679.937 412.275 669.114C426.916 666.522 427.444 659.118 427.444 659.118C427.444 659.118 451.961 668.642 456.482 636.094" stroke="#EEECE0" stroke-width="3" stroke-linecap="round" stroke-linejoin="round"/>
<path d="M375.769 632.596C370.015 618.391 368.545 598.715 381.13 587.657C385.42 583.886 390.655 581.337 396.036 579.461C409.487 574.743 423.962 573.969 438.077 574.976C452.192 575.984 464.859 580.894 478.552 584.689C480.879 585.33 483.622 584.054 485.915 583.672C489.017 583.143 492.26 583.018 495.408 582.971C515.222 582.775 531.703 590.931 543.679 606.608C553.843 619.917 560.144 637.126 559.119 654C558.825 658.928 557.855 663.847 556.108 668.469C553.896 674.334 550.147 679.468 545.34 683.498" fill="#C39A6B"/>
<path d="M375.769 632.596C370.015 618.391 368.545 598.715 381.13 587.657C385.42 583.886 390.655 581.337 396.036 579.461C409.487 574.743 423.962 573.969 438.077 574.976C452.192 575.984 464.859 580.894 478.552 584.689C480.879 585.33 483.622 584.054 485.915 583.672C489.017 583.143 492.26 583.018 495.408 582.971C515.222 582.775 531.703 590.931 543.679 606.608C553.843 619.917 560.144 637.126 559.119 654C558.825 658.928 557.855 663.847 556.108 668.469C553.896 674.334 550.147 679.468 545.34 683.498" stroke="#EEECE0" stroke-width="3" stroke-linecap="round" stroke-linejoin="round"/>
<path d="M328.91 690.025C328.91 690.025 309.114 687.557 305.441 671.699C301.768 655.842 310.997 646.455 315.066 646.028" fill="#C39A6B"/>
<path d="M328.91 690.025C328.91 690.025 309.114 687.557 305.441 671.699C301.768 655.842 310.997 646.455 315.066 646.028" stroke="#EEECE0" stroke-width="3" stroke-linecap="round" stroke-linejoin="round"/>
<path d="M238.153 706.102C238.153 706.102 214.936 702.14 211.43 717.177C207.925 732.234 224.543 746.973 241.325 745.469C258.107 743.965 262.36 736.371 262.595 731.385" fill="#C39A6B"/>
<path d="M238.153 706.102C238.153 706.102 214.936 702.14 211.43 717.177C207.925 732.234 224.543 746.973 241.325 745.469C258.107 743.965 262.36 736.371 262.595 731.385" stroke="#EEECE0" stroke-width="3" stroke-linecap="round" stroke-linejoin="round"/>
<path d="M336.136 720.159C336.136 720.159 311.619 727.59 315.121 754.09C315.121 754.09 285.875 739.596 271.282 779.303C271.282 779.303 260.093 748.977 226.812 761.964C226.812 761.964 204.012 722.309 157.384 739.24C110.756 756.171 135.184 801.421 158.073 785.788" fill="#C39A6B"/>
<path d="M336.136 720.159C336.136 720.159 311.619 727.59 315.121 754.09C315.121 754.09 285.875 739.596 271.282 779.303C271.282 779.303 260.093 748.977 226.812 761.964C226.812 761.964 204.012 722.309 157.384 739.24C110.756 756.171 135.184 801.421 158.073 785.788" stroke="#EEECE0" stroke-width="3" stroke-linecap="round" stroke-linejoin="round"/>
<path d="M197.501 771.744C197.501 771.744 217.8 808.192 178.527 815.706C139.274 823.22 108.89 815.366 96.3335 802.209" fill="#C39A6B"/>
<path d="M197.501 771.744C197.501 771.744 217.8 808.192 178.527 815.706C139.274 823.22 108.89 815.366 96.3335 802.209" stroke="#EEECE0" stroke-width="3" stroke-linecap="round" stroke-linejoin="round"/>
<path d="M333.961 802.84C333.961 802.84 326.764 822.934 346.937 835.148Z" fill="#C39A6B"/>
<path d="M333.961 802.84C333.961 802.84 326.764 822.934 346.937 835.148" stroke="#EEECE0" stroke-width="3" stroke-linecap="round" stroke-linejoin="round"/>
<path d="M202.694 789.801C202.694 789.801 223.707 784.488 246.408 799.156C269.127 813.824 306.561 826.884 332.747 813.442" fill="#C39A6B"/>
<path d="M202.694 789.801C202.694 789.801 223.707 784.488 246.408 799.156C269.127 813.824 306.561 826.884 332.747 813.442" stroke="#EEECE0" stroke-width="3" stroke-linecap="round" stroke-linejoin="round"/>
<path d="M338.505 827.937C338.505 827.937 325.184 842.714 297.322 839.496C280.411 837.545 265.621 828.746 250.338 821.963C235.309 815.291 214.257 808.902 198.147 815.397C198.147 815.397 199.698 852.297 167.217 852.778C134.735 853.259 130.183 841.952 130.183 841.952" fill="#C39A6B"/>
<path d="M338.505 827.937C338.505 827.937 325.184 842.714 297.322 839.496C280.411 837.545 265.621 828.746 250.338 821.963C235.309 815.291 214.257 808.902 198.147 815.397C198.147 815.397 199.698 852.297 167.217 852.778C134.735 853.259 130.183 841.952 130.183 841.952" stroke="#EEECE0" stroke-width="3" stroke-linecap="round" stroke-linejoin="round"/>
<path d="M476.839 146.315C476.839 146.315 459.482 115.435 417.899 122.794C396.632 126.558 398.459 167.034 389.945 170.798C381.431 174.563 363.216 172.695 351.066 179.261C338.916 185.828 332.832 203.745 351.066 211.274C369.3 218.803 382.655 225.398 371.73 231.03C360.786 236.691 365.043 246.088 380.847 248.919C396.65 251.749 392.996 261.146 383.277 264.911C373.557 268.675 350.463 294.093 387.534 305.386C402.113 305.386 419.123 307.283 422.777 313.849C426.431 320.444 413.66 325.143 411.833 332.672C410.006 340.201 410.609 352.428 498.709 355.259C586.809 358.089 586.206 366.552 590.445 378.78C594.702 391.007 578.295 399.499 554.598 402.301C520.579 407.962 518.752 430.549 519.355 438.078C519.958 445.607 527.869 460.665 571.005 462.561C614.142 464.458 608.679 491.743 608.679 491.743C608.679 491.743 604.422 514.33 546.102 503.971C487.783 493.611 458.605 543.512 499.933 564.203C520.597 571.732 540.64 594.319 457.4 591.489V618.774C457.4 618.774 560.079 631.964 577.089 606.547C594.099 581.129 559.476 564.203 532.126 559.476C519.373 556.646 520.579 530.294 579.519 534.993C638.459 539.691 683.405 538.757 674.306 519.001C674.306 519.001 748.429 531.228 745.999 489.819C743.569 448.409 665.792 448.409 650.609 447.475C635.427 446.541 604.44 445.579 605.043 423.954C605.646 402.301 648.782 411.726 659.726 408.896C670.67 406.066 688.886 376.884 667.619 347.702C651.212 326.049 623.258 324.18 617.796 312.887C612.333 301.593 625.688 290.3 617.193 277.11C608.679 263.92 574.659 226.275 552.789 264.882C552.789 264.882 520.597 274.308 537.607 297.829C547.327 303.49 542.467 311.953 528.49 308.188C514.513 304.424 518.77 280.903 517.546 276.176C516.322 271.477 509.032 254.523 495.676 263.948C495.676 263.948 468.947 249.824 467.119 294.064C465.292 311.019 452.54 312.887 448.283 311.019C444.026 309.151 457.4 291.262 415.469 290.3C373.538 289.366 394.805 269.581 400.286 266.779C405.749 263.948 406.37 254.551 397.856 249.824C397.856 249.824 425.828 241.022 384.482 223.473C343.136 205.924 419.726 203.716 433.703 203.716C447.68 203.716 443.423 188.658 437.96 184.894C432.497 181.129 444.044 166.071 464.689 174.534C476.236 178.299 471.979 190.526 462.26 189.592C452.54 188.658 453.746 227.237 487.783 209.349C487.783 209.349 532.144 220.643 533.953 196.159C535.78 171.676 499.33 171.676 495.676 169.808C492.022 167.911 484.732 166.977 484.129 158.514C483.526 150.079 476.839 146.315 476.839 146.315Z" fill="#C39A6B" stroke="#EEECE0" stroke-miterlimit="10"/>
<path d="M688.886 499.587C688.886 499.587 732.022 499.304 711.359 479.547C690.695 459.79 638.46 458.828 620.829 455.064C603.198 451.299 582.552 437.175 587.412 416.485C592.272 395.766 624.483 392.963 630.548 387.303C636.614 381.642 637.619 353.422 586.681 344.959C586.681 344.959 647.558 364.716 614.142 386.369C586.681 396.728 570.402 412.72 583.758 436.241" stroke="#EEECE0" stroke-width="3" stroke-miterlimit="10"/>
<path d="M732.625 480.477C732.625 480.477 710.226 452.343 684.647 450.135" stroke="#EEECE0" stroke-width="3" stroke-miterlimit="10"/>
<path d="M673.082 505.864C673.082 505.864 666.998 504.93 659.105 505.864C651.212 506.798 663.965 513.393 659.105 524.686C654.245 535.98 589.842 528.479 589.842 528.479C589.842 528.479 637.235 529.413 645.128 524.714C653.021 520.016 652.655 514.355 647.978 510.591C643.319 506.826 650.609 497.401 673.082 505.864Z" stroke="#EEECE0" stroke-width="3" stroke-miterlimit="10"/>
<path d="M571.023 462.59C598.356 462.59 633.6 465.42 636.633 492.706C639.665 519.991 547.93 515.265 531.523 516.68C515.116 518.095 475.323 528.539 483.38 549.202" stroke="#EEECE0" stroke-width="3" stroke-miterlimit="10"/>
<path d="M564.336 526.583C564.336 526.583 515.737 521.941 509.653 549.198C509.653 558.567 517.546 567.992 536.986 575.521C556.425 583.05 552.79 619.761 457.4 609.402" stroke="#EEECE0" stroke-width="3" stroke-miterlimit="10"/>
<path d="M532.126 559.533C532.126 559.533 571.005 566.128 574.056 591.546C577.108 616.963 496.9 611.246 496.9 611.246" stroke="#EEECE0" stroke-width="3" stroke-miterlimit="10"/>
<path d="M549.08 403.486C538.283 407.307 518.624 436.716 549.08 450.132C549.08 450.132 508.575 438.386 532.82 410.478" stroke="#EEECE0" stroke-width="3" stroke-miterlimit="10"/>
<path d="M622.656 443.741C601.992 438.108 589.239 419.682 609.903 403.463C622.656 396.67 643.32 399.501 653.642 394.802C663.965 390.103 670.287 350.562 647.997 341.165C625.707 331.768 614.763 344.929 604.44 325.173C599.398 313.879 611.986 280.933 599.398 271.536C586.809 262.139 566.164 251.779 564.337 266.837" stroke="#EEECE0" stroke-width="3" stroke-miterlimit="10"/>
<path d="M513.91 183.024C513.91 183.024 521.821 185.374 525.092 196.214C528.362 207.055 494.47 215.037 475.031 199.979C469.568 195.648 474.428 189.619 479.891 186.789C485.353 183.958 477.461 163.268 457.418 161.371C448.082 160.494 432.789 160.437 424.878 169.636C418.027 177.59 420.658 192.337 429.464 193.384" stroke="#EEECE0" stroke-width="3" stroke-miterlimit="10"/>
<path d="M395.427 192.453C395.427 192.453 346.096 198.708 362.558 216.286" stroke="#EEECE0" stroke-width="3" stroke-miterlimit="10"/>
<path d="M367.473 192.453C367.473 192.453 340.743 194.35 351.066 211.276" stroke="#EEECE0" stroke-width="3" stroke-miterlimit="10"/>
<path d="M592.893 305.387C592.893 305.387 582.169 306.321 579.026 296.924C575.884 287.499 571.024 272.441 556.444 275.271C541.864 278.101 538.685 291.263 549.081 297.858C559.477 304.453 537.004 336.437 516.34 311.048C510.877 297.83 516.121 261.204 495.676 263.977" stroke="#EEECE0" stroke-width="3" stroke-miterlimit="10"/>
<path d="M387.533 305.388C405.146 301.623 434.324 303.067 428.24 320.7C422.156 338.334 416.51 351.382 473.13 354.043" stroke="#EEECE0" stroke-width="3" stroke-miterlimit="10"/>
<path d="M724.443 824.593C724.443 824.593 689.095 830.826 672.449 820.433C663.082 814.81 644.331 825.734 635.622 828.898C613.963 836.786 590.135 839.725 567.174 840.93C549.532 841.862 529.111 839.404 521.157 821.156C521.157 821.156 488.412 824.224 480.603 809.847C472.81 795.47 468.15 769.479 503.756 771.037C514.409 770.523 516.482 772.595 516.482 772.595V764.274C516.482 764.274 499.852 764.274 495.69 758.041C495.69 758.041 483.109 785.735 441.575 782.281C433.3 780.916 429.155 778.828 429.155 778.828C429.155 778.828 402.113 805.863 368.853 795.454C335.577 785.06 324.266 752.837 316.409 748.162C308.552 743.488 291.874 742.443 291.89 761.672C291.906 780.9 293.995 791.293 258.63 803.775C223.281 816.256 175.448 799.614 162.964 782.988C150.48 766.362 115.838 768.434 95.7375 801.702C71.4756 826.649 23.2408 821.461 9.92087 801.188C-3.3991 780.916 -5.10224 739.343 46.6994 735.183C71.4755 735.183 83.478 745.062 83.478 745.062C83.478 745.062 92.2669 714.396 127.615 718.557C138.011 718.557 149.58 732.002 149.58 732.002C149.58 732.002 156.023 708.163 193.798 708.163C193.798 708.163 179.321 705.047 181.538 688.935C183.755 672.823 208.708 662.43 239.895 666.591C271.082 670.751 310.496 678.189 327.19 668.229C343.884 658.27 341.795 652.037 329.327 649.949C316.859 647.86 288.258 654.109 244.33 649.949C200.401 645.788 131.777 647.876 104.735 652.021C77.6937 656.165 66.2697 657.884 52.2267 647.667C38.1837 637.467 46.6994 631.218 46.6994 631.218C46.6994 631.218 36.1109 629.146 36.1109 620.825C36.1109 612.504 29.8767 595.878 98.5011 597.95C167.125 600.022 167.35 591.766 170.355 584.457C173.36 577.148 168.588 560.008 132.5 557.148C96.4124 554.289 48.5793 552.217 40.2563 554.289C40.2563 554.289 79.7021 543.96 144.197 544.972C208.692 545.984 247.399 544.41 255.079 568.072C262.759 591.718 239.943 598.48 230.56 600.296C221.177 602.111 206.619 602.111 206.619 602.111C206.619 602.111 194.778 613.179 165.358 611.797C135.922 610.432 102.646 606.271 98.485 614.576C94.3235 622.897 96.4123 631.202 119.276 633.29C142.157 635.363 232.456 638.72 264.254 627.684C296.035 616.648 302.285 608.343 308.52 595.862C314.754 583.38 328.877 572.778 360.289 576.007C391.701 579.236 402.193 592.232 402.193 592.232C402.193 592.232 445.768 581.324 474.883 600.022C474.883 600.022 516.465 595.862 537.273 610.416C558.08 624.969 560.153 645.756 547.669 654.077C541.434 658.237 531.167 655.635 531.167 655.635C531.167 655.635 525.094 670.157 503.113 675.634C481.133 681.112 445.784 682.269 426.021 668.165C426.021 668.165 402.113 679.024 389.628 676.936C389.628 676.936 379.233 689.417 352.191 689.417C325.15 689.417 300.197 685.257 300.197 685.257C300.197 685.257 293.962 699.81 283.567 701.882C283.567 701.882 282.651 711.232 316.377 712.79C350.102 714.348 371.858 699.746 383.86 698.734C395.863 697.722 422.888 693.562 431.211 706.043C431.211 706.043 462.398 687.329 481.117 695.65C499.836 703.971 506.07 712.276 506.07 712.276C506.07 712.276 511.79 701.882 523.487 708.115C535.184 714.348 531.023 722.669 531.023 722.669C531.023 722.669 549.741 710.187 572.605 722.669C595.485 735.15 595.485 760.097 595.485 760.097C595.485 760.097 632.923 762.17 655.787 762.17C678.651 762.17 691.135 766.33 718.177 751.776" fill="#C39A6B"/>
<path d="M724.443 824.593C724.443 824.593 689.095 830.826 672.449 820.433C663.082 814.81 644.331 825.734 635.622 828.898C613.963 836.786 590.135 839.725 567.174 840.93C549.532 841.862 529.111 839.404 521.157 821.156C521.157 821.156 488.412 824.224 480.603 809.847C472.81 795.47 468.15 769.479 503.756 771.037C514.409 770.523 516.482 772.595 516.482 772.595V764.274C516.482 764.274 499.852 764.274 495.69 758.041C495.69 758.041 483.109 785.735 441.575 782.281C433.3 780.916 429.155 778.828 429.155 778.828C429.155 778.828 402.113 805.863 368.853 795.454C335.577 785.06 324.266 752.837 316.409 748.162C308.552 743.488 291.874 742.443 291.89 761.672C291.906 780.9 293.995 791.293 258.63 803.775C223.281 816.256 175.448 799.614 162.964 782.988C150.48 766.362 115.838 768.434 95.7375 801.702C71.4756 826.649 23.2408 821.461 9.92087 801.188C-3.3991 780.916 -5.10224 739.343 46.6994 735.183C71.4755 735.183 83.478 745.062 83.478 745.062C83.478 745.062 92.2669 714.396 127.615 718.557C138.011 718.557 149.58 732.002 149.58 732.002C149.58 732.002 156.023 708.163 193.798 708.163C193.798 708.163 179.321 705.047 181.538 688.935C183.755 672.823 208.708 662.43 239.895 666.591C271.082 670.751 310.496 678.189 327.19 668.229C343.884 658.27 341.795 652.037 329.327 649.949C316.859 647.86 288.258 654.109 244.33 649.949C200.401 645.788 131.777 647.876 104.735 652.021C77.6937 656.165 66.2697 657.884 52.2267 647.667C38.1837 637.467 46.6994 631.218 46.6994 631.218C46.6994 631.218 36.1109 629.146 36.1109 620.825C36.1109 612.504 29.8767 595.878 98.5011 597.95C167.125 600.022 167.35 591.766 170.355 584.457C173.36 577.148 168.588 560.008 132.5 557.148C96.4124 554.289 48.5793 552.217 40.2563 554.289C40.2563 554.289 79.7021 543.96 144.197 544.972C208.692 545.984 247.399 544.41 255.079 568.072C262.759 591.718 239.943 598.48 230.56 600.296C221.177 602.111 206.619 602.111 206.619 602.111C206.619 602.111 194.778 613.179 165.358 611.797C135.922 610.432 102.646 606.271 98.485 614.576C94.3235 622.897 96.4123 631.202 119.276 633.29C142.157 635.363 232.456 638.72 264.254 627.684C296.035 616.648 302.285 608.343 308.52 595.862C314.754 583.38 328.877 572.778 360.289 576.007C391.701 579.236 402.193 592.232 402.193 592.232C402.193 592.232 445.768 581.324 474.883 600.022C474.883 600.022 516.465 595.862 537.273 610.416C558.08 624.969 560.153 645.756 547.669 654.077C541.434 658.237 531.167 655.635 531.167 655.635C531.167 655.635 525.094 670.157 503.113 675.634C481.133 681.112 445.784 682.269 426.021 668.165C426.021 668.165 402.113 679.024 389.628 676.936C389.628 676.936 379.233 689.417 352.191 689.417C325.15 689.417 300.197 685.257 300.197 685.257C300.197 685.257 293.962 699.81 283.567 701.882C283.567 701.882 282.651 711.232 316.377 712.79C350.102 714.348 371.858 699.746 383.86 698.734C395.863 697.722 422.888 693.562 431.211 706.043C431.211 706.043 462.398 687.329 481.117 695.65C499.836 703.971 506.07 712.276 506.07 712.276C506.07 712.276 511.79 701.882 523.487 708.115C535.184 714.348 531.023 722.669 531.023 722.669C531.023 722.669 549.741 710.187 572.605 722.669C595.485 735.15 595.485 760.097 595.485 760.097C595.485 760.097 632.923 762.17 655.787 762.17C678.651 762.17 691.135 766.33 718.177 751.776" stroke="#EEECE0" stroke-width="3" stroke-linecap="round" stroke-linejoin="round"/>
<path d="M724.443 799.373C722.371 799.63 705.725 810.023 682.861 807.951C659.98 805.879 637.116 805.879 624.632 812.112C612.147 818.344 600.723 812.112 600.723 812.112" fill="#C39A6B"/>
<path d="M724.443 799.373C722.371 799.63 705.725 810.023 682.861 807.951C659.98 805.879 637.116 805.879 624.632 812.112C612.147 818.344 600.723 812.112 600.723 812.112" stroke="#EEECE0" stroke-width="3" stroke-linecap="round" stroke-linejoin="round"/>
<path d="M595.502 818.344C595.502 818.344 607.986 812.111 603.825 795.469C601.752 783.004 576.815 787.148 576.783 787.148C576.638 787.18 572.798 782.586 572.316 782.233C569.054 779.743 564.845 779.325 561.197 781.398C555.67 784.546 555.992 789.992 555.992 795.469" fill="#C39A6B"/>
<path d="M595.502 818.344C595.502 818.344 607.986 812.111 603.825 795.469C601.752 783.004 576.815 787.148 576.783 787.148C576.638 787.18 572.798 782.586 572.316 782.233C569.054 779.743 564.845 779.325 561.197 781.398C555.67 784.546 555.992 789.992 555.992 795.469" stroke="#EEECE0" stroke-width="3" stroke-linecap="round" stroke-linejoin="round"/>
<path d="M566.387 824.594C566.387 824.594 576.269 809.526 564.041 799.39C551.83 789.253 539.346 793.414 539.346 793.414" fill="#C39A6B"/>
<path d="M566.387 824.594C566.387 824.594 576.269 809.526 564.041 799.39C551.83 789.253 539.346 793.414 539.346 793.414" stroke="#EEECE0" stroke-width="3" stroke-linecap="round" stroke-linejoin="round"/>
<path d="M722.354 778.842C722.354 778.842 697.401 787.163 674.521 785.075C651.641 783.003 622.527 764.289 595.501 772.594" fill="#C39A6B"/>
<path d="M722.354 778.842C722.354 778.842 697.401 787.163 674.521 785.075C651.641 783.003 622.527 764.289 595.501 772.594" stroke="#EEECE0" stroke-width="3" stroke-linecap="round" stroke-linejoin="round"/>
<path d="M579.386 770.492C579.386 770.492 576.783 760.131 595.501 760.131Z" fill="#C39A6B"/>
<path d="M579.386 770.492C579.386 770.492 576.783 760.131 595.501 760.131" stroke="#EEECE0" stroke-width="3" stroke-linecap="round" stroke-linejoin="round"/>
<path d="M583.033 743.502C583.033 743.502 568.09 725.832 554.77 728.434C541.45 731.036 535.216 735.197 535.216 735.197C535.216 735.197 531.054 720.643 512.336 720.643C493.617 720.643 493.617 724.804 493.617 724.804C493.617 724.804 485.294 706.089 458.268 710.25C431.227 714.41 422.92 724.804 424.993 745.59C424.993 745.59 428.045 719.695 398.449 718.089C368.853 716.483 344.189 721.671 340.927 742.988C337.666 764.304 345.458 777.059 358.2 777.959" fill="#C39A6B"/>
<path d="M583.033 743.502C583.033 743.502 568.09 725.832 554.77 728.434C541.45 731.036 535.216 735.197 535.216 735.197C535.216 735.197 531.054 720.643 512.336 720.643C493.617 720.643 493.617 724.804 493.617 724.804C493.617 724.804 485.294 706.089 458.268 710.25C431.227 714.41 422.92 724.804 424.993 745.59C424.993 745.59 428.045 719.695 398.449 718.089C368.853 716.483 344.189 721.671 340.927 742.988C337.666 764.304 345.458 777.059 358.2 777.959" stroke="#EEECE0" stroke-width="3" stroke-linecap="round" stroke-linejoin="round"/>
<path d="M408.347 768.45C408.347 768.45 433.3 772.611 433.3 755.969Z" fill="#C39A6B"/>
<path d="M408.347 768.45C408.347 768.45 433.3 772.611 433.3 755.969" stroke="#EEECE0" stroke-width="3" stroke-linecap="round" stroke-linejoin="round"/>
<path d="M460.342 755.986C460.342 755.986 449.946 755.986 447.857 749.754C445.784 743.521 447.857 726.879 468.649 726.879C489.44 726.879 493.601 737.272 495.69 758.059" fill="#C39A6B"/>
<path d="M460.342 755.986C460.342 755.986 449.946 755.986 447.857 749.754C445.784 743.521 447.857 726.879 468.649 726.879C489.44 726.879 493.601 737.272 495.69 758.059" stroke="#EEECE0" stroke-width="3" stroke-linecap="round" stroke-linejoin="round"/>
<path d="M506.343 799.372C506.343 799.372 522.716 801.717 524.805 787.164C526.893 772.61 511.822 771.229 511.822 771.229" fill="#C39A6B"/>
<path d="M506.343 799.372C506.343 799.372 522.716 801.717 524.805 787.164C526.893 772.61 511.822 771.229 511.822 771.229" stroke="#EEECE0" stroke-width="3" stroke-linecap="round" stroke-linejoin="round"/>
<path d="M545.596 792.561C545.596 792.561 541.097 768.273 521.511 775.63Z" fill="#C39A6B"/>
<path d="M545.596 792.561C545.596 792.561 541.097 768.273 521.511 775.63" stroke="#EEECE0" stroke-width="3" stroke-linecap="round" stroke-linejoin="round"/>
<path d="M389.629 676.985C389.629 676.985 379.747 673.676 382.607 667.009C385.467 660.343 395.863 664.503 395.863 664.503" fill="#C39A6B"/>
<path d="M389.629 676.985C389.629 676.985 379.747 673.676 382.607 667.009C385.467 660.343 395.863 664.503 395.863 664.503" stroke="#EEECE0" stroke-width="3" stroke-linecap="round" stroke-linejoin="round"/>
<path d="M426.021 668.196C426.021 668.196 443.069 656.004 436.096 636.342C429.138 616.68 382.816 601.612 365.415 604.986C348.014 608.359 343.868 618.752 343.868 618.752C343.868 618.752 326.322 610.303 316.377 612.439C306.431 614.592 296.035 629.146 281.478 633.306C266.921 637.467 256.525 639.539 252.364 639.539" fill="#C39A6B"/>
<path d="M426.021 668.196C426.021 668.196 443.069 656.004 436.096 636.342C429.138 616.68 382.816 601.612 365.415 604.986C348.014 608.359 343.868 618.752 343.868 618.752C343.868 618.752 326.322 610.303 316.377 612.439C306.431 614.592 296.035 629.146 281.478 633.306C266.921 637.467 256.525 639.539 252.364 639.539" stroke="#EEECE0" stroke-width="3" stroke-linecap="round" stroke-linejoin="round"/>
<path d="M512.32 627.074C512.32 627.074 510.247 647.86 483.205 643.7C456.164 639.539 458.156 629.885 458.156 629.885C458.156 629.885 443.695 629.146 445.768 612.52C447.841 595.894 474.882 600.039 474.882 600.039" fill="#C39A6B"/>
<path d="M512.32 627.074C512.32 627.074 510.247 647.86 483.205 643.7C456.164 639.539 458.156 629.885 458.156 629.885C458.156 629.885 443.695 629.146 445.768 612.52C447.841 595.894 474.882 600.039 474.882 600.039" stroke="#EEECE0" stroke-width="3" stroke-linecap="round" stroke-linejoin="round"/>
<path d="M264.864 718.558C264.864 718.558 248.234 716.486 248.234 695.684Z" fill="#C39A6B"/>
<path d="M264.864 718.558C264.864 718.558 248.234 716.486 248.234 695.684" stroke="#EEECE0" stroke-width="3" stroke-linecap="round" stroke-linejoin="round"/>
<path d="M228.632 720.644C228.632 720.644 217.561 716.467 217.304 695.681C217.047 674.894 242.787 667.682 266.31 670.252" fill="#C39A6B"/>
<path d="M228.632 720.644C228.632 720.644 217.561 716.467 217.304 695.681C217.047 674.894 242.787 667.682 266.31 670.252" stroke="#EEECE0" stroke-width="3" stroke-linecap="round" stroke-linejoin="round"/>
<path d="M264.864 676.985C264.864 676.985 298.14 675.619 302.302 673.178Z" fill="#C39A6B"/>
<path d="M264.864 676.985C264.864 676.985 298.14 675.619 302.302 673.178" stroke="#EEECE0" stroke-width="3" stroke-linecap="round" stroke-linejoin="round"/>
<path d="M268.495 768.917C268.495 768.917 258.614 793.398 223.265 787.165C187.917 780.933 191.034 762.443 191.034 762.443" fill="#C39A6B"/>
<path d="M268.495 768.917C268.495 768.917 258.614 793.398 223.265 787.165C187.917 780.933 191.034 762.443 191.034 762.443" stroke="#EEECE0" stroke-width="3" stroke-linecap="round" stroke-linejoin="round"/>
<path d="M241.791 762.443C241.791 762.443 255.111 738.251 224.631 733.593C194.151 728.95 189.797 743.793 189.797 743.793C189.797 743.793 176.605 734.058 166.659 738.781C156.714 743.504 137.465 761.27 159.574 779.422" fill="#C39A6B"/>
<path d="M241.791 762.443C241.791 762.443 255.111 738.251 224.631 733.593C194.151 728.95 189.797 743.793 189.797 743.793C189.797 743.793 176.605 734.058 166.659 738.781C156.714 743.504 137.465 761.27 159.574 779.422" stroke="#EEECE0" stroke-width="3" stroke-linecap="round" stroke-linejoin="round"/>
<path d="M81.6462 743.793C81.6462 743.793 94.3395 751.825 92.2508 764.29C90.178 776.772 77.6936 783.004 67.298 783.004C56.9023 783.004 50.668 774.683 54.8135 766.379C58.9749 758.058 74.5283 761.174 72.9858 771.053" fill="#C39A6B"/>
<path d="M81.6462 743.793C81.6462 743.793 94.3395 751.825 92.2508 764.29C90.178 776.772 77.6936 783.004 67.298 783.004C56.9023 783.004 50.668 774.683 54.8135 766.379C58.9749 758.058 74.5283 761.174 72.9858 771.053" stroke="#EEECE0" stroke-width="3" stroke-linecap="round" stroke-linejoin="round"/>
<path d="M166.611 611.861C166.611 611.861 189.99 604.199 185.828 585.501C183.755 577.18 179.594 577.18 179.594 577.18" fill="#C39A6B"/>
<path d="M166.611 611.861C166.611 611.861 189.99 604.199 185.828 585.501C183.755 577.18 179.594 577.18 179.594 577.18" stroke="#EEECE0" stroke-width="3" stroke-linecap="round" stroke-linejoin="round"/>
<path d="M206.635 602.126C215.183 596.809 222.189 588.585 218.718 578.015C215.231 567.397 206.908 559.429 196.24 556.377" fill="#C39A6B"/>
<path d="M206.635 602.126C215.183 596.809 222.189 588.585 218.718 578.015C215.231 567.397 206.908 559.429 196.24 556.377" stroke="#EEECE0" stroke-width="3" stroke-linecap="round" stroke-linejoin="round"/>
</svg>
