<?xml version="1.0" encoding="utf-8"?>
<!-- Generator: Adobe Illustrator 26.3.1, SVG Export Plug-In . SVG Version: 6.00 Build 0)  -->
<svg version="1.1" xmlns="http://www.w3.org/2000/svg" xmlns:xlink="http://www.w3.org/1999/xlink" x="0px" y="0px"
	 viewBox="0 0 1920 1080" style="enable-background:new 0 0 1920 1080;" xml:space="preserve">
<style type="text/css">
	.st0{display:none;}
	.st1{display:inline;fill:#DBDCCB;}
	.st2{display:inline;fill:#CB9B54;}
	.st3{display:inline;fill:#B63C90;}
	.st4{display:inline;fill:#E4007E;}
	.st5{display:inline;fill:#FE6830;}
	.st6{fill:#CB9B54;}
</style>
<g id="圖層_8" class="st0">
	<rect x="1" y="-1" class="st1" width="1918" height="1081"/>
</g>
<g id="圖層_1" class="st0">
	<path class="st2" d="M566.8,318.8v442.4h786.4V318.8H566.8z M991.8,586.4h-63.6v-60.9c0-17.6,14.2-31.8,31.8-31.8l0,0
		c17.6,0,31.8,14.2,31.8,31.8V586.4z"/>
</g>
<g id="圖層_1_拷貝_4" class="st0">
	<path class="st3" d="M468.5,263.5v553h983v-553H468.5z M999.8,598h-79.6v-76.2c0-22,17.8-39.8,39.8-39.8h0
		c22,0,39.8,17.8,39.8,39.8V598z"/>
</g>
<g id="圖層_1_拷貝_3" class="st0">
	<path class="st4" d="M345.6,194.4v691.2h1228.8V194.4H345.6z M1009.7,612.5h-99.4v-95.2c0-27.5,22.3-49.7,49.7-49.7h0
		c27.5,0,49.7,22.3,49.7,49.7V612.5z"/>
</g>
<g id="圖層_1_拷貝_2" class="st0">
	<path class="st5" d="M192,108v864h1536V108H192z M1022.2,630.6H897.8v-119c0-34.3,27.8-62.2,62.2-62.2h0
		c34.3,0,62.2,27.8,62.2,62.2V630.6z"/>
</g>
<g id="圖層_1_拷貝">
	<path class="st6" d="M0,0v1080h1920V0H0z M1037.7,653.2H882.3V504.5c0-42.9,34.8-77.7,77.7-77.7h0c42.9,0,77.7,34.8,77.7,77.7
		V653.2z"/>
</g>
<g id="圖層_1_拷貝_5" class="st0">
	<path class="st1" d="M-192-108v1296h2304V-108H-192z M1053.2,675.9H866.8V497.4c0-51.5,41.7-93.2,93.2-93.2h0
		c51.5,0,93.2,41.7,93.2,93.2V675.9z"/>
</g>
<g id="圖層_2">
</g>
</svg>
