<!DOCTYPE svg PUBLIC "-//W3C//DTD SVG 1.1//EN" "http://www.w3.org/Graphics/SVG/1.1/DTD/svg11.dtd">
<!-- Uploaded to: SVG Repo, www.svgrepo.com, Transformed by: SVG Repo Mixer Tools -->
<svg width="800px" height="800px" viewBox="-4 -4 33.00 33.00" fill="none" xmlns="http://www.w3.org/2000/svg">
<g id="SVGRepo_bgCarrier" stroke-width="0"/>
<g id="SVGRepo_tracerCarrier" stroke-linecap="round" stroke-linejoin="round"/>
<g id="SVGRepo_iconCarrier"> <path d="M12.75 10.6C12.75 10.1858 12.4142 9.85 12 9.85C11.5858 9.85 11.25 10.1858 11.25 10.6H12.75ZM12 19H11.25C11.25 19.2489 11.3734 19.4815 11.5795 19.6211C11.7856 19.7606 12.0475 19.7888 12.2785 19.6964L12 19ZM19 16.2L19.2785 16.8964C19.5633 16.7825 19.75 16.5067 19.75 16.2H19ZM19.75 10.379C19.75 9.96479 19.4142 9.629 19 9.629C18.5858 9.629 18.25 9.96479 18.25 10.379H19.75ZM12.4538 10.0029C12.124 9.75224 11.6535 9.81641 11.4029 10.1462C11.1522 10.476 11.2164 10.9465 11.5462 11.1971L12.4538 10.0029ZM14.5 12.5L14.0462 13.0971C14.2687 13.2663 14.5669 13.2976 14.8198 13.1784L14.5 12.5ZM19.3198 11.0574C19.6944 10.8808 19.855 10.4339 19.6784 10.0592C19.5018 9.68456 19.0549 9.52398 18.6802 9.70058L19.3198 11.0574ZM11.7215 9.90364C11.3369 10.0575 11.1498 10.494 11.3036 10.8785C11.4575 11.2631 11.894 11.4502 12.2785 11.2964L11.7215 9.90364ZM19.2785 8.49636C19.6631 8.34252 19.8502 7.90604 19.6964 7.52146C19.5425 7.13687 19.106 6.94981 18.7215 7.10364L19.2785 8.49636ZM18.7215 8.49636C19.106 8.65019 19.5425 8.46313 19.6964 8.07854C19.8502 7.69396 19.6631 7.25748 19.2785 7.10364L18.7215 8.49636ZM12.2785 4.30364C11.894 4.14981 11.4575 4.33687 11.3036 4.72146C11.1498 5.10604 11.3369 5.54252 11.7215 5.69636L12.2785 4.30364ZM19.3665 7.14562C19.005 6.94323 18.548 7.07214 18.3456 7.43355C18.1432 7.79495 18.2721 8.25199 18.6335 8.45438L19.3665 7.14562ZM21.5 9.2L21.8199 9.87835C22.0739 9.75855 22.2397 9.50686 22.2495 9.22618C22.2593 8.94549 22.1115 8.68285 21.8665 8.54562L21.5 9.2ZM18.6801 9.70065C18.3054 9.87733 18.145 10.3243 18.3217 10.6989C18.4983 11.0736 18.9453 11.234 19.3199 11.0573L18.6801 9.70065ZM4.72146 7.10364C4.33687 7.25748 4.14981 7.69396 4.30364 8.07854C4.45748 8.46313 4.89396 8.65019 5.27854 8.49636L4.72146 7.10364ZM12.2785 5.69636C12.6631 5.54252 12.8502 5.10604 12.6964 4.72146C12.5425 4.33687 12.106 4.14981 11.7215 4.30364L12.2785 5.69636ZM5.36645 8.45438C5.72786 8.25199 5.85677 7.79495 5.65438 7.43355C5.45199 7.07214 4.99495 6.94323 4.63355 7.14562L5.36645 8.45438ZM2.5 9.2L2.13355 8.54562C1.8885 8.68285 1.74065 8.94549 1.75046 9.22618C1.76026 9.50686 1.92606 9.75855 2.18009 9.87835L2.5 9.2ZM4.68009 11.0573C5.05473 11.234 5.50167 11.0736 5.67835 10.6989C5.85503 10.3243 5.69455 9.87733 5.31991 9.70065L4.68009 11.0573ZM5.27854 7.10364C4.89396 6.94981 4.45748 7.13687 4.30364 7.52146C4.14981 7.90604 4.33687 8.34252 4.72146 8.49636L5.27854 7.10364ZM11.7215 11.2964C12.106 11.4502 12.5425 11.2631 12.6964 10.8785C12.8502 10.494 12.6631 10.0575 12.2785 9.90364L11.7215 11.2964ZM12.75 10.6C12.75 10.1858 12.4142 9.85 12 9.85C11.5858 9.85 11.25 10.1858 11.25 10.6H12.75ZM12 19L11.7215 19.6964C11.9525 19.7888 12.2144 19.7606 12.4205 19.6211C12.6266 19.4815 12.75 19.2489 12.75 19H12ZM5 16.2H4.25C4.25 16.5067 4.43671 16.7825 4.72146 16.8964L5 16.2ZM5.75 10.379C5.75 9.96479 5.41421 9.629 5 9.629C4.58579 9.629 4.25 9.96479 4.25 10.379H5.75ZM12.4538 11.1971C12.7836 10.9465 12.8478 10.476 12.5971 10.1462C12.3465 9.81641 11.876 9.75224 11.5462 10.0029L12.4538 11.1971ZM9.5 12.5L9.18024 13.1784C9.4331 13.2976 9.73125 13.2663 9.95381 13.0971L9.5 12.5ZM5.31976 9.70058C4.94508 9.52398 4.49818 9.68456 4.32158 10.0592C4.14498 10.4339 4.30556 10.8808 4.68024 11.0574L5.31976 9.70058ZM11.25 10.6V19H12.75V10.6H11.25ZM12.2785 19.6964L19.2785 16.8964L18.7215 15.5036L11.7215 18.3036L12.2785 19.6964ZM19.75 16.2V10.379H18.25V16.2H19.75ZM11.5462 11.1971L14.0462 13.0971L14.9538 11.9029L12.4538 10.0029L11.5462 11.1971ZM14.8198 13.1784L19.3198 11.0574L18.6802 9.70058L14.1802 11.8216L14.8198 13.1784ZM12.2785 11.2964L19.2785 8.49636L18.7215 7.10364L11.7215 9.90364L12.2785 11.2964ZM19.2785 7.10364L12.2785 4.30364L11.7215 5.69636L18.7215 8.49636L19.2785 7.10364ZM18.6335 8.45438L21.1335 9.85438L21.8665 8.54562L19.3665 7.14562L18.6335 8.45438ZM21.1801 8.52165L18.6801 9.70065L19.3199 11.0573L21.8199 9.87835L21.1801 8.52165ZM5.27854 8.49636L12.2785 5.69636L11.7215 4.30364L4.72146 7.10364L5.27854 8.49636ZM4.63355 7.14562L2.13355 8.54562L2.86645 9.85438L5.36645 8.45438L4.63355 7.14562ZM2.18009 9.87835L4.68009 11.0573L5.31991 9.70065L2.81991 8.52165L2.18009 9.87835ZM4.72146 8.49636L11.7215 11.2964L12.2785 9.90364L5.27854 7.10364L4.72146 8.49636ZM11.25 10.6V19H12.75V10.6H11.25ZM12.2785 18.3036L5.27854 15.5036L4.72146 16.8964L11.7215 19.6964L12.2785 18.3036ZM5.75 16.2V10.379H4.25V16.2H5.75ZM11.5462 10.0029L9.04619 11.9029L9.95381 13.0971L12.4538 11.1971L11.5462 10.0029ZM9.81976 11.8216L5.31976 9.70058L4.68024 11.0574L9.18024 13.1784L9.81976 11.8216Z" fill="#241B15"/> </g>
</svg>