<?xml version="1.0" encoding="utf-8"?>
<!-- Generator: Adobe Illustrator 26.3.1, SVG Export Plug-In . SVG Version: 6.00 Build 0)  -->
<svg version="1.1" id="圖層_1" xmlns="http://www.w3.org/2000/svg" xmlns:xlink="http://www.w3.org/1999/xlink" x="0px" y="0px"
	 viewBox="0 0 860 655" style="enable-background:new 0 0 860 655;" xml:space="preserve">
<style type="text/css">
	.st0{stroke:#000000;stroke-width:2;stroke-miterlimit:10;}
</style>
<g>
	<g>
		<path class="st0" d="M75.6,438.8c1.8-0.4,8.2-2.3,9.5-0.3c0.5,0.8-1,3.4-1.4,4l27.2,42.6c2.2,3.5,4.9,6.9,7.3,10.2
			c-2.2,2.7-4.8,5-7.4,7.2c-2.2-3.8-4.4-8.1-6.7-11.8l-27.6-43.2c0.3,6.8,0.6,13.8-0.4,20.7c0,0.5-0.3,3-0.7,3.3
			c-0.3,0.2-0.7-0.3-0.9-0.6c-0.2-0.3-0.9-4.9-1-5.9l-1.2-7.4c-1.3-8-8.9-36.6-13.5-43.8c-0.1-0.2-0.2-0.4-0.3-0.6
			c1.5-0.9,12.1-2.9,13.4-2.5c0.8,0.2,1.2,0.4,1.6,1.1c0.6,0.9-1.5,3.3-2,3.9C73,423.3,74.6,430.9,75.6,438.8z M137.4,472.5
			l-44.1-69.2c-0.5-0.8-1.8-2.8-2.5-3.3s-2.2-1.4-2.6-2.1c-0.4-0.6-0.1-1,0.5-1.3c0.2-0.1,0.5-0.3,0.8-0.4c1.9-0.9,10.6-4.9,12.4-2
			c0.6,0.9-1.2,3.6-1.6,4.4l44.3,69.5l6.7-4.3l-30.3-47.5c-0.8-1.3-1.8-2.6-3.1-3.6c-0.5-0.4-1.7-1.3-2.1-1.8
			c-0.3-0.5,0.1-1.1,0.5-1.4c1.7-1.1,11.5-5,12.8-2.9c0.7,1-0.6,3.5-1.1,4.5l29.2,45.8c1.7,2.6,3.6,5.1,5.4,7.5
			c-1.8,2.9-4.1,5.6-6.4,8.2l-2.8-5.2l-20.3,13c0,0.5-0.3,4.8-0.9,5.1c-0.6,0.4-10.7,0.3-11-0.3c-0.3-0.5,0.8-4.1,0.9-4.6L91.7,433
			c-0.7-1-1.6-2.5-2.6-3.3c-0.4-0.5-2.7-2-2.9-2.2c-0.3-0.5,0.2-0.9,0.6-1.1c0.3-0.2,0.6-0.3,1-0.5c1.8-0.7,10.4-4.8,12-2.2
			c0.6,0.9-1,3.6-1.5,4.5l31.5,49.3L137.4,472.5z"/>
		<path class="st0" d="M230.5,369.8c0.4-0.8,2.7-6.8,3.8-7.2c1.7-0.6,6.5,2,8,2.6c0.9,0.4,2.6,1,3,2.1c0.4,1-0.5,1.8-1.4,2.2
			l-16.4,5.9c1.5,0.2,6.9,0.3,7.5,2c0.2,0.6-1.7,2.5-2.1,2.9c-1,6.2-2.1,12.6-3.8,18.7c-1.1,4.4-2.6,8.8-4.1,13
			c9.2,1.9,15.6,3.3,23.9,8c3.2,1.9,6,3.3,7.3,7.1c0.9,2.6,0.1,5.8-2.6,6.8c-1.8,0.6-3.7,0.2-5.5-0.7c-4.5-2.1-8.5-5.1-12.8-7.6
			c-4.3-2.4-9.5-3.8-14.1-5.4c-1.6,3-3.3,5.9-5,8.7c-5.1,8.2-19,21-27.2,26.4c-0.4,0.3-0.8,0.6-1.3,0.8c-0.3,0.1-0.6,0-0.7-0.3
			c1.4-2.2,3.2-3.8,4.7-5.5c1.4-1.6,2.8-3.3,4.1-5c7.5-9.7,12-16.4,16.9-27.7c-3.6-0.6-7.3-1.1-10.9-1.6c-3.1-0.4-6.2-0.8-9.3-0.7
			c-1.9,0-3.7,0.1-5.4-0.1c0.1-2.6,0.5-5.1,0.9-7.7c1-6,1.4-12.2,2-18.3l-18.4,6.7l-1.7,2.1l-6.1-4.6c2.4-0.6,5-1,7.2-1.8l19.4-7
			c0.7-6.4,1.2-12.6,1.4-19c0.2-5,0.3-9.7,0-14.8c-0.1-1.9-0.6-3.6-1.2-5.4c-0.3-0.7-0.2-0.9,0.4-1.1c1.3-0.5,13.5,1.5,14.9,2.2
			c0.5,0.3,1.1,0.5,1.3,1c0.3,0.8-3.9,3.8-4.4,4.1c-1.5,9.9-2.6,19.8-3.9,29.7L230.5,369.8z M215.1,411c2.5-6.7,3.8-12.8,5.1-20
			c0.3-1.5,0.5-3.1,0.6-4.7c0.1-2.9,0.2-5.8,0.1-8.7l-22.6,8.2c-1.6,8.6-3.3,17.1-5.3,25.7C200.5,411,207.8,410.6,215.1,411z"/>
		<path class="st0" d="M279.7,327.8l60.6-9.9c0.5-0.6,4.1-6.7,5.2-6.9c0.5-0.1,2,1,2.5,1.4c0.8,0.7,7.1,5,7.3,6.4
			c0.1,0.8-0.8,1.1-1.5,1.2l-38.9,6.4c1.1,0.1,5.9,0.4,6.1,1.7c0.2,1-1.5,2.5-2.2,3.1l10.5,64.2c0.9,5.3,2.2,10.6,3.2,15.7
			c-3.5,2.3-7.2,4.1-11.2,5.5c-0.6-5.5-1-11.1-1.9-16.5c-3.3-21.3-6.9-42.7-10.4-64c-0.5-2.8-0.9-5.8-1.8-8.5l-28.1,4.6l-2.1,2.2
			l-6.2-5.9C273.8,328.3,276.9,328.3,279.7,327.8z M342.7,370.1c-1.3-0.6-3-3.4-3.6-4.5c-1.6-2.8-3.4-5.3-5.4-7.7
			c-1.4-1.6-2.6-3.2-4.2-4.7c-1-0.9-2.2-1.9-3.3-2.7c-1.3-1-3.4-2.2-4.4-3.3c-0.2-0.7,0.5-0.8,0.8-0.8c0.5-0.1,5.6,0.9,6.3,1.1
			c8.3,1.7,19.4,5.9,20.9,15.4c0.5,3.1-0.9,6.9-4.3,7.5C344.3,370.6,343.5,370.5,342.7,370.1z"/>
		<path class="st0" d="M447.2,307.9c1.2,0,10.4,6.3,10.4,7.3c0,1.1-3.1,3.4-3.9,4.2l-0.6,73.4c0,2.9,1.2,3,3.6,3
			c8,0.1,8.1-0.1,10.6-7.6c0.9-2.6,1.6-5.3,2.3-8c0.1-0.5,0.2-1,0.9-1c0.4,0,0.5,0.7,0.5,1c-0.1,2.2-0.3,4.4-0.3,6.6
			c0,4,0.9,7.7,5.2,8.8c-3,9-5.2,10.1-14.6,10c-3.2,0-12.9-0.1-15.3-1.8c-1.9-1.2-2.4-3.4-2.4-5.6l0.6-81l-19.9-0.1l-1,1.2
			c-0.1,7.5-0.2,15-0.4,22.4c0,5.9-0.3,11.8-0.7,17.6c-0.9,15.3-3.3,28.2-16,38.4c-2.3,1.9-13.5,10.4-15.8,10.3
			c-0.3,0-0.5-0.2-0.5-0.6c0-0.7,1.8-1.9,2.2-2.2c6.8-5.7,13-12.4,15.9-20.8c2.2-6.4,3.9-13,4.5-19.7c1.2-14.1,1.2-28.4,1.3-42.7
			c0-2.6,0-5.4-0.2-8c-0.2-1.2-1.3-4.6-1.3-4.6c0.2-0.4,0.6-0.7,0.8-0.7c2.6,0,9.5,3.5,12,5l17.3,0.1
			C442.8,312.4,446.4,307.9,447.2,307.9z M424.1,338.5c1.4,0,4.3,2,5.4,2.8c4.2,3.2,6.5,5.2,8.3,10.3c0.5,1.5,1,3.1,1,4.7
			c0,3.3-2,6.8-5.7,6.8c-3.4,0-5-2.9-5-6c0-1.8,0.4-3.4,0.4-5.1c0-4.3-1.3-8.3-4-11.6c-0.2-0.3-1-1.2-1-1.5
			C423.6,338.6,423.8,338.5,424.1,338.5z"/>
		<path class="st0" d="M516.8,331.9l-2.3,1.7l-3.3-7.2c2.6,0.6,5.3,1.4,8.1,1.8l28.8,5l2.3-13.1c0.4-2.2-0.5-4.6-0.4-5.5
			c0.1-0.5,0.6-0.4,1.1-0.4c1.6,0.3,11.4,4.9,12.1,6.3c0.2,0.4,0.3,0.7,0.2,1.2c-0.1,0.7-3,1.9-3.6,2.3l-1.8,11l23.2,4
			c0.6-0.4,5.2-4,6.1-3.8c1.2,0.2,6.9,7.7,6.7,9c-0.2,0.9-1.3,0.9-1.9,0.8l-34.8-6l-2.9,16.8c-0.6,3.5,0.8,10.1,1.2,13
			c3.5-4.5,6.6-9.3,8.9-14.6c1.3-3.1,2.4-6.4,3.4-9.7c0.1-0.3,0.3-0.6,0.8-0.5c1.5,0.3,10.5,5.5,10.3,6.8c-0.2,1.4-2.4,1.5-3.6,1.5
			c-1.8,2.2-3.8,4.6-5.8,6.8c4.1,2.4,5.7,4,8.6,7.6c1.6,1.9,2.3,3.9,1.9,6.3c-0.5,2.9-2.9,5.7-6.1,5.2c-4.3-0.8-3-6.1-2.7-9.1
			c0.1-1.4-0.1-2.9-0.4-4.3c-0.1-0.7-0.4-2-0.9-2.5l-1.7-2.3c-3.9,3.8-8,7.2-12,10.8c3.8,12.5,8.9,22.2,18.5,31.3
			c2.5,2.3,4.9,4.1,7.7,5.8c0.4,0.2,0.7,0.6,0.6,1c-0.1,0.6-0.7,0.6-1.1,0.6c-2.2-0.2-4-0.1-6.2,0.4c-3.3,0.9-3.5,1.4-6.1,3.6
			c-7.2-7.4-11.8-16.3-14.2-26.2c-0.6-2.6-1.3-5.3-1.5-7.9l-1.1-14.5l-6.9,40c-0.6,3.3-0.9,6.6-1.3,9.9c-3.8,0.7-7.7,1.2-11.5,1.5
			c0.9-3.9,2-7.8,2.7-11.7l4.4-25.3c-8.5,7.2-20.6,16-30.6,20.8c-2.6,1.2-5.4,2.7-8.1,3.5c-0.7,0.2-3.4,1.1-4,1
			c-0.3-0.1-0.5-0.3-0.4-0.6c0.1-0.3,0.3-0.6,0.7-0.8c4.5-2.7,8.8-5.6,13.1-8.6c6.9-4.6,12.8-10.3,18.4-16.5
			c3.2-3.6,8.4-9,10.8-13.1l3.8-6.6l3.7-21.2L516.8,331.9z M527.3,352.4c4.2,3.1,9.7,6.9,8.7,12.9c-0.5,2.7-2.4,5.3-5.4,4.8
			c-2.3-0.4-3.7-2.3-3.5-4.6l0.5-6.3c0.2-2.5-0.3-3.1-1.4-5.2c-5.8,5.9-10.1,10.2-16.5,15.3c-0.4,0.3-1.6,1.4-2,1.3
			c-0.3-0.1-0.6-0.4-0.5-0.8c0.1-0.4,0.4-0.8,0.6-1.1c3.3-4,6.8-9.1,9.5-13.4c3-4.8,7-12.3,8-18c0.1-0.5,0.3-1.2,1-1.1
			c1.5,0.3,10.4,5.6,10.1,7.3c-0.2,0.9-2.3,1.2-2.9,1.3C531.4,347.4,529.4,350,527.3,352.4z"/>
		<path class="st0" d="M616.3,418.3c-3.9,4.4-11,9.4-16.6,10.6c-0.1,0.1-0.5-0.2-0.3-0.5c4.2-3.6,10.2-10.6,12.6-14.4
			c2.6-4.4,5.6-10.8,7.6-15.5c2.8-7.4,7.9-21,10.7-28.5c1.7-4.6,1.1-2.9,2.5-7.6c-1.4,0.8-9.3,4.7-10.2,4.5
			c-0.3-0.5-0.4-0.6-0.3-0.8c0.2-0.5,5-4.5,5.5-4.9c4.6-3.8,20.4-19.1,22.1-24.2c0.2-0.2,0.6-0.1,0.8,0c0.8,0.3,7.1,6.1,8,7.1
			c0.3,0.5,0.7,1,0.5,1.5c-0.2,0.5-2.7,0.7-3.2,0.8c-1.5,1.1-2.8,2.2-4.2,3.4l5.9,2.2c0.8-0.5,2.8-2,3.8-1.6
			c1.5,0.6,7.1,7.7,6.4,9.5c-0.1,0.3-1,0.7-1.2,0.7c-3.1,0.2-3.8,0-6.3,2c-3.6,2.7-6.8,5.7-10.3,8.6l4.4,1.7
			c0.6-0.4,3.1-2.4,3.9-2.1c1.3,0.5,6.4,7,6.1,7.8c-0.3,0.9-2.6,1.7-3.5,2.1l-18.8,50.4c-0.6,1.5-1.2,3.2-2,4.7
			c-3,5.1-8.5,3.6-13.3,2.3c1.3-3.9,2.1-5.7-1.2-8.7c-0.6-0.6-1.6-1.2-1.3-2c0.2-0.4,0.8-0.3,1.1-0.2c1.9,0.7,3.7,1.8,5.5,2.5
			c2.6,1,3.3-0.5,4.1-2.7l5.7-15.1l-4.4-1.7l-11.6-4.4C623.1,410.2,617.5,417.1,616.3,418.3z M631.1,403.9l5.4-14.5l-4.6-1.7
			l-5.4,14.5L631.1,403.9z M637.9,385.7l3.2-8.7c0.5-1.4,0.9-3.2,1.4-4.6l-3.2-1.3l-1.5,0.5l-4.6,12.4L637.9,385.7z M640.7,367.5
			l5.4,2c3.5-4.6,6.9-9.3,10.2-14l-8-3c-4.6,3.3-9.1,6.4-14,9.1L640.7,367.5z M642.2,408l5.4-14.5l-4.4-1.7l-5.4,14.5L642.2,408z
			 M650.5,377.8c-0.2,0.6-1.9,1-2.4,1.1l-3.5,9.4l4.4,1.7l4.9-13.2l-5.7-2.1C648.8,375,650.8,376.9,650.5,377.8z M672.8,401.3
			c0.7-1.8,1.3-3.4,1.8-5.2c0.2-1,0.6-2,0.5-3c0-0.6,0-1.2,0.2-1.7c0.2-0.4,0.6-0.3,0.9-0.1c1.5,0.6,7.5,5.3,8.6,6.5
			c0.3,0.5,0.9,1.1,0.7,1.7c-0.3,0.7-2.7,1.3-3.4,1.5l-2,5.4l5,1.9c0.8-0.4,4.4-2.7,5.8-2.2c0.7,0.3,1.5,1.6,1.8,2.3
			c0.5,1,2.9,4.8,2.3,6.4c-0.3,0.9-1.2,0.8-2.1,0.5l-14.3-5.2l-5,13.4l5.8,2.2c0.7-0.3,4.3-2.4,5.3-2c1.3,0.5,3,4.8,3.6,5.8
			c0.3,0.7,0.8,1.8,0.6,2.6c-0.3,0.8-1.2,1-1.9,0.7l-14.7-5.5l-5.2,14c-1.3,3.6-2.3,7.5-3.5,11c-3.3-0.4-6.6-0.9-9.9-1.6
			c1.6-3.7,3.5-7.5,4.9-11.2l5.7-15.2l-10.6-4l-2.3,0.9l-0.9-6.9c1.6,0.8,3.3,1.8,5,2.4l10.3,3.9l5-13.5l-7-2.6
			c-1.6,1.4-10.3,8.5-12,7.9c-0.4-0.2-0.4-0.5-0.3-0.7c0.3-0.8,1.1-1.6,1.7-2.3c2.3-3,7.9-12.4,9.2-15.8c0.3-0.7,0.4-1.7,0.7-2.4
			c0.4-0.3,1-0.3,1.4-0.2c1.4,0.5,7.8,5.4,7.5,6.2c-0.3,0.9-2,1.2-2.8,1.4l-2.5,2.9l5.5,2L672.8,401.3z M703.5,362.2
			c1.3,0.5,7.1,7.6,6.8,8.6c-0.4,1-2.3,1.5-3.3,1.9c-2.7,5.9-5.1,12.4-9.2,17.6c-1.7,2.2-4,3.5-6.9,3.8c-3.2,0.3-6.3-0.2-9.2-1.1
			c1.1-3.5,1.9-5.5-0.7-8.6c-0.3-0.2-1.7-1.8-1.6-2c0.2-0.5,0.3-0.6,0.8-0.4c1.5,0.6,3.1,1.6,4.8,2.3s3.3,1,5.1,0.3
			c3.3-1.3,7.5-12.9,8.9-16.3l-10.3-3.9c0.6,0.7,1.7,2.3,1.4,3.2c-0.2,0.4-2.6,0.6-3.1,0.6c-7.3,9-11.6,14.3-22.3,19.8
			c-0.6,0.3-3.4,2-4,1.8c-0.3-0.1-0.4-0.6-0.2-0.9c0.2-0.6,1.5-1.8,1.9-2.3c3.2-3.4,5.9-7.3,8.6-11.1c3.3-4.7,6.2-9.3,8.7-14.5
			l-4.1-1.5l-2.3,0.9l-1-6.8c1.6,0.7,3.3,1.7,5,2.3l22.3,8.3C700.3,363.9,702.6,361.9,703.5,362.2z"/>
		<path class="st0" d="M715.6,466l10.3-15.6c0.8-1.2,1.4-2.5,1.9-3.7c0.4-0.8,0.8-2.9,1.2-3.4c0.2-0.3,0.8-0.2,1,0
			c0.6,0.4,1.2,1.3,1.7,1.9c2.2,2.9,3.8,5.7,5.5,8.7l25.9,17c1-0.3,4.9-1.9,6.1-1.1c1.2,0.8,3.5,6.8,4,7.8c0.2,0.5,0.8,2,0.4,2.5
			c-0.7,1-3.6,1.1-4.6,1.2l-8.6,13.1c-1.7,2.6-3.2,5.7-4.7,8.4c-3.4-1-6.8-2.4-10.2-3.8l3.1-4l-28.9-19l-1.6,2.4
			c-3-1.2-6.2-2.4-9.1-3.8C711.3,471.7,713.7,468.8,715.6,466z M789.5,416.2c1.9-1.8,3.3-3.6,4.7-5.6c0.2-0.4,0.8-1.3,1.4-1.3
			c0.3-0.1,0.7,0.2,0.9,0.4c1.6,1,7.9,9.6,7,10.9c-0.7,1.1-2.8,0.7-3.8,0.4l-6.8,3.2l11.5,7.6c1-0.3,6.2-1.7,7.1-1.1
			c1.2,0.8,1.8,5.5,2.1,6.8c0.2,0.9,0.7,2.8,0.1,3.6c-0.4,0.6-1.4,0.5-2,0.2l-23.3-15.4c-5,1.6-10.1,3.1-15.2,4.6
			c0.4,0.9,2.2,4.3,1.5,5.3c-0.8,1.2-2.1,0.6-3,0c2.7,7.5,6.4,14.6,11.2,21c3.3,4.6,6.7,9.2,10.8,13c0.6,0.5,3.2,2.6,2.7,3.3
			c-0.4,0.6-3.4-0.5-4-0.7c-3-0.9-7.1,1-9.8,2.3c-3.6-6.1-11.3-19.4-12.3-26.4c-0.6-4.1-0.8-8.4-0.4-12.6c-6.1,1-12.3,2.2-18.6,2.4
			c-3.7,0.1-7.4,0-11.1-0.1c1,0.8,1.9,1.8,2.9,2.4l18.9,12.3c1.2-0.3,6-1.7,7.2-0.9c1,0.7,3.2,8.9,2.4,10.1c-0.6,0.9-1.3,0.7-2,0.3
			l-28.9-19l-2.3,0.6l-0.4-5.6c-6.6-0.2-13.1-0.5-19.7-1.3c-1-0.1-3.6-0.3-4.4-0.8c-0.4-0.2-0.3-0.6-0.1-0.9
			c0.4-0.6,2.5-0.4,3.3-0.4c3.8-0.1,7.7-0.6,11.5-1c7.2-0.8,14.4-2,21.5-3.4c3.4-0.6,12.6-2.4,15.3-4.7c0.7-0.7,2.6-2.8,3.7-2
			c1,0.7,2.3,3.3,3,4.3C778.1,424.4,784.3,420.7,789.5,416.2z M750.7,491.9l11.4-17.3l-27.6-18.1l-2.1,0.4l-10.5,16L750.7,491.9z
			 M771.2,409.4c1.1-0.2,6.1-1.8,7.2-1.1c0.9,0.6,1.8,5.9,2,6.8s0.6,2.7,0,3.6c-0.4,0.6-1.3,0.6-2,0.2l-18.9-12.5
			c-6.7,2.2-13.2,4.3-20.3,4.7c-0.8,0.2-4.2,0.6-4.9,0.2c0.3-1.3,3.4-2.4,4-2.7c1.8-0.9,3.5-1.7,5.3-2.6c4.5-2.2,8.6-4.3,12.8-6.9
			c2.3-1.4,4.7-2.8,6.8-4.6c1.1-0.9,2.1-1.9,2.8-3.1c0.2-0.3,0.7-1.1,1.1-1c0.3-0.1,0.6,0.1,0.8,0.2c1.7,1.1,8,9.6,7.1,11.1
			c-0.7,1-2.8,0.5-3.8,0.1c-2.4,1.1-4.7,2-7.1,2.8L771.2,409.4z M761.2,407.8c0.5,0.3,0.7,0.9,1.1,1.4c2.3,3.5,4.9,9.4,2.3,13.3
			c-1.6,2.4-4.5,3-6.8,1.5c-4.6-3,0.2-7.5,1.5-10.7c0.3-0.9,0.7-2.2,0.8-3c0.2-0.7-0.1-1.6,0.3-2.3
			C760.6,407.7,760.9,407.6,761.2,407.8z M792,428.6c1.2,0.8,2.5,4,3,5.3c1.4,3.1,2.1,6.9,0.2,10c-1.5,2.3-4.6,3.3-7,1.7
			c-5.4-3.6,2.7-10.1,2.9-14.4c0-0.5-0.1-1.8,0.2-2.4C791.4,428.5,791.8,428.4,792,428.6z"/>
	</g>
</g>
</svg>
