<svg width="92" height="281" viewBox="0 0 92 281" fill="none" xmlns="http://www.w3.org/2000/svg">
<path d="M45.616 39.288H51.52C52.192 51.048 57.52 61.704 61.696 61.656C62.896 61.608 63.376 59.592 63.664 54.696C64.96 55.896 67.072 57.048 68.656 57.528C67.84 65.64 65.776 67.368 61.408 67.368C52.912 67.368 46.528 54.168 45.616 39.288ZM32.224 45.048H67.552V50.424H32.224V45.048ZM24.112 60.504C30.16 59.928 39.424 58.824 47.872 57.768L48.064 63.432C40.096 64.584 31.552 65.688 25.36 66.504L24.112 60.504ZM29.2 24.456H35.152V62.712H29.2V24.456ZM32.08 24.456H64.144V40.296H32.08V34.968H58.288V29.784H32.08V24.456ZM44.416 86.112L50.032 87.888C47.728 92.4 44.08 97.2 40.864 100.176C39.808 99.168 37.456 97.296 36.112 96.48C39.376 93.984 42.544 90 44.416 86.112ZM54.352 88.464L58.912 85.728C62.176 88.992 66.16 93.504 67.984 96.624L63.04 99.744C61.456 96.672 57.568 91.92 54.352 88.464ZM52.24 101.376C49.36 105.984 44.224 111.792 38.464 115.488C37.792 114 36.448 111.84 35.392 110.544C41.152 107.088 46.72 100.608 49.264 95.712H54.784C58.432 101.232 63.904 106.896 69.232 109.584C68.08 111.024 66.784 113.136 65.92 114.864C60.832 111.6 55.264 105.936 52.24 101.376ZM41.296 111.072H63.76V130.176H58.048V116.064H46.72V130.368H41.296V111.072ZM44.08 123.36H61.264V128.544H44.08V123.36ZM33.376 85.44L38.8 87.12C35.68 95.328 30.688 103.968 25.456 109.44C24.928 108.048 23.392 104.88 22.384 103.488C26.752 99.12 30.928 92.304 33.376 85.44ZM28.72 98.688L34.192 93.216L34.24 93.264V130.272H28.72V98.688ZM53.824 153.432C51.232 157.56 46.528 162.552 41.488 165.624C40.912 164.232 39.664 162.168 38.704 160.92C43.744 158.088 48.688 152.616 51.04 148.296H56.224C59.488 153.144 64.384 157.944 69.184 160.296C68.128 161.64 66.928 163.704 66.112 165.288C61.552 162.504 56.56 157.512 53.824 153.432ZM41.872 168.696H65.104V173.304H46.672V193.032H41.872V168.696ZM61.456 168.696H66.4V188.328C66.4 190.344 66.112 191.544 64.912 192.312C63.712 193.08 62.272 193.128 60.304 193.128C60.16 191.88 59.536 189.96 58.96 188.76C59.824 188.808 60.64 188.808 60.976 188.808C61.36 188.808 61.456 188.664 61.456 188.232V168.696ZM48.976 169.944H52.72V192.744H48.976V169.944ZM55.12 169.944H58.912V192.744H55.12V169.944ZM45.568 161.112H62.32V165.816H45.568V161.112ZM44.128 178.536H64.624V183.096H44.128V178.536ZM25.552 162.984H38.944V167.304H25.552V162.984ZM25.84 149.736H38.8V154.104H25.84V149.736ZM25.552 169.512H38.944V173.88H25.552V169.512ZM23.392 156.216H40.528V160.776H23.392V156.216ZM28.192 176.184H39.04V190.68H28.192V186.168H34.336V180.696H28.192V176.184ZM25.408 176.184H30.112V192.696H25.408V176.184ZM50.32 211.248H56.032V217.344H50.32V211.248ZM38.032 214.608H68.176V218.736H38.032V214.608ZM35.872 250.752H68.56V255.024H35.872V250.752ZM50.704 227.184V228.768H55.408V227.184H50.704ZM47.056 224.736H59.296V231.216H47.056V224.736ZM45.136 223.392V232.512H61.312V223.392H45.136ZM40.48 220.128H66.208V235.824H40.48V220.128ZM47.44 244.704V246.336H58.768V244.704H47.44ZM47.44 240.192V241.824H58.768V240.192H47.44ZM42.208 237.168H64.24V249.36H42.208V237.168ZM24.112 222.72H37.552V228.144H24.112V222.72ZM28.528 211.968H33.76V243.888H28.528V211.968ZM23.104 243.312C26.848 242.064 32.56 239.856 37.936 237.648L39.232 242.976C34.432 245.136 29.2 247.392 24.976 249.168L23.104 243.312Z" fill="white"/>
<rect x="2" y="2" width="88" height="277" stroke="white" stroke-width="4"/>
</svg>
