<?xml version="1.0" encoding="utf-8"?>
<!-- Generator: Adobe Illustrator 26.3.1, SVG Export Plug-In . SVG Version: 6.00 Build 0)  -->
<svg version="1.1" id="圖層_1" xmlns="http://www.w3.org/2000/svg" xmlns:xlink="http://www.w3.org/1999/xlink" x="0px" y="0px"
	 viewBox="0 0 642.5 642.5" style="enable-background:new 0 0 642.5 642.5;" xml:space="preserve">
<style type="text/css">
	.st0{fill:none;stroke:#C39A6B;stroke-width:5;stroke-linejoin:round;stroke-miterlimit:10;}
</style>
<g>
	<g>
		<line class="st0" x1="343.9" y1="2" x2="333.9" y2="200.9"/>
		<line class="st0" x1="321.2" y1="2" x2="321.2" y2="200.9"/>
		<line class="st0" x1="353.2" y1="130.4" x2="343.9" y2="200.9"/>
		<line class="st0" x1="298.6" y1="2" x2="308.6" y2="200.9"/>
		<line class="st0" x1="289.3" y1="130.4" x2="298.6" y2="200.9"/>
	</g>
	<g>
		<line class="st0" x1="181.2" y1="33.5" x2="272" y2="210.7"/>
		<line class="st0" x1="161.6" y1="44.8" x2="261" y2="217"/>
		<line class="st0" x1="253.4" y1="140" x2="280.6" y2="205.7"/>
		<line class="st0" x1="142" y1="56.1" x2="250.1" y2="223.3"/>
		<line class="st0" x1="198.2" y1="171.9" x2="241.5" y2="228.3"/>
	</g>
	<g>
		<line class="st0" x1="56.1" y1="142" x2="223.3" y2="250.1"/>
		<line class="st0" x1="44.8" y1="161.6" x2="217" y2="261"/>
		<line class="st0" x1="171.9" y1="198.2" x2="228.3" y2="241.5"/>
		<line class="st0" x1="33.5" y1="181.2" x2="210.7" y2="272"/>
		<line class="st0" x1="140" y1="253.4" x2="205.7" y2="280.6"/>
	</g>
	<g>
		<line class="st0" x1="2" y1="298.6" x2="200.9" y2="308.6"/>
		<line class="st0" x1="2" y1="321.2" x2="200.9" y2="321.2"/>
		<line class="st0" x1="130.4" y1="289.3" x2="200.9" y2="298.6"/>
		<line class="st0" x1="2" y1="343.9" x2="200.9" y2="333.9"/>
		<line class="st0" x1="130.4" y1="353.2" x2="200.9" y2="343.9"/>
	</g>
	<g>
		<line class="st0" x1="33.5" y1="461.3" x2="210.7" y2="370.5"/>
		<line class="st0" x1="44.8" y1="480.9" x2="217" y2="381.4"/>
		<line class="st0" x1="140" y1="389" x2="205.7" y2="361.8"/>
		<line class="st0" x1="56.1" y1="500.4" x2="223.3" y2="392.4"/>
		<line class="st0" x1="171.9" y1="444.3" x2="228.3" y2="401"/>
	</g>
	<g>
		<line class="st0" x1="142" y1="586.4" x2="250.1" y2="419.2"/>
		<line class="st0" x1="161.6" y1="597.7" x2="261" y2="425.5"/>
		<line class="st0" x1="198.2" y1="470.6" x2="241.5" y2="414.2"/>
		<line class="st0" x1="181.2" y1="609" x2="272" y2="431.8"/>
		<line class="st0" x1="253.4" y1="502.5" x2="280.6" y2="436.8"/>
	</g>
	<g>
		<line class="st0" x1="298.6" y1="640.5" x2="308.6" y2="441.6"/>
		<line class="st0" x1="321.2" y1="640.5" x2="321.2" y2="441.6"/>
		<line class="st0" x1="289.3" y1="512.1" x2="298.6" y2="441.6"/>
		<line class="st0" x1="343.9" y1="640.5" x2="333.9" y2="441.6"/>
		<line class="st0" x1="353.2" y1="512.1" x2="343.9" y2="441.6"/>
	</g>
	<g>
		<line class="st0" x1="461.3" y1="609" x2="370.5" y2="431.8"/>
		<line class="st0" x1="480.9" y1="597.7" x2="381.4" y2="425.5"/>
		<line class="st0" x1="389" y1="502.5" x2="361.8" y2="436.8"/>
		<line class="st0" x1="500.4" y1="586.4" x2="392.4" y2="419.2"/>
		<line class="st0" x1="444.3" y1="470.6" x2="401" y2="414.2"/>
	</g>
	<g>
		<line class="st0" x1="586.4" y1="500.4" x2="419.2" y2="392.4"/>
		<line class="st0" x1="597.7" y1="480.9" x2="425.5" y2="381.4"/>
		<line class="st0" x1="470.6" y1="444.3" x2="414.2" y2="401"/>
		<line class="st0" x1="609" y1="461.3" x2="431.8" y2="370.5"/>
		<line class="st0" x1="502.5" y1="389" x2="436.8" y2="361.8"/>
	</g>
	<g>
		<line class="st0" x1="640.5" y1="343.9" x2="441.6" y2="333.9"/>
		<line class="st0" x1="640.5" y1="321.2" x2="441.6" y2="321.2"/>
		<line class="st0" x1="512.1" y1="353.2" x2="441.6" y2="343.9"/>
		<line class="st0" x1="640.5" y1="298.6" x2="441.6" y2="308.6"/>
		<line class="st0" x1="512.1" y1="289.3" x2="441.6" y2="298.6"/>
	</g>
	<g>
		<line class="st0" x1="609" y1="181.2" x2="431.8" y2="272"/>
		<line class="st0" x1="597.7" y1="161.6" x2="425.5" y2="261"/>
		<line class="st0" x1="502.5" y1="253.4" x2="436.8" y2="280.6"/>
		<line class="st0" x1="586.4" y1="142" x2="419.2" y2="250.1"/>
		<line class="st0" x1="470.6" y1="198.2" x2="414.2" y2="241.5"/>
	</g>
	<g>
		<line class="st0" x1="500.4" y1="56.1" x2="392.4" y2="223.3"/>
		<line class="st0" x1="480.9" y1="44.8" x2="381.4" y2="217"/>
		<line class="st0" x1="444.3" y1="171.9" x2="401" y2="228.3"/>
		<line class="st0" x1="461.3" y1="33.5" x2="370.5" y2="210.7"/>
		<line class="st0" x1="389" y1="140" x2="361.8" y2="205.7"/>
	</g>
</g>
<circle class="st0" cx="321.2" cy="321.2" r="151"/>
</svg>
