<svg width="664" height="578" viewBox="0 0 664 578" fill="none" xmlns="http://www.w3.org/2000/svg">
<path d="M294.532 481.153C294.532 481.153 260.031 537.116 344.874 536.029C393.844 535.405 443.395 517.285 484.633 497.283C567.898 456.815 625.371 397.53 651.803 331.409C661.799 306.35 672.988 270.081 648.306 249.861C613.927 221.659 537.082 236.8 496.47 271.56C496.47 271.56 604.687 185.745 630.938 114.364C657.189 42.9835 645.029 0.607062 561.947 0.04332C478.864 -0.520422 363.831 101.466 349.592 143.535C349.592 143.535 399.019 21.9678 290.747 29.1628C182.475 36.3578 37.6993 157.753 44.9384 236.746C52.1774 315.739 106.838 308.627 129.494 297.111C129.494 297.111 -27.7706 400.974 5.13599 503.895C38.0426 606.815 124.01 584.851 218.602 538.218C280.699 504.507 294.532 481.153 294.532 481.153Z" fill="#47B990"/>
</svg>
