<svg width="321" height="456" viewBox="0 0 321 456" fill="none" xmlns="http://www.w3.org/2000/svg">
<g clip-path="url(#clip0_452_9865)">
<path d="M24.2057 140.491C23.8992 164.827 44.9775 182.861 44.9775 182.861C48.514 220.079 81.6443 232.362 81.6443 232.362C88.947 248.994 104.574 259.223 129.367 273.24C154.161 287.257 163.749 310.828 163.749 310.828C135.585 322.307 127.082 350.086 142.479 394.676C157.876 439.253 217.549 464.163 251.202 450.656C284.856 437.149 269.229 419.892 269.229 419.892C289.937 409.458 289.184 394.676 289.184 394.676C319.697 374.486 319.097 347.191 319.097 347.191C316.148 307.563 282.405 271.046 265.757 248.075C249.109 225.104 251.202 197.657 251.202 197.657C270.34 183.461 284.32 155.784 279.111 140.478C273.902 125.173 267.314 137.889 267.314 137.889C258.531 150.937 237.325 158.768 237.325 158.768C235.333 148.705 217.064 126.78 202.484 130.632C187.891 134.496 204.437 163.934 204.437 163.934C184.546 161.944 120.315 163.015 120.315 163.015C129.508 160.592 129.38 150.631 129.38 150.631C165.064 152.263 174.218 125.874 174.218 125.874C231.516 100.812 191.274 44.36 184.444 38.021C177.614 31.682 172.915 40.7887 172.915 40.7887C172.915 40.7887 174.984 76.5014 156.855 96.2072C138.725 115.913 75.6055 136.665 75.6055 136.665L75.0693 133.093C103.361 113.324 101.765 77.2412 101.765 77.2412C127.235 53.8111 98.5477 6.89996 85.9212 6.51732C73.2947 6.13468 81.6187 14.6292 77.5333 44.1049C73.4479 73.5807 44.9903 96.7556 44.9903 96.7556C49.497 78.8355 41.3262 71.17 41.3262 71.17C41.3262 71.17 57.9105 26.7077 33.3468 9.62943C8.78315 -7.44889 8.42568 9.62943 8.42568 9.62943C15.0773 34.1181 18.2307 42.6637 4.41685 88.8096C-9.39702 134.968 24.2057 140.453 24.2057 140.453V140.491ZM146.449 209.149C146.449 209.149 182.478 215.59 211.625 208.651C211.625 208.651 211.178 232.604 209.288 244.224C209.288 244.224 159.063 212.72 146.462 209.149H146.449Z" fill="#431D31"/>
<path d="M267.519 306.031C238.078 258.75 189.564 224.313 137.423 208.471M137.423 208.471C146.181 209.785 152.182 213.28 137.423 208.471ZM137.423 208.471C167.86 210.283 202.331 217.935 230.316 200.742" stroke="#C39A6B" stroke-width="3" stroke-linecap="round" stroke-linejoin="round"/>
<path d="M218.06 198.167C230.418 202.644 247.015 202.644 257.229 193.715C261.237 190.221 264.582 185.081 267.493 180.68C270.404 176.28 273.2 171.153 275.217 165.987C277.234 160.822 278.562 155.618 279.086 150.21C279.494 146.014 279.826 141.218 278.166 137.238C277.222 134.968 274.796 132.404 272.089 133.297C269.945 134.012 268.527 136.129 267.289 137.902C265.782 140.057 264.34 141.868 262.412 143.679C258.659 147.212 254.535 150.337 250.13 153.003C241.551 158.181 231.95 161.51 222.094 163.181C218.506 163.793 214.893 164.176 211.268 164.38C181.903 164.38 152.539 159.278 123.175 163.105C104.025 165.656 88.7046 179.685 81.0444 197.542C67.4986 229.122 95.4328 257.322 121.554 269.324C135.713 275.829 144.088 282.334 153.816 294.476C162.753 305.955 167.86 319.985 172.967 332.74C178.073 346.77 176.797 362.075 181.903 376.105C190.84 400.339 207.437 423.297 234.248 427.123C253.399 428.399 275.102 422.022 285.316 404.165C298.083 379.932 287.869 354.423 279.75 330.036" stroke="#C39A6B" stroke-width="3" stroke-linecap="round" stroke-linejoin="round"/>
<path d="M83.2787 235.817C82.9851 235.179 35.1855 213.292 46.7907 170.118C55.4722 137.849 96.1223 126.995 123.635 117.238C141.049 111.065 155.374 102.073 164.145 85.4027C171.307 71.7809 172.775 56.0545 172.903 40.7874C172.928 37.5222 175.954 35.1243 179.146 35.8514C186.385 37.4967 197.901 45.2387 202.471 76.6659C209.353 124.036 169.034 133.054 157.417 121.779" stroke="#C39A6B" stroke-width="3" stroke-linecap="round" stroke-linejoin="round"/>
<path d="M111.302 149.507C111.302 149.507 163.608 158.665 174.218 125.898" stroke="#C39A6B" stroke-width="3" stroke-linecap="round" stroke-linejoin="round"/>
<path d="M129.367 150.656C129.367 150.656 128.448 160.541 118.771 163.908" stroke="#C39A6B" stroke-width="3" stroke-linecap="round" stroke-linejoin="round"/>
<path d="M45.0542 185.922C45.0542 185.922 9.0641 154.01 31.6361 111.486C41.9518 95.696 57.7573 90.862 70.6648 65.0851C83.5722 39.3082 76.9333 14.8195 78.3122 10.9549C79.691 7.09026 94.2071 -1.93995 104.842 27.0639C115.49 56.0677 116.447 81.1941 88.3981 78.9365" stroke="#C39A6B" stroke-width="3" stroke-linecap="round" stroke-linejoin="round"/>
<path d="M53.8889 123.081C53.8889 123.081 65.826 146.919 85.1808 123.081C104.536 99.2424 101.586 77.3301 101.586 77.3301" stroke="#C39A6B" stroke-width="3" stroke-linecap="round" stroke-linejoin="round"/>
<path d="M24.2058 140.49C24.2058 140.49 2.93604 139.202 1.96575 113.425C0.995456 87.6483 14.5412 57.0374 14.8732 46.0813C15.2051 35.1251 11.9623 18.0341 8.41307 9.66709C4.86385 1.30012 18.7415 -1.11049 29.3764 6.52947C40.0241 14.1694 59.3661 33.1864 35.8238 81.5134" stroke="#C39A6B" stroke-width="3" stroke-linecap="round" stroke-linejoin="round"/>
<path d="M75.5928 131.678C75.5928 131.678 73.9459 137.264 69.5413 140.491" stroke="#C39A6B" stroke-width="3" stroke-linecap="round" stroke-linejoin="round"/>
<path d="M41.3135 68.8223C41.3135 68.8223 48.3225 75.6459 44.9776 96.7802" stroke="#C39A6B" stroke-width="3" stroke-linecap="round" stroke-linejoin="round"/>
<path d="M251.19 198.396C252.53 207.184 251.126 216.431 253.667 224.977C256.144 233.318 260.918 240.92 265.744 248.075C274.732 261.378 284.805 273.942 294.253 286.926C307.99 305.777 322.162 328.722 318.497 353.096C315.842 370.838 303.458 384.715 289.172 394.676" stroke="#C39A6B" stroke-width="3" stroke-linecap="round" stroke-linejoin="round"/>
<path d="M204.424 163.958C202.126 155.565 195.449 145.043 197.862 136.14C201.411 123.003 220.026 135.107 224.967 140.502C229.907 145.897 233.763 152.364 237.325 158.792" stroke="#C39A6B" stroke-width="3" stroke-linecap="round" stroke-linejoin="round"/>
<path d="M209.276 244.21C211.587 232.692 211.931 220.843 211.408 209.135" stroke="#C39A6B" stroke-width="3" stroke-linecap="round" stroke-linejoin="round"/>
<path d="M264.595 422.2C264.595 422.2 236.776 445.949 205.484 430.809C174.192 415.669 157.748 378.286 156.14 344.78C156.14 329.959 166.034 325.814 169.954 325.15" stroke="#C39A6B" stroke-width="3" stroke-linecap="round" stroke-linejoin="round"/>
<path d="M269.217 419.878C269.217 419.878 284.435 432.735 258.02 447.556C231.605 462.377 182.58 451.102 158.719 422.417C134.857 393.732 125.984 344.537 143.564 325.125C151.633 315.113 158.144 314.245 163.749 310.814" stroke="#C39A6B" stroke-width="3" stroke-linecap="round" stroke-linejoin="round"/>
</g>
<defs>
<clipPath id="clip0_452_9865">
<rect width="321" height="456" fill="white" transform="translate(-0.000488281)"/>
</clipPath>
</defs>
</svg>
