<svg width="321" height="456" viewBox="0 0 321 456" fill="none" xmlns="http://www.w3.org/2000/svg">
<g clip-path="url(#clip0_452_9845)">
<path d="M316.595 88.8486C302.781 42.69 305.947 34.1572 312.586 9.66849C312.586 9.66849 312.229 -7.40983 287.665 9.66849C263.101 26.7468 279.686 71.2091 279.686 71.2091C279.686 71.2091 271.515 78.8873 276.022 96.7947C276.022 96.7947 247.564 73.6197 243.479 44.144C239.393 14.6683 247.717 6.17375 235.091 6.55638C222.464 6.93902 193.777 53.8502 219.247 77.2803C219.247 77.2803 217.651 113.35 245.943 133.132L245.406 136.704C245.406 136.704 182.286 115.952 164.157 96.2462C146.028 76.5405 148.097 40.8278 148.097 40.8278C148.097 40.8278 143.386 31.7211 136.568 38.0601C129.738 44.3991 89.5089 100.851 146.794 125.913C146.794 125.913 155.961 152.302 191.632 150.67C191.632 150.67 191.504 160.644 200.696 163.054C200.696 163.054 136.466 161.983 116.575 163.973C116.575 163.973 133.108 134.523 118.528 130.671C103.936 126.806 85.6788 148.744 83.6871 158.807C83.6871 158.807 62.4812 150.963 53.6975 137.928C53.6975 137.928 47.1225 125.212 41.9008 140.517C36.6791 155.823 50.6717 183.5 69.8094 197.696C69.8094 197.696 71.9032 225.144 55.2551 248.114C38.607 271.085 4.87662 307.551 1.91468 347.192C1.91468 347.192 1.31463 374.486 31.8277 394.677C31.8277 394.677 31.0744 409.447 51.7825 419.893C51.7825 419.893 36.1685 437.149 69.8094 450.656C103.45 464.163 163.136 439.267 178.533 394.677C193.93 350.1 185.414 322.32 157.263 310.828C157.263 310.828 166.838 287.271 191.645 273.241C216.438 259.224 232.065 248.995 239.368 232.363C239.368 232.363 272.498 220.08 276.034 182.862C276.034 182.862 297.113 164.827 296.806 140.492C296.806 140.492 330.409 135.007 316.595 88.8486ZM111.723 244.212C109.834 232.592 109.387 208.639 109.387 208.639C138.534 215.578 174.562 209.137 174.562 209.137C161.961 212.708 111.736 244.212 111.736 244.212H111.723Z" fill="#431D31"/>
<path d="M53.4805 306.031C82.9211 258.75 131.436 224.313 183.576 208.471M183.576 208.471C168.817 213.28 174.818 209.785 183.576 208.471ZM183.576 208.471C153.139 210.283 118.669 217.935 90.6834 200.742" stroke="#C39A6B" stroke-width="3" stroke-linecap="round" stroke-linejoin="round"/>
<path d="M102.94 198.167C90.5813 202.644 73.9842 202.644 63.7706 193.715C59.7618 190.221 56.4168 185.081 53.506 180.68C50.5951 176.28 47.7991 171.153 45.782 165.987C43.7648 160.822 42.437 155.618 41.9136 150.21C41.505 146.014 41.1731 141.218 42.8328 137.238C43.7775 134.968 46.2033 132.404 48.9099 133.297C51.0547 134.012 52.4718 136.129 53.7102 137.902C55.2167 140.057 56.6594 141.868 58.5872 143.679C62.3407 147.212 66.4644 150.337 70.869 153.003C79.4485 158.181 89.0492 161.51 98.9053 163.181C102.493 163.793 106.106 164.176 109.732 164.38C139.096 164.38 168.46 159.278 197.824 163.105C216.974 165.656 232.295 179.685 239.955 197.542C253.501 229.122 225.566 257.322 199.445 269.324C185.287 275.829 176.912 282.334 167.183 294.476C158.246 305.955 153.139 319.985 148.033 332.74C142.926 346.77 144.203 362.075 139.096 376.105C130.159 400.339 113.562 423.297 86.7512 427.123C67.6007 428.399 45.8969 422.022 35.6833 404.165C22.9163 379.932 33.1299 354.423 41.2497 330.036" stroke="#C39A6B" stroke-width="3" stroke-linecap="round" stroke-linejoin="round"/>
<path d="M237.721 235.817C238.014 235.179 285.814 213.292 274.209 170.118C265.527 137.849 224.877 126.995 197.364 117.238C179.95 111.065 165.626 102.073 156.855 85.4027C149.692 71.7809 148.224 56.0545 148.097 40.7874C148.071 37.5222 145.045 35.1243 141.853 35.8514C134.615 37.4967 123.099 45.2387 118.528 76.6659C111.647 124.036 151.965 133.054 163.583 121.779" stroke="#C39A6B" stroke-width="3" stroke-linecap="round" stroke-linejoin="round"/>
<path d="M209.697 149.507C209.697 149.507 157.391 158.665 146.781 125.898" stroke="#C39A6B" stroke-width="3" stroke-linecap="round" stroke-linejoin="round"/>
<path d="M191.632 150.656C191.632 150.656 192.551 160.541 202.228 163.908" stroke="#C39A6B" stroke-width="3" stroke-linecap="round" stroke-linejoin="round"/>
<path d="M275.945 185.922C275.945 185.922 311.935 154.01 289.363 111.486C279.047 95.696 263.242 90.862 250.334 65.0851C237.427 39.3082 244.066 14.8195 242.687 10.9549C241.308 7.09026 226.792 -1.93995 216.157 27.0639C205.522 56.0677 204.552 81.1941 232.601 78.9365" stroke="#C39A6B" stroke-width="3" stroke-linecap="round" stroke-linejoin="round"/>
<path d="M267.11 123.081C267.11 123.081 255.173 146.919 235.818 123.081C216.464 99.2424 219.413 77.3301 219.413 77.3301" stroke="#C39A6B" stroke-width="3" stroke-linecap="round" stroke-linejoin="round"/>
<path d="M296.793 140.49C296.793 140.49 318.063 139.202 319.033 113.425C320.004 87.6482 306.458 57.0374 306.126 46.0812C305.794 35.1251 309.024 18.0468 312.573 9.66704C316.123 1.28731 302.258 -1.11054 291.61 6.52943C280.962 14.1694 261.62 33.1864 285.163 81.5133" stroke="#C39A6B" stroke-width="3" stroke-linecap="round" stroke-linejoin="round"/>
<path d="M245.419 131.678C245.419 131.678 247.066 137.264 251.471 140.491" stroke="#C39A6B" stroke-width="3" stroke-linecap="round" stroke-linejoin="round"/>
<path d="M279.699 68.8223C279.699 68.8223 272.689 75.6459 276.034 96.7802" stroke="#C39A6B" stroke-width="3" stroke-linecap="round" stroke-linejoin="round"/>
<path d="M69.8094 198.396C68.4688 207.184 69.8732 216.431 67.3326 224.977C64.792 233.522 60.0809 240.92 55.255 248.075C46.2671 261.378 36.1939 273.942 26.7464 286.926C13.0091 305.777 -1.16223 328.722 2.50189 353.096C5.15742 370.838 17.5414 384.715 31.8276 394.676" stroke="#C39A6B" stroke-width="3" stroke-linecap="round" stroke-linejoin="round"/>
<path d="M116.575 163.958C118.873 155.565 125.55 145.043 123.137 136.14C119.588 123.003 100.974 135.107 96.0327 140.502C91.0919 145.897 87.2363 152.364 83.6743 158.792" stroke="#C39A6B" stroke-width="3" stroke-linecap="round" stroke-linejoin="round"/>
<path d="M111.723 244.21C109.413 232.692 109.068 220.843 109.591 209.135" stroke="#C39A6B" stroke-width="3" stroke-linecap="round" stroke-linejoin="round"/>
<path d="M56.4167 422.2C56.4167 422.2 84.236 445.949 115.528 430.809C146.82 415.669 163.264 378.286 164.872 344.78C164.872 329.959 154.978 325.814 151.058 325.15" stroke="#C39A6B" stroke-width="3" stroke-linecap="round" stroke-linejoin="round"/>
<path d="M51.7825 419.878C51.7825 419.878 36.5643 432.735 62.9791 447.556C89.394 462.377 138.419 451.102 162.281 422.417C186.142 393.732 195.015 344.537 177.435 325.125C169.366 315.113 162.855 314.245 157.25 310.814" stroke="#C39A6B" stroke-width="3" stroke-linecap="round" stroke-linejoin="round"/>
</g>
<defs>
<clipPath id="clip0_452_9845">
<rect width="321" height="456" fill="white" transform="translate(-0.000488281)"/>
</clipPath>
</defs>
</svg>
