<?xml version="1.0" encoding="utf-8"?>
<!-- Generator: Adobe Illustrator 26.3.1, SVG Export Plug-In . SVG Version: 6.00 Build 0)  -->
<svg version="1.1" id="圖層_1" xmlns="http://www.w3.org/2000/svg" xmlns:xlink="http://www.w3.org/1999/xlink" x="0px" y="0px"
	 viewBox="0 0 1540.3 706" style="enable-background:new 0 0 1540.3 706;" xml:space="preserve">
<style type="text/css">
	.st0{fill:#431D31;stroke:#C39A6B;stroke-width:3;stroke-miterlimit:10;}
	.st1{fill:#BF9769;stroke:#BF9769;stroke-width:3;stroke-linecap:round;stroke-linejoin:round;stroke-miterlimit:10;}
	.st2{fill:none;stroke:#BF9769;stroke-width:3;stroke-linecap:round;stroke-linejoin:round;stroke-miterlimit:10;}
	.st3{fill:none;stroke:#BF9769;stroke-width:3;stroke-linecap:round;stroke-miterlimit:10;}
	.st4{fill:#BF9769;}
	.st5{fill:none;stroke:#BF9769;stroke-width:3;stroke-miterlimit:10;}
	.st6{fill:#B32227;stroke:#BF9769;stroke-width:3;stroke-linecap:round;stroke-miterlimit:10;}
	.st7{fill:#B32227;}
	.st8{fill:#FFFFFF;stroke:#C39A6B;stroke-width:10;stroke-miterlimit:10;}
</style>
<g>
	<rect x="167.6" y="10" class="st0" width="1188" height="678"/>
	<path class="st0" d="M1371.1,704.5h-1207V1.5h1207V704.5z M180.1,688.5h1175v-671h-1175V688.5z"/>
	<g>
		<path class="st1" d="M69.8,417.6H53.9c-4.8,0-8.7-3.9-8.7-8.7v-34.3h33.3v34.3C78.5,413.7,74.6,417.6,69.8,417.6z"/>
		<path class="st2" d="M59.7,215.9c5.4,0,9.7-4.3,9.7-9.7s-4.3-9.7-9.7-9.7c-5.4,0-9.7,4.3-9.7,9.7S54.4,215.9,59.7,215.9z"/>
		<path class="st2" d="M64.4,214.5l2.2-2.1l-2.2-2.1l-2.2,2.1L64.4,214.5z"/>
		<path class="st2" d="M62.3,208.1l2.2,2.1l2.2-2.1l-2.2-2.1L62.3,208.1z"/>
		<path class="st2" d="M53.5,203.9l-2.2,2.1l2.2,2.1l2.2-2.1L53.5,203.9z"/>
		<path class="st2" d="M57.9,208.1l-2.2-2.1l-2.2,2.1l2.2,2.1L57.9,208.1z"/>
		<path class="st2" d="M57.9,208.1l-2.2,2.1l2.2,2.1l2.2-2.1L57.9,208.1z"/>
		<path class="st2" d="M57.9,203.9l-2.2-2.1l-2.2,2.1l2.2,2.1L57.9,203.9z"/>
		<path class="st2" d="M60.1,210.3l2.2,2.1l2.2-2.1l-2.2-2.1L60.1,210.3z"/>
		<path class="st2" d="M53.5,208.1l-2.2,2.1l2.2,2.1l2.2-2.1L53.5,208.1z"/>
		<path class="st2" d="M53.5,212.4l2.2,2.1l2.2-2.1l-2.2-2.1L53.5,212.4z"/>
		<path class="st2" d="M57.9,212.4l2.2,2.1l2.2-2.1l-2.2-2.1L57.9,212.4z"/>
		<path class="st2" d="M64.4,206l2.2-2.1l-2.2-2.1l-2.2,2.1L64.4,206z"/>
		<path class="st2" d="M64.3,197.7c-1-0.5-2.1-0.9-3.3-1l-0.9,0.8l2.2,2.1L64.3,197.7z"/>
		<path class="st2" d="M60.1,206l2.2,2.1l2.2-2.1l-2.2-2.1L60.1,206z"/>
		<path class="st2" d="M53.5,199.6l-2.2,2.1l2.2,2.1l2.2-2.1L53.5,199.6z"/>
		<path class="st2" d="M62.3,203.9l-2.2-2.1l-2.2,2.1l2.2,2.1L62.3,203.9z"/>
		<path class="st2" d="M57.9,203.9l-2.2,2.1l2.2,2.1l2.2-2.1L57.9,203.9z"/>
		<path class="st2" d="M59.7,196.6c-0.2,0-0.4,0-0.6,0l0.9,0.9l0.9-0.8C60.5,196.6,60.1,196.6,59.7,196.6z"/>
		<path class="st2" d="M57.9,208.1l2.2,2.1l2.2-2.1l-2.2-2.1L57.9,208.1z"/>
		<path class="st2" d="M57.9,203.9l2.2-2.1l-2.2-2.1l-2.2,2.1L57.9,203.9z"/>
		<path class="st2" d="M62.3,199.6l-2.2-2.1l-2.2,2.1l2.2,2.1L62.3,199.6z"/>
		<path class="st2" d="M57.9,199.6l-2.2-2.1l-2.2,2.1l2.2,2.1L57.9,199.6z"/>
		<path class="st2" d="M59.7,215.9c0.6,0,1.1-0.1,1.6-0.2l-1.3-1.3l-1.4,1.4C59,215.9,59.4,215.9,59.7,215.9z"/>
		<path class="st2" d="M50,206.2c0,0.3,0,0.6,0,1l1.2-1.2l-1.1-1.2C50.1,205.3,50,205.8,50,206.2z"/>
		<path class="st2" d="M62.3,203.9l2.2-2.1l-2.2-2.1l-2.2,2.1L62.3,203.9z"/>
		<path class="st2" d="M53.5,208.1l-2.2-2.1l-1.2,1.2c0.1,0.8,0.3,1.6,0.6,2.4l0.7,0.7L53.5,208.1z"/>
		<path class="st2" d="M60.1,214.5l-2.2-2.1l-2.2,2.1l0.9,0.9c0.7,0.2,1.3,0.4,2,0.5L60.1,214.5z"/>
		<path class="st2" d="M55.3,214.9c0.4,0.2,0.9,0.4,1.3,0.6l-0.9-0.9L55.3,214.9z"/>
		<path class="st2" d="M51.3,206l2.2-2.1l-2.2-2.1l-0.3,0.3c-0.4,0.9-0.7,1.8-0.8,2.8L51.3,206z"/>
		<path class="st2" d="M50.6,209.6c0.1,0.3,0.3,0.6,0.4,1l0.3-0.3L50.6,209.6z"/>
		<path class="st2" d="M62.3,212.4l-2.2,2.1l1.3,1.3c0.9-0.2,1.8-0.5,2.6-0.9l0.4-0.4L62.3,212.4z"/>
		<path class="st2" d="M66.9,212.7c0.5-0.6,1-1.3,1.4-2l-1.7,1.7L66.9,212.7z"/>
		<path class="st2" d="M66.6,208.1l-2.2,2.1l2.2,2.1l1.7-1.7c0.1-0.2,0.2-0.4,0.3-0.6L66.6,208.1z"/>
		<path class="st2" d="M64.5,214.5l0.1,0.1c0.9-0.5,1.7-1.2,2.4-1.9l-0.3-0.3L64.5,214.5z"/>
		<path class="st2" d="M66.6,203.9l-2.2,2.1l2.2,2.1l2.2-2.1L66.6,203.9z"/>
		<path class="st2" d="M64,214.9c0.2-0.1,0.4-0.2,0.6-0.3l-0.1-0.1L64,214.9z"/>
		<path class="st2" d="M51.2,201.6c-0.1,0.1-0.1,0.3-0.2,0.4l0.3-0.3L51.2,201.6z"/>
		<path class="st2" d="M66.6,203.9l2.2,2.1l0.6-0.6c-0.1-1.2-0.4-2.3-0.9-3.3L66.6,203.9z"/>
		<path class="st2" d="M64.5,201.8l2.2,2.1l1.9-1.8c-0.3-0.6-0.6-1.1-1-1.6l-0.9-0.9L64.5,201.8z"/>
		<path class="st2" d="M67.5,200.5c-0.2-0.3-0.5-0.6-0.8-0.9l-0.1,0.1L67.5,200.5z"/>
		<path class="st2" d="M69.4,206.6c0-0.1,0-0.2,0-0.3c0-0.3,0-0.5,0-0.8l-0.6,0.6L69.4,206.6z"/>
		<path class="st2" d="M66.6,208.1l2,2c0.5-1.1,0.7-2.3,0.8-3.5l-0.6-0.6L66.6,208.1z"/>
		<path class="st2" d="M53.5,199.6l-0.4-0.4c-0.7,0.7-1.4,1.5-1.9,2.4l0.1,0.1L53.5,199.6z"/>
		<path class="st2" d="M55.7,197.5c-1,0.4-1.9,1-2.6,1.7l0.4,0.4L55.7,197.5z"/>
		<path class="st2" d="M66.7,199.5c-0.4-0.5-0.9-0.9-1.4-1.2L66.7,199.5L66.7,199.5z"/>
		<path class="st2" d="M55.8,197.4C55.8,197.4,55.7,197.4,55.8,197.4l-0.1,0.1L55.8,197.4z"/>
		<path class="st2" d="M62.3,199.6l2.2,2.1l2.2-2.1l-1.3-1.3c-0.3-0.2-0.7-0.5-1-0.6L62.3,199.6z"/>
		<path class="st2" d="M57.9,199.6l2.2-2.1l-0.9-0.9c-1.2,0.1-2.3,0.4-3.4,0.8l-0.1,0.1L57.9,199.6z"/>
		<path class="st2" d="M50,206.2c0,0-4.9,4.6-7.6,4.6s-5-2.2-5-5c0-2.8,2.2-5,5-5S50,206.2,50,206.2z"/>
		<path class="st2" d="M52.4,212.7c0,0.8-1.2,2.5-3.5,2.5c-2.3,0-4.2-1.9-4.2-4.2l5.3-4.8L52.4,212.7z"/>
		<path class="st2" d="M52.4,199.8c0-0.8-1.2-2.5-3.5-2.5c-2.3,0-4.2,1.9-4.2,4.2l5.3,4.8L52.4,199.8z"/>
		<path class="st2" d="M70.1,206.2c0,0,4.9,4.6,7.6,4.6c2.8,0,5-2.2,5-5c0-2.8-2.2-5-5-5C74.9,200.9,70.1,206.2,70.1,206.2z"/>
		<path class="st2" d="M67.7,212.7c0,0.8,1.2,2.5,3.5,2.5s4.2-1.9,4.2-4.2l-5.3-4.8L67.7,212.7z"/>
		<path class="st2" d="M67.7,199.8c0-0.8,1.2-2.5,3.5-2.5s4.2,1.9,4.2,4.2l-5.3,4.8L67.7,199.8z"/>
		<path class="st3" d="M53.1,191.3c1.6,0,2.9-1.3,2.9-2.9c0-1.6-1.3-2.9-2.9-2.9c-1.6,0-2.9,1.3-2.9,2.9
			C50.1,190,51.4,191.3,53.1,191.3z"/>
		<path class="st3" d="M66,191.3c1.6,0,2.9-1.3,2.9-2.9c0-1.6-1.3-2.9-2.9-2.9s-2.9,1.3-2.9,2.9C63.1,190,64.4,191.3,66,191.3z"/>
		<path class="st3" d="M59.6,183.6c2.1,0,3.7-1.7,3.7-3.7c0-2.1-1.7-3.7-3.7-3.7c-2.1,0-3.7,1.7-3.7,3.7
			C55.9,181.9,57.5,183.6,59.6,183.6z"/>
		<path class="st3" d="M59.5,190.8c1.3,0,2.4-1.1,2.4-2.4c0-1.3-1.1-2.4-2.4-2.4c-1.3,0-2.4,1.1-2.4,2.4
			C57.1,189.7,58.2,190.8,59.5,190.8z"/>
		<path class="st2" d="M59.6,195c1.2,0,2.1-0.9,2.1-2.1s-0.9-2.1-2.1-2.1s-2.1,0.9-2.1,2.1S58.4,195,59.6,195z"/>
		<path class="st2" d="M55.9,197.1c1.2,0,2.1-0.9,2.1-2.1c0-1.2-0.9-2.1-2.1-2.1s-2.1,0.9-2.1,2.1C53.8,196.2,54.7,197.1,55.9,197.1
			z"/>
		<path class="st2" d="M63.3,197.1c1.2,0,2.1-0.9,2.1-2.1c0-1.2-0.9-2.1-2.1-2.1c-1.2,0-2.1,0.9-2.1,2.1
			C61.2,196.2,62.2,197.1,63.3,197.1z"/>
		<path class="st4" d="M59.8,220.7c3.1,0,5.6,2.5,5.6,5.6c0,3.1-2.5,5.6-5.6,5.6c-3.1,0-5.6-2.5-5.6-5.6
			C54.2,223.3,56.7,220.7,59.8,220.7z M59.8,218.2c-4.5,0-8.1,3.6-8.1,8.1c0,4.5,3.7,8.1,8.1,8.1c4.5,0,8.1-3.6,8.1-8.1
			C67.9,221.9,64.3,218.2,59.8,218.2z"/>
		<path class="st3" d="M59.8,229.8c1.9,0,3.5-1.6,3.5-3.5c0-1.9-1.6-3.5-3.5-3.5c-1.9,0-3.5,1.6-3.5,3.5
			C56.3,228.2,57.9,229.8,59.8,229.8z"/>
		<path class="st3" d="M54.2,226.3h11.2"/>
		<path class="st2" d="M59.7,215.9v25.3"/>
		<path class="st2" d="M59.7,196.6v-5.8"/>
		<path class="st5" d="M59.5,186v-3"/>
		<path class="st3" d="M59.6,176.1v-75.1"/>
		<path class="st6" d="M73.6,392.1H49.5c-4.2,0-7.7-3.5-7.7-7.7v-7h39.5v7C81.3,388.7,77.9,392.1,73.6,392.1z"/>
		<path class="st6" d="M49.5,238.6h24.1c4.2,0,7.7,3.5,7.7,7.7v7H41.8v-7C41.8,242.1,45.3,238.6,49.5,238.6z"/>
		<path class="st3" d="M73.9,425.5c1.2,0,2.1-0.9,2.1-2.1s-0.9-2.1-2.1-2.1s-2.1,0.9-2.1,2.1S72.8,425.5,73.9,425.5z"/>
		<path class="st3" d="M73.9,431.5c1.2,0,2.1-0.9,2.1-2.1c0-1.2-0.9-2.1-2.1-2.1s-2.1,0.9-2.1,2.1C71.9,430.5,72.8,431.5,73.9,431.5
			z"/>
		<path class="st3" d="M73.9,437.4c1.2,0,2.1-0.9,2.1-2.1s-0.9-2.1-2.1-2.1s-2.1,0.9-2.1,2.1S72.8,437.4,73.9,437.4z"/>
		<path class="st3" d="M73.9,443.3c1.2,0,2.1-0.9,2.1-2.1s-0.9-2.1-2.1-2.1s-2.1,0.9-2.1,2.1S72.8,443.3,73.9,443.3z"/>
		<path class="st3" d="M73.9,449.3c1.2,0,2.1-0.9,2.1-2.1c0-1.2-0.9-2.1-2.1-2.1s-2.1,0.9-2.1,2.1C71.9,448.3,72.8,449.3,73.9,449.3
			z"/>
		<path class="st3" d="M73.9,455.2c1.2,0,2.1-0.9,2.1-2.1s-0.9-2.1-2.1-2.1s-2.1,0.9-2.1,2.1S72.8,455.2,73.9,455.2z"/>
		<path class="st3" d="M73.9,461.1c1.2,0,2.1-0.9,2.1-2.1c0-1.2-0.9-2.1-2.1-2.1s-2.1,0.9-2.1,2.1C71.9,460.2,72.8,461.1,73.9,461.1
			z"/>
		<path class="st3" d="M73.9,467.1c1.2,0,2.1-0.9,2.1-2.1s-0.9-2.1-2.1-2.1s-2.1,0.9-2.1,2.1S72.8,467.1,73.9,467.1z"/>
		<path class="st3" d="M73.9,473c1.2,0,2.1-0.9,2.1-2.1s-0.9-2.1-2.1-2.1s-2.1,0.9-2.1,2.1S72.8,473,73.9,473z"/>
		<path class="st3" d="M73.9,479c1.2,0,2.1-0.9,2.1-2.1c0-1.2-0.9-2.1-2.1-2.1s-2.1,0.9-2.1,2.1C71.9,478,72.8,479,73.9,479z"/>
		<path class="st3" d="M73.9,484.9c1.2,0,2.1-0.9,2.1-2.1s-0.9-2.1-2.1-2.1s-2.1,0.9-2.1,2.1S72.8,484.9,73.9,484.9z"/>
		<path class="st3" d="M73.9,490.9c1.2,0,2.1-0.9,2.1-2.1c0-1.2-0.9-2.1-2.1-2.1s-2.1,0.9-2.1,2.1C71.9,489.9,72.8,490.9,73.9,490.9
			z"/>
		<path class="st3" d="M73.9,496.8c1.2,0,2.1-0.9,2.1-2.1s-0.9-2.1-2.1-2.1s-2.1,0.9-2.1,2.1S72.8,496.8,73.9,496.8z"/>
		<path class="st3" d="M73.9,502.7c1.2,0,2.1-0.9,2.1-2.1c0-1.2-0.9-2.1-2.1-2.1s-2.1,0.9-2.1,2.1C71.9,501.8,72.8,502.7,73.9,502.7
			z"/>
		<path class="st3" d="M73.9,508.7c1.2,0,2.1-0.9,2.1-2.1c0-1.2-0.9-2.1-2.1-2.1s-2.1,0.9-2.1,2.1C71.9,507.7,72.8,508.7,73.9,508.7
			z"/>
		<path class="st3" d="M73.9,514.6c1.2,0,2.1-0.9,2.1-2.1c0-1.2-0.9-2.1-2.1-2.1s-2.1,0.9-2.1,2.1C71.9,513.7,72.8,514.6,73.9,514.6
			z"/>
		<path class="st3" d="M66,425.5c1.2,0,2.1-0.9,2.1-2.1s-0.9-2.1-2.1-2.1c-1.2,0-2.1,0.9-2.1,2.1S64.8,425.5,66,425.5z"/>
		<path class="st3" d="M66,431.5c1.2,0,2.1-0.9,2.1-2.1c0-1.2-0.9-2.1-2.1-2.1c-1.2,0-2.1,0.9-2.1,2.1
			C63.9,430.5,64.8,431.5,66,431.5z"/>
		<path class="st3" d="M66,437.4c1.2,0,2.1-0.9,2.1-2.1s-0.9-2.1-2.1-2.1c-1.2,0-2.1,0.9-2.1,2.1S64.8,437.4,66,437.4z"/>
		<path class="st3" d="M66,443.3c1.2,0,2.1-0.9,2.1-2.1s-0.9-2.1-2.1-2.1c-1.2,0-2.1,0.9-2.1,2.1S64.8,443.3,66,443.3z"/>
		<path class="st3" d="M66,449.3c1.2,0,2.1-0.9,2.1-2.1c0-1.2-0.9-2.1-2.1-2.1c-1.2,0-2.1,0.9-2.1,2.1
			C63.9,448.3,64.8,449.3,66,449.3z"/>
		<path class="st3" d="M66,455.2c1.2,0,2.1-0.9,2.1-2.1S67.1,451,66,451c-1.2,0-2.1,0.9-2.1,2.1S64.8,455.2,66,455.2z"/>
		<path class="st3" d="M66,461.1c1.2,0,2.1-0.9,2.1-2.1c0-1.2-0.9-2.1-2.1-2.1c-1.2,0-2.1,0.9-2.1,2.1
			C63.9,460.2,64.8,461.1,66,461.1z"/>
		<path class="st3" d="M66,467.1c1.2,0,2.1-0.9,2.1-2.1s-0.9-2.1-2.1-2.1c-1.2,0-2.1,0.9-2.1,2.1S64.8,467.1,66,467.1z"/>
		<path class="st3" d="M66,473c1.2,0,2.1-0.9,2.1-2.1s-0.9-2.1-2.1-2.1c-1.2,0-2.1,0.9-2.1,2.1S64.8,473,66,473z"/>
		<path class="st3" d="M66,479c1.2,0,2.1-0.9,2.1-2.1c0-1.2-0.9-2.1-2.1-2.1c-1.2,0-2.1,0.9-2.1,2.1C63.9,478,64.8,479,66,479z"/>
		<path class="st3" d="M66,484.9c1.2,0,2.1-0.9,2.1-2.1s-0.9-2.1-2.1-2.1c-1.2,0-2.1,0.9-2.1,2.1S64.8,484.9,66,484.9z"/>
		<path class="st3" d="M66,490.9c1.2,0,2.1-0.9,2.1-2.1c0-1.2-0.9-2.1-2.1-2.1c-1.2,0-2.1,0.9-2.1,2.1
			C63.9,489.9,64.8,490.9,66,490.9z"/>
		<path class="st3" d="M66,496.8c1.2,0,2.1-0.9,2.1-2.1s-0.9-2.1-2.1-2.1c-1.2,0-2.1,0.9-2.1,2.1S64.8,496.8,66,496.8z"/>
		<path class="st3" d="M66,502.7c1.2,0,2.1-0.9,2.1-2.1c0-1.2-0.9-2.1-2.1-2.1c-1.2,0-2.1,0.9-2.1,2.1
			C63.9,501.8,64.8,502.7,66,502.7z"/>
		<path class="st3" d="M66,508.7c1.2,0,2.1-0.9,2.1-2.1c0-1.2-0.9-2.1-2.1-2.1c-1.2,0-2.1,0.9-2.1,2.1
			C63.9,507.7,64.8,508.7,66,508.7z"/>
		<path class="st3" d="M66,514.6c1.2,0,2.1-0.9,2.1-2.1c0-1.2-0.9-2.1-2.1-2.1c-1.2,0-2.1,0.9-2.1,2.1
			C63.9,513.7,64.8,514.6,66,514.6z"/>
		<path class="st3" d="M58,425.5c1.2,0,2.1-0.9,2.1-2.1s-0.9-2.1-2.1-2.1c-1.2,0-2.1,0.9-2.1,2.1S56.9,425.5,58,425.5z"/>
		<path class="st3" d="M58,431.5c1.2,0,2.1-0.9,2.1-2.1c0-1.2-0.9-2.1-2.1-2.1c-1.2,0-2.1,0.9-2.1,2.1
			C55.9,430.5,56.9,431.5,58,431.5z"/>
		<path class="st3" d="M58,437.4c1.2,0,2.1-0.9,2.1-2.1s-0.9-2.1-2.1-2.1c-1.2,0-2.1,0.9-2.1,2.1S56.9,437.4,58,437.4z"/>
		<path class="st3" d="M58,443.3c1.2,0,2.1-0.9,2.1-2.1s-0.9-2.1-2.1-2.1c-1.2,0-2.1,0.9-2.1,2.1S56.9,443.3,58,443.3z"/>
		<path class="st3" d="M58,449.3c1.2,0,2.1-0.9,2.1-2.1c0-1.2-0.9-2.1-2.1-2.1c-1.2,0-2.1,0.9-2.1,2.1
			C55.9,448.3,56.9,449.3,58,449.3z"/>
		<path class="st3" d="M58,455.2c1.2,0,2.1-0.9,2.1-2.1S59.2,451,58,451c-1.2,0-2.1,0.9-2.1,2.1S56.9,455.2,58,455.2z"/>
		<path class="st3" d="M58,461.1c1.2,0,2.1-0.9,2.1-2.1c0-1.2-0.9-2.1-2.1-2.1c-1.2,0-2.1,0.9-2.1,2.1
			C55.9,460.2,56.9,461.1,58,461.1z"/>
		<path class="st3" d="M58,467.1c1.2,0,2.1-0.9,2.1-2.1s-0.9-2.1-2.1-2.1c-1.2,0-2.1,0.9-2.1,2.1S56.9,467.1,58,467.1z"/>
		<path class="st3" d="M58,473c1.2,0,2.1-0.9,2.1-2.1s-0.9-2.1-2.1-2.1c-1.2,0-2.1,0.9-2.1,2.1S56.9,473,58,473z"/>
		<path class="st3" d="M58,479c1.2,0,2.1-0.9,2.1-2.1c0-1.2-0.9-2.1-2.1-2.1c-1.2,0-2.1,0.9-2.1,2.1C55.9,478,56.9,479,58,479z"/>
		<path class="st3" d="M58,484.9c1.2,0,2.1-0.9,2.1-2.1s-0.9-2.1-2.1-2.1c-1.2,0-2.1,0.9-2.1,2.1S56.9,484.9,58,484.9z"/>
		<path class="st3" d="M58,490.9c1.2,0,2.1-0.9,2.1-2.1c0-1.2-0.9-2.1-2.1-2.1c-1.2,0-2.1,0.9-2.1,2.1
			C55.9,489.9,56.9,490.9,58,490.9z"/>
		<path class="st3" d="M58,496.8c1.2,0,2.1-0.9,2.1-2.1s-0.9-2.1-2.1-2.1c-1.2,0-2.1,0.9-2.1,2.1S56.9,496.8,58,496.8z"/>
		<path class="st3" d="M58,502.7c1.2,0,2.1-0.9,2.1-2.1c0-1.2-0.9-2.1-2.1-2.1c-1.2,0-2.1,0.9-2.1,2.1
			C55.9,501.8,56.9,502.7,58,502.7z"/>
		<path class="st3" d="M58,508.7c1.2,0,2.1-0.9,2.1-2.1c0-1.2-0.9-2.1-2.1-2.1c-1.2,0-2.1,0.9-2.1,2.1
			C55.9,507.7,56.9,508.7,58,508.7z"/>
		<path class="st3" d="M58,514.6c1.2,0,2.1-0.9,2.1-2.1c0-1.2-0.9-2.1-2.1-2.1c-1.2,0-2.1,0.9-2.1,2.1
			C55.9,513.7,56.9,514.6,58,514.6z"/>
		<path class="st3" d="M50,425.5c1.2,0,2.1-0.9,2.1-2.1s-0.9-2.1-2.1-2.1c-1.2,0-2.1,0.9-2.1,2.1S48.9,425.5,50,425.5z"/>
		<path class="st3" d="M50,431.5c1.2,0,2.1-0.9,2.1-2.1c0-1.2-0.9-2.1-2.1-2.1c-1.2,0-2.1,0.9-2.1,2.1C48,430.5,48.9,431.5,50,431.5
			z"/>
		<path class="st3" d="M50,437.4c1.2,0,2.1-0.9,2.1-2.1s-0.9-2.1-2.1-2.1c-1.2,0-2.1,0.9-2.1,2.1S48.9,437.4,50,437.4z"/>
		<path class="st3" d="M50,443.3c1.2,0,2.1-0.9,2.1-2.1s-0.9-2.1-2.1-2.1c-1.2,0-2.1,0.9-2.1,2.1S48.9,443.3,50,443.3z"/>
		<path class="st3" d="M50,449.3c1.2,0,2.1-0.9,2.1-2.1c0-1.2-0.9-2.1-2.1-2.1c-1.2,0-2.1,0.9-2.1,2.1C48,448.3,48.9,449.3,50,449.3
			z"/>
		<path class="st3" d="M50,455.2c1.2,0,2.1-0.9,2.1-2.1S51.2,451,50,451c-1.2,0-2.1,0.9-2.1,2.1S48.9,455.2,50,455.2z"/>
		<path class="st3" d="M50,461.1c1.2,0,2.1-0.9,2.1-2.1c0-1.2-0.9-2.1-2.1-2.1c-1.2,0-2.1,0.9-2.1,2.1C48,460.2,48.9,461.1,50,461.1
			z"/>
		<path class="st3" d="M50,467.1c1.2,0,2.1-0.9,2.1-2.1s-0.9-2.1-2.1-2.1c-1.2,0-2.1,0.9-2.1,2.1S48.9,467.1,50,467.1z"/>
		<path class="st3" d="M50,473c1.2,0,2.1-0.9,2.1-2.1s-0.9-2.1-2.1-2.1c-1.2,0-2.1,0.9-2.1,2.1S48.9,473,50,473z"/>
		<path class="st3" d="M50,479c1.2,0,2.1-0.9,2.1-2.1c0-1.2-0.9-2.1-2.1-2.1c-1.2,0-2.1,0.9-2.1,2.1C48,478,48.9,479,50,479z"/>
		<path class="st3" d="M50,484.9c1.2,0,2.1-0.9,2.1-2.1s-0.9-2.1-2.1-2.1c-1.2,0-2.1,0.9-2.1,2.1S48.9,484.9,50,484.9z"/>
		<path class="st3" d="M50,490.9c1.2,0,2.1-0.9,2.1-2.1c0-1.2-0.9-2.1-2.1-2.1c-1.2,0-2.1,0.9-2.1,2.1C48,489.9,48.9,490.9,50,490.9
			z"/>
		<path class="st3" d="M50,496.8c1.2,0,2.1-0.9,2.1-2.1s-0.9-2.1-2.1-2.1c-1.2,0-2.1,0.9-2.1,2.1S48.9,496.8,50,496.8z"/>
		<path class="st3" d="M50,502.7c1.2,0,2.1-0.9,2.1-2.1c0-1.2-0.9-2.1-2.1-2.1c-1.2,0-2.1,0.9-2.1,2.1C48,501.8,48.9,502.7,50,502.7
			z"/>
		<path class="st3" d="M50,508.7c1.2,0,2.1-0.9,2.1-2.1c0-1.2-0.9-2.1-2.1-2.1c-1.2,0-2.1,0.9-2.1,2.1C48,507.7,48.9,508.7,50,508.7
			z"/>
		<path class="st3" d="M50,514.6c1.2,0,2.1-0.9,2.1-2.1c0-1.2-0.9-2.1-2.1-2.1c-1.2,0-2.1,0.9-2.1,2.1C48,513.7,48.9,514.6,50,514.6
			z"/>
		<path class="st7" d="M121.6,315c0,2.3-0.1,4.5-0.3,6.8c-0.2,2.3,0.7,4.7,0.3,6.9c-0.4,2.3-1.3,4.4-1.8,6.6
			c-0.5,2.3-1.1,4.4-1.8,6.6c-0.6,2.2-1.9,4.2-2.8,6.2c-0.9,2.1-1.3,4.4-2.4,6.4c-1.1,2-2.4,3.9-3.8,5.7c-1.4,1.8-3.1,3.4-4.6,5
			c-1.6,1.6-3.6,2.8-5.3,4.2c-1.8,1.4-3.3,3.1-5.3,4.3c-1.9,1.2-4,2-6.1,3c-2.1,0.9-4.1,1.7-6.4,2.3c-2.1,0.6-4.3,1-6.6,1.3
			c-2.2,0.3-4.4,1.6-6.7,1.7c-2.2,0.1-4.5-1.1-6.9-1.1c-2.3,0-4.6,0.3-6.7,0.1c-2.3-0.2-4.6-0.2-6.7-0.6c-2.3-0.4-4.4-1.3-6.5-1.9
			c-2.2-0.7-4.6-0.8-6.6-1.7c-2.1-0.9-3.6-2.9-5.5-4c-1.9-1.2-4-2.2-5.7-3.5c-1.8-1.4-3.9-2.5-5.5-4c-1.7-1.6-2.4-3.9-3.9-5.6
			c-1.4-1.7-3.4-3.1-4.5-5.1c-1.1-2-2.1-4-2.9-6.2c-0.8-2.1-0.8-4.5-1.4-6.7c-0.6-2.2-1-4.3-1.5-6.6c-0.5-2.2-1.4-4.3-1.7-6.5
			c-0.3-2.2,0.1-4.5,0-6.8c-0.1-2.2-0.2-4.4-0.2-6.7c0-2.3-0.5-4.6-0.4-6.8c0.1-2.3-0.1-4.6,0.2-6.8c0.2-2.3,0.7-4.5,1.2-6.7
			c0.5-2.3,1.3-4.4,2-6.5c0.7-2.2,0.9-4.5,1.8-6.6c0.9-2.1,2.9-3.7,4-5.6c1.1-2,2-4,3.4-5.9c1.4-1.8,3.2-3.2,4.7-4.8
			c1.6-1.6,2.5-3.9,4.3-5.3c1.8-1.4,4.1-1.9,6.1-3.1c1.8-1.2,3.7-2.5,5.8-3.4c2.1-0.9,4.1-1.7,6.4-2.3c2.1-0.6,4.3-1.4,6.6-1.9
			c2.2-0.5,4.4-1.2,6.7-1.5c2.2-0.3,4.5-0.1,6.9-0.1c2.4,0,4.6,0.2,6.8,0.4c2.3,0.2,4.6,0.5,6.8,0.9c2.3,0.5,4.4,1.5,6.5,2.1
			c2.2,0.7,4.3,1.6,6.3,2.5c2.2,0.9,4.4,1.3,6.4,2.4c2,1.2,3.7,2.7,5.5,4.1c1.8,1.4,3.8,2.7,5.3,4.3c1.5,1.7,3.2,3.4,4.4,5.2
			c1.3,1.9,1.8,4.2,2.9,6.2c1.1,2,2.8,3.7,3.7,5.8c0.8,2.1,1.5,4.3,2.1,6.5c0.6,2.1,1.2,4.3,1.7,6.6c0.5,2.2,0.8,4.4,1.2,6.7
			c0.4,2.2,0.1,4.5,0.4,6.8C121.8,310.5,121.6,312.7,121.6,315z"/>
		<path class="st3" d="M121.6,315c0,2.3-0.1,4.5-0.3,6.8c-0.2,2.3,0.7,4.7,0.3,6.9c-0.4,2.3-1.3,4.4-1.8,6.6
			c-0.5,2.3-1.1,4.4-1.8,6.6c-0.6,2.2-1.9,4.2-2.8,6.2c-0.9,2.1-1.3,4.4-2.4,6.4c-1.1,2-2.4,3.9-3.8,5.7c-1.4,1.8-3.1,3.4-4.6,5
			c-1.6,1.6-3.6,2.8-5.3,4.2c-1.8,1.4-3.3,3.1-5.3,4.3c-1.9,1.2-4,2-6.1,3c-2.1,0.9-4.1,1.7-6.4,2.3c-2.1,0.6-4.3,1-6.6,1.3
			c-2.2,0.3-4.4,1.6-6.7,1.7c-2.2,0.1-4.5-1.1-6.9-1.1c-2.3,0-4.6,0.3-6.7,0.1c-2.3-0.2-4.6-0.2-6.7-0.6c-2.3-0.4-4.4-1.3-6.5-1.9
			c-2.2-0.7-4.6-0.8-6.6-1.7c-2.1-0.9-3.6-2.9-5.5-4c-1.9-1.2-4-2.2-5.7-3.5c-1.8-1.4-3.9-2.5-5.5-4c-1.7-1.6-2.4-3.9-3.9-5.6
			c-1.4-1.7-3.4-3.1-4.5-5.1c-1.1-2-2.1-4-2.9-6.2c-0.8-2.1-0.8-4.5-1.4-6.7c-0.6-2.2-1-4.3-1.5-6.6c-0.5-2.2-1.4-4.3-1.7-6.5
			c-0.3-2.2,0.1-4.5,0-6.8c-0.1-2.2-0.2-4.4-0.2-6.7c0-2.3-0.5-4.6-0.4-6.8c0.1-2.3-0.1-4.6,0.2-6.8c0.2-2.3,0.7-4.5,1.2-6.7
			c0.5-2.3,1.3-4.4,2-6.5c0.7-2.2,0.9-4.5,1.8-6.6c0.9-2.1,2.9-3.7,4-5.6c1.1-2,2-4,3.4-5.9c1.4-1.8,3.2-3.2,4.7-4.8
			c1.6-1.6,2.5-3.9,4.3-5.3c1.8-1.4,4.1-1.9,6.1-3.1c1.8-1.2,3.7-2.5,5.8-3.4c2.1-0.9,4.1-1.7,6.4-2.3c2.1-0.6,4.3-1.4,6.6-1.9
			c2.2-0.5,4.4-1.2,6.7-1.5c2.2-0.3,4.5-0.1,6.9-0.1c2.4,0,4.6,0.2,6.8,0.4c2.3,0.2,4.6,0.5,6.8,0.9c2.3,0.5,4.4,1.5,6.5,2.1
			c2.2,0.7,4.3,1.6,6.3,2.5c2.2,0.9,4.4,1.3,6.4,2.4c2,1.2,3.7,2.7,5.5,4.1c1.8,1.4,3.8,2.7,5.3,4.3c1.5,1.7,3.2,3.4,4.4,5.2
			c1.3,1.9,1.8,4.2,2.9,6.2c1.1,2,2.8,3.7,3.7,5.8c0.8,2.1,1.5,4.3,2.1,6.5c0.6,2.1,1.2,4.3,1.7,6.6c0.5,2.2,0.8,4.4,1.2,6.7
			c0.4,2.2,0.1,4.5,0.4,6.8C121.8,310.5,121.6,312.7,121.6,315z"/>
	</g>
	<path class="st0" d="M164.1,127.5c0,0-22,10.9-40.1-11.8c0,0-13.8,3.8-24.2-5.7c0,0-0.7,10.2-10.9,5.7c-6.3-3.2-5.9-12.9-10.2-15.4
		c-4.3-2.5-14.7,5.8-29.9-3.1c-8.2-4.2-9.9-13-10.2-17.8h125.5V127.5z"/>
	<g>
		<path class="st1" d="M1461.8,408.9v-34.3h33.3v34.3c0,4.8-3.9,8.7-8.7,8.7h-15.9C1465.7,417.6,1461.8,413.7,1461.8,408.9z"/>
		<path class="st2" d="M1490.2,206.2c0-5.3-4.3-9.7-9.7-9.7c-5.4,0-9.7,4.3-9.7,9.7s4.3,9.7,9.7,9.7
			C1485.9,215.9,1490.2,211.6,1490.2,206.2z"/>
		<path class="st2" d="M1478,212.4l-2.2-2.1l-2.2,2.1l2.2,2.1L1478,212.4z"/>
		<path class="st2" d="M1475.8,206l-2.2,2.1l2.2,2.1l2.2-2.1L1475.8,206z"/>
		<path class="st2" d="M1484.5,206l2.2,2.1l2.2-2.1l-2.2-2.1L1484.5,206z"/>
		<path class="st2" d="M1484.5,210.3l2.2-2.1l-2.2-2.1l-2.2,2.1L1484.5,210.3z"/>
		<path class="st2" d="M1480.2,210.3l2.2,2.1l2.2-2.1l-2.2-2.1L1480.2,210.3z"/>
		<path class="st2" d="M1484.5,206l2.2-2.1l-2.2-2.1l-2.2,2.1L1484.5,206z"/>
		<path class="st2" d="M1478,208.1l-2.2,2.1l2.2,2.1l2.2-2.1L1478,208.1z"/>
		<path class="st2" d="M1484.5,210.3l2.2,2.1l2.2-2.1l-2.2-2.1L1484.5,210.3z"/>
		<path class="st2" d="M1484.5,210.3l-2.2,2.1l2.2,2.1l2.2-2.1L1484.5,210.3z"/>
		<path class="st2" d="M1480.2,210.3l-2.2,2.1l2.2,2.1l2.2-2.1L1480.2,210.3z"/>
		<path class="st2" d="M1478,203.9l-2.2-2.1l-2.2,2.1l2.2,2.1L1478,203.9z"/>
		<path class="st2" d="M1478,199.6l2.2-2.1l-0.9-0.8c-1.2,0.1-2.3,0.5-3.3,1L1478,199.6z"/>
		<path class="st2" d="M1478,203.9l-2.2,2.1l2.2,2.1l2.2-2.1L1478,203.9z"/>
		<path class="st2" d="M1484.5,201.8l2.2,2.1l2.2-2.1l-2.2-2.1L1484.5,201.8z"/>
		<path class="st2" d="M1480.2,206l2.2-2.1l-2.2-2.1l-2.2,2.1L1480.2,206z"/>
		<path class="st2" d="M1480.2,206l2.2,2.1l2.2-2.1l-2.2-2.1L1480.2,206z"/>
		<path class="st2" d="M1479.3,196.7l0.9,0.8l0.9-0.9c-0.2,0-0.4,0-0.6,0C1480.1,196.6,1479.7,196.6,1479.3,196.7z"/>
		<path class="st2" d="M1480.2,206l-2.2,2.1l2.2,2.1l2.2-2.1L1480.2,206z"/>
		<path class="st2" d="M1484.5,201.8l-2.2-2.1l-2.2,2.1l2.2,2.1L1484.5,201.8z"/>
		<path class="st2" d="M1480.2,201.8l2.2-2.1l-2.2-2.1l-2.2,2.1L1480.2,201.8z"/>
		<path class="st2" d="M1484.5,201.8l2.2-2.1l-2.2-2.1l-2.2,2.1L1484.5,201.8z"/>
		<path class="st2" d="M1481.6,215.9l-1.4-1.4l-1.3,1.3c0.5,0.1,1.1,0.2,1.6,0.2C1480.9,215.9,1481.2,215.9,1481.6,215.9z"/>
		<path class="st2" d="M1490.1,204.8l-1.1,1.2l1.2,1.2c0-0.3,0-0.6,0-1C1490.2,205.8,1490.1,205.3,1490.1,204.8z"/>
		<path class="st2" d="M1480.2,201.8l-2.2-2.1l-2.2,2.1l2.2,2.1L1480.2,201.8z"/>
		<path class="st2" d="M1488.9,210.2l0.7-0.7c0.3-0.7,0.5-1.5,0.6-2.4l-1.2-1.2l-2.2,2.1L1488.9,210.2z"/>
		<path class="st2" d="M1481.6,215.9c0.7-0.1,1.4-0.2,2-0.5l0.9-0.9l-2.2-2.1l-2.2,2.1L1481.6,215.9z"/>
		<path class="st2" d="M1484.6,214.5l-0.9,0.9c0.4-0.2,0.9-0.4,1.3-0.6L1484.6,214.5z"/>
		<path class="st2" d="M1490.1,204.9c-0.1-1-0.4-1.9-0.8-2.8l-0.3-0.3l-2.2,2.1l2.2,2.1L1490.1,204.9z"/>
		<path class="st2" d="M1488.9,210.3l0.3,0.3c0.1-0.3,0.3-0.6,0.4-1L1488.9,210.3z"/>
		<path class="st2" d="M1475.8,214.5l0.4,0.4c0.8,0.4,1.7,0.7,2.6,0.9l1.3-1.3l-2.2-2.1L1475.8,214.5z"/>
		<path class="st2" d="M1473.6,212.4l-1.7-1.7c0.4,0.7,0.8,1.4,1.4,2L1473.6,212.4z"/>
		<path class="st2" d="M1471.7,210.1c0.1,0.2,0.2,0.4,0.3,0.6l1.7,1.7l2.2-2.1l-2.2-2.1L1471.7,210.1z"/>
		<path class="st2" d="M1473.6,212.4l-0.3,0.3c0.7,0.8,1.5,1.4,2.4,1.9l0.1-0.1L1473.6,212.4z"/>
		<path class="st2" d="M1471.5,206l2.2,2.1l2.2-2.1l-2.2-2.1L1471.5,206z"/>
		<path class="st2" d="M1475.8,214.5l-0.1,0.1c0.2,0.1,0.4,0.2,0.6,0.3L1475.8,214.5z"/>
		<path class="st2" d="M1488.9,201.7l0.3,0.3c-0.1-0.1-0.1-0.3-0.2-0.4L1488.9,201.7z"/>
		<path class="st2" d="M1471.8,202.1c-0.5,1-0.8,2.2-0.9,3.3l0.6,0.6l2.2-2.1L1471.8,202.1z"/>
		<path class="st2" d="M1473.6,199.6l-0.9,0.9c-0.4,0.5-0.7,1-1,1.6l1.9,1.8l2.2-2.1L1473.6,199.6z"/>
		<path class="st2" d="M1473.6,199.7L1473.6,199.7c-0.4,0.2-0.7,0.5-0.9,0.8L1473.6,199.7z"/>
		<path class="st2" d="M1471.4,206l-0.6-0.6c0,0.3,0,0.5,0,0.8c0,0.1,0,0.2,0,0.3L1471.4,206z"/>
		<path class="st2" d="M1471.5,206l-0.6,0.6c0,1.2,0.3,2.4,0.8,3.5l2-2L1471.5,206z"/>
		<path class="st2" d="M1488.9,201.8l0.1-0.1c-0.5-0.9-1.2-1.7-1.9-2.4l-0.4,0.4L1488.9,201.8z"/>
		<path class="st2" d="M1486.7,199.6l0.4-0.4c-0.8-0.7-1.6-1.3-2.6-1.7L1486.7,199.6z"/>
		<path class="st2" d="M1473.6,199.6l1.3-1.3C1474.4,198.7,1474,199.1,1473.6,199.6L1473.6,199.6z"/>
		<path class="st2" d="M1484.5,197.5L1484.5,197.5c0-0.1,0-0.1-0.1-0.1L1484.5,197.5z"/>
		<path class="st2" d="M1476,197.7c-0.3,0.2-0.7,0.4-1,0.6l-1.3,1.3l2.2,2.1l2.2-2.1L1476,197.7z"/>
		<path class="st2" d="M1484.6,197.5L1484.6,197.5c-1.1-0.5-2.3-0.8-3.5-0.9l-0.9,0.9l2.2,2.1L1484.6,197.5z"/>
		<path class="st2" d="M1497.9,200.9c2.8,0,5,2.2,5,5c0,2.8-2.2,5-5,5s-7.6-4.6-7.6-4.6S1495.1,200.9,1497.9,200.9z"/>
		<path class="st2" d="M1490.2,206.2l5.3,4.8c0,2.3-1.9,4.2-4.2,4.2c-2.3,0-3.5-1.7-3.5-2.5L1490.2,206.2z"/>
		<path class="st2" d="M1490.2,206.3l5.3-4.8c0-2.3-1.9-4.2-4.2-4.2c-2.3,0-3.5,1.7-3.5,2.5L1490.2,206.3z"/>
		<path class="st2" d="M1462.6,200.9c-2.8,0-5,2.2-5,5c0,2.8,2.2,5,5,5s7.6-4.6,7.6-4.6S1465.3,200.9,1462.6,200.9z"/>
		<path class="st2" d="M1470.2,206.2l-5.3,4.8c0,2.3,1.9,4.2,4.2,4.2c2.3,0,3.5-1.7,3.5-2.5L1470.2,206.2z"/>
		<path class="st2" d="M1470.2,206.3l-5.3-4.8c0-2.3,1.9-4.2,4.2-4.2c2.3,0,3.5,1.7,3.5,2.5L1470.2,206.3z"/>
		<path class="st3" d="M1490.1,188.4c0-1.6-1.3-2.9-2.9-2.9c-1.6,0-2.9,1.3-2.9,2.9c0,1.6,1.3,2.9,2.9,2.9
			C1488.8,191.3,1490.1,190,1490.1,188.4z"/>
		<path class="st3" d="M1477.2,188.4c0-1.6-1.3-2.9-2.9-2.9c-1.6,0-2.9,1.3-2.9,2.9c0,1.6,1.3,2.9,2.9,2.9
			C1475.9,191.3,1477.2,190,1477.2,188.4z"/>
		<path class="st3" d="M1484.4,179.8c0-2.1-1.7-3.7-3.7-3.7c-2.1,0-3.7,1.7-3.7,3.7c0,2.1,1.7,3.7,3.7,3.7
			C1482.7,183.6,1484.4,181.9,1484.4,179.8z"/>
		<path class="st3" d="M1483.1,188.4c0-1.3-1.1-2.4-2.4-2.4s-2.4,1.1-2.4,2.4c0,1.3,1.1,2.4,2.4,2.4S1483.1,189.7,1483.1,188.4z"/>
		<path class="st2" d="M1482.7,192.9c0-1.2-0.9-2.1-2.1-2.1c-1.2,0-2.1,0.9-2.1,2.1s0.9,2.1,2.1,2.1
			C1481.8,195,1482.7,194.1,1482.7,192.9z"/>
		<path class="st2" d="M1486.5,195c0-1.2-0.9-2.1-2.1-2.1c-1.2,0-2.1,0.9-2.1,2.1c0,1.2,0.9,2.1,2.1,2.1
			C1485.5,197.1,1486.5,196.2,1486.5,195z"/>
		<path class="st2" d="M1479,195c0-1.2-0.9-2.1-2.1-2.1s-2.1,0.9-2.1,2.1c0,1.2,0.9,2.1,2.1,2.1S1479,196.2,1479,195z"/>
		<path class="st4" d="M1486,226.3c0,3.1-2.5,5.6-5.6,5.6c-3.1,0-5.6-2.5-5.6-5.6c0-3.1,2.5-5.6,5.6-5.6
			C1483.5,220.7,1486,223.3,1486,226.3z M1472.4,226.3c0,4.4,3.6,8.1,8.1,8.1c4.4,0,8.1-3.6,8.1-8.1c0-4.4-3.6-8.1-8.1-8.1
			S1472.4,221.9,1472.4,226.3z"/>
		<path class="st3" d="M1483.9,226.3c0-1.9-1.6-3.5-3.5-3.5c-1.9,0-3.5,1.6-3.5,3.5c0,1.9,1.6,3.5,3.5,3.5
			C1482.4,229.8,1483.9,228.2,1483.9,226.3z"/>
		<path class="st3" d="M1474.9,226.3h11.2"/>
		<path class="st2" d="M1480.5,241.2v-25.3"/>
		<path class="st2" d="M1480.5,190.8v5.8"/>
		<path class="st5" d="M1480.7,183v3"/>
		<path class="st3" d="M1480.7,101.1v75.1"/>
		<path class="st6" d="M1458.9,384.5v-7h39.5v7c0,4.2-3.4,7.7-7.7,7.7h-24.1C1462.4,392.1,1458.9,388.7,1458.9,384.5z"/>
		<path class="st6" d="M1498.4,246.3v7H1459v-7c0-4.2,3.4-7.7,7.7-7.7h24.1C1495,238.6,1498.4,242.1,1498.4,246.3z"/>
		<path class="st3" d="M1468.4,423.4c0-1.2-0.9-2.1-2.1-2.1c-1.2,0-2.1,0.9-2.1,2.1s0.9,2.1,2.1,2.1
			C1467.5,425.5,1468.4,424.6,1468.4,423.4z"/>
		<path class="st3" d="M1468.4,429.4c0-1.2-0.9-2.1-2.1-2.1c-1.2,0-2.1,0.9-2.1,2.1c0,1.2,0.9,2.1,2.1,2.1
			C1467.5,431.5,1468.4,430.5,1468.4,429.4z"/>
		<path class="st3" d="M1468.4,435.3c0-1.2-0.9-2.1-2.1-2.1c-1.2,0-2.1,0.9-2.1,2.1s0.9,2.1,2.1,2.1
			C1467.5,437.4,1468.4,436.5,1468.4,435.3z"/>
		<path class="st3" d="M1468.4,441.2c0-1.2-0.9-2.1-2.1-2.1c-1.2,0-2.1,0.9-2.1,2.1s0.9,2.1,2.1,2.1
			C1467.5,443.3,1468.4,442.4,1468.4,441.2z"/>
		<path class="st3" d="M1468.4,447.2c0-1.2-0.9-2.1-2.1-2.1c-1.2,0-2.1,0.9-2.1,2.1c0,1.2,0.9,2.1,2.1,2.1
			C1467.5,449.3,1468.4,448.3,1468.4,447.2z"/>
		<path class="st3" d="M1468.4,453.1c0-1.2-0.9-2.1-2.1-2.1c-1.2,0-2.1,0.9-2.1,2.1s0.9,2.1,2.1,2.1
			C1467.5,455.2,1468.4,454.3,1468.4,453.1z"/>
		<path class="st3" d="M1468.4,459c0-1.2-0.9-2.1-2.1-2.1c-1.2,0-2.1,0.9-2.1,2.1c0,1.2,0.9,2.1,2.1,2.1
			C1467.5,461.1,1468.4,460.2,1468.4,459z"/>
		<path class="st3" d="M1468.4,465c0-1.2-0.9-2.1-2.1-2.1c-1.2,0-2.1,0.9-2.1,2.1s0.9,2.1,2.1,2.1
			C1467.5,467.1,1468.4,466.1,1468.4,465z"/>
		<path class="st3" d="M1468.4,471c0-1.2-0.9-2.1-2.1-2.1c-1.2,0-2.1,0.9-2.1,2.1s0.9,2.1,2.1,2.1
			C1467.5,473,1468.4,472.1,1468.4,471z"/>
		<path class="st3" d="M1468.4,476.9c0-1.2-0.9-2.1-2.1-2.1c-1.2,0-2.1,0.9-2.1,2.1c0,1.2,0.9,2.1,2.1,2.1
			C1467.5,479,1468.4,478,1468.4,476.9z"/>
		<path class="st3" d="M1468.4,482.8c0-1.2-0.9-2.1-2.1-2.1c-1.2,0-2.1,0.9-2.1,2.1s0.9,2.1,2.1,2.1
			C1467.5,484.9,1468.4,484,1468.4,482.8z"/>
		<path class="st3" d="M1468.4,488.8c0-1.2-0.9-2.1-2.1-2.1c-1.2,0-2.1,0.9-2.1,2.1c0,1.2,0.9,2.1,2.1,2.1
			C1467.5,490.9,1468.4,489.9,1468.4,488.8z"/>
		<path class="st3" d="M1468.4,494.7c0-1.2-0.9-2.1-2.1-2.1c-1.2,0-2.1,0.9-2.1,2.1s0.9,2.1,2.1,2.1
			C1467.5,496.8,1468.4,495.9,1468.4,494.7z"/>
		<path class="st3" d="M1468.4,500.6c0-1.2-0.9-2.1-2.1-2.1c-1.2,0-2.1,0.9-2.1,2.1c0,1.2,0.9,2.1,2.1,2.1
			C1467.5,502.7,1468.4,501.8,1468.4,500.6z"/>
		<path class="st3" d="M1468.4,506.6c0-1.2-0.9-2.1-2.1-2.1c-1.2,0-2.1,0.9-2.1,2.1c0,1.2,0.9,2.1,2.1,2.1
			C1467.5,508.7,1468.4,507.7,1468.4,506.6z"/>
		<path class="st3" d="M1468.4,512.5c0-1.2-0.9-2.1-2.1-2.1c-1.2,0-2.1,0.9-2.1,2.1c0,1.2,0.9,2.1,2.1,2.1
			C1467.5,514.6,1468.4,513.7,1468.4,512.5z"/>
		<path class="st3" d="M1476.4,423.4c0-1.2-0.9-2.1-2.1-2.1c-1.2,0-2.1,0.9-2.1,2.1s0.9,2.1,2.1,2.1
			C1475.4,425.5,1476.4,424.6,1476.4,423.4z"/>
		<path class="st3" d="M1476.4,429.4c0-1.2-0.9-2.1-2.1-2.1c-1.2,0-2.1,0.9-2.1,2.1c0,1.2,0.9,2.1,2.1,2.1
			C1475.4,431.5,1476.4,430.5,1476.4,429.4z"/>
		<path class="st3" d="M1476.4,435.3c0-1.2-0.9-2.1-2.1-2.1c-1.2,0-2.1,0.9-2.1,2.1s0.9,2.1,2.1,2.1
			C1475.4,437.4,1476.4,436.5,1476.4,435.3z"/>
		<path class="st3" d="M1476.4,441.2c0-1.2-0.9-2.1-2.1-2.1c-1.2,0-2.1,0.9-2.1,2.1s0.9,2.1,2.1,2.1
			C1475.4,443.3,1476.4,442.4,1476.4,441.2z"/>
		<path class="st3" d="M1476.4,447.2c0-1.2-0.9-2.1-2.1-2.1c-1.2,0-2.1,0.9-2.1,2.1c0,1.2,0.9,2.1,2.1,2.1
			C1475.4,449.3,1476.4,448.3,1476.4,447.2z"/>
		<path class="st3" d="M1476.4,453.1c0-1.2-0.9-2.1-2.1-2.1c-1.2,0-2.1,0.9-2.1,2.1s0.9,2.1,2.1,2.1
			C1475.4,455.2,1476.4,454.3,1476.4,453.1z"/>
		<path class="st3" d="M1476.4,459c0-1.2-0.9-2.1-2.1-2.1c-1.2,0-2.1,0.9-2.1,2.1c0,1.2,0.9,2.1,2.1,2.1
			C1475.4,461.1,1476.4,460.2,1476.4,459z"/>
		<path class="st3" d="M1476.4,465c0-1.2-0.9-2.1-2.1-2.1c-1.2,0-2.1,0.9-2.1,2.1s0.9,2.1,2.1,2.1
			C1475.4,467.1,1476.4,466.1,1476.4,465z"/>
		<path class="st3" d="M1476.4,471c0-1.2-0.9-2.1-2.1-2.1c-1.2,0-2.1,0.9-2.1,2.1s0.9,2.1,2.1,2.1
			C1475.4,473,1476.4,472.1,1476.4,471z"/>
		<path class="st3" d="M1476.4,476.9c0-1.2-0.9-2.1-2.1-2.1c-1.2,0-2.1,0.9-2.1,2.1c0,1.2,0.9,2.1,2.1,2.1
			C1475.4,479,1476.4,478,1476.4,476.9z"/>
		<path class="st3" d="M1476.4,482.8c0-1.2-0.9-2.1-2.1-2.1c-1.2,0-2.1,0.9-2.1,2.1s0.9,2.1,2.1,2.1
			C1475.4,484.9,1476.4,484,1476.4,482.8z"/>
		<path class="st3" d="M1476.4,488.8c0-1.2-0.9-2.1-2.1-2.1c-1.2,0-2.1,0.9-2.1,2.1c0,1.2,0.9,2.1,2.1,2.1
			C1475.4,490.9,1476.4,489.9,1476.4,488.8z"/>
		<path class="st3" d="M1476.4,494.7c0-1.2-0.9-2.1-2.1-2.1c-1.2,0-2.1,0.9-2.1,2.1s0.9,2.1,2.1,2.1
			C1475.4,496.8,1476.4,495.9,1476.4,494.7z"/>
		<path class="st3" d="M1476.4,500.6c0-1.2-0.9-2.1-2.1-2.1c-1.2,0-2.1,0.9-2.1,2.1c0,1.2,0.9,2.1,2.1,2.1
			C1475.4,502.7,1476.4,501.8,1476.4,500.6z"/>
		<path class="st3" d="M1476.4,506.6c0-1.2-0.9-2.1-2.1-2.1c-1.2,0-2.1,0.9-2.1,2.1c0,1.2,0.9,2.1,2.1,2.1
			C1475.4,508.7,1476.4,507.7,1476.4,506.6z"/>
		<path class="st3" d="M1476.4,512.5c0-1.2-0.9-2.1-2.1-2.1c-1.2,0-2.1,0.9-2.1,2.1c0,1.2,0.9,2.1,2.1,2.1
			C1475.4,514.6,1476.4,513.7,1476.4,512.5z"/>
		<path class="st3" d="M1484.3,423.4c0-1.2-0.9-2.1-2.1-2.1s-2.1,0.9-2.1,2.1s0.9,2.1,2.1,2.1S1484.3,424.6,1484.3,423.4z"/>
		<path class="st3" d="M1484.3,429.4c0-1.2-0.9-2.1-2.1-2.1s-2.1,0.9-2.1,2.1c0,1.2,0.9,2.1,2.1,2.1S1484.3,430.5,1484.3,429.4z"/>
		<path class="st3" d="M1484.3,435.3c0-1.2-0.9-2.1-2.1-2.1s-2.1,0.9-2.1,2.1s0.9,2.1,2.1,2.1S1484.3,436.5,1484.3,435.3z"/>
		<path class="st3" d="M1484.3,441.2c0-1.2-0.9-2.1-2.1-2.1s-2.1,0.9-2.1,2.1s0.9,2.1,2.1,2.1S1484.3,442.4,1484.3,441.2z"/>
		<path class="st3" d="M1484.3,447.2c0-1.2-0.9-2.1-2.1-2.1s-2.1,0.9-2.1,2.1c0,1.2,0.9,2.1,2.1,2.1S1484.3,448.3,1484.3,447.2z"/>
		<path class="st3" d="M1484.3,453.1c0-1.2-0.9-2.1-2.1-2.1s-2.1,0.9-2.1,2.1s0.9,2.1,2.1,2.1S1484.3,454.3,1484.3,453.1z"/>
		<path class="st3" d="M1484.3,459c0-1.2-0.9-2.1-2.1-2.1s-2.1,0.9-2.1,2.1c0,1.2,0.9,2.1,2.1,2.1S1484.3,460.2,1484.3,459z"/>
		<path class="st3" d="M1484.3,465c0-1.2-0.9-2.1-2.1-2.1s-2.1,0.9-2.1,2.1s0.9,2.1,2.1,2.1S1484.3,466.1,1484.3,465z"/>
		<path class="st3" d="M1484.3,471c0-1.2-0.9-2.1-2.1-2.1s-2.1,0.9-2.1,2.1s0.9,2.1,2.1,2.1S1484.3,472.1,1484.3,471z"/>
		<path class="st3" d="M1484.3,476.9c0-1.2-0.9-2.1-2.1-2.1s-2.1,0.9-2.1,2.1c0,1.2,0.9,2.1,2.1,2.1S1484.3,478,1484.3,476.9z"/>
		<path class="st3" d="M1484.3,482.8c0-1.2-0.9-2.1-2.1-2.1s-2.1,0.9-2.1,2.1s0.9,2.1,2.1,2.1S1484.3,484,1484.3,482.8z"/>
		<path class="st3" d="M1484.3,488.8c0-1.2-0.9-2.1-2.1-2.1s-2.1,0.9-2.1,2.1c0,1.2,0.9,2.1,2.1,2.1S1484.3,489.9,1484.3,488.8z"/>
		<path class="st3" d="M1484.3,494.7c0-1.2-0.9-2.1-2.1-2.1s-2.1,0.9-2.1,2.1s0.9,2.1,2.1,2.1S1484.3,495.9,1484.3,494.7z"/>
		<path class="st3" d="M1484.3,500.6c0-1.2-0.9-2.1-2.1-2.1s-2.1,0.9-2.1,2.1c0,1.2,0.9,2.1,2.1,2.1S1484.3,501.8,1484.3,500.6z"/>
		<path class="st3" d="M1484.3,506.6c0-1.2-0.9-2.1-2.1-2.1s-2.1,0.9-2.1,2.1c0,1.2,0.9,2.1,2.1,2.1S1484.3,507.7,1484.3,506.6z"/>
		<path class="st3" d="M1484.3,512.5c0-1.2-0.9-2.1-2.1-2.1s-2.1,0.9-2.1,2.1c0,1.2,0.9,2.1,2.1,2.1S1484.3,513.7,1484.3,512.5z"/>
		<path class="st3" d="M1492.3,423.4c0-1.2-0.9-2.1-2.1-2.1c-1.2,0-2.1,0.9-2.1,2.1s0.9,2.1,2.1,2.1
			C1491.4,425.5,1492.3,424.6,1492.3,423.4z"/>
		<path class="st3" d="M1492.3,429.4c0-1.2-0.9-2.1-2.1-2.1c-1.2,0-2.1,0.9-2.1,2.1c0,1.2,0.9,2.1,2.1,2.1
			C1491.4,431.5,1492.3,430.5,1492.3,429.4z"/>
		<path class="st3" d="M1492.3,435.3c0-1.2-0.9-2.1-2.1-2.1c-1.2,0-2.1,0.9-2.1,2.1s0.9,2.1,2.1,2.1
			C1491.4,437.4,1492.3,436.5,1492.3,435.3z"/>
		<path class="st3" d="M1492.3,441.2c0-1.2-0.9-2.1-2.1-2.1c-1.2,0-2.1,0.9-2.1,2.1s0.9,2.1,2.1,2.1
			C1491.4,443.3,1492.3,442.4,1492.3,441.2z"/>
		<path class="st3" d="M1492.3,447.2c0-1.2-0.9-2.1-2.1-2.1c-1.2,0-2.1,0.9-2.1,2.1c0,1.2,0.9,2.1,2.1,2.1
			C1491.4,449.3,1492.3,448.3,1492.3,447.2z"/>
		<path class="st3" d="M1492.3,453.1c0-1.2-0.9-2.1-2.1-2.1c-1.2,0-2.1,0.9-2.1,2.1s0.9,2.1,2.1,2.1
			C1491.4,455.2,1492.3,454.3,1492.3,453.1z"/>
		<path class="st3" d="M1492.3,459c0-1.2-0.9-2.1-2.1-2.1c-1.2,0-2.1,0.9-2.1,2.1c0,1.2,0.9,2.1,2.1,2.1
			C1491.4,461.1,1492.3,460.2,1492.3,459z"/>
		<path class="st3" d="M1492.3,465c0-1.2-0.9-2.1-2.1-2.1c-1.2,0-2.1,0.9-2.1,2.1s0.9,2.1,2.1,2.1
			C1491.4,467.1,1492.3,466.1,1492.3,465z"/>
		<path class="st3" d="M1492.3,471c0-1.2-0.9-2.1-2.1-2.1c-1.2,0-2.1,0.9-2.1,2.1s0.9,2.1,2.1,2.1
			C1491.4,473,1492.3,472.1,1492.3,471z"/>
		<path class="st3" d="M1492.3,476.9c0-1.2-0.9-2.1-2.1-2.1c-1.2,0-2.1,0.9-2.1,2.1c0,1.2,0.9,2.1,2.1,2.1
			C1491.4,479,1492.3,478,1492.3,476.9z"/>
		<path class="st3" d="M1492.3,482.8c0-1.2-0.9-2.1-2.1-2.1c-1.2,0-2.1,0.9-2.1,2.1s0.9,2.1,2.1,2.1
			C1491.4,484.9,1492.3,484,1492.3,482.8z"/>
		<path class="st3" d="M1492.3,488.8c0-1.2-0.9-2.1-2.1-2.1c-1.2,0-2.1,0.9-2.1,2.1c0,1.2,0.9,2.1,2.1,2.1
			C1491.4,490.9,1492.3,489.9,1492.3,488.8z"/>
		<path class="st3" d="M1492.3,494.7c0-1.2-0.9-2.1-2.1-2.1c-1.2,0-2.1,0.9-2.1,2.1s0.9,2.1,2.1,2.1
			C1491.4,496.8,1492.3,495.9,1492.3,494.7z"/>
		<path class="st3" d="M1492.3,500.6c0-1.2-0.9-2.1-2.1-2.1c-1.2,0-2.1,0.9-2.1,2.1c0,1.2,0.9,2.1,2.1,2.1
			C1491.4,502.7,1492.3,501.8,1492.3,500.6z"/>
		<path class="st3" d="M1492.3,506.6c0-1.2-0.9-2.1-2.1-2.1c-1.2,0-2.1,0.9-2.1,2.1c0,1.2,0.9,2.1,2.1,2.1
			C1491.4,508.7,1492.3,507.7,1492.3,506.6z"/>
		<path class="st3" d="M1492.3,512.5c0-1.2-0.9-2.1-2.1-2.1c-1.2,0-2.1,0.9-2.1,2.1c0,1.2,0.9,2.1,2.1,2.1
			C1491.4,514.6,1492.3,513.7,1492.3,512.5z"/>
		<path class="st7" d="M1418.7,308.2c0.2-2.3,0-4.6,0.4-6.8c0.4-2.3,0.8-4.5,1.2-6.7c0.5-2.3,1.1-4.5,1.7-6.6
			c0.6-2.2,1.3-4.4,2.1-6.5c0.9-2.1,2.6-3.8,3.7-5.8c1.1-2,1.6-4.4,2.9-6.2c1.3-1.9,2.9-3.5,4.4-5.2c1.5-1.7,3.5-2.9,5.3-4.3
			c1.8-1.4,3.5-2.9,5.5-4.1c2-1.1,4.2-1.5,6.4-2.4c2.1-0.9,4.1-1.8,6.3-2.5c2.1-0.6,4.2-1.7,6.5-2.1c2.2-0.4,4.5-0.7,6.8-0.9
			c2.2-0.2,4.5-0.4,6.8-0.4c2.3,0,4.7-0.1,6.9,0.1c2.3,0.3,4.5,1,6.7,1.5c2.3,0.5,4.4,1.3,6.6,1.9c2.3,0.7,4.3,1.5,6.4,2.3
			c2.1,0.9,4,2.2,5.8,3.4c2,1.2,4.3,1.7,6.1,3.1c1.8,1.4,2.8,3.7,4.3,5.3c1.6,1.6,3.4,3,4.7,4.8c1.3,1.8,2.2,3.9,3.4,5.9
			c1.1,2,3.1,3.5,4,5.6c0.9,2.1,1.1,4.4,1.8,6.6c0.7,2.2,1.5,4.3,2,6.5c0.5,2.2,1,4.4,1.2,6.7c0.2,2.2,0.1,4.5,0.2,6.8
			c0.1,2.2-0.4,4.5-0.4,6.8c0,2.3-0.1,4.5-0.2,6.7c-0.1,2.3,0.3,4.5,0,6.8c-0.3,2.3-1.2,4.3-1.7,6.5c-0.5,2.3-0.9,4.4-1.5,6.6
			c-0.6,2.2-0.5,4.6-1.4,6.7c-0.8,2.1-1.8,4.2-2.9,6.2c-1.1,2-3.1,3.3-4.5,5.1c-1.4,1.7-2.2,4.1-3.9,5.6c-1.6,1.5-3.7,2.6-5.5,4
			c-1.8,1.4-3.8,2.4-5.7,3.5c-1.9,1.2-3.4,3.1-5.5,4c-2,0.9-4.3,1-6.6,1.7c-2.1,0.6-4.2,1.4-6.5,1.9c-2.2,0.4-4.4,0.4-6.7,0.6
			c-2.2,0.2-4.4-0.1-6.7-0.1c-2.4,0-4.6,1.2-6.9,1.1c-2.3-0.1-4.5-1.4-6.7-1.7c-2.3-0.3-4.5-0.6-6.6-1.3c-2.3-0.6-4.3-1.4-6.4-2.3
			c-2.1-0.9-4.2-1.8-6.1-3c-2-1.2-3.5-2.9-5.3-4.3c-1.8-1.4-3.8-2.6-5.3-4.2c-1.6-1.6-3.3-3.2-4.6-5c-1.4-1.8-2.6-3.7-3.8-5.7
			c-1.1-2-1.5-4.3-2.4-6.4c-0.8-2.1-2.1-4-2.8-6.2c-0.6-2.2-1.3-4.3-1.8-6.6c-0.5-2.2-1.4-4.4-1.8-6.6c-0.4-2.2,0.5-4.6,0.3-6.9
			c-0.2-2.3-0.3-4.5-0.3-6.8C1418.7,312.7,1418.4,310.5,1418.7,308.2z"/>
		<path class="st3" d="M1418.7,308.2c0.2-2.3,0-4.6,0.4-6.8c0.4-2.3,0.8-4.5,1.2-6.7c0.5-2.3,1.1-4.5,1.7-6.6
			c0.6-2.2,1.3-4.4,2.1-6.5c0.9-2.1,2.6-3.8,3.7-5.8c1.1-2,1.6-4.4,2.9-6.2c1.3-1.9,2.9-3.5,4.4-5.2c1.5-1.7,3.5-2.9,5.3-4.3
			c1.8-1.4,3.5-2.9,5.5-4.1c2-1.1,4.2-1.5,6.4-2.4c2.1-0.9,4.1-1.8,6.3-2.5c2.1-0.6,4.2-1.7,6.5-2.1c2.2-0.4,4.5-0.7,6.8-0.9
			c2.2-0.2,4.5-0.4,6.8-0.4c2.3,0,4.7-0.1,6.9,0.1c2.3,0.3,4.5,1,6.7,1.5c2.3,0.5,4.4,1.3,6.6,1.9c2.3,0.7,4.3,1.5,6.4,2.3
			c2.1,0.9,4,2.2,5.8,3.4c2,1.2,4.3,1.7,6.1,3.1c1.8,1.4,2.8,3.7,4.3,5.3c1.6,1.6,3.4,3,4.7,4.8c1.3,1.8,2.2,3.9,3.4,5.9
			c1.1,2,3.1,3.5,4,5.6c0.9,2.1,1.1,4.4,1.8,6.6c0.7,2.2,1.5,4.3,2,6.5c0.5,2.2,1,4.4,1.2,6.7c0.2,2.2,0.1,4.5,0.2,6.8
			c0.1,2.2-0.4,4.5-0.4,6.8c0,2.3-0.1,4.5-0.2,6.7c-0.1,2.3,0.3,4.5,0,6.8c-0.3,2.3-1.2,4.3-1.7,6.5c-0.5,2.3-0.9,4.4-1.5,6.6
			c-0.6,2.2-0.5,4.6-1.4,6.7c-0.8,2.1-1.8,4.2-2.9,6.2c-1.1,2-3.1,3.3-4.5,5.1c-1.4,1.7-2.2,4.1-3.9,5.6c-1.6,1.5-3.7,2.6-5.5,4
			c-1.8,1.4-3.8,2.4-5.7,3.5c-1.9,1.2-3.4,3.1-5.5,4c-2,0.9-4.3,1-6.6,1.7c-2.1,0.6-4.2,1.4-6.5,1.9c-2.2,0.4-4.4,0.4-6.7,0.6
			c-2.2,0.2-4.4-0.1-6.7-0.1c-2.4,0-4.6,1.2-6.9,1.1c-2.3-0.1-4.5-1.4-6.7-1.7c-2.3-0.3-4.5-0.6-6.6-1.3c-2.3-0.6-4.3-1.4-6.4-2.3
			c-2.1-0.9-4.2-1.8-6.1-3c-2-1.2-3.5-2.9-5.3-4.3c-1.8-1.4-3.8-2.6-5.3-4.2c-1.6-1.6-3.3-3.2-4.6-5c-1.4-1.8-2.6-3.7-3.8-5.7
			c-1.1-2-1.5-4.3-2.4-6.4c-0.8-2.1-2.1-4-2.8-6.2c-0.6-2.2-1.3-4.3-1.8-6.6c-0.5-2.2-1.4-4.4-1.8-6.6c-0.4-2.2,0.5-4.6,0.3-6.9
			c-0.2-2.3-0.3-4.5-0.3-6.8C1418.7,312.7,1418.4,310.5,1418.7,308.2z"/>
	</g>
	<path class="st0" d="M1376.1,127.5c0,0,22,10.9,40.1-11.8c0,0,13.8,3.8,24.2-5.7c0,0,0.7,10.2,10.9,5.7c6.3-3.2,5.9-12.9,10.2-15.4
		c4.3-2.5,14.7,5.8,29.9-3.1c8.2-4.2,9.9-13,10.2-17.8h-125.5V127.5z"/>
	<path class="st8" d="M1247.6,103.5c0-0.2,0-0.3,0-0.5h-480h-480c0,0.2,0,0.3,0,0.5c0,18.9-15.2,34.2-34,34.5v133
		c18.7,0.3,33.7,15.3,34,34h480h480c0.3-18.7,15.3-33.7,34-34V138C1262.8,137.7,1247.6,122.4,1247.6,103.5z"/>
</g>
</svg>
