<!DOCTYPE svg PUBLIC "-//W3C//DTD SVG 1.1//EN" "http://www.w3.org/Graphics/SVG/1.1/DTD/svg11.dtd">
<!-- Uploaded to: SVG Repo, www.svgrepo.com, Transformed by: SVG Repo Mixer Tools -->
<svg width="800px" height="800px" viewBox="-3.12 -3.12 30.24 30.24" fill="none" xmlns="http://www.w3.org/2000/svg">
<g id="SVGRepo_bgCarrier" stroke-width="0"/>
<g id="SVGRepo_tracerCarrier" stroke-linecap="round" stroke-linejoin="round"/>
<g id="SVGRepo_iconCarrier"> <path fill-rule="evenodd" clip-rule="evenodd" d="M12 3.66333L20.25 7.7398V17.01L12 21.0865L3.75 17.01V7.7398L12 3.66333ZM5.25 9.41292V16.078L11.25 19.0427V12.3776L5.25 9.41292ZM12.75 12.3776V19.0427L18.75 16.078V9.41292L16.5 10.5247V13.4999L15 14.2499V11.2659L12.75 12.3776ZM17.807 8.20577L15.8527 9.17139C15.8099 9.13606 15.7624 9.10498 15.7106 9.07908L10.1015 6.27454L12 5.33645L17.807 8.20577ZM8.41452 7.1081L14.1871 9.9944L12 11.0751L6.19304 8.20577L8.41452 7.1081Z" fill="#241B15"/> </g>
</svg>