<svg width="326" height="392" viewBox="0 0 326 392" fill="none" xmlns="http://www.w3.org/2000/svg">
<g clip-path="url(#clip0_936_5249)">
<path d="M163 390.199C171.15 390.199 177.756 383.57 177.756 375.392C177.756 367.215 171.15 360.586 163 360.586C154.85 360.586 148.243 367.215 148.243 375.392C148.243 383.57 154.85 390.199 163 390.199Z" fill="#431D31" stroke="#BF9769" stroke-miterlimit="10"/>
<path d="M163 356.336H154.767L156.054 373.148C156.191 374.904 156.981 376.544 158.268 377.741C159.556 378.938 161.245 379.605 163 379.608C164.757 379.609 166.449 378.943 167.737 377.745C169.025 376.548 169.814 374.905 169.947 373.148L171.251 356.336H163Z" fill="white" stroke="#BF9769" stroke-miterlimit="10"/>
<path d="M163 374.661C164.432 374.661 165.592 373.496 165.592 372.06C165.592 370.623 164.432 369.459 163 369.459C161.569 369.459 160.408 370.623 160.408 372.06C160.408 373.496 161.569 374.661 163 374.661Z" fill="#BF9769" stroke="#BF9769" stroke-miterlimit="10"/>
<path d="M283.56 380.628C290.587 380.628 296.284 373.999 296.284 365.822C296.284 357.645 290.587 351.016 283.56 351.016C276.533 351.016 270.837 357.645 270.837 365.822C270.837 373.999 276.533 380.628 283.56 380.628Z" fill="#431D31" stroke="#BF9769" stroke-miterlimit="10"/>
<path d="M283.56 346.816H276.444L277.563 363.629C277.571 365.263 278.193 366.834 279.305 368.028C280.416 369.222 281.936 369.952 283.56 370.071C285.184 369.952 286.704 369.222 287.815 368.028C288.927 366.834 289.549 365.263 289.558 363.629L290.659 346.816H283.56Z" fill="white" stroke="#BF9769" stroke-miterlimit="10"/>
<path d="M283.56 365.108C284.795 365.108 285.796 363.944 285.796 362.507C285.796 361.071 284.795 359.906 283.56 359.906C282.324 359.906 281.323 361.071 281.323 362.507C281.323 363.944 282.324 365.108 283.56 365.108Z" fill="#BF9769" stroke="#BF9769" stroke-miterlimit="10"/>
<path d="M42.4569 380.628C49.4839 380.628 55.1804 373.999 55.1804 365.822C55.1804 357.645 49.4839 351.016 42.4569 351.016C35.4299 351.016 29.7334 357.645 29.7334 365.822C29.7334 373.999 35.4299 380.628 42.4569 380.628Z" fill="#431D31" stroke="#BF9769" stroke-miterlimit="10"/>
<path d="M42.4565 346.816H49.5552L48.4371 363.629C48.4369 365.262 47.8198 366.835 46.7101 368.031C45.6005 369.226 44.0806 369.955 42.4565 370.071C40.8294 369.959 39.3054 369.232 38.1921 368.036C37.0789 366.84 36.4595 365.265 36.459 363.629L35.3408 346.816H42.4565Z" fill="white" stroke="#BF9769" stroke-miterlimit="10"/>
<path d="M42.4571 365.108C43.6922 365.108 44.6934 363.944 44.6934 362.507C44.6934 361.071 43.6922 359.906 42.4571 359.906C41.222 359.906 40.2207 361.071 40.2207 362.507C40.2207 363.944 41.222 365.108 42.4571 365.108Z" fill="#BF9769" stroke="#BF9769" stroke-miterlimit="10"/>
<path d="M163 5.13086C84.7103 5.13086 21.1436 8.27572 21.1436 12.1346V349.332C21.1436 353.208 84.6595 356.336 163 356.336C241.34 356.336 304.958 353.208 304.958 349.332V12.1346C304.958 8.27572 241.357 5.13086 163 5.13086Z" fill="#BD2027" stroke="#BF9769" stroke-miterlimit="10"/>
<path d="M163 360.585C125.05 360.585 89.3357 359.854 62.4825 358.528C49.3523 357.882 39.0346 357.117 31.8003 356.284C22.5669 355.196 16.9082 354.295 16.9082 349.332C16.9082 348.204 17.3544 347.124 18.1488 346.327C18.9431 345.53 20.0204 345.082 21.1437 345.082C21.7225 345.079 22.2955 345.196 22.8264 345.428C23.3573 345.659 23.8343 345.998 24.2272 346.425C32.2747 349.196 86.4386 352.085 163 352.085C239.561 352.085 293.725 349.196 301.773 346.425C302.353 345.799 303.108 345.364 303.938 345.175C304.769 344.987 305.637 345.054 306.429 345.367C307.221 345.681 307.9 346.227 308.378 346.935C308.857 347.642 309.111 348.477 309.109 349.332C309.109 354.295 303.45 355.196 294.217 356.284C286.965 357.117 276.648 357.882 263.534 358.528C236.664 359.854 200.967 360.585 163 360.585Z" fill="#B32227" stroke="#BF9769" stroke-miterlimit="10"/>
<path d="M163 321.181C125.05 321.181 89.3357 320.45 62.4825 319.124C49.3523 318.478 39.0346 317.713 31.8003 316.88C22.5669 315.792 16.9082 314.874 16.9082 309.927C16.9082 308.8 17.3544 307.719 18.1488 306.922C18.9431 306.125 20.0204 305.677 21.1437 305.677C21.7225 305.674 22.2955 305.792 22.8264 306.023C23.3573 306.254 23.8343 306.594 24.2272 307.02C32.2747 309.791 86.4386 312.681 163 312.681C239.561 312.681 293.725 309.791 301.773 307.02C302.353 306.395 303.108 305.959 303.938 305.771C304.769 305.582 305.637 305.649 306.429 305.963C307.221 306.277 307.9 306.823 308.378 307.53C308.857 308.237 309.111 309.073 309.109 309.927C309.109 314.874 303.45 315.792 294.217 316.88C286.965 317.713 276.648 318.478 263.534 319.124C236.664 320.45 200.967 321.181 163 321.181Z" fill="#B32227" stroke="#BF9769" stroke-miterlimit="10"/>
<path d="M163 296.38C125.05 296.38 89.3526 295.649 62.4825 294.323C49.3523 293.677 39.0346 292.912 31.8003 292.062C22.5669 290.991 16.9082 290.073 16.9082 285.127C16.9082 283.999 17.3544 282.918 18.1488 282.121C18.9431 281.324 20.0204 280.877 21.1437 280.877C21.7225 280.873 22.2955 280.991 22.8264 281.222C23.3573 281.454 23.8343 281.793 24.2272 282.22C32.2916 284.974 86.4386 287.88 163 287.88C239.561 287.88 293.725 284.974 301.773 282.22C302.353 281.594 303.108 281.159 303.938 280.97C304.769 280.781 305.637 280.848 306.429 281.162C307.221 281.476 307.9 282.022 308.378 282.729C308.857 283.437 309.111 284.272 309.109 285.127C309.109 290.073 303.45 290.991 294.217 292.062C286.965 292.912 276.648 293.762 263.534 294.323C236.664 295.649 200.967 296.38 163 296.38Z" fill="#B32227" stroke="#BF9769" stroke-miterlimit="10"/>
<path d="M304.958 16.3842C304.377 16.3857 303.802 16.2672 303.269 16.0362C302.735 15.8051 302.255 15.4665 301.858 15.0412C293.726 12.2874 239.579 9.38049 163 9.38049C86.422 9.38049 32.275 12.2874 24.2275 15.0412C23.8346 15.4676 23.3576 15.8072 22.8267 16.0385C22.2958 16.2697 21.7227 16.3874 21.144 16.3842C20.0266 16.3752 18.9579 15.9235 18.1709 15.1275C17.3839 14.3315 16.9423 13.2556 16.9424 12.1344C16.9424 7.18758 22.5672 6.26962 31.8006 5.13067C38.9671 4.34871 49.3526 3.58374 62.4828 2.93777C89.336 1.61183 125.05 0.880859 163 0.880859C200.951 0.880859 236.665 1.61183 263.535 2.93777C276.648 3.58374 286.966 4.34871 294.217 5.18167C303.45 6.26962 309.109 7.18758 309.109 12.1344C309.109 13.2469 308.675 14.3152 307.899 15.1098C307.122 15.9044 306.067 16.3619 304.958 16.3842Z" fill="#B32227" stroke="#BF9769" stroke-miterlimit="10"/>
<path d="M304.958 34.5223C304.378 34.5198 303.804 34.3995 303.271 34.1687C302.738 33.9379 302.258 33.6014 301.858 33.1793C293.81 30.4085 239.663 27.5016 163.085 27.5016C86.5067 27.5016 32.2919 30.4085 24.2275 33.1793C23.644 33.7868 22.8936 34.2063 22.0718 34.3843C21.2499 34.5624 20.3938 34.491 19.6126 34.1793C18.8313 33.8676 18.1601 33.3296 17.6846 32.6338C17.2091 31.9381 16.9507 31.1161 16.9424 30.2725C16.9424 25.3087 22.601 24.3907 31.8345 23.3198C39.0688 22.4698 49.3865 21.7218 62.5166 21.0759C89.3699 19.7329 125.084 19.002 163.034 19.002C200.984 19.002 236.698 19.7329 263.569 21.0759C276.682 21.7218 287 22.4698 294.251 23.3198C303.484 24.3907 309.143 25.3087 309.143 30.2725C309.143 31.3908 308.704 32.4641 307.92 33.2597C307.137 34.0552 306.073 34.5089 304.958 34.5223Z" fill="#B32227" stroke="#BF9769" stroke-miterlimit="10"/>
<path d="M304.958 56.1289C304.377 56.1304 303.802 56.0119 303.269 55.7809C302.735 55.5498 302.255 55.2112 301.858 54.786C293.81 52.0321 239.663 49.1252 163.085 49.1252C86.5064 49.1252 32.2917 52.0491 24.2272 54.803C23.8344 55.2294 23.3573 55.569 22.8264 55.8002C22.2955 56.0314 21.7225 56.1491 21.1438 56.1459C20.5869 56.1482 20.0351 56.0398 19.5203 55.827C19.0054 55.6142 18.5376 55.3013 18.1438 54.9062C17.75 54.5111 17.4381 54.0417 17.2261 53.5251C17.014 53.0085 16.906 52.4548 16.9082 51.8961C16.9082 46.9493 22.5669 46.0313 31.8004 44.9604C39.0346 44.1104 49.3524 43.3455 62.4825 42.6995C89.3357 41.3735 125.05 40.6426 163 40.6426C200.95 40.6426 236.664 41.3735 263.534 42.6995C276.648 43.3455 286.965 44.1104 294.217 44.9604C303.45 46.0313 309.109 46.9493 309.109 51.8961C309.109 53.007 308.674 54.0735 307.897 54.8654C307.121 55.6572 306.065 56.1111 304.958 56.1289Z" fill="#B32227" stroke="#BF9769" stroke-miterlimit="10"/>
<path d="M163 101.245C162.064 102.221 160.809 102.823 159.465 102.943C158.121 103.062 156.779 102.69 155.688 101.895C154.596 101.099 153.827 99.9349 153.524 98.6159C153.221 97.2969 153.403 95.9124 154.037 94.7177C152.827 94.1266 151.87 93.1175 151.342 91.8755C150.814 90.6336 150.75 89.2421 151.162 87.9566C151.574 86.6711 152.434 85.5778 153.585 84.8775C154.735 84.1772 156.099 83.9168 157.426 84.1441C157.608 82.7994 158.269 81.5664 159.288 80.6737C160.307 79.781 161.613 79.2891 162.966 79.2891C164.318 79.2891 165.625 79.781 166.644 80.6737C167.662 81.5664 168.324 82.7994 168.506 84.1441C169.832 83.9168 171.196 84.1772 172.347 84.8775C173.498 85.5778 174.358 86.6711 174.77 87.9566C175.182 89.2421 175.118 90.6336 174.589 91.8755C174.061 93.1175 173.104 94.1266 171.894 94.7177C172.529 95.9124 172.711 97.2969 172.407 98.6159C172.104 99.9349 171.336 101.099 170.244 101.895C169.152 102.69 167.811 103.062 166.467 102.943C165.123 102.823 163.868 102.221 162.932 101.245H163Z" fill="#431D31" stroke="#BF9769" stroke-miterlimit="10"/>
<path d="M163 141.499C162.064 142.474 160.809 143.077 159.465 143.197C158.121 143.316 156.779 142.944 155.688 142.148C154.596 141.353 153.827 140.189 153.524 138.87C153.221 137.551 153.403 136.166 154.037 134.972C152.827 134.381 151.87 133.371 151.342 132.129C150.814 130.887 150.75 129.496 151.162 128.211C151.574 126.925 152.434 125.832 153.585 125.131C154.735 124.431 156.099 124.171 157.426 124.398C157.608 123.053 158.269 121.82 159.288 120.928C160.307 120.035 161.613 119.543 162.966 119.543C164.318 119.543 165.625 120.035 166.644 120.928C167.662 121.82 168.324 123.053 168.506 124.398C169.832 124.171 171.196 124.431 172.347 125.131C173.498 125.832 174.358 126.925 174.77 128.211C175.182 129.496 175.118 130.887 174.589 132.129C174.061 133.371 173.104 134.381 171.894 134.972C172.529 136.166 172.711 137.551 172.407 138.87C172.104 140.189 171.336 141.353 170.244 142.148C169.152 142.944 167.811 143.316 166.467 143.197C165.123 143.077 163.868 142.474 162.932 141.499H163Z" fill="#431D31" stroke="#BF9769" stroke-miterlimit="10"/>
<path d="M163 181.77C162.065 182.755 160.805 183.366 159.455 183.488C158.106 183.611 156.757 183.237 155.661 182.437C154.565 181.637 153.796 180.464 153.498 179.138C153.199 177.811 153.391 176.421 154.037 175.225C152.827 174.634 151.87 173.625 151.342 172.383C150.814 171.141 150.75 169.75 151.162 168.464C151.574 167.179 152.434 166.086 153.585 165.385C154.735 164.685 156.099 164.425 157.426 164.652C157.608 163.307 158.269 162.074 159.288 161.182C160.307 160.289 161.613 159.797 162.966 159.797C164.318 159.797 165.625 160.289 166.644 161.182C167.662 162.074 168.324 163.307 168.506 164.652C169.832 164.425 171.196 164.685 172.347 165.385C173.498 166.086 174.358 167.179 174.77 168.464C175.182 169.75 175.118 171.141 174.589 172.383C174.061 173.625 173.104 174.634 171.894 175.225C172.541 176.421 172.733 177.811 172.434 179.138C172.135 180.464 171.366 181.637 170.27 182.437C169.174 183.237 167.826 183.611 166.476 183.488C165.126 183.366 163.867 182.755 162.932 181.77H163Z" fill="#431D31" stroke="#BF9769" stroke-miterlimit="10"/>
<path d="M163 222.024C162.065 223.009 160.805 223.619 159.455 223.742C158.106 223.865 156.757 223.491 155.661 222.691C154.565 221.891 153.796 220.718 153.498 219.392C153.199 218.065 153.391 216.675 154.037 215.479C152.827 214.888 151.87 213.879 151.342 212.637C150.814 211.395 150.75 210.004 151.162 208.718C151.574 207.433 152.434 206.34 153.585 205.639C154.735 204.939 156.099 204.678 157.426 204.906C157.608 203.561 158.269 202.328 159.288 201.435C160.307 200.543 161.613 200.051 162.966 200.051C164.318 200.051 165.625 200.543 166.644 201.435C167.662 202.328 168.324 203.561 168.506 204.906C169.832 204.678 171.196 204.939 172.347 205.639C173.498 206.34 174.358 207.433 174.77 208.718C175.182 210.004 175.118 211.395 174.589 212.637C174.061 213.879 173.104 214.888 171.894 215.479C172.541 216.675 172.733 218.065 172.434 219.392C172.135 220.718 171.366 221.891 170.27 222.691C169.174 223.491 167.826 223.865 166.476 223.742C165.126 223.619 163.867 223.009 162.932 222.024H163Z" fill="#431D31" stroke="#BF9769" stroke-miterlimit="10"/>
<path d="M269.38 101.245C268.444 102.221 267.188 102.823 265.845 102.943C264.501 103.062 263.159 102.69 262.068 101.895C260.976 101.099 260.207 99.9349 259.904 98.6159C259.601 97.2969 259.783 95.9124 260.417 94.7177C259.207 94.1266 258.25 93.1175 257.722 91.8755C257.194 90.6336 257.13 89.2421 257.542 87.9566C257.954 86.6711 258.814 85.5778 259.965 84.8775C261.115 84.1772 262.479 83.9168 263.806 84.1441C263.988 82.7994 264.649 81.5664 265.668 80.6737C266.687 79.781 267.993 79.2891 269.346 79.2891C270.698 79.2891 272.005 79.781 273.024 80.6737C274.042 81.5664 274.704 82.7994 274.886 84.1441C276.212 83.9168 277.576 84.1772 278.727 84.8775C279.877 85.5778 280.738 86.6711 281.15 87.9566C281.562 89.2421 281.498 90.6336 280.969 91.8755C280.441 93.1175 279.484 94.1266 278.274 94.7177C278.922 95.9149 279.114 97.3079 278.814 98.6366C278.514 99.9654 277.741 101.139 276.642 101.938C275.542 102.738 274.19 103.108 272.838 102.981C271.486 102.853 270.227 102.236 269.295 101.245H269.38Z" fill="#431D31" stroke="#BF9769" stroke-miterlimit="10"/>
<path d="M269.38 141.499C268.444 142.474 267.188 143.077 265.845 143.197C264.501 143.316 263.159 142.944 262.068 142.148C260.976 141.353 260.207 140.189 259.904 138.87C259.601 137.551 259.783 136.166 260.417 134.972C259.207 134.381 258.25 133.371 257.722 132.129C257.194 130.887 257.13 129.496 257.542 128.211C257.954 126.925 258.814 125.832 259.965 125.131C261.115 124.431 262.479 124.171 263.806 124.398C263.988 123.053 264.649 121.82 265.668 120.928C266.687 120.035 267.993 119.543 269.346 119.543C270.698 119.543 272.005 120.035 273.024 120.928C274.042 121.82 274.704 123.053 274.886 124.398C276.212 124.171 277.576 124.431 278.727 125.131C279.877 125.832 280.738 126.925 281.15 128.211C281.562 129.496 281.498 130.887 280.969 132.129C280.441 133.371 279.484 134.381 278.274 134.972C278.922 136.169 279.114 137.562 278.814 138.891C278.514 140.219 277.741 141.393 276.642 142.192C275.542 142.992 274.19 143.362 272.838 143.235C271.486 143.107 270.227 142.49 269.295 141.499H269.38Z" fill="#431D31" stroke="#BF9769" stroke-miterlimit="10"/>
<path d="M269.38 181.77C268.445 182.755 267.185 183.366 265.835 183.488C264.485 183.611 263.137 183.237 262.041 182.437C260.945 181.637 260.176 180.464 259.878 179.138C259.579 177.811 259.771 176.421 260.417 175.225C259.207 174.634 258.25 173.625 257.722 172.383C257.194 171.141 257.13 169.75 257.542 168.464C257.954 167.179 258.814 166.086 259.965 165.385C261.115 164.685 262.479 164.425 263.806 164.652C263.988 163.307 264.649 162.074 265.668 161.182C266.687 160.289 267.993 159.797 269.346 159.797C270.698 159.797 272.005 160.289 273.024 161.182C274.042 162.074 274.704 163.307 274.886 164.652C276.212 164.425 277.576 164.685 278.727 165.385C279.877 166.086 280.738 167.179 281.15 168.464C281.562 169.75 281.498 171.141 280.969 172.383C280.441 173.625 279.484 174.634 278.274 175.225C278.9 176.422 279.076 177.805 278.77 179.121C278.463 180.438 277.695 181.599 276.605 182.394C275.515 183.188 274.177 183.562 272.834 183.448C271.492 183.333 270.236 182.738 269.295 181.77H269.38Z" fill="#431D31" stroke="#BF9769" stroke-miterlimit="10"/>
<path d="M269.38 222.024C268.445 223.009 267.185 223.619 265.835 223.742C264.485 223.865 263.137 223.491 262.041 222.691C260.945 221.891 260.176 220.718 259.878 219.392C259.579 218.065 259.771 216.675 260.417 215.479C259.207 214.888 258.25 213.879 257.722 212.637C257.194 211.395 257.13 210.004 257.542 208.718C257.954 207.433 258.814 206.34 259.965 205.639C261.115 204.939 262.479 204.678 263.806 204.906C263.988 203.561 264.649 202.328 265.668 201.435C266.687 200.543 267.993 200.051 269.346 200.051C270.698 200.051 272.005 200.543 273.024 201.435C274.042 202.328 274.704 203.561 274.886 204.906C276.212 204.678 277.576 204.939 278.727 205.639C279.877 206.34 280.738 207.433 281.15 208.718C281.562 210.004 281.498 211.395 280.969 212.637C280.441 213.879 279.484 214.888 278.274 215.479C278.9 216.676 279.076 218.059 278.77 219.375C278.463 220.692 277.695 221.853 276.605 222.647C275.515 223.442 274.177 223.816 272.834 223.702C271.492 223.587 270.236 222.992 269.295 222.024H269.38Z" fill="#431D31" stroke="#BF9769" stroke-miterlimit="10"/>
<path d="M56.6032 101.245C55.6676 102.221 54.4121 102.823 53.0683 102.943C51.7244 103.062 50.3829 102.69 49.2912 101.895C48.1994 101.099 47.431 99.9349 47.1277 98.6159C46.8244 97.2969 47.0067 95.9124 47.6409 94.7177C46.4308 94.1266 45.4739 93.1175 44.9457 91.8755C44.4175 90.6336 44.3535 89.2421 44.7655 87.9566C45.1774 86.6711 46.0377 85.5778 47.1883 84.8775C48.3389 84.1772 49.7027 83.9168 51.0293 84.1441C51.2112 82.7994 51.8729 81.5664 52.8915 80.6737C53.9102 79.781 55.2168 79.2891 56.5694 79.2891C57.9219 79.2891 59.2285 79.781 60.2472 80.6737C61.2659 81.5664 61.9275 82.7994 62.1094 84.1441C63.436 83.9168 64.7998 84.1772 65.9504 84.8775C67.101 85.5778 67.9613 86.6711 68.3733 87.9566C68.7852 89.2421 68.7212 90.6336 68.193 91.8755C67.6648 93.1175 66.7079 94.1266 65.4978 94.7177C66.132 95.9124 66.3143 97.2969 66.011 98.6159C65.7077 99.9349 64.9393 101.099 63.8476 101.895C62.7558 102.69 61.4143 103.062 60.0705 102.943C58.7266 102.823 57.4711 102.221 56.5355 101.245H56.6032Z" fill="#431D31" stroke="#BF9769" stroke-miterlimit="10"/>
<path d="M56.6032 141.499C55.6676 142.474 54.4121 143.077 53.0683 143.197C51.7244 143.316 50.3829 142.944 49.2912 142.148C48.1994 141.353 47.431 140.189 47.1277 138.87C46.8244 137.551 47.0067 136.166 47.6409 134.972C46.4308 134.381 45.4739 133.371 44.9457 132.129C44.4175 130.887 44.3535 129.496 44.7655 128.211C45.1774 126.925 46.0377 125.832 47.1883 125.131C48.3389 124.431 49.7027 124.171 51.0293 124.398C51.2112 123.053 51.8729 121.82 52.8915 120.928C53.9102 120.035 55.2168 119.543 56.5694 119.543C57.9219 119.543 59.2285 120.035 60.2472 120.928C61.2659 121.82 61.9275 123.053 62.1094 124.398C63.436 124.171 64.7998 124.431 65.9504 125.131C67.101 125.832 67.9613 126.925 68.3733 128.211C68.7852 129.496 68.7212 130.887 68.193 132.129C67.6648 133.371 66.7079 134.381 65.4978 134.972C66.132 136.166 66.3143 137.551 66.011 138.87C65.7077 140.189 64.9393 141.353 63.8476 142.148C62.7558 142.944 61.4143 143.316 60.0705 143.197C58.7266 143.077 57.4711 142.474 56.5355 141.499H56.6032Z" fill="#431D31" stroke="#BF9769" stroke-miterlimit="10"/>
<path d="M56.6032 181.77C55.6684 182.755 54.4089 183.366 53.059 183.488C51.7091 183.611 50.3607 183.237 49.2648 182.437C48.1689 181.637 47.4 180.464 47.1013 179.138C46.8026 177.811 46.9943 176.421 47.6409 175.225C46.4308 174.634 45.4739 173.625 44.9457 172.383C44.4175 171.141 44.3535 169.75 44.7655 168.464C45.1774 167.179 46.0377 166.086 47.1883 165.385C48.3389 164.685 49.7027 164.425 51.0293 164.652C51.2112 163.307 51.8729 162.074 52.8915 161.182C53.9102 160.289 55.2168 159.797 56.5694 159.797C57.9219 159.797 59.2285 160.289 60.2472 161.182C61.2659 162.074 61.9275 163.307 62.1094 164.652C63.436 164.425 64.7998 164.685 65.9504 165.385C67.101 166.086 67.9613 167.179 68.3733 168.464C68.7852 169.75 68.7212 171.141 68.193 172.383C67.6648 173.625 66.7079 174.634 65.4978 175.225C66.1444 176.421 66.3361 177.811 66.0374 179.138C65.7387 180.464 64.9698 181.637 63.8739 182.437C62.778 183.237 61.4296 183.611 60.0797 183.488C58.7298 183.366 57.4703 182.755 56.5355 181.77H56.6032Z" fill="#431D31" stroke="#BF9769" stroke-miterlimit="10"/>
<path d="M56.6032 222.024C55.6684 223.009 54.4089 223.619 53.059 223.742C51.7091 223.865 50.3607 223.491 49.2648 222.691C48.1689 221.891 47.4 220.718 47.1013 219.392C46.8026 218.065 46.9943 216.675 47.6409 215.479C46.4308 214.888 45.4739 213.879 44.9457 212.637C44.4175 211.395 44.3535 210.004 44.7655 208.718C45.1774 207.433 46.0377 206.34 47.1883 205.639C48.3389 204.939 49.7027 204.678 51.0293 204.906C51.2112 203.561 51.8729 202.328 52.8915 201.435C53.9102 200.543 55.2168 200.051 56.5694 200.051C57.9219 200.051 59.2285 200.543 60.2472 201.435C61.2659 202.328 61.9275 203.561 62.1094 204.906C63.436 204.678 64.7998 204.939 65.9504 205.639C67.101 206.34 67.9613 207.433 68.3733 208.718C68.7852 210.004 68.7212 211.395 68.193 212.637C67.6648 213.879 66.7079 214.888 65.4978 215.479C66.1444 216.675 66.3361 218.065 66.0374 219.392C65.7387 220.718 64.9698 221.891 63.8739 222.691C62.778 223.491 61.4296 223.865 60.0797 223.742C58.7298 223.619 57.4703 223.009 56.5355 222.024H56.6032Z" fill="#431D31" stroke="#BF9769" stroke-miterlimit="10"/>
<path d="M299.198 97.0809C296.792 79.4697 298.131 60.0055 306.686 58.8325C315.242 57.6596 321.714 76.0698 324.103 93.664C326.492 111.258 325.17 130.739 316.614 131.912C308.059 133.085 301.57 114.675 299.198 97.0809ZM304.281 96.3839C307.093 117.157 313.751 127.17 315.971 126.864C318.19 126.558 321.934 115.134 319.122 94.361C316.309 73.5879 309.634 63.5753 307.415 63.8813C305.195 64.1873 301.4 75.6108 304.23 96.3839H304.281Z" fill="#BF9769" stroke="#BF9769" stroke-miterlimit="10"/>
<path d="M307.025 60.1227C308.607 60.1227 309.889 58.8365 309.889 57.2498C309.889 55.6632 308.607 54.377 307.025 54.377C305.444 54.377 304.162 55.6632 304.162 57.2498C304.162 58.8365 305.444 60.1227 307.025 60.1227Z" fill="#BF9769" stroke="#BF9769" stroke-miterlimit="10"/>
<path d="M9.40258 131.912C0.829872 130.739 -0.491613 111.275 1.89722 93.6641C4.28606 76.0529 10.7749 57.6596 19.3307 58.8326C27.8864 60.0055 29.2079 79.4697 26.8191 97.0809C24.4302 114.692 17.9583 133.085 9.40258 131.912ZM18.636 63.9154C16.4166 63.6094 9.75836 73.6219 6.94597 94.395C4.13358 115.168 7.86085 126.558 10.165 126.864C12.4691 127.17 19.0426 117.157 21.872 96.384C24.7013 75.6109 20.8554 64.1874 18.636 63.8814V63.9154Z" fill="#BF9769" stroke="#BF9769" stroke-miterlimit="10"/>
<path d="M18.9921 60.1227C20.5734 60.1227 21.8553 58.8365 21.8553 57.2498C21.8553 55.6632 20.5734 54.377 18.9921 54.377C17.4108 54.377 16.1289 55.6632 16.1289 57.2498C16.1289 58.8365 17.4108 60.1227 18.9921 60.1227Z" fill="#BF9769" stroke="#BF9769" stroke-miterlimit="10"/>
</g>
<defs>
<clipPath id="clip0_936_5249">
<rect width="326" height="391" fill="white" transform="translate(0 0.03125)"/>
</clipPath>
</defs>
</svg>
