<?xml version="1.0" encoding="utf-8"?>
<!-- Generator: Adobe Illustrator 26.3.1, SVG Export Plug-In . SVG Version: 6.00 Build 0)  -->
<svg version="1.1" id="圖層_1" xmlns="http://www.w3.org/2000/svg" xmlns:xlink="http://www.w3.org/1999/xlink" x="0px" y="0px"
	 viewBox="0 0 872.3 1000.8" style="enable-background:new 0 0 872.3 1000.8;" xml:space="preserve">
<style type="text/css">
	.st0{clip-path:url(#SVGID_00000183224425615222830320000017599326687256135580_);}
	.st1{fill:#431D31;}
	.st2{fill:#C39A6B;}
	.st3{fill:none;stroke:#C39A6B;stroke-width:2.5;stroke-linecap:round;stroke-linejoin:round;stroke-miterlimit:10;}
	.st4{fill:#EFECE0;}
	.st5{fill:#FFFFFF;}
	.st6{clip-path:url(#SVGID_00000091733318919131712960000013179219458837617572_);}
	.st7{stroke:#C39A6B;stroke-width:2.5;stroke-linecap:round;stroke-linejoin:round;stroke-miterlimit:10;}
</style>
<g>
	<g>
		<defs>
			<rect id="SVGID_1_" x="-135" y="-130" width="1145.3" height="690.5"/>
		</defs>
		<clipPath id="SVGID_00000026137630927556253320000004286540462696398485_">
			<use xlink:href="#SVGID_1_"  style="overflow:visible;"/>
		</clipPath>
		<g style="clip-path:url(#SVGID_00000026137630927556253320000004286540462696398485_);">
			<path class="st1" d="M819.1,373c0,0,28.7-14.2,19.2-60.6c-9.5-46.4-49.1-49.2-49.1-49.2c14.2-16.7,9-34.3,9-34.3
				c-7.3-39.1-41-34.3-41-34.3c1.2-29.4-30.3-26.8-30.3-26.8c34.7-30.3,34.1-96.4,0-83.4c-34.1,13-74,51.6-74,51.6
				s-2.1-12.6-11.3-27.1C632.4,94.4,604,96.6,604,96.6s5.4-23.2-19.8-34.1c-25.2-10.9-40.8,6.8-40.8,6.8c8.8-20-12.7-37.3-12.7-37.3
				c-28.9-17.4-52.6-8.3-52.6-8.3C467.6,3.7,437.6,8.3,437.6,8.3s-30-4.6-40.4,15.6c0,0-23.7-9.1-52.6,8.3c0,0-21.5,17.2-12.7,37.3
				c0,0-15.6-17.7-40.8-6.8c-25.2,10.9-19.8,34.1-19.8,34.1s-28.4-2.3-37.6,12.3s-11.3,27.1-11.3,27.1s-39.9-38.5-74-51.6
				c-34.1-13-34.7,53.1,0,83.4c0,0-31.4-2.7-30.3,26.8c0,0-33.7-4.8-41,34.3c0,0-5.2,17.5,9,34.3c0,0-39.6,2.8-49.1,49.2
				C27.4,358.8,56.2,373,56.2,373s-33.4,22-33.1,70.2s74.2,101.1,74.2,101.1s44.8,134.1,54.5,145.2c9.6,11.1,32.9,35,40.6,72.4
				c0,0-15.2,26.4,1.7,59.8c16.9,33.4,81.2,49,132.2,17.6c0,0,20.6-13.1,32.6-37.7c0,0,47.3,15.6,74.5,41.3l3.3,5.3
				c0.3-0.3,0.6-0.7,0.9-1c0.3,0.3,0.6,0.7,0.9,1l3.3-5.3c27.2-25.7,74.5-41.3,74.5-41.3c12,24.6,32.6,37.7,32.6,37.7
				c51,31.3,115.3,15.8,132.2-17.6s1.7-59.8,1.7-59.8c7.6-37.4,30.9-61.2,40.6-72.4c9.6-11.1,54.5-145.2,54.5-145.2
				s73.9-52.8,74.2-101.1S819.1,373,819.1,373z"/>
			<g>
				<path class="st2" d="M323.7,299.5c0,0-20.4-3.9-36,5.5c-15.6,9.4-20.5,23-20.5,23l-3.7,10.3l-1.6,12.9l2,14.8
					c0,0,2.4,6.6,5.7,10.9c3.2,4.3,14,17.5,25.2,23.2c0,0,12.2,7.1,18.1-0.6l14.1-9.1l10.5-3.4l8.1-0.5c0,0,9.1,4.5,13.1-1.2
					c0,0,13.8-18,11.7-28.6c0,0,2.1-20.8-8.2-34.6c0,0-7.6-13.5-23.5-19.2C323.1,297.2,323.7,299.5,323.7,299.5z"/>
				<path class="st2" d="M552,299.5c0,0,20.4-3.9,36,5.5c15.6,9.4,20.5,23,20.5,23l3.7,10.3l1.6,12.9l-2,14.8c0,0-2.4,6.6-5.7,10.9
					c-3.2,4.3-14,17.5-25.2,23.2c0,0-12.2,7.1-18.1-0.6l-14.1-9.1l-10.5-3.4l-8.1-0.5c0,0-9.1,4.5-13.1-1.2c0,0-13.8-18-11.7-28.6
					c0,0-2.1-20.8,8.2-34.6c0,0,7.6-13.5,23.5-19.2C552.7,297.2,552,299.5,552,299.5z"/>
				<path class="st3" d="M365.1,218.1c0,0-19.1-68.2-51.2-67.2s-40.1,28.1-47.2,28.1S175.4,73.6,135.3,85.6
					c-24.1,11-12,64.2,22.1,90.3c0,0-23.1,36.1,17.1,66.2"/>
				<path class="st3" d="M437.4,103.7c-13.1,0-81.5,7.7-112.5,49.5"/>
				<path class="st3" d="M381.1,237.2c0,0,29.2,36.1,56.3,36.1"/>
				<path class="st3" d="M361.1,263.3c0,0,32.1,49.2,76.3,49.2"/>
				<path class="st3" d="M234.6,255.2c9.9-0.7,6.1-12.4,0.8-16.7c-7.8-6.3-20.8-3.7-26.9,3.6c-10.5,12.6,3,30.4,17,31.8
					c10.9,1.1,21.7-6.2,27.4-15c11.9-18.4,4.4-43.8-18.3-48c-22.1-4-39.1,6-53.2,21.1s-6,65.2,34.1,74.3c16.8,3.8,34.1,3.1,51,0.6
					c14.9-2.1,29.8-7.2,44.8-8c28-1.5,53.4,14.3,73.8,31.4c25.1,21.1,38.1,27.1,52.2,27.1c0,0-41.7-0.3-58.7,28"/>
				<path class="st3" d="M289.8,245.2c0-3.5-5-9-12.5-8c-7.5,1-14.1,9-13,18.1c0.9,7.9,7,13.3,14.9,14.1
					c18.1,1.7,27.4-19.2,22.4-34.1c-7.3-21.6-30.3-21.7-47-10.5"/>
				<path class="st3" d="M331.6,257.1c0-3.5-5-9-12.5-8c-7.5,1-14.1,9-13,18.1c0.9,7.9,7,13.3,14.9,14.1
					c18.1,1.7,27.4-19.2,22.4-34.1c-6.4-18.9-24.8-21.4-40.5-14.2"/>
				<path class="st3" d="M437.4,427.3c-5.5,0-21.1-7-30.6-19.6c-9.5-12.5-19.6-23.6-34.6-22.1c-15.1,1.5-30.6,16.1-30.1,35.6
					c0.5,19.6,14.1,25.6,14.1,25.6"/>
				<path class="st3" d="M297.4,416.2c0,0,29.7-42.3,61.5-25.9"/>
				<path class="st3" d="M215.6,306.4c0,0,25.1,10.7,36.6,38.5c11.5,27.8,31.6,57.9,56.2,58.9"/>
				<path class="st3" d="M182.5,281.3c0,0-37.7,8.2-29.7,63.6c0,0-31.1,24.3-25.6,58.9s27.3,47.2,27.3,47.2"/>
				<path class="st3" d="M265.7,371.1c-2.4-6.2-3.7-12.9-3.7-19.9c0-22.3,13.4-41.5,32.7-49.9"/>
				<path class="st3" d="M345.8,305.4c15.1,9.7,25.1,26.6,25.1,45.9c0,14.6-5.8,27.9-15.1,37.7"/>
				<path class="st3" d="M194,428.9c-5-4.5-13.5-14.1-11.5-25.1c2.1-11,24-14.8,28.1,0c5,31.1,62.7,103.4,142.5,103.4
					s85.3-44.7,85.3-44.7c-32.6,0-45.2-20.6-45.7-25.6s-4.5-18.1-19.1-16.6c-14.6,1.5-11,24.6-6.5,26.6"/>
				<path class="st3" d="M417.8,461.5c0,0-5,28.6-59.5,28.6c-29.6,0-59.2-8.8-83.3-26.2c-14.2-10.3-25.4-24-34.7-38.8
					c-8.3-13.2-13.9-33.2-26.7-42.7c-15.3-11.4-37.3-3.8-45.6,12.4c-7.8,15.4-2.2,34.5,10.4,45.5"/>
				<path class="st3" d="M239.5,453.1c0,0-43.4,43.7-106.5,15.5c-3.8-1.7-3.5-7.2,0.5-8.5c20.5-6.8,64.1-24,78.1-51.8"/>
				<path class="st3" d="M88.6,306.4c0,0-6.5,17.6,8,20.1c14.6,2.5,20.1-16.6,12.5-25.1s-24.6-11-36.1,5s6.5,41.3,27.6,38.5
					c21.1-2.8,37.6-17.4,36.1-43.5s-31.6-40.6-50.7-38.1C67,265.8,36.4,280.8,35.4,328c-1,47.2,51.2,66.7,73.8,61"/>
				<path class="st3" d="M72.6,361.1c0,0,20.7,22.7,57.8,11.9"/>
				<path class="st3" d="M86.1,342.5c0,0,13.3,20.2,56.5,12.6"/>
				<path class="st3" d="M118.1,339.1c0,0,18.6,2.9,33.7-12.7"/>
				<path class="st3" d="M130.3,237.2c0,0,5.9-5,2.4-14.6s-16.6-10.2-24.1-5.4s-11.8,30,9.4,36c21.2,6,34.2-13,33.7-24.1
					c-0.5-11.1-5-37.7-40.6-34.1S69,245.2,86.1,263.3"/>
				<path class="st3" d="M134.9,292.1c0,0,16.9,3.8,29.5,0.5"/>
				<path class="st3" d="M118.1,194.7c0,0-2.3-27.8,30.3-26.8"/>
				<path class="st3" d="M438.4,462.5v51.7c0,0-16.6,12-39.1,5.5v-19.5"/>
				<path class="st3" d="M399.2,519.7c-10.5,10.5-28.4,5-28.4,5c-17.3,12-30.5,0-30.5,0v-18.2c0,0-18.1,24-27.5,40.2
					c-0.8,1.4-2.8,1.1-3.3-0.4c-2.2-7.5-6-24.9-1.2-46.9"/>
				<line class="st3" x1="370.9" y1="524.7" x2="370.9" y2="507.1"/>
				<path class="st3" d="M370.9,84.6c6,11,21.6,12.1,30.4,3.9c13.2-12.2-2.6-21.4-15.2-20.5c-11.4,0.8-22.5,6-27.8,16.6
					c-9.8,19.5,26.6,28,40.9,24.9c14.3-3.1,34.1-16.4,38.1-39S395.2,36.4,365.1,49s-37,25.1-37,25.1"/>
				<path class="st3" d="M308.4,124.8c0,0,12.3,6.5,19.7,0c7.4-6.5,9.1-24.6-3.3-25.6c-12.4-1-25.5,10-27.5,24.1
					s16.3,24.8,36.6,14.6s22.2-33.1,21.7-36.6S355.1,79.9,338,77s-56.2-1.4-64.7,40.7"/>
				<path class="st3" d="M288.8,138.8c0,0-13.5-3.9-21.1,3.1c-7.5,7-6.5,28.6,12.3,24.3"/>
				<path class="st3" d="M297.4,153.2c0,0,4.3-10.2,2.2-20.1c-2.2-9.9-14.2-19.9-33.3-12.4c-19.1,7.5-21.7,30-22.4,36.8"/>
				<path class="st3" d="M331.9,69.4c-11.6-20.7,13.7-46.1,45.3-47.6s28.6,22.9,28.6,22.9"/>
				<path class="st3" d="M275.3,110.2c0,0-12-25.3,5.5-40.7s37-10.8,44-5.4c7,5.4,7,5.4,7,5.4"/>
				<path class="st3" d="M437.6,23.9c-5.3,0-27.5,0.5-31.9,16.6"/>
				<path class="st3" d="M437.6,8.3c-4.3,0-29.4-1-40.4,15.6"/>
				<path class="st3" d="M271.3,96.6c0,0-24.1-3-37.6,12.3s-11.3,27.1-11.3,27.1"/>
				<path class="st3" d="M266.3,120.7c0,0-6.6-8.8-22.4-2.6c-15.8,6.1-8.7,30.7-8.7,30.7"/>
				<path class="st3" d="M308,728.3c0,0,23.7,9.5,36.6-5c3.6-4.1-8.6-19-10.7-22.4c-2-3.4-15.3-29.8-10.2-32.8
					C323.7,668.1,303.1,680.2,308,728.3z"/>
				<path class="st3" d="M223.6,462.5c0,0,54.5,164.9,87.2,225.6"/>
				<path class="st3" d="M208.3,472.1c0,0,72.1,183.4,99.2,248.2c0,0-10.1,19.1,6,25.1c16.1,6,35.1-4,44.9-23.1
					c9.8-19.1,62-25.1,79-25.1"/>
				<path class="st3" d="M328.9,690.6c0,0,6.6-21.6,32.2-16.1c0,0,12.5-15.1,33.1-6.5c0,0,23.1-14.8,43.2-2.6v13.2
					c-71.3,0-97,31.5-97,31.5"/>
				<line class="st3" x1="361.1" y1="674.6" x2="361.1" y2="694"/>
				<line class="st3" x1="394.2" y1="668.1" x2="394.2" y2="682.4"/>
				<path class="st3" d="M437.4,719.8c-9,0-40.2-1.5-58.2,15.6c0,0-11.5,150-148.5,116.4c-48.1-13-53.2-75.3-32.6-98.4
					c20.6-23.1,57.2-27.1,76.3-9.5s18.1,69.3-19.6,69.3s-33.6-30.6-33.6-34.1s9-25.6,29.6-17.6c20.6,8,16.1,35.6,1.5,34.1
					c-14.6-1.5-14.9-12-12.7-17.6"/>
				<path class="st3" d="M358.9,758.4c0,0-15.9,74.3-72.1,83.8c-38.1,6-60.7-12-60.7-12"/>
				<path class="st3" d="M340.4,767.9c0,0-14.1,43.7-47.9,52.2c-33.8,8.5-51.2-4.5-59-11.9"/>
				<path class="st3" d="M273.5,807.2c35.4-4.9,42.9-39.3,42.9-39.3s-23-3.8-38.1-19.5c-15.1-15.7-13.6-36.3-13.6-36.3
					s-28.9-10.5-31.3-40.6c-2.9-22.7-57.1-154.5-81.7-179.5"/>
				<path class="st3" d="M182,509.6c8.4,1,18.3-1.6,14.9-12.5c-2.7-8.6-14.3-10.2-21.7-7.5c-6.2,2.3-8.3,7.1-8.4,13.5
					c-0.2,15.1,12.1,22.7,26.2,21.6"/>
				<path class="st3" d="M208.7,542.8c8.4,1,18.3-1.6,14.9-12.5c-2.7-8.6-14.3-10.2-21.7-7.5c-6.2,2.3-8.3,7.1-8.4,13.5
					c-0.2,15.1,12.1,22.7,26.2,21.6c0,0,13.7-0.1,18.6-6.9"/>
				<path class="st3" d="M186.6,477.4c0,0,2.5,13.6,15,14.6"/>
				<path class="st3" d="M56.2,373c-22.5,20.1-39,53.2-31,83.7c7.4,28.2,32.2,51.8,53,70.8c17.9,16.5,37.2,132.7,56.8,147.1
					c38.5,28.1,56.9,78.7,57.5,87.3"/>
				<path class="st3" d="M46.2,408.4c-6.7,15.3-9.4,32.2-5.1,48.3c7.4,28.2,32.2,51.8,53,70.8c17.9,16.5,37.2,132.7,56.8,147.1
					c28.3,20.7,45.8,53.6,53.2,72.9"/>
				<path class="st3" d="M66.1,400.3c-9.6,17.3-14.2,37.4-9.2,56.5c7.4,28.2,32.2,51.8,53,70.8c17.9,16.5,37.2,132.7,56.8,147.1
					c24.1,17.6,40.2,43.9,49.2,63.3"/>
				<path class="st3" d="M76.8,410.9c-5.9,14.6-8.1,30.5-4.1,45.8c7.4,28.2,32.2,51.8,53,70.8c17.9,16.5,37.2,132.7,56.8,147.1
					c22.7,16.6,38.4,41,47.6,59.9"/>
				<path class="st3" d="M89,422.1c-2.9,11.4-3.4,23.2-0.4,34.6c7.4,28.2,32.2,51.8,53,70.8c17.9,16.5,37.2,132.7,56.8,147.1
					c22.1,16.1,37.5,39.6,46.8,58.4"/>
				<path class="st3" d="M102.5,443.2c0.2,4.5,0.8,9,2,13.5c7.4,28.2,32.2,51.8,53,70.8c17.9,16.5,37.2,132.7,56.8,147.1
					c23.5,17.2,39.5,42.8,48.6,62"/>
				<path class="st3" d="M438.6,817.9c0,0-24.2-29.4-67.7-41"/>
				<path class="st3" d="M438.6,848.2c0,0-36.3-35.1-79.7-46.6"/>
				<path class="st3" d="M510.2,218.1c0,0,19.1-68.2,51.2-67.2s40.1,28.1,47.2,28.1S699.8,73.6,740,85.6c24.1,11,12,64.2-22.1,90.3
					c0,0,23.1,36.1-17.1,66.2"/>
				<path class="st3" d="M437.9,103.7c13.1,0,81.5,7.7,112.5,49.5"/>
				<path class="st3" d="M494.1,237.2c0,0-29.2,36.1-56.3,36.1"/>
				<path class="st3" d="M514.2,263.3c0,0-32.1,49.2-76.3,49.2"/>
				<path class="st3" d="M640.6,255.2c-9.9-0.7-6.1-12.4-0.8-16.7c7.8-6.3,20.8-3.7,26.9,3.6c10.5,12.6-3,30.4-17,31.8
					c-10.9,1.1-21.7-6.2-27.4-15c-11.9-18.4-4.4-43.8,18.3-48c22.1-4,39.1,6,53.2,21.1s6,65.2-34.1,74.3c-16.8,3.8-34.1,3.1-51,0.6
					c-14.9-2.1-29.8-7.2-44.8-8c-28-1.5-53.4,14.3-73.8,31.4c-25.1,21.1-38.1,27.1-52.2,27.1c0,0,41.7-0.3,58.7,28"/>
				<path class="st3" d="M585.4,245.2c0-3.5,5-9,12.5-8c7.5,1,14.1,9,13,18.1c-0.9,7.9-7,13.3-14.9,14.1
					c-18.1,1.7-27.4-19.2-22.4-34.1c7.3-21.6,30.3-21.7,47-10.5"/>
				<path class="st3" d="M543.6,257.1c0-3.5,5-9,12.5-8c7.5,1,14.1,9,13,18.1c-0.9,7.9-7,13.3-14.9,14.1
					c-18.1,1.7-27.4-19.2-22.4-34.1c6.4-18.9,24.8-21.4,40.5-14.2"/>
				<path class="st3" d="M437.9,427.3c5.5,0,21.1-7,30.6-19.6c9.5-12.5,19.6-23.6,34.6-22.1s30.6,16.1,30.1,35.6
					s-14.1,25.6-14.1,25.6"/>
				<path class="st3" d="M577.9,416.2c0,0-29.7-42.3-61.5-25.9"/>
				<path class="st3" d="M659.7,306.4c0,0-25.1,10.7-36.6,38.5c-11.5,27.8-31.6,57.9-56.2,58.9"/>
				<path class="st3" d="M692.8,281.3c0,0,37.7,8.2,29.7,63.6c0,0,31.1,24.3,25.6,58.9c-5.5,34.6-27.3,47.2-27.3,47.2"/>
				<path class="st3" d="M609.5,371.1c2.4-6.2,3.7-12.9,3.7-19.9c0-22.3-13.4-41.5-32.7-49.9"/>
				<path class="st3" d="M529.5,305.4c-15.1,9.7-25.1,26.6-25.1,45.9c0,14.6,5.8,27.9,15.1,37.7"/>
				<path class="st3" d="M681.3,428.9c5-4.5,13.5-14.1,11.5-25.1c-2.1-11-24-14.8-28.1,0c-5,31.1-62.7,103.4-142.5,103.4
					s-83.8-44.7-83.8-44.7c32.6,0,43.7-20.6,44.2-25.6c0.5-5,4.5-18.1,19.1-16.6c14.6,1.5,11,24.6,6.5,26.6"/>
				<path class="st3" d="M457.5,461.5c0,0,5,28.6,59.5,28.6c29.6,0,59.2-8.8,83.3-26.2c14.2-10.3,25.4-24,34.7-38.8
					c8.3-13.2,13.9-33.2,26.7-42.7c15.3-11.4,37.3-3.8,45.6,12.4c7.8,15.4,2.2,34.5-10.4,45.5"/>
				<path class="st3" d="M635.8,453.1c0,0,43.4,43.7,106.5,15.5c3.8-1.7,3.5-7.2-0.5-8.5c-20.5-6.8-64.1-24-78.1-51.8"/>
				<path class="st3" d="M786.7,306.4c0,0,6.5,17.6-8,20.1c-14.6,2.5-20.1-16.6-12.5-25.1s24.6-11,36.1,5
					c11.5,16.1-6.5,41.3-27.6,38.5c-21.1-2.8-37.6-17.4-36.1-43.5c1.5-26.1,31.6-40.6,50.7-38.1c19.1,2.5,49.7,17.6,50.7,64.7
					s-51.2,66.7-73.8,61"/>
				<path class="st3" d="M802.7,361.1c0,0-20.7,22.7-57.8,11.9"/>
				<path class="st3" d="M789.1,342.5c0,0-13.3,20.2-56.5,12.6"/>
				<path class="st3" d="M757.2,339.1c0,0-18.6,2.9-33.7-12.7"/>
				<path class="st3" d="M744.9,237.2c0,0-5.9-5-2.4-14.6s16.6-10.2,24.1-5.4c7.5,4.9,11.8,30-9.4,36c-21.2,6-34.2-13-33.7-24.1
					s5-37.7,40.6-34.1s42.2,50.2,25.1,68.2"/>
				<path class="st3" d="M740.3,292.1c0,0-16.9,3.8-29.5,0.5"/>
				<path class="st3" d="M757.2,194.7c0,0,2.3-27.8-30.3-26.8"/>
				<path class="st3" d="M438.4,462.5v51.7c0,0,15.1,12,37.6,5.5v-19.5"/>
				<path class="st3" d="M476,519.7c10.5,10.5,28.4,5,28.4,5c17.3,12,30.5,0,30.5,0v-18.2c0,0,18.1,24,27.5,40.2
					c0.8,1.4,2.8,1.1,3.3-0.4c2.2-7.5,6-24.9,1.2-46.9"/>
				<line class="st3" x1="504.4" y1="524.7" x2="504.4" y2="507.1"/>
				<path class="st3" d="M504.4,84.6c-6,11-21.6,12.1-30.4,3.9c-13.2-12.2,2.6-21.4,15.2-20.5c11.4,0.8,22.5,6,27.8,16.6
					c9.8,19.5-26.6,28-40.9,24.9c-14.3-3.1-34.1-16.4-38.1-39S480,36.4,510.2,49s37,25.1,37,25.1"/>
				<path class="st3" d="M566.8,124.8c0,0-12.3,6.5-19.7,0c-7.4-6.5-9.1-24.6,3.3-25.6c12.4-1,25.5,10,27.5,24.1
					c2,14.1-16.3,24.8-36.6,14.6c-20.2-10.2-22.2-33.1-21.7-36.6s0.5-21.3,17.6-24.2s56.2-1.4,64.7,40.7"/>
				<path class="st3" d="M586.4,138.8c0,0,13.5-3.9,21.1,3.1s6.5,28.6-12.3,24.3"/>
				<path class="st3" d="M577.9,153.2c0,0-4.3-10.2-2.2-20.1c2.2-9.9,14.2-19.9,33.3-12.4c19.1,7.5,21.7,30,22.4,36.8"/>
				<path class="st3" d="M543.4,69.4c11.6-20.7-13.7-46.1-45.3-47.6s-28.6,22.9-28.6,22.9"/>
				<path class="st3" d="M600,110.2c0,0,12-25.3-5.5-40.7s-37-10.8-44-5.4s-7,5.4-7,5.4"/>
				<path class="st3" d="M437.6,23.9c5.3,0,27.5,0.5,31.9,16.6"/>
				<path class="st3" d="M437.6,8.3c4.3,0,29.4-1,40.4,15.6"/>
				<path class="st3" d="M604,96.6c0,0,24.1-3,37.6,12.3c13.5,15.3,11.3,27.1,11.3,27.1"/>
				<path class="st3" d="M609,120.7c0,0,6.6-8.8,22.4-2.6c15.8,6.1,8.7,30.7,8.7,30.7"/>
				<path class="st3" d="M567.2,728.3c0,0-23.7,9.5-36.6-5c-3.6-4.1,8.6-19,10.7-22.4c2-3.4,15.3-29.8,10.2-32.8
					C551.6,668.1,572.1,680.2,567.2,728.3z"/>
				<path class="st3" d="M651.7,462.5c0,0-54.5,164.9-87.2,225.6"/>
				<path class="st3" d="M667,472.1c0,0-72.1,183.4-99.2,248.2c0,0,10.1,19.1-6,25.1c-16.1,6-35.1-4-44.9-23.1
					c-9.8-19.1-62.5-25.1-79.5-25.1"/>
				<path class="st3" d="M546.4,690.6c0,0-6.6-21.6-32.2-16.1c0,0-12.5-15.1-33.1-6.5c0,0-23.6-14.8-43.7-2.6v13.2
					c71.3,0,97.5,31.5,97.5,31.5"/>
				<line class="st3" x1="514.2" y1="674.6" x2="514.2" y2="694"/>
				<line class="st3" x1="481" y1="668.1" x2="481" y2="682.4"/>
				<path class="st3" d="M437.4,719.8c9,0,40.6-1.5,58.7,15.6c0,0,11.5,150,148.5,116.4c48.1-13,53.2-75.3,32.6-98.4
					c-20.6-23.1-57.2-27.1-76.3-9.5s-18.1,69.3,19.6,69.3c37.6,0,33.6-30.6,33.6-34.1s-9-25.6-29.6-17.6c-20.6,8-16.1,35.6-1.5,34.1
					c14.6-1.5,14.9-12,12.7-17.6"/>
				<path class="st3" d="M516.4,758.4c0,0,15.9,74.3,72.1,83.8c38.1,6,60.7-12,60.7-12"/>
				<path class="st3" d="M534.9,767.9c0,0,14.1,43.7,47.9,52.2c33.8,8.5,51.2-4.5,59-11.9"/>
				<path class="st3" d="M601.8,807.2c-35.4-4.9-42.9-39.3-42.9-39.3s23-3.8,38.1-19.5s13.6-36.3,13.6-36.3s28.9-10.5,31.3-40.6
					c2.9-22.7,57.1-154.5,81.7-179.5"/>
				<path class="st3" d="M691.8,509.6c-8.4,1-18.3-1.6-14.9-12.5c2.7-8.6,14.3-10.2,21.7-7.5c6.2,2.3,8.3,7.1,8.4,13.5
					c0.2,15.1-12.1,22.7-26.2,21.6"/>
				<path class="st3" d="M665.1,542.8c-8.4,1-18.3-1.6-14.9-12.5c2.7-8.6,14.3-10.2,21.7-7.5c6.2,2.3,8.3,7.1,8.4,13.5
					c0.2,15.1-12.1,22.7-26.2,21.6c0,0-13.7-0.1-18.6-6.9"/>
				<path class="st3" d="M688.7,477.4c0,0-2.5,13.6-15,14.6"/>
				<path class="st3" d="M819.1,373c22.5,20.1,39,53.2,31,83.7c-7.4,28.2-32.2,51.8-53,70.8C779.2,544,760,660.2,740.3,674.6
					c-38.5,28.1-56.9,78.7-57.5,87.3"/>
				<path class="st3" d="M829.1,408.4c6.7,15.3,9.4,32.2,5.1,48.3c-7.4,28.2-32.2,51.8-53,70.8c-17.9,16.5-37.2,132.7-56.8,147.1
					c-28.3,20.7-45.8,53.6-53.2,72.9"/>
				<path class="st3" d="M809.2,400.3c9.6,17.3,14.2,37.4,9.2,56.5c-7.4,28.2-32.2,51.8-53,70.8c-17.9,16.5-37.2,132.7-56.8,147.1
					c-24.1,17.6-40.2,43.9-49.2,63.3"/>
				<path class="st3" d="M798.4,410.9c5.9,14.6,8.1,30.5,4.1,45.8c-7.4,28.2-32.2,51.8-53,70.8c-17.9,16.5-37.2,132.7-56.8,147.1
					c-22.7,16.6-38.4,41-47.6,59.9"/>
				<path class="st3" d="M786.3,422.1c2.9,11.4,3.4,23.2,0.4,34.6c-7.4,28.2-32.2,51.8-53,70.8c-17.9,16.5-37.2,132.7-56.8,147.1
					c-22.1,16.1-37.5,39.6-46.8,58.4"/>
				<path class="st3" d="M772.7,443.2c-0.2,4.5-0.8,9-2,13.5c-7.4,28.2-32.2,51.8-53,70.8C699.8,544,680.6,660.2,661,674.6
					c-23.5,17.2-39.5,42.8-48.6,62"/>
				<path class="st3" d="M438.6,817.9c0,0,22.4-29.4,65.8-41"/>
				<path class="st3" d="M438.6,848.2c0,0,34.4-35.1,77.8-46.6"/>
			</g>
			<rect x="36.5" y="504.4" class="st4" width="802.3" height="174.2"/>
			<path class="st1" d="M194,428.9c-5-4.5-13.5-14.1-11.5-25.1c2.1-11,24-14.8,28.1,0c5,31.1,62.7,103.4,142.5,103.4
				s85.3-44.7,85.3-44.7c-32.6,0-45.2-20.6-45.7-25.6s-4.5-18.1-19.1-16.6c-14.6,1.5-11,24.6-6.5,26.6"/>
			<line class="st1" x1="370.9" y1="524.7" x2="370.9" y2="507.1"/>
			<path class="st5" d="M308,728.3c0,0,23.7,9.5,36.6-5c3.6-4.1-8.6-19-10.7-22.4c-2-3.4-15.3-29.8-10.2-32.8
				C323.7,668.1,303.1,680.2,308,728.3z"/>
			<path class="st5" d="M328.9,690.6c0,0,6.6-21.6,32.2-16.1c0,0,12.5-15.1,33.1-6.5c0,0,23.1-14.8,43.2-2.6v13.2
				c-71.3,0-97,31.5-97,31.5"/>
			<line class="st1" x1="361.1" y1="674.6" x2="361.1" y2="694"/>
			<line class="st1" x1="394.2" y1="668.1" x2="394.2" y2="682.4"/>
			<path class="st1" d="M681.3,428.9c5-4.5,13.5-14.1,11.5-25.1c-2.1-11-24-14.8-28.1,0c-5,31.1-62.7,103.4-142.5,103.4
				s-83.8-44.7-83.8-44.7c32.6,0,43.7-20.6,44.2-25.6c0.5-5,4.5-18.1,19.1-16.6c14.6,1.5,11,24.6,6.5,26.6"/>
			<path class="st5" d="M476,500.2v19.5c-22.6,6.5-37.6-5.5-37.6-5.5v-51.7l2.3,9.6l4.2,6l9.4,10.3l7.6,5.4l10.8,5.3L476,500.2z"/>
			<path class="st5" d="M476,500.2v19.5c10.5,10.5,28.4,5,28.4,5c17.3,12,30.5,0,30.5,0v-18.2c0,0,18.1,24,27.5,40.2
				c0.8,1.4,2.8,1.1,3.3-0.4c2.2-7.5,6-24.9,1.2-46.9c0,0-20.9,6.7-28.4,6.7c-7.5,0-28.3,1-28.3,1l-24.6-3.9L476,500.2z"/>
			<path class="st5" d="M400.7,500.2v19.5c22.6,6.5,37.6-5.5,37.6-5.5v-51.7l-2.3,9.6l-4.2,6l-9.4,10.3l-7.6,5.4l-10.8,5.3
				L400.7,500.2z"/>
			<path class="st5" d="M400.7,500.2v19.5c-10.5,10.5-28.4,5-28.4,5c-17.3,12-30.5,0-30.5,0v-18.2c0,0-18.1,24-27.5,40.2
				c-0.8,1.4-2.8,1.1-3.3-0.4c-2.2-7.5-6-24.9-1.2-46.9c0,0,20.9,6.7,28.4,6.7c7.5,0,28.3,1,28.3,1l24.6-3.9L400.7,500.2z"/>
			<line class="st1" x1="504.4" y1="524.7" x2="504.4" y2="507.1"/>
			<path class="st5" d="M567.2,728.3c0,0-23.7,9.5-36.6-5c-3.6-4.1,8.6-19,10.7-22.4c2-3.4,15.3-29.8,10.2-32.8
				C551.6,668.1,572.1,680.2,567.2,728.3z"/>
			<path class="st5" d="M546.4,690.6c0,0-6.6-21.6-32.2-16.1c0,0-12.5-15.1-33.1-6.5c0,0-23.6-14.8-43.7-2.6v13.2
				c71.3,0,97.5,31.5,97.5,31.5"/>
			<line class="st1" x1="514.2" y1="674.6" x2="514.2" y2="694"/>
			<line class="st1" x1="481" y1="668.1" x2="481" y2="682.4"/>
			<path class="st3" d="M438.4,462.5v51.7c0,0-16.6,12-39.1,5.5v-19.5"/>
			<path class="st3" d="M399.2,519.7c-10.5,10.5-28.4,5-28.4,5c-17.3,12-30.5,0-30.5,0v-18.2c0,0-18.1,24-27.5,40.2
				c-0.8,1.4-2.8,1.1-3.3-0.4c-2.2-7.5-6-24.9-1.2-46.9"/>
			<line class="st3" x1="370.9" y1="524.7" x2="370.9" y2="507.1"/>
			<path class="st3" d="M308,728.3c0,0,23.7,9.5,36.6-5c3.6-4.1-8.6-19-10.7-22.4c-2-3.4-15.3-29.8-10.2-32.8
				C323.7,668.1,303.1,680.2,308,728.3z"/>
			<path class="st3" d="M328.9,690.6c0,0,6.6-21.6,32.2-16.1c0,0,12.5-15.1,33.1-6.5c0,0,23.1-14.8,43.2-2.6v13.2
				c-71.3,0-97,31.5-97,31.5"/>
			<line class="st3" x1="361.1" y1="674.6" x2="361.1" y2="694"/>
			<line class="st3" x1="394.2" y1="668.1" x2="394.2" y2="682.4"/>
			<path class="st3" d="M438.4,462.5v51.7c0,0,15.1,12,37.6,5.5v-19.5"/>
			<path class="st3" d="M476,519.7c10.5,10.5,28.4,5,28.4,5c17.3,12,30.5,0,30.5,0v-18.2c0,0,18.1,24,27.5,40.2
				c0.8,1.4,2.8,1.1,3.3-0.4c2.2-7.5,6-24.9,1.2-46.9"/>
			<line class="st3" x1="504.4" y1="524.7" x2="504.4" y2="507.1"/>
			<path class="st3" d="M567.2,728.3c0,0-23.7,9.5-36.6-5c-3.6-4.1,8.6-19,10.7-22.4c2-3.4,15.3-29.8,10.2-32.8
				C551.6,668.1,572.1,680.2,567.2,728.3z"/>
			<path class="st3" d="M546.4,690.6c0,0-6.6-21.6-32.2-16.1c0,0-12.5-15.1-33.1-6.5c0,0-23.6-14.8-43.7-2.6v13.2
				c71.3,0,97.5,31.5,97.5,31.5"/>
			<line class="st3" x1="514.2" y1="674.6" x2="514.2" y2="694"/>
			<line class="st3" x1="481" y1="668.1" x2="481" y2="682.4"/>
			<path class="st5" d="M239.5,453.1c0,0-43.4,43.7-106.5,15.5c-3.8-1.7-3.5-7.2,0.5-8.5c20.5-6.8,64.1-24,78.1-51.8l4,10.3
				l8.5,14.9l7.8,10.7L239.5,453.1z"/>
			<path class="st3" d="M635.8,453.1c0,0,43.4,43.7,106.5,15.5c3.8-1.7,3.5-7.2-0.5-8.5c-20.5-6.8-64.1-24-78.1-51.8"/>
			<path class="st3" d="M239.5,453.1c0,0-43.4,43.7-106.5,15.5c-3.8-1.7-3.5-7.2,0.5-8.5c20.5-6.8,64.1-24,78.1-51.8"/>
			<path class="st5" d="M637.3,453.1c0,0,43.4,43.7,106.5,15.5c3.8-1.7,3.5-7.2-0.5-8.5c-20.5-6.8-64.1-24-78.1-51.8l-4,10.3
				l-8.5,14.9l-7.8,10.7L637.3,453.1z"/>
			<path class="st3" d="M637.3,453.1c0,0,43.4,43.7,106.5,15.5c3.8-1.7,3.5-7.2-0.5-8.5c-20.5-6.8-64.1-24-78.1-51.8"/>
			<path class="st3" d="M194,428.9c-5-4.5-13.5-14.1-11.5-25.1c2.1-11,24-14.8,28.1,0c5,31.1,62.7,103.4,142.5,103.4
				s85.3-44.7,85.3-44.7c-32.6,0-45.2-20.6-45.7-25.6s-4.5-18.1-19.1-16.6c-14.6,1.5-11,24.6-6.5,26.6"/>
			<path class="st3" d="M681.3,428.9c5-4.5,13.5-14.1,11.5-25.1c-2.1-11-24-14.8-28.1,0c-5,31.1-62.7,103.4-142.5,103.4
				s-83.8-44.7-83.8-44.7c32.6,0,43.7-20.6,44.2-25.6c0.5-5,4.5-18.1,19.1-16.6c14.6,1.5,11,24.6,6.5,26.6"/>
		</g>
	</g>
	<g>
		<defs>
			<rect id="SVGID_00000180360480481919494440000010679672255311442344_" x="-135" y="779.5" width="1145.3" height="530.3"/>
		</defs>
		<clipPath id="SVGID_00000131332089771484991110000004720630864116510108_">
			<use xlink:href="#SVGID_00000180360480481919494440000010679672255311442344_"  style="overflow:visible;"/>
		</clipPath>
		<g style="clip-path:url(#SVGID_00000131332089771484991110000004720630864116510108_);">
			<path class="st1" d="M819.1,506.7c0,0,28.7-14.2,19.2-60.6c-9.5-46.4-49.1-49.2-49.1-49.2c14.2-16.7,9-34.3,9-34.3
				c-7.3-39.1-41-34.3-41-34.3c1.2-29.4-30.3-26.8-30.3-26.8c34.7-30.3,34.1-96.4,0-83.4c-34.1,13-74,51.6-74,51.6
				s-2.1-12.6-11.3-27.1c-9.3-14.6-37.6-12.3-37.6-12.3s5.4-23.2-19.8-34.1c-25.2-10.9-40.8,6.8-40.8,6.8
				c8.8-20-12.7-37.3-12.7-37.3c-28.9-17.4-52.6-8.3-52.6-8.3c-10.4-20.2-40.4-15.6-40.4-15.6s-30-4.6-40.4,15.6
				c0,0-23.7-9.1-52.6,8.3c0,0-21.5,17.2-12.7,37.3c0,0-15.6-17.7-40.8-6.8c-25.2,10.9-19.8,34.1-19.8,34.1s-28.4-2.3-37.6,12.3
				c-9.3,14.6-11.3,27.1-11.3,27.1s-39.9-38.5-74-51.6c-34.1-13-34.7,53.1,0,83.4c0,0-31.4-2.7-30.3,26.8c0,0-33.7-4.8-41,34.3
				c0,0-5.2,17.5,9,34.3c0,0-39.6,2.8-49.1,49.2c-9.5,46.4,19.2,60.6,19.2,60.6s-33.4,22-33.1,70.2S97.4,678,97.4,678
				s44.8,134.1,54.5,145.2c9.6,11.1,32.9,35,40.6,72.4c0,0-15.2,26.4,1.7,59.8c16.9,33.4,81.2,49,132.2,17.6
				c0,0,20.6-13.1,32.6-37.7c0,0,47.3,15.6,74.5,41.3l3.3,5.3c0.3-0.3,0.6-0.7,0.9-1c0.3,0.3,0.6,0.7,0.9,1l3.3-5.3
				c27.2-25.7,74.5-41.3,74.5-41.3c12,24.6,32.6,37.7,32.6,37.7c51,31.3,115.3,15.8,132.2-17.6s1.7-59.8,1.7-59.8
				c7.6-37.4,30.9-61.2,40.6-72.4c9.6-11.1,54.5-145.2,54.5-145.2s73.9-52.8,74.2-101.1S819.1,506.7,819.1,506.7z"/>
			<g>
				<path class="st2" d="M323.7,433.2c0,0-20.4-3.9-36,5.5c-15.6,9.4-20.5,23-20.5,23l-3.7,10.3L262,485l2,14.8
					c0,0,2.4,6.6,5.7,10.9c3.2,4.3,14,17.5,25.2,23.2c0,0,12.2,7.1,18.1-0.6l14.1-9.1l10.5-3.4l8.1-0.5c0,0,9.1,4.5,13.1-1.2
					c0,0,13.8-18,11.7-28.6c0,0,2.1-20.8-8.2-34.6c0,0-7.6-13.5-23.5-19.2C323.1,430.9,323.7,433.2,323.7,433.2z"/>
				<path class="st2" d="M552,433.2c0,0,20.4-3.9,36,5.5c15.6,9.4,20.5,23,20.5,23l3.7,10.3l1.6,12.9l-2,14.8c0,0-2.4,6.6-5.7,10.9
					c-3.2,4.3-14,17.5-25.2,23.2c0,0-12.2,7.1-18.1-0.6l-14.1-9.1l-10.5-3.4l-8.1-0.5c0,0-9.1,4.5-13.1-1.2c0,0-13.8-18-11.7-28.6
					c0,0-2.1-20.8,8.2-34.6c0,0,7.6-13.5,23.5-19.2C552.7,430.9,552,433.2,552,433.2z"/>
				<path class="st3" d="M365.1,351.8c0,0-19.1-68.2-51.2-67.2c-32.1,1-40.1,28.1-47.2,28.1s-91.3-105.4-131.5-93.3
					c-24.1,11-12,64.2,22.1,90.3c0,0-23.1,36.1,17.1,66.2"/>
				<path class="st3" d="M437.4,237.4c-13.1,0-81.5,7.7-112.5,49.5"/>
				<path class="st3" d="M381.1,370.9c0,0,29.2,36.1,56.3,36.1"/>
				<path class="st3" d="M361.1,397c0,0,32.1,49.2,76.3,49.2"/>
				<path class="st3" d="M234.6,388.9c9.9-0.7,6.1-12.4,0.8-16.7c-7.8-6.3-20.8-3.7-26.9,3.6c-10.5,12.6,3,30.4,17,31.8
					c10.9,1.1,21.7-6.2,27.4-15c11.9-18.4,4.4-43.8-18.3-48c-22.1-4-39.1,6-53.2,21.1c-14.1,15.1-6,65.2,34.1,74.3
					c16.8,3.8,34.1,3.1,51,0.6c14.9-2.1,29.8-7.2,44.8-8c28-1.5,53.4,14.3,73.8,31.4c25.1,21.1,38.1,27.1,52.2,27.1
					c0,0-41.7-0.3-58.7,28"/>
				<path class="st3" d="M289.8,378.9c0-3.5-5-9-12.5-8c-7.5,1-14.1,9-13,18.1c0.9,7.9,7,13.3,14.9,14.1
					c18.1,1.7,27.4-19.2,22.4-34.1c-7.3-21.6-30.3-21.7-47-10.5"/>
				<path class="st3" d="M331.6,390.8c0-3.5-5-9-12.5-8c-7.5,1-14.1,9-13,18.1c0.9,7.9,7,13.3,14.9,14.1
					c18.1,1.7,27.4-19.2,22.4-34.1c-6.4-18.9-24.8-21.4-40.5-14.2"/>
				<path class="st3" d="M437.4,561.1c-5.5,0-21.1-7-30.6-19.6c-9.5-12.5-19.6-23.6-34.6-22.1c-15.1,1.5-30.6,16.1-30.1,35.6
					c0.5,19.6,14.1,25.6,14.1,25.6"/>
				<path class="st3" d="M297.4,549.9c0,0,29.7-42.3,61.5-25.9"/>
				<path class="st3" d="M215.6,440.1c0,0,25.1,10.7,36.6,38.5c11.5,27.8,31.6,57.9,56.2,58.9"/>
				<path class="st3" d="M182.5,415c0,0-37.7,8.2-29.7,63.6c0,0-31.1,24.3-25.6,58.9s27.3,47.2,27.3,47.2"/>
				<path class="st3" d="M265.7,504.9c-2.4-6.2-3.7-12.9-3.7-19.9c0-22.3,13.4-41.5,32.7-49.9"/>
				<path class="st3" d="M345.8,439.1c15.1,9.7,25.1,26.6,25.1,45.9c0,14.6-5.8,27.9-15.1,37.7"/>
				<circle class="st7" cx="320" cy="486.3" r="20.4"/>
				<path class="st3" d="M194,562.6c-5-4.5-13.5-14.1-11.5-25.1s24-14.8,28.1,0c5,31.1,62.7,103.4,142.5,103.4s85.3-44.7,85.3-44.7
					c-32.6,0-45.2-20.6-45.7-25.6c-0.5-5-4.5-18.1-19.1-16.6c-14.6,1.5-11,24.6-6.5,26.6"/>
				<path class="st3" d="M417.8,595.2c0,0-5,28.6-59.5,28.6c-29.6,0-59.2-8.8-83.3-26.2c-14.2-10.3-25.4-24-34.7-38.8
					c-8.3-13.2-13.9-33.2-26.7-42.7c-15.3-11.4-37.3-3.8-45.6,12.4c-7.8,15.4-2.2,34.5,10.4,45.5"/>
				<path class="st3" d="M239.5,586.8c0,0-43.4,43.7-106.5,15.5c-3.8-1.7-3.5-7.2,0.5-8.5c20.5-6.8,64.1-24,78.1-51.8"/>
				<path class="st3" d="M88.6,440.1c0,0-6.5,17.6,8,20.1s20.1-16.6,12.5-25.1s-24.6-11-36.1,5s6.5,41.3,27.6,38.5
					c21.1-2.8,37.6-17.4,36.1-43.5s-31.6-40.6-50.7-38.1c-19.1,2.5-49.7,17.6-50.7,64.7c-1,47.2,51.2,66.7,73.8,61"/>
				<path class="st3" d="M72.6,494.8c0,0,20.7,22.7,57.8,11.9"/>
				<path class="st3" d="M86.1,476.2c0,0,13.3,20.2,56.5,12.6"/>
				<path class="st3" d="M118.1,472.8c0,0,18.6,2.9,33.7-12.7"/>
				<path class="st3" d="M130.3,370.9c0,0,5.9-5,2.4-14.6c-3.5-9.5-16.6-10.2-24.1-5.4c-7.5,4.9-11.8,30,9.4,36s34.2-13,33.7-24.1
					c-0.5-11.1-5-37.7-40.6-34.1S69,378.9,86.1,397"/>
				<path class="st3" d="M134.9,425.8c0,0,16.9,3.8,29.5,0.5"/>
				<path class="st3" d="M118.1,328.4c0,0-2.3-27.8,30.3-26.8"/>
				<path class="st3" d="M438.4,596.2v51.7c0,0-16.6,12-39.1,5.5v-19.5"/>
				<path class="st3" d="M399.2,653.4c-10.5,10.5-28.4,5-28.4,5c-17.3,12-30.5,0-30.5,0v-18.2c0,0-18.1,24-27.5,40.2
					c-0.8,1.4-2.8,1.1-3.3-0.4c-2.2-7.5-6-24.9-1.2-46.9"/>
				<line class="st3" x1="370.9" y1="658.4" x2="370.9" y2="640.8"/>
				<path class="st3" d="M370.9,218.4c6,11,21.6,12.1,30.4,3.9c13.2-12.2-2.6-21.4-15.2-20.5c-11.4,0.8-22.5,6-27.8,16.6
					c-9.8,19.5,26.6,28,40.9,24.9c14.3-3.1,34.1-16.4,38.1-39s-42.2-34.1-72.3-21.6s-37,25.1-37,25.1"/>
				<path class="st3" d="M308.4,258.5c0,0,12.3,6.5,19.7,0c7.4-6.5,9.1-24.6-3.3-25.6c-12.4-1-25.5,10-27.5,24.1
					s16.3,24.8,36.6,14.6s22.2-33.1,21.7-36.6s-0.5-21.3-17.6-24.2c-17.1-2.9-56.2-1.4-64.7,40.7"/>
				<path class="st3" d="M288.8,272.5c0,0-13.5-3.9-21.1,3.1c-7.5,7-6.5,28.6,12.3,24.3"/>
				<path class="st3" d="M297.4,286.9c0,0,4.3-10.2,2.2-20.1s-14.2-19.9-33.3-12.4c-19.1,7.5-21.7,30-22.4,36.8"/>
				<path class="st3" d="M331.9,203.1c-11.6-20.7,13.7-46.1,45.3-47.6c31.6-1.5,28.6,22.9,28.6,22.9"/>
				<path class="st3" d="M275.3,243.9c0,0-12-25.3,5.5-40.7s37-10.8,44-5.4c7,5.4,7,5.4,7,5.4"/>
				<path class="st3" d="M437.6,157.6c-5.3,0-27.5,0.5-31.9,16.6"/>
				<path class="st3" d="M437.6,142c-4.3,0-29.4-1-40.4,15.6"/>
				<path class="st3" d="M271.3,230.4c0,0-24.1-3-37.6,12.3s-11.3,27.1-11.3,27.1"/>
				<path class="st3" d="M266.3,254.4c0,0-6.6-8.8-22.4-2.6c-15.8,6.1-8.7,30.7-8.7,30.7"/>
				<path class="st3" d="M308,862c0,0,23.7,9.5,36.6-5c3.6-4.1-8.6-19-10.7-22.4c-2-3.4-15.3-29.8-10.2-32.8
					C323.7,801.8,303.1,813.9,308,862z"/>
				<path class="st3" d="M223.6,596.2c0,0,54.5,164.9,87.2,225.6"/>
				<path class="st3" d="M208.3,605.8c0,0,72.1,183.4,99.2,248.2c0,0-10.1,19.1,6,25.1s35.1-4,44.9-23.1c9.8-19.1,62-25.1,79-25.1"
					/>
				<path class="st3" d="M328.9,824.4c0,0,6.6-21.6,32.2-16.1c0,0,12.5-15.1,33.1-6.5c0,0,23.1-14.8,43.2-2.6v13.2
					c-71.3,0-97,31.5-97,31.5"/>
				<line class="st3" x1="361.1" y1="808.3" x2="361.1" y2="827.7"/>
				<line class="st3" x1="394.2" y1="801.8" x2="394.2" y2="816.1"/>
				<path class="st3" d="M437.4,853.5c-9,0-40.2-1.5-58.2,15.6c0,0-11.5,150-148.5,116.4c-48.1-13-53.2-75.3-32.6-98.4
					c20.6-23.1,57.2-27.1,76.3-9.5c19.1,17.6,18.1,69.3-19.6,69.3s-33.6-30.6-33.6-34.1s9-25.6,29.6-17.6c20.6,8,16.1,35.6,1.5,34.1
					c-14.6-1.5-14.9-12-12.7-17.6"/>
				<path class="st3" d="M358.9,892.1c0,0-15.9,74.3-72.1,83.8c-38.1,6-60.7-12-60.7-12"/>
				<path class="st3" d="M340.4,901.6c0,0-14.1,43.7-47.9,52.2s-51.2-4.5-59-11.9"/>
				<path class="st3" d="M273.5,940.9c35.4-4.9,42.9-39.3,42.9-39.3s-23-3.8-38.1-19.5c-15.1-15.7-13.6-36.3-13.6-36.3
					s-28.9-10.5-31.3-40.6c-2.9-22.7-57.1-154.5-81.7-179.5"/>
				<path class="st3" d="M182,643.4c8.4,1,18.3-1.6,14.9-12.5c-2.7-8.6-14.3-10.2-21.7-7.5c-6.2,2.3-8.3,7.1-8.4,13.5
					c-0.2,15.1,12.1,22.7,26.2,21.6"/>
				<path class="st3" d="M208.7,676.6c8.4,1,18.3-1.6,14.9-12.5c-2.7-8.6-14.3-10.2-21.7-7.5c-6.2,2.3-8.3,7.1-8.4,13.5
					c-0.2,15.1,12.1,22.7,26.2,21.6c0,0,13.7-0.1,18.6-6.9"/>
				<path class="st3" d="M186.6,611.1c0,0,2.5,13.6,15,14.6"/>
				<path class="st3" d="M56.2,506.7c-22.5,20.1-39,53.2-31,83.7c7.4,28.2,32.2,51.8,53,70.8c17.9,16.5,37.2,132.7,56.8,147.1
					c38.5,28.1,56.9,78.7,57.5,87.3"/>
				<path class="st3" d="M46.2,542.1c-6.7,15.3-9.4,32.2-5.1,48.3c7.4,28.2,32.2,51.8,53,70.8c17.9,16.5,37.2,132.7,56.8,147.1
					c28.3,20.7,45.8,53.6,53.2,72.9"/>
				<path class="st3" d="M66.1,534c-9.6,17.3-14.2,37.4-9.2,56.5c7.4,28.2,32.2,51.8,53,70.8c17.9,16.5,37.2,132.7,56.8,147.1
					c24.1,17.6,40.2,43.9,49.2,63.3"/>
				<path class="st3" d="M76.8,544.6c-5.9,14.6-8.1,30.5-4.1,45.8c7.4,28.2,32.2,51.8,53,70.8c17.9,16.5,37.2,132.7,56.8,147.1
					c22.7,16.6,38.4,41,47.6,59.9"/>
				<path class="st3" d="M89,555.8c-2.9,11.4-3.4,23.2-0.4,34.6c7.4,28.2,32.2,51.8,53,70.8c17.9,16.5,37.2,132.7,56.8,147.1
					c22.1,16.1,37.5,39.6,46.8,58.4"/>
				<path class="st3" d="M102.5,576.9c0.2,4.5,0.8,9,2,13.5c7.4,28.2,32.2,51.8,53,70.8c17.9,16.5,37.2,132.7,56.8,147.1
					c23.5,17.2,39.5,42.8,48.6,62"/>
				<path class="st3" d="M438.6,951.6c0,0-24.2-29.4-67.7-41"/>
				<path class="st3" d="M438.6,981.9c0,0-36.3-35.1-79.7-46.6"/>
				<path class="st3" d="M510.2,351.8c0,0,19.1-68.2,51.2-67.2c32.1,1,40.1,28.1,47.2,28.1s91.3-105.4,131.5-93.3
					c24.1,11,12,64.2-22.1,90.3c0,0,23.1,36.1-17.1,66.2"/>
				<path class="st3" d="M437.9,237.4c13.1,0,81.5,7.7,112.5,49.5"/>
				<path class="st3" d="M494.1,370.9c0,0-29.2,36.1-56.3,36.1"/>
				<path class="st3" d="M514.2,397c0,0-32.1,49.2-76.3,49.2"/>
				<path class="st3" d="M640.6,388.9c-9.9-0.7-6.1-12.4-0.8-16.7c7.8-6.3,20.8-3.7,26.9,3.6c10.5,12.6-3,30.4-17,31.8
					c-10.9,1.1-21.7-6.2-27.4-15c-11.9-18.4-4.4-43.8,18.3-48c22.1-4,39.1,6,53.2,21.1c14.1,15.1,6,65.2-34.1,74.3
					c-16.8,3.8-34.1,3.1-51,0.6c-14.9-2.1-29.8-7.2-44.8-8c-28-1.5-53.4,14.3-73.8,31.4c-25.1,21.1-38.1,27.1-52.2,27.1
					c0,0,41.7-0.3,58.7,28"/>
				<path class="st3" d="M585.4,378.9c0-3.5,5-9,12.5-8c7.5,1,14.1,9,13,18.1c-0.9,7.9-7,13.3-14.9,14.1
					c-18.1,1.7-27.4-19.2-22.4-34.1c7.3-21.6,30.3-21.7,47-10.5"/>
				<path class="st3" d="M543.6,390.8c0-3.5,5-9,12.5-8c7.5,1,14.1,9,13,18.1c-0.9,7.9-7,13.3-14.9,14.1
					c-18.1,1.7-27.4-19.2-22.4-34.1c6.4-18.9,24.8-21.4,40.5-14.2"/>
				<path class="st3" d="M437.9,561.1c5.5,0,21.1-7,30.6-19.6c9.5-12.5,19.6-23.6,34.6-22.1c15.1,1.5,30.6,16.1,30.1,35.6
					c-0.5,19.6-14.1,25.6-14.1,25.6"/>
				<path class="st3" d="M577.9,549.9c0,0-29.7-42.3-61.5-25.9"/>
				<path class="st3" d="M659.7,440.1c0,0-25.1,10.7-36.6,38.5c-11.5,27.8-31.6,57.9-56.2,58.9"/>
				<path class="st3" d="M692.8,415c0,0,37.7,8.2,29.7,63.6c0,0,31.1,24.3,25.6,58.9c-5.5,34.6-27.3,47.2-27.3,47.2"/>
				<path class="st3" d="M609.5,504.9c2.4-6.2,3.7-12.9,3.7-19.9c0-22.3-13.4-41.5-32.7-49.9"/>
				<path class="st3" d="M529.5,439.1c-15.1,9.7-25.1,26.6-25.1,45.9c0,14.6,5.8,27.9,15.1,37.7"/>
				<circle class="st7" cx="555.3" cy="486.3" r="20.4"/>
				<path class="st3" d="M681.3,562.6c5-4.5,13.5-14.1,11.5-25.1c-2.1-11-24-14.8-28.1,0c-5,31.1-62.7,103.4-142.5,103.4
					s-83.8-44.7-83.8-44.7c32.6,0,43.7-20.6,44.2-25.6c0.5-5,4.5-18.1,19.1-16.6c14.6,1.5,11,24.6,6.5,26.6"/>
				<path class="st3" d="M457.5,595.2c0,0,5,28.6,59.5,28.6c29.6,0,59.2-8.8,83.3-26.2c14.2-10.3,25.4-24,34.7-38.8
					c8.3-13.2,13.9-33.2,26.7-42.7c15.3-11.4,37.3-3.8,45.6,12.4c7.8,15.4,2.2,34.5-10.4,45.5"/>
				<path class="st3" d="M635.8,586.8c0,0,43.4,43.7,106.5,15.5c3.8-1.7,3.5-7.2-0.5-8.5c-20.5-6.8-64.1-24-78.1-51.8"/>
				<path class="st3" d="M786.7,440.1c0,0,6.5,17.6-8,20.1s-20.1-16.6-12.5-25.1s24.6-11,36.1,5c11.5,16.1-6.5,41.3-27.6,38.5
					c-21.1-2.8-37.6-17.4-36.1-43.5c1.5-26.1,31.6-40.6,50.7-38.1c19.1,2.5,49.7,17.6,50.7,64.7s-51.2,66.7-73.8,61"/>
				<path class="st3" d="M802.7,494.8c0,0-20.7,22.7-57.8,11.9"/>
				<path class="st3" d="M789.1,476.2c0,0-13.3,20.2-56.5,12.6"/>
				<path class="st3" d="M757.2,472.8c0,0-18.6,2.9-33.7-12.7"/>
				<path class="st3" d="M744.9,370.9c0,0-5.9-5-2.4-14.6c3.5-9.5,16.6-10.2,24.1-5.4c7.5,4.9,11.8,30-9.4,36
					c-21.2,6-34.2-13-33.7-24.1s5-37.7,40.6-34.1s42.2,50.2,25.1,68.2"/>
				<path class="st3" d="M740.3,425.8c0,0-16.9,3.8-29.5,0.5"/>
				<path class="st3" d="M757.2,328.4c0,0,2.3-27.8-30.3-26.8"/>
				<path class="st3" d="M438.4,596.2v51.7c0,0,15.1,12,37.6,5.5v-19.5"/>
				<path class="st3" d="M476,653.4c10.5,10.5,28.4,5,28.4,5c17.3,12,30.5,0,30.5,0v-18.2c0,0,18.1,24,27.5,40.2
					c0.8,1.4,2.8,1.1,3.3-0.4c2.2-7.5,6-24.9,1.2-46.9"/>
				<line class="st3" x1="504.4" y1="658.4" x2="504.4" y2="640.8"/>
				<path class="st3" d="M504.4,218.4c-6,11-21.6,12.1-30.4,3.9c-13.2-12.2,2.6-21.4,15.2-20.5c11.4,0.8,22.5,6,27.8,16.6
					c9.8,19.5-26.6,28-40.9,24.9c-14.3-3.1-34.1-16.4-38.1-39s42.2-34.1,72.3-21.6s37,25.1,37,25.1"/>
				<path class="st3" d="M566.8,258.5c0,0-12.3,6.5-19.7,0c-7.4-6.5-9.1-24.6,3.3-25.6s25.5,10,27.5,24.1
					c2,14.1-16.3,24.8-36.6,14.6c-20.2-10.2-22.2-33.1-21.7-36.6s0.5-21.3,17.6-24.2c17.1-2.9,56.2-1.4,64.7,40.7"/>
				<path class="st3" d="M586.4,272.5c0,0,13.5-3.9,21.1,3.1s6.5,28.6-12.3,24.3"/>
				<path class="st3" d="M577.9,286.9c0,0-4.3-10.2-2.2-20.1c2.2-9.9,14.2-19.9,33.3-12.4c19.1,7.5,21.7,30,22.4,36.8"/>
				<path class="st3" d="M543.4,203.1c11.6-20.7-13.7-46.1-45.3-47.6c-31.6-1.5-28.6,22.9-28.6,22.9"/>
				<path class="st3" d="M600,243.9c0,0,12-25.3-5.5-40.7s-37-10.8-44-5.4c-7,5.4-7,5.4-7,5.4"/>
				<path class="st3" d="M437.6,157.6c5.3,0,27.5,0.5,31.9,16.6"/>
				<path class="st3" d="M437.6,142c4.3,0,29.4-1,40.4,15.6"/>
				<path class="st3" d="M604,230.4c0,0,24.1-3,37.6,12.3c13.5,15.3,11.3,27.1,11.3,27.1"/>
				<path class="st3" d="M609,254.4c0,0,6.6-8.8,22.4-2.6c15.8,6.1,8.7,30.7,8.7,30.7"/>
				<path class="st3" d="M567.2,862c0,0-23.7,9.5-36.6-5c-3.6-4.1,8.6-19,10.7-22.4c2-3.4,15.3-29.8,10.2-32.8
					C551.6,801.8,572.1,813.9,567.2,862z"/>
				<path class="st3" d="M651.7,596.2c0,0-54.5,164.9-87.2,225.6"/>
				<path class="st3" d="M667,605.8c0,0-72.1,183.4-99.2,248.2c0,0,10.1,19.1-6,25.1c-16.1,6-35.1-4-44.9-23.1
					c-9.8-19.1-62.5-25.1-79.5-25.1"/>
				<path class="st3" d="M546.4,824.4c0,0-6.6-21.6-32.2-16.1c0,0-12.5-15.1-33.1-6.5c0,0-23.6-14.8-43.7-2.6v13.2
					c71.3,0,97.5,31.5,97.5,31.5"/>
				<line class="st3" x1="514.2" y1="808.3" x2="514.2" y2="827.7"/>
				<line class="st3" x1="481" y1="801.8" x2="481" y2="816.1"/>
				<path class="st3" d="M437.4,853.5c9,0,40.6-1.5,58.7,15.6c0,0,11.5,150,148.5,116.4c48.1-13,53.2-75.3,32.6-98.4
					c-20.6-23.1-57.2-27.1-76.3-9.5c-19.1,17.6-18.1,69.3,19.6,69.3c37.6,0,33.6-30.6,33.6-34.1s-9-25.6-29.6-17.6
					c-20.6,8-16.1,35.6-1.5,34.1s14.9-12,12.7-17.6"/>
				<path class="st3" d="M516.4,892.1c0,0,15.9,74.3,72.1,83.8c38.1,6,60.7-12,60.7-12"/>
				<path class="st3" d="M534.9,901.6c0,0,14.1,43.7,47.9,52.2c33.8,8.5,51.2-4.5,59-11.9"/>
				<path class="st3" d="M601.8,940.9c-35.4-4.9-42.9-39.3-42.9-39.3s23-3.8,38.1-19.5c15.1-15.7,13.6-36.3,13.6-36.3
					s28.9-10.5,31.3-40.6c2.9-22.7,57.1-154.5,81.7-179.5"/>
				<path class="st3" d="M691.8,643.4c-8.4,1-18.3-1.6-14.9-12.5c2.7-8.6,14.3-10.2,21.7-7.5c6.2,2.3,8.3,7.1,8.4,13.5
					c0.2,15.1-12.1,22.7-26.2,21.6"/>
				<path class="st3" d="M665.1,676.6c-8.4,1-18.3-1.6-14.9-12.5c2.7-8.6,14.3-10.2,21.7-7.5c6.2,2.3,8.3,7.1,8.4,13.5
					c0.2,15.1-12.1,22.7-26.2,21.6c0,0-13.7-0.1-18.6-6.9"/>
				<path class="st3" d="M688.7,611.1c0,0-2.5,13.6-15,14.6"/>
				<path class="st3" d="M819.1,506.7c22.5,20.1,39,53.2,31,83.7c-7.4,28.2-32.2,51.8-53,70.8c-17.9,16.5-37.2,132.7-56.8,147.1
					c-38.5,28.1-56.9,78.7-57.5,87.3"/>
				<path class="st3" d="M829.1,542.1c6.7,15.3,9.4,32.2,5.1,48.3c-7.4,28.2-32.2,51.8-53,70.8c-17.9,16.5-37.2,132.7-56.8,147.1
					c-28.3,20.7-45.8,53.6-53.2,72.9"/>
				<path class="st3" d="M809.2,534c9.6,17.3,14.2,37.4,9.2,56.5c-7.4,28.2-32.2,51.8-53,70.8c-17.9,16.5-37.2,132.7-56.8,147.1
					c-24.1,17.6-40.2,43.9-49.2,63.3"/>
				<path class="st3" d="M798.4,544.6c5.9,14.6,8.1,30.5,4.1,45.8c-7.4,28.2-32.2,51.8-53,70.8c-17.9,16.5-37.2,132.7-56.8,147.1
					c-22.7,16.6-38.4,41-47.6,59.9"/>
				<path class="st3" d="M786.3,555.8c2.9,11.4,3.4,23.2,0.4,34.6c-7.4,28.2-32.2,51.8-53,70.8c-17.9,16.5-37.2,132.7-56.8,147.1
					c-22.1,16.1-37.5,39.6-46.8,58.4"/>
				<path class="st3" d="M772.7,576.9c-0.2,4.5-0.8,9-2,13.5c-7.4,28.2-32.2,51.8-53,70.8c-17.9,16.5-37.2,132.7-56.8,147.1
					c-23.5,17.2-39.5,42.8-48.6,62"/>
				<path class="st3" d="M438.6,951.6c0,0,22.4-29.4,65.8-41"/>
				<path class="st3" d="M438.6,981.9c0,0,34.4-35.1,77.8-46.6"/>
			</g>
			<rect x="36.5" y="638.1" class="st4" width="802.3" height="174.2"/>
			<path class="st1" d="M194,562.6c-5-4.5-13.5-14.1-11.5-25.1s24-14.8,28.1,0c5,31.1,62.7,103.4,142.5,103.4s85.3-44.7,85.3-44.7
				c-32.6,0-45.2-20.6-45.7-25.6c-0.5-5-4.5-18.1-19.1-16.6c-14.6,1.5-11,24.6-6.5,26.6"/>
			<line class="st1" x1="370.9" y1="658.4" x2="370.9" y2="640.8"/>
			<path class="st5" d="M308,862c0,0,23.7,9.5,36.6-5c3.6-4.1-8.6-19-10.7-22.4c-2-3.4-15.3-29.8-10.2-32.8
				C323.7,801.8,303.1,813.9,308,862z"/>
			<path class="st5" d="M328.9,824.4c0,0,6.6-21.6,32.2-16.1c0,0,12.5-15.1,33.1-6.5c0,0,23.1-14.8,43.2-2.6v13.2
				c-71.3,0-97,31.5-97,31.5"/>
			<line class="st1" x1="361.1" y1="808.3" x2="361.1" y2="827.7"/>
			<line class="st1" x1="394.2" y1="801.8" x2="394.2" y2="816.1"/>
			<path class="st1" d="M681.3,562.6c5-4.5,13.5-14.1,11.5-25.1c-2.1-11-24-14.8-28.1,0c-5,31.1-62.7,103.4-142.5,103.4
				s-83.8-44.7-83.8-44.7c32.6,0,43.7-20.6,44.2-25.6c0.5-5,4.5-18.1,19.1-16.6c14.6,1.5,11,24.6,6.5,26.6"/>
			<path class="st5" d="M476,633.9v19.5c-22.6,6.5-37.6-5.5-37.6-5.5v-51.7l2.3,9.6l4.2,6l9.4,10.3l7.6,5.4l10.8,5.3L476,633.9z"/>
			<path class="st5" d="M476,633.9v19.5c10.5,10.5,28.4,5,28.4,5c17.3,12,30.5,0,30.5,0v-18.2c0,0,18.1,24,27.5,40.2
				c0.8,1.4,2.8,1.1,3.3-0.4c2.2-7.5,6-24.9,1.2-46.9c0,0-20.9,6.7-28.4,6.7c-7.5,0-28.3,1-28.3,1l-24.6-3.9L476,633.9z"/>
			<path class="st5" d="M400.7,633.9v19.5c22.6,6.5,37.6-5.5,37.6-5.5v-51.7l-2.3,9.6l-4.2,6l-9.4,10.3l-7.6,5.4l-10.8,5.3
				L400.7,633.9z"/>
			<path class="st5" d="M400.7,633.9v19.5c-10.5,10.5-28.4,5-28.4,5c-17.3,12-30.5,0-30.5,0v-18.2c0,0-18.1,24-27.5,40.2
				c-0.8,1.4-2.8,1.1-3.3-0.4c-2.2-7.5-6-24.9-1.2-46.9c0,0,20.9,6.7,28.4,6.7s28.3,1,28.3,1l24.6-3.9L400.7,633.9z"/>
			<line class="st1" x1="504.4" y1="658.4" x2="504.4" y2="640.8"/>
			<path class="st5" d="M567.2,862c0,0-23.7,9.5-36.6-5c-3.6-4.1,8.6-19,10.7-22.4c2-3.4,15.3-29.8,10.2-32.8
				C551.6,801.8,572.1,813.9,567.2,862z"/>
			<path class="st5" d="M546.4,824.4c0,0-6.6-21.6-32.2-16.1c0,0-12.5-15.1-33.1-6.5c0,0-23.6-14.8-43.7-2.6v13.2
				c71.3,0,97.5,31.5,97.5,31.5"/>
			<line class="st1" x1="514.2" y1="808.3" x2="514.2" y2="827.7"/>
			<line class="st1" x1="481" y1="801.8" x2="481" y2="816.1"/>
			<path class="st3" d="M438.4,596.2v51.7c0,0-16.6,12-39.1,5.5v-19.5"/>
			<path class="st3" d="M399.2,653.4c-10.5,10.5-28.4,5-28.4,5c-17.3,12-30.5,0-30.5,0v-18.2c0,0-18.1,24-27.5,40.2
				c-0.8,1.4-2.8,1.1-3.3-0.4c-2.2-7.5-6-24.9-1.2-46.9"/>
			<line class="st3" x1="370.9" y1="658.4" x2="370.9" y2="640.8"/>
			<path class="st3" d="M308,862c0,0,23.7,9.5,36.6-5c3.6-4.1-8.6-19-10.7-22.4c-2-3.4-15.3-29.8-10.2-32.8
				C323.7,801.8,303.1,813.9,308,862z"/>
			<path class="st3" d="M328.9,824.4c0,0,6.6-21.6,32.2-16.1c0,0,12.5-15.1,33.1-6.5c0,0,23.1-14.8,43.2-2.6v13.2
				c-71.3,0-97,31.5-97,31.5"/>
			<line class="st3" x1="361.1" y1="808.3" x2="361.1" y2="827.7"/>
			<line class="st3" x1="394.2" y1="801.8" x2="394.2" y2="816.1"/>
			<path class="st3" d="M438.4,596.2v51.7c0,0,15.1,12,37.6,5.5v-19.5"/>
			<path class="st3" d="M476,653.4c10.5,10.5,28.4,5,28.4,5c17.3,12,30.5,0,30.5,0v-18.2c0,0,18.1,24,27.5,40.2
				c0.8,1.4,2.8,1.1,3.3-0.4c2.2-7.5,6-24.9,1.2-46.9"/>
			<line class="st3" x1="504.4" y1="658.4" x2="504.4" y2="640.8"/>
			<path class="st3" d="M567.2,862c0,0-23.7,9.5-36.6-5c-3.6-4.1,8.6-19,10.7-22.4c2-3.4,15.3-29.8,10.2-32.8
				C551.6,801.8,572.1,813.9,567.2,862z"/>
			<path class="st3" d="M546.4,824.4c0,0-6.6-21.6-32.2-16.1c0,0-12.5-15.1-33.1-6.5c0,0-23.6-14.8-43.7-2.6v13.2
				c71.3,0,97.5,31.5,97.5,31.5"/>
			<line class="st3" x1="514.2" y1="808.3" x2="514.2" y2="827.7"/>
			<line class="st3" x1="481" y1="801.8" x2="481" y2="816.1"/>
			<path class="st5" d="M239.5,586.8c0,0-43.4,43.7-106.5,15.5c-3.8-1.7-3.5-7.2,0.5-8.5c20.5-6.8,64.1-24,78.1-51.8l4,10.3
				l8.5,14.9l7.8,10.7L239.5,586.8z"/>
			<path class="st3" d="M635.8,586.8c0,0,43.4,43.7,106.5,15.5c3.8-1.7,3.5-7.2-0.5-8.5c-20.5-6.8-64.1-24-78.1-51.8"/>
			<path class="st3" d="M239.5,586.8c0,0-43.4,43.7-106.5,15.5c-3.8-1.7-3.5-7.2,0.5-8.5c20.5-6.8,64.1-24,78.1-51.8"/>
			<path class="st5" d="M637.3,586.8c0,0,43.4,43.7,106.5,15.5c3.8-1.7,3.5-7.2-0.5-8.5c-20.5-6.8-64.1-24-78.1-51.8l-4,10.3
				l-8.5,14.9l-7.8,10.7L637.3,586.8z"/>
			<path class="st3" d="M637.3,586.8c0,0,43.4,43.7,106.5,15.5c3.8-1.7,3.5-7.2-0.5-8.5c-20.5-6.8-64.1-24-78.1-51.8"/>
			<path class="st3" d="M194,562.6c-5-4.5-13.5-14.1-11.5-25.1s24-14.8,28.1,0c5,31.1,62.7,103.4,142.5,103.4s85.3-44.7,85.3-44.7
				c-32.6,0-45.2-20.6-45.7-25.6c-0.5-5-4.5-18.1-19.1-16.6c-14.6,1.5-11,24.6-6.5,26.6"/>
			<path class="st3" d="M681.3,562.6c5-4.5,13.5-14.1,11.5-25.1c-2.1-11-24-14.8-28.1,0c-5,31.1-62.7,103.4-142.5,103.4
				s-83.8-44.7-83.8-44.7c32.6,0,43.7-20.6,44.2-25.6c0.5-5,4.5-18.1,19.1-16.6c14.6,1.5,11,24.6,6.5,26.6"/>
		</g>
	</g>
</g>
<rect x="36.1" y="552.5" class="st4" width="803" height="236"/>
</svg>
