<?xml version="1.0" encoding="utf-8"?>
<!-- Generator: Adobe Illustrator 26.3.1, SVG Export Plug-In . SVG Version: 6.00 Build 0)  -->
<svg version="1.1" id="圖層_1" xmlns="http://www.w3.org/2000/svg" xmlns:xlink="http://www.w3.org/1999/xlink" x="0px" y="0px"
	 viewBox="0 0 525 184" style="enable-background:new 0 0 525 184;" xml:space="preserve">
<style type="text/css">
	.st0{fill:#FFFFFF;}
	.st1{fill:none;stroke:#C39A6B;stroke-linecap:round;stroke-linejoin:round;stroke-miterlimit:10;}
</style>
<path class="st0" d="M112.5,129.4L98.1,125l-17.9-4.2H69.4l-7.7,3.5L48,131.7L20.9,139c0,0,10,3.2,11.1,2.3c1.1-1,11.7-1.4,11.7-1.4
	l10.2-3.1l18,0.1l19.2,4.6l21.4,5.3h22.4l20.4-7l9.8-6.6l7-7.2l6.7,2.5l19.3,3.4l18.1-1.4l10.6-4.4l6.9,3.2l17.5,4.6l14.2-1.8
	l9.3-4.4l8.2-2l6.2,2l3.5,4l1.5,3.7l-2,7l-0.1,9.1l2.1,6.5l5,6.1l9.2,5.1l7,2l9,1.8h9.8l11.8-2l6.2-1.9l11.4-5.5l6.1-4.1l9.6-8.8
	l6.5,3.3l6.4,2.5l10.8,2.5l10.5,0.3l11.4-2.1l12.2-5.4l8.4-6.2l11,3.3l12.1,2.1l13.2-0.1c0,0,11.2-1.2,15.7-6.4s8.2-14.1,8.2-14.1
	s2.2-9.8,1-16.7c-1.2-6.9-2.2-14.6-7.4-21c-5.2-6.4-8.9-11.5-16.7-15.2c-7.8-3.7-10-4.7-10-4.7l-14.3-7c0,0-18.2-7.4-30.1-1.6
	c-12,5.8-16.4,8.8-16.4,8.8l-5.7,6.4l-7.2-4.9c0,0-21.9-10.4-34.6-5c0,0-11.7-8-26-5c0,0,8.6-15.9,3.5-24.8c-5.2-9-15.6-24-36-23.2
	c-20.4,0.8-26.3,2.3-26.3,2.3l-12.5,6.8l-6.2,9.3l-0.8,11.8l-9-0.9l-5.6,0.9l-5.4,2l-6.1,11.4l-1.5,6l4.5,0.5l5.2,3.3l2.6,6.7
	l0.2,5.5l-2.4,6l-10.5,3.3c0,0-12.1-7.4-22.6-4.7c-10.5,2.8-16.2,6.6-16.2,6.6l-3.1,3.3c0,0-12.4-3.1-20.4,2.2l-13.4,2.5l-9.6,4.8
	l-13.9,11.8l-13.1,10.6L112.5,129.4z"/>
<path class="st1" d="M369.1,114c3.2,18.5-27.1,27.1-36.7,12.8c-3.4-5.1-2.9-12.1-0.1-17.7c5.6-11.3,18.6-20.9,31.7-18.1
	c0,0,12.7-11.2,39.4-0.5c15.2,8.1,16.5,18,16.5,18s14-2,17.8,5.5c3.8,7.5,0,21-16.5,20c0,0-11.4,25.7-41.9,16.8
	c0,0-26.7,32.7-69.9,18.9c-26.7-8.7-15.2-34.1-15.2-34.1s-3.8-17.2-22.9-6s-44.5-3.5-44.5-3.5s-22.9,13.3-54.6,0
	c0,0-21.6,31.1-72.4,18.4c-24.1-8.9-40.1-10.2-51.2-6.4c-11.1,3.8-21.2,2.5-39-1.3c0,0,28,3.8,49.6-10.8s48.3,6.3,58.5,3.5
	c10.2-2.9,29.2-32.1,52.1-30.8c0,0,10.2-5.1,20.3-2.5c0,0,12.7-17.8,41.9-5.1c0,0,17.8-1.3,12.7-15.2s-12.7-8.9-12.7-8.9
	s3.8-29.2,28-19.1c0,0-5.1-33,40.7-31.8s50.8,40.7,33,49.6c0,0,16.5-6.4,30.5,3.8c0,0,22.9-6.4,41.9,10.2c0,0,22.9-34.3,67.4-6.4
	c0,0,38.1,11.4,33,52.7c-5.1,41.3-61,19.7-61,19.7s-26.7,27.4-66.1,5.1"/>
<path class="st1" d="M432,94.5c0,0,19.1-4.1,27.6,7.3c8.6,11.4-1,19.1-5.7,19.1"/>
<path class="st1" d="M132.7,130.4c0,0,21-9,28.6-16.4c0,0,24.8-1.7,39.1-11.2c0,0,20,10.1,33.4,4.6c0,0,22.9-2,30.5-12.8
	c0,0,36.2,6.4,40-16.5"/>
<path class="st1" d="M282.4,38.9c0,0,17.2-7.6,21.9,4.8s-4.8,34.3-27.6,34.3"/>
<path class="st1" d="M291.1,46.5c0,0,1.8,18.9-21.1,11.8"/>
</svg>
