<?xml version="1.0" encoding="utf-8"?>
<!-- Generator: Adobe Illustrator 26.3.1, SVG Export Plug-In . SVG Version: 6.00 Build 0)  -->
<svg version="1.1" id="圖層_1" xmlns="http://www.w3.org/2000/svg" xmlns:xlink="http://www.w3.org/1999/xlink" x="0px" y="0px"
	 viewBox="0 0 556 150" style="enable-background:new 0 0 556 150;" xml:space="preserve">
<style type="text/css">
	.st0{fill:#FFFFFF;}
	.st1{fill:none;stroke:#C39A6B;stroke-linecap:round;stroke-linejoin:round;stroke-miterlimit:10;}
</style>
<path class="st0" d="M326.4,11.3l-9.9-1.8l-9.7,1.8l-7.2,0.3l-9.1,1.5l-5.8,4.4l-2.6,3.8l-4.5,6l-2.9,6.9v8.1l6.1,9.7l-4.8,1.1
	l-12.6,3.1l-5.4,4.4l-8.9-2.1l-8.9,0.1l-8.5,2.1l-7.3,6.7l-4,4l-7.7-4.9l-10.4-3l-7.2,0.3l-5.2,1.3l-11.7,1.2l-11,3.1L156.6,76
	l-4.2,6.1l-4.4,1l-13.8,0.1L121,87l-8.3,3.9l-8.3,5.2l-7.8,1.8l-9.1-0.2l-11.9-2.2l-9.3-0.6l-3.4,0.7l-4.7,2.2l-26.1,14.3l11.5-1.4
	l12-2.6l10.6-3l5.7-0.3l14.5,2.7l10.5,1.7l6.8-0.9l8.2-3.5l8.1-6.4l8.3-2.9l10.6,0.2l-0.6,9.5l1.4,9.6l2.9,6.9l7.1,7.1
	c0,0,12.3,3.9,13,4c0.7,0.1,16.3,1.1,16.3,1.1l9.1-0.8l7.8-1.7l3.9,2.5l9.1,3.7l10.8,0.9l6.8-0.9l9.7-3l8.1-3.9l6.8,2.9l8.9,1.2
	l5.9-0.7l11.7,4.4l15.8,0.5l12-3.1l10.7-1.5c0,0,10.4-3,10.2-10.6c-0.2-7.6-0.8-11.8-9.8-13.5c0,0,0.7-8.6,6.7-11.2
	c6-2.6,12.5,0,12.5,0l2.7,1.2c0,0,3.6,6.1,8.2,6.1c4.6,0.1,11.5-3,11.5-3l6.2,0.3l8.4-5.1l2.6-4.7l8.1,1.3l18,0.6l12.6-1.7l7.7-2.2
	l5.2,4.9l16.4,8c0,0,15.5,1.8,16.2,1.8c0.7,0,11-1.1,12.4-1.4c1.3-0.3,10.1-2.6,10.1-2.6l10.1-4.7l6.5-5.3l3.7,3.1l6,1.5
	c0,0,3.7-0.9,4.9-1.5c1.2-0.6,6.8-2.4,6.8-2.4s5.5-0.2,11,2.4c5.5,2.6,11.5,3.3,11.5,3.3l-5.5-4.9l-15.6-9.7c0,0-11.7-5.2-17.4-3.3
	s-18.3,5-18.3,5l-9.3,3.1l-7.9,1.7l-9.8-2.6l-15.5-7.4l-12.3-6.6l-11.3-3.9l-8.8-2.4l-9.3-0.5l-7.1-4.3l-10-1.4l-8.1,2.9l-5,3.3
	l-5.2,1.9l-5-1l-4.8-6.2l-0.8-5l1.3-4.4l5.1-4.1l2.3-6.3l-2.1-6.8l-6.5-6.7l-7.6-2.1l-7.6,1.1l-2.5-8.7l-8.3-7.2L326.4,11.3z"/>
<path class="st1" d="M257.3,96.2c0,0-4.4,6.4,10.2,11.4c14.6,5.1,15.9-5.7,15.9-5.7s6.4-22.2-22.2-23.5c0,0-8.3-8.9-26.1-3.2
	c0,0-19.7-3.2-24.1,12.7c0,0-13.3,1.9-14.6,10.8c-1.3,8.9,7.6,18.4,20.3,15.2c0,0,10.8,16.5,36.9,9.5c0,0,18.4,24.8,52.1,12.1
	c0,0,17.8,1.3,21-12.1c3.2-13.3-10.2-13.3-10.2-13.3s2.5-19.7,22.2-10.2c0,0,7,12.1,19.7,3.2c0,0,12.1,3.8,17.2-9.5
	c0,0,24.8,5.7,46.4-1.9c0,0,13.3,17,41.3,14.5c28-2.4,36.2-14.5,36.2-14.5s3.8,9.5,15.2,3.2c11.4-6.4,21.6,5.7,29.2,5.1
	c0,0-19.1-20.3-38.8-19.1s-28.6,17.2-50.8,5.1C432,74,419.3,67,402.2,67c0,0-14.6-11.4-28.6,0c-14,11.4-24.1-11.4-13.3-16.5
	s-0.8-29.4-19.2-21.8"/>
<path class="st1" d="M304.3,60.6c0,0,7,21.6,37.5,10.2c0,0,12.8,17.5,39.4,7c14-2.5,40,4.2,45.1,3.4c0,0,11.4,13.8,29.9,14.4"/>
<path class="st1" d="M266.1,133.9c-12.2,2.7-21.5-3.4-21.5-3.4c-30.5,17.2-48.4,0.6-48.4,0.6s-17,5.7-39.9,0
	c-22.9-5.7-17.2-35.6-17.2-35.6s-7-2.5-19.1,3.2c-14.6,11.4-20.3,10.8-26.7,10.2c-6.4-0.6-17.2-5.7-29.2-3.8
	c-19.4,8-45.6,7.6-45.6,7.6c26.8-3.2,34.2-13.3,44.4-17.2s26.1,7,42.6,0c22.9-17.2,46.4-12,46.4-12c6.4-19,38.8-18.5,38.8-18.5
	c16.5-6.4,30.5,7,30.5,7c12.1-21.6,36.9-11.4,36.9-11.4c6.4-8.9,24.1-7.6,24.1-7.6s-17.8-12.1,0-31.8c0,0,5.7-13.3,22.2-8.9
	c0,0,15.1-8.6,30.5,3.8c15.4,12.4-3.8,34.9-15.9,29.2s-3.8-19.1-0.6-20.3c3.2-1.3-9.5-5.7-14,6.4c-4.4,12.1,8.9,31.8,28.6,26.7
	s10.8-18.4,10.8-18.4"/>
<path class="st1" d="M200.1,81c0,0-22.9-0.6-23.5,14.6s23.5,14.3,23.5,14.3"/>
</svg>
