<svg width="92" height="20" viewBox="0 0 92 20" fill="none" xmlns="http://www.w3.org/2000/svg">
<path d="M5.21571 1.87665C5.98452 2.2798 7.46673 2.84977 7.46673 3.88545C7.46673 4.45543 6.85722 4.78212 6.35161 4.78212C5.84599 4.78212 5.42349 4.25385 5.29882 3.4406C5.21571 2.99574 5.13952 2.91233 4.87632 2.54393C4.2114 3.68388 3.80276 4.26775 2.93005 5.28953H6.47628V6.56849H5.00099V8.619H6.72563V9.89796H5.00099V13.29C5.46505 12.4142 5.76981 11.6635 6.01222 10.6904L6.96112 10.9754V9.65468H9.53075V10.1204H10.729V8.69546H13.2986V10.1204H14.5107L15.3003 9.26543L18.0154 10.037L17.1842 10.746V15.2988C17.1842 15.702 17.0803 16.0912 16.741 16.3345C16.2353 16.7029 15.5843 16.8419 14.9609 16.8419C13.5826 16.8419 15.0856 15.8688 13.2986 15.6255V18.7534H10.729V11.4063H9.53075V16.4874H6.96112V15.0069C5.54124 16.4248 4.00362 17.3771 2.2028 18.2321L0.478164 15.9591C1.12923 15.8549 1.77337 15.8201 2.42444 15.6741V9.90492H0.401976V8.619H2.42444V6.56849H1.81493V6.28351C1.35087 6.68666 0.845255 7.09676 0.298082 7.42345L0.0556641 7.29834C1.26775 5.34514 2.18202 2.6621 2.38288 0.38916L5.82522 0.514276C5.64513 0.979985 5.44427 1.42484 5.21571 1.87665ZM2.34132 13.3943C2.34132 14.0059 1.77337 14.4508 1.20542 14.4508C0.76214 14.4508 0.311935 14.3048 0.311935 13.7835C0.311935 13.2761 0.554353 12.7687 0.554353 12.2404C0.554353 11.733 0.450459 11.309 0.332713 10.8155L0.575132 10.6765C1.26775 11.3646 2.34132 12.3586 2.34132 13.3943ZM6.96112 14.3535V12.5045C6.33083 13.1162 5.70747 13.721 4.99407 14.2492V14.9582C5.66591 14.7983 6.31005 14.5759 6.96112 14.3535ZM7.66759 2.30065H10.1749C10.3203 1.68897 10.4173 1.119 10.4589 0.493423H13.638C13.1116 1.28582 12.6268 1.93921 11.8372 2.48833H13.9635L14.7116 1.73763L17.6483 2.44662L16.8587 3.11391V9.04996H14.0259V8.45913H10.5212V9.04996H7.66759V2.30065ZM14.0051 4.90028V3.78814H10.5212V4.90723H14.0051V4.90028ZM14.0259 7.18017V6.18619H10.5212V7.18017H14.0259ZM13.2986 11.4063V15.0625C13.5203 15.0833 13.7627 15.1042 13.9843 15.1042C14.4276 15.1042 14.5938 14.9235 14.5938 14.4716V11.3994H13.2986V11.4063Z" fill="black"/>
<path d="M31.667 5.51199H29.1389V5.79697H26.4654V2.80809H29.1389V3.07223H31.667V2.21727H24.8655V1.22329H31.667V0.535156H34.5414V1.22329H41.3014V2.21727H34.5414V3.07223H37.0903L37.6582 2.4814L40.3733 2.90541L39.7638 3.47538V5.79002H37.1318V5.51199H34.5414V6.24183H39.5214L40.027 5.6093L42.5412 6.13757C42.3611 6.27658 42.1741 6.42255 42.0148 6.56157C41.994 6.56157 41.7308 6.96472 41.6893 7.00643C41.4676 7.33312 41.2252 7.65981 40.9412 7.9587C40.5742 8.32709 40.1517 8.64683 39.7084 8.95267L39.4867 8.86926C39.5698 8.27844 39.6253 7.68761 39.6253 7.08289H26.7632C26.8256 7.36787 26.9018 7.71542 26.9018 8.0143C26.9018 8.78585 26.4585 9.46009 25.7243 9.46009C25.2187 9.46009 24.5676 9.19595 24.5676 8.58428C24.5676 8.13942 24.6092 7.52774 24.7685 7.10374C24.9486 6.59632 24.9486 5.98465 24.9278 5.45638L25.1494 5.37297C25.5512 5.6371 25.8767 5.83868 26.2022 6.22793H31.6462V5.51199H31.667ZM24.6369 13.4777H28.5848V12.8452H26.5624V12.157H28.5848V11.5245H25.849V10.8155H28.5848V10.3289H31.3415V10.8155H35.1717V10.3081H37.9837V10.8155H41.059V11.5245H37.9837V12.157H40.4148V12.8452H37.9837V13.4777H41.8694V14.3952H34.8462C35.3725 15.0277 35.8989 15.3892 36.6678 15.7159C37.1941 15.3892 37.7413 14.9443 38.143 14.4786L40.2071 15.2919C39.3967 15.6603 38.5448 15.9244 37.679 16.1468C38.9119 16.4735 40.1863 16.6125 41.4469 16.7168C41.7932 16.7377 42.1533 16.8002 42.4996 16.8002L42.4789 17.0643C42.0564 17.1895 41.3845 17.4119 41.3845 17.961C41.3845 18.1209 41.5092 18.385 41.5438 18.5518L41.343 18.7326C39.4175 18.4059 37.0903 17.8359 35.428 16.7377C33.6687 17.6691 31.8263 18.5032 29.9216 19.0732L28.8065 17.3285C29.3744 17.2242 29.4714 17.0852 29.4714 16.5361C27.9546 16.9601 26.4516 17.2242 24.8932 17.4536L24.81 17.2312C26.4931 16.6821 28.8619 15.5213 30.2402 14.4091H24.63V13.4777H24.6369ZM29.3398 9.84238V10.0857H27.2966V7.56945H29.3398V7.87529H30.4965L30.9398 7.34702L33.17 7.71542L32.6644 8.16027V10.0926H30.5588V9.84934H29.3398V9.84238ZM31.667 4.69873V3.88548H29.1389V4.69873H31.667ZM30.5519 9.16815V8.53562H29.3398V9.16815H30.5519ZM31.3415 11.5245V12.157H35.1717V11.5245H31.3415ZM31.3415 13.4777H35.1717V12.8452H31.3415V13.4777ZM35.1301 16.4457C34.4791 15.7367 34.3198 15.2641 34.015 14.3952L32.1934 15.4517V16.8975C33.1631 16.8141 34.1605 16.6264 35.1301 16.4457ZM37.0903 7.82663L37.492 7.29836L39.5768 7.64591L39.0919 8.09076V10.0787H37.1249V9.83543H35.8297V10.0787H33.6479V7.54164H35.8366V7.82663H37.0903ZM34.5414 3.88548V4.69873H37.1318V3.88548H34.5414ZM35.8366 8.52172V9.1751H37.1318V8.52172H35.8366Z" fill="black"/>
<path d="M52.1617 3.684C52.1201 5.37306 52.1201 7.07603 52.1201 8.76509C52.1201 9.86333 52.0578 10.9824 51.9747 12.0807C51.8154 13.9713 51.3444 15.3545 50.3539 16.9602C49.8899 17.7109 49.3843 18.4268 48.7748 19.0732L48.4492 18.9481C49.3773 16.6335 49.5436 14.7429 49.5851 12.3031C49.6059 10.899 49.6059 9.49493 49.6059 8.09781V1.87677H52.1548V2.38418H57.5641C57.5018 2.32163 57.4187 2.25907 57.3841 2.20346C57.204 1.93933 57.2248 0.861942 56.9408 0.660366L56.5737 0.389282L56.6568 0.166854C57.6057 -0.18069 59.4689 0.00698358 59.9952 0.757679C60.2169 1.08437 60.2584 1.26509 60.2584 1.67519C60.2584 2.04359 60.2169 2.0992 59.9952 2.38418H66.1527V3.684H52.1617ZM59.4896 8.32024V13.6655H57.2386V13.2206H54.9876V13.7072H57.1971V14.722H59.0394V15.9036H57.1971V18.684H54.9876V15.9036H52.0924V14.722H54.9876V13.8045H52.7227V7.222H54.7867C54.8698 6.95786 54.9045 6.71458 54.9668 6.4296H52.3556V5.24795H54.9876C55.0291 4.78224 55.0707 4.33043 55.0707 3.84387L57.2594 3.88557C57.2178 4.35128 57.1555 4.78224 57.0793 5.24795H59.5104V6.4296H56.7538C56.4282 6.89531 56.0889 7.24285 55.6802 7.66685H57.1347L57.7027 6.95786L60.0299 7.54869L59.4896 8.32024ZM57.2455 8.8624H54.9945V9.67566H57.2455V8.8624ZM57.2455 10.9824H54.9945V11.9973H57.2455V10.9824ZM65.8479 5.81792V17.2591C65.8479 17.7039 65.7302 18.114 65.3215 18.3156C64.7951 18.6006 63.4999 18.823 62.9112 18.823C62.7934 18.823 62.5302 18.823 62.4471 18.7188C62.3017 18.538 62.4471 18.0098 61.8376 17.5024C61.5952 17.3008 60.7225 17.1131 60.397 17.0366L60.5216 16.7934C61.2073 16.8768 61.9415 16.8976 62.648 16.8976C63.1328 16.8976 63.5415 16.7795 63.5415 16.2095V12.9982H62.1216C62.0385 13.5473 61.9207 14.0964 61.7753 14.6455C61.4082 16.1678 59.3234 17.836 58.0905 18.7535L57.8689 18.5519C59.268 16.7656 59.7944 15.0973 59.9745 12.8592C60.0368 12.1502 60.0922 11.4342 60.0922 10.7252V4.26092H62.2393V5.19234H63.4307L64.2618 4.31653L66.5475 5.08808L65.8479 5.81792ZM63.5415 9.67566H62.2463C62.2463 10.3638 62.2255 11.0797 62.2047 11.7679H63.5415V9.67566ZM63.5415 6.38789H62.2463V8.48011H63.5415V6.38789Z" fill="black"/>
<path d="M82.8032 2.66922C82.2769 3.92733 81.6673 5.08813 80.8778 6.20722C79.4994 8.11871 75.3922 9.70351 73.2451 10.4959L73.0442 10.3569C74.1385 9.6479 75.1705 8.91111 76.1402 8.04225H75.9948C74.8796 8.04225 75.1428 7.16644 74.6996 6.37404C74.2771 6.61732 73.8269 6.8606 73.3836 7.08303L73.1619 6.95791C73.6883 6.38794 74.0762 5.67895 74.4364 4.98386C75.1844 3.50332 75.4268 2.30082 75.6277 0.674316H78.8691C78.6891 1.16088 78.5021 1.64744 78.2804 2.14095H79.8804L80.6284 1.18868L83.6275 1.85597L82.8032 2.66922ZM78.9523 15.1461C77.5947 16.4459 75.4891 17.565 73.7091 18.0515L73.5498 17.9056C74.8658 16.7448 76.161 15.2851 76.6458 13.5543H80.0882C79.7626 14.1104 79.4163 14.7012 78.9523 15.1461ZM83.9114 12.5881V17.1201C83.9114 18.26 83.1842 18.4408 82.2284 18.6006C81.7851 18.6632 81.3141 18.684 80.8501 18.684C80.67 18.684 80.1851 18.7049 80.0397 18.6006C79.8388 18.4616 79.915 17.9681 79.6518 17.6692C79.2293 17.2244 78.2735 17.0367 77.6848 16.8977V16.6544C78.5159 16.7169 79.3471 16.7587 80.1782 16.7587C80.663 16.7587 80.7877 16.6961 80.7877 16.1678V12.5881H73.8407V11.2675H90.2212V12.5881H83.9114ZM76.4865 4.90045C76.064 5.2897 75.6138 5.65115 75.1705 6.01954C75.593 6.12381 76.6666 6.44355 76.909 6.8328L77.0683 7.09693C77.4146 6.77024 77.7332 6.42965 78.0172 6.06125C76.6458 6.0404 77.3523 5.69285 76.4865 4.90045ZM77.6986 3.41991C77.4978 3.7049 77.2761 4.01074 77.0476 4.27487C77.4146 4.33743 78.3635 4.4556 78.5644 4.80314L78.7237 5.08813C79.1046 4.55986 79.3886 4.01074 79.6518 3.41991H77.6986ZM78.4467 9.6201V8.27858H85.5945V9.6201H78.4467ZM91.1424 8.0353C90.4914 8.21602 89.8057 8.29943 89.5425 8.98757C89.4801 9.16829 89.404 9.41157 89.404 9.6201C89.404 9.77997 89.4663 9.9885 89.4871 10.1484L89.2654 10.2735C87.4646 9.72436 85.4352 8.50796 84.424 6.88145C84.1816 6.4783 83.9599 6.0682 83.7729 5.6442C83.4889 4.97691 83.3089 4.46255 83.2465 3.7327L83.8353 3.64929C84.237 4.31658 84.8465 4.92826 85.4976 5.39396C85.6153 5.04642 85.7815 4.72668 85.9201 4.37914C86.0586 4.05244 86.1625 3.71185 86.2871 3.38516H83.5513V2.14095H86.5088L87.4992 1.14698L90.6576 1.80036L89.6671 2.59276C89.6256 2.73873 89.584 2.87775 89.5425 3.01676C89.4039 3.40601 88.1642 4.72668 87.804 5.01167C87.3399 5.35921 86.8759 5.72066 86.4257 6.08905C88.0464 7.06218 89.3001 7.53484 91.1632 7.83372L91.1424 8.0353ZM89.12 18.1558C88.2265 18.1558 87.804 17.7526 87.5408 16.9185C87.423 16.5362 87.2776 16.147 87.1183 15.7577C86.772 14.8819 86.0863 14.1521 85.4352 13.4848L85.6153 13.3388C86.9936 13.742 89.2169 14.2146 90.0481 15.4519C90.2905 15.8203 90.5329 16.2651 90.5329 16.71C90.5329 17.4815 89.8264 18.1558 89.12 18.1558Z" fill="black"/>
</svg>
