<svg width="123" height="10" viewBox="0 0 123 10" fill="none" xmlns="http://www.w3.org/2000/svg">
<path d="M2.10038 1.94236H-0.000488281V0.73291H5.64042V1.94236H3.53128V7.89788H2.10038V1.94236Z" fill="black"/>
<path d="M12.9191 6.47967C12.5634 7.49728 11.8107 8.02276 10.6776 8.02276C9.10608 8.02276 8.18799 7.03018 8.18799 5.34528C8.18799 3.69375 9.12263 2.60107 10.5453 2.60107C12.1002 2.60107 12.9852 3.66873 12.9852 5.55381V5.70395H9.56927C9.60235 6.48801 10.0325 6.99681 10.6859 6.99681C11.1325 6.99681 11.4137 6.76326 11.5461 6.25446L12.9191 6.47967ZM11.6371 4.85316C11.6205 4.10247 11.2318 3.64371 10.628 3.64371C10.0325 3.64371 9.60235 4.12749 9.60235 4.79477V4.85316H11.6371Z" fill="black"/>
<path d="M17.2367 2.71785V3.4185H17.2533C17.6916 2.85965 18.1962 2.60107 18.8331 2.60107C19.5113 2.60107 19.9745 2.85965 20.2888 3.4185C20.7437 2.86799 21.2482 2.60107 21.8603 2.60107C22.4145 2.60107 22.8942 2.79292 23.1837 3.1349C23.4649 3.46854 23.5476 3.81887 23.5476 4.58625V7.90599H22.1911V4.94491C22.1911 3.95233 22.0257 3.65205 21.4633 3.65205C21.0994 3.65205 20.7354 3.8856 20.6031 4.21924C20.4873 4.4945 20.4542 4.77809 20.4542 5.41201V7.90599H19.0977V5.06169C19.0977 3.90228 18.9654 3.65205 18.3864 3.65205C18.0225 3.65205 17.6751 3.85223 17.5262 4.15251C17.3939 4.41108 17.3443 4.7197 17.3443 5.37865V7.89765H15.9878V2.71785H17.2367Z" fill="black"/>
<path d="M28.0882 2.71789V3.47692H28.1048C28.4356 2.92641 29.0311 2.59277 29.6846 2.59277C30.9749 2.59277 31.8351 3.66877 31.8351 5.27025C31.8351 6.9051 30.9583 8.01446 29.6846 8.01446C29.0973 8.01446 28.6838 7.80593 28.1792 7.25542V9.86618H26.8228V2.70955H28.0882V2.71789ZM29.3454 6.93012C30.0485 6.93012 30.4455 6.32957 30.4455 5.28693C30.4455 4.27767 30.032 3.67711 29.3206 3.67711C28.5845 3.67711 28.1627 4.26933 28.1627 5.26191C28.1627 6.27952 28.6259 6.93012 29.3454 6.93012Z" fill="black"/>
<path d="M34.9038 0.73291H36.2768V7.89788H34.9038V0.73291Z" fill="black"/>
<path d="M44.027 6.47967C43.6713 7.49728 42.9187 8.02276 41.7855 8.02276C40.214 8.02276 39.2959 7.03018 39.2959 5.34528C39.2959 3.69375 40.2305 2.60107 41.6532 2.60107C43.2081 2.60107 44.0932 3.66873 44.0932 5.55381V5.70395H40.6772C40.7103 6.48801 41.1404 6.99681 41.7938 6.99681C42.2404 6.99681 42.5216 6.76326 42.654 6.25446L44.027 6.47967ZM42.745 4.85316C42.7284 4.10247 42.3397 3.64371 41.7359 3.64371C41.1404 3.64371 40.7185 4.12749 40.7185 4.79477V4.85316H42.745Z" fill="black"/>
<path d="M51.9507 0.73291H54.9696C56.0283 0.73291 56.5246 0.82466 56.9382 1.08323C57.451 1.41688 57.7736 2.04245 57.7736 2.73476C57.7736 3.84412 57.0953 4.56145 55.8877 4.72827V4.74496C56.3013 4.98685 56.4915 5.13699 56.7728 5.46229C56.9878 5.7292 57.1284 5.92105 57.4758 6.49658L58.336 7.89788H56.6321L55.59 6.3381C55.0937 5.5874 54.9862 5.43727 54.8042 5.2621C54.6884 5.14533 54.5478 5.05358 54.4155 5.00353C54.2087 4.92012 54.1343 4.91178 53.6794 4.91178H53.3816V7.90622H51.9507V0.73291ZM53.3733 3.76905H54.432L54.9283 3.76071C55.9291 3.74403 56.2765 3.51882 56.2765 2.8432C56.2765 2.20928 55.9208 1.9507 55.0524 1.9507H54.4899H53.365V3.76905H53.3733Z" fill="black"/>
<path d="M63.3811 2.59277C64.9361 2.59277 66.0362 3.71047 66.0362 5.28693C66.0362 6.85505 64.9196 8.01446 63.3894 8.01446C61.8179 8.01446 60.7344 6.92178 60.7344 5.34532C60.7344 3.70213 61.8013 2.59277 63.3811 2.59277ZM63.3894 6.89676C64.1504 6.89676 64.6383 6.26284 64.6383 5.29527C64.6383 4.33605 64.1421 3.71048 63.3894 3.71048C62.6285 3.71048 62.1322 4.32771 62.1322 5.30362C62.1322 6.26284 62.6285 6.89676 63.3894 6.89676Z" fill="black"/>
<path d="M72.4795 7.11359H72.4629C72.1073 7.67244 71.4621 8.01442 70.7674 8.01442C70.1718 8.01442 69.6342 7.75585 69.3613 7.33046C69.1545 7.0135 69.0718 6.66317 69.0718 5.9792V2.70951H70.4282V5.08671V5.37865L70.4365 5.88746C70.4448 6.62981 70.7012 6.95511 71.2802 6.95511C71.7599 6.95511 72.19 6.64649 72.3058 6.23778C72.3637 5.99589 72.3885 5.62888 72.3885 4.88653V2.70117H73.7615V7.88097H72.4878V7.11359H72.4795Z" fill="black"/>
<path d="M80.4695 7.89769V5.24523C80.4695 4.18592 80.4033 3.94403 80.0394 3.74384C79.9071 3.67711 79.7747 3.64375 79.6258 3.64375C79.2702 3.64375 78.9393 3.80223 78.7491 4.0608C78.5506 4.32771 78.4927 4.66136 78.4927 5.54551V7.89769H77.1362V2.71789H78.41V3.47692H78.4265C78.8401 2.89305 79.4273 2.59277 80.089 2.59277C80.7259 2.59277 81.2801 2.843 81.5447 3.26006C81.7515 3.5937 81.826 3.91066 81.826 4.66969V7.88934H80.4695V7.89769Z" fill="black"/>
<path d="M88.6496 7.89788V7.13884H88.6331C88.2526 7.69769 87.6736 8.01465 87.045 8.01465C85.7713 8.01465 84.8945 6.89695 84.8945 5.28713C84.8945 3.62726 85.7299 2.59297 87.0698 2.59297C87.6571 2.59297 88.1285 2.80983 88.5586 3.3103V0.73291H89.9317V7.89788H88.6496ZM86.2758 5.32049C86.2758 6.3381 86.6894 6.93032 87.4255 6.93032C88.1203 6.93032 88.5586 6.31308 88.5586 5.32883C88.5586 4.23615 88.1616 3.64394 87.4172 3.64394C86.7142 3.64394 86.2758 4.18611 86.2758 5.18703V5.32049Z" fill="black"/>
<path d="M102.032 0.73291V5.2621C102.032 5.99612 101.991 6.32142 101.842 6.72179C101.743 6.9887 101.577 7.23893 101.346 7.4558C100.94 7.83949 100.403 8.01465 99.6665 8.01465C98.31 8.01465 97.4829 7.18055 97.4829 5.79593V5.6875L98.8394 5.52902V5.57072V5.60409C98.8394 6.36312 99.1537 6.79686 99.7244 6.79686C100.403 6.79686 100.601 6.4799 100.601 5.37888V0.749593H102.032V0.73291Z" fill="black"/>
<path d="M105.498 0.73291H106.871V2.00075H105.498V0.73291ZM105.498 2.71808H106.871V7.89788H105.498V2.71808Z" fill="black"/>
<path d="M113.562 7.89769V5.24523C113.562 4.18592 113.496 3.94403 113.132 3.74384C113 3.67711 112.867 3.64375 112.719 3.64375C112.363 3.64375 112.032 3.80223 111.842 4.0608C111.643 4.32771 111.585 4.66136 111.585 5.54551V7.89769H110.229V2.71789H111.503V3.47692H111.519C111.933 2.89305 112.52 2.59277 113.182 2.59277C113.819 2.59277 114.373 2.843 114.638 3.26006C114.844 3.5937 114.919 3.91066 114.919 4.66969V7.88934H113.562V7.89769Z" fill="black"/>
<path d="M119.716 8.43147C119.766 8.8235 119.972 8.94862 120.51 8.94862C121.403 8.94862 121.643 8.70673 121.643 7.81423V7.0552H121.627C121.238 7.61405 120.725 7.89765 120.113 7.89765C118.864 7.89765 117.987 6.82165 117.987 5.27856C117.987 3.64371 118.839 2.60107 120.163 2.60107C120.816 2.60107 121.312 2.85965 121.718 3.44352H121.734V2.72619H123.008V7.3805C123.008 8.42313 122.876 8.97364 122.528 9.37401C122.148 9.80775 121.503 10.0163 120.576 10.0163H120.543C118.996 10.0163 118.161 9.46576 118.161 8.42313V8.25631L119.716 8.43147ZM120.485 6.78829C121.213 6.78829 121.676 6.18773 121.676 5.22851C121.676 4.23592 121.23 3.64371 120.502 3.64371C119.799 3.64371 119.377 4.22758 119.377 5.23685C119.377 6.19607 119.799 6.78829 120.485 6.78829Z" fill="black"/>
</svg>
