<svg width="109" height="23" viewBox="0 0 109 23" fill="none" xmlns="http://www.w3.org/2000/svg">
<path d="M6.19959 2.25178C7.11769 2.73556 8.88771 3.41953 8.88771 4.66235C8.88771 5.34632 8.15985 5.73835 7.55606 5.73835C6.95226 5.73835 6.44772 5.10442 6.29884 4.12852C6.19959 3.59469 6.10861 3.4946 5.7943 3.05252C5.00028 4.42046 4.51228 5.12111 3.47012 6.34724H7.70494V7.882H5.94318V10.3426H8.0027V11.8774H5.94318V15.9478C6.49735 14.8968 6.86128 13.996 7.15077 12.8282L8.28392 13.1702V11.5854H11.3525V12.1443H12.7834V10.4344H15.852V12.1443H17.2994L18.2424 11.1183L21.4846 12.0442L20.4921 12.895V18.3584C20.4921 18.8421 20.368 19.3092 19.9628 19.6012C19.359 20.0433 18.5815 20.2101 17.8371 20.2101C16.1911 20.2101 17.986 19.0423 15.852 18.7504V22.5039H12.7834V13.6874H11.3525V19.7847H8.28392V18.008C6.58833 19.7096 4.75214 20.8523 2.60165 21.8783L0.542136 19.1508C1.31962 19.0256 2.08884 18.9839 2.86632 18.8088V11.8857H0.451154V10.3426H2.86632V7.882H2.13846V7.54001C1.5843 8.02379 0.980507 8.51592 0.327087 8.90795L0.0375977 8.75781C1.48505 6.41397 2.57683 3.19432 2.8167 0.466797L6.92745 0.616936C6.7124 1.17579 6.47254 1.70961 6.19959 2.25178ZM2.76707 16.0729C2.76707 16.8069 2.08884 17.3408 1.41061 17.3408C0.881253 17.3408 0.343629 17.1656 0.343629 16.54C0.343629 15.9311 0.633119 15.3222 0.633119 14.6883C0.633119 14.0794 0.509052 13.5706 0.368443 12.9784L0.657932 12.8116C1.48505 13.6373 2.76707 14.8301 2.76707 16.0729ZM8.28392 17.224V15.0053C7.53124 15.7393 6.78684 16.4649 5.93491 17.0989V17.9497C6.73721 17.7578 7.50643 17.4909 8.28392 17.224ZM9.12757 2.76059H12.1217C12.2954 2.02657 12.4112 1.34261 12.4608 0.591913H16.2573C15.6287 1.54279 15.0497 2.32685 14.1068 2.9858H16.646L17.5393 2.08496L21.0463 2.93575L20.1034 3.73649V10.8598H16.7205V10.1508H12.5353V10.8598H9.12757V2.76059ZM16.6957 5.88014V4.54557H12.5353V5.88848H16.6957V5.88014ZM16.7205 8.61601V7.42324H12.5353V8.61601H16.7205ZM15.852 13.6874V18.0748C16.1167 18.0998 16.4062 18.1248 16.6708 18.1248C17.2002 18.1248 17.3987 17.9079 17.3987 17.3658V13.679H15.852V13.6874Z" fill="black"/>
<path d="M37.787 6.61429H34.768V6.95627H31.5754V3.36962H34.768V3.68658H37.787V2.66063H29.6647V1.46785H37.787V0.64209H41.2195V1.46785H49.2921V2.66063H41.2195V3.68658H44.2633L44.9415 2.97759L48.1838 3.48639L47.4559 4.17036V6.94793H44.3129V6.61429H41.2195V7.4901H47.1665L47.7703 6.73106L50.7727 7.36498C50.5576 7.5318 50.3343 7.70696 50.1441 7.87379C50.1192 7.87379 49.805 8.35757 49.7553 8.40761C49.4906 8.79964 49.2012 9.19167 48.862 9.55034C48.4237 9.99241 47.9191 10.3761 47.3898 10.7431L47.1251 10.643C47.2244 9.93403 47.2905 9.22504 47.2905 8.49937H31.931C32.0055 8.84135 32.0965 9.2584 32.0965 9.61707C32.0965 10.5429 31.5671 11.352 30.6904 11.352C30.0866 11.352 29.3091 11.035 29.3091 10.301C29.3091 9.76721 29.3587 9.03319 29.5489 8.52439C29.764 7.91549 29.764 7.18148 29.7392 6.54756L30.0039 6.44747C30.4836 6.76443 30.8723 7.00632 31.2611 7.47342H37.7622V6.61429H37.787ZM29.3918 16.1731H34.1063V15.4141H31.6912V14.5883H34.1063V13.8293H30.8392V12.9785H34.1063V12.3946H37.3983V12.9785H41.9722V12.3696H45.3303V12.9785H49.0026V13.8293H45.3303V14.5883H48.2334V15.4141H45.3303V16.1731H49.9704V17.2742H41.5834C42.212 18.0332 42.8407 18.4669 43.7587 18.859C44.3874 18.4669 45.0408 17.9331 45.5205 17.3742L47.9853 18.3502C47.0176 18.7922 46.0002 19.1092 44.9663 19.3761C46.4386 19.7681 47.9605 19.935 49.4658 20.0601C49.8794 20.0851 50.3095 20.1602 50.723 20.1602L50.6982 20.4771C50.1937 20.6273 49.3914 20.8942 49.3914 21.5531C49.3914 21.745 49.5403 22.0619 49.5816 22.2621L49.3418 22.479C47.0424 22.0869 44.2633 21.403 42.2782 20.0851C40.1773 21.2028 37.9772 22.2037 35.7027 22.8877L34.371 20.7941C35.0492 20.669 35.165 20.5021 35.165 19.8432C33.3537 20.352 31.5588 20.669 29.6978 20.9442L29.5986 20.6773C31.6085 20.0184 34.4372 18.6254 36.0831 17.2908H29.3835V16.1731H29.3918ZM35.0079 11.8108V12.1027H32.5679V9.08324H35.0079V9.45024H36.3892L36.9185 8.81633L39.5818 9.2584L38.978 9.79223V12.111H36.4636V11.8191H35.0079V11.8108ZM37.787 5.63838V4.66248H34.768V5.63838H37.787ZM36.4553 11.0017V10.2426H35.0079V11.0017H36.4553ZM37.3983 13.8293V14.5883H41.9722V13.8293H37.3983ZM37.3983 16.1731H41.9722V15.4141H37.3983V16.1731ZM41.9226 19.7348C41.1451 18.884 40.9548 18.3168 40.5909 17.2742L38.4156 18.542V20.2769C39.5736 20.1768 40.7646 19.9516 41.9226 19.7348ZM44.2633 9.39186L44.743 8.75794L47.2326 9.17499L46.6536 9.70882V12.0944H44.3046V11.8024H42.7579V12.0944H40.1525V9.04988H42.7662V9.39186H44.2633ZM41.2195 4.66248V5.63838H44.3129V4.66248H41.2195ZM42.7662 10.226V11.01H44.3129V10.226H42.7662Z" fill="black"/>
<path d="M62.2615 4.4206C62.2118 6.44748 62.2118 8.49104 62.2118 10.5179C62.2118 11.8358 62.1374 13.1787 62.0381 14.4966C61.8479 16.7654 61.2855 18.4252 60.1027 20.352C59.5485 21.2529 58.9447 22.112 58.2169 22.8877L57.8281 22.7376C58.9365 19.96 59.135 17.6912 59.1846 14.7635C59.2094 13.0786 59.2094 11.3937 59.2094 9.71717V2.25193H62.2532V2.86083H68.7129C68.6385 2.78576 68.5392 2.71069 68.4979 2.64396C68.2828 2.327 68.3076 1.03413 67.9685 0.792244L67.5302 0.466943L67.6294 0.200029C68.7626 -0.217024 70.9875 0.00818498 71.6161 0.909019C71.8808 1.30105 71.9304 1.51792 71.9304 2.01004C71.9304 2.45211 71.8808 2.51884 71.6161 2.86083H78.9691V4.4206H62.2615ZM71.0123 9.98409V16.3984H68.3242V15.8645H65.6361V16.4484H68.2746V17.6662H70.4747V19.0842H68.2746V22.4206H65.6361V19.0842H62.1787V17.6662H65.6361V16.5652H62.9314V8.6662H65.3962C65.4955 8.34924 65.5368 8.0573 65.6113 7.71532H62.493V6.29734H65.6361C65.6857 5.73849 65.7353 5.19632 65.7353 4.61245L68.349 4.66249C68.2994 5.22135 68.2249 5.73849 68.134 6.29734H71.0371V7.71532H67.7452C67.3565 8.27417 66.9512 8.69123 66.4632 9.20003H68.2001L68.8784 8.34924L71.6575 9.05823L71.0123 9.98409ZM68.3325 10.6347H65.6443V11.6106H68.3325V10.6347ZM68.3325 13.1787H65.6443V14.3965H68.3325V13.1787ZM78.6052 6.98131V20.7107C78.6052 21.2445 78.4646 21.7366 77.9766 21.9785C77.348 22.3205 75.8013 22.5874 75.0983 22.5874C74.9576 22.5874 74.6433 22.5874 74.5441 22.4623C74.3704 22.2454 74.5441 21.6115 73.8162 21.0026C73.5267 20.7607 72.4846 20.5355 72.0958 20.4438L72.2447 20.1518C73.0635 20.2519 73.9403 20.277 74.7839 20.277C75.3629 20.277 75.8509 20.1352 75.8509 19.4512V15.5976H74.1553C74.0561 16.2566 73.9155 16.9155 73.7418 17.5745C73.3034 19.4011 70.8138 21.403 69.3415 22.504L69.0769 22.2621C70.7476 20.1185 71.3762 18.1166 71.5913 15.4308C71.6657 14.58 71.7319 13.7209 71.7319 12.8701V5.11291H74.2959V6.23061H75.7186L76.7111 5.17964L79.4406 6.1055L78.6052 6.98131ZM75.8509 11.6106H74.3042C74.3042 12.4364 74.2794 13.2955 74.2546 14.1213H75.8509V11.6106ZM75.8509 7.66527H74.3042V10.1759H75.8509V7.66527Z" fill="black"/>
<path d="M98.8528 3.20297C98.2241 4.7127 97.4963 6.10565 96.5534 7.44856C94.9074 9.74235 90.0026 11.6441 87.4386 12.595L87.1987 12.4282C88.5056 11.5774 89.738 10.6932 90.8959 9.6506H90.7222C89.3906 9.6506 89.7049 8.59963 89.1755 7.64875C88.671 7.94069 88.1334 8.23262 87.604 8.49954L87.3393 8.3494C87.9679 7.66543 88.4311 6.81464 88.8612 5.98054C89.7545 4.20389 90.044 2.76089 90.2839 0.809082H94.1547C93.9397 1.39296 93.7164 1.97683 93.4517 2.56904H95.3623L96.2556 1.42632L99.837 2.22706L98.8528 3.20297ZM94.254 18.1752C92.6329 19.7349 90.1184 21.0779 87.9928 21.6617L87.8025 21.4866C89.374 20.0936 90.9207 18.342 91.4997 16.2651H95.6105C95.2217 16.9323 94.8082 17.6413 94.254 18.1752ZM100.176 15.1057V20.544C100.176 21.912 99.3077 22.1288 98.1663 22.3207C97.6369 22.3957 97.0745 22.4208 96.5203 22.4208C96.3052 22.4208 95.7263 22.4458 95.5526 22.3207C95.3127 22.1538 95.4037 21.5616 95.0894 21.203C94.5849 20.6691 93.4434 20.4439 92.7404 20.2771V19.9852C93.7329 20.0602 94.7255 20.1103 95.718 20.1103C96.297 20.1103 96.4459 20.0352 96.4459 19.4013V15.1057H88.1499V13.5209H107.711V15.1057H100.176ZM91.3095 5.88044C90.8049 6.34754 90.2673 6.78128 89.738 7.22335C90.2425 7.34847 91.5245 7.73216 91.814 8.19926L92.0043 8.51622C92.4178 8.12419 92.7983 7.71548 93.1374 7.2734C91.4997 7.24838 92.3434 6.83133 91.3095 5.88044ZM92.7569 4.1038C92.5171 4.44578 92.2524 4.81279 91.9794 5.12975C92.4178 5.20482 93.551 5.34662 93.7908 5.76367L93.9811 6.10565C94.436 5.47173 94.7751 4.81279 95.0894 4.1038H92.7569ZM93.6502 11.544V9.9342H102.186V11.544H93.6502ZM108.811 9.64226C108.034 9.85913 107.215 9.95922 106.901 10.785C106.826 11.0019 106.735 11.2938 106.735 11.544C106.735 11.7359 106.81 11.9861 106.834 12.1779L106.57 12.3281C104.419 11.6691 101.996 10.2095 100.788 8.25765C100.499 7.77386 100.234 7.28174 100.011 6.77294C99.6716 5.9722 99.4566 5.35496 99.3821 4.47915L100.085 4.37905C100.565 5.1798 101.293 5.91381 102.07 6.47266C102.211 6.05561 102.409 5.67192 102.575 5.25487C102.74 4.86284 102.864 4.45412 103.013 4.06209H99.746V2.56904H103.278L104.461 1.37627L108.232 2.16033L107.049 3.11121C107 3.28638 106.95 3.4532 106.901 3.62002C106.735 4.08712 105.255 5.67192 104.825 6.0139C104.27 6.43095 103.716 6.86469 103.179 7.30677C105.114 8.47451 106.611 9.04171 108.836 9.40037L108.811 9.64226ZM106.396 21.7868C105.329 21.7868 104.825 21.3031 104.51 20.3021C104.37 19.8434 104.196 19.3763 104.006 18.9092C103.592 17.8582 102.773 16.9824 101.996 16.1817L102.211 16.0065C103.857 16.4903 106.512 17.0575 107.504 18.5422C107.794 18.9842 108.083 19.5181 108.083 20.0519C108.083 20.9778 107.24 21.7868 106.396 21.7868Z" fill="black"/>
</svg>
