<svg width="103" height="8" viewBox="0 0 103 8" fill="none" xmlns="http://www.w3.org/2000/svg">
<path d="M1.75877 1.28547H-0.000488281V0.277588H4.7232V1.28547H2.95701V6.24839H1.75877V1.28547Z" fill="black"/>
<path d="M10.8183 5.06663C10.5204 5.91464 9.89014 6.35255 8.94124 6.35255C7.62526 6.35255 6.85645 5.52539 6.85645 4.12131C6.85645 2.74504 7.63911 1.83447 8.83042 1.83447C10.1326 1.83447 10.8737 2.72419 10.8737 4.29509V4.4202H8.01313C8.04083 5.07358 8.401 5.49759 8.94817 5.49759C9.32218 5.49759 9.55768 5.30296 9.6685 4.87896L10.8183 5.06663ZM9.74468 3.71121C9.73083 3.08563 9.4053 2.70333 8.89968 2.70333C8.401 2.70333 8.04083 3.10648 8.04083 3.66256V3.71121H9.74468Z" fill="black"/>
<path d="M14.4338 1.93178V2.51566H14.4477C14.8147 2.04995 15.2372 1.83447 15.7706 1.83447C16.3385 1.83447 16.7264 2.04995 16.9896 2.51566C17.3705 2.0569 17.793 1.83447 18.3056 1.83447C18.7696 1.83447 19.1713 1.99434 19.4138 2.27933C19.6493 2.55736 19.7185 2.8493 19.7185 3.48878V6.25523H18.5826V3.78767C18.5826 2.96052 18.4441 2.71029 17.9731 2.71029C17.6684 2.71029 17.3636 2.90491 17.2528 3.18295C17.1558 3.41232 17.1281 3.64865 17.1281 4.17692V6.25523H15.9922V3.88498C15.9922 2.91881 15.8814 2.71029 15.3965 2.71029C15.0918 2.71029 14.8009 2.87711 14.6762 3.12734C14.5654 3.34281 14.5238 3.6 14.5238 4.14912V6.24828H13.3879V1.93178H14.4338Z" fill="black"/>
<path d="M23.5209 1.9319V2.56443H23.5347C23.8118 2.10567 24.3105 1.82764 24.8577 1.82764C25.9381 1.82764 26.6585 2.7243 26.6585 4.05887C26.6585 5.42124 25.9243 6.34571 24.8577 6.34571C24.3659 6.34571 24.0196 6.17194 23.5971 5.71318V7.88881H22.4612V1.92495H23.5209V1.9319ZM24.5737 5.4421C25.1624 5.4421 25.4949 4.94163 25.4949 4.07277C25.4949 3.23171 25.1486 2.73125 24.5529 2.73125C23.9365 2.73125 23.5832 3.22476 23.5832 4.05192C23.5832 4.89993 23.9711 5.4421 24.5737 5.4421Z" fill="black"/>
<path d="M29.2283 0.277588H30.378V6.24839H29.2283V0.277588Z" fill="black"/>
<path d="M36.8678 5.06663C36.57 5.91464 35.9397 6.35255 34.9908 6.35255C33.6748 6.35255 32.906 5.52539 32.906 4.12131C32.906 2.74504 33.6887 1.83447 34.88 1.83447C36.1821 1.83447 36.9232 2.72419 36.9232 4.29509V4.4202H34.0627C34.0904 5.07358 34.4506 5.49759 34.9977 5.49759C35.3717 5.49759 35.6072 5.30296 35.7181 4.87896L36.8678 5.06663ZM35.7942 3.71121C35.7804 3.08563 35.4549 2.70333 34.9492 2.70333C34.4506 2.70333 34.0973 3.10648 34.0973 3.66256V3.71121H35.7942Z" fill="black"/>
<path d="M43.5032 0.277588H46.0312C46.9178 0.277588 47.3334 0.354046 47.6797 0.569524C48.1091 0.847559 48.3792 1.36887 48.3792 1.9458C48.3792 2.87027 47.8113 3.46804 46.8001 3.60706V3.62096C47.1464 3.82254 47.3057 3.94765 47.5412 4.21874C47.7212 4.44116 47.839 4.60104 48.1299 5.08065L48.8502 6.24839H47.4234L46.5507 4.94858C46.1351 4.323 46.0451 4.19789 45.8927 4.05192C45.7958 3.9546 45.678 3.87814 45.5672 3.83644C45.394 3.76693 45.3317 3.75998 44.9508 3.75998H44.7014V6.25534H43.5032V0.277588ZM44.6945 2.80771H45.581L45.9966 2.80076C46.8347 2.78685 47.1256 2.59918 47.1256 2.03616C47.1256 1.50789 46.8278 1.29242 46.1005 1.29242H45.6295H44.6876V2.80771H44.6945Z" fill="black"/>
<path d="M53.0753 1.82764C54.3774 1.82764 55.2986 2.75905 55.2986 4.07277C55.2986 5.37954 54.3636 6.34571 53.0822 6.34571C51.7662 6.34571 50.8589 5.43514 50.8589 4.12143C50.8589 2.7521 51.7524 1.82764 53.0753 1.82764ZM53.0822 5.41429C53.7194 5.41429 54.1281 4.88602 54.1281 4.07972C54.1281 3.28037 53.7125 2.75905 53.0822 2.75905C52.445 2.75905 52.0294 3.27342 52.0294 4.08667C52.0294 4.88602 52.445 5.41429 53.0822 5.41429Z" fill="black"/>
<path d="M60.6942 5.59498H60.6803C60.3825 6.06069 59.8423 6.34568 59.2605 6.34568C58.7618 6.34568 58.3116 6.1302 58.083 5.77571C57.9098 5.51157 57.8406 5.21963 57.8406 4.64966V1.92492H58.9765V3.90592V4.1492L58.9834 4.5732C58.9903 5.19183 59.205 5.46292 59.6899 5.46292C60.0916 5.46292 60.4518 5.20573 60.5487 4.86514C60.5972 4.66356 60.618 4.35773 60.618 3.7391V1.91797H61.7677V6.23446H60.7011V5.59498H60.6942Z" fill="black"/>
<path d="M67.3848 6.2484V4.03802C67.3848 3.15526 67.3294 2.95368 67.0246 2.78686C66.9138 2.73125 66.803 2.70345 66.6783 2.70345C66.3805 2.70345 66.1034 2.83551 65.9441 3.05099C65.7779 3.27342 65.7294 3.55146 65.7294 4.28825V6.2484H64.5935V1.9319H65.6601V2.56443H65.674C66.0203 2.07787 66.5121 1.82764 67.0662 1.82764C67.5995 1.82764 68.0635 2.03616 68.2852 2.38371C68.4583 2.66174 68.5207 2.92587 68.5207 3.5584V6.24145H67.3848V6.2484Z" fill="black"/>
<path d="M74.2348 6.24839V5.61586H74.221C73.9024 6.08157 73.4175 6.34571 72.8912 6.34571C71.8245 6.34571 71.0903 5.41429 71.0903 4.07277C71.0903 2.68954 71.7899 1.82763 72.9119 1.82763C73.4037 1.82763 73.7985 2.00836 74.1587 2.42541V0.277588H75.3084V6.24839H74.2348ZM72.247 4.10057C72.247 4.94858 72.5933 5.44209 73.2098 5.44209C73.7916 5.44209 74.1587 4.92773 74.1587 4.10752C74.1587 3.19696 73.8262 2.70344 73.2028 2.70344C72.6141 2.70344 72.247 3.15525 72.247 3.98936V4.10057Z" fill="black"/>
<path d="M85.4415 0.277588V4.05192C85.4415 4.66359 85.4069 4.93468 85.2822 5.26832C85.1991 5.49075 85.0606 5.69927 84.8666 5.88C84.5272 6.19974 84.077 6.34571 83.4606 6.34571C82.3247 6.34571 81.6321 5.65062 81.6321 4.49677V4.40641L82.768 4.27434V4.3091V4.3369C82.768 4.96943 83.0312 5.33088 83.5091 5.33088C84.077 5.33088 84.2433 5.06674 84.2433 4.14923V0.29149H85.4415V0.277588Z" fill="black"/>
<path d="M88.3435 0.277588H89.4933V1.33412H88.3435V0.277588ZM88.3435 1.9319H89.4933V6.24839H88.3435V1.9319Z" fill="black"/>
<path d="M95.0967 6.2484V4.03802C95.0967 3.15526 95.0413 2.95368 94.7365 2.78686C94.6257 2.73125 94.5149 2.70345 94.3902 2.70345C94.0924 2.70345 93.8153 2.83551 93.656 3.05099C93.4898 3.27342 93.4413 3.55146 93.4413 4.28825V6.2484H92.3054V1.9319H93.3721V2.56443H93.3859C93.7322 2.07787 94.224 1.82764 94.7781 1.82764C95.3114 1.82764 95.7755 2.03616 95.9971 2.38371C96.1703 2.66174 96.2326 2.92587 96.2326 3.5584V6.24145H95.0967V6.2484Z" fill="black"/>
<path d="M100.25 6.69314C100.291 7.01983 100.465 7.12409 100.915 7.12409C101.663 7.12409 101.864 6.92252 101.864 6.17877V5.54624H101.85C101.524 6.01195 101.095 6.24828 100.582 6.24828C99.5364 6.24828 98.8022 5.35162 98.8022 4.06571C98.8022 2.70333 99.5157 1.83447 100.624 1.83447C101.171 1.83447 101.587 2.04995 101.926 2.53651H101.94V1.93874H103.006V5.81733C103.006 6.68619 102.896 7.14495 102.605 7.47859C102.286 7.84004 101.746 8.01381 100.97 8.01381H100.942C99.6473 8.01381 98.9477 7.55505 98.9477 6.68619V6.54717L100.25 6.69314ZM100.894 5.32382C101.503 5.32382 101.891 4.82335 101.891 4.024C101.891 3.19685 101.517 2.70333 100.908 2.70333C100.319 2.70333 99.9659 3.18989 99.9659 4.03095C99.9659 4.8303 100.319 5.32382 100.894 5.32382Z" fill="black"/>
</svg>
