<svg width="123" height="54" viewBox="0 0 123 54" fill="none" xmlns="http://www.w3.org/2000/svg">
<g clip-path="url(#clip0_452_12578)">
<path d="M12.2001 2.25227C13.1182 2.73605 14.8882 3.42002 14.8882 4.66284C14.8882 5.3468 14.1603 5.73883 13.5565 5.73883C12.9528 5.73883 12.4482 5.10491 12.2993 4.12901C12.2001 3.59518 12.1091 3.49509 11.7948 3.05301C11.0008 4.42095 10.5128 5.1216 9.4706 6.34773H13.7054V7.88248H11.9437V10.3431H14.0032V11.8779H11.9437V15.9483C12.4978 14.8973 12.8618 13.9965 13.1513 12.8287L14.2844 13.1707V11.5859H17.353V12.1448H18.7839V10.4348H21.8525V12.1448H23.2999L24.2428 11.1188L27.4851 12.0447L26.4926 12.8955V18.3589C26.4926 18.8426 26.3685 19.3097 25.9632 19.6017C25.3594 20.0437 24.582 20.2106 23.8376 20.2106C22.1916 20.2106 23.9864 19.0428 21.8525 18.7509V22.5044H18.7839V13.6879H17.353V19.7852H14.2844V18.0085C12.5888 19.7101 10.7526 20.8528 8.60214 21.8788L6.54262 19.1513C7.32011 19.0261 8.08933 18.9844 8.86681 18.8093V11.8862H6.45164V10.3431H8.86681V7.88248H8.13895V7.5405C7.58479 8.02428 6.98099 8.51641 6.32758 8.90843L6.03809 8.7583C7.48553 6.41446 8.57732 3.19481 8.81719 0.467285L12.9279 0.617424C12.7129 1.17628 12.473 1.7101 12.2001 2.25227ZM8.76756 16.0734C8.76756 16.8074 8.08933 17.3412 7.41109 17.3412C6.88174 17.3412 6.34412 17.1661 6.34412 16.5405C6.34412 15.9316 6.63361 15.3227 6.63361 14.6888C6.63361 14.0799 6.50954 13.5711 6.36893 12.9789L6.65842 12.812C7.48553 13.6378 8.76756 14.8306 8.76756 16.0734ZM14.2844 17.2245V15.0057C13.5317 15.7398 12.7873 16.4654 11.9354 17.0994V17.9501C12.7377 17.7583 13.5069 17.4914 14.2844 17.2245ZM15.1281 2.76108H18.1222C18.2959 2.02706 18.4117 1.3431 18.4613 0.592401H22.2578C21.6292 1.54328 21.0502 2.32734 20.1073 2.98628H22.6465L23.5398 2.08545L27.0468 2.93624L26.1038 3.73698V10.8602H22.721V10.1513H18.5358V10.8602H15.1281V2.76108ZM22.6961 5.88063V4.54606H18.5358V5.88897H22.6961V5.88063ZM22.721 8.6165V7.42373H18.5358V8.6165H22.721ZM21.8525 13.6879V18.0753C22.1172 18.1003 22.4067 18.1253 22.6713 18.1253C23.2007 18.1253 23.3992 17.9084 23.3992 17.3663V13.6795H21.8525V13.6879Z" fill="black"/>
<path d="M43.7875 6.61453H40.7685V6.95651H37.5759V3.36986H40.7685V3.68682H43.7875V2.66087H35.6652V1.4681H43.7875V0.642334H47.22V1.4681H55.2926V2.66087H47.22V3.68682H50.2638L50.942 2.97783L54.1843 3.48663L53.4564 4.1706V6.94817H50.3134V6.61453H47.22V7.49034H53.1669L53.7707 6.73131L56.7732 7.36523C56.5581 7.53205 56.3348 7.70721 56.1446 7.87403C56.1197 7.87403 55.8054 8.35781 55.7558 8.40786C55.4911 8.79989 55.2016 9.19192 54.8625 9.55058C54.4242 9.99266 53.9196 10.3763 53.3903 10.7434L53.1256 10.6433C53.2248 9.93427 53.291 9.22528 53.291 8.49961H37.9315C38.006 8.84159 38.0969 9.25865 38.0969 9.61731C38.0969 10.5432 37.5676 11.3523 36.6909 11.3523C36.0871 11.3523 35.3096 11.0353 35.3096 10.3013C35.3096 9.76745 35.3592 9.03344 35.5494 8.52463C35.7645 7.91574 35.7645 7.18172 35.7397 6.5478L36.0043 6.44771C36.4841 6.76467 36.8728 7.00656 37.2616 7.47366H43.7627V6.61453H43.7875ZM35.3923 16.1734H40.1068V15.4143H37.6917V14.5886H40.1068V13.8295H36.8397V12.9788H40.1068V12.3949H43.3987V12.9788H47.9727V12.3699H51.3308V12.9788H55.0031V13.8295H51.3308V14.5886H54.2339V15.4143H51.3308V16.1734H55.9709V17.2744H47.5839C48.2125 18.0334 48.8411 18.4672 49.7592 18.8592C50.3878 18.4672 51.0413 17.9333 51.521 17.3745L53.9858 18.3504C53.0181 18.7925 52.0007 19.1094 50.9668 19.3763C52.4391 19.7684 53.961 19.9352 55.4663 20.0603C55.8799 20.0853 56.31 20.1604 56.7235 20.1604L56.6987 20.4774C56.1942 20.6275 55.3919 20.8944 55.3919 21.5534C55.3919 21.7452 55.5408 22.0622 55.5821 22.2624L55.3423 22.4792C53.0429 22.0872 50.2638 21.4032 48.2787 20.0853C46.1778 21.203 43.9777 22.204 41.7032 22.8879L40.3715 20.7943C41.0497 20.6692 41.1655 20.5024 41.1655 19.8434C39.3542 20.3523 37.5593 20.6692 35.6983 20.9445L35.5991 20.6776C37.6089 20.0186 40.4377 18.6257 42.0836 17.2911H35.384V16.1734H35.3923ZM41.0084 11.811V12.1029H38.5684V9.08348H41.0084V9.45049H42.3897L42.919 8.81657L45.5823 9.25865L44.9785 9.79247V12.1113H42.4641V11.8193H41.0084V11.811ZM43.7875 5.63863V4.66272H40.7685V5.63863H43.7875ZM42.4558 11.0019V10.2429H41.0084V11.0019H42.4558ZM43.3987 13.8295V14.5886H47.9727V13.8295H43.3987ZM43.3987 16.1734H47.9727V15.4143H43.3987V16.1734ZM47.923 19.735C47.1456 18.8842 46.9553 18.317 46.5914 17.2744L44.4161 18.5422V20.2772C45.574 20.1771 46.7651 19.9519 47.923 19.735ZM50.2638 9.3921L50.7435 8.75818L53.2331 9.17523L52.6541 9.70906V12.0946H50.3051V11.8027H48.7584V12.0946H46.153V9.05012H48.7667V9.3921H50.2638ZM47.22 4.66272V5.63863H50.3134V4.66272H47.22ZM48.7667 10.2262V11.0103H50.3134V10.2262H48.7667Z" fill="black"/>
<path d="M68.2615 4.42085C68.2118 6.44772 68.2118 8.49128 68.2118 10.5182C68.2118 11.836 68.1374 13.179 68.0381 14.4968C67.8479 16.7656 67.2855 18.4255 66.1027 20.3523C65.5485 21.2531 64.9447 22.1122 64.2169 22.8879L63.8281 22.7378C64.9365 19.9602 65.135 17.6915 65.1846 14.7638C65.2094 13.0789 65.2094 11.394 65.2094 9.71742V2.25217H68.2532V2.86107H74.7129C74.6385 2.786 74.5392 2.71093 74.4979 2.6442C74.2828 2.32724 74.3076 1.03438 73.9685 0.792489L73.5302 0.467187L73.6294 0.200273C74.7626 -0.216779 76.9875 0.00842912 77.6161 0.909263C77.8808 1.30129 77.9304 1.51816 77.9304 2.01028C77.9304 2.45236 77.8808 2.51909 77.6161 2.86107H84.9691V4.42085H68.2615ZM77.0123 9.98433V16.3986H74.3242V15.8648H71.6361V16.4487H74.2746V17.6664H76.4747V19.0844H74.2746V22.4208H71.6361V19.0844H68.1787V17.6664H71.6361V16.5654H68.9314V8.66645H71.3962C71.4955 8.34949 71.5368 8.05755 71.6113 7.71557H68.493V6.29759H71.6361C71.6857 5.73874 71.7353 5.19657 71.7353 4.61269L74.349 4.66274C74.2994 5.22159 74.2249 5.73874 74.134 6.29759H77.0371V7.71557H73.7452C73.3565 8.27442 72.9512 8.69147 72.4632 9.20027H74.2001L74.8784 8.34949L77.6575 9.05848L77.0123 9.98433ZM74.3325 10.6349H71.6443V11.6108H74.3325V10.6349ZM74.3325 13.179H71.6443V14.3968H74.3325V13.179ZM84.6052 6.98155V20.7109C84.6052 21.2448 84.4646 21.7369 83.9766 21.9788C83.348 22.3208 81.8013 22.5877 81.0983 22.5877C80.9576 22.5877 80.6433 22.5877 80.5441 22.4626C80.3704 22.2457 80.5441 21.6118 79.8162 21.0029C79.5267 20.761 78.4846 20.5358 78.0958 20.444L78.2447 20.1521C79.0635 20.2522 79.9403 20.2772 80.7839 20.2772C81.3629 20.2772 81.8509 20.1354 81.8509 19.4514V15.5979H80.1553C80.0561 16.2568 79.9155 16.9158 79.7418 17.5747C79.3034 19.4014 76.8138 21.4032 75.3415 22.5043L75.0769 22.2624C76.7476 20.1187 77.3762 18.1169 77.5913 15.431C77.6657 14.5803 77.7319 13.7211 77.7319 12.8703V5.11316H80.2959V6.23086H81.7186L82.7111 5.17988L85.4406 6.10574L84.6052 6.98155ZM81.8509 11.6108H80.3042C80.3042 12.4366 80.2794 13.2957 80.2546 14.1215H81.8509V11.6108ZM81.8509 7.66552H80.3042V10.1762H81.8509V7.66552Z" fill="black"/>
<path d="M104.853 3.20297C104.225 4.7127 103.497 6.10565 102.554 7.44856C100.908 9.74235 96.0031 11.6441 93.4391 12.595L93.1992 12.4282C94.5061 11.5774 95.7385 10.6932 96.8964 9.6506H96.7227C95.3911 9.6506 95.7054 8.59963 95.176 7.64875C94.6715 7.94069 94.1339 8.23262 93.6045 8.49954L93.3398 8.3494C93.9684 7.66543 94.4316 6.81464 94.8617 5.98054C95.755 4.20389 96.0445 2.76089 96.2844 0.809082H100.155C99.9402 1.39296 99.7169 1.97683 99.4522 2.56904H101.363L102.256 1.42632L105.838 2.22706L104.853 3.20297ZM100.254 18.1752C98.6334 19.7349 96.1189 21.0779 93.9932 21.6617L93.803 21.4866C95.3745 20.0936 96.9212 18.342 97.5002 16.2651H101.611C101.222 16.9323 100.809 17.6413 100.254 18.1752ZM106.177 15.1057V20.544C106.177 21.912 105.308 22.1288 104.167 22.3207C103.637 22.3957 103.075 22.4208 102.521 22.4208C102.306 22.4208 101.727 22.4458 101.553 22.3207C101.313 22.1538 101.404 21.5616 101.09 21.203C100.585 20.6691 99.4439 20.4439 98.7409 20.2771V19.9852C99.7334 20.0602 100.726 20.1103 101.718 20.1103C102.297 20.1103 102.446 20.0352 102.446 19.4013V15.1057H94.1504V13.5209H113.712V15.1057H106.177ZM97.31 5.88044C96.8054 6.34754 96.2678 6.78128 95.7385 7.22335C96.243 7.34847 97.525 7.73216 97.8145 8.19926L98.0047 8.51622C98.4183 8.12419 98.7988 7.71548 99.1379 7.2734C97.5002 7.24838 98.3439 6.83133 97.31 5.88044ZM98.7574 4.1038C98.5176 4.44578 98.2529 4.81279 97.9799 5.12975C98.4183 5.20482 99.5514 5.34662 99.7913 5.76367L99.9815 6.10565C100.436 5.47173 100.776 4.81279 101.09 4.1038H98.7574ZM99.6507 11.544V9.9342H108.187V11.544H99.6507ZM114.812 9.64226C114.034 9.85913 113.215 9.95922 112.901 10.785C112.827 11.0019 112.736 11.2938 112.736 11.544C112.736 11.7359 112.81 11.9861 112.835 12.1779L112.57 12.3281C110.42 11.6691 107.996 10.2095 106.789 8.25765C106.499 7.77386 106.235 7.28174 106.011 6.77294C105.672 5.9722 105.457 5.35496 105.383 4.47915L106.086 4.37905C106.565 5.1798 107.293 5.91381 108.071 6.47266C108.211 6.05561 108.41 5.67192 108.575 5.25487C108.741 4.86284 108.865 4.45412 109.014 4.06209H105.747V2.56904H109.278L110.461 1.37627L114.233 2.16033L113.05 3.11121C113 3.28638 112.951 3.4532 112.901 3.62002C112.736 4.08712 111.255 5.67192 110.825 6.0139C110.271 6.43095 109.717 6.86469 109.179 7.30677C111.114 8.47451 112.612 9.04171 114.836 9.40037L114.812 9.64226ZM112.397 21.7868C111.33 21.7868 110.825 21.3031 110.511 20.3021C110.37 19.8434 110.196 19.3763 110.006 18.9092C109.593 17.8582 108.774 16.9824 107.996 16.1817L108.211 16.0065C109.857 16.4903 112.512 17.0575 113.505 18.5422C113.794 18.9842 114.084 19.5181 114.084 20.0519C114.084 20.9778 113.24 21.7868 112.397 21.7868Z" fill="black"/>
<path d="M2.10087 45.9426H0V44.7332H5.64091V45.9426H3.53177V51.8981H2.10087V45.9426Z" fill="black"/>
<path d="M12.9196 50.4802C12.5639 51.4978 11.8112 52.0232 10.6781 52.0232C9.10657 52.0232 8.18848 51.0307 8.18848 49.3458C8.18848 47.6942 9.12311 46.6016 10.5457 46.6016C12.1007 46.6016 12.9857 47.6692 12.9857 49.5543V49.7044H9.56976C9.60284 50.4885 10.0329 50.9973 10.6864 50.9973C11.133 50.9973 11.4142 50.7638 11.5466 50.2549L12.9196 50.4802ZM11.6375 48.8536C11.621 48.103 11.2323 47.6442 10.6285 47.6442C10.0329 47.6442 9.60284 48.128 9.60284 48.7953V48.8536H11.6375Z" fill="black"/>
<path d="M17.2372 46.7183V47.419H17.2538C17.6921 46.8601 18.1967 46.6016 18.8336 46.6016C19.5118 46.6016 19.975 46.8601 20.2893 47.419C20.7442 46.8685 21.2487 46.6016 21.8608 46.6016C22.415 46.6016 22.8947 46.7934 23.1842 47.1354C23.4654 47.469 23.5481 47.8194 23.5481 48.5867V51.9065H22.1916V48.9454C22.1916 47.9528 22.0262 47.6525 21.4638 47.6525C21.0998 47.6525 20.7359 47.8861 20.6036 48.2197C20.4878 48.495 20.4547 48.7786 20.4547 49.4125V51.9065H19.0982V49.0622C19.0982 47.9028 18.9659 47.6525 18.3869 47.6525C18.023 47.6525 17.6756 47.8527 17.5267 48.153C17.3944 48.4116 17.3447 48.7202 17.3447 49.3791V51.8981H15.9883V46.7183H17.2372Z" fill="black"/>
<path d="M28.0887 46.7184V47.4774H28.1053C28.4361 46.9269 29.0316 46.5933 29.6851 46.5933C30.9753 46.5933 31.8355 47.6693 31.8355 49.2707C31.8355 50.9056 30.9588 52.0149 29.6851 52.0149C29.0978 52.0149 28.6842 51.8064 28.1797 51.2559V53.8667H26.8232V46.71H28.0887V46.7184ZM29.3459 50.9306C30.049 50.9306 30.446 50.3301 30.446 49.2874C30.446 48.2782 30.0324 47.6776 29.3211 47.6776C28.585 47.6776 28.1632 48.2698 28.1632 49.2624C28.1632 50.28 28.6263 50.9306 29.3459 50.9306Z" fill="black"/>
<path d="M34.9043 44.7332H36.2773V51.8981H34.9043V44.7332Z" fill="black"/>
<path d="M44.027 50.4802C43.6713 51.4978 42.9187 52.0232 41.7855 52.0232C40.214 52.0232 39.2959 51.0307 39.2959 49.3458C39.2959 47.6942 40.2305 46.6016 41.6532 46.6016C43.2081 46.6016 44.0932 47.6692 44.0932 49.5543V49.7044H40.6772C40.7103 50.4885 41.1404 50.9973 41.7938 50.9973C42.2404 50.9973 42.5216 50.7638 42.654 50.2549L44.027 50.4802ZM42.745 48.8536C42.7284 48.103 42.3397 47.6442 41.7359 47.6442C41.1404 47.6442 40.7185 48.128 40.7185 48.7953V48.8536H42.745Z" fill="black"/>
<path d="M51.9512 44.7332H54.9701C56.0288 44.7332 56.5251 44.8249 56.9387 45.0835C57.4515 45.4171 57.774 46.0427 57.774 46.735C57.774 47.8444 57.0958 48.5617 55.8882 48.7285V48.7452C56.3018 48.9871 56.492 49.1372 56.7732 49.4625C56.9883 49.7294 57.1289 49.9213 57.4763 50.4968L58.3365 51.8981H56.6326L55.5905 50.3383C55.0942 49.5876 54.9867 49.4375 54.8047 49.2623C54.6889 49.1456 54.5483 49.0538 54.416 49.0038C54.2092 48.9204 54.1348 48.912 53.6798 48.912H53.3821V51.9065H51.9512V44.7332ZM53.3738 47.7693H54.4325L54.9288 47.761C55.9296 47.7443 56.277 47.5191 56.277 46.8434C56.277 46.2095 55.9213 45.9509 55.0528 45.9509H54.4904H53.3655V47.7693H53.3738Z" fill="black"/>
<path d="M63.3821 46.5933C64.9371 46.5933 66.0371 47.711 66.0371 49.2874C66.0371 50.8555 64.9205 52.0149 63.3904 52.0149C61.8189 52.0149 60.7354 50.9223 60.7354 49.3458C60.7354 47.7026 61.8023 46.5933 63.3821 46.5933ZM63.3904 50.8972C64.1513 50.8972 64.6393 50.2633 64.6393 49.2958C64.6393 48.3365 64.1431 47.711 63.3904 47.711C62.6294 47.711 62.1332 48.3282 62.1332 49.3041C62.1332 50.2633 62.6294 50.8972 63.3904 50.8972Z" fill="black"/>
<path d="M72.48 51.1141H72.4634C72.1078 51.6729 71.4626 52.0149 70.7678 52.0149C70.1723 52.0149 69.6347 51.7563 69.3618 51.3309C69.155 51.014 69.0723 50.6637 69.0723 49.9797V46.71H70.4287V49.0872V49.3791L70.437 49.8879C70.4453 50.6303 70.7017 50.9556 71.2807 50.9556C71.7604 50.9556 72.1905 50.647 72.3063 50.2383C72.3642 49.9964 72.389 49.6294 72.389 48.887V46.7017H73.762V51.8815H72.4882V51.1141H72.48Z" fill="black"/>
<path d="M80.47 51.8982V49.2457C80.47 48.1864 80.4038 47.9445 80.0399 47.7443C79.9075 47.6776 79.7752 47.6442 79.6263 47.6442C79.2707 47.6442 78.9398 47.8027 78.7496 48.0613C78.5511 48.3282 78.4932 48.6618 78.4932 49.546V51.8982H77.1367V46.7184H78.4105V47.4774H78.427C78.8406 46.8935 79.4278 46.5933 80.0895 46.5933C80.7264 46.5933 81.2806 46.8435 81.5452 47.2605C81.752 47.5942 81.8264 47.9111 81.8264 48.6702V51.8898H80.47V51.8982Z" fill="black"/>
<path d="M88.6496 51.8981V51.1391H88.6331C88.2526 51.6979 87.6736 52.0149 87.045 52.0149C85.7713 52.0149 84.8945 50.8972 84.8945 49.2874C84.8945 47.6275 85.7299 46.5932 87.0698 46.5932C87.6571 46.5932 88.1285 46.8101 88.5586 47.3105V44.7332H89.9317V51.8981H88.6496ZM86.2758 49.3207C86.2758 50.3383 86.6894 50.9306 87.4255 50.9306C88.1203 50.9306 88.5586 50.3133 88.5586 49.3291C88.5586 48.2364 88.1616 47.6442 87.4172 47.6442C86.7142 47.6442 86.2758 48.1864 86.2758 49.1873V49.3207Z" fill="black"/>
<path d="M102.033 44.7332V49.2623C102.033 49.9964 101.991 50.3217 101.842 50.722C101.743 50.9889 101.578 51.2392 101.346 51.456C100.941 51.8397 100.403 52.0149 99.667 52.0149C98.3105 52.0149 97.4834 51.1808 97.4834 49.7962V49.6877L98.8399 49.5293V49.571V49.6043C98.8399 50.3634 99.1542 50.7971 99.7249 50.7971C100.403 50.7971 100.602 50.4801 100.602 49.3791V44.7498H102.033V44.7332Z" fill="black"/>
<path d="M105.498 44.7332H106.871V46.001H105.498V44.7332ZM105.498 46.7183H106.871V51.8981H105.498V46.7183Z" fill="black"/>
<path d="M113.563 51.8982V49.2457C113.563 48.1864 113.497 47.9445 113.133 47.7443C113 47.6776 112.868 47.6442 112.719 47.6442C112.363 47.6442 112.033 47.8027 111.842 48.0613C111.644 48.3282 111.586 48.6618 111.586 49.546V51.8982H110.229V46.7184H111.503V47.4774H111.52C111.933 46.8935 112.521 46.5933 113.182 46.5933C113.819 46.5933 114.373 46.8435 114.638 47.2605C114.845 47.5942 114.919 47.9111 114.919 48.6702V51.8898H113.563V51.8982Z" fill="black"/>
<path d="M119.716 52.432C119.766 52.824 119.972 52.9491 120.51 52.9491C121.403 52.9491 121.643 52.7072 121.643 51.8147V51.0557H121.627C121.238 51.6145 120.725 51.8981 120.113 51.8981C118.864 51.8981 117.987 50.8221 117.987 49.279C117.987 47.6442 118.839 46.6016 120.163 46.6016C120.816 46.6016 121.312 46.8601 121.718 47.444H121.734V46.7267H123.008V51.381C123.008 52.4236 122.876 52.9741 122.528 53.3745C122.148 53.8082 121.503 54.0168 120.576 54.0168H120.543C118.996 54.0168 118.161 53.4663 118.161 52.4236V52.2568L119.716 52.432ZM120.485 50.7888C121.213 50.7888 121.676 50.1882 121.676 49.229C121.676 48.2364 121.23 47.6442 120.502 47.6442C119.799 47.6442 119.377 48.2281 119.377 49.2373C119.377 50.1966 119.799 50.7888 120.485 50.7888Z" fill="black"/>
</g>
<defs>
<clipPath id="clip0_452_12578">
<rect width="123" height="54" fill="white"/>
</clipPath>
</defs>
</svg>
