<?xml version="1.0" encoding="utf-8"?>
<!-- Generator: Adobe Illustrator 26.3.1, SVG Export Plug-In . SVG Version: 6.00 Build 0)  -->
<svg version="1.1" id="圖層_3" xmlns="http://www.w3.org/2000/svg" xmlns:xlink="http://www.w3.org/1999/xlink" x="0px" y="0px"
	 viewBox="0 0 752 384" style="enable-background:new 0 0 752 384;" xml:space="preserve">
<style type="text/css">
	.st0{fill:#FFFFFF;stroke:#C39A6B;stroke-width:3;stroke-linecap:round;stroke-linejoin:round;stroke-miterlimit:10;}
	.st1{fill:#431D31;stroke:#C39A6B;stroke-width:3;stroke-miterlimit:10;}
</style>
<g>
	<path class="st0" d="M468.6,166.7c-15.2,5.8-28.6,15.3-39.2,27.3c10.6,12,24,21.4,39.2,27.3c-5.8-7.5-9.3-17-9.3-27.3
		S462.8,174.3,468.6,166.7z"/>
	<path class="st0" d="M578.7,194c-10.6-12-24-21.4-39.2-27.3c5.8,7.5,9.3,17,9.3,27.3s-3.5,19.7-9.3,27.3
		C554.7,215.4,568.1,206,578.7,194z"/>
	<path class="st1" d="M539.5,166.7c-11-4.2-23-6.5-35.5-6.5s-24.5,2.3-35.5,6.5c-5.8,7.5-9.3,17-9.3,27.3s3.5,19.7,9.3,27.3
		c11,4.2,23,6.5,35.5,6.5s24.5-2.3,35.5-6.5c5.8-7.5,9.3-17,9.3-27.3S545.3,174.3,539.5,166.7z"/>
</g>
<g>
	<path class="st0" d="M208,166.7c-15.2,5.8-28.6,15.3-39.2,27.3c10.6,12,24,21.4,39.2,27.3c-5.8-7.5-9.3-17-9.3-27.3
		S202.2,174.3,208,166.7z"/>
	<path class="st0" d="M318.1,194c-10.6-12-24-21.4-39.2-27.3c5.8,7.5,9.3,17,9.3,27.3s-3.5,19.7-9.3,27.3
		C294.2,215.4,307.6,206,318.1,194z"/>
	<path class="st1" d="M279,166.7c-11-4.2-23-6.5-35.5-6.5s-24.5,2.3-35.5,6.5c-5.8,7.5-9.3,17-9.3,27.3s3.5,19.7,9.3,27.3
		c11,4.2,23,6.5,35.5,6.5s24.5-2.3,35.5-6.5c5.8-7.5,9.3-17,9.3-27.3S284.8,174.3,279,166.7z"/>
</g>
</svg>
