<?xml version="1.0" encoding="utf-8"?>
<!-- Generator: Adobe Illustrator 26.3.1, SVG Export Plug-In . SVG Version: 6.00 Build 0)  -->
<svg version="1.1" id="圖層_2" xmlns="http://www.w3.org/2000/svg" xmlns:xlink="http://www.w3.org/1999/xlink" x="0px" y="0px"
	 viewBox="0 0 752 384" style="enable-background:new 0 0 752 384;" xml:space="preserve">
<style type="text/css">
	.st0{fill:#C6B880;}
	.st1{fill:#431D31;stroke:#C39A6B;stroke-width:3;stroke-miterlimit:10;}
	.st2{fill:#E4007E;stroke:#C39A6B;stroke-width:20.3892;stroke-linecap:round;stroke-linejoin:round;stroke-miterlimit:10;}
	.st3{fill:none;stroke:#C39A6B;stroke-width:3;stroke-linecap:round;stroke-linejoin:round;stroke-miterlimit:10;}
</style>
<g>
	<g>
		<path class="st0" d="M486.9,175.2c-1.5-1.5-47.4-34.1-70.5-50.4c-9.3,12.1-23.9,19.9-40.3,19.9c-16.9,0-31.8-8.2-41.1-20.9
			l-27.1,3.3l-34.6,114.1l63.5,18.5c9.3-11.3,23.4-18.5,39.2-18.5c15.4,0,29.1,6.8,38.5,17.6l20.9-3.5L486.9,175.2z"/>
	</g>
	<path class="st1" d="M228.5,92c0,0,33.2-29.4,24.4-47c-8.8-17.6-22.3,3.4-34.9,10.8c0,0,14.6-25.8,0-33.2s-21.4,9.5-34.9,26.4
		S152.6,92,152.6,92s6.1-47,6.8-55.1s0.4-15.8-10.7-16S135.6,31.5,128.9,66c-6.8,34.6-14.2,68.5-17.6,78.7
		c-3.4,10.2-8.8,16.3-13.6,41.4s-20.3,92.2-23.1,98.3c-2.7,6.1-59.7,88.8-59.7,88.8h147.1l30.5-44.1l33.9-31.9L228.5,92z"/>
	<path class="st1" d="M523.5,92c0,0-33.2-29.4-24.4-47s22.3,3.4,34.9,10.8c0,0-14.6-25.8,0-33.2c14.6-7.5,21.4,9.5,34.9,26.4
		C582.5,66,599.4,92,599.4,92s-6.1-47-6.8-55.1s-0.4-15.8,10.7-16c11-0.2,13.1,10.6,19.9,45.2c6.8,34.6,14.2,68.5,17.6,78.7
		c3.4,10.2,8.8,16.3,13.6,41.4s20.3,92.2,23.1,98.3c2.7,6.1,59.7,88.8,59.7,88.8H589.9l-30.5-44.1l-33.9-31.9L523.5,92z"/>
	<circle class="st2" cx="248.7" cy="192" r="100"/>
	<circle class="st2" cx="503.3" cy="192" r="100"/>
	<path class="st3" d="M173.6,258c0,0,9.5,22.9-3.4,55.5"/>
	<path class="st3" d="M578.4,258c0,0-9.5,22.9,3.4,55.5"/>
</g>
</svg>
