<svg width="183" height="634" viewBox="0 0 183 634" fill="none" xmlns="http://www.w3.org/2000/svg">
<g clip-path="url(#clip0_452_20869)">
<path d="M149.895 55.8457H33.0801V441.654H149.895V55.8457Z" fill="#431D31" stroke="#C39A6B" stroke-width="3" stroke-miterlimit="10" stroke-linecap="round" stroke-linejoin="round"/>
<path d="M33.0801 79.9785H149.919" stroke="#C39A6B" stroke-width="3" stroke-miterlimit="10" stroke-linecap="round" stroke-linejoin="round"/>
<path d="M135.317 57.6367V441.654" stroke="#C39A6B" stroke-width="3" stroke-miterlimit="10" stroke-linecap="round" stroke-linejoin="round"/>
<path d="M120.715 57.6367V441.654" stroke="#C39A6B" stroke-width="3" stroke-miterlimit="10" stroke-linecap="round" stroke-linejoin="round"/>
<path d="M106.113 57.6367V441.654" stroke="#C39A6B" stroke-width="3" stroke-miterlimit="10" stroke-linecap="round" stroke-linejoin="round"/>
<path d="M91.5112 57.6367V441.654" stroke="#C39A6B" stroke-width="3" stroke-miterlimit="10" stroke-linecap="round" stroke-linejoin="round"/>
<path d="M76.9092 57.6367V441.654" stroke="#C39A6B" stroke-width="3" stroke-miterlimit="10" stroke-linecap="round" stroke-linejoin="round"/>
<path d="M62.3071 57.6367V441.654" stroke="#C39A6B" stroke-width="3" stroke-miterlimit="10" stroke-linecap="round" stroke-linejoin="round"/>
<path d="M47.7051 57.6367V441.654" stroke="#C39A6B" stroke-width="3" stroke-miterlimit="10" stroke-linecap="round" stroke-linejoin="round"/>
<path d="M33.0801 104.09H149.919" stroke="#C39A6B" stroke-width="3" stroke-miterlimit="10" stroke-linecap="round" stroke-linejoin="round"/>
<path d="M33.0801 128.199H149.919" stroke="#C39A6B" stroke-width="3" stroke-miterlimit="10" stroke-linecap="round" stroke-linejoin="round"/>
<path d="M33.0801 152.309H149.919" stroke="#C39A6B" stroke-width="3" stroke-miterlimit="10" stroke-linecap="round" stroke-linejoin="round"/>
<path d="M33.0801 176.42H149.919" stroke="#C39A6B" stroke-width="3" stroke-miterlimit="10" stroke-linecap="round" stroke-linejoin="round"/>
<path d="M33.0801 200.529H149.919" stroke="#C39A6B" stroke-width="3" stroke-miterlimit="10" stroke-linecap="round" stroke-linejoin="round"/>
<path d="M33.0801 224.639H149.919" stroke="#C39A6B" stroke-width="3" stroke-miterlimit="10" stroke-linecap="round" stroke-linejoin="round"/>
<path d="M33.0801 248.75H149.919" stroke="#C39A6B" stroke-width="3" stroke-miterlimit="10" stroke-linecap="round" stroke-linejoin="round"/>
<path d="M33.0801 272.859H149.919" stroke="#C39A6B" stroke-width="3" stroke-miterlimit="10" stroke-linecap="round" stroke-linejoin="round"/>
<path d="M33.0801 296.992H149.919" stroke="#C39A6B" stroke-width="3" stroke-miterlimit="10" stroke-linecap="round" stroke-linejoin="round"/>
<path d="M33.0801 321.104H149.919" stroke="#C39A6B" stroke-width="3" stroke-miterlimit="10" stroke-linecap="round" stroke-linejoin="round"/>
<path d="M33.0801 345.213H149.919" stroke="#C39A6B" stroke-width="3" stroke-miterlimit="10" stroke-linecap="round" stroke-linejoin="round"/>
<path d="M33.0801 369.324H149.919" stroke="#C39A6B" stroke-width="3" stroke-miterlimit="10" stroke-linecap="round" stroke-linejoin="round"/>
<path d="M33.0801 393.434H149.919" stroke="#C39A6B" stroke-width="3" stroke-miterlimit="10" stroke-linecap="round" stroke-linejoin="round"/>
<path d="M33.0801 417.543H149.919" stroke="#C39A6B" stroke-width="3" stroke-miterlimit="10" stroke-linecap="round" stroke-linejoin="round"/>
<path d="M97.5004 24.6904C100.75 22.6676 102.956 19.0872 102.956 14.9719C102.956 8.64798 97.8254 3.50977 91.511 3.50977C85.1967 3.50977 80.0663 8.64798 80.0663 14.9719C80.0663 19.0872 82.2485 22.6676 85.5217 24.6904C68.2501 32.8511 19.5693 55.8452 18.9425 55.8452C18.1764 55.8452 91.511 55.8452 91.511 55.8452C91.511 55.8452 164.846 55.8452 164.08 55.8452C163.43 55.8452 114.772 32.8511 97.5004 24.6904Z" fill="#431D31" stroke="#C39A6B" stroke-width="3" stroke-miterlimit="10" stroke-linecap="round" stroke-linejoin="round"/>
<path d="M135.317 466.02H47.7056V509.962H135.317V466.02Z" fill="#431D31"/>
<path d="M37.1428 480.318L30.457 494.757L59.4984 503.522L63.3984 480.318H37.1428Z" fill="#431D31" stroke="#C39A6B" stroke-width="3" stroke-miterlimit="10" stroke-linecap="round" stroke-linejoin="round"/>
<path d="M155.119 441.654H91.6041H91.3952H27.8803C24.7928 466.927 37.1429 480.319 37.1429 480.319H91.3952H91.6041H145.856C145.856 480.319 158.207 466.927 155.119 441.654Z" fill="#431D31" stroke="#C39A6B" stroke-width="3" stroke-miterlimit="10" stroke-linecap="round" stroke-linejoin="round"/>
<path d="M145.856 480.318L152.542 494.757L123.501 503.522L119.624 480.318H145.856Z" fill="#431D31" stroke="#C39A6B" stroke-width="3" stroke-miterlimit="10" stroke-linecap="round" stroke-linejoin="round"/>
<path d="M10.4458 61.321C7.44598 61.321 4.98145 58.856 4.98145 55.846C4.98145 52.8361 7.44598 50.3711 10.4458 50.3711H172.553C175.553 50.3711 178.017 52.8361 178.017 55.846C178.017 58.856 175.553 61.321 172.553 61.321H10.4458Z" fill="#431D31" stroke="#C39A6B" stroke-width="3"/>
<path d="M152.542 525.215H30.457V617.54H152.542V525.215Z" fill="#431D31" stroke="#C39A6B" stroke-width="3" stroke-miterlimit="10" stroke-linecap="round" stroke-linejoin="round"/>
<path d="M152.542 494.756H30.457V502.359H152.542V494.756Z" fill="#431D31" stroke="#C39A6B" stroke-width="3" stroke-miterlimit="10" stroke-linecap="round" stroke-linejoin="round"/>
<path d="M154.864 509.962H28.1357L30.4572 502.359H152.542L154.864 509.962Z" fill="#431D31" stroke="#C39A6B" stroke-width="3" stroke-miterlimit="10" stroke-linecap="round" stroke-linejoin="round"/>
<path d="M154.864 509.963H28.1357V525.238H154.864V509.963Z" fill="#431D31" stroke="#C39A6B" stroke-width="3" stroke-miterlimit="10" stroke-linecap="round" stroke-linejoin="round"/>
<path d="M59.4985 525.168V509.963" stroke="#C39A6B" stroke-width="3" stroke-miterlimit="10" stroke-linecap="round" stroke-linejoin="round"/>
<path d="M123.5 525.168V509.963" stroke="#C39A6B" stroke-width="3" stroke-miterlimit="10" stroke-linecap="round" stroke-linejoin="round"/>
<path d="M160.272 617.562H22.7495V632.838H160.272V617.562Z" fill="#431D31" stroke="#C39A6B" stroke-width="3" stroke-miterlimit="10" stroke-linecap="round" stroke-linejoin="round"/>
<path d="M59.4985 632.768V617.562" stroke="#C39A6B" stroke-width="3" stroke-miterlimit="10" stroke-linecap="round" stroke-linejoin="round"/>
<path d="M123.5 632.768V617.562" stroke="#C39A6B" stroke-width="3" stroke-miterlimit="10" stroke-linecap="round" stroke-linejoin="round"/>
<path d="M64.1411 617.563V525.215" stroke="#C39A6B" stroke-width="3" stroke-miterlimit="10" stroke-linecap="round" stroke-linejoin="round"/>
<path d="M118.858 617.563V525.215" stroke="#C39A6B" stroke-width="3" stroke-miterlimit="10" stroke-linecap="round" stroke-linejoin="round"/>
<path d="M142.417 424.189C141.366 424.979 140.379 425.855 139.582 426.892C139.207 427.382 139 427.982 139 428.599V433.032C139 433.568 139.432 434 139.969 434H146.03C146.567 434 147 433.568 147 433.032V428.599C147 428.011 146.821 427.434 146.468 426.962C145.66 425.895 144.656 424.996 143.582 424.195C143.242 423.935 142.769 423.935 142.422 424.195L142.417 424.189Z" fill="#E4007E"/>
<path d="M127.417 424.189C126.366 424.979 125.379 425.855 124.582 426.892C124.207 427.382 124 427.982 124 428.599V433.032C124 433.568 124.432 434 124.969 434H131.03C131.567 434 132 433.568 132 433.032V428.599C132 428.011 131.821 427.434 131.468 426.962C130.66 425.895 129.656 424.996 128.582 424.195C128.242 423.935 127.769 423.935 127.422 424.195L127.417 424.189Z" fill="#E4007E"/>
<path d="M112.417 424.189C111.366 424.979 110.379 425.855 109.582 426.892C109.207 427.382 109 427.982 109 428.599V433.032C109 433.568 109.432 434 109.969 434H116.03C116.567 434 117 433.568 117 433.032V428.599C117 428.011 116.821 427.434 116.468 426.962C115.66 425.895 114.656 424.996 113.582 424.195C113.242 423.935 112.769 423.935 112.422 424.195L112.417 424.189Z" fill="#E4007E"/>
<path d="M98.4165 424.189C97.366 424.979 96.379 425.855 95.5825 426.892C95.2073 427.382 94.9995 427.982 94.9995 428.599V433.032C94.9995 433.568 95.4324 434 95.9692 434H102.03C102.567 434 103 433.568 103 433.032V428.599C103 428.011 102.821 427.434 102.468 426.962C101.66 425.895 100.656 424.996 99.5825 424.195C99.2419 423.935 98.7686 423.935 98.4223 424.195L98.4165 424.189Z" fill="#E4007E"/>
<path d="M83.4165 424.189C82.366 424.979 81.379 425.855 80.5825 426.892C80.2073 427.382 79.9995 427.982 79.9995 428.599V433.032C79.9995 433.568 80.4324 434 80.9692 434H87.0298C87.5666 434 87.9995 433.568 87.9995 433.032V428.599C87.9995 428.011 87.8206 427.434 87.4685 426.962C86.6604 425.895 85.6561 424.996 84.5825 424.195C84.2419 423.935 83.7686 423.935 83.4223 424.195L83.4165 424.189Z" fill="#E4007E"/>
<path d="M69.4165 424.189C68.366 424.979 67.379 425.855 66.5825 426.892C66.2073 427.382 65.9995 427.982 65.9995 428.599V433.032C65.9995 433.568 66.4324 434 66.9692 434H73.0298C73.5666 434 73.9995 433.568 73.9995 433.032V428.599C73.9995 428.011 73.8206 427.434 73.4685 426.962C72.6604 425.895 71.6561 424.996 70.5825 424.195C70.2419 423.935 69.7686 423.935 69.4223 424.195L69.4165 424.189Z" fill="#E4007E"/>
<path d="M54.4165 424.189C53.366 424.979 52.379 425.855 51.5825 426.892C51.2073 427.382 50.9995 427.982 50.9995 428.599V433.032C50.9995 433.568 51.4324 434 51.9692 434H58.0298C58.5666 434 58.9995 433.568 58.9995 433.032V428.599C58.9995 428.011 58.8206 427.434 58.4685 426.962C57.6604 425.895 56.6561 424.996 55.5825 424.195C55.2419 423.935 54.7686 423.935 54.4223 424.195L54.4165 424.189Z" fill="#E4007E"/>
<path d="M39.4165 424.189C38.366 424.979 37.379 425.855 36.5825 426.892C36.2073 427.382 35.9995 427.982 35.9995 428.599V433.032C35.9995 433.568 36.4324 434 36.9692 434H43.0298C43.5666 434 43.9995 433.568 43.9995 433.032V428.599C43.9995 428.011 43.8206 427.434 43.4685 426.962C42.6604 425.895 41.6561 424.996 40.5825 424.195C40.2419 423.935 39.7686 423.935 39.4223 424.195L39.4165 424.189Z" fill="#E4007E"/>
<path d="M142.417 400.189C141.366 400.979 140.379 401.855 139.582 402.892C139.207 403.382 139 403.982 139 404.599V409.032C139 409.568 139.432 410 139.969 410H146.03C146.567 410 147 409.568 147 409.032V404.599C147 404.011 146.821 403.434 146.468 402.962C145.66 401.895 144.656 400.996 143.582 400.195C143.242 399.935 142.769 399.935 142.422 400.195L142.417 400.189Z" fill="#E4007E"/>
<path d="M142.417 376.189C141.366 376.979 140.379 377.855 139.582 378.892C139.207 379.382 139 379.982 139 380.599V385.032C139 385.568 139.432 386 139.969 386H146.03C146.567 386 147 385.568 147 385.032V380.599C147 380.011 146.821 379.434 146.468 378.962C145.66 377.895 144.656 376.996 143.582 376.195C143.242 375.935 142.769 375.935 142.422 376.195L142.417 376.189Z" fill="#E4007E"/>
<path d="M142.417 352.189C141.366 352.979 140.379 353.855 139.582 354.892C139.207 355.382 139 355.982 139 356.599V361.032C139 361.568 139.432 362 139.969 362H146.03C146.567 362 147 361.568 147 361.032V356.599C147 356.011 146.821 355.434 146.468 354.962C145.66 353.895 144.656 352.996 143.582 352.195C143.242 351.935 142.769 351.935 142.422 352.195L142.417 352.189Z" fill="#E4007E"/>
<path d="M142.417 328.189C141.366 328.979 140.379 329.855 139.582 330.892C139.207 331.382 139 331.982 139 332.599V337.032C139 337.568 139.432 338 139.969 338H146.03C146.567 338 147 337.568 147 337.032V332.599C147 332.011 146.821 331.434 146.468 330.962C145.66 329.895 144.656 328.996 143.582 328.195C143.242 327.935 142.769 327.935 142.422 328.195L142.417 328.189Z" fill="#E4007E"/>
<path d="M142.417 304.189C141.366 304.979 140.379 305.855 139.582 306.892C139.207 307.382 139 307.982 139 308.599V313.032C139 313.568 139.432 314 139.969 314H146.03C146.567 314 147 313.568 147 313.032V308.599C147 308.011 146.821 307.434 146.468 306.962C145.66 305.895 144.656 304.996 143.582 304.195C143.242 303.935 142.769 303.935 142.422 304.195L142.417 304.189Z" fill="#E4007E"/>
<path d="M142.417 280.189C141.366 280.979 140.379 281.855 139.582 282.892C139.207 283.382 139 283.982 139 284.599V289.032C139 289.568 139.432 290 139.969 290H146.03C146.567 290 147 289.568 147 289.032V284.599C147 284.011 146.821 283.434 146.468 282.962C145.66 281.895 144.656 280.996 143.582 280.195C143.242 279.935 142.769 279.935 142.422 280.195L142.417 280.189Z" fill="#E4007E"/>
<path d="M142.417 256.189C141.366 256.979 140.379 257.855 139.582 258.892C139.207 259.382 139 259.982 139 260.599V265.032C139 265.568 139.432 266 139.969 266H146.03C146.567 266 147 265.568 147 265.032V260.599C147 260.011 146.821 259.434 146.468 258.962C145.66 257.895 144.656 256.996 143.582 256.195C143.242 255.935 142.769 255.935 142.422 256.195L142.417 256.189Z" fill="#E4007E"/>
<path d="M142.417 232.189C141.366 232.979 140.379 233.855 139.582 234.892C139.207 235.382 139 235.982 139 236.599V241.032C139 241.568 139.432 242 139.969 242H146.03C146.567 242 147 241.568 147 241.032V236.599C147 236.011 146.821 235.434 146.468 234.962C145.66 233.895 144.656 232.996 143.582 232.195C143.242 231.935 142.769 231.935 142.422 232.195L142.417 232.189Z" fill="#E4007E"/>
<path d="M142.417 208.189C141.366 208.979 140.379 209.855 139.582 210.892C139.207 211.382 139 211.982 139 212.599V217.032C139 217.568 139.432 218 139.969 218H146.03C146.567 218 147 217.568 147 217.032V212.599C147 212.011 146.821 211.434 146.468 210.962C145.66 209.895 144.656 208.996 143.582 208.195C143.242 207.935 142.769 207.935 142.422 208.195L142.417 208.189Z" fill="#E4007E"/>
<path d="M142.417 184.189C141.366 184.979 140.379 185.855 139.582 186.892C139.207 187.382 139 187.982 139 188.599V193.032C139 193.568 139.432 194 139.969 194H146.03C146.567 194 147 193.568 147 193.032V188.599C147 188.011 146.821 187.434 146.468 186.962C145.66 185.895 144.656 184.996 143.582 184.195C143.242 183.935 142.769 183.935 142.422 184.195L142.417 184.189Z" fill="#E4007E"/>
<path d="M142.417 160.189C141.366 160.979 140.379 161.855 139.582 162.892C139.207 163.382 139 163.982 139 164.599V169.032C139 169.568 139.432 170 139.969 170H146.03C146.567 170 147 169.568 147 169.032V164.599C147 164.011 146.821 163.434 146.468 162.962C145.66 161.895 144.656 160.996 143.582 160.195C143.242 159.935 142.769 159.935 142.422 160.195L142.417 160.189Z" fill="#E4007E"/>
<path d="M142.417 136.189C141.366 136.979 140.379 137.855 139.582 138.892C139.207 139.382 139 139.982 139 140.599V145.032C139 145.568 139.432 146 139.969 146H146.03C146.567 146 147 145.568 147 145.032V140.599C147 140.011 146.821 139.434 146.468 138.962C145.66 137.895 144.656 136.996 143.582 136.195C143.242 135.935 142.769 135.935 142.422 136.195L142.417 136.189Z" fill="#E4007E"/>
<path d="M142.417 112.189C141.366 112.979 140.379 113.855 139.582 114.892C139.207 115.382 139 115.982 139 116.599V121.032C139 121.568 139.432 122 139.969 122H146.03C146.567 122 147 121.568 147 121.032V116.599C147 116.011 146.821 115.434 146.468 114.962C145.66 113.895 144.656 112.996 143.582 112.195C143.242 111.935 142.769 111.935 142.422 112.195L142.417 112.189Z" fill="#E4007E"/>
<path d="M142.417 88.1888C141.366 88.9785 140.379 89.8547 139.582 90.8923C139.207 91.3823 139 91.9818 139 92.5986V97.0316C139 97.5677 139.432 98 139.969 98H146.03C146.567 98 147 97.5677 147 97.0316V92.5986C147 92.0107 146.821 91.4342 146.468 90.9615C145.66 89.8951 144.656 88.9958 143.582 88.1946C143.242 87.9351 142.769 87.9351 142.422 88.1946L142.417 88.1888Z" fill="#E4007E"/>
<path d="M142.417 64.1888C141.366 64.9785 140.379 65.8547 139.582 66.8923C139.207 67.3823 139 67.9818 139 68.5986V73.0316C139 73.5677 139.432 74 139.969 74H146.03C146.567 74 147 73.5677 147 73.0316V68.5986C147 68.0107 146.821 67.4342 146.468 66.9615C145.66 65.8951 144.656 64.9958 143.582 64.1946C143.242 63.9351 142.769 63.9351 142.422 64.1946L142.417 64.1888Z" fill="#E4007E"/>
<path d="M127.417 352.189C126.366 352.979 125.379 353.855 124.582 354.892C124.207 355.382 124 355.982 124 356.599V361.032C124 361.568 124.432 362 124.969 362H131.03C131.567 362 132 361.568 132 361.032V356.599C132 356.011 131.821 355.434 131.468 354.962C130.66 353.895 129.656 352.996 128.582 352.195C128.242 351.935 127.769 351.935 127.422 352.195L127.417 352.189Z" fill="#E4007E"/>
<path d="M127.417 328.189C126.366 328.979 125.379 329.855 124.582 330.892C124.207 331.382 124 331.982 124 332.599V337.032C124 337.568 124.432 338 124.969 338H131.03C131.567 338 132 337.568 132 337.032V332.599C132 332.011 131.821 331.434 131.468 330.962C130.66 329.895 129.656 328.996 128.582 328.195C128.242 327.935 127.769 327.935 127.422 328.195L127.417 328.189Z" fill="#E4007E"/>
<path d="M127.417 304.189C126.366 304.979 125.379 305.855 124.582 306.892C124.207 307.382 124 307.982 124 308.599V313.032C124 313.568 124.432 314 124.969 314H131.03C131.567 314 132 313.568 132 313.032V308.599C132 308.011 131.821 307.434 131.468 306.962C130.66 305.895 129.656 304.996 128.582 304.195C128.242 303.935 127.769 303.935 127.422 304.195L127.417 304.189Z" fill="#E4007E"/>
<path d="M127.417 280.189C126.366 280.979 125.379 281.855 124.582 282.892C124.207 283.382 124 283.982 124 284.599V289.032C124 289.568 124.432 290 124.969 290H131.03C131.567 290 132 289.568 132 289.032V284.599C132 284.011 131.821 283.434 131.468 282.962C130.66 281.895 129.656 280.996 128.582 280.195C128.242 279.935 127.769 279.935 127.422 280.195L127.417 280.189Z" fill="#E4007E"/>
<path d="M127.417 256.189C126.366 256.979 125.379 257.855 124.582 258.892C124.207 259.382 124 259.982 124 260.599V265.032C124 265.568 124.432 266 124.969 266H131.03C131.567 266 132 265.568 132 265.032V260.599C132 260.011 131.821 259.434 131.468 258.962C130.66 257.895 129.656 256.996 128.582 256.195C128.242 255.935 127.769 255.935 127.422 256.195L127.417 256.189Z" fill="#E4007E"/>
<path d="M127.417 232.189C126.366 232.979 125.379 233.855 124.582 234.892C124.207 235.382 124 235.982 124 236.599V241.032C124 241.568 124.432 242 124.969 242H131.03C131.567 242 132 241.568 132 241.032V236.599C132 236.011 131.821 235.434 131.468 234.962C130.66 233.895 129.656 232.996 128.582 232.195C128.242 231.935 127.769 231.935 127.422 232.195L127.417 232.189Z" fill="#E4007E"/>
<path d="M127.417 208.189C126.366 208.979 125.379 209.855 124.582 210.892C124.207 211.382 124 211.982 124 212.599V217.032C124 217.568 124.432 218 124.969 218H131.03C131.567 218 132 217.568 132 217.032V212.599C132 212.011 131.821 211.434 131.468 210.962C130.66 209.895 129.656 208.996 128.582 208.195C128.242 207.935 127.769 207.935 127.422 208.195L127.417 208.189Z" fill="#E4007E"/>
<path d="M127.417 160.189C126.366 160.979 125.379 161.855 124.582 162.892C124.207 163.382 124 163.982 124 164.599V169.032C124 169.568 124.432 170 124.969 170H131.03C131.567 170 132 169.568 132 169.032V164.599C132 164.011 131.821 163.434 131.468 162.962C130.66 161.895 129.656 160.996 128.582 160.195C128.242 159.935 127.769 159.935 127.422 160.195L127.417 160.189Z" fill="#E4007E"/>
<path d="M127.417 136.189C126.366 136.979 125.379 137.855 124.582 138.892C124.207 139.382 124 139.982 124 140.599V145.032C124 145.568 124.432 146 124.969 146H131.03C131.567 146 132 145.568 132 145.032V140.599C132 140.011 131.821 139.434 131.468 138.962C130.66 137.895 129.656 136.996 128.582 136.195C128.242 135.935 127.769 135.935 127.422 136.195L127.417 136.189Z" fill="#E4007E"/>
<path d="M127.417 112.189C126.366 112.979 125.379 113.855 124.582 114.892C124.207 115.382 124 115.982 124 116.599V121.032C124 121.568 124.432 122 124.969 122H131.03C131.567 122 132 121.568 132 121.032V116.599C132 116.011 131.821 115.434 131.468 114.962C130.66 113.895 129.656 112.996 128.582 112.195C128.242 111.935 127.769 111.935 127.422 112.195L127.417 112.189Z" fill="#E4007E"/>
<path d="M127.417 64.1888C126.366 64.9785 125.379 65.8547 124.582 66.8923C124.207 67.3823 124 67.9818 124 68.5986V73.0316C124 73.5677 124.432 74 124.969 74H131.03C131.567 74 132 73.5677 132 73.0316V68.5986C132 68.0107 131.821 67.4342 131.468 66.9615C130.66 65.8951 129.656 64.9958 128.582 64.1946C128.242 63.9351 127.769 63.9351 127.422 64.1946L127.417 64.1888Z" fill="#E4007E"/>
<path d="M112.417 400.189C111.366 400.979 110.379 401.855 109.582 402.892C109.207 403.382 109 403.982 109 404.599V409.032C109 409.568 109.432 410 109.969 410H116.03C116.567 410 117 409.568 117 409.032V404.599C117 404.011 116.821 403.434 116.468 402.962C115.66 401.895 114.656 400.996 113.582 400.195C113.242 399.935 112.769 399.935 112.422 400.195L112.417 400.189Z" fill="#E4007E"/>
<path d="M112.417 376.189C111.366 376.979 110.379 377.855 109.582 378.892C109.207 379.382 109 379.982 109 380.599V385.032C109 385.568 109.432 386 109.969 386H116.03C116.567 386 117 385.568 117 385.032V380.599C117 380.011 116.821 379.434 116.468 378.962C115.66 377.895 114.656 376.996 113.582 376.195C113.242 375.935 112.769 375.935 112.422 376.195L112.417 376.189Z" fill="#E4007E"/>
<path d="M112.417 352.189C111.366 352.979 110.379 353.855 109.582 354.892C109.207 355.382 109 355.982 109 356.599V361.032C109 361.568 109.432 362 109.969 362H116.03C116.567 362 117 361.568 117 361.032V356.599C117 356.011 116.821 355.434 116.468 354.962C115.66 353.895 114.656 352.996 113.582 352.195C113.242 351.935 112.769 351.935 112.422 352.195L112.417 352.189Z" fill="#E4007E"/>
<path d="M112.417 232.189C111.366 232.979 110.379 233.855 109.582 234.892C109.207 235.382 109 235.982 109 236.599V241.032C109 241.568 109.432 242 109.969 242H116.03C116.567 242 117 241.568 117 241.032V236.599C117 236.011 116.821 235.434 116.468 234.962C115.66 233.895 114.656 232.996 113.582 232.195C113.242 231.935 112.769 231.935 112.422 232.195L112.417 232.189Z" fill="#E4007E"/>
<path d="M112.417 208.189C111.366 208.979 110.379 209.855 109.582 210.892C109.207 211.382 109 211.982 109 212.599V217.032C109 217.568 109.432 218 109.969 218H116.03C116.567 218 117 217.568 117 217.032V212.599C117 212.011 116.821 211.434 116.468 210.962C115.66 209.895 114.656 208.996 113.582 208.195C113.242 207.935 112.769 207.935 112.422 208.195L112.417 208.189Z" fill="#E4007E"/>
<path d="M112.417 184.189C111.366 184.979 110.379 185.855 109.582 186.892C109.207 187.382 109 187.982 109 188.599V193.032C109 193.568 109.432 194 109.969 194H116.03C116.567 194 117 193.568 117 193.032V188.599C117 188.011 116.821 187.434 116.468 186.962C115.66 185.895 114.656 184.996 113.582 184.195C113.242 183.935 112.769 183.935 112.422 184.195L112.417 184.189Z" fill="#E4007E"/>
<path d="M112.417 160.189C111.366 160.979 110.379 161.855 109.582 162.892C109.207 163.382 109 163.982 109 164.599V169.032C109 169.568 109.432 170 109.969 170H116.03C116.567 170 117 169.568 117 169.032V164.599C117 164.011 116.821 163.434 116.468 162.962C115.66 161.895 114.656 160.996 113.582 160.195C113.242 159.935 112.769 159.935 112.422 160.195L112.417 160.189Z" fill="#E4007E"/>
<path d="M112.417 136.189C111.366 136.979 110.379 137.855 109.582 138.892C109.207 139.382 109 139.982 109 140.599V145.032C109 145.568 109.432 146 109.969 146H116.03C116.567 146 117 145.568 117 145.032V140.599C117 140.011 116.821 139.434 116.468 138.962C115.66 137.895 114.656 136.996 113.582 136.195C113.242 135.935 112.769 135.935 112.422 136.195L112.417 136.189Z" fill="#E4007E"/>
<path d="M112.417 112.189C111.366 112.979 110.379 113.855 109.582 114.892C109.207 115.382 109 115.982 109 116.599V121.032C109 121.568 109.432 122 109.969 122H116.03C116.567 122 117 121.568 117 121.032V116.599C117 116.011 116.821 115.434 116.468 114.962C115.66 113.895 114.656 112.996 113.582 112.195C113.242 111.935 112.769 111.935 112.422 112.195L112.417 112.189Z" fill="#E4007E"/>
<path d="M112.417 88.1888C111.366 88.9785 110.379 89.8547 109.582 90.8923C109.207 91.3823 109 91.9818 109 92.5986V97.0316C109 97.5677 109.432 98 109.969 98H116.03C116.567 98 117 97.5677 117 97.0316V92.5986C117 92.0107 116.821 91.4342 116.468 90.9615C115.66 89.8951 114.656 88.9958 113.582 88.1946C113.242 87.9351 112.769 87.9351 112.422 88.1946L112.417 88.1888Z" fill="#E4007E"/>
<path d="M112.417 64.1888C111.366 64.9785 110.379 65.8547 109.582 66.8923C109.207 67.3823 109 67.9818 109 68.5986V73.0316C109 73.5677 109.432 74 109.969 74H116.03C116.567 74 117 73.5677 117 73.0316V68.5986C117 68.0107 116.821 67.4342 116.468 66.9615C115.66 65.8951 114.656 64.9958 113.582 64.1946C113.242 63.9351 112.769 63.9351 112.422 64.1946L112.417 64.1888Z" fill="#E4007E"/>
<path d="M98.4165 376.189C97.366 376.979 96.379 377.855 95.5825 378.892C95.2073 379.382 94.9995 379.982 94.9995 380.599V385.032C94.9995 385.568 95.4324 386 95.9692 386H102.03C102.567 386 103 385.568 103 385.032V380.599C103 380.011 102.821 379.434 102.468 378.962C101.66 377.895 100.656 376.996 99.5825 376.195C99.2419 375.935 98.7686 375.935 98.4223 376.195L98.4165 376.189Z" fill="#E4007E"/>
<path d="M98.4165 352.189C97.366 352.979 96.379 353.855 95.5825 354.892C95.2073 355.382 94.9995 355.982 94.9995 356.599V361.032C94.9995 361.568 95.4324 362 95.9692 362H102.03C102.567 362 103 361.568 103 361.032V356.599C103 356.011 102.821 355.434 102.468 354.962C101.66 353.895 100.656 352.996 99.5825 352.195C99.2419 351.935 98.7686 351.935 98.4223 352.195L98.4165 352.189Z" fill="#E4007E"/>
<path d="M98.4165 328.189C97.366 328.979 96.379 329.855 95.5825 330.892C95.2073 331.382 94.9995 331.982 94.9995 332.599V337.032C94.9995 337.568 95.4324 338 95.9692 338H102.03C102.567 338 103 337.568 103 337.032V332.599C103 332.011 102.821 331.434 102.468 330.962C101.66 329.895 100.656 328.996 99.5825 328.195C99.2419 327.935 98.7686 327.935 98.4223 328.195L98.4165 328.189Z" fill="#E4007E"/>
<path d="M98.4165 256.189C97.366 256.979 96.379 257.855 95.5825 258.892C95.2073 259.382 94.9995 259.982 94.9995 260.599V265.032C94.9995 265.568 95.4324 266 95.9692 266H102.03C102.567 266 103 265.568 103 265.032V260.599C103 260.011 102.821 259.434 102.468 258.962C101.66 257.895 100.656 256.996 99.5825 256.195C99.2419 255.935 98.7686 255.935 98.4223 256.195L98.4165 256.189Z" fill="#E4007E"/>
<path d="M98.4165 232.189C97.366 232.979 96.379 233.855 95.5825 234.892C95.2073 235.382 94.9995 235.982 94.9995 236.599V241.032C94.9995 241.568 95.4324 242 95.9692 242H102.03C102.567 242 103 241.568 103 241.032V236.599C103 236.011 102.821 235.434 102.468 234.962C101.66 233.895 100.656 232.996 99.5825 232.195C99.2419 231.935 98.7686 231.935 98.4223 232.195L98.4165 232.189Z" fill="#E4007E"/>
<path d="M98.4165 208.189C97.366 208.979 96.379 209.855 95.5825 210.892C95.2073 211.382 94.9995 211.982 94.9995 212.599V217.032C94.9995 217.568 95.4324 218 95.9692 218H102.03C102.567 218 103 217.568 103 217.032V212.599C103 212.011 102.821 211.434 102.468 210.962C101.66 209.895 100.656 208.996 99.5825 208.195C99.2419 207.935 98.7686 207.935 98.4223 208.195L98.4165 208.189Z" fill="#E4007E"/>
<path d="M98.4165 184.189C97.366 184.979 96.379 185.855 95.5825 186.892C95.2073 187.382 94.9995 187.982 94.9995 188.599V193.032C94.9995 193.568 95.4324 194 95.9692 194H102.03C102.567 194 103 193.568 103 193.032V188.599C103 188.011 102.821 187.434 102.468 186.962C101.66 185.895 100.656 184.996 99.5825 184.195C99.2419 183.935 98.7686 183.935 98.4223 184.195L98.4165 184.189Z" fill="#E4007E"/>
<path d="M98.4165 160.189C97.366 160.979 96.379 161.855 95.5825 162.892C95.2073 163.382 94.9995 163.982 94.9995 164.599V169.032C94.9995 169.568 95.4324 170 95.9692 170H102.03C102.567 170 103 169.568 103 169.032V164.599C103 164.011 102.821 163.434 102.468 162.962C101.66 161.895 100.656 160.996 99.5825 160.195C99.2419 159.935 98.7686 159.935 98.4223 160.195L98.4165 160.189Z" fill="#E4007E"/>
<path d="M98.4165 136.189C97.366 136.979 96.379 137.855 95.5825 138.892C95.2073 139.382 94.9995 139.982 94.9995 140.599V145.032C94.9995 145.568 95.4324 146 95.9692 146H102.03C102.567 146 103 145.568 103 145.032V140.599C103 140.011 102.821 139.434 102.468 138.962C101.66 137.895 100.656 136.996 99.5825 136.195C99.2419 135.935 98.7686 135.935 98.4223 136.195L98.4165 136.189Z" fill="#E4007E"/>
<path d="M98.4165 112.189C97.366 112.979 96.379 113.855 95.5825 114.892C95.2073 115.382 94.9995 115.982 94.9995 116.599V121.032C94.9995 121.568 95.4324 122 95.9692 122H102.03C102.567 122 103 121.568 103 121.032V116.599C103 116.011 102.821 115.434 102.468 114.962C101.66 113.895 100.656 112.996 99.5825 112.195C99.2419 111.935 98.7686 111.935 98.4223 112.195L98.4165 112.189Z" fill="#E4007E"/>
<path d="M98.4165 64.1888C97.366 64.9785 96.379 65.8547 95.5825 66.8923C95.2073 67.3823 94.9995 67.9818 94.9995 68.5986V73.0316C94.9995 73.5677 95.4324 74 95.9692 74H102.03C102.567 74 103 73.5677 103 73.0316V68.5986C103 68.0107 102.821 67.4342 102.468 66.9615C101.66 65.8951 100.656 64.9958 99.5825 64.1946C99.2419 63.9351 98.7686 63.9351 98.4223 64.1946L98.4165 64.1888Z" fill="#E4007E"/>
<path d="M83.4165 376.189C82.366 376.979 81.379 377.855 80.5825 378.892C80.2073 379.382 79.9995 379.982 79.9995 380.599V385.032C79.9995 385.568 80.4324 386 80.9692 386H87.0298C87.5666 386 87.9995 385.568 87.9995 385.032V380.599C87.9995 380.011 87.8206 379.434 87.4685 378.962C86.6604 377.895 85.6561 376.996 84.5825 376.195C84.2419 375.935 83.7686 375.935 83.4223 376.195L83.4165 376.189Z" fill="#E4007E"/>
<path d="M83.4165 352.189C82.366 352.979 81.379 353.855 80.5825 354.892C80.2073 355.382 79.9995 355.982 79.9995 356.599V361.032C79.9995 361.568 80.4324 362 80.9692 362H87.0298C87.5666 362 87.9995 361.568 87.9995 361.032V356.599C87.9995 356.011 87.8206 355.434 87.4685 354.962C86.6604 353.895 85.6561 352.996 84.5825 352.195C84.2419 351.935 83.7686 351.935 83.4223 352.195L83.4165 352.189Z" fill="#E4007E"/>
<path d="M83.4165 328.189C82.366 328.979 81.379 329.855 80.5825 330.892C80.2073 331.382 79.9995 331.982 79.9995 332.599V337.032C79.9995 337.568 80.4324 338 80.9692 338H87.0298C87.5666 338 87.9995 337.568 87.9995 337.032V332.599C87.9995 332.011 87.8206 331.434 87.4685 330.962C86.6604 329.895 85.6561 328.996 84.5825 328.195C84.2419 327.935 83.7686 327.935 83.4223 328.195L83.4165 328.189Z" fill="#E4007E"/>
<path d="M83.4165 304.189C82.366 304.979 81.379 305.855 80.5825 306.892C80.2073 307.382 79.9995 307.982 79.9995 308.599V313.032C79.9995 313.568 80.4324 314 80.9692 314H87.0298C87.5666 314 87.9995 313.568 87.9995 313.032V308.599C87.9995 308.011 87.8206 307.434 87.4685 306.962C86.6604 305.895 85.6561 304.996 84.5825 304.195C84.2419 303.935 83.7686 303.935 83.4223 304.195L83.4165 304.189Z" fill="#E4007E"/>
<path d="M83.4165 256.189C82.366 256.979 81.379 257.855 80.5825 258.892C80.2073 259.382 79.9995 259.982 79.9995 260.599V265.032C79.9995 265.568 80.4324 266 80.9692 266H87.0298C87.5666 266 87.9995 265.568 87.9995 265.032V260.599C87.9995 260.011 87.8206 259.434 87.4685 258.962C86.6604 257.895 85.6561 256.996 84.5825 256.195C84.2419 255.935 83.7686 255.935 83.4223 256.195L83.4165 256.189Z" fill="#E4007E"/>
<path d="M83.4165 232.189C82.366 232.979 81.379 233.855 80.5825 234.892C80.2073 235.382 79.9995 235.982 79.9995 236.599V241.032C79.9995 241.568 80.4324 242 80.9692 242H87.0298C87.5666 242 87.9995 241.568 87.9995 241.032V236.599C87.9995 236.011 87.8206 235.434 87.4685 234.962C86.6604 233.895 85.6561 232.996 84.5825 232.195C84.2419 231.935 83.7686 231.935 83.4223 232.195L83.4165 232.189Z" fill="#E4007E"/>
<path d="M83.4165 184.189C82.366 184.979 81.379 185.855 80.5825 186.892C80.2073 187.382 79.9995 187.982 79.9995 188.599V193.032C79.9995 193.568 80.4324 194 80.9692 194H87.0298C87.5666 194 87.9995 193.568 87.9995 193.032V188.599C87.9995 188.011 87.8206 187.434 87.4685 186.962C86.6604 185.895 85.6561 184.996 84.5825 184.195C84.2419 183.935 83.7686 183.935 83.4223 184.195L83.4165 184.189Z" fill="#E4007E"/>
<path d="M83.4165 160.189C82.366 160.979 81.379 161.855 80.5825 162.892C80.2073 163.382 79.9995 163.982 79.9995 164.599V169.032C79.9995 169.568 80.4324 170 80.9692 170H87.0298C87.5666 170 87.9995 169.568 87.9995 169.032V164.599C87.9995 164.011 87.8206 163.434 87.4685 162.962C86.6604 161.895 85.6561 160.996 84.5825 160.195C84.2419 159.935 83.7686 159.935 83.4223 160.195L83.4165 160.189Z" fill="#E4007E"/>
<path d="M83.4165 136.189C82.366 136.979 81.379 137.855 80.5825 138.892C80.2073 139.382 79.9995 139.982 79.9995 140.599V145.032C79.9995 145.568 80.4324 146 80.9692 146H87.0298C87.5666 146 87.9995 145.568 87.9995 145.032V140.599C87.9995 140.011 87.8206 139.434 87.4685 138.962C86.6604 137.895 85.6561 136.996 84.5825 136.195C84.2419 135.935 83.7686 135.935 83.4223 136.195L83.4165 136.189Z" fill="#E4007E"/>
<path d="M83.4165 112.189C82.366 112.979 81.379 113.855 80.5825 114.892C80.2073 115.382 79.9995 115.982 79.9995 116.599V121.032C79.9995 121.568 80.4324 122 80.9692 122H87.0298C87.5666 122 87.9995 121.568 87.9995 121.032V116.599C87.9995 116.011 87.8206 115.434 87.4685 114.962C86.6604 113.895 85.6561 112.996 84.5825 112.195C84.2419 111.935 83.7686 111.935 83.4223 112.195L83.4165 112.189Z" fill="#E4007E"/>
<path d="M83.4165 88.1888C82.366 88.9785 81.379 89.8547 80.5825 90.8923C80.2073 91.3823 79.9995 91.9818 79.9995 92.5986V97.0316C79.9995 97.5677 80.4324 98 80.9692 98H87.0298C87.5666 98 87.9995 97.5677 87.9995 97.0316V92.5986C87.9995 92.0107 87.8206 91.4342 87.4685 90.9615C86.6604 89.8951 85.6561 88.9958 84.5825 88.1946C84.2419 87.9351 83.7686 87.9351 83.4223 88.1946L83.4165 88.1888Z" fill="#E4007E"/>
<path d="M83.4165 64.1888C82.366 64.9785 81.379 65.8547 80.5825 66.8923C80.2073 67.3823 79.9995 67.9818 79.9995 68.5986V73.0316C79.9995 73.5677 80.4324 74 80.9692 74H87.0298C87.5666 74 87.9995 73.5677 87.9995 73.0316V68.5986C87.9995 68.0107 87.8206 67.4342 87.4685 66.9615C86.6604 65.8951 85.6561 64.9958 84.5825 64.1946C84.2419 63.9351 83.7686 63.9351 83.4223 64.1946L83.4165 64.1888Z" fill="#E4007E"/>
<path d="M69.4165 376.189C68.366 376.979 67.379 377.855 66.5825 378.892C66.2073 379.382 65.9995 379.982 65.9995 380.599V385.032C65.9995 385.568 66.4324 386 66.9692 386H73.0298C73.5666 386 73.9995 385.568 73.9995 385.032V380.599C73.9995 380.011 73.8206 379.434 73.4685 378.962C72.6604 377.895 71.6561 376.996 70.5825 376.195C70.2419 375.935 69.7686 375.935 69.4223 376.195L69.4165 376.189Z" fill="#E4007E"/>
<path d="M69.4165 328.189C68.366 328.979 67.379 329.855 66.5825 330.892C66.2073 331.382 65.9995 331.982 65.9995 332.599V337.032C65.9995 337.568 66.4324 338 66.9692 338H73.0298C73.5666 338 73.9995 337.568 73.9995 337.032V332.599C73.9995 332.011 73.8206 331.434 73.4685 330.962C72.6604 329.895 71.6561 328.996 70.5825 328.195C70.2419 327.935 69.7686 327.935 69.4223 328.195L69.4165 328.189Z" fill="#E4007E"/>
<path d="M69.4165 304.189C68.366 304.979 67.379 305.855 66.5825 306.892C66.2073 307.382 65.9995 307.982 65.9995 308.599V313.032C65.9995 313.568 66.4324 314 66.9692 314H73.0298C73.5666 314 73.9995 313.568 73.9995 313.032V308.599C73.9995 308.011 73.8206 307.434 73.4685 306.962C72.6604 305.895 71.6561 304.996 70.5825 304.195C70.2419 303.935 69.7686 303.935 69.4223 304.195L69.4165 304.189Z" fill="#E4007E"/>
<path d="M69.4165 280.189C68.366 280.979 67.379 281.855 66.5825 282.892C66.2073 283.382 65.9995 283.982 65.9995 284.599V289.032C65.9995 289.568 66.4324 290 66.9692 290H73.0298C73.5666 290 73.9995 289.568 73.9995 289.032V284.599C73.9995 284.011 73.8206 283.434 73.4685 282.962C72.6604 281.895 71.6561 280.996 70.5825 280.195C70.2419 279.935 69.7686 279.935 69.4223 280.195L69.4165 280.189Z" fill="#E4007E"/>
<path d="M69.4165 232.189C68.366 232.979 67.379 233.855 66.5825 234.892C66.2073 235.382 65.9995 235.982 65.9995 236.599V241.032C65.9995 241.568 66.4324 242 66.9692 242H73.0298C73.5666 242 73.9995 241.568 73.9995 241.032V236.599C73.9995 236.011 73.8206 235.434 73.4685 234.962C72.6604 233.895 71.6561 232.996 70.5825 232.195C70.2419 231.935 69.7686 231.935 69.4223 232.195L69.4165 232.189Z" fill="#E4007E"/>
<path d="M69.4165 208.189C68.366 208.979 67.379 209.855 66.5825 210.892C66.2073 211.382 65.9995 211.982 65.9995 212.599V217.032C65.9995 217.568 66.4324 218 66.9692 218H73.0298C73.5666 218 73.9995 217.568 73.9995 217.032V212.599C73.9995 212.011 73.8206 211.434 73.4685 210.962C72.6604 209.895 71.6561 208.996 70.5825 208.195C70.2419 207.935 69.7686 207.935 69.4223 208.195L69.4165 208.189Z" fill="#E4007E"/>
<path d="M69.4165 184.189C68.366 184.979 67.379 185.855 66.5825 186.892C66.2073 187.382 65.9995 187.982 65.9995 188.599V193.032C65.9995 193.568 66.4324 194 66.9692 194H73.0298C73.5666 194 73.9995 193.568 73.9995 193.032V188.599C73.9995 188.011 73.8206 187.434 73.4685 186.962C72.6604 185.895 71.6561 184.996 70.5825 184.195C70.2419 183.935 69.7686 183.935 69.4223 184.195L69.4165 184.189Z" fill="#E4007E"/>
<path d="M69.4165 160.189C68.366 160.979 67.379 161.855 66.5825 162.892C66.2073 163.382 65.9995 163.982 65.9995 164.599V169.032C65.9995 169.568 66.4324 170 66.9692 170H73.0298C73.5666 170 73.9995 169.568 73.9995 169.032V164.599C73.9995 164.011 73.8206 163.434 73.4685 162.962C72.6604 161.895 71.6561 160.996 70.5825 160.195C70.2419 159.935 69.7686 159.935 69.4223 160.195L69.4165 160.189Z" fill="#E4007E"/>
<path d="M69.4165 112.189C68.366 112.979 67.379 113.855 66.5825 114.892C66.2073 115.382 65.9995 115.982 65.9995 116.599V121.032C65.9995 121.568 66.4324 122 66.9692 122H73.0298C73.5666 122 73.9995 121.568 73.9995 121.032V116.599C73.9995 116.011 73.8206 115.434 73.4685 114.962C72.6604 113.895 71.6561 112.996 70.5825 112.195C70.2419 111.935 69.7686 111.935 69.4223 112.195L69.4165 112.189Z" fill="#E4007E"/>
<path d="M69.4165 88.1888C68.366 88.9785 67.379 89.8547 66.5825 90.8923C66.2073 91.3823 65.9995 91.9818 65.9995 92.5986V97.0316C65.9995 97.5677 66.4324 98 66.9692 98H73.0298C73.5666 98 73.9995 97.5677 73.9995 97.0316V92.5986C73.9995 92.0107 73.8206 91.4342 73.4685 90.9615C72.6604 89.8951 71.6561 88.9958 70.5825 88.1946C70.2419 87.9351 69.7686 87.9351 69.4223 88.1946L69.4165 88.1888Z" fill="#E4007E"/>
<path d="M69.4165 64.1888C68.366 64.9785 67.379 65.8547 66.5825 66.8923C66.2073 67.3823 65.9995 67.9818 65.9995 68.5986V73.0316C65.9995 73.5677 66.4324 74 66.9692 74H73.0298C73.5666 74 73.9995 73.5677 73.9995 73.0316V68.5986C73.9995 68.0107 73.8206 67.4342 73.4685 66.9615C72.6604 65.8951 71.6561 64.9958 70.5825 64.1946C70.2419 63.9351 69.7686 63.9351 69.4223 64.1946L69.4165 64.1888Z" fill="#E4007E"/>
<path d="M54.4165 376.189C53.366 376.979 52.379 377.855 51.5825 378.892C51.2073 379.382 50.9995 379.982 50.9995 380.599V385.032C50.9995 385.568 51.4324 386 51.9692 386H58.0298C58.5666 386 58.9995 385.568 58.9995 385.032V380.599C58.9995 380.011 58.8206 379.434 58.4685 378.962C57.6604 377.895 56.6561 376.996 55.5825 376.195C55.2419 375.935 54.7686 375.935 54.4223 376.195L54.4165 376.189Z" fill="#E4007E"/>
<path d="M54.4165 328.189C53.366 328.979 52.379 329.855 51.5825 330.892C51.2073 331.382 50.9995 331.982 50.9995 332.599V337.032C50.9995 337.568 51.4324 338 51.9692 338H58.0298C58.5666 338 58.9995 337.568 58.9995 337.032V332.599C58.9995 332.011 58.8206 331.434 58.4685 330.962C57.6604 329.895 56.6561 328.996 55.5825 328.195C55.2419 327.935 54.7686 327.935 54.4223 328.195L54.4165 328.189Z" fill="#E4007E"/>
<path d="M54.4165 280.189C53.366 280.979 52.379 281.855 51.5825 282.892C51.2073 283.382 50.9995 283.982 50.9995 284.599V289.032C50.9995 289.568 51.4324 290 51.9692 290H58.0298C58.5666 290 58.9995 289.568 58.9995 289.032V284.599C58.9995 284.011 58.8206 283.434 58.4685 282.962C57.6604 281.895 56.6561 280.996 55.5825 280.195C55.2419 279.935 54.7686 279.935 54.4223 280.195L54.4165 280.189Z" fill="#E4007E"/>
<path d="M54.4165 256.189C53.366 256.979 52.379 257.855 51.5825 258.892C51.2073 259.382 50.9995 259.982 50.9995 260.599V265.032C50.9995 265.568 51.4324 266 51.9692 266H58.0298C58.5666 266 58.9995 265.568 58.9995 265.032V260.599C58.9995 260.011 58.8206 259.434 58.4685 258.962C57.6604 257.895 56.6561 256.996 55.5825 256.195C55.2419 255.935 54.7686 255.935 54.4223 256.195L54.4165 256.189Z" fill="#E4007E"/>
<path d="M54.4165 232.189C53.366 232.979 52.379 233.855 51.5825 234.892C51.2073 235.382 50.9995 235.982 50.9995 236.599V241.032C50.9995 241.568 51.4324 242 51.9692 242H58.0298C58.5666 242 58.9995 241.568 58.9995 241.032V236.599C58.9995 236.011 58.8206 235.434 58.4685 234.962C57.6604 233.895 56.6561 232.996 55.5825 232.195C55.2419 231.935 54.7686 231.935 54.4223 232.195L54.4165 232.189Z" fill="#E4007E"/>
<path d="M54.4165 208.189C53.366 208.979 52.379 209.855 51.5825 210.892C51.2073 211.382 50.9995 211.982 50.9995 212.599V217.032C50.9995 217.568 51.4324 218 51.9692 218H58.0298C58.5666 218 58.9995 217.568 58.9995 217.032V212.599C58.9995 212.011 58.8206 211.434 58.4685 210.962C57.6604 209.895 56.6561 208.996 55.5825 208.195C55.2419 207.935 54.7686 207.935 54.4223 208.195L54.4165 208.189Z" fill="#E4007E"/>
<path d="M54.4165 184.189C53.366 184.979 52.379 185.855 51.5825 186.892C51.2073 187.382 50.9995 187.982 50.9995 188.599V193.032C50.9995 193.568 51.4324 194 51.9692 194H58.0298C58.5666 194 58.9995 193.568 58.9995 193.032V188.599C58.9995 188.011 58.8206 187.434 58.4685 186.962C57.6604 185.895 56.6561 184.996 55.5825 184.195C55.2419 183.935 54.7686 183.935 54.4223 184.195L54.4165 184.189Z" fill="#E4007E"/>
<path d="M54.4165 160.189C53.366 160.979 52.379 161.855 51.5825 162.892C51.2073 163.382 50.9995 163.982 50.9995 164.599V169.032C50.9995 169.568 51.4324 170 51.9692 170H58.0298C58.5666 170 58.9995 169.568 58.9995 169.032V164.599C58.9995 164.011 58.8206 163.434 58.4685 162.962C57.6604 161.895 56.6561 160.996 55.5825 160.195C55.2419 159.935 54.7686 159.935 54.4223 160.195L54.4165 160.189Z" fill="#E4007E"/>
<path d="M54.4165 136.189C53.366 136.979 52.379 137.855 51.5825 138.892C51.2073 139.382 50.9995 139.982 50.9995 140.599V145.032C50.9995 145.568 51.4324 146 51.9692 146H58.0298C58.5666 146 58.9995 145.568 58.9995 145.032V140.599C58.9995 140.011 58.8206 139.434 58.4685 138.962C57.6604 137.895 56.6561 136.996 55.5825 136.195C55.2419 135.935 54.7686 135.935 54.4223 136.195L54.4165 136.189Z" fill="#E4007E"/>
<path d="M54.4165 88.1888C53.366 88.9785 52.379 89.8547 51.5825 90.8923C51.2073 91.3823 50.9995 91.9818 50.9995 92.5986V97.0316C50.9995 97.5677 51.4324 98 51.9692 98H58.0298C58.5666 98 58.9995 97.5677 58.9995 97.0316V92.5986C58.9995 92.0107 58.8206 91.4342 58.4685 90.9615C57.6604 89.8951 56.6561 88.9958 55.5825 88.1946C55.2419 87.9351 54.7686 87.9351 54.4223 88.1946L54.4165 88.1888Z" fill="#E4007E"/>
<path d="M54.4165 64.1888C53.366 64.9785 52.379 65.8547 51.5825 66.8923C51.2073 67.3823 50.9995 67.9818 50.9995 68.5986V73.0316C50.9995 73.5677 51.4324 74 51.9692 74H58.0298C58.5666 74 58.9995 73.5677 58.9995 73.0316V68.5986C58.9995 68.0107 58.8206 67.4342 58.4685 66.9615C57.6604 65.8951 56.6561 64.9958 55.5825 64.1946C55.2419 63.9351 54.7686 63.9351 54.4223 64.1946L54.4165 64.1888Z" fill="#E4007E"/>
<path d="M39.4165 400.189C38.366 400.979 37.379 401.855 36.5825 402.892C36.2073 403.382 35.9995 403.982 35.9995 404.599V409.032C35.9995 409.568 36.4324 410 36.9692 410H43.0298C43.5666 410 43.9995 409.568 43.9995 409.032V404.599C43.9995 404.011 43.8206 403.434 43.4685 402.962C42.6604 401.895 41.6561 400.996 40.5825 400.195C40.2419 399.935 39.7686 399.935 39.4223 400.195L39.4165 400.189Z" fill="#E4007E"/>
<path d="M39.4165 376.189C38.366 376.979 37.379 377.855 36.5825 378.892C36.2073 379.382 35.9995 379.982 35.9995 380.599V385.032C35.9995 385.568 36.4324 386 36.9692 386H43.0298C43.5666 386 43.9995 385.568 43.9995 385.032V380.599C43.9995 380.011 43.8206 379.434 43.4685 378.962C42.6604 377.895 41.6561 376.996 40.5825 376.195C40.2419 375.935 39.7686 375.935 39.4223 376.195L39.4165 376.189Z" fill="#E4007E"/>
<path d="M39.4165 352.189C38.366 352.979 37.379 353.855 36.5825 354.892C36.2073 355.382 35.9995 355.982 35.9995 356.599V361.032C35.9995 361.568 36.4324 362 36.9692 362H43.0298C43.5666 362 43.9995 361.568 43.9995 361.032V356.599C43.9995 356.011 43.8206 355.434 43.4685 354.962C42.6604 353.895 41.6561 352.996 40.5825 352.195C40.2419 351.935 39.7686 351.935 39.4223 352.195L39.4165 352.189Z" fill="#E4007E"/>
<path d="M39.4165 328.189C38.366 328.979 37.379 329.855 36.5825 330.892C36.2073 331.382 35.9995 331.982 35.9995 332.599V337.032C35.9995 337.568 36.4324 338 36.9692 338H43.0298C43.5666 338 43.9995 337.568 43.9995 337.032V332.599C43.9995 332.011 43.8206 331.434 43.4685 330.962C42.6604 329.895 41.6561 328.996 40.5825 328.195C40.2419 327.935 39.7686 327.935 39.4223 328.195L39.4165 328.189Z" fill="#E4007E"/>
<path d="M39.4165 304.189C38.366 304.979 37.379 305.855 36.5825 306.892C36.2073 307.382 35.9995 307.982 35.9995 308.599V313.032C35.9995 313.568 36.4324 314 36.9692 314H43.0298C43.5666 314 43.9995 313.568 43.9995 313.032V308.599C43.9995 308.011 43.8206 307.434 43.4685 306.962C42.6604 305.895 41.6561 304.996 40.5825 304.195C40.2419 303.935 39.7686 303.935 39.4223 304.195L39.4165 304.189Z" fill="#E4007E"/>
<path d="M39.4165 280.189C38.366 280.979 37.379 281.855 36.5825 282.892C36.2073 283.382 35.9995 283.982 35.9995 284.599V289.032C35.9995 289.568 36.4324 290 36.9692 290H43.0298C43.5666 290 43.9995 289.568 43.9995 289.032V284.599C43.9995 284.011 43.8206 283.434 43.4685 282.962C42.6604 281.895 41.6561 280.996 40.5825 280.195C40.2419 279.935 39.7686 279.935 39.4223 280.195L39.4165 280.189Z" fill="#E4007E"/>
<path d="M39.4165 256.189C38.366 256.979 37.379 257.855 36.5825 258.892C36.2073 259.382 35.9995 259.982 35.9995 260.599V265.032C35.9995 265.568 36.4324 266 36.9692 266H43.0298C43.5666 266 43.9995 265.568 43.9995 265.032V260.599C43.9995 260.011 43.8206 259.434 43.4685 258.962C42.6604 257.895 41.6561 256.996 40.5825 256.195C40.2419 255.935 39.7686 255.935 39.4223 256.195L39.4165 256.189Z" fill="#E4007E"/>
<path d="M39.4165 232.189C38.366 232.979 37.379 233.855 36.5825 234.892C36.2073 235.382 35.9995 235.982 35.9995 236.599V241.032C35.9995 241.568 36.4324 242 36.9692 242H43.0298C43.5666 242 43.9995 241.568 43.9995 241.032V236.599C43.9995 236.011 43.8206 235.434 43.4685 234.962C42.6604 233.895 41.6561 232.996 40.5825 232.195C40.2419 231.935 39.7686 231.935 39.4223 232.195L39.4165 232.189Z" fill="#E4007E"/>
<path d="M39.4165 208.189C38.366 208.979 37.379 209.855 36.5825 210.892C36.2073 211.382 35.9995 211.982 35.9995 212.599V217.032C35.9995 217.568 36.4324 218 36.9692 218H43.0298C43.5666 218 43.9995 217.568 43.9995 217.032V212.599C43.9995 212.011 43.8206 211.434 43.4685 210.962C42.6604 209.895 41.6561 208.996 40.5825 208.195C40.2419 207.935 39.7686 207.935 39.4223 208.195L39.4165 208.189Z" fill="#E4007E"/>
<path d="M39.4165 184.189C38.366 184.979 37.379 185.855 36.5825 186.892C36.2073 187.382 35.9995 187.982 35.9995 188.599V193.032C35.9995 193.568 36.4324 194 36.9692 194H43.0298C43.5666 194 43.9995 193.568 43.9995 193.032V188.599C43.9995 188.011 43.8206 187.434 43.4685 186.962C42.6604 185.895 41.6561 184.996 40.5825 184.195C40.2419 183.935 39.7686 183.935 39.4223 184.195L39.4165 184.189Z" fill="#E4007E"/>
<path d="M39.4165 160.189C38.366 160.979 37.379 161.855 36.5825 162.892C36.2073 163.382 35.9995 163.982 35.9995 164.599V169.032C35.9995 169.568 36.4324 170 36.9692 170H43.0298C43.5666 170 43.9995 169.568 43.9995 169.032V164.599C43.9995 164.011 43.8206 163.434 43.4685 162.962C42.6604 161.895 41.6561 160.996 40.5825 160.195C40.2419 159.935 39.7686 159.935 39.4223 160.195L39.4165 160.189Z" fill="#E4007E"/>
<path d="M39.4165 136.189C38.366 136.979 37.379 137.855 36.5825 138.892C36.2073 139.382 35.9995 139.982 35.9995 140.599V145.032C35.9995 145.568 36.4324 146 36.9692 146H43.0298C43.5666 146 43.9995 145.568 43.9995 145.032V140.599C43.9995 140.011 43.8206 139.434 43.4685 138.962C42.6604 137.895 41.6561 136.996 40.5825 136.195C40.2419 135.935 39.7686 135.935 39.4223 136.195L39.4165 136.189Z" fill="#E4007E"/>
<path d="M39.4165 112.189C38.366 112.979 37.379 113.855 36.5825 114.892C36.2073 115.382 35.9995 115.982 35.9995 116.599V121.032C35.9995 121.568 36.4324 122 36.9692 122H43.0298C43.5666 122 43.9995 121.568 43.9995 121.032V116.599C43.9995 116.011 43.8206 115.434 43.4685 114.962C42.6604 113.895 41.6561 112.996 40.5825 112.195C40.2419 111.935 39.7686 111.935 39.4223 112.195L39.4165 112.189Z" fill="#E4007E"/>
<path d="M39.4165 88.1888C38.366 88.9785 37.379 89.8547 36.5825 90.8923C36.2073 91.3823 35.9995 91.9818 35.9995 92.5986V97.0316C35.9995 97.5677 36.4324 98 36.9692 98H43.0298C43.5666 98 43.9995 97.5677 43.9995 97.0316V92.5986C43.9995 92.0107 43.8206 91.4342 43.4685 90.9615C42.6604 89.8951 41.6561 88.9958 40.5825 88.1946C40.2419 87.9351 39.7686 87.9351 39.4223 88.1946L39.4165 88.1888Z" fill="#E4007E"/>
<path d="M39.4165 64.1888C38.366 64.9785 37.379 65.8547 36.5825 66.8923C36.2073 67.3823 35.9995 67.9818 35.9995 68.5986V73.0316C35.9995 73.5677 36.4324 74 36.9692 74H43.0298C43.5666 74 43.9995 73.5677 43.9995 73.0316V68.5986C43.9995 68.0107 43.8206 67.4342 43.4685 66.9615C42.6604 65.8951 41.6561 64.9958 40.5825 64.1946C40.2419 63.9351 39.7686 63.9351 39.4223 64.1946L39.4165 64.1888Z" fill="#E4007E"/>
</g>
<defs>
<clipPath id="clip0_452_20869">
<rect width="183" height="634" fill="white" transform="translate(-0.000488281)"/>
</clipPath>
</defs>
</svg>
