<!DOCTYPE svg PUBLIC "-//W3C//DTD SVG 1.1//EN" "http://www.w3.org/Graphics/SVG/1.1/DTD/svg11.dtd">
<!-- Uploaded to: SVG Repo, www.svgrepo.com, Transformed by: SVG Repo Mixer Tools -->
<svg width="256px" height="256px" viewBox="0 0 400.00 400.00" fill="none" xmlns="http://www.w3.org/2000/svg">
<g id="SVGRepo_bgCarrier" stroke-width="0"/>
<g id="SVGRepo_tracerCarrier" stroke-linecap="round" stroke-linejoin="round"/>
<g id="SVGRepo_iconCarrier"> <path d="M145.423 123.645C142.193 83.2263 162.964 101.057 178.017 108.413C181.121 109.927 197.186 85.1899 210.606 94.5633C221.612 102.244 219.325 109.583 216.303 116.931M218.269 138.8C218.269 143.856 266.503 159.683 192.894 186.656C165.557 196.673 113.897 175.804 139.043 143.031" stroke="#241B15" stroke-opacity="0.9" stroke-width="16.8" stroke-linecap="round" stroke-linejoin="round"/> <path d="M167.709 131.045C167.709 130.429 167.709 129.816 167.709 129.199" stroke="#241B15" stroke-opacity="0.9" stroke-width="16.8" stroke-linecap="round" stroke-linejoin="round"/> <path d="M190.543 131.045C190.543 130.429 190.543 129.816 190.543 129.199" stroke="#241B15" stroke-opacity="0.9" stroke-width="16.8" stroke-linecap="round" stroke-linejoin="round"/> <path d="M195.433 159.978C189.962 166.86 169.97 168.568 164.068 159.978" stroke="#241B15" stroke-opacity="0.9" stroke-width="16.8" stroke-linecap="round" stroke-linejoin="round"/> <path d="M151.443 98.0733C169.328 82.8363 189.783 80.6 208.707 93.1746" stroke="#241B15" stroke-opacity="0.9" stroke-width="16.8" stroke-linecap="round" stroke-linejoin="round"/> <path d="M128.924 143.495C104.196 141.515 119.694 108.71 140.387 118.412" stroke="#241B15" stroke-opacity="0.9" stroke-width="16.8" stroke-linecap="round" stroke-linejoin="round"/> <path d="M220.551 116.257C247.869 101.255 250.477 134.262 222.126 140.91" stroke="#241B15" stroke-opacity="0.9" stroke-width="16.8" stroke-linecap="round" stroke-linejoin="round"/> <path d="M55 189.435C81.7999 178.632 66.7809 197.938 85.2871 212.849C96.9988 222.286 139.274 202.195 140.224 203.626C142.162 206.558 134.883 237.582 135.293 243.358C138.089 282.769 175.369 319.62 137.406 316.433" stroke="#241B15" stroke-opacity="0.9" stroke-width="16.8" stroke-linecap="round" stroke-linejoin="round"/> <path d="M307.406 180.915C284.955 182.576 286.931 215.255 272.621 225.879C259.217 235.826 234.088 182.516 219.378 197.073C214.184 202.212 224.687 252.895 223.636 261.705C220.54 287.75 185.503 331.89 221.507 320.011" stroke="#241B15" stroke-opacity="0.9" stroke-width="16.8" stroke-linecap="round" stroke-linejoin="round"/> <path d="M222.834 268.884C232.223 329.42 383.403 309.274 335.724 260.386C318.807 243.037 264.624 251.53 289.146 276.677" stroke="#241B15" stroke-opacity="0.9" stroke-width="16.8" stroke-linecap="round" stroke-linejoin="round"/> <path d="M155.695 281.161C176.852 288.669 196.657 280.94 217.455 279.003" stroke="#241B15" stroke-opacity="0.9" stroke-width="16.8" stroke-linecap="round" stroke-linejoin="round"/> </g>
</svg>