<?xml version="1.0" encoding="utf-8"?>
<!-- Generator: Adobe Illustrator 26.3.1, SVG Export Plug-In . SVG Version: 6.00 Build 0)  -->
<svg version="1.1" id="圖層_1" xmlns="http://www.w3.org/2000/svg" xmlns:xlink="http://www.w3.org/1999/xlink" x="0px" y="0px"
	 viewBox="0 0 241 152.5" style="enable-background:new 0 0 241 152.5;" xml:space="preserve">
<style type="text/css">
	.st0{fill:#431D31;stroke:#C39A6B;stroke-width:0.75;stroke-linecap:round;stroke-linejoin:round;stroke-miterlimit:10;}
	.st1{stroke:#C39A6B;stroke-width:0.75;stroke-linecap:round;stroke-linejoin:round;stroke-miterlimit:10;}
	.st2{fill:none;stroke:#C39A6B;stroke-width:0.75;stroke-linecap:round;stroke-linejoin:round;stroke-miterlimit:10;}
	.st3{fill:#FFFFFF;stroke:#C39A6B;stroke-width:0.75;stroke-miterlimit:10;}
	.st4{fill:#E2037E;stroke:#C39A6B;stroke-width:0.75;stroke-miterlimit:10;}
	.st5{fill:#A7458C;stroke:#C39A6B;stroke-width:0.75;stroke-linecap:round;stroke-linejoin:round;stroke-miterlimit:10;}
	.st6{fill:#C39A6B;}
	.st7{font-family:'ARLiShuB5-Bold-B5pc-H';}
	.st8{font-size:12px;glyph-orientation-vertical:0;writing-mode:tb;}
	.st9{fill:#BD2027;stroke:#C39A6B;stroke-width:0.75;stroke-linecap:round;stroke-linejoin:round;stroke-miterlimit:10;}
</style>
<g>
	<path class="st0" d="M76.3,51.2l3.7-7.9l0.5-5.4L64.2,37l-0.1,11.8l-5.9,8.1L52,76.3l-2.4,0.8l-8.5,5.4l1.2,6.6l13.3,10.6l4,11.4
		l6.5,11.6l8.5,5l4-0.7l6.3-6h9l8.8,8l3-0.3l7,1.7l-1.2,2.1l2.1,2.6l1-0.2l0.3-3h2.8h12.8l-3-9l1-2.2l23.1,1.6v-5.9l-13.2-0.8
		l-1.9-0.1c0,0,0.2-7.5,3.4-14s14.9-13.9,22.2-14.6c0,0,9.3-1.5,15.6-0.2s14.3,2.6,19,8.8c0,0,3.4,3.8,5,9.4l13.3-0.9l-9.3-4.1
		c0,0-0.8-4.2-3.2-9.2l0.8-0.3l-1.8-7.1l-2.9-2.4v-6.3V73l-3.9-0.5l-38.2,0.3h-6.2l-38.6,1.3l3.5,6.1l13.4,7.9l-4,0.4l-4.9,4.5
		c0,0-1.6,1.7-4,2.1c0,0-7.7,0.1-9.9-0.7l-0.1-0.8c0,0-5-0.8-10-2.6c-5-1.8-9.5-4.8-14.8-10.8c-5.3-6.1-5.5-12.7-5-16.6
		c0.5-4,2.4-9,4.8-13L76.3,51.2z"/>
	<path class="st0" d="M80.3,10.3c-1.2-4.3-2.9-7.6-3.6-7.4l-1.1,0.3l0.8,2.6c0.2,1.4,0.6,3.3,1.1,5.3c0.6,2,1.2,3.8,1.9,5.1l0.7,2.6
		l1.1-0.3C81.9,18.3,81.5,14.6,80.3,10.3z"/>
	<ellipse transform="matrix(0.961 -0.2764 0.2764 0.961 4.313891e-03 21.944)" class="st0" cx="77.8" cy="11" rx="1.5" ry="8.1"/>
	<path class="st1" d="M168.9,86.3c-16.9,0-30.6,13.7-30.6,30.6s13.7,30.6,30.6,30.6s30.6-13.7,30.6-30.6S185.8,86.3,168.9,86.3z
		 M168.9,140.8c-13.2,0-23.9-10.7-23.9-23.9S155.7,93,168.9,93s23.9,10.7,23.9,23.9S182.1,140.8,168.9,140.8z"/>
	<path class="st0" d="M168.9,93c-13.2,0-23.9,10.7-23.9,23.9s10.7,23.9,23.9,23.9s23.9-10.7,23.9-23.9S182.1,93,168.9,93z
		 M168.9,138.4c-11.9,0-21.5-9.6-21.5-21.5s9.6-21.5,21.5-21.5c11.9,0,21.5,9.6,21.5,21.5S180.8,138.4,168.9,138.4z"/>
	<circle class="st0" cx="168.9" cy="116.9" r="10.1"/>
	<circle class="st0" cx="168.9" cy="116.9" r="8.1"/>
	<g>
		<line class="st0" x1="170.3" y1="93.3" x2="174.9" y2="110.5"/>
		<line class="st0" x1="167.5" y1="93.3" x2="162.9" y2="110.5"/>
	</g>
	<g>
		<line class="st0" x1="153.2" y1="99.2" x2="168.7" y2="108.2"/>
		<line class="st0" x1="151.3" y1="101.2" x2="160.2" y2="116.6"/>
	</g>
	<g>
		<line class="st0" x1="145.4" y1="115.5" x2="162.6" y2="110.9"/>
		<line class="st0" x1="145.4" y1="118.3" x2="162.6" y2="122.9"/>
	</g>
	<g>
		<line class="st0" x1="151.3" y1="132.6" x2="160.2" y2="117.2"/>
		<line class="st0" x1="153.2" y1="134.6" x2="168.7" y2="125.7"/>
	</g>
	<g>
		<line class="st0" x1="167.5" y1="140.5" x2="162.9" y2="123.3"/>
		<line class="st0" x1="170.3" y1="140.5" x2="174.9" y2="123.3"/>
	</g>
	<g>
		<line class="st0" x1="184.6" y1="134.6" x2="169.2" y2="125.7"/>
		<line class="st0" x1="186.6" y1="132.6" x2="177.7" y2="117.2"/>
	</g>
	<g>
		<line class="st0" x1="192.5" y1="118.3" x2="175.3" y2="122.9"/>
		<line class="st0" x1="192.5" y1="115.5" x2="175.3" y2="110.9"/>
	</g>
	<g>
		<line class="st0" x1="186.6" y1="101.2" x2="177.7" y2="116.6"/>
		<line class="st0" x1="184.6" y1="99.2" x2="169.2" y2="108.2"/>
	</g>
	<path class="st0" d="M70.9,32c-0.4,0-0.7-0.3-0.8-0.7l-1.9-15.5c-0.2-1.4,0.6-2.7,1.9-3.1l5.8-2.1c0.4-0.1,0.9,0.1,1,0.5
		c0.1,0.4-0.1,0.9-0.5,1l-5.8,2.1c-0.6,0.2-1,0.8-0.9,1.4l1.9,15.5C71.7,31.6,71.4,32,70.9,32C70.9,32,70.9,32,70.9,32z"/>
	<path class="st0" d="M64.1,49.1L64,47.4c-0.1-1.4-1.1-2.6-2.4-2.9L57,43.5l-2.4-1.1l-0.8-11.6l7.5-1.5c0.3-0.1,0.5-0.2,0.8-0.3
		l1.9-1c0.4-0.2,0.9-0.4,1.4-0.4l2.3-0.2c0.6,0,1.1,0.1,1.6,0.3l9.7,4.3l0.9,3l1.8,1.3l-0.3,1.5"/>
	<line class="st0" x1="56.5" y1="30.4" x2="57" y2="43.5"/>
	<path class="st0" d="M58.3,36c1.5-0.2,4.6-0.8,6.1-1.1c0.4-0.1,0.9,0.2,0.9,0.7l0.8,4.7c0.1,0.4-0.2,0.8-0.7,0.9l-6.1,1
		c-0.4,0.1-0.9-0.2-0.9-0.7l-0.8-4.7C57.6,36.5,57.9,36.1,58.3,36z"/>
	<line class="st0" x1="61.4" y1="35.5" x2="62.5" y2="41.8"/>
	<path class="st0" d="M58.9,30.8h2.6c0.7,0,1.4,0.2,2,0.5l4.4,2.4"/>
	<circle class="st0" cx="79.4" cy="38.2" r="2.1"/>
	<path class="st0" d="M79.4,36.1l-3.9-0.6c0,0-1.9,0.1-1.9,2c0,1.3,0.5,1.8,0.5,1.8l5.3,1.1"/>
	<path class="st0" d="M70,32.3c0,0,0.5,2.5-1,2.6c-1.5,0.1-2.9,0.5-2.9,0.5"/>
	<path class="st0" d="M72,30.4l4.1,1.7c0.9,0.4,1.5,1.2,1.6,2.2l0.1,1.2"/>
	<path class="st0" d="M77.2,35.8c0,0-0.6-1.2-2.7-1.2c-2.1,0-2.9,2.4-2.9,4.1s1.5,2.5,2.3,2.5s3.7-0.3,3.7-0.3V40"/>
	<polyline class="st0" points="71.6,38.6 70.1,38.2 66.1,40.5 	"/>
	<path class="st0" d="M65.2,41.3v1l2.6,2.1l0.3,3.3c0,0-1.3-0.4-2,0.6c-0.7,1-0.4,2.6,1.4,2.6s1.6-2.4,1.6-2.4s1.6-3.7-0.8-6.6
		c0,0,1.8-1.8,2.6-1.8l1,0"/>
	<polyline class="st0" points="80.5,40.3 80.5,42.9 80,43.3 78.5,41.1 	"/>
	<line class="st0" x1="76.3" y1="51.2" x2="80" y2="43.3"/>
	<path class="st0" d="M69.1,52.9l-2.5-2c0,0-1.7,2.4-6.5,11.4S44.6,91,44.6,91l-0.7,1c0,0-9.6,20.1-9.9,23.8s4.8,4.8,9.8,5.7
		s7.3-3,3.1-6.2s-2.9-5.8-2.9-5.8c1.3-3.2,15.7-30.3,15.7-30.3"/>
	<path class="st0" d="M35.4,113.7c0,0,1.6-1.8,4-0.8s7,4.6,7.6,5.2"/>
	<polyline class="st0" points="66.1,50.9 63.3,49.3 52.3,71.2 45.1,87.1 46.3,87.9 	"/>
	<polyline class="st0" points="64.1,48.7 61,48 48,74.1 50.3,75.5 	"/>
	<path class="st0" d="M49.6,77.2c0,0-8.7-3.3-18.7-2.8S13.7,77,11.6,78.1c0,0,0,3.2,4,5.3c0,0,8.7-1.1,16.1,0.5s10,3.4,10,3.4"/>
	<path class="st0" d="M12.8,79.2c0,0,2.5,3.1,3.3,3.4"/>
	<path class="st0" d="M14.8,78.4c0,0,10.8-3.3,19.3-1.4"/>
	<path class="st0" d="M51.9,94.2c0,0,8,5,10.7,15.8c1.6,5.3,0,13.5,0,13.5l8.6,4.5h4.4"/>
	<path class="st0" d="M111.6,74.1c0,0-2.1,3.4-0.4,6.6c0,0,12.1,8.4,16,8.4c4,0,33-1.3,40.9-3.4c7.9-2.1,19.5-4.8,19.5-4.8
		s1.8-0.8,1.6-2.6s-1.8-1.8-3.7-1.8s-26.1,0.8-26.1,0.8h-1.8l-2.9-1.6l-6.1,0.2"/>
	<line class="st0" x1="159.4" y1="77.3" x2="162.1" y2="86.8"/>
	<path class="st0" d="M119,122C119,122,119,122,119,122c-0.5-0.1-0.7-0.4-0.7-0.8l2-13.3c0-0.3-0.1-0.6-0.4-0.7l-2-0.9
		c-0.3-0.2-0.5-0.5-0.3-0.9c0.2-0.3,0.5-0.5,0.9-0.3l2,0.9c0.8,0.4,1.3,1.2,1.1,2.1l-2,13.3C119.6,121.8,119.4,122,119,122z"/>
	<path class="st0" d="M118.6,107.2l-5.4-2.4c-0.6-0.3-0.9-1-0.6-1.6v0c0.3-0.6,1-0.9,1.6-0.6l5.4,2.4c0.6,0.3,0.9,1,0.6,1.6l0,0
		C119.9,107.2,119.2,107.5,118.6,107.2z"/>
	<path class="st0" d="M119.4,114.5c0,0-1.4-1.6-3.5-2.6l-0.3-1.3c0,0-1.3-1.1-3.2-1.1c-1.8,0-9.7,0.3-15.4,2.5l-1.8,2l-2,0.5
		c-0.7,0.2-1.3,0.7-1.6,1.4l-1.1,2.8c0,0-1.1,0-1.3,1.3c0,0,0.3,1.6,1.1,2.6c0,0-0.5,3.4,1.8,4s8.6,2.6,8.6,2.6"/>
	<path class="st0" d="M102.7,128c0,0,1.6-0.3,2.9,0.8s2.4,2.1,1.3,3.2s-2.1-0.8-2.9-0.8s-1.1,0.8-2.9-1.3c0,0-0.4-1.6,1-1.9"/>
	<path class="st0" d="M101.6,128.8c0,0,1.1,1.3,1.7,1.3s0.9,0,2,0.2"/>
	<line class="st0" x1="101.4" y1="114.8" x2="101.6" y2="127.3"/>
	<path class="st0" d="M91,119.4c0,0,0.6-1.2,1.7-1.5c0.8-0.2,4.4-0.2,6.3-0.3c0.7,0,1.3,0.6,1.4,1.3l0.2,6.3c0,0.7-0.5,1.3-1.3,1.4
		l-4,0.2"/>
	<path class="st0" d="M99.5,120.6L99.5,120.6c0-0.4-0.3-0.7-0.7-0.6l-6.8,0.6c-0.3,0-0.6,0.3-0.6,0.6v3.5"/>
	<path class="st0" d="M96.1,116.9c0,0,9.5-2.9,11.9-3.2s6.6-0.3,9,4.8s-3.4,9.2-3.4,9.2"/>
	<line class="st0" x1="108.2" y1="111.5" x2="100.5" y2="113.6"/>
	<path class="st0" d="M96.6,115.1c0,0,1.8,0.5,3.4-1.1"/>
	<path class="st0" d="M120.5,128.2v3.8c0,0.5,0.4,0.8,0.8,0.8l75.4-1.4c2,0,3.9-0.7,5.5-1.8l1.4-1c0.4-0.3,0.8-0.4,1.3-0.4h1.4
		c0.5,0,0.8-0.4,0.8-0.8l-0.2-2.9c0-0.4-0.4-0.8-0.8-0.8h-1.6c-0.3,0-0.6-0.1-0.9-0.2l-2.4-1.1c-1.5-0.7-3.2-1-4.9-0.9l-61.9,4.3
		l-13.6,1.8C120.7,127.7,120.5,127.9,120.5,128.2z"/>
	<path class="st2" d="M120.9,118.2l1.8,3.6c0.2,0.3,0.2,0.7,0,1l-1.9,4.4"/>
	<path class="st0" d="M119.2,128.2c-0.3-0.2-0.7-0.2-1-0.1l-2,0.9v1.1v0.6v1.1l2,0.9c0.3,0.1,0.7,0.1,1-0.1l1.4-0.8v-1.1v-0.6V129
		L119.2,128.2z"/>
	<line class="st0" x1="105.6" y1="128.8" x2="108.2" y2="128.8"/>
	<path class="st0" d="M110.3,131.9c-1.6,0-1.9-1.5-1.9-1.5v-2.8c0-0.3,0.1-0.6,0.4-0.8c0.4-0.3,1.2-0.8,2-0.8c2.1,0,2.6,1.3,2.6,1.3
		l0,2.7"/>
	<path class="st0" d="M109.2,129.6c0,0,0.6-0.8,2.2-0.8s2.1,1.3,2.1,1.8s-0.1,1.1-0.8,1.3"/>
	<path class="st0" d="M134.6,125.9l-5.6-4.3c0,0-2.1-2.8-3.1-4.1s-3.4-1.1-3.2,1.6l1.3,3.3l1.4,4.8"/>
	<circle class="st0" cx="124.6" cy="118.7" r="1.1"/>
	<line class="st0" x1="116.1" y1="129" x2="113.5" y2="129"/>
	<line class="st0" x1="116.1" y1="131.9" x2="112.9" y2="131.9"/>
	<path class="st0" d="M114.8,131.9c0,1,0,2.1-0.3,3c-0.4,0.9-1.6,1.4-2.4,0.7c-1.2-0.9-1.6-3.2-1.8-4.5c0,0-0.1-0.7,1-0.7
		c1.1,0,1.1,1.7,1.4,2.2c0,0,0.5,1.8,1.1,1.3"/>
	<polyline class="st0" points="121.3,132.9 117.6,151.2 120.4,151.2 124.3,132.9 	"/>
	<path class="st0" d="M112.7,77c0,0,10.8,0.5,16.9,2.6"/>
	<path class="st2" d="M124.5,88.5c0,0-5.5,5.4-7.3,6.2s-9.6,0.2-11.5-0.3"/>
	<path class="st2" d="M107.7,97.4c0,0,7.1,0.8,10.6-0.5s7.1-6.1,7.1-6.1"/>
	<path class="st0" d="M118.5,100c0,0,5-5.3,6.6-5.5s10.8-0.5,12.7,1.3"/>
	<path class="st0" d="M121.4,104c0,0,0-0.9,1.4-2.1c1.5-1.3,1.7-2.9,5.4-2.9c3.7,0,5.5,0,7.1,0.3s2.9,1.1,2.9,2.6"/>
	<path class="st2" d="M136.5,115.1c0.2-4.5,1.1-9,3.1-13c1.9-3.8,4.8-6.9,8.3-9.4c3.6-2.5,9.8-5.5,14.2-5.8"/>
	<rect x="151.5" y="111.1" class="st0" width="3.4" height="9.5"/>
	<polygon class="st0" points="154.9,124.6 151.5,124.8 151.5,120.6 154.9,120.6 	"/>
	<path class="st0" d="M214.2,74.9c0,0-0.1,0-0.1,0l-17.4-2.8c-1.6-0.3-3.2-0.4-4.8-0.4h-35.5c-0.4,0-0.8-0.4-0.8-0.8
		s0.4-0.8,0.8-0.8h35.5c1.7,0,3.4,0.1,5.1,0.4l17.4,2.8c0.4,0.1,0.7,0.5,0.7,0.9C214.9,74.6,214.6,74.9,214.2,74.9z"/>
	<path class="st2" d="M165.2,86.4c0,0,13.5-1.9,26.2,4.4c7.7,4.5,10.3,14,10.3,14l13.3-0.9l-9.3-4.1c0,0-1.8-10.3-8.4-15.8
		c-6.6-5.5-7.4-6.6-6.6-7.9s7.9-1.6,7.9-1.6v6.3l2.9,2.4l1.8,7.1l-0.5,0.3"/>
	<path class="st0" d="M203.6,80.5h-5.1v-6.1h5.1c1.7,0,3,1.4,3,3v0C206.7,79.1,205.3,80.5,203.6,80.5z"/>
	<line class="st0" x1="200.3" y1="74.4" x2="200.3" y2="80.5"/>
	<g>
		<path class="st0" d="M134.3,102.1c0.5,0,0.8,0.4,0.8,0.8v8.1c0,0.5-0.4,0.8-0.8,0.8h-8.2c-0.4,0-0.7-0.2-0.8-0.6l-0.8-2.5
			c1-0.7,1.7-1.9,1.7-3.2c0-0.8-0.3-1.6-0.8-2.3l1-1c0.2-0.2,0.4-0.3,0.6-0.3H134.3 M134.3,100.8h-7.2c-0.6,0-1.2,0.2-1.6,0.7
			l-1.9,2c0.8,0.4,1.3,1.3,1.3,2.2c0,1.2-0.8,2.2-2,2.4l1.1,3.6c0.3,0.9,1.1,1.5,2,1.5h8.2c1.2,0,2.1-1,2.1-2.1v-8.1
			C136.5,101.8,135.5,100.8,134.3,100.8L134.3,100.8z"/>
	</g>
	<circle class="st0" cx="122.9" cy="105.7" r="0.9"/>
	<path class="st0" d="M121.9,120.3c0,0-1.3-1.9-0.2-3.8c0.6-1.1,1.7-1.7,2.9-1.6c6,0.2,26.9,1.5,26.9,1.5v5.9l-23.1-1.6"/>
	<line class="st0" x1="130.4" y1="116.9" x2="151.5" y2="118.1"/>
	<path class="st1" d="M34.3,86.3c-16.9,0-30.6,13.7-30.6,30.6s13.7,30.6,30.6,30.6s30.6-13.7,30.6-30.6S51.2,86.3,34.3,86.3z
		 M34.3,140.8c-13.2,0-23.9-10.7-23.9-23.9S21.1,93,34.3,93s23.9,10.7,23.9,23.9S47.5,140.8,34.3,140.8z"/>
	<path class="st0" d="M34.3,93c-13.2,0-23.9,10.7-23.9,23.9s10.7,23.9,23.9,23.9s23.9-10.7,23.9-23.9S47.5,93,34.3,93z M34.3,138.4
		c-11.9,0-21.5-9.6-21.5-21.5s9.6-21.5,21.5-21.5s21.5,9.6,21.5,21.5S46.2,138.4,34.3,138.4z"/>
	<circle class="st0" cx="34.3" cy="116.9" r="10.1"/>
	<circle class="st0" cx="34.3" cy="116.9" r="8.1"/>
	<g>
		<line class="st0" x1="35.7" y1="93.3" x2="40.3" y2="110.5"/>
		<line class="st0" x1="32.9" y1="93.3" x2="28.3" y2="110.5"/>
	</g>
	<g>
		<line class="st0" x1="18.6" y1="99.2" x2="34" y2="108.2"/>
		<line class="st0" x1="16.6" y1="101.2" x2="25.6" y2="116.6"/>
	</g>
	<g>
		<line class="st0" x1="10.7" y1="115.5" x2="27.9" y2="110.9"/>
		<line class="st0" x1="10.7" y1="118.3" x2="27.9" y2="122.9"/>
	</g>
	<g>
		<line class="st0" x1="16.6" y1="132.6" x2="25.6" y2="117.2"/>
		<line class="st0" x1="18.6" y1="134.6" x2="34" y2="125.7"/>
	</g>
	<g>
		<line class="st0" x1="32.9" y1="140.5" x2="28.3" y2="123.3"/>
		<line class="st0" x1="35.7" y1="140.5" x2="40.3" y2="123.3"/>
	</g>
	<g>
		<line class="st0" x1="50" y1="134.6" x2="34.6" y2="125.7"/>
		<line class="st0" x1="52" y1="132.6" x2="43.1" y2="117.2"/>
	</g>
	<g>
		<line class="st0" x1="57.9" y1="118.3" x2="40.7" y2="122.9"/>
		<line class="st0" x1="57.9" y1="115.5" x2="40.7" y2="110.9"/>
	</g>
	<g>
		<line class="st0" x1="52" y1="101.2" x2="43.1" y2="116.6"/>
		<line class="st0" x1="50" y1="99.2" x2="34.6" y2="108.2"/>
	</g>
	<path class="st0" d="M156.3,72.8h-1.8V61.6c0-0.5,0.4-0.9,0.9-0.9l0,0c0.5,0,0.9,0.4,0.9,0.9V72.8z"/>
	<path class="st3" d="M105.6,94l2.6,12.6c0.2,0.8-0.3,1.6-1.1,1.8c-2,0.5-6.4,1.3-14.9,2.2c-0.5,0.1-0.9,0.4-1.1,0.8L85.8,124
		c0,0-4.8,0.5-5.8,7.1l-1.8,2.4c0,0-7.7-15.8-11.6-28.2s-5.8-17.2-6.9-26.9c-0.3-5.5,1.6-7.7,2.9-10.8c1.3-3.2,7.1-15.8,7.1-15.8
		c0.3-0.5,2.9-0.3,4.9-0.4c2-0.1,5.9-0.7,5.9-0.7s-5,8.7-5,15.9c0,7.1,4.5,14.5,12.9,20.9c5.5,3.7,12.9,5.8,17.2,6.3"/>
	<path class="st2" d="M71.3,52l2.1,1.1c0.7,0.4,1,1.3,0.7,2.1l-2.8,6.2l-6,14.8c-0.9,2.3-1.3,4.8-1,7.3c0.6,5.3,1.8,14.9,3.3,19.7
		c2.1,6.9,7.7,22.2,10.6,26.1"/>
	<path class="st2" d="M68.1,102.4c0,0,4.5,2.9,11.6,3.7c7.1,0.8,17.7,1.1,26.7-0.3"/>
	<path class="st2" d="M68.1,99.8c0,0,2.9,3.4,13.7,4.5s19.8,1.1,19.8,1.1"/>
	<path class="st2" d="M74.4,64.9c0,0-2.4,7.9,4,16.4c6.3,8.4,18.7,14,26.7,15.3"/>
	<path class="st4" d="M150.7,63.1c2.1,1.3,1.1,7.9,0.5,9.8s-3.7,5-9,5s-14.8-0.8-17.2-1.3s-8.7-1.3-12.4-2.1
		c-3.7-0.8-5.3-2.1-6.1-2.9s-0.8-5.3,0.8-7.8c1.6-2.5,9-2.5,12.5-2.5c3.5,0,7.1,0.3,10.2,0c0,0,9.5-1.1,12.7-0.8s3.7,0.5,3.7,0.5"/>
	<path class="st4" d="M131.7,77.9C131.7,77.9,131.6,77.9,131.7,77.9c-0.2,0-0.3-0.2-0.3-0.3c0,0,0.3-1.2,2.2-3.9
		c1-1.4,2.2-3,3.7-4.3c1.5-1.3,3.2-2,5.1-2.7c0.2-0.1,0.4-0.2,0.8-0.3c1.1-0.4,2.9-1,4.4-1.7c1.6-0.8,2.4-1.5,2.3-2.1
		c-0.4-0.7-2.3-1.2-3.5-1.4c-0.1,0-0.2-0.2-0.2-0.3c0-0.1,0.2-0.2,0.3-0.2c0.3,0.1,3.3,0.6,3.9,1.7c0,0,0,0,0,0
		c0.3,0.9-0.5,1.8-2.5,2.7c-1.5,0.7-3.4,1.4-4.5,1.7c-0.4,0.1-0.6,0.2-0.8,0.3c-1.8,0.7-3.5,1.4-4.9,2.6c-1.5,1.3-2.7,2.9-3.7,4.2
		c-1.8,2.5-2.1,3.7-2.1,3.7C131.9,77.9,131.8,77.9,131.7,77.9z"/>
	<rect x="157.3" y="17.3" class="st5" width="52.4" height="52.3"/>
	<rect x="96.3" y="11.2" class="st0" width="46.4" height="46.4"/>
	<path class="st5" d="M206,21.3V41h-44.9V21.3H206 M206.9,20h-46.7v22.3h46.7V20L206.9,20z"/>
	<path class="st5" d="M206,45.9v19.8h-44.9V45.9H206 M206.9,44.7h-46.7V67h46.7V44.7L206.9,44.7z"/>
	<polygon class="st5" points="232.7,71.7 209.7,68 209.7,19.3 232.7,22.9 	"/>
	<polygon class="st0" points="92.2,151.2 67.2,151.2 71.7,95.2 96.7,95.2 	"/>
	<text transform="matrix(1 0 -7.744261e-02 1.0057 83.9536 99.233)" class="st6 st7 st8">線上測驗</text>
	<rect x="81.7" y="57.7" class="st0" width="72" height="3"/>
	
		<rect x="111.3" y="26.5" transform="matrix(0.7071 -0.7071 0.7071 0.7071 10.529 94.5629)" class="st9" width="16.2" height="16.2"/>
	<g>
		<text transform="matrix(1 0 0 1.0086 119.7346 28.1366)" class="st6 st7 st8">吉</text>
	</g>
	<circle class="st6" cx="99.7" cy="14.7" r="1"/>
	<circle class="st6" cx="139.7" cy="14.7" r="1"/>
	<circle class="st6" cx="99.7" cy="54.7" r="1"/>
	<circle class="st6" cx="139.7" cy="54.7" r="1"/>
	<line class="st0" x1="96.3" y1="51.7" x2="142.7" y2="51.7"/>
	<line class="st0" x1="96.3" y1="17.7" x2="142.7" y2="17.7"/>
</g>
</svg>
