<svg width="693" height="159" viewBox="0 0 693 159" fill="none" xmlns="http://www.w3.org/2000/svg">
<path d="M213.729 151.398C253.62 151.398 285.958 119.207 285.958 79.497C285.958 39.787 253.62 7.5957 213.729 7.5957C173.837 7.5957 141.499 39.787 141.499 79.497C141.499 119.207 173.837 151.398 213.729 151.398Z" fill="white"/>
<path d="M79.8594 151.398C119.751 151.398 152.089 119.207 152.089 79.497C152.089 39.787 119.751 7.5957 79.8594 7.5957C39.968 7.5957 7.62964 39.787 7.62964 79.497C7.62964 119.207 39.968 151.398 79.8594 151.398Z" fill="white"/>
<path d="M79.8592 158.588C123.739 158.588 159.311 123.178 159.311 79.497C159.311 35.8164 123.739 0.40625 79.8592 0.40625C35.9791 0.40625 0.407227 35.8164 0.407227 79.497C0.407227 123.178 35.9791 158.588 79.8592 158.588Z" stroke="white" stroke-width="1.25" stroke-linecap="round" stroke-linejoin="round"/>
<path d="M213.729 158.588C257.609 158.588 293.181 123.178 293.181 79.497C293.181 35.8164 257.609 0.40625 213.729 0.40625C169.848 0.40625 134.277 35.8164 134.277 79.497C134.277 123.178 169.848 158.588 213.729 158.588Z" stroke="white" stroke-width="1.25" stroke-linecap="round" stroke-linejoin="round"/>
<path d="M480.369 151.398C520.26 151.398 552.599 119.207 552.599 79.497C552.599 39.787 520.26 7.5957 480.369 7.5957C440.478 7.5957 408.139 39.787 408.139 79.497C408.139 119.207 440.478 151.398 480.369 151.398Z" fill="white"/>
<path d="M346.499 151.398C386.391 151.398 418.729 119.207 418.729 79.497C418.729 39.787 386.391 7.5957 346.499 7.5957C306.608 7.5957 274.27 39.787 274.27 79.497C274.27 119.207 306.608 151.398 346.499 151.398Z" fill="white"/>
<path d="M346.499 158.588C390.38 158.588 425.951 123.178 425.951 79.497C425.951 35.8164 390.38 0.40625 346.499 0.40625C302.619 0.40625 267.047 35.8164 267.047 79.497C267.047 123.178 302.619 158.588 346.499 158.588Z" stroke="white" stroke-width="1.25" stroke-linecap="round" stroke-linejoin="round"/>
<path d="M480.369 158.588C524.249 158.588 559.821 123.178 559.821 79.497C559.821 35.8164 524.249 0.40625 480.369 0.40625C436.489 0.40625 400.917 35.8164 400.917 79.497C400.917 123.178 436.489 158.588 480.369 158.588Z" stroke="white" stroke-width="1.25" stroke-linecap="round" stroke-linejoin="round"/>
<path d="M613.14 151.398C653.031 151.398 685.369 119.207 685.369 79.497C685.369 39.787 653.031 7.5957 613.14 7.5957C573.248 7.5957 540.91 39.787 540.91 79.497C540.91 119.207 573.248 151.398 613.14 151.398Z" fill="white"/>
<path d="M613.14 158.588C657.02 158.588 692.591 123.178 692.591 79.497C692.591 35.8164 657.02 0.40625 613.14 0.40625C569.259 0.40625 533.688 35.8164 533.688 79.497C533.688 123.178 569.259 158.588 613.14 158.588Z" stroke="white" stroke-width="1.25" stroke-linecap="round" stroke-linejoin="round"/>
</svg>
