<?xml version="1.0" encoding="utf-8"?>
<!-- Generator: Adobe Illustrator 26.3.1, SVG Export Plug-In . SVG Version: 6.00 Build 0)  -->
<svg version="1.1" id="圖層_1" xmlns="http://www.w3.org/2000/svg" xmlns:xlink="http://www.w3.org/1999/xlink" x="0px" y="0px"
	 viewBox="0 0 758.2 260.4" style="enable-background:new 0 0 758.2 260.4;" xml:space="preserve">
<style type="text/css">
	.st0{fill:#FFFFFF;stroke:#C39A6B;stroke-width:0.75;stroke-linecap:round;stroke-linejoin:round;stroke-miterlimit:10;}
	.st1{fill:#FFFFFF;}
	.st2{fill:none;stroke:#C39A6B;stroke-width:0.75;stroke-linecap:round;stroke-linejoin:round;stroke-miterlimit:10;}
</style>
<g>
	<g>
		<g>
			<path class="st0" d="M315.1,171.8c0,0,21.7,3.8,31.9-2.5c5.7-3.4,17.2,3.2,22.6,5.2c13.3,4.8,27.9,6.6,41.9,7.4
				c10.8,0.6,23.3-0.9,28.2-12.1c0,0,20.1,1.9,24.9-6.9c4.8-8.8,7.6-24.7-14.2-23.8c-6.5-0.3-7.8,1-7.8,1v-5.1c0,0,10.2,0,12.7-3.8
				c0,0,7.7,17,33.2,14.9c5.1-0.8,7.6-2.1,7.6-2.1s16.6,16.6,37,10.2c20.4-6.4,27.3-26.1,32.1-29c4.8-2.9,15-3.5,15,8.3
				s-1.3,18.2,20.4,25.8c21.7,7.6,51-2.5,58.6-12.7c7.6-10.2,28.9-8.9,41.2,11.5c14.9,15.3,44.4,12.1,52.6-0.3
				c8.2-12.4,9.2-37.9-22.5-40.5c-15.2,0-22.5,6.1-22.5,6.1s-5.4-18.8-27-16.2c-6.4,0-13.5,8.2-13.5,8.2s-3.9-14.6-27.1-14.6
				c0,0,8.9-1.9,7.5-11.8S631.1,72.4,612,74.9c-19.1,2.5-43.3,7.1-53.5,1c-10.2-6.1-9-9.9-1.3-11.2c7.6-1.3,25.2,2.5,52.1,0
				c26.9-2.5,69-1.3,85.5,1.3c16.6,2.5,23.6,3.6,32.2-2.7c8.6-6.3,3.4-10.1,3.4-10.1s6.5-1.3,6.5-6.4s3.8-15.3-38.2-14
				c-42.1,1.3-42.2-3.8-44-8.3s1.1-15,23.2-16.7s51.4-3,56.5-1.8c0,0-24.2-6.3-63.7-5.7s-63.2-0.3-68,14.2s9.3,18.6,15,19.8
				s14.7,1.1,14.7,1.1s7.3,6.8,25.3,5.9s38.4-3.4,41,1.7c2.5,5.1,1.3,10.2-12.7,11.5c-14,1.3-69.4,3.3-88.8-3.4
				c-19.5-6.8-23.3-11.9-27.1-19.5c-3.8-7.6-12.5-14.2-31.7-12.2c-19.2,2-25.7,9.9-25.7,9.9s-26.7-6.7-44.5,4.8
				c0,0-25.5-2.5-38.2,6.4s-14,21.7-6.4,26.8c3.8,2.5,10.1,1,10.1,1s3.7,8.9,17.2,12.3c13.5,3.4,35.1,4.1,47.2-4.6
				c0,0,14.7,6.7,22.3,5.4c0,0,6.4,7.6,22.9,7.6c16.6,0,31.9-2.5,31.9-2.5s3.8,8.9,10.2,10.2c0,0,0.6,5.7-20.1,6.7
				c-20.7,1-34-8-41.4-8.6c-7.4-0.6-23.9-3.2-29,4.5c0,0-19.1-11.5-30.6-6.4c-11.5,5.1-15.3,10.2-15.3,10.2s-3.5-6.4-10.7-2.5
				c-7.2,3.8-4.6,8.9-4.6,8.9s-11.5-7.6-25.5,0s-14,22.9-14,22.9s-22.9,1.3-37,1.3s-21.7,2.5-38.2-6.4"/>
			<path class="st0" d="M315.1,156.3c1.3,0.2,11.5,6.5,25.5,5.3c14-1.3,28-1.3,35.7,2.5c7.6,3.8,14.7,0,14.7,0"/>
			<path class="st0" d="M394.1,168c0,0-7.6-3.8-5.1-14c1.3-7.6,16.6-5.1,16.6-5.1c0.1,0,2.4-2.8,2.7-3c2-1.5,4.6-1.8,6.8-0.5
				c3.4,1.9,3.2,5.3,3.2,8.6"/>
			<path class="st0" d="M411.9,171.8c0,0-6.1-9.2,1.4-15.5c7.5-6.2,15.1-3.7,15.1-3.7"/>
			<path class="st0" d="M316.4,143.8c0,0,15.3,5.1,29.3,3.8c14-1.3,31.9-12.7,48.4-7.6"/>
			<path class="st0" d="M404,138.6c0,0,1.6-6.3-9.9-6.3"/>
			<path class="st0" d="M401.8,122.1c0,0,9.2-10.8,17.3-9.2c8.2,1.6,12,4.1,12,4.1s2.5-8.9,14-8.9c11.5,0,11.5,2.5,11.5,2.5
				s5.1-11.5,21.7-8.9c16.6,2.5,21.7,8.9,20.4,21.7c0,0-1.9-15.9,16.3-16.9s33.3,2.2,35.3,15.3s-2.8,20.9-10.6,21.4"/>
			<path class="st0" d="M508.8,137.4c0,0-15.3,2.5-15.3-7.6"/>
			<path class="st0" d="M476.9,129.7c0,0,6.4,0,7.6-3.8s0-14-12.7-14c-12.7,0-15.3,6.4-16.6,19.1"/>
			<path class="st0" d="M448.7,156.3c0,0-10,1.4-11.3-7.5s8-9.8,8-9.8"/>
			<path class="st0" d="M424.7,152.2c0,0,2.8-14.9,14.8-10.4"/>
			<path class="st0" d="M520.3,81.3c0,0,6.1-2,4.3-6.1c-1.8-4.1-8.1-1.5-8.1-1.5"/>
			<path class="st0" d="M498,75.9c0,0-10.4-7.5-6.2-19.5c4.3-12.1,32.7-21.3,43.3-19.2c10.7,2.1,13.2,8.4,13.2,8.4
				s10.8-5.2,16.8-3.9s12.5,10.2,21.4,12.8c8.9,2.5,15.3,3.8,17.8,3.8"/>
			<path class="st0" d="M445.1,50.7c0,0,1.3,12.7,17.8,10.2c16.6-2.5,15.3-8.5,15.3-8.5s8.9-0.4,7.6-10.6
				c-1.3-10.2-17.8-7.6-17.8-7.6"/>
			<path class="st0" d="M596.7,106.8c0,0,10.2-1.3,10.2-14"/>
			<path class="st0" d="M618.9,108.1c0,0,6.8-2.6,6.9-15.3s-15.6-17.2-30-15.6"/>
			<path class="st0" d="M596.7,81.3c0,0-20.4-0.8-22.9-2.3"/>
			<path class="st0" d="M594.5,137.7c0,0,6.1,15,27.7,11.2c21.7-3.8,19.8-15.2,19.8-15.2"/>
			<path class="st0" d="M610.9,133.7c0,0-8.2-14.8,10.5-17.7c18.7-2.8,21.4,6.3,21.4,6.3s8.1-6,14.2-3.1c6.1,2.9,17.9,13.8,4.3,24.9
				"/>
			<path class="st0" d="M709,122.3c0,0-7.8,4.9-6.5,12.6c1.3,7.6,8.9,11.5,15.3,11.5c6.4,0,10.2-5.1,7.6-10.2
				c-2.5-5.1-12.1-3.2-11.1,2.9"/>
			<path class="st0" d="M656.9,41.4c0,0-14.3-4.7-11.8-16.2c1.3-5.1,3.8-5.1,3.8-5.1"/>
			<path class="st0" d="M632.4,35.4c-5.2-3.3-9.5-8.3-7.4-14.8c2.1-6.5,7.2-11.4,13.8-13.3"/>
		</g>
		<g>
			<path class="st1" d="M66.1,146.4c-5.1-1.3-10.2,3.8-7.6,10.2c2.5,6.4,12.7,8.9,17.8,5.1c5.1-3.8,6.4-7.6,6.4-7.6
				c-0.3,0.9,3.2,1.7,3.8,1.8c1.9,0.3,4,0,5.6-1c3.8-2.2,5-7.3,4.7-11.5c-0.4-4.4-2.7-8.6-6.4-11c0,0-3.8-2.5-7.6-2.5
				c0,0-7.4-11.7-27.9-9c-20.5,2.7-16.7,11.6-16.7,11.6s-22.9-5.1-31.9,5.1c-8.9,10.2-8.9,26.8,8.9,34.4c17.8,7.6,26.8-1.3,26.8-1.3
				s15.3,21.7,40.8,19.1c12.7-1.3,21.7-5.1,28-8.9c0,0,12.7,6.4,20.4-1.3c3.8-3.8,5.1-7.6,3.8-10.2c0,0,7.6,3.8,15.3,2.5
				c0,0-21.7,10.2-14,34.4c7.6,24.2,43.3,20.4,48.4,12.7c0,0,15.3,33.1,57.3,31.9c0,0,11.9,13.1,33.4,7.8c8.7-2.7,13.8-6.6,13.8-6.6
				s10.2,11.5,28,5.1c17.8-6.4,24.2-19.1,22.9-26.8c-1.3-7.6-3.8-8.9-3.8-8.9s10.5-5.3,4-16c0,0,26.6,8.4,35.5-10.8
				c5.1-10.2,3.8-17.8,3.8-17.8s16.6,3.8,22.9-7.6c2.5-5.1,2.5-10.2,2.5-15.3c0,0,25.5,6.4,38.2-1.3c12.7-7.6,16.6-21.7,12.7-31.9
				c-1.3-3.8-2.5-5.1-2.5-5.1s7.6,3.8,14,1.3v-16.7v-8.7c0,0-14-3.8-26.8,0c-0.1,0-1.3-1.7-1.4-1.8c-1.3-1.4-2.7-2.7-4.3-3.8
				c-4.7-3.1-10.4-3.5-15.7-1.7c-5.3,1.7-10.8,4.9-14.5,9.1c-1.1,1.2-2.5,3-2.2,4.7l-25.7,0.3c0,0-8.7-14.3-36.8-10.5
				c-10.2,1.3-12.7,8.9-12.7,11.5c0,0-17.8-2.5-25.5,10.2c-2.5,3.8-4.1,11-4,12.5c0,0-16.4-3.6-25.3,7.9c0,0-1.3-5.1-3.8-6.4
				c0,0,8.9-26.8-24.2-42.1S185.9,84,185.9,84s-17.8-3.8-35.7,5.1s-10.1,24.2-10.1,24.2s-19.2-2.6-21.8,12.7c0,0-19.1-16.6-35.7,2.5
				"/>
			<path class="st2" d="M467.6,91.6c0,0-14-3.8-26.8,0c-0.1,0-1.3-1.7-1.4-1.8c-1.3-1.4-2.7-2.7-4.3-3.8c-4.7-3.1-10.4-3.5-15.7-1.7
				c-5.3,1.7-10.8,4.9-14.5,9.1c-1.1,1.2-2.5,3-2.2,4.7l-25.7,0.3c0,0-8.7-14.3-36.8-10.5c-10.2,1.3-12.7,8.9-12.7,11.5
				c0,0-17.8-2.5-25.5,10.2c-2.5,3.8-4.1,11-4,12.5c0,0-16.4-3.6-25.3,7.9c0,0-1.3-5.1-3.8-6.4c0,0,8.9-26.8-24.2-42.1
				S185.9,84,185.9,84s-17.8-3.8-35.7,5.1s-10.1,24.2-10.1,24.2s-19.2-2.6-21.8,12.7c0,0-19.1-16.6-35.7,2.5"/>
			<path class="st2" d="M66.1,146.4c-5.1-1.3-10.2,3.8-7.6,10.2c2.5,6.4,12.7,8.9,17.8,5.1c5.1-3.8,6.4-7.6,6.4-7.6
				c-0.3,0.9,3.2,1.7,3.8,1.8c1.9,0.3,4,0,5.6-1c3.8-2.2,5-7.3,4.7-11.5c-0.4-4.4-2.7-8.6-6.4-11c0,0-3.8-2.5-7.6-2.5
				c0,0-7.4-11.7-27.9-9c-20.5,2.7-16.7,11.6-16.7,11.6s-22.9-5.1-31.9,5.1c-8.9,10.2-8.9,26.8,8.9,34.4c17.8,7.6,26.8-1.3,26.8-1.3
				s15.3,21.7,40.8,19.1c12.7-1.3,21.7-5.1,28-8.9c0,0,12.7,6.4,20.4-1.3c3.8-3.8,5.1-7.6,3.8-10.2c0,0,7.6,3.8,15.3,2.5
				c0,0-21.7,10.2-14,34.4c7.6,24.2,43.3,20.4,48.4,12.7c0,0,15.3,33.1,57.3,31.9c0,0,11.9,13.1,33.4,7.8c8.7-2.7,13.8-6.6,13.8-6.6
				s10.2,11.5,28,5.1c17.8-6.4,24.2-19.1,22.9-26.8c-1.3-7.6-3.8-8.9-3.8-8.9s10.5-5.3,4-16c0,0,26.6,8.4,35.5-10.8
				c5.1-10.2,3.8-17.8,3.8-17.8s16.6,3.8,22.9-7.6c2.5-5.1,2.5-10.2,2.5-15.3c0,0,25.5,6.4,38.2-1.3c12.7-7.6,16.6-21.7,12.7-31.9
				c-1.3-3.8-2.5-5.1-2.5-5.1s7.6,3.8,14,1.3"/>
			<path class="st0" d="M105.6,155.4c0,0,1.9,16.9,18.2,12.3c4.8-2.1,4.8-4.6,4.8-4.6"/>
			<path class="st0" d="M125.1,149.6c0,0-5.5,7,6,13.4s25.5-3.8,24.2-15.3"/>
			<path class="st0" d="M118.4,126.1c0,0,7,4.3,11.8,9.8"/>
			<path class="st0" d="M128.6,137.7c0,0,1.3-2.7,5.1-2.7"/>
			<path class="st0" d="M123.8,129.9c0,0,0.9-11.5,17.5-7.7c16.6,3.8,16.6,10.2,16.6,10.2s15.3-7.6,24.2,1.3s4.5,27.5-11.2,22.6"/>
			<path class="st0" d="M175.7,108.2c0,0-5.1-2.5-2.5-8.9c2.5-6.4,7.6-3.8,7.6-3.8s-1.3-14,16.6-8.9c17.8,5.1,11.5,14,11.5,14
				s14,5.1,10.2,17.8s-14,11.5-14,11.5"/>
			<path class="st0" d="M233.1,123.5c0,0,11.5-6.2,5.7-15.8c-5.7-9.7-19.1-11.6-29-9.4"/>
			<path class="st0" d="M212.7,184.7c-3.6-0.8-7.1-2.7-9.5-5.5c-5-5.9-3.3-15.4,1.5-20.8c0,0-6.7-14.3,5.7-22.1
				c12.4-7.7,38.9-10.6,49.9-2.2"/>
			<path class="st0" d="M165.2,165.9c0.8,4,2.6,7.9,5,11.1c5.5,7.4,14.1,9.1,22.7,6.8c3.9-1,6.9-2.7,9.2-6"/>
			<path class="st0" d="M191,193.6c0,0-14.7,8.9-25.8,0s-3.5-24.2,1-24.2"/>
			<path class="st0" d="M216.5,170.7c0,0-6.4-10.2,7.6-16.6s48.4-11.5,48.4,6.4"/>
			<path class="st0" d="M239.4,166.8c0,0,8.9-1.3,10.8,0c0,0,25.5-12.4,42.4-4.9c16.9,7.5,17.5,11.5,17.5,11.5s4.8-2.8,7.8-2.8
				c0,0-2.1-9.2,11.9-12.3c14-3,44.6-0.5,49.7,18.6"/>
			<path class="st0" d="M287.9,142.6c0,0,5.7,12.7,16.9,7c11.2-5.7,7-24.1-6.9-27.6"/>
			<path class="st0" d="M321.6,211c0,0,4.1-32.5-28.8-27.5c-7.5,1.2-7.8,5-7.8,5s-12.4-5-15,11.5"/>
			<path class="st0" d="M311.2,202.4c2.8,7.3,3.4,17.3-3.1,22.9c-2.2,1.9-4.9,3.1-7.7,4.1c-6.9,2.3-14.3,2.6-21.5,2
				c-7.3-0.6-13.6-3.2-20.6-5.3c-1.2-0.3-2.6,0.3-3.8,0.5c-1.6,0.2-3.2,0.3-4.8,0.3c-10.1-0.1-18.4-4.3-24.4-12.4
				c-5.1-6.9-8.2-15.7-7.5-24.3c0.2-2.5,0.7-5,1.6-7.4c1.2-3,3.1-5.6,5.6-7.6"/>
			<path class="st0" d="M335.5,173.4c0,0,10.1,1.4,11.8,9.5c1.8,8.1-3,12.8-5.1,13"/>
			<path class="st0" d="M381.9,165.9c0,0,11.8,2.2,13.7-5.4c1.9-7.6-6.5-15.3-15-14.7c-8.6,0.6-10.8,4.5-11,7"/>
			<path class="st0" d="M332,158c0,0,12.6-3.6,11-17.1c0,0,14.8,7.6,22.5-12.5c0,0,5.5,15.5,22.5,9.2c0,0,11.3,20.4,35.2,12.1
				s11.8-31.5,0-23.7"/>
			<path class="st0" d="M403.1,132.7c0,0-10.1-18.7,10-22.3c20.1-3.5,35.5,0.7,41.8,7.5"/>
			<path class="st0" d="M333.7,115.9c0,0,3.8-10.2-6.4-16.6"/>
			<path class="st0" d="M400.6,123.5c0,0-10.7,2.5-22.2-5.1c-11.5-7.6-30.5-14.6-43.9-7.9"/>
			<path class="st0" d="M331.6,103c0,0,6.9-7.4,21.1-5.6c8.6,1.1,16.1,5.7,23.8,9.3c7.6,3.5,18.3,6.9,26.6,3.7
				c0,0-0.5-18.8,16.1-18.8c16.6,0,18.8,5.8,18.8,5.8"/>
		</g>
	</g>
</g>
</svg>
