<?xml version="1.0" encoding="utf-8"?>
<!-- Generator: Adobe Illustrator 26.3.1, SVG Export Plug-In . SVG Version: 6.00 Build 0)  -->
<svg version="1.1" id="圖層_1" xmlns="http://www.w3.org/2000/svg" xmlns:xlink="http://www.w3.org/1999/xlink" x="0px" y="0px"
	 viewBox="0 0 1132.1 316.7" style="enable-background:new 0 0 1132.1 316.7;" xml:space="preserve">
<style type="text/css">
	.st0{fill:#FFFFFF;stroke:#C39A6B;stroke-width:0.75;stroke-linecap:round;stroke-linejoin:round;stroke-miterlimit:10;}
	.st1{fill:#FFFFFF;}
	.st2{fill:none;stroke:#C39A6B;stroke-width:0.75;stroke-linecap:round;stroke-linejoin:round;stroke-miterlimit:10;}
</style>
<g>
	<g>
		<g>
			<path class="st0" d="M292.4,159.5c0,0,20.1,3.5,29.6-2.4c5.3-3.2,16,3,20.9,4.8c12.3,4.5,25.9,6.2,38.9,6.8
				c10,0.5,21.6-0.9,26.2-11.2c0,0,18.6,1.7,23.1-6.4c4.4-8.2,7.1-23-13.2-22.1c-6.1-0.3-7.2,0.9-7.2,0.9v-4.7c0,0,9.5,0,11.8-3.5
				c0,0,7.2,15.8,30.8,13.8c4.7-0.8,7.1-2,7.1-2s15.4,15.4,34.3,9.5c18.9-5.9,25.4-24.2,29.8-26.9s14-3.3,13.9,7.7
				c0,10.9-1.2,16.9,18.9,23.9c20.1,7.1,47.3-2.4,54.4-11.8c7.1-9.5,26.8-8.3,38.2,10.6c13.8,14.2,41.2,11.2,48.8-0.3
				c7.6-11.5,8.5-35.2-20.9-37.5c-14.1,0-20.9,5.6-20.9,5.6s-5-17.4-25.1-15.1c-5.9,0-12.5,7.6-12.5,7.6s-3.7-13.6-25.1-13.6
				c0,0,8.2-1.8,7-10.9c-1.3-9.2-15.5-15.1-33.2-12.7s-40.1,6.6-49.6,0.9c-9.5-5.7-8.3-9.2-1.2-10.4c7.1-1.2,23.4,2.4,48.3,0
				c25-2.4,64-1.2,79.4,1.2c15.4,2.4,21.9,3.3,29.9-2.5s3.1-9.4,3.1-9.4s6-1.2,6-5.9s3.5-14.2-35.5-13s-39.2-3.5-40.9-7.7
				S608.5,9,629,7.3c20.5-1.6,47.7-2.8,52.5-1.6c0,0-22.4-5.9-59.1-5.3s-58.7-0.3-63.1,13.1s8.6,17.3,13.9,18.3s13.6,1,13.6,1
				s6.7,6.3,23.5,5.5s35.7-3.1,38,1.6c2.4,4.7,1.2,9.5-11.8,10.6c-13,1.2-64.4,3.1-82.4-3.2c-18.1-6.3-21.6-11-25.2-18.1
				s-11.6-13.1-29.4-11.3c-17.9,1.8-23.8,9.2-23.8,9.2s-24.8-6.2-41.3,4.4c0,0-23.7-2.4-35.5,5.9s-13,20.1-5.9,24.8
				c3.5,2.4,9.4,0.9,9.4,0.9s3.5,8.3,16,11.4s32.6,3.8,43.8-4.2c0,0,13.6,6.2,20.7,5c0,0,5.9,7.1,21.3,7.1c15.4,0,29.6-2.4,29.6-2.4
				s3.5,8.3,9.5,9.5c0,0,0.5,5.3-18.7,6.2c-19.2,0.9-31.6-7.4-38.4-8c-6.8-0.6-22.2-2.9-26.9,4.2c0,0-17.7-10.6-28.4-5.9
				c-10.6,4.7-14.2,9.5-14.2,9.5s-3.3-5.9-9.9-2.4s-4.3,8.3-4.3,8.3s-10.6-7.1-23.7,0c-13,7.1-13,21.3-13,21.3s-21.3,1.2-34.3,1.2
				c-13,0-20.1,2.4-35.5-5.9"/>
			<path class="st0" d="M292.4,145.1c1.2,0.1,10.6,6.1,23.7,4.9c13-1.2,26-1.2,33.1,2.4c7.1,3.5,13.6,0,13.6,0"/>
			<path class="st0" d="M365.8,155.9c0,0-7.1-3.5-4.7-13c1.2-7.1,15.4-4.7,15.4-4.7c0.1,0,2.3-2.6,2.5-2.8c1.9-1.4,4.2-1.7,6.3-0.5
				c3.1,1.8,3,4.9,3,8"/>
			<path class="st0" d="M382.3,159.5c0,0-5.6-8.6,1.3-14.3s14-3.4,14-3.4"/>
			<path class="st0" d="M293.6,133.4c0,0,14.2,4.7,27.2,3.5c13-1.2,29.6-11.8,44.9-7.1"/>
			<path class="st0" d="M374.9,128.7c0,0,1.5-5.9-9.2-5.9"/>
			<path class="st0" d="M372.8,113.3c0,0,8.5-10.1,16.1-8.6s11.1,3.8,11.1,3.8s2.4-8.3,13-8.3s10.6,2.4,10.6,2.4s4.7-10.6,20.1-8.3
				c15.4,2.4,20.1,8.3,18.9,20.1c0,0-1.7-14.7,15.1-15.6c16.8-0.9,30.9,2,32.7,14.2s-2.6,19.4-9.8,19.9"/>
			<path class="st0" d="M472.2,127.5c0,0-14.2,2.4-14.2-7.1"/>
			<path class="st0" d="M442.6,120.4c0,0,5.9,0,7.1-3.5s0-13-11.8-13s-14.2,5.9-15.4,17.7"/>
			<path class="st0" d="M416.5,145.1c0,0-9.3,1.3-10.5-6.9s7.4-9.1,7.4-9.1"/>
			<path class="st0" d="M394.1,141.2c0,0,2.6-13.8,13.7-9.6"/>
			<path class="st0" d="M482.8,75.5c0,0,5.6-1.9,4-5.7c-1.6-3.8-7.5-1.4-7.5-1.4"/>
			<path class="st0" d="M462.1,70.5c0,0-9.7-6.9-5.7-18.1s30.3-19.8,40.2-17.8c9.9,1.9,12.3,7.8,12.3,7.8s10-4.8,15.6-3.6
				s11.6,9.5,19.8,11.9c8.3,2.4,14.2,3.5,16.6,3.5"/>
			<path class="st0" d="M413.1,47.1c0,0,1.2,11.8,16.6,9.5c15.4-2.4,14.2-7.9,14.2-7.9s8.2-0.4,7-9.9c-1.2-9.5-16.6-7.1-16.6-7.1"/>
			<path class="st0" d="M553.8,99.1c0,0,9.5-1.2,9.5-13"/>
			<path class="st0" d="M574.4,100.3c0,0,6.3-2.4,6.4-14.2S566.3,70.2,553,71.7"/>
			<path class="st0" d="M553.8,75.5c0,0-18.9-0.8-21.3-2.2"/>
			<path class="st0" d="M551.7,127.8c0,0,5.6,13.9,25.7,10.4s18.3-14.1,18.3-14.1"/>
			<path class="st0" d="M566.9,124.1c0,0-7.6-13.8,9.8-16.4s19.8,5.8,19.8,5.8s7.5-5.5,13.2-2.9c5.7,2.7,16.6,12.8,4,23.1"/>
			<path class="st0" d="M658,113.5c0,0-7.2,4.6-6,11.7c1.2,7.1,8.3,10.6,14.2,10.6s9.5-4.7,7.1-9.5c-2.4-4.7-11.2-3-10.3,2.7"/>
			<path class="st0" d="M609.7,38.5c0,0-13.3-4.4-10.9-15c1.2-4.7,3.5-4.7,3.5-4.7"/>
			<path class="st0" d="M586.9,32.9c-4.9-3-8.8-7.7-6.9-13.7c2-6,6.7-10.6,12.8-12.3"/>
		</g>
		<g>
			<path class="st1" d="M61.4,135.9c-4.7-1.2-9.5,3.5-7.1,9.5c2.4,5.9,11.8,8.3,16.6,4.7c4.7-3.5,5.9-7.1,5.9-7.1
				c-0.3,0.8,3,1.6,3.5,1.7c1.8,0.3,3.7,0,5.2-1c3.5-2.1,4.7-6.8,4.3-10.6c-0.4-4.1-2.5-8-6-10.2c0,0-3.5-2.4-7.1-2.4
				c0,0-6.9-10.9-25.9-8.4c-19,2.5-15.5,10.8-15.5,10.8s-21.3-4.7-29.6,4.7s-8.3,24.8,8.3,31.9c16.6,7.1,24.8-1.2,24.8-1.2
				s14.2,20.1,37.8,17.7c11.8-1.2,20.1-4.7,26-8.3c0,0,11.8,5.9,18.9-1.2c3.5-3.5,4.7-7.1,3.5-9.5c0,0,7.1,3.5,14.2,2.4
				c0,0-20.1,9.5-13,31.9c7.1,22.5,40.2,18.9,44.9,11.8c0,0,14.2,30.7,53.2,29.6c0,0,11.1,12.2,31,7.3c8.1-2.5,12.8-6.1,12.8-6.1
				s9.5,10.6,26,4.7c16.6-5.9,22.5-17.7,21.3-24.8c-1.2-7.1-3.5-8.3-3.5-8.3s9.8-4.9,3.7-14.9c0,0,24.7,7.8,33-10
				c4.7-9.5,3.5-16.6,3.5-16.6s15.4,3.5,21.3-7.1c2.4-4.7,2.4-9.5,2.4-14.2c0,0,23.7,5.9,35.5-1.2c11.8-7.1,15.4-20.1,11.8-29.6
				c-1.2-3.5-2.4-4.7-2.4-4.7s7.1,3.5,13,1.2V93.2v-8.1c0,0-13-3.5-24.8,0c-0.1,0-1.2-1.6-1.3-1.7c-1.2-1.3-2.5-2.5-4-3.5
				c-4.4-2.9-9.7-3.2-14.6-1.6c-4.9,1.6-10,4.5-13.5,8.4c-1,1.1-2.3,2.7-2.1,4.4l-23.8,0.3c0,0-8.1-13.3-34.1-9.7
				c-9.5,1.2-11.8,8.3-11.8,10.6c0,0-16.6-2.4-23.7,9.5c-2.4,3.5-3.9,10.2-3.7,11.6c0,0-15.2-3.3-23.5,7.3c0,0-1.2-4.7-3.5-5.9
				c0,0,8.3-24.8-22.5-39S172.6,78,172.6,78s-16.6-3.5-33.1,4.7s-9.4,22.5-9.4,22.5s-17.8-2.4-20.2,11.8c0,0-17.7-15.4-33.1,2.4"/>
			<path class="st2" d="M433.9,85.1c0,0-13-3.5-24.8,0c-0.1,0-1.2-1.6-1.3-1.7c-1.2-1.3-2.5-2.5-4-3.5c-4.4-2.9-9.7-3.2-14.6-1.6
				c-4.9,1.6-10,4.5-13.5,8.4c-1,1.1-2.3,2.7-2.1,4.4l-23.8,0.3c0,0-8.1-13.3-34.1-9.7c-9.5,1.2-11.8,8.3-11.8,10.6
				c0,0-16.6-2.4-23.7,9.5c-2.4,3.5-3.9,10.2-3.7,11.6c0,0-15.2-3.3-23.5,7.3c0,0-1.2-4.7-3.5-5.9c0,0,8.3-24.8-22.5-39
				S172.6,78,172.6,78s-16.6-3.5-33.1,4.7s-9.4,22.5-9.4,22.5s-17.8-2.4-20.2,11.8c0,0-17.7-15.4-33.1,2.4"/>
			<path class="st2" d="M61.4,135.9c-4.7-1.2-9.5,3.5-7.1,9.5c2.4,5.9,11.8,8.3,16.6,4.7c4.7-3.5,5.9-7.1,5.9-7.1
				c-0.3,0.8,3,1.6,3.5,1.7c1.8,0.3,3.7,0,5.2-1c3.5-2.1,4.7-6.8,4.3-10.6c-0.4-4.1-2.5-8-6-10.2c0,0-3.5-2.4-7.1-2.4
				c0,0-6.9-10.9-25.9-8.4c-19,2.5-15.5,10.8-15.5,10.8s-21.3-4.7-29.6,4.7s-8.3,24.8,8.3,31.9c16.6,7.1,24.8-1.2,24.8-1.2
				s14.2,20.1,37.8,17.7c11.8-1.2,20.1-4.7,26-8.3c0,0,11.8,5.9,18.9-1.2c3.5-3.5,4.7-7.1,3.5-9.5c0,0,7.1,3.5,14.2,2.4
				c0,0-20.1,9.5-13,31.9c7.1,22.5,40.2,18.9,44.9,11.8c0,0,14.2,30.7,53.2,29.6c0,0,11.1,12.2,31,7.3c8.1-2.5,12.8-6.1,12.8-6.1
				s9.5,10.6,26,4.7c16.6-5.9,22.5-17.7,21.3-24.8c-1.2-7.1-3.5-8.3-3.5-8.3s9.8-4.9,3.7-14.9c0,0,24.7,7.8,33-10
				c4.7-9.5,3.5-16.6,3.5-16.6s15.4,3.5,21.3-7.1c2.4-4.7,2.4-9.5,2.4-14.2c0,0,23.7,5.9,35.5-1.2c11.8-7.1,15.4-20.1,11.8-29.6
				c-1.2-3.5-2.4-4.7-2.4-4.7s7.1,3.5,13,1.2"/>
			<path class="st0" d="M98.1,144.2c0,0,1.8,15.7,16.9,11.4c4.4-1.9,4.4-4.3,4.4-4.3"/>
			<path class="st0" d="M116.1,138.9c0,0-5.1,6.5,5.6,12.4s23.7-3.5,22.5-14.2"/>
			<path class="st0" d="M109.9,117c0,0,6.5,4,10.9,9.1"/>
			<path class="st0" d="M119.3,127.8c0,0,1.2-2.5,4.7-2.5"/>
			<path class="st0" d="M114.9,120.6c0,0,0.9-10.7,16.2-7.1c15.4,3.5,15.4,9.5,15.4,9.5s14.2-7.1,22.5,1.2s4.1,25.5-10.3,21"/>
			<path class="st0" d="M163.1,100.4c0,0-4.7-2.4-2.4-8.3c2.4-5.9,7.1-3.5,7.1-3.5s-1.2-13,15.4-8.3c16.6,4.7,10.6,13,10.6,13
				s13,4.7,9.5,16.6s-13,10.6-13,10.6"/>
			<path class="st0" d="M216.3,114.6c0,0,10.6-5.7,5.3-14.7s-17.8-10.8-26.9-8.7"/>
			<path class="st0" d="M197.4,171.4c-3.3-0.7-6.6-2.5-8.8-5.1c-4.6-5.5-3.1-14.3,1.4-19.3c0,0-6.2-13.3,5.3-20.5
				c11.5-7.2,36.1-9.8,46.3-2"/>
			<path class="st0" d="M153.3,154c0.8,3.7,2.4,7.3,4.7,10.3c5.1,6.9,13.1,8.4,21.1,6.3c3.6-1,6.4-2.5,8.6-5.5"/>
			<path class="st0" d="M177.3,179.7c0,0-13.6,8.3-23.9,0s-3.2-22.5,0.9-22.5"/>
			<path class="st0" d="M200.9,158.4c0,0-5.9-9.5,7.1-15.4s44.9-10.6,44.9,5.9"/>
			<path class="st0" d="M222.2,154.8c0,0,8.3-1.2,10.1,0c0,0,23.7-11.5,39.3-4.6s16.3,10.7,16.3,10.7s4.4-2.6,7.2-2.6
				c0,0-1.9-8.6,11.1-11.4c13-2.8,41.4-0.4,46.1,17.3"/>
			<path class="st0" d="M267.2,132.4c0,0,5.3,11.8,15.7,6.5c10.3-5.3,6.5-22.3-6.4-25.6"/>
			<path class="st0" d="M298.5,195.8c0,0,3.8-30.2-26.8-25.5c-6.9,1.1-7.2,4.6-7.2,4.6s-11.5-4.7-13.9,10.7"/>
			<path class="st0" d="M288.8,187.8c2.6,6.8,3.2,16.1-2.8,21.2c-2.1,1.8-4.5,2.9-7.1,3.8c-6.4,2.1-13.2,2.4-19.9,1.8
				c-6.8-0.6-12.6-3-19.1-4.9c-1.1-0.3-2.4,0.3-3.5,0.4c-1.5,0.2-3,0.3-4.5,0.3c-9.4,0-17.1-4-22.7-11.5c-4.7-6.4-7.6-14.6-7-22.5
				c0.2-2.3,0.7-4.6,1.5-6.8c1.1-2.8,2.9-5.2,5.2-7"/>
			<path class="st0" d="M311.3,161c0,0,9.3,1.3,11,8.8c1.6,7.5-2.8,11.9-4.7,12.1"/>
			<path class="st0" d="M354.4,154c0,0,11,2,12.7-5.1c1.8-7.1-6-14.2-13.9-13.6c-7.9,0.6-10,4.2-10.2,6.5"/>
			<path class="st0" d="M308.1,146.7c0,0,11.6-3.3,10.2-15.9c0,0,13.7,7.1,20.9-11.6c0,0,5.1,14.4,20.9,8.5c0,0,10.5,18.9,32.7,11.2
				c22.2-7.7,10.9-29.3,0-22"/>
			<path class="st0" d="M374.1,123.2c0,0-9.3-17.4,9.3-20.7s32.9,0.6,38.8,7"/>
			<path class="st0" d="M309.7,107.5c0,0,3.5-9.5-5.9-15.4"/>
			<path class="st0" d="M371.7,114.6c0,0-10,2.4-20.6-4.7c-10.6-7.1-28.3-13.5-40.7-7.4"/>
			<path class="st0" d="M307.8,95.6c0,0,6.4-6.9,19.6-5.2c8,1,14.9,5.3,22.1,8.6c7.1,3.3,17,6.4,24.6,3.5c0,0-0.5-17.5,14.9-17.5
				s17.4,5.4,17.4,5.4"/>
			<path class="st0" d="M430.4,63.8c0,0-26.7,9.5-39.4-6.5s25.2-33.7,46.5-24.2"/>
		</g>
	</g>
	<g>
		<g>
			<path class="st0" d="M674.9,139.4c0,0,22.4-3.9,32.9,2.6c5.9,3.6,17.8-3.4,23.3-5.4c13.7-5,28.8-6.9,43.3-7.6
				c11.2-0.6,24.1,1,29.1,12.5c0,0,20.7-1.9,25.6,7.2c4.9,9.1,7.9,25.5-14.6,24.5c-6.7,0.3-8-1-8-1v5.3c0,0,10.5,0,13.2,3.9
				c0,0,8-17.5,34.2-15.3c5.2,0.9,7.9,2.2,7.9,2.2s17.1-17.1,38.1-10.5c21,6.6,28.2,27,33.2,29.9c5,3,15.5,3.6,15.5-8.5
				c0-12.2-1.3-18.7,21-26.6c22.4-7.9,52.6,2.6,60.5,13.2c7.9,10.5,29.8,9.2,42.5-11.8c15.3-15.8,45.8-12.5,54.3,0.3
				c8.4,12.8,9.5,39.1-23.3,41.8c-15.7,0-23.3-6.2-23.3-6.2s-5.6,19.4-27.9,16.8c-6.6,0-13.9-8.5-13.9-8.5s-4.1,15.1-28,15.1
				c0,0,9.2,2,7.8,12.2s-17.2,16.8-36.9,14.1c-19.7-2.6-44.6-7.3-55.2-1c-10.6,6.3-9.2,10.2-1.3,11.6c7.9,1.3,26-2.6,53.8,0
				c27.8,2.6,71.2,1.3,88.3-1.3c17.1-2.6,24.3-3.7,33.2,2.7c8.9,6.5,3.5,10.4,3.5,10.4s6.7,1.3,6.7,6.6s3.9,15.8-39.5,14.5
				c-43.4-1.3-43.5,3.9-45.4,8.5c-1.9,4.6,1.1,15.5,23.9,17.3s53.1,3.1,58.3,1.8c0,0-24.9,6.5-65.7,5.9
				c-40.8-0.6-65.3,0.4-70.1-14.6s9.6-19.2,15.5-20.4c5.9-1.2,15.1-1.2,15.1-1.2s7.5-7,26.1-6.1c18.6,0.9,39.7,3.5,42.3-1.8
				c2.6-5.3,1.3-10.5-13.2-11.8c-14.5-1.3-71.6-3.4-91.7,3.5s-24,12.2-28,20.1c-3.9,7.9-12.9,14.6-32.7,12.6
				c-19.9-2-26.5-10.3-26.5-10.3s-27.6,6.9-46-4.9c0,0-26.3,2.6-39.5-6.6s-14.5-22.4-6.6-27.6c3.9-2.6,10.4-1,10.4-1
				s3.8-9.2,17.7-12.6c13.9-3.5,36.3-4.2,48.8,4.7c0,0,15.1-6.9,23-5.6c0,0,6.6-7.9,23.7-7.9c17.1,0,32.9,2.6,32.9,2.6
				s3.9-9.2,10.5-10.5c0,0,0.6-5.9-20.8-6.9c-21.3-1-35.1,8.3-42.7,8.9s-24.7,3.3-29.9-4.6c0,0-19.7,11.8-31.6,6.6
				c-11.8-5.3-15.8-10.5-15.8-10.5s-3.6,6.6-11,2.6c-7.4-3.9-4.8-9.2-4.8-9.2s-11.8,7.9-26.3,0s-14.5-23.7-14.5-23.7
				s-23.7-1.3-38.1-1.3c-14.5,0-22.4-2.6-39.5,6.6"/>
			<path class="st0" d="M674.9,155.3c1.3-0.2,11.8-6.7,26.3-5.4c14.5,1.3,28.9,1.3,36.8-2.6s15.1,0,15.1,0"/>
			<path class="st0" d="M756.4,143.3c0,0-7.9,3.9-5.3,14.5c1.3,7.9,17.1,5.3,17.1,5.3c0.1,0,2.5,2.9,2.8,3.1c2.1,1.6,4.7,1.8,7,0.5
				c3.5-2,3.3-5.4,3.3-8.9"/>
			<path class="st0" d="M774.8,139.4c0,0-6.2,9.5,1.5,15.9c7.7,6.4,15.6,3.8,15.6,3.8"/>
			<path class="st0" d="M676.2,168.3c0,0,15.8-5.3,30.2-3.9c14.5,1.3,32.9,13.2,50,7.9"/>
			<path class="st0" d="M766.6,173.6c0,0,1.6,6.6-10.2,6.6"/>
			<path class="st0" d="M764.3,190.7c0,0,9.5,11.2,17.9,9.5c8.4-1.6,12.4-4.3,12.4-4.3s2.6,9.2,14.5,9.2s11.8-2.6,11.8-2.6
				s5.3,11.8,22.4,9.2c17.1-2.6,22.4-9.2,21-22.4c0,0-1.9,16.4,16.8,17.4c18.7,1,34.3-2.3,36.4-15.7c2.1-13.5-2.9-21.6-10.9-22.1"/>
			<path class="st0" d="M874.7,174.9c0,0-15.8-2.6-15.8,7.9"/>
			<path class="st0" d="M841.9,182.8c0,0,6.6,0,7.9,3.9c1.3,3.9,0,14.5-13.2,14.5s-15.8-6.6-17.1-19.7"/>
			<path class="st0" d="M812.8,155.3c0,0-10.4-1.5-11.7,7.7c-1.3,9.2,8.2,10.1,8.2,10.1"/>
			<path class="st0" d="M787.9,159.7c0,0,2.8,15.4,15.2,10.7"/>
			<path class="st0" d="M886.6,232.8c0,0,6.2,2.1,4.4,6.3c-1.8,4.2-8.4,1.6-8.4,1.6"/>
			<path class="st0" d="M863.6,238.3c0,0-10.8,7.7-6.4,20.1c4.4,12.4,33.7,22,44.7,19.8c11-2.1,13.6-8.7,13.6-8.7s11.1,5.3,17.4,4
				c6.3-1.4,12.9-10.6,22.1-13.2c9.2-2.6,15.8-3.9,18.4-3.9"/>
			<path class="st0" d="M809,264.3c0,0,1.3-13.2,18.4-10.5c17.1,2.6,15.8,8.7,15.8,8.7s9.1,0.5,7.8,11c-1.3,10.5-18.4,7.9-18.4,7.9"
				/>
			<path class="st0" d="M965.5,206.5c0,0,10.5,1.3,10.5,14.5"/>
			<path class="st0" d="M988.4,205.1c0,0,7,2.6,7.2,15.8c0.2,13.2-16.1,17.7-31,16.1"/>
			<path class="st0" d="M965.5,232.8c0,0-21,0.9-23.7,2.4"/>
			<path class="st0" d="M963.2,174.6c0,0,6.2-15.5,28.6-11.5c22.4,3.9,20.4,15.6,20.4,15.6"/>
			<path class="st0" d="M980.1,178.7c0,0-8.4,15.3,10.8,18.2c19.3,2.9,22-6.5,22-6.5s8.3,6.2,14.6,3.2c6.3-3,18.5-14.2,4.5-25.7"/>
			<path class="st0" d="M1081.3,190.5c0,0-8-5.1-6.7-13c1.3-7.9,9.2-11.8,15.8-11.8c6.6,0,10.5,5.3,7.9,10.5
				c-2.6,5.3-12.5,3.3-11.5-3"/>
			<path class="st0" d="M1027.6,274c0,0-14.8,4.8-12.2,16.7c1.3,5.3,3.9,5.3,3.9,5.3"/>
			<path class="st0" d="M1002.3,280.1c-5.4,3.4-9.8,8.6-7.6,15.2c2.2,6.7,7.5,11.8,14.2,13.7"/>
		</g>
		<g>
			<path class="st0" d="M417.9,165.6c-5.3,1.3-10.5-3.9-7.9-10.5c2.6-6.6,13.2-9.2,18.4-5.3c5.3,3.9,6.6,7.9,6.6,7.9
				c-0.3-0.9,3.4-1.7,3.9-1.8c2-0.3,4.1,0,5.8,1.1c3.9,2.3,5.2,7.6,4.8,11.8c-0.4,4.5-2.8,8.9-6.7,11.3c0,0-3.9,2.6-7.9,2.6
				c0,0-7.6,12.1-28.8,9.3c-21.2-2.8-17.2-12-17.2-12s-23.7,5.3-32.9-5.3c-9.2-10.5-9.2-27.6,9.2-35.5c18.4-7.9,27.6,1.3,27.6,1.3
				s15.8-22.4,42.1-19.7c13.2,1.3,22.4,5.3,28.9,9.2c0,0,13.2-6.6,21,1.3c3.9,3.9,5.3,7.9,3.9,10.5c0,0,7.9-3.9,15.8-2.6
				c0,0-22.4-10.5-14.5-35.5c7.9-25,44.7-21,50-13.2c0,0,15.8-34.2,59.2-32.9c0,0,12.3-13.6,34.4-8.1c9,2.8,14.2,6.8,14.2,6.8
				s10.5-11.8,28.9-5.3s25,19.7,23.7,27.6c-1.3,7.9-3.9,9.2-3.9,9.2s10.8,5.4,4.1,16.5c0,0,27.5-8.6,36.7,11.1
				c5.3,10.5,3.9,18.4,3.9,18.4s17.1-3.9,23.7,7.9c2.6,5.3,2.6,10.5,2.6,15.8c0,0,26.3-6.6,39.5,1.3s17.1,22.4,13.2,32.9
				c-1.3,3.9-2.6,5.3-2.6,5.3s7.9-3.9,14.5-1.3v26.3c0,0-14.5,3.9-27.6,0c-0.1,0-1.4,1.8-1.5,1.9c-1.3,1.5-2.8,2.8-4.5,3.9
				c-4.8,3.2-10.7,3.6-16.2,1.8c-5.5-1.8-11.1-5-15-9.4c-1.1-1.2-2.5-3-2.3-4.9l-26.5-0.3c0,0-9,14.8-37.9,10.8
				c-10.5-1.3-13.2-9.2-13.2-11.8c0,0-18.4,2.6-26.3-10.5c-2.6-3.9-4.3-11.3-4.1-12.9c0,0-16.9,3.7-26.1-8.1c0,0-1.3,5.3-3.9,6.6
				c0,0,9.2,27.6-25,43.4s-60.5-2.6-60.5-2.6s-18.4,3.9-36.8-5.3c-18.4-9.2-10.4-25-10.4-25s-19.8,2.6-22.5-13.1
				c0,0-19.7,17.1-36.8-2.6"/>
			<path class="st0" d="M458.7,156.4c0,0,2-17.5,18.7-12.7c4.9,2.2,4.9,4.8,4.9,4.8"/>
			<path class="st0" d="M478.8,162.3c0,0-5.6-7.2,6.2-13.8c11.8-6.6,26.3,3.9,25,15.8"/>
			<path class="st0" d="M471.9,186.6c0,0,7.2-4.5,12.2-10.1"/>
			<path class="st0" d="M482.4,174.6c0,0,1.3,2.8,5.3,2.8"/>
			<path class="st0" d="M477.5,182.6c0,0,1,11.9,18.1,7.9s17.1-10.5,17.1-10.5s15.8,7.9,25-1.3c9.2-9.2,4.6-28.3-11.5-23.4"/>
			<path class="st0" d="M531,205c0,0-5.3,2.6-2.6,9.2c2.6,6.6,7.9,3.9,7.9,3.9s-1.3,14.5,17.1,9.2c18.4-5.3,11.8-14.5,11.8-14.5
				s14.5-5.3,10.5-18.4c-3.9-13.2-14.5-11.8-14.5-11.8"/>
			<path class="st0" d="M590.2,189.2c0,0,11.8,6.4,5.9,16.3c-5.9,10-19.8,12-29.9,9.7"/>
			<path class="st0" d="M569.2,126.1c-3.7,0.8-7.4,2.8-9.8,5.7c-5.1,6.1-3.5,15.9,1.6,21.5c0,0-6.9,14.8,5.9,22.8
				c12.8,8,40.2,10.9,51.5,2.2"/>
			<path class="st0" d="M520.2,145.5c0.9-4.1,2.7-8.1,5.2-11.5c5.7-7.6,14.5-9.4,23.5-7c4,1.1,7.1,2.8,9.5,6.2"/>
			<path class="st0" d="M546.8,116.9c0,0-15.1-9.2-26.6,0c-11.5,9.2-3.6,25,1,25"/>
			<path class="st0" d="M573.1,140.6c0,0-6.6,10.5,7.9,17.1c14.5,6.6,50,11.8,50-6.6"/>
			<path class="st0" d="M596.8,144.5c0,0,9.2,1.3,11.2,0c0,0,26.3,12.8,43.7,5.1c17.4-7.7,18.1-11.9,18.1-11.9s4.9,2.9,8.1,2.9
				c0,0-2.1,9.5,12.3,12.7c14.5,3.1,46,0.5,51.3-19.2"/>
			<path class="st0" d="M646.8,169.5c0,0,5.9-13.2,17.4-7.2c11.5,5.9,7.2,24.8-7.1,28.5"/>
			<path class="st0" d="M681.6,99c0,0,4.3,33.6-29.8,28.4c-7.7-1.2-8.1-5.1-8.1-5.1s-12.8,5.2-15.5-11.9"/>
			<path class="st0" d="M670.8,107.9c2.9-7.5,3.5-17.9-3.2-23.6c-2.3-2-5.1-3.2-7.9-4.2c-7.1-2.4-14.7-2.7-22.2-2
				c-7.5,0.6-14,3.3-21.2,5.4c-1.2,0.4-2.7-0.3-3.9-0.5c-1.6-0.3-3.3-0.3-5-0.3c-10.4,0.1-19,4.5-25.2,12.8
				c-5.2,7.1-8.4,16.2-7.8,25.1c0.2,2.6,0.7,5.2,1.7,7.6c1.2,3.1,3.2,5.7,5.8,7.8"/>
			<path class="st0" d="M695.9,137.7c0,0,10.4-1.5,12.2-9.8c1.8-8.4-3.1-13.2-5.3-13.4"/>
			<path class="st0" d="M743.7,145.5c0,0,12.2-2.3,14.1,5.6c2,7.9-6.7,15.8-15.5,15.1c-8.8-0.7-11.1-4.6-11.3-7.2"/>
			<path class="st0" d="M692.3,153.6c0,0,13,3.7,11.3,17.7c0,0,15.3-7.9,23.3,12.9c0,0,5.7-16,23.3-9.5c0,0,11.7-21,36.3-12.5
				s12.2,32.5,0,24.5"/>
			<path class="st0" d="M765.6,179.7c0,0-10.4,19.3,10.3,23c20.7,3.6,36.6-0.7,43.1-7.7"/>
			<path class="st0" d="M694.1,197.1c0,0,3.9,10.5-6.6,17.1"/>
			<path class="st0" d="M763.1,189.2c0,0-11.1-2.6-22.9,5.3c-11.8,7.9-31.4,15.1-45.3,8.2"/>
			<path class="st0" d="M691.9,210.4c0,0,7.1,7.7,21.8,5.8c8.9-1.2,16.6-5.9,24.6-9.6c7.9-3.6,18.9-7.2,27.4-3.9
				c0,0-0.5,19.4,16.6,19.4c17.1,0,19.4-6,19.4-6"/>
			<path class="st0" d="M828.2,245.8c0,0-29.7-10.5-43.8,7.2s28,37.5,51.7,27"/>
		</g>
	</g>
</g>
</svg>
