<svg width="110" height="59" viewBox="0 0 110 59" fill="none" xmlns="http://www.w3.org/2000/svg">
<path d="M64.7534 34.7215C57.8233 37.332 50.8933 37.332 43.9632 34.7215C46.6147 25.778 46.6146 17.4139 41.5225 9.84005C50.0797 5.86582 58.6369 5.86582 67.1999 9.84005C62.1077 17.4139 62.1078 25.778 64.7592 34.7215H64.7534Z" fill="#E4007E" stroke="#BF9769" stroke-width="3" stroke-miterlimit="10"/>
<path d="M54.7624 11.7364C76.612 11.7364 95.2072 9.47707 102.184 6.31641H7.34082C14.3177 9.47707 32.9129 11.7364 54.7624 11.7364Z" fill="#E4007E" stroke="#BF9769" stroke-width="3" stroke-miterlimit="10"/>
<path d="M104.794 2.03125H4.7301C3.54778 2.03125 2.58789 2.99117 2.58789 4.1735C2.58789 5.35582 3.54778 6.31571 4.7301 6.31571H104.794C105.977 6.31571 106.937 5.35582 106.937 4.1735C106.937 2.99117 105.977 2.03125 104.794 2.03125Z" fill="#E4007E" stroke="#BF9769" stroke-width="3" stroke-miterlimit="10"/>
<path d="M43.1908 29.7578H64.4082C73.7497 29.7578 81.3353 37.3434 81.3353 46.6849V57.4838H26.2637V46.6849C26.2637 37.3434 33.8493 29.7578 43.1908 29.7578Z" fill="#E4007E" stroke="#BF9769" stroke-width="3" stroke-miterlimit="10"/>
<path d="M81.3411 50.9337H26.2696C25.7838 50.9337 25.3916 50.5415 25.3916 50.0557C25.3916 49.5699 25.7838 49.1777 26.2696 49.1777H81.3411C81.827 49.1777 82.2191 49.5699 82.2191 50.0557C82.2191 50.5415 81.827 50.9337 81.3411 50.9337Z" fill="#E4007E" stroke="#BF9769" stroke-width="3" stroke-miterlimit="10"/>
</svg>
