<svg width="334" height="393" viewBox="0 0 334 393" fill="none" xmlns="http://www.w3.org/2000/svg">
<g clip-path="url(#clip0_452_5715)">
<path d="M79.5942 345.367C75.4768 342.99 72.2563 339.335 70.5245 335.073C68.767 330.746 68.6605 326.072 70.2254 321.918L91.8224 264.612L85.6557 256.54C82.365 252.235 80.964 246.883 81.8106 241.857C82.6037 237.156 85.2424 233.115 89.2435 230.482C95.3184 226.483 103.62 226.427 110.395 230.339C111.206 230.807 111.987 231.328 112.731 231.891L137.852 199.926L172.739 139.5L169.422 133.467C166.903 128.884 166.331 123.769 167.817 119.069C169.309 114.359 172.679 110.638 177.312 108.585C183.097 106.024 190.035 106.502 195.86 109.865C196.29 110.113 196.711 110.375 197.124 110.651L243.015 59.2622C248.897 52.6769 259.215 51.3876 267.545 56.197C268.628 56.8223 269.661 57.5455 270.621 58.3406C274.897 61.9075 277.579 66.9585 277.97 72.2097C278.324 76.9511 276.821 81.4709 273.728 84.9329L215.156 150.531C219.056 154.033 221.492 158.827 221.881 163.805C222.264 168.696 220.666 173.326 217.389 176.84C213.929 180.553 209.063 182.579 203.68 182.549L194.28 182.49L172.021 221.044C171.62 221.739 171.171 222.406 170.678 223.029L131.544 272.818L107.344 337.034C105.71 341.364 102.406 344.793 98.0418 346.69C93.1936 348.796 87.4511 348.793 82.2818 346.684C81.357 346.302 80.453 345.863 79.5942 345.367Z" fill="#431D31"/>
<path d="M267.145 56.88C268.19 57.4832 269.187 58.1796 270.111 58.948C278.253 65.7363 279.612 77.1558 273.135 84.4069L214.029 150.598C218.119 153.993 220.694 158.754 221.089 163.855C221.862 173.788 214.047 181.815 203.675 181.753L193.821 181.699L171.334 220.647C170.952 221.309 170.52 221.948 170.051 222.54L130.842 272.425L106.599 336.75C103.174 345.833 92.3947 349.959 82.5717 345.951C81.6852 345.591 80.8125 345.163 79.9871 344.687C76.0224 342.398 72.9195 338.88 71.2568 334.786C69.5724 330.641 69.4687 326.171 70.9661 322.2L92.718 264.482L86.2855 256.066C79.9264 247.744 81.4447 236.564 89.6803 231.147C95.5089 227.31 103.487 227.265 110.004 231.027C111.02 231.614 111.975 232.273 112.862 233.007L138.506 200.381L173.646 139.516L170.115 133.093C167.703 128.699 167.15 123.805 168.572 119.315C169.994 114.825 173.211 111.269 177.636 109.312C183.191 106.853 189.863 107.317 195.469 110.553C196.085 110.909 196.679 111.29 197.249 111.701L243.605 59.7938C249.234 53.4812 259.139 52.2578 267.145 56.88ZM267.934 55.5141C259.279 50.5174 248.552 51.8753 242.422 58.7362L196.982 109.618C196.74 109.466 196.499 109.32 196.251 109.177C190.206 105.687 183.01 105.194 176.987 107.859C172.144 109.999 168.621 113.898 167.062 118.824C165.51 123.727 166.1 129.062 168.724 133.838L171.825 139.486L137.185 199.485L112.57 230.802C111.993 230.392 111.398 230.011 110.783 229.656C103.75 225.596 95.1204 225.658 88.7963 229.824C84.6104 232.579 81.8523 236.806 81.0216 241.726C80.1401 246.966 81.5922 252.538 85.0183 257.016L90.9218 264.74L69.4799 321.634C67.8447 325.975 67.9539 330.855 69.7894 335.366C71.5882 339.787 74.9264 343.58 79.1965 346.045C80.0887 346.56 81.0213 347.016 81.9727 347.407C87.337 349.597 93.3042 349.596 98.3425 347.403C102.91 345.421 106.363 341.83 108.068 337.301L132.227 273.2L171.286 223.507C171.801 222.859 172.271 222.153 172.689 221.43L194.72 183.271L203.659 183.324C209.264 183.356 214.34 181.242 217.953 177.363C221.382 173.683 223.052 168.84 222.653 163.724C222.268 158.794 219.958 154.046 216.245 150.462L274.305 85.4439C277.541 81.8231 279.117 77.0985 278.741 72.1414C278.331 66.6821 275.55 61.4279 271.108 57.7278C270.13 56.9094 269.055 56.1614 267.934 55.5141Z" fill="#C39A6B"/>
<path d="M173.955 199.649L179.377 183.857L166.746 172.878C159.697 166.752 148.989 167.638 143.07 174.837L127.677 193.565L128.701 197.367L129.725 201.169L152.467 209.73C161.21 213.021 170.929 208.46 173.955 199.649Z" fill="#F477A0" stroke="#C39A6B" stroke-width="3.2628" stroke-miterlimit="10" stroke-linecap="round" stroke-linejoin="round"/>
<path d="M140.876 151.95L127.505 141.889L113.172 150.474C105.175 155.267 102.734 165.711 107.768 173.573L120.874 194.021L124.811 194.232L128.747 194.442L143.879 175.506C149.701 168.22 148.339 157.566 140.876 151.95Z" fill="#F477A0" stroke="#C39A6B" stroke-width="3.2628" stroke-miterlimit="10" stroke-linecap="round" stroke-linejoin="round"/>
<path d="M85.3047 168.53L71.6164 178.103L75.3918 194.382C77.5 203.468 86.7004 209.04 95.7287 206.701L119.219 200.612L120.628 196.938L122.036 193.265L108.646 173.002C103.506 165.212 92.9439 163.188 85.3047 168.53Z" fill="#F477A0" stroke="#C39A6B" stroke-width="3.2628" stroke-miterlimit="10" stroke-linecap="round" stroke-linejoin="round"/>
<path d="M84.0386 226.476L88.9493 242.452L105.614 243.932C114.914 244.759 123.044 237.751 123.586 228.45L125 204.24L121.934 201.76L118.869 199.279L95.4654 205.692C86.4592 208.158 81.2913 217.56 84.0386 226.476Z" fill="#F477A0" stroke="#C39A6B" stroke-width="3.2628" stroke-miterlimit="10" stroke-linecap="round" stroke-linejoin="round"/>
<path d="M138.825 245.709L155.552 246.012L162.076 230.647C165.717 222.07 161.541 212.171 152.849 208.759L130.229 199.887L126.926 202.028L123.622 204.169L122.548 228.398C122.121 237.708 129.489 245.54 138.825 245.709Z" fill="#F477A0" stroke="#C39A6B" stroke-width="3.2628" stroke-miterlimit="10" stroke-linecap="round" stroke-linejoin="round"/>
<path d="M121.548 203.75C124.475 205.44 128.215 204.443 129.901 201.523C131.587 198.603 130.581 194.866 127.653 193.176C124.726 191.485 120.986 192.482 119.3 195.403C117.614 198.323 118.62 202.06 121.548 203.75Z" fill="#E4007E" stroke="#C39A6B" stroke-width="3.2628" stroke-miterlimit="10" stroke-linecap="round" stroke-linejoin="round"/>
<path d="M272.636 124.014L267.172 108.213L250.471 107.314C241.149 106.812 233.266 114.095 233.052 123.414L232.482 147.66L235.63 150.03L238.779 152.4L261.944 145.177C270.847 142.405 275.682 132.829 272.636 124.014Z" fill="#F477A0" stroke="#C39A6B" stroke-width="3.2628" stroke-miterlimit="10" stroke-linecap="round" stroke-linejoin="round"/>
<path d="M217.215 106.694L200.491 106.97L194.507 122.557C191.164 131.256 195.683 141.003 204.491 144.115L227.406 152.199L230.635 149.945L233.864 147.691L234.099 123.441C234.181 114.11 226.549 106.537 217.215 106.694Z" fill="#F477A0" stroke="#C39A6B" stroke-width="3.2628" stroke-miterlimit="10" stroke-linecap="round" stroke-linejoin="round"/>
<path d="M183.708 153.944L178.838 169.915L191.84 180.449C199.096 186.326 209.77 185.071 215.429 177.671L230.157 158.419L229.003 154.656L227.848 150.893L204.825 143.128C195.981 140.134 186.429 145.033 183.708 153.944Z" fill="#F477A0" stroke="#C39A6B" stroke-width="3.2628" stroke-miterlimit="10" stroke-linecap="round" stroke-linejoin="round"/>
<path d="M218.422 200.472L232.134 210.064L246.153 200.987C253.976 195.922 256.058 185.397 250.749 177.712L236.94 157.734L232.999 157.661L229.059 157.588L214.598 177.038C209.041 184.516 210.771 195.115 218.422 200.472Z" fill="#F477A0" stroke="#C39A6B" stroke-width="3.2628" stroke-miterlimit="10" stroke-linecap="round" stroke-linejoin="round"/>
<path d="M273.379 181.971L286.728 171.929L282.389 155.788C279.968 146.782 270.583 141.529 261.64 144.183L238.373 151.087L237.09 154.807L235.807 158.527L249.891 178.315C255.309 185.923 265.932 187.576 273.379 181.971Z" fill="#F477A0" stroke="#C39A6B" stroke-width="3.2628" stroke-miterlimit="10" stroke-linecap="round" stroke-linejoin="round"/>
<path d="M230.017 158.705C232.944 160.396 236.684 159.398 238.37 156.478C240.056 153.558 239.05 149.821 236.122 148.131C233.195 146.44 229.455 147.438 227.769 150.358C226.083 153.278 227.09 157.015 230.017 158.705Z" fill="#E4007E" stroke="#C39A6B" stroke-width="3.2628" stroke-miterlimit="10" stroke-linecap="round" stroke-linejoin="round"/>
</g>
<defs>
<clipPath id="clip0_452_5715">
<rect width="185.001" height="345.976" fill="white" transform="translate(173 0.705078) rotate(30)"/>
</clipPath>
</defs>
</svg>
