<svg width="118" height="138" viewBox="0 0 118 138" fill="none" xmlns="http://www.w3.org/2000/svg">
<g id="Frame" clip-path="url(#clip0_452_12434)">
<g id="Group">
<g id="Group_2">
<path id="Vector" d="M66.8084 132.07C47.5728 124.341 28.2845 116.588 8.94262 108.8C33.9143 78.426 28.0724 32.7157 50.4986 1.07757C69.7342 8.80662 89.0229 16.5652 108.364 24.3476C83.3927 54.7215 89.2402 100.431 66.8084 132.07Z" fill="#EEEBDF" stroke="#C2996B" stroke-width="1.5" stroke-miterlimit="10" stroke-linecap="round" stroke-linejoin="round"/>
<path id="Vector_2" d="M52.6786 29.1111C54.5228 27.7584 56.4135 26.4244 58.3575 25.12C58.4068 27.418 58.5148 29.745 58.6639 32.0913C60.0263 34.0136 61.4003 35.9405 62.786 37.8722C60.5211 37.9924 58.273 38.1112 56.0314 38.2407C54.2755 39.637 52.5493 41.0534 50.8526 42.4842C50.5561 40.0598 50.2839 37.6559 50.0461 35.2605C48.6371 33.3194 47.2393 31.3775 45.8536 29.4458C48.1129 29.3261 50.3899 29.2162 52.6786 29.1111Z" fill="#C2996B" stroke="#C2996B" stroke-width="1.5" stroke-miterlimit="10" stroke-linecap="round" stroke-linejoin="round"/>
<path id="Vector_3" d="M62.5727 45.9604C63.6525 45.0688 64.7438 44.1818 65.8525 43.2991C66.0019 44.8067 66.1686 46.3186 66.3413 47.8356C67.242 49.069 68.1482 50.3019 69.0544 51.5348C67.6675 51.6238 66.281 51.7183 64.8945 51.8129C63.8385 52.7195 62.7882 53.6257 61.75 54.5421C61.5362 53.0059 61.328 51.4692 61.1259 49.9377C60.2136 48.6997 59.3018 47.4672 58.3951 46.2287C59.782 46.1397 61.1746 46.0503 62.5727 45.9604Z" fill="#C2996B" stroke="#C2996B" stroke-width="1.5" stroke-miterlimit="10" stroke-linecap="round" stroke-linejoin="round"/>
<g id="Vector_4">
<path d="M96.057 19.3936C71.6442 50.049 77.5033 95.7634 54.5542 127.145L96.057 19.3936Z" fill="#EEEBDF"/>
<path d="M96.057 19.3936C71.6442 50.049 77.5033 95.7634 54.5542 127.145" stroke="#C2996B" stroke-width="1.5" stroke-miterlimit="10" stroke-linecap="round" stroke-linejoin="round"/>
</g>
<g id="Vector_5">
<path d="M70.9904 79.6214C57.6489 74.3002 44.3014 68.9738 30.9482 63.6479L70.9904 79.6214Z" fill="#EEEBDF"/>
<path d="M70.9904 79.6214C57.6489 74.3002 44.3014 68.9738 30.9482 63.6479" stroke="#C2996B" stroke-width="1.5" stroke-miterlimit="10" stroke-linecap="round" stroke-linejoin="round"/>
</g>
<g id="Group_3">
<path id="Vector_6" d="M99.3736 27.6479C99.3631 27.8683 99.3811 28.092 99.4331 28.3185C99.4852 28.5451 99.5649 28.7638 99.6726 28.9803C99.7799 29.1912 99.9021 29.3784 100.034 29.5422C100.166 29.7061 100.283 29.8318 100.38 29.9196C100.478 30.0075 100.544 30.064 100.58 30.0893C100.34 30.1874 100.116 30.2842 99.9093 30.3796C99.7025 30.475 99.562 30.5539 99.4759 30.6058C99.086 30.2488 98.7934 29.8389 98.5935 29.3879C98.3935 28.9368 98.2983 28.4548 98.3032 27.9535C98.1309 28.0574 97.9302 28.1579 97.707 28.2603C97.4782 28.3631 97.2313 28.4505 96.9502 28.535C96.6743 28.6135 96.3634 28.6779 96.0283 28.7217C95.6932 28.7655 95.3441 28.7767 94.9695 28.7505C94.9522 28.6056 94.921 28.428 94.8759 28.2177C94.8308 28.0075 94.7832 27.8368 94.7379 27.6942C96.0881 27.8501 97.1493 27.641 97.9332 27.0715C97.4549 26.8791 96.9766 26.6868 96.4983 26.4945C96.195 26.3726 95.9911 26.2933 95.887 26.2623C96.0631 25.9948 96.2396 25.733 96.4212 25.4651C96.5154 25.5138 96.7142 25.5992 97.0231 25.7207C97.5653 25.936 98.1024 26.1573 98.6446 26.3726C98.6751 26.3308 98.7056 26.2889 98.7361 26.2471C98.8624 26.0625 98.9891 25.8834 99.1158 25.7044C98.7308 25.5496 98.3459 25.3948 97.9665 25.2396C97.6338 25.1031 97.407 25.02 97.2969 24.9839C97.4841 24.7155 97.6719 24.4528 97.8596 24.1901C97.9594 24.2383 98.1815 24.333 98.5137 24.4639C99.6275 24.9091 100.742 25.3598 101.856 25.805C102.188 25.9358 102.409 26.025 102.52 26.0611C102.326 26.3243 102.139 26.5871 101.951 26.8554C101.846 26.8076 101.629 26.7124 101.303 26.5811C100.906 26.4216 100.504 26.2626 100.107 26.1031C99.9703 26.2942 99.8393 26.4905 99.7023 26.6816C99.6821 26.7114 99.6619 26.7411 99.6417 26.7709C100.196 26.9965 100.75 27.2165 101.31 27.4416C101.613 27.5636 101.817 27.6429 101.921 27.6739C101.739 27.9362 101.563 28.198 101.381 28.4659C101.287 28.4172 101.088 28.3319 100.785 28.2099C100.312 28.0227 99.8402 27.8356 99.3736 27.6479Z" fill="#C2996B"/>
<path id="Vector_7" d="M96.8599 34.6434C97.2098 34.7841 97.4427 34.8724 97.5584 34.9081C97.401 35.1965 97.2492 35.4845 97.0974 35.7725C96.9915 35.7191 96.7638 35.6248 96.4082 35.4846C95.0145 34.9269 93.6146 34.364 92.2208 33.8063C91.8709 33.6656 91.638 33.5773 91.5223 33.5416C91.6741 33.2536 91.8255 32.9601 91.9773 32.6721C92.0832 32.7255 92.3165 32.8193 92.6664 32.96C93.1503 33.1518 93.6347 33.3493 94.1185 33.5412C94.737 32.3883 95.3797 31.256 96.0514 30.1326C96.1209 30.0145 96.1853 29.9024 96.2337 29.8028C96.76 30.0307 97.1052 30.183 97.275 30.2594C97.2286 30.3138 97.1685 30.4087 97.0835 30.545C96.8646 30.9115 96.6458 31.2781 96.433 31.6497C96.9812 31.8702 97.5234 32.0855 98.0717 32.306C98.2583 32.381 98.3923 32.4322 98.4618 32.4547C98.3035 32.732 98.1452 33.0092 97.9868 33.2865C97.9225 33.2579 97.7937 33.2007 97.6014 33.1261C97.0588 32.9052 96.511 32.6903 95.9683 32.4694C95.6916 32.9588 95.4209 33.4533 95.1507 33.9535C95.7227 34.1889 96.2887 34.4192 96.8599 34.6434Z" fill="#C2996B"/>
<path id="Vector_8" d="M94.0647 40.5922C94.3619 40.709 94.5658 40.7883 94.6708 40.8305C94.5748 41.0409 94.4793 41.2568 94.3838 41.4727C94.2783 41.4249 94.08 41.3452 93.7823 41.2228C92.3359 40.6411 90.8898 40.0651 89.4377 39.4839C89.1405 39.3671 88.9365 39.2878 88.8316 39.2456C88.9271 39.0297 89.0174 38.8198 89.113 38.6039C89.2184 38.6517 89.4167 38.7314 89.7144 38.8538C90.2916 39.0832 90.8632 39.3131 91.4404 39.5425C91.479 39.4606 91.5171 39.3731 91.5501 39.2916C91.1478 39.1326 90.7512 38.9731 90.3485 38.8085C90.1152 38.7147 89.9524 38.6546 89.8651 38.6222C89.9564 38.4235 90.042 38.2253 90.1333 38.0266C90.2215 38.0702 90.3792 38.1363 90.6125 38.2301C91.0147 38.3891 91.4118 38.5542 91.814 38.7132C91.8521 38.6257 91.8907 38.5438 91.9288 38.4563C91.477 38.3125 90.8848 38.1069 90.1413 37.8458C90.1907 37.6167 90.2297 37.3997 90.2579 37.1892C92.3821 37.9865 93.8299 38.4442 94.6121 38.5558C94.7297 38.8953 94.8024 39.0977 94.8246 39.1635C94.8469 39.2292 94.8561 39.2735 94.8579 39.2959C94.7832 39.2794 94.708 39.2573 94.6389 39.2403C94.081 39.1107 93.4634 38.9408 92.7974 38.7298C92.7494 38.835 92.7014 38.9402 92.6534 39.0453C93.0734 39.2142 93.4933 39.383 93.9189 39.5515C94.1462 39.6401 94.309 39.7002 94.4019 39.7321C94.3106 39.9308 94.2194 40.1295 94.1333 40.3222C94.0511 40.2838 93.8934 40.2176 93.6601 40.1238C93.2402 39.955 92.8202 39.7861 92.3947 39.6177C92.3561 39.6996 92.318 39.7871 92.285 39.8685C92.8748 40.1138 93.4697 40.353 94.0647 40.5922ZM90.1741 36.2166C90.2907 36.2635 90.4069 36.3049 90.5236 36.3518C90.7361 35.9069 90.9543 35.4616 91.1725 35.0164C91.0209 34.9554 90.9103 34.9136 90.8463 34.8906C90.9437 34.6971 91.041 34.5035 91.1383 34.3099C91.2088 34.3437 91.3371 34.3953 91.5177 34.4652C92.2698 34.7649 93.022 35.0647 93.7691 35.3704C93.9496 35.4404 94.078 35.492 94.1536 35.5196C94.0562 35.7132 93.9589 35.9068 93.8616 36.1003C93.8028 36.0713 93.6978 36.0291 93.5518 35.9676C93.265 36.5423 92.9838 37.1164 92.7086 37.6957C92.6559 37.8125 92.6174 37.8944 92.5985 37.941C92.3358 37.8326 92.068 37.7304 91.8053 37.622C91.8306 37.5862 91.8748 37.5039 91.9331 37.3866C91.2175 37.1909 90.6807 37.0427 90.3218 36.9308C90.2237 36.9049 90.1201 36.8795 90.0225 36.8592C90.0788 36.6464 90.1295 36.4341 90.1741 36.2166ZM93.0368 37.917C93.0866 37.8342 93.1257 37.7579 93.1595 37.6876C93.4394 37.0967 93.7309 36.5104 94.0224 35.9242C94.0614 35.8479 94.0948 35.772 94.1273 35.685C94.8912 35.9894 95.6494 36.2943 96.4133 36.5987C96.3687 36.6755 96.3296 36.7518 96.2906 36.8281C95.9935 37.4148 95.7076 38.0006 95.4221 38.592C95.3892 38.6734 95.3501 38.7498 95.3172 38.8312C94.5589 38.5263 93.8007 38.2214 93.0368 37.917ZM91.346 36.6121C91.6288 36.6907 91.9122 36.7748 92.195 36.8534C92.2096 36.8241 92.2237 36.7892 92.2383 36.7599C91.97 36.652 91.7017 36.5441 91.4278 36.4367C91.3987 36.4953 91.3695 36.5539 91.346 36.6121ZM95.2386 36.9408C95.0403 36.8611 94.8364 36.7818 94.6381 36.702C94.4975 36.9891 94.3512 37.2767 94.2163 37.5633C94.4146 37.643 94.6185 37.7223 94.8168 37.8021C94.9518 37.5154 95.098 37.2279 95.2386 36.9408ZM91.694 35.8862C91.6695 35.9332 91.6507 35.9797 91.6258 36.0211C91.8941 36.129 92.1624 36.2369 92.4363 36.3443C92.4608 36.2973 92.4796 36.2508 92.5045 36.2094C92.2362 36.1015 91.9679 35.9936 91.694 35.8862ZM92.7086 35.799C92.733 35.752 92.7574 35.705 92.7819 35.6581C92.5136 35.5502 92.2453 35.4423 91.9714 35.3349C91.9469 35.3818 91.9225 35.4288 91.898 35.4758C92.1663 35.5837 92.4346 35.6916 92.7086 35.799Z" fill="#C2996B"/>
<path id="Vector_9" d="M92.9171 44.5001C92.771 44.4387 92.6198 44.3833 92.4738 44.3219C92.3448 44.6137 92.2098 44.9003 92.058 45.1883C92.0986 45.2019 92.1341 45.2216 92.1747 45.2352C92.4313 45.3384 92.6119 45.4083 92.7048 45.4402C92.6016 45.7018 92.4989 45.969 92.3958 46.2305C92.3076 46.187 92.1322 46.111 91.87 46.0083C91.7822 45.9703 91.6894 45.9384 91.6017 45.9004C91.5599 45.9431 91.5187 45.9915 91.477 46.0342C91.3518 46.1625 91.2184 46.2576 91.071 46.3201C90.9236 46.3826 90.7572 46.4185 90.5712 46.4222C90.3853 46.4259 90.1802 46.403 89.9496 46.3427C89.719 46.2825 89.4525 46.197 89.1492 46.075C89.1678 45.9553 89.1749 45.6227 89.171 45.0827C89.2545 45.1379 89.3552 45.1973 89.4849 45.2657C89.609 45.3345 89.7317 45.3866 89.8367 45.4288C89.9944 45.4949 90.1325 45.5288 90.2404 45.537C90.3539 45.5448 90.454 45.5255 90.5401 45.4735C89.4263 45.0284 88.3125 44.5832 87.1987 44.1381C87.3447 43.9181 87.494 43.6697 87.6636 43.3916C87.8275 43.1139 87.9807 42.8427 88.1231 42.5779C87.977 42.5165 87.8258 42.4611 87.6798 42.3997C87.5981 42.3669 87.5169 42.3396 87.4353 42.3068C87.5431 42.0336 87.651 41.7604 87.7649 41.4923C87.8465 41.5252 87.923 41.564 88.0047 41.5969C88.1853 41.6668 88.3607 41.7427 88.5413 41.8126C88.829 41.2492 89.0905 40.7104 89.3205 40.2022C90.726 40.7646 92.1314 41.327 93.5313 41.8899C93.4927 41.9718 93.449 42.0597 93.4104 42.1416C93.2442 42.5321 93.0442 42.9928 92.8159 43.5233C92.9559 43.5796 93.0959 43.6359 93.2359 43.6922C93.3232 43.7246 93.4104 43.7569 93.4921 43.7898C93.3782 44.0578 93.2703 44.331 93.1625 44.6042C93.127 44.5846 93.0393 44.5466 92.9171 44.5001ZM89.0839 42.9453C89.0153 43.0747 88.9316 43.2277 88.8329 43.4045C88.7399 43.5808 88.6605 43.7167 88.606 43.8111C89.0959 44.0081 89.5859 44.2051 90.0758 44.4021C89.9744 44.2639 89.8436 44.1112 89.6713 43.9337C89.5046 43.7557 89.3579 43.6156 89.2307 43.5076C89.4617 43.4328 89.6876 43.3639 89.9186 43.2891C89.6434 43.1649 89.3634 43.0523 89.0839 42.9453ZM90.3026 44.4852C90.5709 44.5931 90.8392 44.7009 91.1075 44.8088C91.2049 44.6153 91.345 44.3226 91.5275 43.9252C91.0087 43.7193 90.4893 43.5077 89.9704 43.3018C90.121 43.4192 90.285 43.5636 90.4676 43.729C90.6446 43.8949 90.8039 44.0509 90.9343 44.198C90.6891 44.3078 90.4767 44.4036 90.3026 44.4852ZM90.6891 41.64C90.4269 41.5372 90.1702 41.434 89.9075 41.3257C89.7867 41.5774 89.6409 41.8706 89.4698 42.1995C89.9187 42.3773 90.362 42.5555 90.8109 42.7333C90.7207 42.5942 90.6002 42.4295 90.4443 42.245C90.2883 42.0605 90.1528 41.9195 90.0433 41.8213C90.2589 41.7646 90.474 41.7023 90.6891 41.64ZM92.2406 42.2638C91.78 42.0813 91.319 41.8933 90.8585 41.7108C91.0467 41.8758 91.2125 42.0425 91.3671 42.2102C91.5161 42.3783 91.6148 42.483 91.6585 42.5357C91.4345 42.6269 91.2104 42.7181 90.9924 42.8144C91.284 42.9317 91.5756 43.0489 91.8612 43.1611C91.9836 42.8586 92.1121 42.5612 92.2406 42.2638Z" fill="#C2996B"/>
<path id="Vector_10" d="M84.6221 50.0695C84.9406 49.9594 85.2452 49.8168 85.5363 49.647C85.8275 49.4773 86.1 49.2865 86.3534 49.0692C86.6073 48.8574 86.8473 48.613 87.0631 48.348C87.3417 48.5845 87.6203 48.821 87.9041 49.0515C87.8718 49.0709 87.8404 49.1016 87.8099 49.1435C87.5065 49.5112 87.1293 49.8736 86.6825 50.2134C86.2361 50.5588 85.7624 50.8446 85.2618 51.0762C85.1299 50.8391 84.9165 50.5017 84.6221 50.0695ZM89.4764 49.3022C89.9354 50.5879 90.226 51.6058 90.3316 52.3571C89.8785 52.4779 89.5021 52.5701 89.1907 52.6289C89.1669 52.1918 89.0845 51.6581 88.9379 51.0283C88.7913 50.3985 88.6259 49.8152 88.43 49.2737C88.7804 49.2793 89.1312 49.2905 89.4764 49.3022ZM90.4836 49.3338C89.1015 48.7807 87.7194 48.2277 86.3373 47.6747C85.9873 47.534 85.7605 47.4509 85.6504 47.4147C85.7555 47.108 85.8659 46.7952 85.9766 46.488C86.0825 46.5414 86.3102 46.6356 86.6602 46.7763C87.2257 47.001 87.7973 47.2309 88.3628 47.4556C88.2834 47.0286 88.1929 46.6756 88.0859 46.3972C88.4293 46.3865 88.7676 46.3818 89.111 46.3711C89.1754 46.5404 89.2378 46.7549 89.3094 47.0136C89.3814 47.278 89.4335 47.5046 89.4661 47.6989C89.3259 47.7102 89.1857 47.7215 89.045 47.7272C89.6339 47.9612 90.2172 48.1958 90.806 48.4298C91.1499 48.5654 91.3772 48.6541 91.4873 48.6902C91.3766 48.9974 91.2658 49.3046 91.155 49.6118C91.0557 49.5692 90.828 49.4749 90.4836 49.3338Z" fill="#C2996B"/>
<path id="Vector_11" d="M88.5918 55.0128C88.9478 55.1586 89.1862 55.2464 89.2964 55.2826C89.1935 55.6173 89.0906 55.952 88.9933 56.2863C88.8874 56.2329 88.6541 56.1391 88.2981 55.9932C87.7848 55.7868 87.2776 55.5856 86.7643 55.3792C86.5684 56.0309 86.3785 56.6878 86.1881 57.3391C86.1135 57.604 86.0657 57.7823 86.0453 57.8797C85.6837 57.7343 85.3221 57.5888 84.9605 57.4434C84.993 57.3564 85.0519 57.1772 85.1266 56.9123C85.3165 56.2554 85.5068 55.6041 85.7023 54.9468C85.2184 54.7549 84.7345 54.5631 84.2502 54.3656C83.8942 54.2197 83.6557 54.132 83.5456 54.0958C83.6429 53.7615 83.7458 53.4268 83.8487 53.0921C83.9546 53.1455 84.1879 53.2393 84.5439 53.3852C85.0278 53.577 85.5117 53.7689 85.996 53.9664C86.1527 53.4585 86.3094 52.9506 86.4718 52.4423C86.5166 52.2979 86.5563 52.1597 86.5913 52.033C87.1292 52.2656 87.4861 52.4226 87.6676 52.5037C87.6342 52.5796 87.5932 52.7011 87.5389 52.8686C87.3766 53.377 87.2199 53.8849 87.0632 54.3927C87.5713 54.6052 88.0845 54.8115 88.5918 55.0128Z" fill="#C2996B"/>
<path id="Vector_12" d="M87.6259 59.7787C87.3457 60.7862 87.0711 61.7932 86.8025 62.8054C86.7731 62.9315 86.7438 63.0577 86.7144 63.1839C86.3994 63.0573 86.0789 62.9311 85.7639 62.8044C85.7852 62.7183 85.8121 62.6317 85.8334 62.5456C85.4835 62.4048 85.1279 62.2646 84.7779 62.1239C84.6611 62.5666 84.5448 63.015 84.428 63.4578C84.3883 63.596 84.356 63.7562 84.319 63.928C84.0041 63.8014 83.6952 63.6799 83.3802 63.5532C83.4345 63.3857 83.4789 63.2358 83.5125 63.0923C83.6288 62.644 83.7456 62.2012 83.8624 61.7585C83.5185 61.6229 83.1742 61.4817 82.8303 61.3461C82.809 61.4323 82.7877 61.5184 82.7608 61.605C82.4458 61.4784 82.1309 61.3517 81.8159 61.2251C81.8565 61.098 81.8923 60.9825 81.9222 60.8619C82.1903 59.8442 82.4645 58.8316 82.7447 57.8241C82.7924 57.6458 82.8274 57.5192 82.8332 57.4512C84.4659 58.1022 86.1047 58.7585 87.7374 59.4095C87.7019 59.5306 87.6609 59.6521 87.6259 59.7787ZM83.0468 60.5295C83.3907 60.6651 83.7351 60.8063 84.079 60.9418C84.1314 60.7519 84.1783 60.5624 84.2308 60.3724C83.8869 60.2369 83.5425 60.0957 83.1986 59.9601C83.1461 60.1501 83.0937 60.34 83.0468 60.5295ZM84.9889 61.3077C85.3388 61.4484 85.6944 61.5887 86.0444 61.7294C86.0968 61.5394 86.1437 61.3499 86.1961 61.16C85.8462 61.0193 85.4906 60.879 85.1407 60.7383C85.0938 60.9278 85.0413 61.1177 84.9889 61.3077ZM84.5877 59.0549C84.2438 58.9193 83.8994 58.7781 83.5555 58.6426C83.5078 58.8209 83.4544 58.9996 83.4066 59.178C83.7505 59.3135 84.0949 59.4547 84.4388 59.5903C84.4866 59.412 84.5399 59.2332 84.5877 59.0549ZM86.5586 59.842C86.2087 59.7013 85.8531 59.561 85.5032 59.4203C85.4554 59.5986 85.402 59.7774 85.3543 59.9557C85.7043 60.0964 86.0598 60.2367 86.4098 60.3774C86.4631 60.1986 86.5109 60.0203 86.5586 59.842Z" fill="#C2996B"/>
<path id="Vector_13" d="M85.2413 67.4617C85.5679 67.593 85.7891 67.6766 85.8937 67.7132C85.8217 68.0116 85.7493 68.3045 85.6717 68.6034C85.5719 68.5552 85.3559 68.4656 85.0236 68.3347C84.5748 68.1569 84.1198 67.974 83.6709 67.7962C83.6375 68.0127 83.5981 68.2242 83.547 68.4309C83.4073 69.0106 83.1828 69.3776 82.8688 69.5435C82.5548 69.7095 82.1293 69.6818 81.5754 69.4618C81.4294 69.4003 81.2829 69.3333 81.1312 69.2723C81.1238 69.1097 81.0773 68.742 81.009 68.1734C81.245 68.3008 81.4619 68.4015 81.6542 68.4761C81.8002 68.5375 81.9216 68.5728 82.0136 68.5936C82.1051 68.6087 82.1841 68.608 82.2435 68.5751C82.309 68.5473 82.3657 68.4808 82.4146 68.3868C82.4635 68.2929 82.5088 68.1541 82.5561 67.9702C82.5646 67.9358 82.5812 67.8613 82.6068 67.7579C82.6323 67.6546 82.6565 67.5344 82.6738 67.3979C82.0616 67.1545 81.4433 66.9059 80.8311 66.6624C80.4989 66.5316 80.2772 66.4424 80.1675 66.4119C80.2395 66.1134 80.3119 65.8205 80.3839 65.5221C80.4893 65.5699 80.7109 65.659 81.0432 65.7899C81.5798 66.0057 82.1159 66.2158 82.6469 66.432C82.6207 66.316 82.5832 66.2008 82.5354 66.0977C82.4871 65.989 82.4342 65.892 82.37 65.7958C82.6558 65.8404 82.9476 65.8901 83.2334 65.9346C83.584 65.8727 83.9104 65.7902 84.2177 65.681C83.4305 65.3672 82.6433 65.0534 81.8505 64.74C81.6172 64.6462 81.46 64.5857 81.3792 64.5641C81.4516 64.2712 81.5296 63.9779 81.6016 63.6794C81.6781 63.7183 81.8358 63.7844 82.0691 63.8782C83.1013 64.2906 84.1334 64.7029 85.1712 65.1147C85.1927 65.1017 85.2147 65.0944 85.2418 65.0809C85.3865 65.2663 85.5196 65.4469 85.6298 65.6238C85.7399 65.8007 85.8115 65.9188 85.8501 65.9776C85.8108 65.9807 85.7492 65.9857 85.6758 65.9859C85.4544 66.1107 85.1597 66.2357 84.7921 66.3665C84.4244 66.4974 84.0326 66.6077 83.6272 66.6909C83.6364 66.7352 83.6456 66.7795 83.6548 66.8238C84.1858 67.04 84.7164 67.2506 85.2413 67.4617Z" fill="#C2996B"/>
<path id="Vector_14" d="M83.6818 74.7458C83.7319 74.8769 83.7954 75.035 83.884 75.2249C83.9726 75.4147 84.0465 75.5608 84.1059 75.6685C84.038 75.8766 83.9734 76.0563 83.9005 76.2029C83.8281 76.355 83.753 76.4736 83.6639 76.5596C83.581 76.6507 83.4841 76.7091 83.3784 76.7289C83.2728 76.7486 83.1588 76.7353 83.0365 76.6888C82.681 76.5485 82.4427 76.2525 82.3101 75.796C82.1627 75.8585 82.0088 75.9103 81.8428 75.9518C81.6768 75.9933 81.5207 76.0171 81.374 76.0176C81.359 75.9006 81.3249 75.757 81.2773 75.5864C81.2483 75.5774 81.1909 75.5652 81.0929 75.5393C81.0005 75.513 80.6947 75.4306 80.1864 75.2857C79.6724 75.1413 79.1809 74.9951 78.7184 74.8578C78.5975 74.8281 78.4765 74.7984 78.3496 74.7636C78.385 74.5019 78.4152 74.2462 78.4506 73.9844C78.5621 74.0374 78.7137 74.0984 78.8939 74.1627C79.1142 74.235 79.271 74.2899 79.3634 74.3163C79.38 74.2418 79.3966 74.1673 79.4132 74.0928C79.2559 74.0323 79.0982 73.9661 78.941 73.9056C78.8654 73.8779 78.7898 73.8502 78.7142 73.8225C78.7559 73.6391 78.7975 73.4556 78.8392 73.2722C78.9153 73.3055 78.9853 73.3336 79.0613 73.3669C79.219 73.433 79.3763 73.4935 79.5335 73.554C79.5454 73.4912 79.5634 73.4335 79.5752 73.3706C79.4175 73.3045 79.2603 73.2439 79.103 73.1834C79.0274 73.1557 78.9518 73.128 78.8762 73.1003C78.9179 72.9169 78.9596 72.7334 79.0069 72.5495C79.083 72.5828 79.1529 72.611 79.229 72.6442C79.3867 72.7104 79.544 72.7709 79.7017 72.837C79.714 72.7797 79.7315 72.7164 79.7438 72.6591C79.5866 72.5986 79.4288 72.5325 79.2716 72.472C79.196 72.4443 79.1204 72.4166 79.0448 72.3889C79.0865 72.2054 79.1282 72.022 79.1703 71.8441C79.2464 71.8774 79.3164 71.9055 79.3924 71.9388C79.5501 72.0049 79.7074 72.0655 79.8646 72.126C79.8821 72.0627 79.8935 71.9942 79.911 71.9309C79.806 71.8887 79.7071 71.8516 79.6021 71.8094C79.3222 71.6968 79.1299 71.6222 79.0254 71.5856C79.076 71.3733 79.1262 71.1554 79.1769 70.9431C79.3001 71.0007 79.4111 71.0481 79.5044 71.0856C79.4261 70.8836 79.3565 70.7204 79.2953 70.5902C79.4079 70.5868 79.5088 70.5787 79.5864 70.5612C79.5642 70.4954 79.516 70.3868 79.4482 70.2459C79.3805 70.105 79.3066 69.959 79.2155 69.8087C79.3281 69.8053 79.4506 69.7842 79.5782 69.757C79.711 69.7238 79.8485 69.679 79.9851 69.623C80.1273 69.5665 80.2402 69.4956 80.3357 69.4203C80.5847 69.5692 80.8393 69.7175 81.0884 69.8664C81.0621 69.891 81.0354 69.91 81.0092 69.9346C80.9877 69.9476 80.9722 69.9658 80.9507 69.9788C81.2889 70.1148 81.6272 70.2508 81.9655 70.3868C82.0584 70.4188 82.1517 70.4563 82.2446 70.4882C82.2195 70.5972 82.1939 70.7005 82.1688 70.8095C82.2895 70.766 82.4088 70.7058 82.5268 70.6287C82.6448 70.5517 82.7403 70.4765 82.8074 70.3979C83.0387 70.5369 83.2751 70.6699 83.5064 70.8089C83.4802 70.8335 83.4544 70.8637 83.4282 70.8884C83.4127 70.9065 83.3916 70.9251 83.3761 70.9432C83.8194 71.1214 84.2683 71.2992 84.7116 71.4775C84.8105 71.5145 84.915 71.5512 85.0144 71.5938C84.9723 71.7717 84.9306 71.9551 84.8828 72.1335C84.7835 72.0908 84.6841 72.0481 84.5847 72.0055C84.4387 71.944 84.2875 71.8886 84.1414 71.8272C84.2121 71.9341 84.2828 72.041 84.3539 72.1535C84.0742 72.114 83.7944 72.0746 83.5143 72.0296C83.4359 71.8276 83.3421 71.6438 83.2376 71.4665C83.1265 71.4192 83.0159 71.3774 82.8993 71.3305C82.8459 71.3685 82.7921 71.401 82.7322 71.4283C83.1129 71.6004 83.3181 71.6964 83.354 71.7217C83.3417 71.7789 83.3242 71.8423 83.3119 71.8995C83.2512 72.1971 83.2061 72.409 83.1837 72.5515C83.341 72.612 83.4987 72.6781 83.6503 72.7391C83.5987 72.5181 83.5437 72.3255 83.4853 72.1614C83.6881 72.1563 83.8909 72.1513 84.0876 72.1411C84.2203 72.4569 84.3291 72.7577 84.4025 73.0388C84.4781 73.0665 84.5476 73.0891 84.6228 73.1112C84.5721 73.3235 84.5219 73.5414 84.4713 73.7537C84.3663 73.7115 84.1792 73.6309 83.8992 73.5183C83.6248 73.4053 83.3453 73.2983 83.071 73.1853C83.0013 73.6524 82.9603 74.0553 82.948 74.394C83.0422 74.302 83.136 74.2044 83.234 74.0896C83.3268 73.9808 83.4136 73.8669 83.4896 73.7595C83.5657 73.652 83.6258 73.5572 83.6807 73.4683C83.8806 73.638 84.0805 73.8076 84.2748 73.9778C84.2537 73.9963 84.2382 74.0145 84.2171 74.033C84.0678 74.2814 83.8834 74.5158 83.6818 74.7458ZM80.6329 72.2049C80.4525 72.9793 80.272 73.7536 80.0911 74.5223C80.1663 74.5444 80.241 74.5609 80.3105 74.5835C80.4863 73.8208 80.6672 73.0521 80.8485 72.2889C80.779 72.2664 80.7029 72.2331 80.6329 72.2049ZM81.7754 75.113C81.825 75.0977 81.8965 75.0751 81.984 75.0399C82.0719 75.0103 82.137 74.977 82.1861 74.9561C82.1636 74.3951 82.2097 73.7048 82.33 72.8846C82.0734 72.7814 81.8111 72.6787 81.5545 72.5755C81.5374 72.6444 81.5256 72.7073 81.5085 72.7762C81.6602 72.8372 81.8174 72.8977 81.9691 72.9587C82.0386 72.9812 82.1086 73.0093 82.1726 73.0323C82.1351 73.1986 82.0925 73.3708 82.0551 73.5371C81.9851 73.5089 81.9207 73.4803 81.8507 73.4522C81.6991 73.3912 81.5418 73.3307 81.3902 73.2697C81.3778 73.327 81.3655 73.3843 81.3532 73.4415C81.5048 73.5025 81.6621 73.563 81.8137 73.624C81.8833 73.6466 81.9533 73.6747 82.0172 73.6977C81.9802 73.8695 81.9372 74.0362 81.9002 74.208C81.8302 74.1799 81.7658 74.1513 81.6958 74.1232C81.5442 74.0622 81.3869 74.0017 81.2353 73.9407C81.2234 74.0035 81.2055 74.0613 81.1936 74.1241C81.3452 74.1851 81.5025 74.2456 81.6541 74.3066C81.7237 74.3292 81.7937 74.3573 81.8576 74.3803C81.8202 74.5465 81.7776 74.7188 81.7401 74.885C81.6702 74.8569 81.6058 74.8283 81.5358 74.8002C81.3841 74.7392 81.2269 74.6787 81.0752 74.6177C81.0629 74.675 81.045 74.7327 81.0331 74.7955C81.4313 74.9042 81.6964 74.973 81.8276 74.9906C81.8135 75.0255 81.7947 75.072 81.7754 75.113ZM83.2616 75.8377C83.3139 75.856 83.3706 75.7896 83.4366 75.6267C83.5025 75.4638 83.5809 75.1761 83.6715 74.7579C83.4694 74.9824 83.2487 75.1859 83.0099 75.3739C83.059 75.6345 83.145 75.7908 83.2616 75.8377ZM80.133 71.0407C80.0899 71.0667 80.0356 71.0935 79.9645 71.1218C79.8934 71.15 79.8387 71.1713 79.7947 71.1861C79.993 71.2658 80.1853 71.3404 80.3836 71.4201C80.2925 71.2699 80.2032 71.142 80.133 71.0407ZM80.6052 71.5093C80.7396 71.566 80.8791 71.6167 81.0135 71.6734C80.9639 71.548 80.9083 71.4174 80.8587 71.2919C80.7743 71.3662 80.6896 71.4349 80.6052 71.5093ZM81.2814 71.7757C81.4797 71.8555 81.678 71.9352 81.8763 72.0149C81.7982 71.8861 81.7089 71.7582 81.6088 71.6368C81.4951 71.6966 81.3861 71.7448 81.2814 71.7757ZM81.8831 70.9056C81.877 70.9005 81.8714 70.9009 81.8653 70.8958C81.7314 70.8447 81.597 70.7879 81.4631 70.7368C81.4957 70.7904 81.5226 70.8446 81.5551 70.8982C81.5603 70.8922 81.5598 70.8866 81.565 70.8805C81.7492 70.9952 81.9333 71.1098 82.1119 71.2249C82.0908 71.2435 82.0702 71.2677 82.0491 71.2863C82.0121 71.3174 81.9812 71.3536 81.9442 71.3847C82.0056 71.4473 82.0788 71.5146 82.1528 71.5931C82.2268 71.6716 82.3009 71.75 82.3637 71.8294C82.2634 71.9163 82.1627 71.9975 82.062 72.0788C82.1843 72.1253 82.307 72.1773 82.4293 72.2238C82.475 71.9499 82.5191 71.7269 82.5561 71.5551C82.5604 71.5378 82.5586 71.5155 82.5628 71.4982C82.5137 71.5191 82.4641 71.5343 82.415 71.5551C82.3639 71.4805 82.282 71.3745 82.1637 71.2376C82.0576 71.1111 81.9636 70.9948 81.8831 70.9056ZM80.5714 70.3863C80.5075 70.3633 80.4487 70.3343 80.3848 70.3113C80.3305 70.3382 80.2701 70.3599 80.2159 70.3868C80.3529 70.4771 80.4952 70.5613 80.6322 70.6516C80.6111 70.6702 80.5901 70.6888 80.5746 70.7069C80.5432 70.7376 80.5174 70.7678 80.486 70.7984C80.5531 70.8606 80.6146 70.9232 80.6769 70.997C80.7393 71.0707 80.7952 71.1338 80.8333 71.187C80.9403 71.184 81.0576 71.169 81.1787 71.1311C81.2999 71.0932 81.3977 71.046 81.4661 70.9842C81.233 70.9635 81.0051 70.9368 80.772 70.9161C80.7637 70.883 80.7485 70.8336 80.7267 70.7735C80.7049 70.7133 80.6771 70.648 80.6484 70.5715C80.6196 70.495 80.5923 70.4353 80.5714 70.3863Z" fill="#C2996B"/>
</g>
</g>
</g>
</g>
<defs>
<clipPath id="clip0_452_12434">
<rect width="107" height="133" fill="white" transform="translate(-0.000488281 4.57422) rotate(-4.59601)"/>
</clipPath>
</defs>
</svg>
