<svg width="252" height="250" viewBox="0 0 252 250" fill="none" xmlns="http://www.w3.org/2000/svg">
<g clip-path="url(#clip0_452_5499)">
<path d="M43.9047 235.589C26.0546 217.85 26.0546 188.984 43.9047 171.234L172.305 43.6324C190.155 25.8934 219.202 25.8934 237.063 43.6324C254.924 61.3715 254.913 90.2377 237.063 107.988L108.663 235.589C90.8016 253.328 61.7548 253.328 43.9047 235.589ZM227.262 53.3728C214.815 41.0032 194.553 41.0032 182.106 53.3728L53.706 180.974C41.259 193.344 41.259 213.479 53.706 225.849C66.1531 238.219 86.4144 238.219 98.8615 225.849L227.262 98.2475C239.709 85.8778 239.709 65.7425 227.262 53.3728Z" fill="#BD2027" stroke="#C39A6B" stroke-width="1.5" stroke-miterlimit="10" stroke-linecap="round" stroke-linejoin="round"/>
<path d="M34.1034 225.849C16.2533 208.11 16.2533 179.244 34.1034 161.494L162.503 33.8922C180.354 16.1531 209.4 16.1531 227.262 33.8922C245.123 51.6313 245.112 80.4975 227.262 98.2476L98.8616 225.849C81.0115 243.588 51.9535 243.588 34.1034 225.849ZM217.46 43.6326C205.013 31.263 184.752 31.263 172.305 43.6326L43.9048 171.234C31.4577 183.604 31.4577 203.739 43.9048 216.109C56.3518 228.478 76.6132 228.478 89.0602 216.109L217.46 88.5072C229.907 76.1376 229.907 56.0022 217.46 43.6326Z" fill="#BD2027" stroke="#C39A6B" stroke-width="1.5" stroke-miterlimit="10" stroke-linecap="round" stroke-linejoin="round"/>
<path d="M24.3021 216.109C6.45203 198.37 6.45203 169.504 24.3021 151.753L152.702 24.152C170.552 6.41289 199.599 6.41289 217.46 24.152C235.322 41.891 235.311 70.7572 217.46 88.5074L89.0603 216.109C71.2102 233.848 42.1634 233.848 24.3021 216.109ZM207.659 33.8924C195.212 21.5227 174.951 21.5227 162.504 33.8924L34.1035 161.494C21.6564 173.864 21.6564 193.999 34.1035 206.369C46.5505 218.738 66.8119 218.738 79.259 206.369L207.659 78.767C220.106 66.3974 220.106 46.262 207.659 33.8924Z" fill="#BD2027" stroke="#C39A6B" stroke-width="1.5" stroke-miterlimit="10" stroke-linecap="round" stroke-linejoin="round"/>
<path d="M14.5009 206.369C-3.34924 188.63 -3.34924 159.763 14.5009 142.013L142.901 14.4117C160.762 -3.32735 189.809 -3.32735 207.659 14.4117C225.509 32.1508 225.509 61.017 207.659 78.7672L79.2591 206.369C61.409 224.108 32.3621 224.108 14.5009 206.369ZM197.858 24.1521C185.411 11.7825 165.149 11.7825 152.702 24.1521L24.3022 151.754C11.8552 164.123 11.8552 184.259 24.3022 196.628C36.7493 208.998 57.0106 208.998 69.4577 196.628L197.858 69.0268C210.305 56.6571 210.305 36.5329 197.858 24.1521Z" fill="#BD2027" stroke="#C39A6B" stroke-width="1.5" stroke-miterlimit="10" stroke-linecap="round" stroke-linejoin="round"/>
<path d="M180.074 154.549C177.373 151.864 177.373 147.504 180.074 144.808C213.319 111.771 243.761 116.131 245.034 116.331C248.818 116.93 251.386 120.457 250.794 124.207C250.191 127.946 246.675 130.497 242.913 129.932C241.796 129.776 217.739 126.836 189.876 154.538C187.174 157.234 182.787 157.234 180.074 154.549Z" fill="#BD2027" stroke="#C39A6B" stroke-width="1.5" stroke-miterlimit="10" stroke-linecap="round" stroke-linejoin="round"/>
<path d="M179.907 164.112L81.4802 66.3086C78.7787 63.6239 78.7787 59.264 81.4802 56.5682C84.1818 53.8835 88.5689 53.8835 91.2816 56.5682L189.697 154.372C192.399 157.056 192.399 161.416 189.697 164.112C186.996 166.808 182.608 166.808 179.907 164.112Z" fill="#BD2027" stroke="#C39A6B" stroke-width="1.5" stroke-miterlimit="10" stroke-linecap="round" stroke-linejoin="round"/>
<path d="M170.106 173.852L71.6902 76.0489C68.9887 73.3642 68.9887 69.0043 71.6902 66.3085C74.3917 63.6237 78.7789 63.6237 81.4916 66.3085L179.907 164.112C182.609 166.797 182.609 171.156 179.907 173.852C177.194 176.537 172.807 176.537 170.106 173.852Z" fill="#BD2027" stroke="#C39A6B" stroke-width="1.5" stroke-miterlimit="10" stroke-linecap="round" stroke-linejoin="round"/>
<path d="M160.304 183.593L61.8889 85.7891C59.1874 83.1044 59.1874 78.7445 61.8889 76.0487C64.5904 73.364 68.9776 73.364 71.6903 76.0487L170.106 173.852C172.807 176.537 172.807 180.897 170.106 183.593C167.393 186.277 163.006 186.277 160.304 183.593Z" fill="#BD2027" stroke="#C39A6B" stroke-width="1.5" stroke-miterlimit="10" stroke-linecap="round" stroke-linejoin="round"/>
<path d="M150.503 193.333L111.085 154.16C108.384 151.475 108.384 147.116 111.085 144.42C113.787 141.735 118.174 141.735 120.887 144.42L160.304 183.592C163.006 186.277 163.006 190.637 160.304 193.333C157.603 196.028 153.204 196.017 150.503 193.333Z" fill="#BD2027" stroke="#C39A6B" stroke-width="1.5" stroke-miterlimit="10" stroke-linecap="round" stroke-linejoin="round"/>
</g>
<defs>
<clipPath id="clip0_452_5499">
<rect width="252" height="250" fill="white" transform="translate(-0.000488281)"/>
</clipPath>
</defs>
</svg>
