<?xml version="1.0" encoding="utf-8"?>
<!-- Generator: Adobe Illustrator 26.3.1, SVG Export Plug-In . SVG Version: 6.00 Build 0)  -->
<svg version="1.1" id="圖層_2" xmlns="http://www.w3.org/2000/svg" xmlns:xlink="http://www.w3.org/1999/xlink" x="0px" y="0px"
	 viewBox="0 0 334 393" style="enable-background:new 0 0 334 393;" xml:space="preserve">
<style type="text/css">
	.st0{clip-path:url(#SVGID_00000172419995880542899960000013727249508028472990_);}
	.st1{fill:#BD2027;stroke:#C39A6B;stroke-width:1.5;stroke-linecap:round;stroke-linejoin:round;stroke-miterlimit:10;}
</style>
<g>
	<defs>
		<rect id="SVGID_1_" x="41.7" y="71.5" width="252" height="250"/>
	</defs>
	<clipPath id="SVGID_00000086691672817847914290000016144833005178974611_">
		<use xlink:href="#SVGID_1_"  style="overflow:visible;"/>
	</clipPath>
	<g style="clip-path:url(#SVGID_00000086691672817847914290000016144833005178974611_);">
		<path class="st1" d="M85.6,307.1c-17.9-17.7-17.9-46.6,0-64.4L214,115.1c17.9-17.7,46.9-17.7,64.8,0c17.9,17.7,17.8,46.6,0,64.4
			L150.4,307.1C132.5,324.8,103.5,324.8,85.6,307.1z M269,124.9c-12.4-12.4-32.7-12.4-45.2,0L95.4,252.5C83,264.8,83,285,95.4,297.3
			c12.4,12.4,32.7,12.4,45.2,0L269,169.7C281.4,157.4,281.4,137.2,269,124.9z"/>
		<path class="st1" d="M75.8,297.3C58,279.6,58,250.7,75.8,233l128.4-127.6c17.9-17.7,46.9-17.7,64.8,0c17.9,17.7,17.9,46.6,0,64.4
			L140.6,297.3C122.7,315.1,93.7,315.1,75.8,297.3z M259.2,115.1c-12.4-12.4-32.7-12.4-45.2,0L85.6,242.7
			c-12.4,12.4-12.4,32.5,0,44.9c12.4,12.4,32.7,12.4,45.2,0L259.2,160C271.6,147.6,271.6,127.5,259.2,115.1z"/>
		<path class="st1" d="M66,287.6c-17.9-17.7-17.9-46.6,0-64.4L194.4,95.7c17.9-17.7,46.9-17.7,64.8,0c17.9,17.7,17.9,46.6,0,64.4
			L130.8,287.6C112.9,305.3,83.9,305.3,66,287.6z M249.4,105.4c-12.4-12.4-32.7-12.4-45.2,0L75.8,233c-12.4,12.4-12.4,32.5,0,44.9
			c12.4,12.4,32.7,12.4,45.2,0l128.4-127.6C261.8,137.9,261.8,117.8,249.4,105.4z"/>
		<path class="st1" d="M56.2,277.9c-17.9-17.7-17.9-46.6,0-64.4L184.6,85.9c17.9-17.7,46.9-17.7,64.8,0c17.9,17.7,17.9,46.6,0,64.4
			L121,277.9C103.1,295.6,74.1,295.6,56.2,277.9z M239.6,95.7c-12.4-12.4-32.7-12.4-45.2,0L66,223.3c-12.4,12.4-12.4,32.5,0,44.9
			c12.4,12.4,32.7,12.4,45.2,0l128.4-127.6C252,128.2,252,108,239.6,95.7z"/>
		<path class="st1" d="M221.8,226c-2.7-2.7-2.7-7,0-9.7c33.2-33,63.7-28.7,65-28.5c3.8,0.6,6.4,4.1,5.8,7.9
			c-0.6,3.7-4.1,6.3-7.9,5.7c-1.1-0.2-25.2-3.1-53,24.6C228.9,228.7,224.5,228.7,221.8,226z"/>
		<path class="st1" d="M221.6,235.6l-98.4-97.8c-2.7-2.7-2.7-7,0-9.7c2.7-2.7,7.1-2.7,9.8,0l98.4,97.8c2.7,2.7,2.7,7,0,9.7
			C228.7,238.3,224.3,238.3,221.6,235.6z"/>
		<path class="st1" d="M211.8,245.4l-98.4-97.8c-2.7-2.7-2.7-7,0-9.7c2.7-2.7,7.1-2.7,9.8,0l98.4,97.8c2.7,2.7,2.7,7,0,9.7
			C218.9,248,214.5,248,211.8,245.4z"/>
		<path class="st1" d="M202,255.1l-98.4-97.8c-2.7-2.7-2.7-7,0-9.7c2.7-2.7,7.1-2.7,9.8,0l98.4,97.8c2.7,2.7,2.7,7,0,9.7
			C209.1,257.8,204.7,257.8,202,255.1z"/>
		<path class="st1" d="M192.2,264.8l-39.4-39.2c-2.7-2.7-2.7-7,0-9.7c2.7-2.7,7.1-2.7,9.8,0l39.4,39.2c2.7,2.7,2.7,7,0,9.7
			C199.3,267.5,194.9,267.5,192.2,264.8z"/>
	</g>
</g>
</svg>
