<svg width="295" height="237" viewBox="0 0 295 237" fill="none" xmlns="http://www.w3.org/2000/svg">
<path d="M235.715 109.615L175.212 15.5759C162.713 -3.85864 134.352 -3.85864 121.841 15.5759L61.8213 108.854L149.442 174.987L235.715 109.615Z" fill="#338973"/>
<mask id="mask0_452_5915" style="mask-type:luminance" maskUnits="userSpaceOnUse" x="61" y="1" width="175" height="174">
<path d="M235.717 109.615L175.213 15.5759C162.715 -3.85864 134.354 -3.85864 121.843 15.5759L61.8232 108.854L149.444 174.987L235.717 109.615Z" fill="white"/>
</mask>
<g mask="url(#mask0_452_5915)">
<path d="M65.6152 -36.3965V294.477" stroke="#C39A6B" stroke-width="1.5" stroke-miterlimit="10" stroke-linecap="round" stroke-linejoin="round"/>
<path d="M75.1309 -36.3965V294.477" stroke="#C39A6B" stroke-width="1.5" stroke-miterlimit="10" stroke-linecap="round" stroke-linejoin="round"/>
<path d="M84.6426 -36.3965V294.477" stroke="#C39A6B" stroke-width="1.5" stroke-miterlimit="10" stroke-linecap="round" stroke-linejoin="round"/>
<path d="M94.1582 -36.3965V294.477" stroke="#C39A6B" stroke-width="1.5" stroke-miterlimit="10" stroke-linecap="round" stroke-linejoin="round"/>
<path d="M103.675 -36.3965V294.477" stroke="#C39A6B" stroke-width="1.5" stroke-miterlimit="10" stroke-linecap="round" stroke-linejoin="round"/>
<path d="M113.188 -36.3965V294.477" stroke="#C39A6B" stroke-width="1.5" stroke-miterlimit="10" stroke-linecap="round" stroke-linejoin="round"/>
<path d="M122.702 -36.3965V294.477" stroke="#C39A6B" stroke-width="1.5" stroke-miterlimit="10" stroke-linecap="round" stroke-linejoin="round"/>
<path d="M132.22 -36.3965V294.477" stroke="#C39A6B" stroke-width="1.5" stroke-miterlimit="10" stroke-linecap="round" stroke-linejoin="round"/>
<path d="M141.732 -36.3965V294.477" stroke="#C39A6B" stroke-width="1.5" stroke-miterlimit="10" stroke-linecap="round" stroke-linejoin="round"/>
<path d="M151.247 -36.3965V294.477" stroke="#C39A6B" stroke-width="1.5" stroke-miterlimit="10" stroke-linecap="round" stroke-linejoin="round"/>
<path d="M160.762 -36.3965V294.477" stroke="#C39A6B" stroke-width="1.5" stroke-miterlimit="10" stroke-linecap="round" stroke-linejoin="round"/>
<path d="M170.276 -36.3965V294.477" stroke="#C39A6B" stroke-width="1.5" stroke-miterlimit="10" stroke-linecap="round" stroke-linejoin="round"/>
<path d="M179.791 -36.3965V294.477" stroke="#C39A6B" stroke-width="1.5" stroke-miterlimit="10" stroke-linecap="round" stroke-linejoin="round"/>
<path d="M189.304 -36.3965V294.477" stroke="#C39A6B" stroke-width="1.5" stroke-miterlimit="10" stroke-linecap="round" stroke-linejoin="round"/>
<path d="M198.821 -36.3965V294.477" stroke="#C39A6B" stroke-width="1.5" stroke-miterlimit="10" stroke-linecap="round" stroke-linejoin="round"/>
<path d="M208.334 -36.3965V294.477" stroke="#C39A6B" stroke-width="1.5" stroke-miterlimit="10" stroke-linecap="round" stroke-linejoin="round"/>
<path d="M217.849 -36.3965V294.477" stroke="#C39A6B" stroke-width="1.5" stroke-miterlimit="10" stroke-linecap="round" stroke-linejoin="round"/>
<path d="M227.365 -36.3965V294.477" stroke="#C39A6B" stroke-width="1.5" stroke-miterlimit="10" stroke-linecap="round" stroke-linejoin="round"/>
</g>
<path d="M235.715 109.615L175.212 15.5759C162.713 -3.85864 134.352 -3.85864 121.841 15.5759L61.8213 108.854L149.442 174.987L235.715 109.615Z" stroke="#C39A6B" stroke-width="1.5" stroke-miterlimit="10" stroke-linecap="round" stroke-linejoin="round"/>
<path d="M150.238 165.058L62.6174 98.9258L61.9369 99.9749L6.11863 186.735C-7.50547 207.901 7.66296 235.781 32.8041 235.781H56.8982H149.309H243.932L150.238 165.058Z" fill="#338973"/>
<mask id="mask1_452_5915" style="mask-type:luminance" maskUnits="userSpaceOnUse" x="1" y="98" width="243" height="138">
<path d="M150.238 165.056L62.6174 98.9238L61.9369 99.9729L6.11863 186.733C-7.50547 207.899 7.66296 235.779 32.8041 235.779H56.8982H149.309H243.932L150.238 165.056Z" fill="white"/>
</mask>
<g mask="url(#mask1_452_5915)">
<path d="M-81.0566 179.141L181.989 379.138" stroke="#C39A6B" stroke-width="1.5" stroke-miterlimit="10" stroke-linecap="round" stroke-linejoin="round"/>
<path d="M-75.3105 171.537L187.749 371.535" stroke="#C39A6B" stroke-width="1.5" stroke-miterlimit="10" stroke-linecap="round" stroke-linejoin="round"/>
<path d="M-69.5518 163.943L193.494 363.941" stroke="#C39A6B" stroke-width="1.5" stroke-miterlimit="10" stroke-linecap="round" stroke-linejoin="round"/>
<path d="M-63.8086 156.352L199.251 356.349" stroke="#C39A6B" stroke-width="1.5" stroke-miterlimit="10" stroke-linecap="round" stroke-linejoin="round"/>
<path d="M-58.0479 148.758L204.998 348.756" stroke="#C39A6B" stroke-width="1.5" stroke-miterlimit="10" stroke-linecap="round" stroke-linejoin="round"/>
<path d="M-52.3037 141.164L210.755 341.162" stroke="#C39A6B" stroke-width="1.5" stroke-miterlimit="10" stroke-linecap="round" stroke-linejoin="round"/>
<path d="M-46.543 133.572L216.503 333.57" stroke="#C39A6B" stroke-width="1.5" stroke-miterlimit="10" stroke-linecap="round" stroke-linejoin="round"/>
<path d="M-40.7998 125.965L222.259 325.963" stroke="#C39A6B" stroke-width="1.5" stroke-miterlimit="10" stroke-linecap="round" stroke-linejoin="round"/>
<path d="M-35.041 118.375L228.005 318.373" stroke="#C39A6B" stroke-width="1.5" stroke-miterlimit="10" stroke-linecap="round" stroke-linejoin="round"/>
<path d="M-29.2949 110.781L233.764 310.779" stroke="#C39A6B" stroke-width="1.5" stroke-miterlimit="10" stroke-linecap="round" stroke-linejoin="round"/>
<path d="M-23.5361 103.186L239.51 303.183" stroke="#C39A6B" stroke-width="1.5" stroke-miterlimit="10" stroke-linecap="round" stroke-linejoin="round"/>
<path d="M-17.791 95.5957L245.255 295.594" stroke="#C39A6B" stroke-width="1.5" stroke-miterlimit="10" stroke-linecap="round" stroke-linejoin="round"/>
<path d="M-12.0342 88.002L251.012 288" stroke="#C39A6B" stroke-width="1.5" stroke-miterlimit="10" stroke-linecap="round" stroke-linejoin="round"/>
<path d="M-6.28613 80.3984L256.76 280.396" stroke="#C39A6B" stroke-width="1.5" stroke-miterlimit="10" stroke-linecap="round" stroke-linejoin="round"/>
<path d="M-0.542969 72.8047L262.516 272.803" stroke="#C39A6B" stroke-width="1.5" stroke-miterlimit="10" stroke-linecap="round" stroke-linejoin="round"/>
<path d="M5.21875 65.209L268.265 265.207" stroke="#C39A6B" stroke-width="1.5" stroke-miterlimit="10" stroke-linecap="round" stroke-linejoin="round"/>
<path d="M10.9619 57.6191L274.021 257.617" stroke="#C39A6B" stroke-width="1.5" stroke-miterlimit="10" stroke-linecap="round" stroke-linejoin="round"/>
<path d="M16.7188 50.0254L279.765 250.023" stroke="#C39A6B" stroke-width="1.5" stroke-miterlimit="10" stroke-linecap="round" stroke-linejoin="round"/>
<path d="M22.4668 42.4297L285.526 242.427" stroke="#C39A6B" stroke-width="1.5" stroke-miterlimit="10" stroke-linecap="round" stroke-linejoin="round"/>
<path d="M28.2227 34.8262L291.269 234.837" stroke="#C39A6B" stroke-width="1.5" stroke-miterlimit="10" stroke-linecap="round" stroke-linejoin="round"/>
<path d="M33.9707 27.2324L297.03 227.23" stroke="#C39A6B" stroke-width="1.5" stroke-miterlimit="10" stroke-linecap="round" stroke-linejoin="round"/>
</g>
<path d="M150.238 165.058L62.6174 98.9258L61.9369 99.9749L6.11863 186.735C-7.50547 207.901 7.66296 235.781 32.8041 235.781H56.8982H149.309H243.932L150.238 165.058Z" stroke="#C39A6B" stroke-width="1.5" stroke-miterlimit="10" stroke-linecap="round" stroke-linejoin="round"/>
<path d="M288.941 183.955L233.123 97.1942L232.927 96.8926L146.667 162.278L240.374 233H262.256C287.397 233 302.565 205.12 288.941 183.955Z" fill="#47B990"/>
<mask id="mask2_452_5915" style="mask-type:luminance" maskUnits="userSpaceOnUse" x="146" y="96" width="149" height="137">
<path d="M288.941 183.953L233.123 97.1922L232.927 96.8906L146.667 162.276L240.374 232.998H262.256C287.397 232.998 302.565 205.118 288.941 183.953Z" fill="white"/>
</mask>
<g mask="url(#mask2_452_5915)">
<path d="M250.571 34.1797L-12.5537 234.086" stroke="#C39A6B" stroke-width="1.5" stroke-miterlimit="10" stroke-linecap="round" stroke-linejoin="round"/>
<path d="M256.317 41.7832L-6.80762 241.676" stroke="#C39A6B" stroke-width="1.5" stroke-miterlimit="10" stroke-linecap="round" stroke-linejoin="round"/>
<path d="M262.075 49.377L-1.0625 249.27" stroke="#C39A6B" stroke-width="1.5" stroke-miterlimit="10" stroke-linecap="round" stroke-linejoin="round"/>
<path d="M267.819 56.9727L4.69434 256.879" stroke="#C39A6B" stroke-width="1.5" stroke-miterlimit="10" stroke-linecap="round" stroke-linejoin="round"/>
<path d="M273.565 64.5742L10.4404 264.467" stroke="#C39A6B" stroke-width="1.5" stroke-miterlimit="10" stroke-linecap="round" stroke-linejoin="round"/>
<path d="M279.312 72.1699L16.1875 272.063" stroke="#C39A6B" stroke-width="1.5" stroke-miterlimit="10" stroke-linecap="round" stroke-linejoin="round"/>
<path d="M285.069 79.7637L21.9316 279.67" stroke="#C39A6B" stroke-width="1.5" stroke-miterlimit="10" stroke-linecap="round" stroke-linejoin="round"/>
<path d="M290.815 87.3672L27.6904 287.26" stroke="#C39A6B" stroke-width="1.5" stroke-miterlimit="10" stroke-linecap="round" stroke-linejoin="round"/>
<path d="M296.561 94.9609L33.4365 294.854" stroke="#C39A6B" stroke-width="1.5" stroke-miterlimit="10" stroke-linecap="round" stroke-linejoin="round"/>
<path d="M302.306 102.553L39.1816 302.459" stroke="#C39A6B" stroke-width="1.5" stroke-miterlimit="10" stroke-linecap="round" stroke-linejoin="round"/>
<path d="M308.063 110.16L44.9258 310.053" stroke="#C39A6B" stroke-width="1.5" stroke-miterlimit="10" stroke-linecap="round" stroke-linejoin="round"/>
<path d="M313.81 117.754L50.6729 317.647" stroke="#C39A6B" stroke-width="1.5" stroke-miterlimit="10" stroke-linecap="round" stroke-linejoin="round"/>
<path d="M319.554 125.344L56.4297 325.25" stroke="#C39A6B" stroke-width="1.5" stroke-miterlimit="10" stroke-linecap="round" stroke-linejoin="round"/>
<path d="M325.3 132.951L62.1758 332.844" stroke="#C39A6B" stroke-width="1.5" stroke-miterlimit="10" stroke-linecap="round" stroke-linejoin="round"/>
<path d="M331.045 140.547L67.9209 340.44" stroke="#C39A6B" stroke-width="1.5" stroke-miterlimit="10" stroke-linecap="round" stroke-linejoin="round"/>
<path d="M336.805 148.137L73.667 348.043" stroke="#C39A6B" stroke-width="1.5" stroke-miterlimit="10" stroke-linecap="round" stroke-linejoin="round"/>
<path d="M342.55 155.744L79.4258 355.637" stroke="#C39A6B" stroke-width="1.5" stroke-miterlimit="10" stroke-linecap="round" stroke-linejoin="round"/>
<path d="M348.296 163.338L85.1719 363.231" stroke="#C39A6B" stroke-width="1.5" stroke-miterlimit="10" stroke-linecap="round" stroke-linejoin="round"/>
<path d="M354.04 170.93L90.915 370.836" stroke="#C39A6B" stroke-width="1.5" stroke-miterlimit="10" stroke-linecap="round" stroke-linejoin="round"/>
<path d="M359.799 178.537L96.6611 378.43" stroke="#C39A6B" stroke-width="1.5" stroke-miterlimit="10" stroke-linecap="round" stroke-linejoin="round"/>
<path d="M365.544 186.131L102.42 386.024" stroke="#C39A6B" stroke-width="1.5" stroke-miterlimit="10" stroke-linecap="round" stroke-linejoin="round"/>
</g>
<path d="M288.941 183.955L233.123 97.1942L232.927 96.8926L146.667 162.278L240.374 233H262.256C287.397 233 302.565 205.12 288.941 183.955Z" stroke="#C39A6B" stroke-width="1.5" stroke-miterlimit="10" stroke-linecap="round" stroke-linejoin="round"/>
</svg>
