<?xml version="1.0" encoding="utf-8"?>
<!-- Generator: Adobe Illustrator 26.3.1, SVG Export Plug-In . SVG Version: 6.00 Build 0)  -->
<svg version="1.1" id="圖層_1" xmlns="http://www.w3.org/2000/svg" xmlns:xlink="http://www.w3.org/1999/xlink" x="0px" y="0px"
	 viewBox="0 0 1538.1 401" style="enable-background:new 0 0 1538.1 401;" xml:space="preserve">
<style type="text/css">
	.st0{fill:#431D31;stroke:#C39A6B;stroke-width:3;stroke-miterlimit:10;}
	.st1{fill:#C39A6B;stroke:#C39A6B;stroke-width:3;stroke-miterlimit:10;}
	.st2{fill:#FE6830;stroke:#C39A6B;stroke-width:3;stroke-miterlimit:10;}
	.st3{fill:#BD2027;stroke:#C39A6B;stroke-width:3;stroke-miterlimit:10;}
	.st4{fill:#B63C90;stroke:#C39A6B;stroke-width:3;stroke-miterlimit:10;}
	.st5{fill:#E4007E;stroke:#C39A6B;stroke-width:3;stroke-miterlimit:10;}
	.st6{fill:#F477A0;stroke:#C39A6B;stroke-width:3;stroke-miterlimit:10;}
	.st7{fill:#338973;stroke:#C39A6B;stroke-width:3;stroke-miterlimit:10;}
</style>
<g>
	<path class="st0" d="M1465.6,308.5l-91.1,1.7v-29.8l-174.5-67l-3.7-36l-3.7-36l0,0l0,0l-423.5,27.4l-423.5-27.4l0,0h0l-3.7,36
		l-3.7,36l-174.5,67v29.8l-91.1-1.7l12.4,36.2l1,0.3l0.7,0.2v2.4c0,6.6,5.4,12,12,12h3c5.1,0,9.4-3.2,11.2-7.7l23,5.9
		c-0.1,0.6-0.1,1.2-0.1,1.8v1c0,6.6,5.4,12,12,12h1c5.4,0,10-3.6,11.5-8.5l29.5,7.6v1.9c0,6.6,5.4,12,12,12h4c4.8,0,9-2.9,10.9-7
		h24.6c1.5,5.2,6.3,9,12,9s10.5-3.8,12-9H293c0.3,6.1,5.3,11,11.5,11s11.2-4.9,11.5-11h25.2c-0.1,0.7-0.2,1.3-0.2,2
		c0,7.2,5.8,13,13,13s13-5.8,13-13c0-0.7-0.1-1.3-0.2-2H396c0,6.1,4.9,11,11,11s11-4.9,11-11h30.9c1.8,4.1,5.8,7,10.6,7
		s8.8-2.9,10.6-7H496c0,7.2,5.8,13,13,13s13-5.8,13-13h27c0,7.2,5.8,13,13,13s13-5.8,13-13h27c0,7.2,5.8,13,13,13s13-5.8,13-13h27
		c0,7.2,5.8,13,13,13s13-5.8,13-13h27c0,7.2,5.8,13,13,13s13-5.8,13-13h17.5c0,7.2,5.8,13,13,13c1.7,0,3.3-0.3,4.8-0.9
		c1.5,0.6,3.1,0.9,4.8,0.9c7.2,0,13-5.8,13-13h17.5c0,7.2,5.8,13,13,13s13-5.8,13-13h27c0,7.2,5.8,13,13,13s13-5.8,13-13h27
		c0,7.2,5.8,13,13,13s13-5.8,13-13h27c0,7.2,5.8,13,13,13s13-5.8,13-13h27c0,7.2,5.8,13,13,13s13-5.8,13-13h25.9
		c1.8,4.1,5.8,7,10.6,7s8.8-2.9,10.6-7h30.9c0,6.1,4.9,11,11,11s11-4.9,11-11h29.2c-0.1,0.7-0.2,1.3-0.2,2c0,7.2,5.8,13,13,13
		s13-5.8,13-13c0-0.7-0.1-1.3-0.2-2h25.2c0.3,6.1,5.3,11,11.5,11s11.2-4.9,11.5-11h27.5c1.5,5.2,6.3,9,12,9s10.5-3.8,12-9h24.6
		c1.9,4.1,6.1,7,10.9,7h4c6.6,0,12-5.4,12-12v-1.9l29.5-7.6c1.5,4.9,6.1,8.5,11.5,8.5h1c6.6,0,12-5.4,12-12v-1
		c0-0.6-0.1-1.2-0.1-1.8l23-5.9c1.8,4.5,6.1,7.7,11.2,7.7h3c6.6,0,12-5.4,12-12v-2.4l0.7-0.2l1-0.3L1465.6,308.5z"/>
	<g>
		<line class="st0" x1="761.4" y1="193.7" x2="761.4" y2="367.8"/>
		<line class="st0" x1="748.4" y1="193.7" x2="748.4" y2="367.8"/>
		<line class="st0" x1="735.4" y1="193.7" x2="735.4" y2="367.8"/>
		<line class="st0" x1="722.4" y1="193.7" x2="722.4" y2="367.8"/>
		<line class="st0" x1="709.4" y1="193.7" x2="709.4" y2="367.8"/>
		<line class="st0" x1="696.4" y1="193.7" x2="696.4" y2="367.8"/>
		<line class="st0" x1="683.4" y1="193.7" x2="683.4" y2="367.8"/>
		<line class="st0" x1="670.4" y1="155.7" x2="670.4" y2="367.8"/>
		<line class="st0" x1="657.4" y1="155.7" x2="657.4" y2="367.8"/>
		<line class="st0" x1="644.4" y1="155.7" x2="644.4" y2="367.8"/>
		<line class="st0" x1="631.4" y1="155.7" x2="631.4" y2="367.8"/>
		<line class="st0" x1="618.4" y1="155.7" x2="618.4" y2="367.8"/>
		<line class="st0" x1="605.4" y1="155.7" x2="605.4" y2="367.8"/>
		<line class="st0" x1="592.4" y1="155.7" x2="592.4" y2="367.8"/>
		<line class="st0" x1="579.4" y1="155.7" x2="579.4" y2="367.8"/>
		<line class="st0" x1="566.4" y1="155.7" x2="566.4" y2="367.8"/>
		<line class="st0" x1="553.4" y1="155.7" x2="553.4" y2="367.8"/>
		<line class="st0" x1="540.4" y1="155.7" x2="540.4" y2="367.8"/>
		<line class="st0" x1="527.4" y1="155.7" x2="527.4" y2="367.8"/>
		<line class="st0" x1="514.4" y1="155.7" x2="514.4" y2="367.8"/>
		<line class="st0" x1="501.4" y1="155.7" x2="501.4" y2="367.8"/>
		<line class="st0" x1="488.4" y1="155.7" x2="488.4" y2="367.8"/>
		<line class="st0" x1="475.4" y1="155.7" x2="475.4" y2="367.8"/>
		<line class="st0" x1="462.4" y1="155.7" x2="462.4" y2="367.8"/>
		<line class="st0" x1="449.4" y1="155.7" x2="449.4" y2="367.8"/>
		<line class="st0" x1="436.4" y1="155.7" x2="436.4" y2="367.8"/>
		<line class="st0" x1="423.4" y1="155.7" x2="423.4" y2="367.8"/>
		<line class="st0" x1="410.4" y1="155.7" x2="410.4" y2="367.8"/>
		<line class="st0" x1="397.4" y1="155.7" x2="397.4" y2="367.8"/>
		<line class="st0" x1="384.4" y1="155.7" x2="384.4" y2="367.8"/>
		<line class="st0" x1="371.4" y1="155.7" x2="371.4" y2="367.8"/>
		<line class="st0" x1="358.4" y1="155.7" x2="358.4" y2="367.8"/>
		<line class="st0" x1="345.4" y1="276" x2="345.4" y2="367.8"/>
		<line class="st0" x1="332.4" y1="193.7" x2="332.4" y2="367.8"/>
		<line class="st0" x1="319.4" y1="232.7" x2="319.4" y2="367.8"/>
		<line class="st0" x1="306.4" y1="232.7" x2="306.4" y2="367.8"/>
		<line class="st0" x1="293.4" y1="240.7" x2="293.4" y2="367.8"/>
		<line class="st0" x1="280.4" y1="240.7" x2="280.4" y2="367.8"/>
		<line class="st0" x1="267.4" y1="240.7" x2="267.4" y2="367.8"/>
		<line class="st0" x1="254.4" y1="240.7" x2="254.4" y2="367.8"/>
		<line class="st0" x1="241.4" y1="252.7" x2="241.4" y2="367.8"/>
		<line class="st0" x1="228.4" y1="252.7" x2="228.4" y2="367.8"/>
		<line class="st0" x1="215.4" y1="252.7" x2="215.4" y2="367.8"/>
		<line class="st0" x1="202.4" y1="252.7" x2="202.4" y2="367.8"/>
		<line class="st0" x1="189.4" y1="252.7" x2="189.4" y2="367.8"/>
		<line class="st0" x1="176.4" y1="252.7" x2="176.4" y2="351"/>
		<line class="st0" x1="1374.1" y1="308.5" x2="1374.1" y2="280.5"/>
		<line class="st0" x1="776.7" y1="193.7" x2="776.7" y2="367.8"/>
		<line class="st0" x1="789.7" y1="193.7" x2="789.7" y2="367.8"/>
		<line class="st0" x1="802.7" y1="193.7" x2="802.7" y2="367.8"/>
		<line class="st0" x1="815.7" y1="193.7" x2="815.7" y2="367.8"/>
		<line class="st0" x1="828.7" y1="193.7" x2="828.7" y2="367.8"/>
		<line class="st0" x1="841.7" y1="193.7" x2="841.7" y2="367.8"/>
		<line class="st0" x1="854.7" y1="193.7" x2="854.7" y2="367.8"/>
		<line class="st0" x1="867.7" y1="155.7" x2="867.7" y2="367.8"/>
		<line class="st0" x1="880.7" y1="155.7" x2="880.7" y2="367.8"/>
		<line class="st0" x1="893.7" y1="155.7" x2="893.7" y2="367.8"/>
		<line class="st0" x1="906.7" y1="155.7" x2="906.7" y2="367.8"/>
		<line class="st0" x1="919.7" y1="155.7" x2="919.7" y2="367.8"/>
		<line class="st0" x1="932.7" y1="155.7" x2="932.7" y2="367.8"/>
		<line class="st0" x1="945.7" y1="155.7" x2="945.7" y2="367.8"/>
		<line class="st0" x1="958.7" y1="155.7" x2="958.7" y2="367.8"/>
		<line class="st0" x1="971.7" y1="155.7" x2="971.7" y2="367.8"/>
		<line class="st0" x1="984.7" y1="155.7" x2="984.7" y2="367.8"/>
		<line class="st0" x1="997.7" y1="155.7" x2="997.7" y2="367.8"/>
		<line class="st0" x1="1010.7" y1="155.7" x2="1010.7" y2="367.8"/>
		<line class="st0" x1="1023.7" y1="155.7" x2="1023.7" y2="367.8"/>
		<line class="st0" x1="1036.7" y1="155.7" x2="1036.7" y2="367.8"/>
		<line class="st0" x1="1049.7" y1="155.7" x2="1049.7" y2="367.8"/>
		<line class="st0" x1="1062.7" y1="155.7" x2="1062.7" y2="367.8"/>
		<line class="st0" x1="1075.7" y1="155.7" x2="1075.7" y2="367.8"/>
		<line class="st0" x1="1088.7" y1="155.7" x2="1088.7" y2="367.8"/>
		<line class="st0" x1="1101.7" y1="155.7" x2="1101.7" y2="367.8"/>
		<line class="st0" x1="1114.7" y1="155.7" x2="1114.7" y2="367.8"/>
		<line class="st0" x1="1127.7" y1="155.7" x2="1127.7" y2="367.8"/>
		<line class="st0" x1="1140.7" y1="155.7" x2="1140.7" y2="367.8"/>
		<line class="st0" x1="1153.7" y1="155.7" x2="1153.7" y2="367.8"/>
		<line class="st0" x1="1166.7" y1="155.7" x2="1166.7" y2="367.8"/>
		<line class="st0" x1="1179.7" y1="155.7" x2="1179.7" y2="367.8"/>
		<line class="st0" x1="1192.7" y1="276" x2="1192.7" y2="367.8"/>
		<line class="st0" x1="1205.7" y1="193.7" x2="1205.7" y2="367.8"/>
		<line class="st0" x1="1218.7" y1="232.7" x2="1218.7" y2="367.8"/>
		<line class="st0" x1="1231.7" y1="232.7" x2="1231.7" y2="367.8"/>
		<line class="st0" x1="1244.7" y1="240.7" x2="1244.7" y2="367.8"/>
		<line class="st0" x1="1257.7" y1="240.7" x2="1257.7" y2="367.8"/>
		<line class="st0" x1="1270.7" y1="240.7" x2="1270.7" y2="367.8"/>
		<line class="st0" x1="1283.7" y1="240.7" x2="1283.7" y2="367.8"/>
		<line class="st0" x1="1296.7" y1="252.7" x2="1296.7" y2="367.8"/>
		<line class="st0" x1="1309.7" y1="252.7" x2="1309.7" y2="367.8"/>
		<line class="st0" x1="1322.7" y1="252.7" x2="1322.7" y2="367.8"/>
		<line class="st0" x1="1335.7" y1="252.7" x2="1335.7" y2="367.8"/>
		<line class="st0" x1="1348.7" y1="252.7" x2="1348.7" y2="367.8"/>
		<line class="st0" x1="1361.7" y1="252.7" x2="1361.7" y2="351"/>
		<line class="st0" x1="164" y1="308.5" x2="164" y2="280.5"/>
	</g>
	<path class="st1" d="M356.5,87.2c0-11.3-10-16.7-10-16.7s7-2,7-9s-9-8.9-9-8.9c0-16.9-22.5-21.6-22.5-21.6l-5.8-6.2
		c-3.3-3.5-4.3-8.5-3-13.2c0.3-1,0.4-2.1,0.2-3.3c-0.5-3.6-3.4-6.4-7-6.8c-5.3-0.6-9.7,4-8.8,9.3c0.5,3.1,2.8,5.6,5.8,6.4
		c0,0,0.1,0,0.1,0c3.6,0.9,6.8,3.1,8.7,6.3l17.9,30.2c4.2,7.1,6.4,15.1,6.4,23.3v21.5l29,10.2C369.4,94.9,356.5,87.2,356.5,87.2z"/>
	<path class="st1" d="M1181.6,87.2c0-11.3,10-16.7,10-16.7s-7-2-7-9s9-8.9,9-8.9c0-16.9,22.5-21.6,22.5-21.6l5.8-6.2
		c3.3-3.5,4.3-8.5,3-13.2c-0.3-1-0.4-2.1-0.2-3.3c0.5-3.6,3.4-6.4,7-6.8c5.3-0.6,9.7,4,8.8,9.3c-0.5,3.1-2.8,5.6-5.8,6.4
		c0,0-0.1,0-0.1,0c-3.6,0.9-6.8,3.1-8.7,6.3L1208,53.7c-4.2,7.1-6.4,15.1-6.4,23.3v21.5l-29,10.2
		C1168.7,94.9,1181.6,87.2,1181.6,87.2z"/>
	<rect x="332.5" y="92.5" class="st0" width="24" height="204"/>
	<path class="st0" d="M725.7,380"/>
	<path class="st0" d="M690.2,353.5c-12.7,0-23,10.3-23,23v1.5h15v-1.5c0-4.4,3.6-8,8-8s8,3.6,8,8v1.5h15v-1.5
		C713.2,363.8,702.9,353.5,690.2,353.5z"/>
	<path class="st0" d="M638.7,353.5c-12.7,0-23,10.3-23,23v1.5h15v-1.5c0-4.4,3.6-8,8-8s8,3.6,8,8v1.5h15v-1.5
		C661.7,363.8,651.3,353.5,638.7,353.5z"/>
	<path class="st0" d="M587.1,353.5c-12.7,0-23,10.3-23,23v1.5h15v-1.5c0-4.4,3.6-8,8-8s8,3.6,8,8v1.5h15v-1.5
		C610.1,363.8,599.8,353.5,587.1,353.5z"/>
	<path class="st0" d="M535.6,353.5c-12.7,0-23,10.3-23,23v1.5h15v-1.5c0-4.4,3.6-8,8-8s8,3.6,8,8v1.5h15v-1.5
		C558.6,363.8,548.2,353.5,535.6,353.5z"/>
	<path class="st0" d="M484,353.5c-12.7,0-23,10.3-23,23v1.5h15v-1.5c0-4.4,3.6-8,8-8s8,3.6,8,8v1.5h15v-1.5
		C507,363.8,496.7,353.5,484,353.5z"/>
	<path class="st0" d="M432.4,353.5c-12.7,0-23,10.3-23,23v1.5h15v-1.5c0-4.4,3.6-8,8-8s8,3.6,8,8v1.5h15v-1.5
		C455.4,363.8,445.1,353.5,432.4,353.5z"/>
	<path class="st0" d="M380.9,353.5c-12.7,0-23,10.3-23,23v1.5h15v-1.5c0-4.4,3.6-8,8-8s8,3.6,8,8v1.5h15v-1.5
		C403.9,363.8,393.6,353.5,380.9,353.5z"/>
	<path class="st0" d="M329.3,353.5c-12.7,0-23,10.3-23,23v1.5h15v-1.5c0-4.4,3.6-8,8-8s8,3.6,8,8v1.5h15v-1.5
		C352.3,363.8,342,353.5,329.3,353.5z"/>
	<path class="st0" d="M277.8,353.5c-12.7,0-23,10.3-23,23v1.5h15v-1.5c0-4.4,3.6-8,8-8s8,3.6,8,8v1.5h15v-1.5
		C300.8,363.8,290.5,353.5,277.8,353.5z"/>
	<path class="st0" d="M224.5,354c-12.7,0-23,10.3-23,23v1.5h15V377c0-4.4,3.6-8,8-8s8,3.6,8,8v1.5h15V377
		C247.5,364.3,237.2,354,224.5,354z"/>
	<path class="st0" d="M723,378.5l-0.4,0.4c-1.8,1.7-4.6,3.9-6.5,5.1c-1.9-1.2-4.7-3.3-6.5-5.1l-0.4-0.4h-15.3v1.5
		c0,2.7,1,6.6,9.1,13c5.5,4.4,9.8,6.5,13.2,6.5s7.6-2.1,13.2-6.5c8.1-6.4,9.1-10.3,9.1-13v-1.5H723z"/>
	<path class="st0" d="M671.4,378.5l-0.4,0.4c-1.8,1.7-4.6,3.9-6.5,5.1c-1.9-1.2-4.7-3.3-6.5-5.1l-0.4-0.4h-15.3v1.5
		c0,2.7,1,6.6,9.1,13c5.5,4.4,9.8,6.5,13.2,6.5s7.6-2.1,13.2-6.5c8.1-6.4,9.1-10.3,9.1-13v-1.5H671.4z"/>
	<path class="st0" d="M777.7,380"/>
	<path class="st0" d="M742.2,353.5c-12.7,0-23,10.3-23,23v1.5h15v-1.5c0-4.4,3.6-8,8-8s8,3.6,8,8v1.5h15v-1.5
		C765.2,363.8,754.9,353.5,742.2,353.5z"/>
	<path class="st0" d="M775,378.5l-0.4,0.4c-1.8,1.7-4.6,3.9-6.5,5.1c-1.9-1.2-4.7-3.3-6.5-5.1l-0.4-0.4h-15.3v1.5
		c0,2.7,1,6.6,9.1,13c5.5,4.4,9.8,6.5,13.2,6.5s7.6-2.1,13.2-6.5c8.1-6.4,9.1-10.3,9.1-13v-1.5H775z"/>
	<path class="st0" d="M619.9,378.5l-0.4,0.4c-1.8,1.7-4.6,3.9-6.5,5.1c-1.9-1.2-4.7-3.3-6.5-5.1l-0.4-0.4h-15.3v1.5
		c0,2.7,1,6.6,9.1,13c5.5,4.4,9.8,6.5,13.2,6.5s7.6-2.1,13.2-6.5c8.1-6.4,9.1-10.3,9.1-13v-1.5H619.9z"/>
	<path class="st0" d="M568.3,378.5l-0.4,0.4c-1.8,1.7-4.6,3.9-6.5,5.1c-1.9-1.2-4.7-3.3-6.5-5.1l-0.4-0.4h-15.3v1.5
		c0,2.7,1,6.6,9.1,13c5.5,4.4,9.8,6.5,13.2,6.5s7.6-2.1,13.2-6.5c8.1-6.4,9.1-10.3,9.1-13v-1.5H568.3z"/>
	<path class="st0" d="M516.7,378.5l-0.4,0.4c-1.8,1.7-4.6,3.9-6.5,5.1c-1.9-1.2-4.7-3.3-6.5-5.1l-0.4-0.4h-15.3v1.5
		c0,2.7,1,6.6,9.1,13c5.5,4.4,9.8,6.5,13.2,6.5s7.6-2.1,13.2-6.5c8.1-6.4,9.1-10.3,9.1-13v-1.5H516.7z"/>
	<path class="st0" d="M465.2,378.5l-0.4,0.4c-1.8,1.7-4.6,3.9-6.5,5.1c-1.9-1.2-4.7-3.3-6.5-5.1l-0.4-0.4H436v1.5
		c0,2.7,1,6.6,9.1,13c5.5,4.4,9.8,6.5,13.2,6.5s7.6-2.1,13.2-6.5c8.1-6.4,9.1-10.3,9.1-13v-1.5H465.2z"/>
	<path class="st0" d="M413.6,378.5l-0.4,0.4c-1.8,1.7-4.6,3.9-6.5,5.1c-1.9-1.2-4.7-3.3-6.5-5.1l-0.4-0.4h-15.3v1.5
		c0,2.7,1,6.6,9.1,13c5.5,4.4,9.8,6.5,13.2,6.5s7.6-2.1,13.2-6.5c8.1-6.4,9.1-10.3,9.1-13v-1.5H413.6z"/>
	<path class="st0" d="M362.1,378.5l-0.4,0.4c-1.8,1.7-4.6,3.9-6.5,5.1c-1.9-1.2-4.7-3.3-6.5-5.1l-0.4-0.4h-15.3v1.5
		c0,2.7,1,6.6,9.1,13c5.5,4.4,9.8,6.5,13.2,6.5s7.6-2.1,13.2-6.5c8.1-6.4,9.1-10.3,9.1-13v-1.5H362.1z"/>
	<path class="st0" d="M259,378.5l-0.4,0.4c-1.8,1.7-4.6,3.9-6.5,5.1c-1.9-1.2-4.7-3.3-6.5-5.1l-0.4-0.4h-15.3v1.5
		c0,2.7,1,6.6,9.1,13c5.5,4.4,9.8,6.5,13.2,6.5s7.6-2.1,13.2-6.5c8.1-6.4,9.1-10.3,9.1-13v-1.5H259z"/>
	<path class="st0" d="M310.5,378.5l-0.4,0.4c-1.8,1.7-4.6,3.9-6.5,5.1c-1.9-1.2-4.7-3.3-6.5-5.1l-0.4-0.4h-15.3v1.5
		c0,2.7,1,6.6,9.1,13c5.5,4.4,9.8,6.5,13.2,6.5s7.6-2.1,13.2-6.5c8.1-6.4,9.1-10.3,9.1-13v-1.5H310.5z"/>
	<path class="st0" d="M205.3,375.4l-0.5,0.3c-2.2,1.2-5.4,2.6-7.6,3.3c-1.6-1.6-3.8-4.4-5.1-6.5l-0.3-0.5l-14.8-3.8l-0.4,1.5
		c-0.7,2.6-0.6,6.7,5.6,14.8c4.3,5.6,7.9,8.7,11.1,9.5c3.2,0.8,7.9-0.2,14.4-3c9.4-4.2,11.4-7.7,12-10.4l0.4-1.5L205.3,375.4z"/>
	<g>
		<path class="st0" d="M332.5,275.4c0,0-13,12.1-23,12.1v-7c10,0,23-12.1,23-12.1V275.4z"/>
	</g>
	<path class="st2" d="M1228.4,280.5c0,0,47.6,40.1,139.3,40.1c50,0,95.7-14.6,126.9-27.9l0,12c-31.2,13.3-76.8,27.9-126.9,27.9
		c-91.7,0-139.3-40.1-139.3-40.1l0.2-12"/>
	<path class="st3" d="M1228.6,268.5c0,0,47.6,40.1,139.3,40.1c91.7,0,168.7-49.1,168.7-49.1v12c0,0-77,49.1-168.7,49.1
		c-91.7,0-139.3-40.1-139.3-40.1V268.5z"/>
	<path class="st3" d="M1228.4,304.5c0,0,47.6,40.1,139.3,40.1c50,0,95.7-14.6,126.9-27.9l0-12c-31.2,13.3-76.8,27.9-126.9,27.9
		c-91.7,0-139.3-40.1-139.3-40.1V304.5z"/>
	
		<rect x="1181.6" y="92.5" transform="matrix(-1 -4.486867e-11 4.486867e-11 -1 2387.2319 389)" class="st0" width="24" height="204"/>
	<path class="st0" d="M812.4,380"/>
	<path class="st0" d="M847.9,353.5c12.7,0,23,10.3,23,23v1.5h-15v-1.5c0-4.4-3.6-8-8-8s-8,3.6-8,8v1.5h-15v-1.5
		C824.9,363.8,835.2,353.5,847.9,353.5z"/>
	<path class="st0" d="M899.4,353.5c12.7,0,23,10.3,23,23v1.5h-15v-1.5c0-4.4-3.6-8-8-8s-8,3.6-8,8v1.5h-15v-1.5
		C876.4,363.8,886.8,353.5,899.4,353.5z"/>
	<path class="st0" d="M951,353.5c12.7,0,23,10.3,23,23v1.5h-15v-1.5c0-4.4-3.6-8-8-8s-8,3.6-8,8v1.5h-15v-1.5
		C928,363.8,938.3,353.5,951,353.5z"/>
	<path class="st0" d="M1002.6,353.5c12.7,0,23,10.3,23,23v1.5h-15v-1.5c0-4.4-3.6-8-8-8s-8,3.6-8,8v1.5h-15v-1.5
		C979.6,363.8,989.9,353.5,1002.6,353.5z"/>
	<path class="st0" d="M1054.1,353.5c12.7,0,23,10.3,23,23v1.5h-15v-1.5c0-4.4-3.6-8-8-8s-8,3.6-8,8v1.5h-15v-1.5
		C1031.1,363.8,1041.4,353.5,1054.1,353.5z"/>
	<path class="st0" d="M1105.7,353.5c12.7,0,23,10.3,23,23v1.5h-15v-1.5c0-4.4-3.6-8-8-8s-8,3.6-8,8v1.5h-15v-1.5
		C1082.7,363.8,1093,353.5,1105.7,353.5z"/>
	<path class="st0" d="M1157.2,353.5c12.7,0,23,10.3,23,23v1.5h-15v-1.5c0-4.4-3.6-8-8-8s-8,3.6-8,8v1.5h-15v-1.5
		C1134.2,363.8,1144.5,353.5,1157.2,353.5z"/>
	<path class="st0" d="M1208.8,353.5c12.7,0,23,10.3,23,23v1.5h-15v-1.5c0-4.4-3.6-8-8-8s-8,3.6-8,8v1.5h-15v-1.5
		C1185.8,363.8,1196.1,353.5,1208.8,353.5z"/>
	<path class="st0" d="M1260.3,353.5c12.7,0,23,10.3,23,23v1.5h-15v-1.5c0-4.4-3.6-8-8-8s-8,3.6-8,8v1.5h-15v-1.5
		C1237.3,363.8,1247.7,353.5,1260.3,353.5z"/>
	<path class="st0" d="M1313.6,354c12.7,0,23,10.3,23,23v1.5h-15V377c0-4.4-3.6-8-8-8s-8,3.6-8,8v1.5h-15V377
		C1290.6,364.3,1300.9,354,1313.6,354z"/>
	<path class="st0" d="M815.1,378.5l0.4,0.4c1.8,1.7,4.6,3.9,6.5,5.1c1.9-1.2,4.7-3.3,6.5-5.1l0.4-0.4h15.3v1.5c0,2.7-1,6.6-9.1,13
		c-5.5,4.4-9.8,6.5-13.2,6.5s-7.6-2.1-13.2-6.5c-8.1-6.4-9.1-10.3-9.1-13v-1.5H815.1z"/>
	<path class="st0" d="M866.7,378.5l0.4,0.4c1.8,1.7,4.6,3.9,6.5,5.1c1.9-1.2,4.7-3.3,6.5-5.1l0.4-0.4h15.3v1.5c0,2.7-1,6.6-9.1,13
		c-5.5,4.4-9.8,6.5-13.2,6.5s-7.6-2.1-13.2-6.5c-8.1-6.4-9.1-10.3-9.1-13v-1.5H866.7z"/>
	<path class="st0" d="M760.4,380"/>
	<path class="st0" d="M795.9,353.5c12.7,0,23,10.3,23,23v1.5h-15v-1.5c0-4.4-3.6-8-8-8s-8,3.6-8,8v1.5h-15v-1.5
		C772.9,363.8,783.2,353.5,795.9,353.5z"/>
	<path class="st0" d="M918.3,378.5l0.4,0.4c1.8,1.7,4.6,3.9,6.5,5.1c1.9-1.2,4.7-3.3,6.5-5.1l0.4-0.4h15.3v1.5c0,2.7-1,6.6-9.1,13
		c-5.5,4.4-9.8,6.5-13.2,6.5s-7.6-2.1-13.2-6.5c-8.1-6.4-9.1-10.3-9.1-13v-1.5H918.3z"/>
	<path class="st0" d="M969.8,378.5l0.4,0.4c1.8,1.7,4.6,3.9,6.5,5.1c1.9-1.2,4.7-3.3,6.5-5.1l0.4-0.4H999v1.5c0,2.7-1,6.6-9.1,13
		c-5.5,4.4-9.8,6.5-13.2,6.5s-7.6-2.1-13.2-6.5c-8.1-6.4-9.1-10.3-9.1-13v-1.5H969.8z"/>
	<path class="st0" d="M1021.4,378.5l0.4,0.4c1.8,1.7,4.6,3.9,6.5,5.1c1.9-1.2,4.7-3.3,6.5-5.1l0.4-0.4h15.3v1.5c0,2.7-1,6.6-9.1,13
		c-5.5,4.4-9.8,6.5-13.2,6.5s-7.6-2.1-13.2-6.5c-8.1-6.4-9.1-10.3-9.1-13v-1.5H1021.4z"/>
	<path class="st0" d="M1072.9,378.5l0.4,0.4c1.8,1.7,4.6,3.9,6.5,5.1c1.9-1.2,4.7-3.3,6.5-5.1l0.4-0.4h15.3v1.5c0,2.7-1,6.6-9.1,13
		c-5.5,4.4-9.8,6.5-13.2,6.5s-7.6-2.1-13.2-6.5c-8.1-6.4-9.1-10.3-9.1-13v-1.5H1072.9z"/>
	<path class="st0" d="M1124.5,378.5l0.4,0.4c1.8,1.7,4.6,3.9,6.5,5.1c1.9-1.2,4.7-3.3,6.5-5.1l0.4-0.4h15.3v1.5c0,2.7-1,6.6-9.1,13
		c-5.5,4.4-9.8,6.5-13.2,6.5s-7.6-2.1-13.2-6.5c-8.1-6.4-9.1-10.3-9.1-13v-1.5H1124.5z"/>
	<path class="st0" d="M1176,378.5l0.4,0.4c1.8,1.7,4.6,3.9,6.5,5.1c1.9-1.2,4.7-3.3,6.5-5.1l0.4-0.4h15.3v1.5c0,2.7-1,6.6-9.1,13
		c-5.5,4.4-9.8,6.5-13.2,6.5s-7.6-2.1-13.2-6.5c-8.1-6.4-9.1-10.3-9.1-13v-1.5H1176z"/>
	<path class="st0" d="M1279.1,378.5l0.4,0.4c1.8,1.7,4.6,3.9,6.5,5.1c1.9-1.2,4.7-3.3,6.5-5.1l0.4-0.4h15.3v1.5c0,2.7-1,6.6-9.1,13
		c-5.5,4.4-9.8,6.5-13.2,6.5s-7.6-2.1-13.2-6.5c-8.1-6.4-9.1-10.3-9.1-13v-1.5H1279.1z"/>
	<path class="st0" d="M1227.6,378.5l0.4,0.4c1.8,1.7,4.6,3.9,6.5,5.1c1.9-1.2,4.7-3.3,6.5-5.1l0.4-0.4h15.3v1.5c0,2.7-1,6.6-9.1,13
		c-5.5,4.4-9.8,6.5-13.2,6.5s-7.6-2.1-13.2-6.5c-8.1-6.4-9.1-10.3-9.1-13v-1.5H1227.6z"/>
	<path class="st0" d="M1358.3,343.1c12.3-3.1,24.8,4.3,28,16.6l0.4,1.5l-14.5,3.7l-0.4-1.5c-1.1-4.3-5.5-6.9-9.7-5.8
		s-6.9,5.5-5.8,9.7l0.4,1.5l-14.5,3.7l-0.4-1.5C1338.6,358.8,1346,346.2,1358.3,343.1z"/>
	<path class="st0" d="M1408.3,330.3c12.3-3.1,24.8,4.3,28,16.6l0.4,1.5l-14.5,3.7l-0.4-1.5c-1.1-4.3-5.5-6.9-9.7-5.8
		c-4.3,1.1-6.9,5.5-5.8,9.7l0.4,1.5l-14.5,3.7l-0.4-1.5C1388.6,346,1396,333.5,1408.3,330.3z"/>
	<path class="st0" d="M1460,317.6c12.3-3.1,24.8,4.3,28,16.6l0.4,1.5l-14.5,3.7l-0.4-1.5c-1.1-4.3-5.5-6.9-9.7-5.8
		c-4.3,1.1-6.9,5.5-5.8,9.7l0.4,1.5l-14.5,3.7l-0.4-1.5C1440.3,333.3,1447.8,320.8,1460,317.6z"/>
	<path class="st0" d="M1332.8,375.4l0.5,0.3c2.2,1.2,5.4,2.6,7.6,3.3c1.6-1.6,3.8-4.4,5.1-6.5l0.3-0.5l14.8-3.8l0.4,1.5
		c0.7,2.6,0.6,6.7-5.6,14.8c-4.3,5.6-7.9,8.7-11.1,9.5c-3.2,0.8-7.9-0.2-14.4-3c-9.4-4.2-11.4-7.7-12-10.4l-0.4-1.5L1332.8,375.4z"
		/>
	<path class="st0" d="M1432.7,349.9l0.5,0.3c2.2,1.2,5.4,2.6,7.6,3.3c1.6-1.6,3.8-4.4,5.1-6.5l0.3-0.5l14.8-3.8l0.4,1.5
		c0.7,2.6,0.6,6.7-5.6,14.8c-4.3,5.6-7.9,8.7-11.1,9.5c-3.2,0.8-7.9-0.2-14.4-3c-9.4-4.2-11.4-7.7-12-10.4l-0.4-1.5L1432.7,349.9z"
		/>
	<path class="st0" d="M1382.7,362.7l0.5,0.3c2.2,1.2,5.4,2.6,7.6,3.3c1.6-1.6,3.8-4.4,5.1-6.5l0.3-0.5l14.8-3.8l0.4,1.5
		c0.7,2.6,0.6,6.7-5.6,14.8c-4.3,5.6-7.9,8.7-11.1,9.5c-3.2,0.8-7.9-0.2-14.4-3c-9.4-4.2-11.4-7.7-12-10.4l-0.4-1.5L1382.7,362.7z"
		/>
	<path class="st4" d="M1205.6,213.5c0,0,82.4,52.6,184.2,52.6v-15c-101.8,0-184.2-52.6-184.2-52.6V213.5z"/>
	<path class="st5" d="M1205.6,228.5c0,0,82.4,52.6,184.2,52.6v-15c-101.8,0-184.2-52.6-184.2-52.6V228.5z"/>
	<g>
		<path class="st0" d="M1205.6,275.4c0,0,13,12.1,23,12.1v-7c-10,0-23-12.1-23-12.1V275.4z"/>
	</g>
	<path class="st0" d="M771.1,157.5L771.1,157.5c-0.7,0-1.3,0-2,0c-0.7,0-1.3,0-2,0v0c-49.3,0.4-171.3,7.1-410.6-25v34.6
		c189.3,27.9,381.5,26.7,412.6,26.6c31,0.1,223.2,1.2,412.6-26.6v-34.6C942.3,164.6,820.4,157.9,771.1,157.5z"/>
	<path class="st0" d="M767.1,182.7c23.6,0,220.6,1.9,414.6-26.6"/>
	<path class="st6" d="M771.1,126.5L771.1,126.5c-0.7,0-1.3,0-2,0c-0.7,0-1.3,0-2,0v0c-49.3,0.4-171.3,7.1-410.6-25v34.6
		c189.3,27.9,381.5,26.7,412.6,26.6c31,0.1,223.2,1.2,412.6-26.6v-34.6C942.3,133.6,820.4,126.9,771.1,126.5z"/>
	<path class="st2" d="M309.7,280.5c0,0-47.6,40.1-139.3,40.1c-50,0-95.7-14.6-126.9-27.9l0,12c31.2,13.3,76.8,27.9,126.9,27.9
		c91.7,0,139.3-40.1,139.3-40.1l-0.2-12"/>
	<path class="st3" d="M309.5,268.5c0,0-47.6,40.1-139.3,40.1S1.5,259.5,1.5,259.5v12c0,0,77,49.1,168.7,49.1s139.3-40.1,139.3-40.1
		V268.5z"/>
	<path class="st3" d="M309.7,304.5c0,0-47.6,40.1-139.3,40.1c-50,0-95.7-14.6-126.9-27.9l0-12c31.2,13.3,76.8,27.9,126.9,27.9
		c91.7,0,139.3-40.1,139.3-40.1V304.5z"/>
	<path class="st0" d="M179.8,343.1c-12.3-3.1-24.8,4.3-28,16.6l-0.4,1.5l14.5,3.7l0.4-1.5c1.1-4.3,5.5-6.9,9.7-5.8s6.9,5.5,5.8,9.7
		l-0.4,1.5l14.5,3.7l0.4-1.5C199.5,358.8,192.1,346.2,179.8,343.1z"/>
	<path class="st0" d="M129.8,330.3c-12.3-3.1-24.8,4.3-28,16.6l-0.4,1.5l14.5,3.7l0.4-1.5c1.1-4.3,5.5-6.9,9.7-5.8s6.9,5.5,5.8,9.7
		l-0.4,1.5l14.5,3.7l0.4-1.5C149.6,346,142.1,333.5,129.8,330.3z"/>
	<path class="st0" d="M78.1,317.6c-12.3-3.1-24.8,4.3-28,16.6l-0.4,1.5l14.5,3.7l0.4-1.5c1.1-4.3,5.5-6.9,9.7-5.8
		c4.3,1.1,6.9,5.5,5.8,9.7l-0.4,1.5l14.5,3.7l0.4-1.5C97.8,333.3,90.4,320.8,78.1,317.6z"/>
	<path class="st0" d="M105.4,349.9l-0.5,0.3c-2.2,1.2-5.4,2.6-7.6,3.3c-1.6-1.6-3.8-4.4-5.1-6.5l-0.3-0.5l-14.8-3.8l-0.4,1.5
		c-0.7,2.6-0.6,6.7,5.6,14.8c4.3,5.6,7.9,8.7,11.1,9.5c3.2,0.8,7.9-0.2,14.4-3c9.4-4.2,11.4-7.7,12-10.4l0.4-1.5L105.4,349.9z"/>
	<path class="st0" d="M155.4,362.7l-0.5,0.3c-2.2,1.2-5.4,2.6-7.6,3.3c-1.6-1.6-3.8-4.4-5.1-6.5l-0.3-0.5l-14.8-3.8l-0.4,1.5
		c-0.7,2.6-0.6,6.7,5.6,14.8c4.3,5.6,7.9,8.7,11.1,9.5c3.2,0.8,7.9-0.2,14.4-3c9.4-4.2,11.4-7.7,12-10.4l0.4-1.5L155.4,362.7z"/>
	<path class="st4" d="M332.5,213.5c0,0-82.4,52.6-184.2,52.6v-15c101.8,0,184.2-52.6,184.2-52.6V213.5z"/>
	<path class="st5" d="M332.5,228.5c0,0-82.4,52.6-184.2,52.6v-15c101.8,0,184.2-52.6,184.2-52.6V228.5z"/>
	<path class="st0" d="M771.1,182.7c-23.6,0-220.6,1.9-414.6-26.6"/>
	<rect x="337.5" y="246.5" class="st7" width="14" height="57"/>
	
		<rect x="1186.6" y="246.5" transform="matrix(-1 -4.469548e-11 4.469548e-11 -1 2387.2319 550)" class="st7" width="14" height="57"/>
</g>
</svg>
