<svg width="324" height="371" viewBox="0 0 324 371" fill="none" xmlns="http://www.w3.org/2000/svg">
<path d="M99.7271 332.461L82.8396 322.711L65.9521 312.961L224.952 37.5645L258.727 57.0645L99.7271 332.461Z" fill="#338973" stroke="#C39A6B" stroke-width="3" stroke-miterlimit="10"/>
<path d="M99.9148 332.77L65.5903 312.952L160.427 148.69L140.978 33.012L180.036 26.5122L201.847 156.218L99.9148 332.77Z" fill="#67CE67" stroke="#C39A6B" stroke-width="3"/>
<path d="M304.656 127.512L290.756 90.4374L167.522 136.401L95.0444 261.936L129.369 281.753L194.751 168.508L304.656 127.512Z" fill="#47B990" stroke="#C39A6B" stroke-width="3"/>
<path d="M169.969 210.797L136.194 191.297L65.9519 312.96L99.7269 332.46L169.969 210.797Z" fill="white" stroke="#C39A6B" stroke-width="3"/>
<path d="M90.1123 291.113L74.8623 317.527" stroke="#C39A6B" stroke-width="3"/>
<path d="M98.7725 296.113L83.5225 322.527" stroke="#C39A6B" stroke-width="3"/>
<path d="M107.433 301.113L92.1826 327.527" stroke="#C39A6B" stroke-width="3"/>
</svg>
