<?xml version="1.0" encoding="utf-8"?>
<!-- Generator: Adobe Illustrator 26.3.1, SVG Export Plug-In . SVG Version: 6.00 Build 0)  -->
<svg version="1.1" id="圖層_1" xmlns="http://www.w3.org/2000/svg" xmlns:xlink="http://www.w3.org/1999/xlink" x="0px" y="0px"
	 viewBox="0 0 1860.5 1086" style="enable-background:new 0 0 1860.5 1086;" xml:space="preserve">
<style type="text/css">
	.st0{fill:#431D31;stroke:#C2996B;stroke-width:3;stroke-miterlimit:10;}
	.st1{fill:#C39A6B;stroke:#C2996B;stroke-width:4.615261e-02;stroke-miterlimit:10;}
	.st2{fill:#C39A6B;stroke:#C39A6B;stroke-width:3.2111;stroke-linecap:round;stroke-linejoin:round;stroke-miterlimit:10;}
	.st3{fill:#BD2027;stroke:#C39A6B;stroke-width:3.2111;stroke-linecap:round;stroke-linejoin:round;stroke-miterlimit:10;}
	.st4{fill:none;stroke:#C39A6B;stroke-width:3.2111;stroke-linecap:round;stroke-linejoin:round;stroke-miterlimit:10;}
	.st5{clip-path:url(#SVGID_00000012468312583193684510000000917257229856799141_);}
	.st6{clip-path:url(#SVGID_00000059998396380156191960000017139983015759803265_);}
	.st7{fill:#431D31;stroke:#C2996B;stroke-width:2.9346;stroke-miterlimit:10;}
	.st8{fill:none;stroke:#C2996B;stroke-width:2.9346;stroke-miterlimit:10;}
	.st9{fill:#C2996B;stroke:#C2996B;stroke-width:2.9346;stroke-miterlimit:10;}
	.st10{fill:#FD6830;stroke:#C2996B;stroke-width:2.9346;stroke-miterlimit:10;}
	.st11{fill:#BC2027;stroke:#C2996B;stroke-width:2.9346;stroke-miterlimit:10;}
	.st12{fill:#B53C8F;stroke:#C2996B;stroke-width:2.9346;stroke-miterlimit:10;}
	.st13{fill:#E3007E;stroke:#C2996B;stroke-width:2.9346;stroke-miterlimit:10;}
	.st14{fill:#F3779F;stroke:#C2996B;stroke-width:2.9346;stroke-miterlimit:10;}
	.st15{fill:#338873;stroke:#C2996B;stroke-width:2.9346;stroke-miterlimit:10;}
	.st16{clip-path:url(#SVGID_00000120538327607452559450000009663560652484033449_);}
	.st17{clip-path:url(#SVGID_00000022535179394370642270000018423906384806111622_);}
</style>
<g>
	<polygon class="st0" points="326.7,173.5 326.7,381.5 326.7,876.5 326.7,1084.5 1533.7,1084.5 1533.7,876.5 1533.7,381.5 
		1533.7,173.5 	"/>
	<path class="st1" d="M930.2,623c-105.4,0-190.8,85.4-190.8,190.8v270.7h190.8H1121V813.8C1121,708.4,1035.6,623,930.2,623z"/>
	<g>
		<g>
			<circle class="st2" cx="1315.6" cy="246.1" r="6.4"/>
			<g>
				<path class="st3" d="M1391,400.7v-73.4c0-25.6-12.7-48.1-32.2-61.8h-86.4c-19.5,13.6-32.2,36.2-32.2,61.8v73.4
					c0,23.5,10.8,44.5,27.7,58.4h95.4C1380.2,445.2,1391,424.2,1391,400.7z"/>
				<rect x="1273.1" y="249.3" class="st2" width="85" height="15.4"/>
				<rect x="1267.9" y="459" class="st2" width="95.4" height="16.1"/>
				<g>
					<g>
						<line class="st4" x1="1271.5" y1="482.1" x2="1271.5" y2="511"/>
						<line class="st4" x1="1280.3" y1="482.1" x2="1280.3" y2="511"/>
						<line class="st4" x1="1289" y1="482.1" x2="1289" y2="511"/>
						<line class="st4" x1="1297.8" y1="482.1" x2="1297.8" y2="511"/>
						<line class="st4" x1="1306.6" y1="482.1" x2="1306.6" y2="511"/>
						<line class="st4" x1="1315.4" y1="482.1" x2="1315.4" y2="511"/>
						<line class="st4" x1="1324.1" y1="482.1" x2="1324.1" y2="511"/>
						<line class="st4" x1="1332.9" y1="482.1" x2="1332.9" y2="511"/>
					</g>
					<g>
						<line class="st4" x1="1298.3" y1="482.1" x2="1298.3" y2="511"/>
						<line class="st4" x1="1307" y1="482.1" x2="1307" y2="511"/>
						<line class="st4" x1="1315.8" y1="482.1" x2="1315.8" y2="511"/>
						<line class="st4" x1="1324.6" y1="482.1" x2="1324.6" y2="511"/>
						<line class="st4" x1="1333.3" y1="482.1" x2="1333.3" y2="511"/>
						<line class="st4" x1="1342.1" y1="482.1" x2="1342.1" y2="511"/>
						<line class="st4" x1="1350.9" y1="482.1" x2="1350.9" y2="511"/>
						<line class="st4" x1="1359.6" y1="482.1" x2="1359.6" y2="511"/>
					</g>
				</g>
			</g>
			<line class="st4" x1="1315.6" y1="237.9" x2="1315.6" y2="206.7"/>
		</g>
		<g>
			<circle class="st2" cx="1058.7" cy="246.1" r="6.4"/>
			<g>
				<path class="st3" d="M1134.1,400.7v-73.4c0-25.6-12.7-48.1-32.2-61.8h-86.4c-19.5,13.6-32.2,36.2-32.2,61.8v73.4
					c0,23.5,10.8,44.5,27.7,58.4h95.4C1123.3,445.2,1134.1,424.2,1134.1,400.7z"/>
				<rect x="1016.2" y="249.3" class="st2" width="85" height="15.4"/>
				<rect x="1011" y="459" class="st2" width="95.4" height="16.1"/>
				<g>
					<g>
						<line class="st4" x1="1014.6" y1="482.1" x2="1014.6" y2="511"/>
						<line class="st4" x1="1023.4" y1="482.1" x2="1023.4" y2="511"/>
						<line class="st4" x1="1032.2" y1="482.1" x2="1032.2" y2="511"/>
						<line class="st4" x1="1040.9" y1="482.1" x2="1040.9" y2="511"/>
						<line class="st4" x1="1049.7" y1="482.1" x2="1049.7" y2="511"/>
						<line class="st4" x1="1058.5" y1="482.1" x2="1058.5" y2="511"/>
						<line class="st4" x1="1067.2" y1="482.1" x2="1067.2" y2="511"/>
						<line class="st4" x1="1076" y1="482.1" x2="1076" y2="511"/>
					</g>
					<g>
						<line class="st4" x1="1041.4" y1="482.1" x2="1041.4" y2="511"/>
						<line class="st4" x1="1050.2" y1="482.1" x2="1050.2" y2="511"/>
						<line class="st4" x1="1058.9" y1="482.1" x2="1058.9" y2="511"/>
						<line class="st4" x1="1067.7" y1="482.1" x2="1067.7" y2="511"/>
						<line class="st4" x1="1076.5" y1="482.1" x2="1076.5" y2="511"/>
						<line class="st4" x1="1085.2" y1="482.1" x2="1085.2" y2="511"/>
						<line class="st4" x1="1094" y1="482.1" x2="1094" y2="511"/>
						<line class="st4" x1="1102.8" y1="482.1" x2="1102.8" y2="511"/>
					</g>
				</g>
			</g>
			<line class="st4" x1="1058.7" y1="237.9" x2="1058.7" y2="206.7"/>
		</g>
		<g>
			<circle class="st2" cx="801.8" cy="246.1" r="6.4"/>
			<g>
				<path class="st3" d="M877.2,400.7v-73.4c0-25.6-12.7-48.1-32.2-61.8h-86.4c-19.5,13.6-32.2,36.2-32.2,61.8v73.4
					c0,23.5,10.8,44.5,27.7,58.4h95.4C866.4,445.2,877.2,424.2,877.2,400.7z"/>
				<rect x="759.3" y="249.3" class="st2" width="85" height="15.4"/>
				<rect x="754.1" y="459" class="st2" width="95.4" height="16.1"/>
				<g>
					<g>
						<line class="st4" x1="757.7" y1="482.1" x2="757.7" y2="511"/>
						<line class="st4" x1="766.5" y1="482.1" x2="766.5" y2="511"/>
						<line class="st4" x1="775.3" y1="482.1" x2="775.3" y2="511"/>
						<line class="st4" x1="784" y1="482.1" x2="784" y2="511"/>
						<line class="st4" x1="792.8" y1="482.1" x2="792.8" y2="511"/>
						<line class="st4" x1="801.6" y1="482.1" x2="801.6" y2="511"/>
						<line class="st4" x1="810.3" y1="482.1" x2="810.3" y2="511"/>
						<line class="st4" x1="819.1" y1="482.1" x2="819.1" y2="511"/>
					</g>
					<g>
						<line class="st4" x1="784.5" y1="482.1" x2="784.5" y2="511"/>
						<line class="st4" x1="793.3" y1="482.1" x2="793.3" y2="511"/>
						<line class="st4" x1="802" y1="482.1" x2="802" y2="511"/>
						<line class="st4" x1="810.8" y1="482.1" x2="810.8" y2="511"/>
						<line class="st4" x1="819.6" y1="482.1" x2="819.6" y2="511"/>
						<line class="st4" x1="828.3" y1="482.1" x2="828.3" y2="511"/>
						<line class="st4" x1="837.1" y1="482.1" x2="837.1" y2="511"/>
						<line class="st4" x1="845.9" y1="482.1" x2="845.9" y2="511"/>
					</g>
				</g>
			</g>
			<line class="st4" x1="801.8" y1="237.9" x2="801.8" y2="206.7"/>
		</g>
		<g>
			<circle class="st2" cx="544.9" cy="246.1" r="6.4"/>
			<g>
				<path class="st3" d="M620.3,400.7v-73.4c0-25.6-12.7-48.1-32.2-61.8h-86.4c-19.5,13.6-32.2,36.2-32.2,61.8v73.4
					c0,23.5,10.8,44.5,27.7,58.4h95.4C609.5,445.2,620.3,424.2,620.3,400.7z"/>
				<rect x="502.4" y="249.3" class="st2" width="85" height="15.4"/>
				<rect x="497.2" y="459" class="st2" width="95.4" height="16.1"/>
				<g>
					<g>
						<line class="st4" x1="500.9" y1="482.1" x2="500.9" y2="511"/>
						<line class="st4" x1="509.6" y1="482.1" x2="509.6" y2="511"/>
						<line class="st4" x1="518.4" y1="482.1" x2="518.4" y2="511"/>
						<line class="st4" x1="527.2" y1="482.1" x2="527.2" y2="511"/>
						<line class="st4" x1="535.9" y1="482.1" x2="535.9" y2="511"/>
						<line class="st4" x1="544.7" y1="482.1" x2="544.7" y2="511"/>
						<line class="st4" x1="553.5" y1="482.1" x2="553.5" y2="511"/>
						<line class="st4" x1="562.2" y1="482.1" x2="562.2" y2="511"/>
					</g>
					<g>
						<line class="st4" x1="527.6" y1="482.1" x2="527.6" y2="511"/>
						<line class="st4" x1="536.4" y1="482.1" x2="536.4" y2="511"/>
						<line class="st4" x1="545.2" y1="482.1" x2="545.2" y2="511"/>
						<line class="st4" x1="553.9" y1="482.1" x2="553.9" y2="511"/>
						<line class="st4" x1="562.7" y1="482.1" x2="562.7" y2="511"/>
						<line class="st4" x1="571.5" y1="482.1" x2="571.5" y2="511"/>
						<line class="st4" x1="580.2" y1="482.1" x2="580.2" y2="511"/>
						<line class="st4" x1="589" y1="482.1" x2="589" y2="511"/>
					</g>
				</g>
			</g>
			<line class="st4" x1="544.9" y1="237.9" x2="544.9" y2="206.7"/>
		</g>
	</g>
	<g>
		<defs>
			<rect id="SVGID_1_" width="1860.5" height="222.3"/>
		</defs>
		<clipPath id="SVGID_00000159438770395975752050000011227083696963073944_">
			<use xlink:href="#SVGID_1_"  style="overflow:visible;"/>
		</clipPath>
		<g style="clip-path:url(#SVGID_00000159438770395975752050000011227083696963073944_);">
			<g>
				<g>
					<g>
						<defs>
							<rect id="SVGID_00000166634325697365742130000014769200687538398089_" x="40.4" y="2.9" width="966" height="243.1"/>
						</defs>
						<clipPath id="SVGID_00000008125501561771128690000005846063721877289113_">
							<use xlink:href="#SVGID_00000166634325697365742130000014769200687538398089_"  style="overflow:visible;"/>
						</clipPath>
						<g style="clip-path:url(#SVGID_00000008125501561771128690000005846063721877289113_);">
							<path class="st7" d="M1535.1,114l-89.1,1.7V86.6L1275.3,21l-3.6-35.2l-3.6-35.2l0,0l0,0L854-22.6L439.7-49.4l0,0l0,0
								l-3.6,35.2L432.6,21L261.9,86.6v29.1l-89.1-1.7l12.1,35.4l1,0.2l0.7,0.2v2.3c0,6.5,5.3,11.7,11.7,11.7h2.9
								c5,0,9.2-3.1,10.9-7.5l22.5,5.8c-0.1,0.6-0.1,1.1-0.1,1.7v1c0,6.5,5.3,11.7,11.7,11.7h1c5.3,0,9.7-3.5,11.2-8.3l28.9,7.4v1.9
								c0,6.5,5.3,11.7,11.7,11.7h3.9c4.7,0,8.8-2.8,10.7-6.8h24.1c1.5,5.1,6.2,8.8,11.7,8.8c5.6,0,10.3-3.7,11.7-8.8H388
								c0.3,6,5.2,10.8,11.2,10.8s11-4.8,11.2-10.8H435c-0.1,0.6-0.2,1.3-0.2,2c0,7,5.7,12.7,12.7,12.7c7,0,12.7-5.7,12.7-12.7
								c0-0.7-0.1-1.3-0.2-2h28.5c0,5.9,4.8,10.8,10.8,10.8c5.9,0,10.8-4.8,10.8-10.8h30.2c1.7,4,5.7,6.8,10.4,6.8s8.6-2.8,10.4-6.8
								h25.3c0,7,5.7,12.7,12.7,12.7s12.7-5.7,12.7-12.7h26.4c0,7,5.7,12.7,12.7,12.7s12.7-5.7,12.7-12.7h26.8
								c0,7,5.7,12.7,12.7,12.7s12.7-5.7,12.7-12.7h26.4c0,7,5.7,12.7,12.7,12.7s12.7-5.7,12.7-12.7H794c0,7,5.7,12.7,12.7,12.7
								s12.7-5.7,12.7-12.7h17.1c0,7,5.7,12.7,12.7,12.7c1.6,0,3.2-0.3,4.6-0.9c1.4,0.6,3,0.9,4.6,0.9c7,0,12.7-5.7,12.7-12.7h17.3
								c0,7,5.7,12.7,12.7,12.7s12.7-5.7,12.7-12.7h26.4c0,7,5.7,12.7,12.7,12.7s12.7-5.7,12.7-12.7H992c0,7,5.7,12.7,12.7,12.7
								s12.7-5.7,12.7-12.7h26.4c0,7,5.7,12.7,12.7,12.7s12.7-5.7,12.7-12.7h26.4c0,7,5.7,12.7,12.7,12.7s12.7-5.7,12.7-12.7h25.3
								c1.7,4,5.7,6.8,10.4,6.8c4.7,0,8.6-2.8,10.4-6.8h30.2c0,5.9,4.8,10.8,10.8,10.8s10.8-4.8,10.8-10.8h28.5
								c-0.1,0.6-0.2,1.3-0.2,2c0,7,5.7,12.7,12.7,12.7s12.7-5.7,12.7-12.7c0-0.7-0.1-1.3-0.2-2h24.6c0.3,6,5.2,10.8,11.2,10.8
								s11-4.8,11.2-10.8h26.9c1.5,5.1,6.2,8.8,11.7,8.8c5.6,0,10.3-3.7,11.7-8.8h24.1c1.9,4,5.9,6.8,10.7,6.8h3.9
								c6.5,0,11.7-5.3,11.7-11.7v-1.9l28.9-7.4c1.5,4.8,6,8.3,11.2,8.3h1c6.5,0,11.7-5.3,11.7-11.7v-1c0-0.6-0.1-1.2-0.1-1.7
								l22.5-5.8c1.7,4.4,6,7.5,10.9,7.5h2.9c6.5,0,11.7-5.3,11.7-11.7v-2.3l0.7-0.2l1-0.2L1535.1,114z"/>
							<g>
								<line class="st8" x1="846.3" y1="1.7" x2="846.3" y2="172"/>
								<line class="st8" x1="833.6" y1="1.7" x2="833.6" y2="172"/>
								<line class="st8" x1="820.8" y1="1.7" x2="820.8" y2="172"/>
								<line class="st8" x1="808.1" y1="1.7" x2="808.1" y2="172"/>
								<line class="st8" x1="795.4" y1="1.7" x2="795.4" y2="172"/>
								<line class="st8" x1="782.7" y1="1.7" x2="782.7" y2="172"/>
								<line class="st8" x1="770" y1="1.7" x2="770" y2="172"/>
								<line class="st8" x1="757.3" y1="-35.5" x2="757.3" y2="172"/>
								<line class="st8" x1="744.5" y1="-35.5" x2="744.5" y2="172"/>
								<line class="st8" x1="731.8" y1="-35.5" x2="731.8" y2="172"/>
								<line class="st8" x1="719.1" y1="-35.5" x2="719.1" y2="172"/>
								<line class="st8" x1="706.4" y1="-35.5" x2="706.4" y2="172"/>
								<line class="st8" x1="693.7" y1="-35.5" x2="693.7" y2="172"/>
								<line class="st8" x1="681" y1="-35.5" x2="681" y2="172"/>
								<line class="st8" x1="668.2" y1="-35.5" x2="668.2" y2="172"/>
								<line class="st8" x1="655.5" y1="-35.5" x2="655.5" y2="172"/>
								<line class="st8" x1="642.8" y1="-35.5" x2="642.8" y2="172"/>
								<line class="st8" x1="630.1" y1="-35.5" x2="630.1" y2="172"/>
								<line class="st8" x1="617.4" y1="-35.5" x2="617.4" y2="172"/>
								<line class="st8" x1="604.7" y1="-35.5" x2="604.7" y2="172"/>
								<line class="st8" x1="592" y1="-35.5" x2="592" y2="172"/>
								<line class="st8" x1="579.2" y1="-35.5" x2="579.2" y2="172"/>
								<line class="st8" x1="566.5" y1="-35.5" x2="566.5" y2="172"/>
								<line class="st8" x1="553.8" y1="-35.5" x2="553.8" y2="172"/>
								<line class="st8" x1="541.1" y1="-35.5" x2="541.1" y2="172"/>
								<line class="st8" x1="528.4" y1="-35.5" x2="528.4" y2="172"/>
								<line class="st8" x1="515.7" y1="-35.5" x2="515.7" y2="172"/>
								<line class="st8" x1="502.9" y1="-35.5" x2="502.9" y2="172"/>
								<line class="st8" x1="490.2" y1="-35.5" x2="490.2" y2="172"/>
								<line class="st8" x1="477.5" y1="-35.5" x2="477.5" y2="172"/>
								<line class="st8" x1="464.8" y1="-35.5" x2="464.8" y2="172"/>
								<line class="st8" x1="452.1" y1="-35.5" x2="452.1" y2="172"/>
								<line class="st8" x1="439.4" y1="82.2" x2="439.4" y2="172"/>
								<line class="st8" x1="426.6" y1="1.7" x2="426.6" y2="172"/>
								<line class="st8" x1="413.9" y1="39.8" x2="413.9" y2="172"/>
								<line class="st8" x1="401.2" y1="39.8" x2="401.2" y2="172"/>
								<line class="st8" x1="388.5" y1="47.7" x2="388.5" y2="172"/>
								<line class="st8" x1="375.8" y1="47.7" x2="375.8" y2="172"/>
								<line class="st8" x1="363.1" y1="47.7" x2="363.1" y2="172"/>
								<line class="st8" x1="350.3" y1="47.7" x2="350.3" y2="172"/>
								<line class="st8" x1="337.6" y1="59.4" x2="337.6" y2="172"/>
								<line class="st8" x1="324.9" y1="59.4" x2="324.9" y2="172"/>
								<line class="st8" x1="312.2" y1="59.4" x2="312.2" y2="172"/>
								<line class="st8" x1="299.5" y1="59.4" x2="299.5" y2="172"/>
								<line class="st8" x1="286.8" y1="59.4" x2="286.8" y2="172"/>
								<line class="st8" x1="274" y1="59.4" x2="274" y2="155.5"/>
								<line class="st8" x1="1445.6" y1="114" x2="1445.6" y2="86.6"/>
								<line class="st8" x1="861.3" y1="1.7" x2="861.3" y2="172"/>
								<line class="st8" x1="874" y1="1.7" x2="874" y2="172"/>
								<line class="st8" x1="886.7" y1="1.7" x2="886.7" y2="172"/>
								<line class="st8" x1="899.4" y1="1.7" x2="899.4" y2="172"/>
								<line class="st8" x1="912.1" y1="1.7" x2="912.1" y2="172"/>
								<line class="st8" x1="924.8" y1="1.7" x2="924.8" y2="172"/>
								<line class="st8" x1="937.6" y1="1.7" x2="937.6" y2="172"/>
								<line class="st8" x1="950.3" y1="-35.5" x2="950.3" y2="172"/>
								<line class="st8" x1="963" y1="-35.5" x2="963" y2="172"/>
								<line class="st8" x1="975.7" y1="-35.5" x2="975.7" y2="172"/>
								<line class="st8" x1="988.4" y1="-35.5" x2="988.4" y2="172"/>
								<line class="st8" x1="1001.1" y1="-35.5" x2="1001.1" y2="172"/>
								<line class="st8" x1="1013.9" y1="-35.5" x2="1013.9" y2="172"/>
								<line class="st8" x1="1026.6" y1="-35.5" x2="1026.6" y2="172"/>
								<line class="st8" x1="1039.3" y1="-35.5" x2="1039.3" y2="172"/>
								<line class="st8" x1="1052" y1="-35.5" x2="1052" y2="172"/>
								<line class="st8" x1="1064.7" y1="-35.5" x2="1064.7" y2="172"/>
								<line class="st8" x1="1077.4" y1="-35.5" x2="1077.4" y2="172"/>
								<line class="st8" x1="1090.2" y1="-35.5" x2="1090.2" y2="172"/>
								<line class="st8" x1="1102.9" y1="-35.5" x2="1102.9" y2="172"/>
								<line class="st8" x1="1115.6" y1="-35.5" x2="1115.6" y2="172"/>
								<line class="st8" x1="1128.3" y1="-35.5" x2="1128.3" y2="172"/>
								<line class="st8" x1="1141" y1="-35.5" x2="1141" y2="172"/>
								<line class="st8" x1="1153.7" y1="-35.5" x2="1153.7" y2="172"/>
								<line class="st8" x1="1166.5" y1="-35.5" x2="1166.5" y2="172"/>
								<line class="st8" x1="1179.2" y1="-35.5" x2="1179.2" y2="172"/>
								<line class="st8" x1="1191.9" y1="-35.5" x2="1191.9" y2="172"/>
								<line class="st8" x1="1204.6" y1="-35.5" x2="1204.6" y2="172"/>
								<line class="st8" x1="1217.3" y1="-35.5" x2="1217.3" y2="172"/>
								<line class="st8" x1="1230" y1="-35.5" x2="1230" y2="172"/>
								<line class="st8" x1="1242.8" y1="-35.5" x2="1242.8" y2="172"/>
								<line class="st8" x1="1255.5" y1="-35.5" x2="1255.5" y2="172"/>
								<line class="st8" x1="1268.2" y1="82.2" x2="1268.2" y2="172"/>
								<line class="st8" x1="1280.9" y1="1.7" x2="1280.9" y2="172"/>
								<line class="st8" x1="1293.6" y1="39.8" x2="1293.6" y2="172"/>
								<line class="st8" x1="1306.3" y1="39.8" x2="1306.3" y2="172"/>
								<line class="st8" x1="1319.1" y1="47.7" x2="1319.1" y2="172"/>
								<line class="st8" x1="1331.8" y1="47.7" x2="1331.8" y2="172"/>
								<line class="st8" x1="1344.5" y1="47.7" x2="1344.5" y2="172"/>
								<line class="st8" x1="1357.2" y1="47.7" x2="1357.2" y2="172"/>
								<line class="st8" x1="1369.9" y1="59.4" x2="1369.9" y2="172"/>
								<line class="st8" x1="1382.6" y1="59.4" x2="1382.6" y2="172"/>
								<line class="st8" x1="1395.4" y1="59.4" x2="1395.4" y2="172"/>
								<line class="st8" x1="1408.1" y1="59.4" x2="1408.1" y2="172"/>
								<line class="st8" x1="1420.8" y1="59.4" x2="1420.8" y2="172"/>
								<line class="st8" x1="1433.5" y1="59.4" x2="1433.5" y2="155.5"/>
								<line class="st8" x1="262" y1="114" x2="262" y2="86.6"/>
							</g>
							<path class="st9" d="M450.2-102.5c0-11.1-9.8-16.3-9.8-16.3s6.8-2,6.8-8.8s-8.8-8.7-8.8-8.7c0-16.5-22-21.1-22-21.1l-5.7-6.1
								c-3.2-3.5-4.2-8.3-2.9-12.9c0.3-1,0.4-2.1,0.2-3.2c-0.5-3.5-3.3-6.3-6.8-6.7c-5.2-0.6-9.5,3.9-8.6,9.1c0.5,3,2.8,5.5,5.7,6.3
								h0.1c3.6,0.9,6.7,3,8.5,6.2l17.5,29.5c4.1,6.9,6.2,14.8,6.2,22.8v21l28.3,10C462.9-95,450.2-102.5,450.2-102.5z"/>
							<path class="st9" d="M1257.3-102.5c0-11.1,9.8-16.3,9.8-16.3s-6.8-2-6.8-8.8s8.8-8.7,8.8-8.7c0-16.5,22-21.1,22-21.1l5.7-6.1
								c3.2-3.5,4.2-8.3,2.9-12.9c-0.3-1-0.4-2.1-0.2-3.2c0.5-3.5,3.3-6.3,6.8-6.7c5.2-0.6,9.5,3.9,8.6,9.1c-0.5,3-2.8,5.5-5.7,6.3
								h-0.1c-3.6,0.9-6.7,3-8.5,6.2l-17.5,29.5c-4.1,6.9-6.2,14.8-6.2,22.8v21l-28.3,10C1244.7-95,1257.3-102.5,1257.3-102.5z"/>
							<rect x="426.7" y="-97.3" class="st7" width="23.5" height="199.5"/>
							<path class="st7" d="M811.3,183.9"/>
							<path class="st7" d="M776.7,158c-12.4,0-22.5,10.1-22.5,22.5v1.5h14.7v-1.5c0-4.3,3.5-7.8,7.8-7.8s7.8,3.5,7.8,7.8v1.5h14.7
								v-1.5C799.2,168.1,789.1,158,776.7,158z"/>
							<path class="st7" d="M726.2,158c-12.4,0-22.5,10.1-22.5,22.5v1.5h14.7v-1.5c0-4.3,3.5-7.8,7.8-7.8s7.8,3.5,7.8,7.8v1.5h14.7
								v-1.5C748.7,168.1,738.6,158,726.2,158z"/>
							<path class="st7" d="M675.8,158c-12.4,0-22.5,10.1-22.5,22.5v1.5H668v-1.5c0-4.3,3.5-7.8,7.8-7.8s7.8,3.5,7.8,7.8v1.5h14.7
								v-1.5C698.3,168.1,688.2,158,675.8,158z"/>
							<path class="st7" d="M625.4,158c-12.4,0-22.5,10.1-22.5,22.5v1.5h14.7v-1.5c0-4.3,3.5-7.8,7.8-7.8s7.8,3.5,7.8,7.8v1.5h14.7
								v-1.5C647.9,168.1,637.8,158,625.4,158z"/>
							<path class="st7" d="M574.9,158c-12.4,0-22.5,10.1-22.5,22.5v1.5h14.7v-1.5c0-4.3,3.5-7.8,7.8-7.8s7.8,3.5,7.8,7.8v1.5h14.7
								v-1.5C597.4,168.1,587.3,158,574.9,158z"/>
							<path class="st7" d="M524.5,158c-12.4,0-22.5,10.1-22.5,22.5v1.5h14.7v-1.5c0-4.3,3.5-7.8,7.8-7.8s7.8,3.5,7.8,7.8v1.5H547
								v-1.5C547,168.1,536.9,158,524.5,158z"/>
							<path class="st7" d="M474.1,158c-12.4,0-22.5,10.1-22.5,22.5v1.5h14.7v-1.5c0-4.3,3.5-7.8,7.8-7.8s7.8,3.5,7.8,7.8v1.5h14.7
								v-1.5C496.6,168.1,486.5,158,474.1,158z"/>
							<path class="st7" d="M423.6,158c-12.4,0-22.5,10.1-22.5,22.5v1.5h14.7v-1.5c0-4.3,3.5-7.8,7.8-7.8s7.8,3.5,7.8,7.8v1.5h14.7
								v-1.5C446.1,168.1,436,158,423.6,158z"/>
							<path class="st7" d="M373.2,158c-12.4,0-22.5,10.1-22.5,22.5v1.5h14.7v-1.5c0-4.3,3.5-7.8,7.8-7.8s7.8,3.5,7.8,7.8v1.5h14.7
								v-1.5C395.7,168.1,385.6,158,373.2,158z"/>
							<path class="st7" d="M321.1,158.5c-12.4,0-22.5,10.1-22.5,22.5v1.5h14.7V181c0-4.3,3.5-7.8,7.8-7.8s7.8,3.5,7.8,7.8v1.5h14.7
								V181C343.6,168.6,333.5,158.5,321.1,158.5z"/>
							<path class="st7" d="M808.7,182.4l-0.4,0.4c-1.8,1.7-4.5,3.8-6.4,4.9c-1.9-1.1-4.6-3.2-6.4-4.9l-0.4-0.4h-14.9v1.5
								c0,2.6,1,6.5,8.9,12.7c5.4,4.3,9.6,6.4,12.9,6.4c3.3,0,7.5-2.1,12.9-6.4c7.9-6.2,8.9-10.1,8.9-12.7v-1.5H808.7z"/>
							<path class="st7" d="M758.3,182.4l-0.4,0.4c-1.8,1.7-4.5,3.8-6.4,4.9c-1.9-1.1-4.6-3.2-6.4-4.9l-0.4-0.4h-14.9v1.5
								c0,2.6,1,6.5,8.9,12.7c5.4,4.3,9.6,6.4,12.9,6.4c3.3,0,7.5-2.1,12.9-6.4c7.9-6.2,8.9-10.1,8.9-12.7v-1.5H758.3z"/>
							<path class="st7" d="M862.2,183.9"/>
							<path class="st7" d="M827.5,158c-12.4,0-22.5,10.1-22.5,22.5v1.5h14.7v-1.5c0-4.3,3.5-7.8,7.8-7.8s7.8,3.5,7.8,7.8v1.5H850
								v-1.5C850,168.1,839.9,158,827.5,158z"/>
							<path class="st7" d="M859.6,182.4l-0.4,0.4c-1.8,1.7-4.5,3.8-6.4,4.9c-1.9-1.1-4.6-3.2-6.4-4.9l-0.4-0.4h-14.9v1.5
								c0,2.6,1,6.5,8.9,12.7c5.4,4.3,9.6,6.4,12.9,6.4c3.3,0,7.5-2.1,12.9-6.4c7.9-6.2,8.9-10.1,8.9-12.7v-1.5H859.6z"/>
							<path class="st7" d="M707.8,182.4l-0.4,0.4c-1.8,1.7-4.5,3.8-6.4,4.9c-1.9-1.1-4.6-3.2-6.4-4.9l-0.4-0.4h-14.9v1.5
								c0,2.6,1,6.5,8.9,12.7c5.4,4.3,9.6,6.4,12.9,6.4c3.3,0,7.5-2.1,12.9-6.4c7.9-6.2,8.9-10.1,8.9-12.7v-1.5H707.8z"/>
							<path class="st7" d="M657.4,182.4l-0.4,0.4c-1.8,1.7-4.5,3.8-6.4,4.9c-1.9-1.1-4.6-3.2-6.4-4.9l-0.4-0.4h-14.9v1.5
								c0,2.6,1,6.5,8.9,12.7c5.4,4.3,9.6,6.4,12.9,6.4c3.3,0,7.5-2.1,12.9-6.4c7.9-6.2,8.9-10.1,8.9-12.7v-1.5H657.4z"/>
							<path class="st7" d="M607,182.4l-0.4,0.4c-1.8,1.7-4.5,3.8-6.4,4.9c-1.9-1.1-4.6-3.2-6.4-4.9l-0.4-0.4h-15v1.5
								c0,2.6,1,6.5,8.9,12.7c5.4,4.3,9.6,6.4,12.9,6.4c3.3,0,7.5-2.1,12.9-6.4c7.9-6.2,8.9-10.1,8.9-12.7v-1.5H607z"/>
							<path class="st7" d="M556.5,182.4l-0.4,0.4c-1.8,1.7-4.5,3.8-6.4,4.9c-1.9-1.1-4.6-3.2-6.4-4.9l-0.4-0.4H528v1.5
								c0,2.6,1,6.5,8.9,12.7c5.4,4.3,9.6,6.4,12.9,6.4c3.3,0,7.5-2.1,12.9-6.4c7.9-6.2,8.9-10.1,8.9-12.7v-1.5H556.5z"/>
							<path class="st7" d="M506.1,182.4l-0.4,0.4c-1.8,1.7-4.5,3.8-6.4,4.9c-1.9-1.1-4.6-3.2-6.4-4.9l-0.4-0.4h-14.9v1.5
								c0,2.6,1,6.5,8.9,12.7c5.4,4.3,9.6,6.4,12.9,6.4c3.3,0,7.5-2.1,12.9-6.4c7.9-6.2,8.9-10.1,8.9-12.7v-1.5H506.1z"/>
							<path class="st7" d="M455.7,182.4l-0.4,0.4c-1.8,1.7-4.5,3.8-6.4,4.9c-1.9-1.1-4.6-3.2-6.4-4.9l-0.4-0.4h-14.9v1.5
								c0,2.6,1,6.5,8.9,12.7c5.4,4.3,9.6,6.4,12.9,6.4s7.5-2.1,12.9-6.4c7.9-6.2,8.9-10.1,8.9-12.7v-1.5H455.7z"/>
							<path class="st7" d="M354.8,182.4l-0.4,0.4c-1.8,1.7-4.5,3.8-6.4,4.9c-1.9-1.1-4.6-3.2-6.4-4.9l-0.4-0.4h-14.9v1.5
								c0,2.6,1,6.5,8.9,12.7c5.4,4.3,9.6,6.4,12.9,6.4s7.5-2.1,12.9-6.4c7.9-6.2,8.9-10.1,8.9-12.7v-1.5H354.8z"/>
							<path class="st7" d="M405.2,182.4l-0.4,0.4c-1.8,1.7-4.5,3.8-6.4,4.9c-1.9-1.1-4.6-3.2-6.4-4.9l-0.4-0.4h-14.9v1.5
								c0,2.6,1,6.5,8.9,12.7c5.4,4.3,9.6,6.4,12.9,6.4s7.5-2.1,12.9-6.4c7.9-6.2,8.9-10.1,8.9-12.7v-1.5H405.2z"/>
							<path class="st7" d="M302.3,179.4l-0.5,0.3c-2.1,1.2-5.3,2.6-7.4,3.2c-1.5-1.6-3.7-4.3-5-6.4l-0.3-0.5l-14.5-3.7l-0.4,1.4
								c-0.7,2.6-0.6,6.5,5.5,14.5c4.2,5.5,7.7,8.5,10.9,9.3c3.2,0.8,7.8-0.2,14-3c9.2-4.1,11.1-7.6,11.8-10.1l0.4-1.4L302.3,179.4z
								"/>
							<g>
								<path class="st7" d="M426.7,81.6c0,0-12.7,11.8-22.5,11.8v-6.8c9.8,0,22.5-11.8,22.5-11.8V81.6z"/>
							</g>
							<path class="st10" d="M1303.1,86.6c0,0,46.6,39.2,136.3,39.2c49,0,93.6-14.3,124.1-27.3v11.7c-30.5,13-75.2,27.3-124.1,27.3
								c-89.7,0-136.3-39.2-136.3-39.2l0.2-11.7"/>
							<path class="st11" d="M1303.3,74.8c0,0,46.6,39.2,136.3,39.2c89.7,0,165-48,165-48v11.7c0,0-75.3,48-165,48
								s-136.3-39.2-136.3-39.2V74.8z"/>
							<path class="st11" d="M1303.1,110c0,0,46.6,39.2,136.3,39.2c49,0,93.6-14.3,124.1-27.3v-11.7c-30.5,13-75.2,27.3-124.1,27.3
								c-89.7,0-136.3-39.2-136.3-39.2V110z"/>
							<rect x="1257.3" y="-97.3" class="st7" width="23.5" height="199.5"/>
							<path class="st7" d="M896.2,183.9"/>
							<path class="st7" d="M930.9,158c12.4,0,22.5,10.1,22.5,22.5v1.5h-14.7v-1.5c0-4.3-3.5-7.8-7.8-7.8s-7.8,3.5-7.8,7.8v1.5
								h-14.7v-1.5C908.4,168.1,918.5,158,930.9,158z"/>
							<path class="st7" d="M981.3,158c12.4,0,22.5,10.1,22.5,22.5v1.5h-14.7v-1.5c0-4.3-3.5-7.8-7.8-7.8s-7.8,3.5-7.8,7.8v1.5
								h-14.7v-1.5C958.8,168.1,968.9,158,981.3,158z"/>
							<path class="st7" d="M1031.7,158c12.4,0,22.5,10.1,22.5,22.5v1.5h-14.7v-1.5c0-4.3-3.5-7.8-7.8-7.8s-7.8,3.5-7.8,7.8v1.5
								h-14.7v-1.5C1009.3,168.1,1019.3,158,1031.7,158z"/>
							<path class="st7" d="M1082.2,158c12.4,0,22.5,10.1,22.5,22.5v1.5H1090v-1.5c0-4.3-3.5-7.8-7.8-7.8s-7.8,3.5-7.8,7.8v1.5
								h-14.7v-1.5C1059.7,168.1,1069.8,158,1082.2,158z"/>
							<path class="st7" d="M1132.6,158c12.4,0,22.5,10.1,22.5,22.5v1.5h-14.7v-1.5c0-4.3-3.5-7.8-7.8-7.8s-7.8,3.5-7.8,7.8v1.5
								h-14.7v-1.5C1110.1,168.1,1120.2,158,1132.6,158z"/>
							<path class="st7" d="M1183,158c12.4,0,22.5,10.1,22.5,22.5v1.5h-14.7v-1.5c0-4.3-3.5-7.8-7.8-7.8s-7.8,3.5-7.8,7.8v1.5h-14.7
								v-1.5C1160.5,168.1,1170.6,158,1183,158z"/>
							<path class="st7" d="M1233.5,158c12.4,0,22.5,10.1,22.5,22.5v1.5h-14.7v-1.5c0-4.3-3.5-7.8-7.8-7.8s-7.8,3.5-7.8,7.8v1.5
								H1211v-1.5C1211,168.1,1221.1,158,1233.5,158z"/>
							<path class="st7" d="M1283.9,158c12.4,0,22.5,10.1,22.5,22.5v1.5h-14.7v-1.5c0-4.3-3.5-7.8-7.8-7.8s-7.8,3.5-7.8,7.8v1.5
								h-14.7v-1.5C1261.4,168.1,1271.5,158,1283.9,158z"/>
							<path class="st7" d="M1334.3,158c12.4,0,22.5,10.1,22.5,22.5v1.5h-14.7v-1.5c0-4.3-3.5-7.8-7.8-7.8s-7.8,3.5-7.8,7.8v1.5
								h-14.7v-1.5C1311.8,168.1,1321.9,158,1334.3,158z"/>
							<path class="st7" d="M1386.5,158.5c12.4,0,22.5,10.1,22.5,22.5v1.5h-14.7V181c0-4.3-3.5-7.8-7.8-7.8s-7.8,3.5-7.8,7.8v1.5
								H1364V181C1364,168.6,1374,158.5,1386.5,158.5z"/>
							<path class="st7" d="M898.9,182.4l0.4,0.4c1.8,1.7,4.5,3.8,6.4,4.9c1.9-1.1,4.6-3.2,6.4-4.9l0.4-0.4h14.9v1.5
								c0,2.6-1,6.5-8.9,12.7c-5.4,4.3-9.6,6.4-12.9,6.4c-3.3,0-7.5-2.1-12.9-6.4c-7.9-6.2-8.9-10.1-8.9-12.7v-1.5H898.9z"/>
							<path class="st7" d="M949.3,182.4l0.4,0.4c1.8,1.7,4.5,3.8,6.4,4.9c1.9-1.1,4.6-3.2,6.4-4.9l0.4-0.4h14.9v1.5
								c0,2.6-1,6.5-8.9,12.7c-5.4,4.3-9.6,6.4-12.9,6.4c-3.3,0-7.5-2.1-12.9-6.4c-7.9-6.2-8.9-10.1-8.9-12.7v-1.5H949.3z"/>
							<path class="st7" d="M845.4,183.9"/>
							<path class="st7" d="M880,158c12.4,0,22.5,10.1,22.5,22.5v1.5h-14.7v-1.5c0-4.3-3.5-7.8-7.8-7.8s-7.8,3.5-7.8,7.8v1.5h-14.7
								v-1.5C857.5,168.1,867.6,158,880,158z"/>
							<path class="st7" d="M999.7,182.4l0.4,0.4c1.8,1.7,4.5,3.8,6.4,4.9c1.9-1.1,4.6-3.2,6.4-4.9l0.4-0.4h14.9v1.5
								c0,2.6-1,6.5-8.9,12.7c-5.4,4.3-9.6,6.4-12.9,6.4s-7.5-2.1-12.9-6.4c-7.9-6.2-8.9-10.1-8.9-12.7v-1.5H999.7z"/>
							<path class="st7" d="M1050.1,182.4l0.4,0.4c1.8,1.7,4.5,3.8,6.4,4.9c1.9-1.1,4.6-3.2,6.4-4.9l0.4-0.4h14.9v1.5
								c0,2.6-1,6.5-8.9,12.7c-5.4,4.3-9.6,6.4-12.9,6.4s-7.5-2.1-12.9-6.4c-7.9-6.2-8.9-10.1-8.9-12.7v-1.5H1050.1z"/>
							<path class="st7" d="M1100.6,182.4l0.4,0.4c1.8,1.7,4.5,3.8,6.4,4.9c1.9-1.1,4.6-3.2,6.4-4.9l0.4-0.4h14.9v1.5
								c0,2.6-1,6.5-8.9,12.7c-5.4,4.3-9.6,6.4-12.9,6.4s-7.5-2.1-12.9-6.4c-7.9-6.2-8.9-10.1-8.9-12.7v-1.5H1100.6z"/>
							<path class="st7" d="M1151,182.4l0.4,0.4c1.8,1.7,4.5,3.8,6.4,4.9c1.9-1.1,4.6-3.2,6.4-4.9l0.4-0.4h14.9v1.5
								c0,2.6-1,6.5-8.9,12.7c-5.4,4.3-9.6,6.4-12.9,6.4s-7.5-2.1-12.9-6.4c-7.9-6.2-8.9-10.1-8.9-12.7v-1.5H1151z"/>
							<path class="st7" d="M1201.4,182.4l0.4,0.4c1.8,1.7,4.5,3.8,6.4,4.9c1.9-1.1,4.6-3.2,6.4-4.9l0.4-0.4h14.9v1.5
								c0,2.6-1,6.5-8.9,12.7c-5.4,4.3-9.6,6.4-12.9,6.4s-7.5-2.1-12.9-6.4c-7.9-6.2-8.9-10.1-8.9-12.7v-1.5H1201.4z"/>
							<path class="st7" d="M1251.9,182.4l0.4,0.4c1.8,1.7,4.5,3.8,6.4,4.9c1.9-1.1,4.6-3.2,6.4-4.9l0.4-0.4h14.9v1.5
								c0,2.6-1,6.5-8.9,12.7c-5.4,4.3-9.6,6.4-12.9,6.4s-7.5-2.1-12.9-6.4c-7.9-6.2-8.9-10.1-8.9-12.7v-1.5H1251.9z"/>
							<path class="st7" d="M1352.7,182.4l0.4,0.4c1.8,1.7,4.5,3.8,6.4,4.9c1.9-1.1,4.6-3.2,6.4-4.9l0.4-0.4h14.9v1.5
								c0,2.6-1,6.5-8.9,12.7c-5.4,4.3-9.6,6.4-12.9,6.4s-7.5-2.1-12.9-6.4c-7.9-6.2-8.9-10.1-8.9-12.7v-1.5H1352.7z"/>
							<path class="st7" d="M1302.3,182.4l0.4,0.4c1.8,1.7,4.5,3.8,6.4,4.9c1.9-1.1,4.6-3.2,6.4-4.9l0.4-0.4h14.9v1.5
								c0,2.6-1,6.5-8.9,12.7c-5.4,4.3-9.6,6.4-12.9,6.4s-7.5-2.1-12.9-6.4c-7.9-6.2-8.9-10.1-8.9-12.7v-1.5H1302.3z"/>
							<path class="st7" d="M1430.2,147.8c12-3.1,24.3,4.2,27.4,16.2l0.4,1.4l-14.2,3.6l-0.4-1.4c-1.1-4.2-5.3-6.7-9.5-5.6
								c-4.2,1.1-6.7,5.3-5.6,9.5l0.4,1.4l-14.2,3.6l-0.4-1.4C1410.9,163.1,1418.2,150.8,1430.2,147.8z"/>
							<path class="st7" d="M1479.1,135.3c12-3.1,24.3,4.2,27.4,16.2l0.4,1.4l-14.2,3.6l-0.4-1.4c-1.1-4.2-5.3-6.7-9.5-5.6
								c-4.2,1.1-6.7,5.3-5.6,9.5l0.4,1.4l-14.2,3.6l-0.4-1.4C1459.8,150.7,1467,138.4,1479.1,135.3z"/>
							<path class="st7" d="M1529.7,122.9c12-3.1,24.3,4.2,27.4,16.2l0.4,1.4l-14.2,3.6l-0.4-1.4c-1.1-4.2-5.3-6.7-9.5-5.6
								c-4.2,1.1-6.7,5.3-5.6,9.5l0.4,1.4l-14.2,3.6l-0.4-1.4C1510.4,138.2,1517.7,126,1529.7,122.9z"/>
							<path class="st7" d="M1405.2,179.4l0.5,0.3c2.1,1.2,5.3,2.6,7.4,3.2c1.5-1.6,3.7-4.3,5-6.4l0.3-0.5l14.5-3.7l0.4,1.4
								c0.7,2.6,0.6,6.5-5.5,14.5c-4.2,5.5-7.7,8.5-10.9,9.3c-3.2,0.8-7.8-0.2-14-3c-9.2-4.1-11.1-7.6-11.8-10.1l-0.4-1.4
								L1405.2,179.4z"/>
							<path class="st7" d="M1502.9,154.5l0.5,0.3c2.1,1.2,5.3,2.6,7.4,3.2c1.5-1.6,3.7-4.3,5-6.4l0.3-0.5l14.5-3.7l0.4,1.4
								c0.7,2.6,0.6,6.5-5.5,14.5c-4.2,5.5-7.7,8.5-10.9,9.3c-3.2,0.8-7.8-0.2-14-3c-9.2-4.1-11.1-7.6-11.8-10.1l-0.4-1.4
								L1502.9,154.5z"/>
							<path class="st7" d="M1454.1,166.9l0.5,0.3c2.1,1.2,5.3,2.6,7.4,3.2c1.5-1.6,3.7-4.3,5-6.4l0.3-0.5l14.5-3.7l0.4,1.4
								c0.7,2.6,0.6,6.5-5.5,14.5c-4.2,5.5-7.7,8.5-10.9,9.3c-3.2,0.8-7.8-0.2-14-3c-9.2-4.1-11.1-7.6-11.8-10.1l-0.4-1.4
								L1454.1,166.9z"/>
							<path class="st12" d="M1280.8,21c0,0,80.6,51.4,180.2,51.4V57.8c-99.6,0-180.2-51.4-180.2-51.4V21z"/>
							<path class="st13" d="M1280.8,35.7c0,0,80.6,51.4,180.2,51.4V72.5c-99.6,0-180.2-51.4-180.2-51.4V35.7z"/>
							<g>
								<path class="st7" d="M1280.8,81.6c0,0,12.7,11.8,22.5,11.8v-6.8c-9.8,0-22.5-11.8-22.5-11.8V81.6z"/>
							</g>
							<path class="st7" d="M855.7-33.7L855.7-33.7c-0.6,0-1.3,0-2,0s-1.3,0-2,0l0,0c-48.3,0.4-167.5,6.9-401.6-24.5v33.8
								C635.4,2.9,823.4,1.7,853.8,1.7c30.4,0.1,218.4,1.2,403.6-26.1v-33.8C1023.3-26.8,904-33.3,855.7-33.7z"/>
							<path class="st7" d="M851.8-9.1c23,0,215.7,1.9,405.5-26.1"/>
							<path class="st14" d="M855.7-64.1L855.7-64.1c-0.6,0-1.3,0-2,0s-1.3,0-2,0l0,0c-48.3,0.4-167.5,6.9-401.6-24.5v33.8
								c185.3,27.4,373.3,26.2,403.7,26.2c30.4,0.1,218.4,1.2,403.6-26.1v-33.8C1023.3-57.1,904-63.7,855.7-64.1z"/>
							<path class="st10" d="M404.4,86.6c0,0-46.6,39.2-136.3,39.2c-49,0-93.6-14.3-124.1-27.3v11.7c30.5,13,75.2,27.3,124.1,27.3
								c89.7,0,136.3-39.2,136.3-39.2l-0.2-11.7"/>
							<path class="st11" d="M404.2,74.8c0,0-46.6,39.2-136.3,39.2s-165-48-165-48v11.7c0,0,75.3,48,165,48s136.3-39.2,136.3-39.2
								V74.8z"/>
							<path class="st11" d="M404.4,110c0,0-46.6,39.2-136.3,39.2c-49,0-93.6-14.3-124.1-27.3v-11.7c30.5,13,75.2,27.3,124.1,27.3
								c89.7,0,136.3-39.2,136.3-39.2V110z"/>
							<path class="st7" d="M277.3,147.8c-12-3.1-24.3,4.2-27.4,16.2l-0.4,1.4l14.2,3.6l0.4-1.4c1.1-4.2,5.3-6.7,9.5-5.6
								c4.2,1.1,6.7,5.3,5.6,9.5l-0.4,1.4l14.2,3.6l0.4-1.4C296.7,163.1,289.4,150.8,277.3,147.8z"/>
							<path class="st7" d="M228.5,135.3c-12-3.1-24.3,4.2-27.4,16.2l-0.4,1.4l14.2,3.6l0.4-1.4c1.1-4.2,5.3-6.7,9.5-5.6
								c4.2,1.1,6.7,5.3,5.6,9.5l-0.4,1.4l14.2,3.6l0.4-1.4C247.8,150.7,240.5,138.4,228.5,135.3z"/>
							<path class="st7" d="M177.9,122.9c-12-3.1-24.3,4.2-27.4,16.2l-0.4,1.4l14.2,3.6l0.4-1.4c1.1-4.2,5.3-6.7,9.5-5.6
								c4.2,1.1,6.7,5.3,5.6,9.5l-0.4,1.4l14.2,3.6l0.4-1.4C197.2,138.2,189.9,126,177.9,122.9z"/>
							<path class="st7" d="M204.6,154.5l-0.5,0.3c-2.1,1.2-5.3,2.6-7.4,3.2c-1.5-1.6-3.7-4.3-5-6.4l-0.3-0.5l-14.5-3.7l-0.4,1.4
								c-0.7,2.6-0.6,6.5,5.5,14.5c4.2,5.5,7.7,8.5,10.9,9.3s7.8-0.2,14-3c9.2-4.1,11.1-7.6,11.8-10.1l0.4-1.4L204.6,154.5z"/>
							<path class="st7" d="M253.5,166.9l-0.5,0.3c-2.1,1.2-5.3,2.6-7.4,3.2c-1.5-1.6-3.7-4.3-5-6.4l-0.3-0.5l-14.5-3.7l-0.4,1.4
								c-0.7,2.6-0.6,6.5,5.5,14.5c4.2,5.5,7.7,8.5,10.9,9.3c3.2,0.8,7.8-0.2,14-3c9.2-4.1,11.1-7.6,11.8-10.1l0.4-1.4L253.5,166.9z
								"/>
							<path class="st12" d="M426.7,21c0,0-80.6,51.4-180.2,51.4V57.8c99.6,0,180.2-51.4,180.2-51.4V21z"/>
							<path class="st13" d="M426.7,35.7c0,0-80.6,51.4-180.2,51.4V72.5c99.6,0,180.2-51.4,180.2-51.4V35.7z"/>
							<path class="st7" d="M855.7-9.1c-23,0-215.7,1.9-405.5-26.1"/>
							<rect x="431.6" y="53.3" class="st15" width="13.7" height="55.8"/>
							<rect x="1262.2" y="53.3" class="st15" width="13.7" height="55.8"/>
						</g>
					</g>
				</g>
				<line class="st8" x1="425.3" y1="1.5" x2="1006.3" y2="1.7"/>
			</g>
			<g>
				<g>
					<g>
						<defs>
							<rect id="SVGID_00000138543675255366722390000015775184616407664549_" x="-60.6" y="2.9" width="966" height="243.1"/>
						</defs>
						<clipPath id="SVGID_00000055700276706355134410000014733553436820232600_">
							<use xlink:href="#SVGID_00000138543675255366722390000015775184616407664549_"  style="overflow:visible;"/>
						</clipPath>
						<g style="clip-path:url(#SVGID_00000055700276706355134410000014733553436820232600_);">
							<path class="st7" d="M1434.1,114l-89.1,1.7V86.6L1174.4,21l-3.6-35.2l-3.6-35.2l0,0l0,0L753-22.6L338.8-49.4l0,0l0,0
								l-3.6,35.2L331.6,21L161,86.6v29.1L71.9,114L84,149.4l1,0.2l0.7,0.2v2.3c0,6.5,5.3,11.7,11.7,11.7h2.9c5,0,9.2-3.1,10.9-7.5
								l22.5,5.8c-0.1,0.6-0.1,1.1-0.1,1.7v1c0,6.5,5.3,11.7,11.7,11.7h1c5.3,0,9.7-3.5,11.2-8.3l28.9,7.4v1.9
								c0,6.5,5.3,11.7,11.7,11.7h3.9c4.7,0,8.8-2.8,10.7-6.8h24.1c1.5,5.1,6.2,8.8,11.7,8.8c5.6,0,10.3-3.7,11.7-8.8h26.9
								c0.3,6,5.2,10.8,11.2,10.8s11-4.8,11.2-10.8h24.6c-0.1,0.6-0.2,1.3-0.2,2c0,7,5.7,12.7,12.7,12.7s12.7-5.7,12.7-12.7
								c0-0.7-0.1-1.3-0.2-2h28.5c0,5.9,4.8,10.8,10.8,10.8s10.8-4.8,10.8-10.8h30.2c1.7,4,5.7,6.8,10.4,6.8c4.7,0,8.6-2.8,10.4-6.8
								h25.3c0,7,5.7,12.7,12.7,12.7s12.7-5.7,12.7-12.7h26.4c0,7,5.7,12.7,12.7,12.7s12.7-5.7,12.7-12.7h26.7
								c0,7,5.7,12.7,12.7,12.7s12.7-5.7,12.7-12.7h26.4c0,7,5.7,12.7,12.7,12.7s12.7-5.7,12.7-12.7H693c0,7,5.7,12.7,12.7,12.7
								s12.7-5.7,12.7-12.7h17.1c0,7,5.7,12.7,12.7,12.7c1.6,0,3.2-0.3,4.6-0.9c1.4,0.6,3,0.9,4.6,0.9c7,0,12.7-5.7,12.7-12.7h17.1
								c0,7,5.7,12.7,12.7,12.7s12.7-5.7,12.7-12.7H839c0,7,5.7,12.7,12.7,12.7s12.7-5.7,12.7-12.7h26.4c0,7,5.7,12.7,12.7,12.7
								s12.7-5.7,12.7-12.7h26.4c0,7,5.7,12.7,12.7,12.7s12.7-5.7,12.7-12.7h26.4c0,7,5.7,12.7,12.7,12.7s12.7-5.7,12.7-12.7h25.3
								c1.7,4,5.7,6.8,10.4,6.8s8.6-2.8,10.4-6.8h30.2c0,5.9,4.8,10.8,10.8,10.8c5.9,0,10.8-4.8,10.8-10.8h28.5
								c-0.1,0.6-0.2,1.3-0.2,2c0,7,5.7,12.7,12.7,12.7s12.7-5.7,12.7-12.7c0-0.7-0.1-1.3-0.2-2h24.6c0.3,6,5.2,10.8,11.2,10.8
								s11-4.8,11.2-10.8h26.9c1.5,5.1,6.2,8.8,11.7,8.8c5.6,0,10.3-3.7,11.7-8.8h24.1c1.9,4,5.9,6.8,10.7,6.8h3.9
								c6.5,0,11.7-5.3,11.7-11.7v-1.9l28.9-7.4c1.5,4.8,6,8.3,11.2,8.3h1c6.5,0,11.7-5.3,11.7-11.7v-1c0-0.6-0.1-1.2-0.1-1.7
								l22.5-5.8c1.7,4.4,6,7.5,10.9,7.5h2.9c6.5,0,11.7-5.3,11.7-11.7v-2.3l0.7-0.2l1-0.2L1434.1,114z"/>
							<g>
								<line class="st8" x1="745.3" y1="1.7" x2="745.3" y2="172"/>
								<line class="st8" x1="732.6" y1="1.7" x2="732.6" y2="172"/>
								<line class="st8" x1="719.9" y1="1.7" x2="719.9" y2="172"/>
								<line class="st8" x1="707.2" y1="1.7" x2="707.2" y2="172"/>
								<line class="st8" x1="694.5" y1="1.7" x2="694.5" y2="172"/>
								<line class="st8" x1="681.7" y1="1.7" x2="681.7" y2="172"/>
								<line class="st8" x1="669" y1="1.7" x2="669" y2="172"/>
								<line class="st8" x1="656.3" y1="-35.5" x2="656.3" y2="172"/>
								<line class="st8" x1="643.6" y1="-35.5" x2="643.6" y2="172"/>
								<line class="st8" x1="630.9" y1="-35.5" x2="630.9" y2="172"/>
								<line class="st8" x1="618.2" y1="-35.5" x2="618.2" y2="172"/>
								<line class="st8" x1="605.4" y1="-35.5" x2="605.4" y2="172"/>
								<line class="st8" x1="592.7" y1="-35.5" x2="592.7" y2="172"/>
								<line class="st8" x1="580" y1="-35.5" x2="580" y2="172"/>
								<line class="st8" x1="567.3" y1="-35.5" x2="567.3" y2="172"/>
								<line class="st8" x1="554.6" y1="-35.5" x2="554.6" y2="172"/>
								<line class="st8" x1="541.9" y1="-35.5" x2="541.9" y2="172"/>
								<line class="st8" x1="529.1" y1="-35.5" x2="529.1" y2="172"/>
								<line class="st8" x1="516.4" y1="-35.5" x2="516.4" y2="172"/>
								<line class="st8" x1="503.7" y1="-35.5" x2="503.7" y2="172"/>
								<line class="st8" x1="491" y1="-35.5" x2="491" y2="172"/>
								<line class="st8" x1="478.3" y1="-35.5" x2="478.3" y2="172"/>
								<line class="st8" x1="465.6" y1="-35.5" x2="465.6" y2="172"/>
								<line class="st8" x1="452.8" y1="-35.5" x2="452.8" y2="172"/>
								<line class="st8" x1="440.1" y1="-35.5" x2="440.1" y2="172"/>
								<line class="st8" x1="427.4" y1="-35.5" x2="427.4" y2="172"/>
								<line class="st8" x1="414.7" y1="-35.5" x2="414.7" y2="172"/>
								<line class="st8" x1="402" y1="-35.5" x2="402" y2="172"/>
								<line class="st8" x1="389.3" y1="-35.5" x2="389.3" y2="172"/>
								<line class="st8" x1="376.5" y1="-35.5" x2="376.5" y2="172"/>
								<line class="st8" x1="363.8" y1="-35.5" x2="363.8" y2="172"/>
								<line class="st8" x1="351.1" y1="-35.5" x2="351.1" y2="172"/>
								<line class="st8" x1="338.4" y1="82.2" x2="338.4" y2="172"/>
								<line class="st8" x1="325.7" y1="1.7" x2="325.7" y2="172"/>
								<line class="st8" x1="313" y1="39.8" x2="313" y2="172"/>
								<line class="st8" x1="300.2" y1="39.8" x2="300.2" y2="172"/>
								<line class="st8" x1="287.5" y1="47.7" x2="287.5" y2="172"/>
								<line class="st8" x1="274.8" y1="47.7" x2="274.8" y2="172"/>
								<line class="st8" x1="262.1" y1="47.7" x2="262.1" y2="172"/>
								<line class="st8" x1="249.4" y1="47.7" x2="249.4" y2="172"/>
								<line class="st8" x1="236.7" y1="59.4" x2="236.7" y2="172"/>
								<line class="st8" x1="224" y1="59.4" x2="224" y2="172"/>
								<line class="st8" x1="211.2" y1="59.4" x2="211.2" y2="172"/>
								<line class="st8" x1="198.5" y1="59.4" x2="198.5" y2="172"/>
								<line class="st8" x1="185.8" y1="59.4" x2="185.8" y2="172"/>
								<line class="st8" x1="173.1" y1="59.4" x2="173.1" y2="155.5"/>
								<line class="st8" x1="1344.6" y1="114" x2="1344.6" y2="86.6"/>
								<line class="st8" x1="760.3" y1="1.7" x2="760.3" y2="172"/>
								<line class="st8" x1="773" y1="1.7" x2="773" y2="172"/>
								<line class="st8" x1="785.7" y1="1.7" x2="785.7" y2="172"/>
								<line class="st8" x1="798.5" y1="1.7" x2="798.5" y2="172"/>
								<line class="st8" x1="811.2" y1="1.7" x2="811.2" y2="172"/>
								<line class="st8" x1="823.9" y1="1.7" x2="823.9" y2="172"/>
								<line class="st8" x1="836.6" y1="1.7" x2="836.6" y2="172"/>
								<line class="st8" x1="849.3" y1="-35.5" x2="849.3" y2="172"/>
								<line class="st8" x1="862" y1="-35.5" x2="862" y2="172"/>
								<line class="st8" x1="874.8" y1="-35.5" x2="874.8" y2="172"/>
								<line class="st8" x1="887.5" y1="-35.5" x2="887.5" y2="172"/>
								<line class="st8" x1="900.2" y1="-35.5" x2="900.2" y2="172"/>
								<line class="st8" x1="912.9" y1="-35.5" x2="912.9" y2="172"/>
								<line class="st8" x1="925.6" y1="-35.5" x2="925.6" y2="172"/>
								<line class="st8" x1="938.3" y1="-35.5" x2="938.3" y2="172"/>
								<line class="st8" x1="951.1" y1="-35.5" x2="951.1" y2="172"/>
								<line class="st8" x1="963.8" y1="-35.5" x2="963.8" y2="172"/>
								<line class="st8" x1="976.5" y1="-35.5" x2="976.5" y2="172"/>
								<line class="st8" x1="989.2" y1="-35.5" x2="989.2" y2="172"/>
								<line class="st8" x1="1001.9" y1="-35.5" x2="1001.9" y2="172"/>
								<line class="st8" x1="1014.6" y1="-35.5" x2="1014.6" y2="172"/>
								<line class="st8" x1="1027.4" y1="-35.5" x2="1027.4" y2="172"/>
								<line class="st8" x1="1040.1" y1="-35.5" x2="1040.1" y2="172"/>
								<line class="st8" x1="1052.8" y1="-35.5" x2="1052.8" y2="172"/>
								<line class="st8" x1="1065.5" y1="-35.5" x2="1065.5" y2="172"/>
								<line class="st8" x1="1078.2" y1="-35.5" x2="1078.2" y2="172"/>
								<line class="st8" x1="1090.9" y1="-35.5" x2="1090.9" y2="172"/>
								<line class="st8" x1="1103.7" y1="-35.5" x2="1103.7" y2="172"/>
								<line class="st8" x1="1116.4" y1="-35.5" x2="1116.4" y2="172"/>
								<line class="st8" x1="1129.1" y1="-35.5" x2="1129.1" y2="172"/>
								<line class="st8" x1="1141.8" y1="-35.5" x2="1141.8" y2="172"/>
								<line class="st8" x1="1154.5" y1="-35.5" x2="1154.5" y2="172"/>
								<line class="st8" x1="1167.2" y1="82.2" x2="1167.2" y2="172"/>
								<line class="st8" x1="1180" y1="1.7" x2="1180" y2="172"/>
								<line class="st8" x1="1192.7" y1="39.8" x2="1192.7" y2="172"/>
								<line class="st8" x1="1205.4" y1="39.8" x2="1205.4" y2="172"/>
								<line class="st8" x1="1218.1" y1="47.7" x2="1218.1" y2="172"/>
								<line class="st8" x1="1230.8" y1="47.7" x2="1230.8" y2="172"/>
								<line class="st8" x1="1243.5" y1="47.7" x2="1243.5" y2="172"/>
								<line class="st8" x1="1256.2" y1="47.7" x2="1256.2" y2="172"/>
								<line class="st8" x1="1269" y1="59.4" x2="1269" y2="172"/>
								<line class="st8" x1="1281.7" y1="59.4" x2="1281.7" y2="172"/>
								<line class="st8" x1="1294.4" y1="59.4" x2="1294.4" y2="172"/>
								<line class="st8" x1="1307.1" y1="59.4" x2="1307.1" y2="172"/>
								<line class="st8" x1="1319.8" y1="59.4" x2="1319.8" y2="172"/>
								<line class="st8" x1="1332.5" y1="59.4" x2="1332.5" y2="155.5"/>
								<line class="st8" x1="161" y1="114" x2="161" y2="86.6"/>
							</g>
							<path class="st9" d="M349.3-102.5c0-11.1-9.8-16.3-9.8-16.3s6.8-2,6.8-8.8s-8.8-8.7-8.8-8.7c0-16.5-22-21.1-22-21.1l-5.7-6.1
								c-3.2-3.5-4.2-8.3-2.9-12.9c0.3-1,0.4-2.1,0.2-3.2c-0.5-3.5-3.3-6.3-6.8-6.7c-5.2-0.6-9.5,3.9-8.6,9.1c0.5,3,2.8,5.5,5.7,6.3
								h0.1c3.6,0.9,6.7,3,8.5,6.2l17.5,29.5c4.1,6.9,6.2,14.8,6.2,22.8v21l28.3,10C361.9-95,349.3-102.5,349.3-102.5z"/>
							<path class="st9" d="M1156.4-102.5c0-11.1,9.8-16.3,9.8-16.3s-6.8-2-6.8-8.8s8.8-8.7,8.8-8.7c0-16.5,22-21.1,22-21.1l5.7-6.1
								c3.2-3.5,4.2-8.3,2.9-12.9c-0.3-1-0.4-2.1-0.2-3.2c0.5-3.5,3.3-6.3,6.8-6.7c5.2-0.6,9.5,3.9,8.6,9.1c-0.5,3-2.8,5.5-5.7,6.3
								h-0.1c-3.6,0.9-6.7,3-8.5,6.2l-17.5,29.5c-4.1,6.9-6.2,14.8-6.2,22.8v21l-28.3,10C1143.7-95,1156.4-102.5,1156.4-102.5z"/>
							<rect x="325.8" y="-97.3" class="st7" width="23.5" height="199.5"/>
							<path class="st7" d="M710.4,183.9"/>
							<path class="st7" d="M675.7,158c-12.4,0-22.5,10.1-22.5,22.5v1.5h14.7v-1.5c0-4.3,3.5-7.8,7.8-7.8s7.8,3.5,7.8,7.8v1.5h14.7
								v-1.5C698.2,168.1,688.1,158,675.7,158z"/>
							<path class="st7" d="M625.3,158c-12.4,0-22.5,10.1-22.5,22.5v1.5h14.6v-1.5c0-4.3,3.5-7.8,7.8-7.8s7.8,3.5,7.8,7.8v1.5h14.7
								v-1.5C647.8,168.1,637.7,158,625.3,158z"/>
							<path class="st7" d="M574.8,158c-12.4,0-22.5,10.1-22.5,22.5v1.5H567v-1.5c0-4.3,3.5-7.8,7.8-7.8s7.8,3.5,7.8,7.8v1.5h14.7
								v-1.5C597.3,168.1,587.2,158,574.8,158z"/>
							<path class="st7" d="M524.4,158c-12.4,0-22.5,10.1-22.5,22.5v1.5h14.7v-1.5c0-4.3,3.5-7.8,7.8-7.8s7.8,3.5,7.8,7.8v1.5h14.7
								v-1.5C546.9,168.1,536.8,158,524.4,158z"/>
							<path class="st7" d="M474,158c-12.4,0-22.5,10.1-22.5,22.5v1.5h14.7v-1.5c0-4.3,3.5-7.8,7.8-7.8s7.8,3.5,7.8,7.8v1.5h14.7
								v-1.5C496.5,168.1,486.4,158,474,158z"/>
							<path class="st7" d="M423.5,158c-12.4,0-22.5,10.1-22.5,22.5v1.5h14.7v-1.5c0-4.3,3.5-7.8,7.8-7.8s7.8,3.5,7.8,7.8v1.5H446
								v-1.5C446,168.1,436,158,423.5,158z"/>
							<path class="st7" d="M373.1,158c-12.4,0-22.5,10.1-22.5,22.5v1.5h14.7v-1.5c0-4.3,3.5-7.8,7.8-7.8s7.8,3.5,7.8,7.8v1.5h14.7
								v-1.5C395.6,168.1,385.5,158,373.1,158z"/>
							<path class="st7" d="M322.7,158c-12.4,0-22.5,10.1-22.5,22.5v1.5h14.7v-1.5c0-4.3,3.5-7.8,7.8-7.8s7.8,3.5,7.8,7.8v1.5h14.7
								v-1.5C345.2,168.1,335.1,158,322.7,158z"/>
							<path class="st7" d="M272.3,158c-12.4,0-22.5,10.1-22.5,22.5v1.5h14.6v-1.5c0-4.3,3.5-7.8,7.8-7.8s7.8,3.5,7.8,7.8v1.5h14.7
								v-1.5C294.8,168.1,284.7,158,272.3,158z"/>
							<path class="st7" d="M220.1,158.5c-12.4,0-22.5,10.1-22.5,22.5v1.5h14.7V181c0-4.3,3.5-7.8,7.8-7.8s7.8,3.5,7.8,7.8v1.5h14.7
								V181C242.6,168.6,232.5,158.5,220.1,158.5z"/>
							<path class="st7" d="M707.7,182.4l-0.4,0.4c-1.8,1.7-4.5,3.8-6.4,4.9c-1.9-1.1-4.6-3.2-6.4-4.9l-0.4-0.4h-14.9v1.5
								c0,2.6,1,6.5,8.9,12.7c5.4,4.3,9.6,6.4,12.9,6.4s7.5-2.1,12.9-6.4c7.9-6.2,8.9-10.1,8.9-12.7v-1.5H707.7z"/>
							<path class="st7" d="M657.3,182.4l-0.4,0.4c-1.8,1.7-4.5,3.8-6.4,4.9c-1.9-1.1-4.6-3.2-6.4-4.9l-0.4-0.4h-14.9v1.5
								c0,2.6,1,6.5,8.9,12.7c5.4,4.3,9.6,6.4,12.9,6.4s7.5-2.1,12.9-6.4c7.9-6.2,8.9-10.1,8.9-12.7v-1.5H657.3z"/>
							<path class="st7" d="M761.2,183.9"/>
							<path class="st7" d="M726.6,158c-12.4,0-22.5,10.1-22.5,22.5v1.5h14.7v-1.5c0-4.3,3.5-7.8,7.8-7.8s7.8,3.5,7.8,7.8v1.5h14.7
								v-1.5C749.1,168.1,739,158,726.6,158z"/>
							<path class="st7" d="M758.6,182.4l-0.4,0.4c-1.8,1.7-4.5,3.8-6.4,4.9c-1.9-1.1-4.6-3.2-6.4-4.9l-0.4-0.4h-14.9v1.5
								c0,2.6,1,6.5,8.9,12.7c5.4,4.3,9.6,6.4,12.9,6.4s7.5-2.1,12.9-6.4c7.9-6.2,8.9-10.1,8.9-12.7v-1.5H758.6z"/>
							<path class="st7" d="M606.9,182.4l-0.4,0.4c-1.8,1.7-4.5,3.8-6.4,4.9c-1.9-1.1-4.6-3.2-6.4-4.9l-0.4-0.4h-14.9v1.5
								c0,2.6,1,6.5,8.9,12.7c5.4,4.3,9.6,6.4,12.9,6.4s7.5-2.1,12.9-6.4c7.9-6.2,8.9-10.1,8.9-12.7v-1.5H606.9z"/>
							<path class="st7" d="M556.4,182.4l-0.4,0.4c-1.8,1.7-4.5,3.8-6.4,4.9c-1.9-1.1-4.6-3.2-6.4-4.9l-0.4-0.4h-14.9v1.5
								c0,2.6,1,6.5,8.9,12.7c5.4,4.3,9.6,6.4,12.9,6.4s7.5-2.1,12.9-6.4c7.9-6.2,8.9-10.1,8.9-12.7v-1.5H556.4z"/>
							<path class="st7" d="M506,182.4l-0.4,0.4c-1.8,1.7-4.5,3.8-6.4,4.9c-1.9-1.1-4.6-3.2-6.4-4.9l-0.4-0.4h-15v1.5
								c0,2.6,1,6.5,8.9,12.7c5.4,4.3,9.6,6.4,12.9,6.4s7.5-2.1,12.9-6.4c7.9-6.2,8.9-10.1,8.9-12.7v-1.5H506z"/>
							<path class="st7" d="M455.6,182.4l-0.4,0.4c-1.8,1.7-4.5,3.8-6.4,4.9c-1.9-1.1-4.6-3.2-6.4-4.9l-0.4-0.4h-14.9v1.5
								c0,2.6,1,6.5,8.9,12.7c5.4,4.3,9.6,6.4,12.9,6.4s7.5-2.1,12.9-6.4c7.9-6.2,8.9-10.1,8.9-12.7v-1.5H455.6z"/>
							<path class="st7" d="M405.1,182.4l-0.4,0.4c-1.8,1.7-4.5,3.8-6.4,4.9c-1.9-1.1-4.6-3.2-6.4-4.9l-0.4-0.4h-14.9v1.5
								c0,2.6,1,6.5,8.9,12.7c5.4,4.3,9.6,6.4,12.9,6.4s7.5-2.1,12.9-6.4c7.9-6.2,8.9-10.1,8.9-12.7v-1.5H405.1z"/>
							<path class="st7" d="M354.7,182.4l-0.4,0.4c-1.8,1.7-4.5,3.8-6.4,4.9c-1.9-1.1-4.6-3.2-6.4-4.9l-0.4-0.4h-14.9v1.5
								c0,2.6,1,6.5,8.9,12.7c5.4,4.3,9.6,6.4,12.9,6.4s7.5-2.1,12.9-6.4c7.9-6.2,8.9-10.1,8.9-12.7v-1.5H354.7z"/>
							<path class="st7" d="M253.9,182.4l-0.4,0.4c-1.8,1.7-4.5,3.8-6.4,4.9c-1.9-1.1-4.6-3.2-6.4-4.9l-0.4-0.4h-14.9v1.5
								c0,2.6,1,6.5,8.9,12.7c5.4,4.3,9.6,6.4,12.9,6.4s7.5-2.1,12.9-6.4c7.9-6.2,8.9-10.1,8.9-12.7v-1.5H253.9z"/>
							<path class="st7" d="M304.3,182.4l-0.4,0.4c-1.8,1.7-4.5,3.8-6.4,4.9c-1.9-1.1-4.6-3.2-6.4-4.9l-0.4-0.4h-14.9v1.5
								c0,2.6,1,6.5,8.9,12.7c5.4,4.3,9.6,6.4,12.9,6.4s7.5-2.1,12.9-6.4c7.9-6.2,8.9-10.1,8.9-12.7v-1.5H304.3z"/>
							<path class="st7" d="M201.4,179.4l-0.5,0.3c-2.1,1.2-5.3,2.6-7.4,3.2c-1.5-1.6-3.7-4.3-5-6.4l-0.3-0.5l-14.5-3.7l-0.4,1.4
								c-0.7,2.6-0.6,6.5,5.5,14.5c4.2,5.5,7.7,8.5,10.9,9.3s7.8-0.2,14-3c9.2-4.1,11.1-7.6,11.8-10.1l0.4-1.4L201.4,179.4z"/>
							<g>
								<path class="st7" d="M325.8,81.6c0,0-12.7,11.8-22.5,11.8v-6.8c9.8,0,22.5-11.8,22.5-11.8V81.6z"/>
							</g>
							<path class="st10" d="M1202.2,86.6c0,0,46.6,39.2,136.3,39.2c49,0,93.6-14.3,124.1-27.3v11.7c-30.5,13-75.2,27.3-124.1,27.3
								c-89.7,0-136.3-39.2-136.3-39.2l0.2-11.7"/>
							<path class="st11" d="M1202.3,74.8c0,0,46.6,39.2,136.3,39.2c89.7,0,165-48,165-48v11.7c0,0-75.3,48-165,48
								s-136.3-39.2-136.3-39.2V74.8z"/>
							<path class="st11" d="M1202.2,110c0,0,46.6,39.2,136.3,39.2c49,0,93.6-14.3,124.1-27.3v-11.7c-30.5,13-75.2,27.3-124.1,27.3
								c-89.7,0-136.3-39.2-136.3-39.2V110z"/>
							<rect x="1156.3" y="-97.3" class="st7" width="23.5" height="199.5"/>
							<path class="st7" d="M795.3,183.9"/>
							<path class="st7" d="M829.9,158c12.4,0,22.5,10.1,22.5,22.5v1.5h-14.7v-1.5c0-4.3-3.5-7.8-7.8-7.8s-7.8,3.5-7.8,7.8v1.5
								h-14.7v-1.5C807.4,168.1,817.5,158,829.9,158z"/>
							<path class="st7" d="M880.4,158c12.4,0,22.5,10.1,22.5,22.5v1.5h-14.7v-1.5c0-4.3-3.5-7.8-7.8-7.8s-7.8,3.5-7.8,7.8v1.5
								h-14.7v-1.5C857.9,168.1,868,158,880.4,158z"/>
							<path class="st7" d="M930.8,158c12.4,0,22.5,10.1,22.5,22.5v1.5h-14.7v-1.5c0-4.3-3.5-7.8-7.8-7.8s-7.8,3.5-7.8,7.8v1.5
								h-14.7v-1.5C908.3,168.1,918.4,158,930.8,158z"/>
							<path class="st7" d="M981.2,158c12.4,0,22.5,10.1,22.5,22.5v1.5H989v-1.5c0-4.3-3.5-7.8-7.8-7.8s-7.8,3.5-7.8,7.8v1.5h-14.7
								v-1.5C958.7,168.1,968.8,158,981.2,158z"/>
							<path class="st7" d="M1031.7,158c12.4,0,22.5,10.1,22.5,22.5v1.5h-14.7v-1.5c0-4.3-3.5-7.8-7.8-7.8s-7.8,3.5-7.8,7.8v1.5
								h-14.7v-1.5C1009.2,168.1,1019.3,158,1031.7,158z"/>
							<path class="st7" d="M1082.1,158c12.4,0,22.5,10.1,22.5,22.5v1.5h-14.7v-1.5c0-4.3-3.5-7.8-7.8-7.8s-7.8,3.5-7.8,7.8v1.5
								h-14.7v-1.5C1059.6,168.1,1069.7,158,1082.1,158z"/>
							<path class="st7" d="M1132.5,158c12.4,0,22.5,10.1,22.5,22.5v1.5h-14.7v-1.5c0-4.3-3.5-7.8-7.8-7.8s-7.8,3.5-7.8,7.8v1.5
								H1110v-1.5C1110,168.1,1120.1,158,1132.5,158z"/>
							<path class="st7" d="M1182.9,158c12.4,0,22.5,10.1,22.5,22.5v1.5h-14.7v-1.5c0-4.3-3.5-7.8-7.8-7.8s-7.8,3.5-7.8,7.8v1.5
								h-14.7v-1.5C1160.5,168.1,1170.5,158,1182.9,158z"/>
							<path class="st7" d="M1233.4,158c12.4,0,22.5,10.1,22.5,22.5v1.5h-14.7v-1.5c0-4.3-3.5-7.8-7.8-7.8s-7.8,3.5-7.8,7.8v1.5
								h-14.7v-1.5C1210.9,168.1,1221,158,1233.4,158z"/>
							<path class="st7" d="M1285.5,158.5c12.4,0,22.5,10.1,22.5,22.5v1.5h-14.7V181c0-4.3-3.5-7.8-7.8-7.8s-7.8,3.5-7.8,7.8v1.5
								H1263V181C1263,168.6,1273.1,158.5,1285.5,158.5z"/>
							<path class="st7" d="M797.9,182.4l0.4,0.4c1.8,1.7,4.5,3.8,6.4,4.9c1.9-1.1,4.6-3.2,6.4-4.9l0.4-0.4h14.9v1.5
								c0,2.6-1,6.5-8.9,12.7c-5.4,4.3-9.6,6.4-12.9,6.4s-7.5-2.1-12.9-6.4c-7.9-6.2-8.9-10.1-8.9-12.7v-1.5H797.9z"/>
							<path class="st7" d="M848.3,182.4l0.4,0.4c1.8,1.7,4.5,3.8,6.4,4.9c1.9-1.1,4.6-3.2,6.4-4.9l0.4-0.4h14.9v1.5
								c0,2.6-1,6.5-8.9,12.7c-5.4,4.3-9.6,6.4-12.9,6.4s-7.5-2.1-12.9-6.4c-7.9-6.2-8.9-10.1-8.9-12.7v-1.5H848.3z"/>
							<path class="st7" d="M744.4,183.9"/>
							<path class="st7" d="M779.1,158c12.4,0,22.5,10.1,22.5,22.5v1.5h-14.7v-1.5c0-4.3-3.5-7.8-7.8-7.8s-7.8,3.5-7.8,7.8v1.5
								h-14.7v-1.5C756.6,168.1,766.7,158,779.1,158z"/>
							<path class="st7" d="M898.8,182.4l0.4,0.4c1.8,1.7,4.5,3.8,6.4,4.9c1.9-1.1,4.6-3.2,6.4-4.9l0.4-0.4h14.9v1.5
								c0,2.6-1,6.5-8.9,12.7c-5.4,4.3-9.6,6.4-12.9,6.4s-7.5-2.1-12.9-6.4c-7.9-6.2-8.9-10.1-8.9-12.7v-1.5H898.8z"/>
							<path class="st7" d="M949.2,182.4l0.4,0.4c1.8,1.7,4.5,3.8,6.4,4.9c1.9-1.1,4.6-3.2,6.4-4.9l0.4-0.4h14.9v1.5
								c0,2.6-1,6.5-8.9,12.7c-5.4,4.3-9.6,6.4-12.9,6.4s-7.5-2.1-12.9-6.4c-7.9-6.2-8.9-10.1-8.9-12.7v-1.5H949.2z"/>
							<path class="st7" d="M999.6,182.4l0.4,0.4c1.8,1.7,4.5,3.8,6.4,4.9c1.9-1.1,4.6-3.2,6.4-4.9l0.4-0.4h14.9v1.5
								c0,2.6-1,6.5-8.9,12.7c-5.4,4.3-9.6,6.4-12.9,6.4s-7.5-2.1-12.9-6.4c-7.9-6.2-8.9-10.1-8.9-12.7v-1.5H999.6z"/>
							<path class="st7" d="M1050.1,182.4l0.4,0.4c1.8,1.7,4.5,3.8,6.4,4.9c1.9-1.1,4.6-3.2,6.4-4.9l0.4-0.4h14.9v1.5
								c0,2.6-1,6.5-8.9,12.7c-5.4,4.3-9.6,6.4-12.9,6.4s-7.5-2.1-12.9-6.4c-7.9-6.2-8.9-10.1-8.9-12.7v-1.5H1050.1z"/>
							<path class="st7" d="M1100.5,182.4l0.4,0.4c1.8,1.7,4.5,3.8,6.4,4.9c1.9-1.1,4.6-3.2,6.4-4.9l0.4-0.4h14.9v1.5
								c0,2.6-1,6.5-8.9,12.7c-5.4,4.3-9.6,6.4-12.9,6.4s-7.5-2.1-12.9-6.4c-7.9-6.2-8.9-10.1-8.9-12.7v-1.5H1100.5z"/>
							<path class="st7" d="M1150.9,182.4l0.4,0.4c1.8,1.7,4.5,3.8,6.4,4.9c1.9-1.1,4.6-3.2,6.4-4.9l0.4-0.4h14.9v1.5
								c0,2.6-1,6.5-8.9,12.7c-5.4,4.3-9.6,6.4-12.9,6.4s-7.5-2.1-12.9-6.4c-7.9-6.2-8.9-10.1-8.9-12.7v-1.5H1150.9z"/>
							<path class="st7" d="M1251.8,182.4l0.4,0.4c1.8,1.7,4.5,3.8,6.4,4.9c1.9-1.1,4.6-3.2,6.4-4.9l0.4-0.4h14.9v1.5
								c0,2.6-1,6.5-8.9,12.7c-5.4,4.3-9.6,6.4-12.9,6.4s-7.5-2.1-12.9-6.4c-7.9-6.2-8.9-10.1-8.9-12.7v-1.5H1251.8z"/>
							<path class="st7" d="M1201.3,182.4l0.4,0.4c1.8,1.7,4.5,3.8,6.4,4.9c1.9-1.1,4.6-3.2,6.4-4.9l0.4-0.4h14.9v1.5
								c0,2.6-1,6.5-8.9,12.7c-5.4,4.3-9.6,6.4-12.9,6.4s-7.5-2.1-12.9-6.4c-7.9-6.2-8.9-10.1-8.9-12.7v-1.5H1201.3z"/>
							<path class="st7" d="M1329.2,147.8c12-3.1,24.3,4.2,27.4,16.2l0.4,1.4l-14.2,3.6l-0.4-1.4c-1.1-4.2-5.3-6.7-9.5-5.6
								c-4.2,1.1-6.7,5.3-5.6,9.5l0.4,1.4l-14.2,3.6l-0.4-1.4C1309.9,163.1,1317.2,150.8,1329.2,147.8z"/>
							<path class="st7" d="M1378.1,135.3c12-3.1,24.3,4.2,27.4,16.2l0.4,1.4l-14.2,3.6l-0.4-1.4c-1.1-4.2-5.3-6.7-9.5-5.6
								c-4.2,1.1-6.7,5.3-5.6,9.5l0.4,1.4l-14.2,3.6l-0.4-1.4C1358.8,150.7,1366.1,138.4,1378.1,135.3z"/>
							<path class="st7" d="M1428.7,122.9c12-3.1,24.3,4.2,27.4,16.2l0.4,1.4l-14.2,3.6l-0.4-1.4c-1.1-4.2-5.3-6.7-9.5-5.6
								c-4.2,1.1-6.7,5.3-5.6,9.5l0.4,1.4l-14.2,3.6l-0.4-1.4C1409.4,138.2,1416.7,126,1428.7,122.9z"/>
							<path class="st7" d="M1304.2,179.4l0.5,0.3c2.1,1.2,5.3,2.6,7.4,3.2c1.5-1.6,3.7-4.3,5-6.4l0.3-0.5l14.5-3.7l0.4,1.4
								c0.7,2.6,0.6,6.5-5.5,14.5c-4.2,5.5-7.7,8.5-10.9,9.3c-3.2,0.8-7.8-0.2-14-3c-9.2-4.1-11.1-7.6-11.8-10.1l-0.4-1.4
								L1304.2,179.4z"/>
							<path class="st7" d="M1402,154.5l0.5,0.3c2.1,1.2,5.3,2.6,7.4,3.2c1.5-1.6,3.7-4.3,5-6.4l0.3-0.5l14.5-3.7l0.4,1.4
								c0.7,2.6,0.6,6.5-5.5,14.5c-4.2,5.5-7.7,8.5-10.9,9.3c-3.2,0.8-7.8-0.2-14-3c-9.2-4.1-11.1-7.6-11.8-10.1l-0.4-1.4
								L1402,154.5z"/>
							<path class="st7" d="M1353.1,166.9l0.5,0.3c2.1,1.2,5.3,2.6,7.4,3.2c1.5-1.6,3.7-4.3,5-6.4l0.3-0.5l14.5-3.7l0.4,1.4
								c0.7,2.6,0.6,6.5-5.5,14.5c-4.2,5.5-7.7,8.5-10.9,9.3c-3.2,0.8-7.8-0.2-14-3c-9.2-4.1-11.1-7.6-11.8-10.1l-0.4-1.4
								L1353.1,166.9z"/>
							<path class="st12" d="M1179.9,21c0,0,80.6,51.4,180.2,51.4V57.8c-99.6,0-180.2-51.4-180.2-51.4V21z"/>
							<path class="st13" d="M1179.9,35.7c0,0,80.6,51.4,180.2,51.4V72.5c-99.6,0-180.2-51.4-180.2-51.4V35.7z"/>
							<g>
								<path class="st7" d="M1179.9,81.6c0,0,12.7,11.8,22.5,11.8v-6.8c-9.8,0-22.5-11.8-22.5-11.8V81.6z"/>
							</g>
							<path class="st7" d="M754.8-33.7L754.8-33.7c-0.6,0-1.3,0-2,0s-1.3,0-2,0l0,0c-48.3,0.4-167.5,6.9-401.6-24.5v33.8
								C534.5,2.9,722.5,1.7,752.8,1.7c30.4,0.1,218.4,1.2,403.6-26.1v-33.8C922.3-26.8,803-33.3,754.8-33.7z"/>
							<path class="st7" d="M750.9-9.1c23,0,215.7,1.9,405.5-26.1"/>
							<path class="st14" d="M754.8-64.1L754.8-64.1c-0.6,0-1.3,0-2,0s-1.3,0-2,0l0,0c-48.3,0.4-167.5,6.9-401.6-24.5v33.8
								c185.2,27.3,373.2,26.1,403.6,26.1c30.4,0.1,218.4,1.2,403.6-26.1v-33.8C922.3-57.1,803-63.7,754.8-64.1z"/>
							<path class="st10" d="M303.5,86.6c0,0-46.6,39.2-136.3,39.2c-49,0-93.6-14.3-124.1-27.3v11.7c30.5,13,75.2,27.3,124.1,27.3
								c89.7,0,136.3-39.2,136.3-39.2l-0.2-11.7"/>
							<path class="st11" d="M303.3,74.8c0,0-46.6,39.2-136.3,39.2S2,66,2,66v11.7c0,0,75.3,48,165,48s136.3-39.2,136.3-39.2V74.8z"
								/>
							<path class="st11" d="M303.5,110c0,0-46.6,39.2-136.3,39.2c-49,0-93.6-14.3-124.1-27.3v-11.7c30.5,13,75.2,27.3,124.1,27.3
								c89.7,0,136.3-39.2,136.3-39.2V110z"/>
							<path class="st7" d="M176.4,147.8c-12-3.1-24.3,4.2-27.4,16.2l-0.4,1.4l14.2,3.6l0.4-1.4c1.1-4.2,5.3-6.7,9.5-5.6
								c4.2,1.1,6.7,5.3,5.6,9.5l-0.4,1.4l14.2,3.6l0.4-1.4C195.7,163.1,188.4,150.8,176.4,147.8z"/>
							<path class="st7" d="M127.5,135.3c-12-3.1-24.3,4.2-27.4,16.2l-0.4,1.4l14.2,3.6l0.4-1.4c1.1-4.2,5.3-6.7,9.5-5.6
								c4.2,1.1,6.7,5.3,5.6,9.5l-0.4,1.4l14.2,3.6l0.4-1.4C146.8,150.7,139.5,138.4,127.5,135.3z"/>
							<path class="st7" d="M76.9,122.9c-12-3.1-24.3,4.2-27.4,16.2l-0.4,1.4l14.2,3.6l0.4-1.4c1.1-4.2,5.3-6.7,9.5-5.6
								c4.2,1.1,6.7,5.3,5.6,9.5l-0.4,1.4l14.2,3.6l0.4-1.4C96.2,138.2,88.9,126,76.9,122.9z"/>
							<path class="st7" d="M103.7,154.5l-0.5,0.3c-2.1,1.2-5.3,2.6-7.4,3.2c-1.5-1.6-3.7-4.3-5-6.4l-0.3-0.5L76,147.4l-0.4,1.4
								c-0.7,2.6-0.6,6.5,5.5,14.5c4.2,5.5,7.7,8.5,10.9,9.3s7.8-0.2,14-3c9.2-4.1,11.1-7.6,11.8-10.1l0.4-1.4L103.7,154.5z"/>
							<path class="st7" d="M152.5,166.9l-0.5,0.3c-2.1,1.2-5.3,2.6-7.4,3.2c-1.5-1.6-3.7-4.3-5-6.4l-0.3-0.5l-14.5-3.7l-0.4,1.4
								c-0.7,2.6-0.6,6.5,5.5,14.5c4.2,5.5,7.7,8.5,10.9,9.3s7.8-0.2,14-3c9.2-4.1,11.1-7.6,11.8-10.1l0.4-1.4L152.5,166.9z"/>
							<path class="st12" d="M325.8,21c0,0-80.6,51.4-180.2,51.4V57.8c99.6,0,180.2-51.4,180.2-51.4V21z"/>
							<path class="st13" d="M325.8,35.7c0,0-80.6,51.4-180.2,51.4V72.5c99.6,0,180.2-51.4,180.2-51.4V35.7z"/>
							<path class="st7" d="M754.8-9.1c-23,0-215.7,1.9-405.5-26.1"/>
							<rect x="330.7" y="53.3" class="st15" width="13.7" height="55.8"/>
							<rect x="1161.2" y="53.3" class="st15" width="13.7" height="55.8"/>
						</g>
					</g>
				</g>
				<line class="st8" x1="324.3" y1="1.5" x2="905.4" y2="1.7"/>
			</g>
			<g>
				<g>
					<g>
						<defs>
							<rect id="SVGID_00000034076200950449409700000010785420933961062290_" x="955.3" y="2.9" width="966" height="243.1"/>
						</defs>
						<clipPath id="SVGID_00000176755467382430315880000005705187630913848247_">
							<use xlink:href="#SVGID_00000034076200950449409700000010785420933961062290_"  style="overflow:visible;"/>
						</clipPath>
						<g style="clip-path:url(#SVGID_00000176755467382430315880000005705187630913848247_);">
							<path class="st7" d="M426.6,114l89.1,1.7V86.6L686.3,21l3.6-35.2l3.6-35.2l0,0l0,0l414.2,26.8l414.2-26.8l0,0l0,0l3.6,35.2
								l3.6,35.2l170.7,65.5v29.1l89.1-1.7l-12.1,35.4l-1,0.2l-0.7,0.2v2.3c0,6.5-5.3,11.7-11.7,11.7h-2.9c-5,0-9.2-3.1-10.9-7.5
								l-22.5,5.8c0.1,0.6,0.1,1.1,0.1,1.7v1c0,6.5-5.3,11.7-11.7,11.7h-1c-5.3,0-9.7-3.5-11.2-8.3l-28.9,7.4v1.9
								c0,6.5-5.3,11.7-11.7,11.7h-3.9c-4.7,0-8.8-2.8-10.7-6.8H1624c-1.5,5.1-6.2,8.8-11.7,8.8s-10.3-3.7-11.7-8.8h-26.9
								c-0.3,6-5.2,10.8-11.2,10.8s-11-4.8-11.2-10.8h-24.9c0.1,0.6,0.2,1.3,0.2,2c0,7-5.7,12.7-12.7,12.7s-12.7-5.7-12.7-12.7
								c0-0.7,0.1-1.3,0.2-2h-28.5c0,5.9-4.8,10.8-10.8,10.8c-5.9,0-10.8-4.8-10.8-10.8h-30.2c-1.7,4-5.7,6.8-10.4,6.8
								c-4.7,0-8.6-2.8-10.4-6.8H1375c0,7-5.7,12.7-12.7,12.7s-12.7-5.7-12.7-12.7h-26.4c0,7-5.7,12.7-12.7,12.7
								s-12.7-5.7-12.7-12.7h-26.4c0,7-5.7,12.7-12.7,12.7s-12.7-5.7-12.7-12.7h-26.4c0,7-5.7,12.7-12.7,12.7s-12.7-5.7-12.7-12.7
								h-26.4c0,7-5.7,12.7-12.7,12.7s-12.7-5.7-12.7-12.7h-17.1c0,7-5.7,12.7-12.7,12.7c-1.6,0-3.2-0.3-4.6-0.9
								c-1.4,0.6-3,0.9-4.6,0.9c-7,0-12.7-5.7-12.7-12.7h-17.1c0,7-5.7,12.7-12.7,12.7s-12.7-5.7-12.7-12.7h-26.8
								c0,7-5.7,12.7-12.7,12.7s-12.7-5.7-12.7-12.7h-26.4c0,7-5.7,12.7-12.7,12.7c-7,0-12.7-5.7-12.7-12.7h-26.4
								c0,7-5.7,12.7-12.7,12.7s-12.7-5.7-12.7-12.7H866c0,7-5.7,12.7-12.7,12.7s-12.7-5.7-12.7-12.7h-25.3c-1.7,4-5.7,6.8-10.4,6.8
								s-8.6-2.8-10.4-6.8h-30.2c0,5.9-4.8,10.8-10.8,10.8c-5.9,0-10.8-4.8-10.8-10.8h-28.5c0.1,0.6,0.2,1.3,0.2,2
								c0,7-5.7,12.7-12.7,12.7s-12.7-5.7-12.7-12.7c0-0.7,0.1-1.3,0.2-2h-24.6c-0.3,6-5.2,10.8-11.2,10.8s-11-4.8-11.2-10.8h-26.9
								c-1.5,5.1-6.2,8.8-11.7,8.8c-5.6,0-10.3-3.7-11.7-8.8h-24.5c-1.9,4-5.9,6.8-10.7,6.8h-3.9c-6.5,0-11.7-5.3-11.7-11.7v-1.9
								l-28.9-7.4c-1.5,4.8-6,8.3-11.2,8.3h-1c-6.5,0-11.7-5.3-11.7-11.7v-1c0-0.6,0.1-1.2,0.1-1.7l-22.5-5.8
								c-1.7,4.4-6,7.5-10.9,7.5h-2.9c-6.5,0-11.7-5.3-11.7-11.7v-2.3l-0.7-0.2l-1-0.2L426.6,114z"/>
							<g>
								<line class="st8" x1="1115.4" y1="1.7" x2="1115.4" y2="172"/>
								<line class="st8" x1="1128.1" y1="1.7" x2="1128.1" y2="172"/>
								<line class="st8" x1="1140.8" y1="1.7" x2="1140.8" y2="172"/>
								<line class="st8" x1="1153.5" y1="1.7" x2="1153.5" y2="172"/>
								<line class="st8" x1="1166.2" y1="1.7" x2="1166.2" y2="172"/>
								<line class="st8" x1="1179" y1="1.7" x2="1179" y2="172"/>
								<line class="st8" x1="1191.7" y1="1.7" x2="1191.7" y2="172"/>
								<line class="st8" x1="1204.4" y1="-35.5" x2="1204.4" y2="172"/>
								<line class="st8" x1="1217.1" y1="-35.5" x2="1217.1" y2="172"/>
								<line class="st8" x1="1229.8" y1="-35.5" x2="1229.8" y2="172"/>
								<line class="st8" x1="1242.5" y1="-35.5" x2="1242.5" y2="172"/>
								<line class="st8" x1="1255.3" y1="-35.5" x2="1255.3" y2="172"/>
								<line class="st8" x1="1268" y1="-35.5" x2="1268" y2="172"/>
								<line class="st8" x1="1280.7" y1="-35.5" x2="1280.7" y2="172"/>
								<line class="st8" x1="1293.4" y1="-35.5" x2="1293.4" y2="172"/>
								<line class="st8" x1="1306.1" y1="-35.5" x2="1306.1" y2="172"/>
								<line class="st8" x1="1318.8" y1="-35.5" x2="1318.8" y2="172"/>
								<line class="st8" x1="1331.6" y1="-35.5" x2="1331.6" y2="172"/>
								<line class="st8" x1="1344.3" y1="-35.5" x2="1344.3" y2="172"/>
								<line class="st8" x1="1357" y1="-35.5" x2="1357" y2="172"/>
								<line class="st8" x1="1369.7" y1="-35.5" x2="1369.7" y2="172"/>
								<line class="st8" x1="1382.4" y1="-35.5" x2="1382.4" y2="172"/>
								<line class="st8" x1="1395.1" y1="-35.5" x2="1395.1" y2="172"/>
								<line class="st8" x1="1407.9" y1="-35.5" x2="1407.9" y2="172"/>
								<line class="st8" x1="1420.6" y1="-35.5" x2="1420.6" y2="172"/>
								<line class="st8" x1="1433.3" y1="-35.5" x2="1433.3" y2="172"/>
								<line class="st8" x1="1446" y1="-35.5" x2="1446" y2="172"/>
								<line class="st8" x1="1458.7" y1="-35.5" x2="1458.7" y2="172"/>
								<line class="st8" x1="1471.4" y1="-35.5" x2="1471.4" y2="172"/>
								<line class="st8" x1="1484.2" y1="-35.5" x2="1484.2" y2="172"/>
								<line class="st8" x1="1496.9" y1="-35.5" x2="1496.9" y2="172"/>
								<line class="st8" x1="1509.6" y1="-35.5" x2="1509.6" y2="172"/>
								<line class="st8" x1="1522.3" y1="82.2" x2="1522.3" y2="172"/>
								<line class="st8" x1="1535" y1="1.7" x2="1535" y2="172"/>
								<line class="st8" x1="1547.7" y1="39.8" x2="1547.7" y2="172"/>
								<line class="st8" x1="1560.5" y1="39.8" x2="1560.5" y2="172"/>
								<line class="st8" x1="1573.2" y1="47.7" x2="1573.2" y2="172"/>
								<line class="st8" x1="1585.9" y1="47.7" x2="1585.9" y2="172"/>
								<line class="st8" x1="1598.6" y1="47.7" x2="1598.6" y2="172"/>
								<line class="st8" x1="1611.3" y1="47.7" x2="1611.3" y2="172"/>
								<line class="st8" x1="1624" y1="59.4" x2="1624" y2="172"/>
								<line class="st8" x1="1636.8" y1="59.4" x2="1636.8" y2="172"/>
								<line class="st8" x1="1649.5" y1="59.4" x2="1649.5" y2="172"/>
								<line class="st8" x1="1662.2" y1="59.4" x2="1662.2" y2="172"/>
								<line class="st8" x1="1674.9" y1="59.4" x2="1674.9" y2="172"/>
								<line class="st8" x1="1687.6" y1="59.4" x2="1687.6" y2="155.5"/>
								<line class="st8" x1="516.1" y1="114" x2="516.1" y2="86.6"/>
								<line class="st8" x1="1100.4" y1="1.7" x2="1100.4" y2="172"/>
								<line class="st8" x1="1087.7" y1="1.7" x2="1087.7" y2="172"/>
								<line class="st8" x1="1075" y1="1.7" x2="1075" y2="172"/>
								<line class="st8" x1="1062.2" y1="1.7" x2="1062.2" y2="172"/>
								<line class="st8" x1="1049.5" y1="1.7" x2="1049.5" y2="172"/>
								<line class="st8" x1="1036.8" y1="1.7" x2="1036.8" y2="172"/>
								<line class="st8" x1="1024.1" y1="1.7" x2="1024.1" y2="172"/>
								<line class="st8" x1="1011.4" y1="-35.5" x2="1011.4" y2="172"/>
								<line class="st8" x1="998.7" y1="-35.5" x2="998.7" y2="172"/>
								<line class="st8" x1="985.9" y1="-35.5" x2="985.9" y2="172"/>
								<line class="st8" x1="973.2" y1="-35.5" x2="973.2" y2="172"/>
								<line class="st8" x1="960.5" y1="-35.5" x2="960.5" y2="172"/>
								<line class="st8" x1="947.8" y1="-35.5" x2="947.8" y2="172"/>
								<line class="st8" x1="935.1" y1="-35.5" x2="935.1" y2="172"/>
								<line class="st8" x1="922.4" y1="-35.5" x2="922.4" y2="172"/>
								<line class="st8" x1="909.6" y1="-35.5" x2="909.6" y2="172"/>
								<line class="st8" x1="896.9" y1="-35.5" x2="896.9" y2="172"/>
								<line class="st8" x1="884.2" y1="-35.5" x2="884.2" y2="172"/>
								<line class="st8" x1="871.5" y1="-35.5" x2="871.5" y2="172"/>
								<line class="st8" x1="858.8" y1="-35.5" x2="858.8" y2="172"/>
								<line class="st8" x1="846.1" y1="-35.5" x2="846.1" y2="172"/>
								<line class="st8" x1="833.3" y1="-35.5" x2="833.3" y2="172"/>
								<line class="st8" x1="820.6" y1="-35.5" x2="820.6" y2="172"/>
								<line class="st8" x1="807.9" y1="-35.5" x2="807.9" y2="172"/>
								<line class="st8" x1="795.2" y1="-35.5" x2="795.2" y2="172"/>
								<line class="st8" x1="782.5" y1="-35.5" x2="782.5" y2="172"/>
								<line class="st8" x1="769.8" y1="-35.5" x2="769.8" y2="172"/>
								<line class="st8" x1="757" y1="-35.5" x2="757" y2="172"/>
								<line class="st8" x1="744.3" y1="-35.5" x2="744.3" y2="172"/>
								<line class="st8" x1="731.6" y1="-35.5" x2="731.6" y2="172"/>
								<line class="st8" x1="718.9" y1="-35.5" x2="718.9" y2="172"/>
								<line class="st8" x1="706.2" y1="-35.5" x2="706.2" y2="172"/>
								<line class="st8" x1="693.5" y1="82.2" x2="693.5" y2="172"/>
								<line class="st8" x1="680.8" y1="1.7" x2="680.8" y2="172"/>
								<line class="st8" x1="668" y1="39.8" x2="668" y2="172"/>
								<line class="st8" x1="655.3" y1="39.8" x2="655.3" y2="172"/>
								<line class="st8" x1="642.6" y1="47.7" x2="642.6" y2="172"/>
								<line class="st8" x1="629.9" y1="47.7" x2="629.9" y2="172"/>
								<line class="st8" x1="617.2" y1="47.7" x2="617.2" y2="172"/>
								<line class="st8" x1="604.5" y1="47.7" x2="604.5" y2="172"/>
								<line class="st8" x1="591.7" y1="59.4" x2="591.7" y2="172"/>
								<line class="st8" x1="579" y1="59.4" x2="579" y2="172"/>
								<line class="st8" x1="566.3" y1="59.4" x2="566.3" y2="172"/>
								<line class="st8" x1="553.6" y1="59.4" x2="553.6" y2="172"/>
								<line class="st8" x1="540.9" y1="59.4" x2="540.9" y2="172"/>
								<line class="st8" x1="528.2" y1="59.4" x2="528.2" y2="155.5"/>
								<line class="st8" x1="1699.7" y1="114" x2="1699.7" y2="86.6"/>
							</g>
							<path class="st9" d="M1511.4-102.5c0-11.1,9.8-16.3,9.8-16.3s-6.8-2-6.8-8.8s8.8-8.7,8.8-8.7c0-16.5,22-21.1,22-21.1l5.7-6.1
								c3.2-3.5,4.2-8.3,2.9-12.9c-0.3-1-0.4-2.1-0.2-3.2c0.5-3.5,3.3-6.3,6.8-6.7c5.2-0.6,9.5,3.9,8.6,9.1c-0.5,3-2.8,5.5-5.7,6.3
								h-0.1c-3.6,0.9-6.7,3-8.5,6.2l-17.5,29.5c-4.1,6.9-6.2,14.8-6.2,22.8v21l-28.3,10C1498.8-95,1511.4-102.5,1511.4-102.5z"/>
							<path class="st9" d="M704.3-102.5c0-11.1-9.8-16.3-9.8-16.3s6.8-2,6.8-8.8s-8.8-8.7-8.8-8.7c0-16.5-22-21.1-22-21.1l-5.7-6.1
								c-3.2-3.5-4.2-8.3-2.9-12.9c0.3-1,0.4-2.1,0.2-3.2c-0.5-3.5-3.3-6.3-6.8-6.7c-5.2-0.6-9.5,3.9-8.6,9.1c0.5,3,2.8,5.5,5.7,6.3
								h0.1c3.6,0.9,6.7,3,8.5,6.2l17.5,29.5c4.1,6.9,6.2,14.8,6.2,22.8v21l28.3,10C717-95,704.3-102.5,704.3-102.5z"/>
							<rect x="1511.4" y="-97.3" class="st7" width="23.5" height="199.5"/>
							<path class="st7" d="M1150.3,183.9"/>
							<path class="st7" d="M1185,158c12.4,0,22.5,10.1,22.5,22.5v1.5h-14.7v-1.5c0-4.3-3.5-7.8-7.8-7.8s-7.8,3.5-7.8,7.8v1.5h-14.7
								v-1.5C1162.5,168.1,1172.6,158,1185,158z"/>
							<path class="st7" d="M1235.4,158c12.4,0,22.5,10.1,22.5,22.5v1.5h-14.7v-1.5c0-4.3-3.5-7.8-7.8-7.8s-7.8,3.5-7.8,7.8v1.5
								h-14.7v-1.5C1212.9,168.1,1223,158,1235.4,158z"/>
							<path class="st7" d="M1285.9,158c12.4,0,22.5,10.1,22.5,22.5v1.5h-14.7v-1.5c0-4.3-3.5-7.8-7.8-7.8s-7.8,3.5-7.8,7.8v1.5
								h-14.7v-1.5C1263.4,168.1,1273.5,158,1285.9,158z"/>
							<path class="st7" d="M1336.3,158c12.4,0,22.5,10.1,22.5,22.5v1.5h-14.7v-1.5c0-4.3-3.5-7.8-7.8-7.8s-7.8,3.5-7.8,7.8v1.5
								h-14.7v-1.5C1313.8,168.1,1323.9,158,1336.3,158z"/>
							<path class="st7" d="M1386.7,158c12.4,0,22.5,10.1,22.5,22.5v1.5h-14.7v-1.5c0-4.3-3.5-7.8-7.8-7.8s-7.8,3.5-7.8,7.8v1.5
								h-14.7v-1.5C1364.2,168.1,1374.3,158,1386.7,158z"/>
							<path class="st7" d="M1437.2,158c12.4,0,22.5,10.1,22.5,22.5v1.5H1445v-1.5c0-4.3-3.5-7.8-7.8-7.8s-7.8,3.5-7.8,7.8v1.5
								h-14.7v-1.5C1414.7,168.1,1424.7,158,1437.2,158z"/>
							<path class="st7" d="M1487.6,158c12.4,0,22.5,10.1,22.5,22.5v1.5h-14.7v-1.5c0-4.3-3.5-7.8-7.8-7.8s-7.8,3.5-7.8,7.8v1.5
								h-14.7v-1.5C1465.1,168.1,1475.2,158,1487.6,158z"/>
							<path class="st7" d="M1538,158c12.4,0,22.5,10.1,22.5,22.5v1.5h-14.7v-1.5c0-4.3-3.5-7.8-7.8-7.8s-7.8,3.5-7.8,7.8v1.5h-14.7
								v-1.5C1515.5,168.1,1525.6,158,1538,158z"/>
							<path class="st7" d="M1588.4,158c12.4,0,22.5,10.1,22.5,22.5v1.5h-14.7v-1.5c0-4.3-3.5-7.8-7.8-7.8s-7.8,3.5-7.8,7.8v1.5
								h-14.7v-1.5C1565.9,168.1,1576,158,1588.4,158z"/>
							<path class="st7" d="M1640.6,158.5c12.4,0,22.5,10.1,22.5,22.5v1.5h-14.7V181c0-4.3-3.5-7.8-7.8-7.8s-7.8,3.5-7.8,7.8v1.5
								h-14.7V181C1618.1,168.6,1628.2,158.5,1640.6,158.5z"/>
							<path class="st7" d="M1153,182.4l0.4,0.4c1.8,1.7,4.5,3.8,6.4,4.9c1.9-1.1,4.6-3.2,6.4-4.9l0.4-0.4h14.9v1.5
								c0,2.6-1,6.5-8.9,12.7c-5.4,4.3-9.6,6.4-12.9,6.4s-7.5-2.1-12.9-6.4c-7.9-6.2-8.9-10.1-8.9-12.7v-1.5H1153z"/>
							<path class="st7" d="M1203.4,182.4l0.4,0.4c1.8,1.7,4.5,3.8,6.4,4.9c1.9-1.1,4.6-3.2,6.4-4.9l0.4-0.4h14.9v1.5
								c0,2.6-1,6.5-8.9,12.7c-5.4,4.3-9.6,6.4-12.9,6.4s-7.5-2.1-12.9-6.4c-7.9-6.2-8.9-10.1-8.9-12.7v-1.5H1203.4z"/>
							<path class="st7" d="M1099.5,183.9"/>
							<path class="st7" d="M1134.1,158c12.4,0,22.5,10.1,22.5,22.5v1.5h-14.7v-1.5c0-4.3-3.5-7.8-7.8-7.8s-7.8,3.5-7.8,7.8v1.5
								h-14.7v-1.5C1111.6,168.1,1121.7,158,1134.1,158z"/>
							<path class="st7" d="M1102.1,182.4l0.4,0.4c1.8,1.7,4.5,3.8,6.4,4.9c1.9-1.1,4.6-3.2,6.4-4.9l0.4-0.4h14.9v1.5
								c0,2.6-1,6.5-8.9,12.7c-5.4,4.3-9.6,6.4-12.9,6.4s-7.5-2.1-12.9-6.4c-7.9-6.2-8.9-10.1-8.9-12.7v-1.5H1102.1z"/>
							<path class="st7" d="M1253.8,182.4l0.4,0.4c1.8,1.7,4.5,3.8,6.4,4.9c1.9-1.1,4.6-3.2,6.4-4.9l0.4-0.4h14.9v1.5
								c0,2.6-1,6.5-8.9,12.7c-5.4,4.3-9.6,6.4-12.9,6.4s-7.5-2.1-12.9-6.4c-7.9-6.2-8.9-10.1-8.9-12.7v-1.5H1253.8z"/>
							<path class="st7" d="M1304.3,182.4l0.4,0.4c1.8,1.7,4.5,3.8,6.4,4.9c1.9-1.1,4.6-3.2,6.4-4.9l0.4-0.4h14.9v1.5
								c0,2.6-1,6.5-8.9,12.7c-5.4,4.3-9.6,6.4-12.9,6.4s-7.5-2.1-12.9-6.4c-7.9-6.2-8.9-10.1-8.9-12.7v-1.5H1304.3z"/>
							<path class="st7" d="M1354.7,182.4l0.4,0.4c1.8,1.7,4.5,3.8,6.4,4.9c1.9-1.1,4.6-3.2,6.4-4.9l0.4-0.4h14.9v1.5
								c0,2.6-1,6.5-8.9,12.7c-5.4,4.3-9.6,6.4-12.9,6.4s-7.5-2.1-12.9-6.4c-7.9-6.2-8.9-10.1-8.9-12.7v-1.5H1354.7z"/>
							<path class="st7" d="M1405.1,182.4l0.4,0.4c1.8,1.7,4.5,3.8,6.4,4.9c1.9-1.1,4.6-3.2,6.4-4.9l0.4-0.4h14.9v1.5
								c0,2.6-1,6.5-8.9,12.7c-5.4,4.3-9.6,6.4-12.9,6.4s-7.5-2.1-12.9-6.4c-7.9-6.2-8.9-10.1-8.9-12.7v-1.5H1405.1z"/>
							<path class="st7" d="M1455.6,182.4l0.4,0.4c1.8,1.7,4.5,3.8,6.4,4.9c1.9-1.1,4.6-3.2,6.4-4.9l0.4-0.4h14.9v1.5
								c0,2.6-1,6.5-8.9,12.7c-5.4,4.3-9.6,6.4-12.9,6.4s-7.5-2.1-12.9-6.4c-7.9-6.2-8.9-10.1-8.9-12.7v-1.5H1455.6z"/>
							<path class="st7" d="M1506,182.4l0.4,0.4c1.8,1.7,4.5,3.8,6.4,4.9c1.9-1.1,4.6-3.2,6.4-4.9l0.4-0.4h14.9v1.5
								c0,2.6-1,6.5-8.9,12.7c-5.4,4.3-9.6,6.4-12.9,6.4s-7.5-2.1-12.9-6.4c-7.9-6.2-8.9-10.1-8.9-12.7v-1.5H1506z"/>
							<path class="st7" d="M1606.8,182.4l0.4,0.4c1.8,1.7,4.5,3.8,6.4,4.9c1.9-1.1,4.6-3.2,6.4-4.9l0.4-0.4h14.9v1.5
								c0,2.6-1,6.5-8.9,12.7c-5.4,4.3-9.6,6.4-12.9,6.4s-7.5-2.1-12.9-6.4c-7.9-6.2-8.9-10.1-8.9-12.7v-1.5H1606.8z"/>
							<path class="st7" d="M1556.4,182.4l0.4,0.4c1.8,1.7,4.5,3.8,6.4,4.9c1.9-1.1,4.6-3.2,6.4-4.9l0.4-0.4h14.9v1.5
								c0,2.6-1,6.5-8.9,12.7c-5.4,4.3-9.6,6.4-12.9,6.4s-7.5-2.1-12.9-6.4c-7.9-6.2-8.9-10.1-8.9-12.7v-1.5H1556.4z"/>
							<path class="st7" d="M1659.3,179.4l0.5,0.3c2.1,1.2,5.3,2.6,7.4,3.2c1.5-1.6,3.7-4.3,5-6.4l0.3-0.5l14.5-3.7l0.4,1.4
								c0.7,2.6,0.6,6.5-5.5,14.5c-4.2,5.5-7.7,8.5-10.9,9.3c-3.2,0.8-7.8-0.2-14-3c-9.2-4.1-11.1-7.6-11.8-10.1l-0.4-1.4
								L1659.3,179.4z"/>
							<g>
								<path class="st7" d="M1534.9,81.6c0,0,12.7,11.8,22.5,11.8v-6.8c-9.8,0-22.5-11.8-22.5-11.8V81.6z"/>
							</g>
							<path class="st10" d="M658.6,86.6c0,0-46.6,39.2-136.3,39.2c-49,0-93.6-14.3-124.1-27.3v11.7c30.5,13,75.2,27.3,124.1,27.3
								c89.7,0,136.3-39.2,136.3-39.2l-0.2-11.7"/>
							<path class="st11" d="M658.4,74.8c0,0-46.6,39.2-136.3,39.2s-165-48-165-48v11.7c0,0,75.3,48,165,48s136.3-39.1,136.3-39.1
								V74.8z"/>
							<path class="st11" d="M658.6,110c0,0-46.6,39.2-136.3,39.2c-49,0-93.6-14.3-124.1-27.3v-11.7c30.5,13,75.2,27.3,124.1,27.3
								c89.7,0,136.3-39.2,136.3-39.2V110z"/>
							<rect x="680.9" y="-97.3" class="st7" width="23.5" height="199.5"/>
							<path class="st7" d="M1065.4,183.9"/>
							<path class="st7" d="M1030.8,158c-12.4,0-22.5,10.1-22.5,22.5v1.5h14.7v-1.5c0-4.3,3.5-7.8,7.8-7.8s7.8,3.5,7.8,7.8v1.5h14.7
								v-1.5C1053.3,168.1,1043.2,158,1030.8,158z"/>
							<path class="st7" d="M980.3,158c-12.4,0-22.5,10.1-22.5,22.5v1.5h14.7v-1.5c0-4.3,3.5-7.8,7.8-7.8s7.8,3.5,7.8,7.8v1.5h14.7
								v-1.5C1002.8,168.1,992.7,158,980.3,158z"/>
							<path class="st7" d="M929.9,158c-12.4,0-22.5,10.1-22.5,22.5v1.5h14.7v-1.5c0-4.3,3.5-7.8,7.8-7.8s7.8,3.5,7.8,7.8v1.5h14.7
								v-1.5C952.4,168.1,942.3,158,929.9,158z"/>
							<path class="st7" d="M879.5,158c-12.4,0-22.5,10.1-22.5,22.5v1.5h14.7v-1.5c0-4.3,3.5-7.8,7.8-7.8s7.8,3.5,7.8,7.8v1.5H902
								v-1.5C902,168.1,891.9,158,879.5,158z"/>
							<path class="st7" d="M829,158c-12.4,0-22.5,10.1-22.5,22.5v1.5h14.7v-1.5c0-4.3,3.5-7.8,7.8-7.8s7.8,3.5,7.8,7.8v1.5h14.7
								v-1.5C851.5,168.1,841.5,158,829,158z"/>
							<path class="st7" d="M778.6,158c-12.4,0-22.5,10.1-22.5,22.5v1.5h14.7v-1.5c0-4.3,3.5-7.8,7.8-7.8s7.8,3.5,7.8,7.8v1.5h14.7
								v-1.5C801.1,168.1,791,158,778.6,158z"/>
							<path class="st7" d="M728.2,158c-12.4,0-22.5,10.1-22.5,22.5v1.5h14.7v-1.5c0-4.3,3.5-7.8,7.8-7.8s7.8,3.5,7.8,7.8v1.5h14.7
								v-1.5C750.7,168.1,740.6,158,728.2,158z"/>
							<path class="st7" d="M677.8,158c-12.4,0-22.5,10.1-22.5,22.5v1.5H670v-1.5c0-4.3,3.5-7.8,7.8-7.8s7.8,3.5,7.8,7.8v1.5h14.7
								v-1.5C700.3,168.1,690.2,158,677.8,158z"/>
							<path class="st7" d="M627.3,158c-12.4,0-22.5,10.1-22.5,22.5v1.5h14.7v-1.5c0-4.3,3.5-7.8,7.8-7.8s7.8,3.5,7.8,7.8v1.5h14.7
								v-1.5C649.8,168.1,639.7,158,627.3,158z"/>
							<path class="st7" d="M575.2,158.5c-12.4,0-22.5,10.1-22.5,22.5v1.5h14.7V181c0-4.3,3.5-7.8,7.8-7.8s7.8,3.5,7.8,7.8v1.5h14.7
								V181C597.7,168.6,587.6,158.5,575.2,158.5z"/>
							<path class="st7" d="M1062.8,182.4l-0.4,0.4c-1.8,1.7-4.5,3.8-6.4,4.9c-1.9-1.1-4.6-3.2-6.4-4.9l-0.4-0.4h-14.9v1.5
								c0,2.6,1,6.5,8.9,12.7c5.4,4.3,9.6,6.4,12.9,6.4s7.5-2.1,12.9-6.4c7.9-6.2,8.9-10.1,8.9-12.7v-1.5H1062.8z"/>
							<path class="st7" d="M1012.4,182.4l-0.4,0.4c-1.8,1.7-4.5,3.8-6.4,4.9c-1.9-1.1-4.6-3.2-6.4-4.9l-0.4-0.4h-14.9v1.5
								c0,2.6,1,6.5,8.9,12.7c5.4,4.3,9.6,6.4,12.9,6.4s7.5-2.1,12.9-6.4c7.9-6.2,8.9-10.1,8.9-12.7v-1.5H1012.4z"/>
							<path class="st7" d="M1116.3,183.9"/>
							<path class="st7" d="M1081.6,158c-12.4,0-22.5,10.1-22.5,22.5v1.5h14.7v-1.5c0-4.3,3.5-7.8,7.8-7.8s7.8,3.5,7.8,7.8v1.5h14.7
								v-1.5C1104.1,168.1,1094,158,1081.6,158z"/>
							<path class="st7" d="M961.9,182.4l-0.4,0.4c-1.8,1.7-4.5,3.8-6.4,4.9c-1.9-1.1-4.6-3.2-6.4-4.9l-0.4-0.4h-14.9v1.5
								c0,2.6,1,6.5,8.9,12.7c5.4,4.3,9.6,6.4,12.9,6.4c3.3,0,7.5-2.1,12.9-6.4c7.9-6.2,8.9-10.1,8.9-12.7v-1.5H961.9z"/>
							<path class="st7" d="M911.5,182.4l-0.4,0.4c-1.8,1.7-4.5,3.8-6.4,4.9c-1.9-1.1-4.6-3.2-6.4-4.9l-0.4-0.4H883v1.5
								c0,2.6,1,6.5,8.9,12.7c5.4,4.3,9.6,6.4,12.9,6.4c3.3,0,7.5-2.1,12.9-6.4c7.9-6.2,8.9-10.1,8.9-12.7v-1.5H911.5z"/>
							<path class="st7" d="M861.1,182.4l-0.4,0.4c-1.8,1.7-4.5,3.8-6.4,4.9c-1.9-1.1-4.6-3.2-6.4-4.9l-0.4-0.4h-14.9v1.5
								c0,2.6,1,6.5,8.9,12.7c5.4,4.3,9.6,6.4,12.9,6.4c3.3,0,7.5-2.1,12.9-6.4c7.9-6.2,8.9-10.1,8.9-12.7v-1.5H861.1z"/>
							<path class="st7" d="M810.6,182.4l-0.4,0.4c-1.8,1.7-4.5,3.8-6.4,4.9c-1.9-1.1-4.6-3.2-6.4-4.9l-0.4-0.4h-14.9v1.5
								c0,2.6,1,6.5,8.9,12.7c5.4,4.3,9.6,6.4,12.9,6.4c3.3,0,7.5-2.1,12.9-6.4c7.9-6.2,8.9-10.1,8.9-12.7v-1.5H810.6z"/>
							<path class="st7" d="M760.2,182.4l-0.4,0.4c-1.8,1.7-4.5,3.8-6.4,4.9c-1.9-1.1-4.6-3.2-6.4-4.9l-0.4-0.4h-14.9v1.5
								c0,2.6,1,6.5,8.9,12.7c5.4,4.3,9.6,6.4,12.9,6.4c3.3,0,7.5-2.1,12.9-6.4c7.9-6.2,8.9-10.1,8.9-12.7v-1.5H760.2z"/>
							<path class="st7" d="M709.8,182.4l-0.4,0.4c-1.8,1.7-4.5,3.8-6.4,4.9c-1.9-1.1-4.6-3.2-6.4-4.9l-0.4-0.4h-14.9v1.5
								c0,2.6,1,6.5,8.9,12.7c5.4,4.3,9.6,6.4,12.9,6.4c3.3,0,7.5-2.1,12.9-6.4c7.9-6.2,8.9-10.1,8.9-12.7v-1.5H709.8z"/>
							<path class="st7" d="M608.9,182.4l-0.4,0.4c-1.8,1.7-4.5,3.8-6.4,4.9c-1.9-1.1-4.6-3.2-6.4-4.9l-0.4-0.4h-14.9v1.5
								c0,2.6,1,6.5,8.9,12.7c5.4,4.3,9.6,6.4,12.9,6.4c3.3,0,7.5-2.1,12.9-6.4c7.9-6.2,8.9-10.1,8.9-12.7v-1.5H608.9z"/>
							<path class="st7" d="M659.4,182.4l-0.4,0.4c-1.8,1.7-4.5,3.8-6.4,4.9c-1.9-1.1-4.6-3.2-6.4-4.9l-0.4-0.4h-14.9v1.5
								c0,2.6,1,6.5,8.9,12.7c5.4,4.3,9.6,6.4,12.9,6.4c3.3,0,7.5-2.1,12.9-6.4c7.9-6.2,8.9-10.1,8.9-12.7v-1.5H659.4z"/>
							<path class="st7" d="M531.5,147.8c-12-3.1-24.3,4.2-27.4,16.2l-0.4,1.4l14.2,3.6l0.4-1.4c1.1-4.2,5.3-6.7,9.5-5.6
								c4.2,1.1,6.7,5.3,5.6,9.5l-0.4,1.4l14.2,3.6l0.4-1.4C550.8,163.1,543.5,150.8,531.5,147.8z"/>
							<path class="st7" d="M482.6,135.3c-12-3.1-24.3,4.2-27.4,16.2l-0.4,1.4l14.2,3.6l0.4-1.4c1.1-4.2,5.3-6.7,9.5-5.6
								c4.2,1.1,6.7,5.3,5.6,9.5l-0.4,1.4l14.2,3.6l0.4-1.4C501.9,150.7,494.6,138.4,482.6,135.3z"/>
							<path class="st7" d="M432,122.9c-12-3.1-24.3,4.2-27.4,16.2l-0.4,1.4l14.2,3.6l0.4-1.4c1.1-4.2,5.3-6.7,9.5-5.6
								c4.2,1.1,6.7,5.3,5.6,9.5l-0.4,1.4l14.2,3.6l0.4-1.4C451.3,138.2,444,126,432,122.9z"/>
							<path class="st7" d="M556.5,179.4l-0.5,0.3c-2.1,1.2-5.3,2.6-7.4,3.2c-1.5-1.6-3.7-4.3-5-6.4l-0.3-0.5l-14.5-3.7l-0.4,1.4
								c-0.7,2.6-0.6,6.5,5.5,14.5c4.2,5.5,7.7,8.5,10.9,9.3s7.8-0.2,14-3c9.2-4.1,11.1-7.6,11.8-10.1l0.4-1.4L556.5,179.4z"/>
							<path class="st7" d="M458.7,154.5l-0.5,0.3c-2.1,1.2-5.3,2.6-7.4,3.2c-1.5-1.6-3.7-4.3-5-6.4l-0.3-0.5l-14.5-3.7l-0.4,1.4
								c-0.7,2.6-0.6,6.5,5.5,14.5c4.2,5.5,7.7,8.5,10.9,9.3c3.2,0.8,7.8-0.2,14-3c9.2-4.1,11.1-7.6,11.8-10.1l0.4-1.4L458.7,154.5z
								"/>
							<path class="st7" d="M507.6,166.9l-0.5,0.3c-2.1,1.2-5.3,2.6-7.4,3.2c-1.5-1.6-3.7-4.3-5-6.4l-0.3-0.5l-14.5-3.7l-0.4,1.4
								c-0.7,2.6-0.6,6.5,5.5,14.5c4.2,5.5,7.7,8.5,10.9,9.3s7.8-0.2,14-3c9.2-4.1,11.1-7.6,11.8-10.1l0.4-1.4L507.6,166.9z"/>
							<path class="st12" d="M680.9,21c0,0-80.6,51.4-180.2,51.4V57.8c99.6,0,180.2-51.4,180.2-51.4V21z"/>
							<path class="st13" d="M680.9,35.7c0,0-80.6,51.4-180.2,51.4V72.5c99.6,0,180.2-51.4,180.2-51.4V35.7z"/>
							<g>
								<path class="st7" d="M680.9,81.6c0,0-12.7,11.8-22.5,11.8v-6.8c9.8,0,22.5-11.8,22.5-11.8V81.6z"/>
							</g>
							<path class="st7" d="M1105.9-33.7L1105.9-33.7c0.6,0,1.3,0,2,0s1.3,0,2,0l0,0c48.3,0.4,167.5,6.9,401.6-24.5v33.8
								C1326.2,2.9,1138.2,1.7,1107.9,1.7c-30.4,0.1-218.4,1.2-403.6-26.1v-33.8C938.4-26.8,1057.7-33.3,1105.9-33.7z"/>
							<path class="st7" d="M1109.8-9.1c-23,0-215.7,1.9-405.5-26.1"/>
							<path class="st14" d="M1105.9-64.1L1105.9-64.1c0.6,0,1.3,0,2,0s1.3,0,2,0l0,0c48.3,0.4,167.5,6.9,401.6-24.5v33.8
								c-185.2,27.3-373.2,26.1-403.6,26.1c-30.4,0.1-218.4,1.2-403.6-26.1v-33.8C938.4-57.1,1057.7-63.7,1105.9-64.1z"/>
							<path class="st10" d="M1557.2,86.6c0,0,46.6,39.2,136.3,39.2c49,0,93.6-14.3,124.1-27.3v11.7c-30.5,13-75.2,27.3-124.1,27.3
								c-89.7,0-136.3-39.2-136.3-39.2l0.2-11.7"/>
							<path class="st11" d="M1557.4,74.8c0,0,46.6,39.2,136.3,39.2c89.7,0,165-48,165-48v11.7c0,0-75.3,48-165,48
								s-136.3-39.2-136.3-39.2V74.8z"/>
							<path class="st11" d="M1557.2,110c0,0,46.6,39.2,136.3,39.2c49,0,93.6-14.3,124.1-27.3v-11.7c-30.5,13-75.2,27.3-124.1,27.3
								c-89.7,0-136.3-39.2-136.3-39.2V110z"/>
							<path class="st7" d="M1684.3,147.8c12-3.1,24.3,4.2,27.4,16.2l0.4,1.4l-14.2,3.6l-0.4-1.4c-1.1-4.2-5.3-6.7-9.5-5.6
								c-4.2,1.1-6.7,5.3-5.6,9.5l0.4,1.4l-14.2,3.6l-0.4-1.4C1665,163.1,1672.3,150.8,1684.3,147.8z"/>
							<path class="st7" d="M1733.2,135.3c12-3.1,24.3,4.2,27.4,16.2l0.4,1.4l-14.2,3.6l-0.4-1.4c-1.1-4.2-5.3-6.7-9.5-5.6
								c-4.2,1.1-6.7,5.3-5.6,9.5l0.4,1.4l-14.2,3.6l-0.4-1.4C1713.9,150.7,1721.2,138.4,1733.2,135.3z"/>
							<path class="st7" d="M1783.8,122.9c12-3.1,24.3,4.2,27.4,16.2l0.4,1.4l-14.2,3.6l-0.4-1.4c-1.1-4.2-5.3-6.7-9.5-5.6
								c-4.2,1.1-6.7,5.3-5.6,9.5l0.4,1.4l-14.2,3.6l-0.4-1.4C1764.5,138.2,1771.8,126,1783.8,122.9z"/>
							<path class="st7" d="M1757,154.5l0.5,0.3c2.1,1.2,5.3,2.6,7.4,3.2c1.5-1.6,3.7-4.3,5-6.4l0.3-0.5l14.5-3.7l0.4,1.4
								c0.7,2.6,0.6,6.5-5.5,14.5c-4.2,5.5-7.7,8.5-10.9,9.3c-3.2,0.8-7.8-0.2-14-3c-9.2-4.1-11.1-7.6-11.8-10.1l-0.4-1.4
								L1757,154.5z"/>
							<path class="st7" d="M1708.2,166.9l0.5,0.3c2.1,1.2,5.3,2.6,7.4,3.2c1.5-1.6,3.7-4.3,5-6.4l0.3-0.5l14.5-3.7l0.4,1.4
								c0.7,2.6,0.6,6.5-5.5,14.5c-4.2,5.5-7.7,8.5-10.9,9.3c-3.2,0.8-7.8-0.2-14-3c-9.2-4.1-11.1-7.6-11.8-10.1l-0.4-1.4
								L1708.2,166.9z"/>
							<path class="st12" d="M1534.9,21c0,0,80.6,51.4,180.2,51.4V57.8c-99.6,0-180.2-51.4-180.2-51.4V21z"/>
							<path class="st13" d="M1534.9,35.7c0,0,80.6,51.4,180.2,51.4V72.5c-99.6,0-180.2-51.4-180.2-51.4V35.7z"/>
							<path class="st7" d="M1105.9-9.1c23,0,215.7,1.9,405.5-26.1"/>
							<rect x="1516.3" y="53.3" class="st15" width="13.7" height="55.8"/>
							<rect x="685.7" y="53.3" class="st15" width="13.7" height="55.8"/>
						</g>
					</g>
				</g>
				<line class="st8" x1="1536.4" y1="1.5" x2="955.3" y2="1.7"/>
			</g>
		</g>
	</g>
</g>
</svg>
