<?xml version="1.0" encoding="utf-8"?>
<!-- Generator: Adobe Illustrator 26.3.1, SVG Export Plug-In . SVG Version: 6.00 Build 0)  -->
<svg version="1.1" id="圖層_1" xmlns="http://www.w3.org/2000/svg" xmlns:xlink="http://www.w3.org/1999/xlink" x="0px" y="0px"
	 viewBox="0 0 193.8 464.5" style="enable-background:new 0 0 193.8 464.5;" xml:space="preserve">
<style type="text/css">
	.st0{fill:#B22227;stroke:#C2996B;stroke-width:3;stroke-miterlimit:10;}
	.st1{fill:#C2996B;stroke:#FDE626;stroke-width:6.425142e-02;stroke-miterlimit:10;}
	.st2{fill:#C2996B;stroke:#C2996B;stroke-width:3.4422;stroke-miterlimit:10;}
</style>
<g>
	<path class="st0" d="M192.3,192.3V463H1.5V1.5C106.9,1.5,192.3,86.9,192.3,192.3z"/>
	<g>
		<g>
			<g>
				<path class="st1" d="M24.1,246c0,0-1.8-0.9-1.2-3.9s3.2-3.2,3.2-3.2c-0.9-1.1-0.6-2.2-0.6-2.2c0.5-2.5,2.6-2.2,2.6-2.2
					c-0.1-1.9,1.9-1.7,1.9-1.7c-2.2-1.9-2.2-6.2,0-5.4c2.2,0.8,4.8,3.3,4.8,3.3s0.1-0.8,0.7-1.7c0.6-0.9,2.4-0.8,2.4-0.8
					s-0.3-1.5,1.3-2.2c1.6-0.7,2.6,0.4,2.6,0.4c-0.6-1.3,0.8-2.4,0.8-2.4c1.9-1.1,3.4-0.5,3.4-0.5c0.7-1.3,2.6-1,2.6-1
					s1.9-0.3,2.6,1c0,0,1.5-0.6,3.4,0.5c0,0,1.4,1.1,0.8,2.4c0,0,1-1.1,2.6-0.4c1.6,0.7,1.3,2.2,1.3,2.2s1.8-0.1,2.4,0.8
					c0.6,0.9,0.7,1.7,0.7,1.7s2.6-2.5,4.8-3.3c2.2-0.8,2.2,3.4,0,5.4c0,0,2-0.2,1.9,1.7c0,0,2.2-0.3,2.6,2.2c0,0,0.3,1.1-0.6,2.2
					c0,0,2.5,0.2,3.2,3.2c0.6,3-1.2,3.9-1.2,3.9s2.1,1.4,2.1,4.5c0,3.1-4.8,6.5-4.8,6.5s-2.9,8.6-3.5,9.3c-0.6,0.7-2.1,2.3-2.6,4.7
					c0,0,1,1.7-0.1,3.8c-1.1,2.1-5.2,3.1-8.5,1.1c0,0-1.3-0.8-2.1-2.4c0,0-3,1-4.8,2.7l-0.2,0.3c0,0,0,0-0.1-0.1c0,0,0,0-0.1,0.1
					l-0.2-0.3c-1.7-1.7-4.8-2.7-4.8-2.7c-0.8,1.6-2.1,2.4-2.1,2.4c-3.3,2-7.4,1-8.5-1.1c-1.1-2.1-0.1-3.8-0.1-3.8
					c-0.5-2.4-2-3.9-2.6-4.7s-3.5-9.3-3.5-9.3s-4.7-3.4-4.8-6.5C22,247.4,24.1,246,24.1,246z"/>
				<g>
					<path class="st1" d="M56,241.2c0,0,1.3-0.3,2.3,0.4c1,0.6,1.3,1.5,1.3,1.5l0.2,0.7l0.1,0.8l-0.1,1c0,0-0.2,0.4-0.4,0.7
						c-0.2,0.3-0.9,1.1-1.6,1.5c0,0-0.8,0.5-1.2,0l-0.9-0.6l-0.7-0.2l-0.5,0c0,0-0.6,0.3-0.8-0.1c0,0-0.9-1.2-0.8-1.8
						c0,0-0.1-1.3,0.5-2.2c0,0,0.5-0.9,1.5-1.2C56,241.1,56,241.2,56,241.2z"/>
					<path class="st1" d="M41.3,241.2c0,0-1.3-0.3-2.3,0.4s-1.3,1.5-1.3,1.5l-0.2,0.7l-0.1,0.8l0.1,1c0,0,0.2,0.4,0.4,0.7
						c0.2,0.3,0.9,1.1,1.6,1.5c0,0,0.8,0.5,1.2,0l0.9-0.6l0.7-0.2l0.5,0c0,0,0.6,0.3,0.8-0.1c0,0,0.9-1.2,0.8-1.8
						c0,0,0.1-1.3-0.5-2.2c0,0-0.5-0.9-1.5-1.2C41.2,241.1,41.3,241.2,41.3,241.2z"/>
					<path class="st1" d="M53.3,236c0,0,1.2-4.4,3.3-4.3c2.1,0.1,2.6,1.8,3,1.8c0.5,0,5.9-6.8,8.4-6c1.5,0.7,0.8,4.1-1.4,5.8
						c0,0,1.5,2.3-1.1,4.3"/>
					<path class="st1" d="M48.7,228.7c0.8,0,5.2,0.5,7.2,3.2"/>
					<path class="st1" d="M52.3,237.2c0,0-1.9,2.3-3.6,2.3"/>
					<path class="st1" d="M53.6,238.9c0,0-2.1,3.2-4.9,3.2"/>
					<path class="st1" d="M61.7,238.4c-0.6,0-0.4-0.8-0.1-1.1c0.5-0.4,1.3-0.2,1.7,0.2c0.7,0.8-0.2,2-1.1,2c-0.7,0.1-1.4-0.4-1.8-1
						c-0.8-1.2-0.3-2.8,1.2-3.1c1.4-0.3,2.5,0.4,3.4,1.4c0.9,1,0.4,4.2-2.2,4.8c-1.1,0.2-2.2,0.2-3.3,0c-1-0.1-1.9-0.5-2.9-0.5
						c-1.8-0.1-3.4,0.9-4.7,2c-1.6,1.4-2.5,1.7-3.4,1.7c0,0,2.7,0,3.8,1.8"/>
					<path class="st1" d="M58.1,237.8c0-0.2,0.3-0.6,0.8-0.5c0.5,0.1,0.9,0.6,0.8,1.2c-0.1,0.5-0.4,0.9-1,0.9
						c-1.2,0.1-1.8-1.2-1.4-2.2c0.5-1.4,1.9-1.4,3-0.7"/>
					<path class="st1" d="M55.5,238.5c0-0.2,0.3-0.6,0.8-0.5c0.5,0.1,0.9,0.6,0.8,1.2c-0.1,0.5-0.4,0.9-1,0.9
						c-1.2,0.1-1.8-1.2-1.4-2.2c0.4-1.2,1.6-1.4,2.6-0.9"/>
					<path class="st1" d="M48.7,249.5c0.4,0,1.4-0.5,2-1.3c0.6-0.8,1.3-1.5,2.2-1.4s2,1,1.9,2.3c0,1.3-0.9,1.6-0.9,1.6"/>
					<path class="st1" d="M57.7,248.7c0,0-1.9-2.7-4-1.7"/>
					<path class="st1" d="M62.9,241.7c0,0-1.6,0.7-2.4,2.5s-2,3.7-3.6,3.8"/>
					<path class="st1" d="M65,240.1c0,0,2.4,0.5,1.9,4.1c0,0,2,1.6,1.6,3.8c-0.4,2.2-1.8,3-1.8,3"/>
					<path class="st1" d="M59.7,245.8c0.2-0.4,0.2-0.8,0.2-1.3c0-1.4-0.9-2.7-2.1-3.2"/>
					<path class="st1" d="M54.5,241.6c-1,0.6-1.6,1.7-1.6,2.9c0,0.9,0.4,1.8,1,2.4"/>
					<circle class="st1" cx="56.2" cy="244.7" r="1.3"/>
					<path class="st1" d="M64.3,249.6c0.3-0.3,0.9-0.9,0.7-1.6s-1.5-1-1.8,0c-0.3,2-4,6.6-9.2,6.6s-5.5-2.9-5.5-2.9
						c2.1,0,2.9-1.3,2.9-1.6c0-0.3,0.3-1.2,1.2-1.1c0.9,0.1,0.7,1.6,0.4,1.7"/>
					<path class="st1" d="M49.9,251.6c0,0,0.3,1.8,3.8,1.8c1.9,0,3.8-0.6,5.4-1.7c0.9-0.7,1.6-1.5,2.2-2.5c0.5-0.8,0.9-2.1,1.7-2.7
						c1-0.7,2.4-0.2,2.9,0.8c0.5,1,0.1,2.2-0.7,2.9"/>
					<path class="st1" d="M61.4,251.1c0,0,2.8,2.8,6.8,1c0.2-0.1,0.2-0.5,0-0.5c-1.3-0.4-4.1-1.5-5-3.3"/>
					<path class="st1" d="M71.1,241.7c0,0,0.4,1.1-0.5,1.3c-0.9,0.2-1.3-1.1-0.8-1.6s1.6-0.7,2.3,0.3c0.7,1-0.4,2.7-1.8,2.5
						c-1.4-0.2-2.4-1.1-2.3-2.8s2-2.6,3.3-2.4s3.2,1.1,3.3,4.2s-3.3,4.3-4.7,3.9"/>
					<path class="st1" d="M72.1,245.2c0,0-1.3,1.5-3.7,0.8"/>
					<path class="st1" d="M71.2,244c0,0-0.9,1.3-3.6,0.8"/>
					<path class="st1" d="M69.2,243.8c0,0-1.2,0.2-2.2-0.8"/>
					<path class="st1" d="M68.4,237.2c0,0-0.4-0.3-0.2-0.9s1.1-0.7,1.5-0.3c0.5,0.3,0.8,1.9-0.6,2.3c-1.4,0.4-2.2-0.8-2.2-1.5
						s0.3-2.4,2.6-2.2c2.3,0.2,2.7,3.2,1.6,4.4"/>
					<path class="st1" d="M68.1,240.8c0,0-1.1,0.2-1.9,0"/>
					<path class="st1" d="M69.2,234.5c0,0,0.2-1.8-1.9-1.7"/>
					<path class="st1" d="M48.6,251.7v3.3c0,0,1.1,0.8,2.5,0.4v-1.3"/>
					<path class="st1" d="M51.1,255.4c0.7,0.7,1.8,0.3,1.8,0.3c1.1,0.8,2,0,2,0v-1.2c0,0,1.2,1.5,1.8,2.6c0.1,0.1,0.2,0.1,0.2,0
						c0.1-0.5,0.4-1.6,0.1-3"/>
					<line class="st1" x1="52.9" y1="255.7" x2="52.9" y2="254.6"/>
					<path class="st1" d="M52.9,227.4c-0.4,0.7-1.4,0.8-2,0.3c-0.8-0.8,0.2-1.4,1-1.3c0.7,0.1,1.4,0.4,1.8,1.1
						c0.6,1.3-1.7,1.8-2.6,1.6c-0.9-0.2-2.2-1.1-2.5-2.5c-0.3-1.5,2.7-2.2,4.6-1.4c1.9,0.8,2.4,1.6,2.4,1.6"/>
					<path class="st1" d="M56.9,230c0,0-0.8,0.4-1.3,0c-0.5-0.4-0.6-1.6,0.2-1.6s1.6,0.6,1.8,1.5s-1,1.6-2.3,0.9
						c-1.3-0.7-1.4-2.1-1.4-2.4c0-0.2,0-1.4,1.1-1.6c1.1-0.2,3.6-0.1,4.2,2.6"/>
					<path class="st1" d="M58.2,230.9c0,0,0.9-0.3,1.4,0.2c0.5,0.4,0.4,1.8-0.8,1.6"/>
					<path class="st1" d="M57.7,231.8c0,0-0.3-0.7-0.1-1.3c0.1-0.6,0.9-1.3,2.1-0.8c1.2,0.5,1.4,1.9,1.4,2.4"/>
					<path class="st1" d="M55.4,226.5c0.7-1.3-0.9-3-2.9-3.1c-2-0.1-1.8,1.5-1.8,1.5"/>
					<path class="st1" d="M59.1,229.1c0,0,0.8-1.6-0.4-2.6s-2.4-0.7-2.8-0.3c-0.5,0.3-0.5,0.3-0.5,0.3"/>
					<path class="st1" d="M48.6,223.5c0.3,0,1.8,0,2.1,1.1"/>
					<path class="st1" d="M48.6,222.5c0.3,0,1.9-0.1,2.6,1"/>
					<path class="st1" d="M59.3,228.2c0,0,1.5-0.2,2.4,0.8s0.7,1.7,0.7,1.7"/>
					<path class="st1" d="M59.7,229.8c0,0,0.4-0.6,1.4-0.2c1,0.4,0.6,2,0.6,2"/>
					<path class="st1" d="M57,268.8c0,0-1.5,0.6-2.4-0.3c-0.2-0.3,0.6-1.2,0.7-1.4c0.1-0.2,1-1.9,0.7-2.1
						C56,264.9,57.3,265.7,57,268.8z"/>
					<path class="st1" d="M62.4,251.7c0,0-3.5,10.6-5.6,14.5"/>
					<path class="st1" d="M63.4,252.3c0,0-4.6,11.8-6.4,15.9c0,0,0.6,1.2-0.4,1.6c-1,0.4-2.3-0.3-2.9-1.5s-4-1.6-5.1-1.6"/>
					<path class="st1" d="M55.6,266.4c0,0-0.4-1.4-2.1-1c0,0-0.8-1-2.1-0.4c0,0-1.5-0.9-2.8-0.2v0.8c4.6,0,6.2,2,6.2,2"/>
					<line class="st1" x1="53.6" y1="265.3" x2="53.6" y2="266.6"/>
					<line class="st1" x1="51.4" y1="264.9" x2="51.4" y2="265.8"/>
					<path class="st1" d="M48.7,268.2c0.6,0,2.6-0.1,3.7,1c0,0,0.7,9.6,9.5,7.5c3.1-0.8,3.4-4.8,2.1-6.3c-1.3-1.5-3.7-1.7-4.9-0.6
						c-1.2,1.1-1.2,4.4,1.3,4.4c2.4,0,2.2-2,2.2-2.2c0-0.2-0.6-1.6-1.9-1.1c-1.3,0.5-1,2.3-0.1,2.2c0.9-0.1,1-0.8,0.8-1.1"/>
					<path class="st1" d="M53.7,270.7c0,0,1,4.8,4.6,5.4c2.5,0.4,3.9-0.8,3.9-0.8"/>
					<path class="st1" d="M54.9,271.3c0,0,0.9,2.8,3.1,3.4s3.3-0.3,3.8-0.8"/>
					<path class="st1" d="M59.2,273.9c-2.3-0.3-2.8-2.5-2.8-2.5s1.5-0.2,2.4-1.2c1-1,0.9-2.3,0.9-2.3s1.9-0.7,2-2.6
						c0.2-1.5,3.7-9.9,5.2-11.5"/>
					<path class="st1" d="M65.1,254.7c-0.5,0.1-1.2-0.1-1-0.8c0.2-0.6,0.9-0.7,1.4-0.5c0.4,0.1,0.5,0.5,0.5,0.9c0,1-0.8,1.5-1.7,1.4
						"/>
					<path class="st1" d="M63.3,256.9c-0.5,0.1-1.2-0.1-1-0.8c0.2-0.6,0.9-0.7,1.4-0.5c0.4,0.1,0.5,0.5,0.5,0.9c0,1-0.8,1.5-1.7,1.4
						c0,0-0.9,0-1.2-0.4"/>
					<path class="st1" d="M64.8,252.7c0,0-0.2,0.9-1,0.9"/>
					<path class="st1" d="M73.1,246c1.4,1.3,2.5,3.4,2,5.4c-0.5,1.8-2.1,3.3-3.4,4.5c-1.2,1.1-2.4,8.5-3.7,9.4
						c-2.5,1.8-3.7,5.1-3.7,5.6"/>
					<path class="st1" d="M73.8,248.2c0.4,1,0.6,2.1,0.3,3.1c-0.5,1.8-2.1,3.3-3.4,4.5c-1.2,1.1-2.4,8.5-3.7,9.4
						c-1.8,1.3-2.9,3.4-3.4,4.7"/>
					<path class="st1" d="M72.5,247.7c0.6,1.1,0.9,2.4,0.6,3.6c-0.5,1.8-2.1,3.3-3.4,4.5c-1.2,1.1-2.4,8.5-3.7,9.4
						c-1.5,1.1-2.6,2.8-3.2,4.1"/>
					<path class="st1" d="M71.8,248.4c0.4,0.9,0.5,2,0.3,2.9c-0.5,1.8-2.1,3.3-3.4,4.5c-1.2,1.1-2.4,8.5-3.7,9.4
						c-1.5,1.1-2.5,2.6-3.1,3.9"/>
					<path class="st1" d="M71,249.1c0.2,0.7,0.2,1.5,0,2.2c-0.5,1.8-2.1,3.3-3.4,4.5c-1.2,1.1-2.4,8.5-3.7,9.4c-1.4,1-2.4,2.5-3,3.8
						"/>
					<path class="st1" d="M70.2,250.5c0,0.3-0.1,0.6-0.1,0.9c-0.5,1.8-2.1,3.3-3.4,4.5c-1.2,1.1-2.4,8.5-3.7,9.4
						c-1.5,1.1-2.5,2.7-3.1,4"/>
					<path class="st1" d="M48.6,274.6c0,0,1.6-1.9,4.3-2.6"/>
					<path class="st1" d="M48.6,276.5c0,0,2.3-2.3,5.1-3"/>
					<path class="st1" d="M44,236c0,0-1.2-4.4-3.3-4.3c-2.1,0.1-2.6,1.8-3,1.8c-0.5,0-5.9-6.8-8.4-6c-1.5,0.7-0.8,4.1,1.4,5.8
						c0,0-1.5,2.3,1.1,4.3"/>
					<path class="st1" d="M48.6,228.7c-0.8,0-5.2,0.5-7.2,3.2"/>
					<path class="st1" d="M45,237.2c0,0,1.9,2.3,3.6,2.3"/>
					<path class="st1" d="M43.7,238.9c0,0,2.1,3.2,4.9,3.2"/>
					<path class="st1" d="M35.6,238.4c0.6,0,0.4-0.8,0.1-1.1c-0.5-0.4-1.3-0.2-1.7,0.2c-0.7,0.8,0.2,2,1.1,2c0.7,0.1,1.4-0.4,1.8-1
						c0.8-1.2,0.3-2.8-1.2-3.1c-1.4-0.3-2.5,0.4-3.4,1.4c-0.9,1-0.4,4.2,2.2,4.8c1.1,0.2,2.2,0.2,3.3,0c1-0.1,1.9-0.5,2.9-0.5
						c1.8-0.1,3.4,0.9,4.7,2c1.6,1.4,2.5,1.7,3.4,1.7c0,0-2.7,0-3.8,1.8"/>
					<path class="st1" d="M39.1,237.8c0-0.2-0.3-0.6-0.8-0.5s-0.9,0.6-0.8,1.2c0.1,0.5,0.4,0.9,1,0.9c1.2,0.1,1.8-1.2,1.4-2.2
						c-0.5-1.4-1.9-1.4-3-0.7"/>
					<path class="st1" d="M41.8,238.5c0-0.2-0.3-0.6-0.8-0.5c-0.5,0.1-0.9,0.6-0.8,1.2c0.1,0.5,0.4,0.9,1,0.9
						c1.2,0.1,1.8-1.2,1.4-2.2c-0.4-1.2-1.6-1.4-2.6-0.9"/>
					<path class="st1" d="M48.6,249.5c-0.4,0-1.4-0.5-2-1.3c-0.6-0.8-1.3-1.5-2.2-1.4c-1,0.1-2,1-1.9,2.3c0,1.3,0.9,1.6,0.9,1.6"/>
					<path class="st1" d="M39.6,248.7c0,0,1.9-2.7,4-1.7"/>
					<path class="st1" d="M34.4,241.7c0,0,1.6,0.7,2.4,2.5s2,3.7,3.6,3.8"/>
					<path class="st1" d="M32.2,240.1c0,0-2.4,0.5-1.9,4.1c0,0-2,1.6-1.6,3.8c0.4,2.2,1.8,3,1.8,3"/>
					<path class="st1" d="M37.6,245.8c-0.2-0.4-0.2-0.8-0.2-1.3c0-1.4,0.9-2.7,2.1-3.2"/>
					<path class="st1" d="M42.7,241.6c1,0.6,1.6,1.7,1.6,2.9c0,0.9-0.4,1.8-1,2.4"/>
					<circle class="st1" cx="41.1" cy="244.7" r="1.3"/>
					<path class="st1" d="M33,249.6c-0.3-0.3-0.9-0.9-0.7-1.6c0.1-0.7,1.5-1,1.8,0c0.3,2,4,6.6,9.2,6.6s5.4-2.9,5.4-2.9
						c-2.1,0-2.8-1.3-2.8-1.6c0-0.3-0.3-1.2-1.2-1.1c-0.9,0.1-0.7,1.6-0.4,1.7"/>
					<path class="st1" d="M47.4,251.6c0,0-0.3,1.8-3.8,1.8c-1.9,0-3.8-0.6-5.4-1.7c-0.9-0.7-1.6-1.5-2.2-2.5
						c-0.5-0.8-0.9-2.1-1.7-2.7c-1-0.7-2.4-0.2-2.9,0.8c-0.5,1-0.1,2.2,0.7,2.9"/>
					<path class="st1" d="M35.9,251.1c0,0-2.8,2.8-6.8,1c-0.2-0.1-0.2-0.5,0-0.5c1.3-0.4,4.1-1.5,5-3.3"/>
					<path class="st1" d="M26.2,241.7c0,0-0.4,1.1,0.5,1.3s1.3-1.1,0.8-1.6c-0.5-0.5-1.6-0.7-2.3,0.3c-0.7,1,0.4,2.7,1.8,2.5
						c1.4-0.2,2.4-1.1,2.3-2.8c-0.1-1.7-2-2.6-3.3-2.4c-1.2,0.2-3.2,1.1-3.3,4.2s3.3,4.3,4.7,3.9"/>
					<path class="st1" d="M25.2,245.2c0,0,1.3,1.5,3.7,0.8"/>
					<path class="st1" d="M26.1,244c0,0,0.9,1.3,3.6,0.8"/>
					<path class="st1" d="M28.1,243.8c0,0,1.2,0.2,2.2-0.8"/>
					<path class="st1" d="M28.9,237.2c0,0,0.4-0.3,0.2-0.9c-0.2-0.6-1.1-0.7-1.5-0.3c-0.5,0.3-0.8,1.9,0.6,2.3
						c1.4,0.4,2.2-0.8,2.2-1.5c0-0.7-0.3-2.4-2.6-2.2c-2.3,0.2-2.7,3.2-1.6,4.4"/>
					<path class="st1" d="M29.2,240.8c0,0,1.1,0.2,1.9,0"/>
					<path class="st1" d="M28.1,234.5c0,0-0.2-1.8,1.9-1.7"/>
					<path class="st1" d="M48.6,251.7v3.3c0,0-1,0.8-2.4,0.4v-1.3"/>
					<path class="st1" d="M46.2,255.4c-0.7,0.7-1.8,0.3-1.8,0.3c-1.1,0.8-2,0-2,0v-1.2c0,0-1.2,1.5-1.8,2.6c-0.1,0.1-0.2,0.1-0.2,0
						c-0.1-0.5-0.4-1.6-0.1-3"/>
					<line class="st1" x1="44.4" y1="255.7" x2="44.4" y2="254.6"/>
					<path class="st1" d="M44.4,227.4c0.4,0.7,1.4,0.8,2,0.3c0.8-0.8-0.2-1.4-1-1.3c-0.7,0.1-1.4,0.4-1.8,1.1
						c-0.6,1.3,1.7,1.8,2.6,1.6c0.9-0.2,2.2-1.1,2.5-2.5c0.3-1.5-2.7-2.2-4.6-1.4c-1.9,0.8-2.4,1.6-2.4,1.6"/>
					<path class="st1" d="M40.3,230c0,0,0.8,0.4,1.3,0s0.6-1.6-0.2-1.6c-0.8-0.1-1.6,0.6-1.8,1.5s1,1.6,2.3,0.9
						c1.3-0.7,1.4-2.1,1.4-2.4c0-0.2,0-1.4-1.1-1.6s-3.6-0.1-4.2,2.6"/>
					<path class="st1" d="M39.1,230.9c0,0-0.9-0.3-1.4,0.2c-0.5,0.4-0.4,1.8,0.8,1.6"/>
					<path class="st1" d="M39.6,231.8c0,0,0.3-0.7,0.1-1.3c-0.1-0.6-0.9-1.3-2.1-0.8s-1.4,1.9-1.4,2.4"/>
					<path class="st1" d="M41.8,226.5c-0.7-1.3,0.9-3,2.9-3.1s1.8,1.5,1.8,1.5"/>
					<path class="st1" d="M38.2,229.1c0,0-0.8-1.6,0.4-2.6s2.4-0.7,2.8-0.3c0.5,0.3,0.5,0.3,0.5,0.3"/>
					<path class="st1" d="M48.6,223.5c-0.3,0-1.8,0-2.1,1.1"/>
					<path class="st1" d="M48.6,222.5c-0.3,0-1.9-0.1-2.6,1"/>
					<path class="st1" d="M38,228.2c0,0-1.5-0.2-2.4,0.8s-0.7,1.7-0.7,1.7"/>
					<path class="st1" d="M37.6,229.8c0,0-0.4-0.6-1.4-0.2c-1,0.4-0.6,2-0.6,2"/>
					<path class="st1" d="M40.3,268.8c0,0,1.5,0.6,2.4-0.3c0.2-0.3-0.6-1.2-0.7-1.4c-0.1-0.2-1-1.9-0.7-2.1
						C41.3,264.9,40,265.7,40.3,268.8z"/>
					<path class="st1" d="M34.9,251.7c0,0,3.5,10.6,5.6,14.5"/>
					<path class="st1" d="M33.9,252.3c0,0,4.6,11.8,6.4,15.9c0,0-0.6,1.2,0.4,1.6c1,0.4,2.3-0.3,2.9-1.5s4-1.6,5.1-1.6"/>
					<path class="st1" d="M41.7,266.4c0,0,0.4-1.4,2.1-1c0,0,0.8-1,2.1-0.4c0,0,1.5-0.9,2.8-0.2v0.8c-4.6,0-6.3,2-6.3,2"/>
					<line class="st1" x1="43.7" y1="265.3" x2="43.7" y2="266.6"/>
					<line class="st1" x1="45.9" y1="264.9" x2="45.9" y2="265.8"/>
					<path class="st1" d="M48.7,268.2c-0.6,0-2.6-0.1-3.8,1c0,0-0.7,9.6-9.5,7.5c-3.1-0.8-3.4-4.8-2.1-6.3c1.3-1.5,3.7-1.7,4.9-0.6
						s1.2,4.4-1.3,4.4s-2.2-2-2.2-2.2c0-0.2,0.6-1.6,1.9-1.1c1.3,0.5,1,2.3,0.1,2.2c-0.9-0.1-1-0.8-0.8-1.1"/>
					<path class="st1" d="M43.6,270.7c0,0-1,4.8-4.6,5.4c-2.5,0.4-3.9-0.8-3.9-0.8"/>
					<path class="st1" d="M42.4,271.3c0,0-0.9,2.8-3.1,3.4c-2.2,0.5-3.3-0.3-3.8-0.8"/>
					<path class="st1" d="M38.1,273.9c2.3-0.3,2.8-2.5,2.8-2.5s-1.5-0.2-2.4-1.2c-1-1-0.9-2.3-0.9-2.3s-1.9-0.7-2-2.6
						c-0.2-1.5-3.7-9.9-5.2-11.5"/>
					<path class="st1" d="M32.3,254.7c0.5,0.1,1.2-0.1,1-0.8c-0.2-0.6-0.9-0.7-1.4-0.5c-0.4,0.1-0.5,0.5-0.5,0.9
						c0,1,0.8,1.5,1.7,1.4"/>
					<path class="st1" d="M34,256.9c0.5,0.1,1.2-0.1,1-0.8c-0.2-0.6-0.9-0.7-1.4-0.5c-0.4,0.1-0.5,0.5-0.5,0.9c0,1,0.8,1.5,1.7,1.4
						c0,0,0.9,0,1.2-0.4"/>
					<path class="st1" d="M32.5,252.7c0,0,0.2,0.9,1,0.9"/>
					<path class="st1" d="M24.1,246c-1.4,1.3-2.5,3.4-2,5.4c0.5,1.8,2.1,3.3,3.4,4.5c1.2,1.1,2.4,8.5,3.7,9.4
						c2.5,1.8,3.7,5.1,3.7,5.6"/>
					<path class="st1" d="M23.5,248.2c-0.4,1-0.6,2.1-0.3,3.1c0.5,1.8,2.1,3.3,3.4,4.5c1.2,1.1,2.4,8.5,3.7,9.4
						c1.8,1.3,2.9,3.4,3.4,4.7"/>
					<path class="st1" d="M24.8,247.7c-0.6,1.1-0.9,2.4-0.6,3.6c0.5,1.8,2.1,3.3,3.4,4.5c1.2,1.1,2.4,8.5,3.7,9.4
						c1.5,1.1,2.6,2.8,3.2,4.1"/>
					<path class="st1" d="M25.5,248.4c-0.4,0.9-0.5,2-0.3,2.9c0.5,1.8,2.1,3.3,3.4,4.5c1.2,1.1,2.4,8.5,3.7,9.4
						c1.5,1.1,2.5,2.6,3.1,3.9"/>
					<path class="st1" d="M26.2,249.1c-0.2,0.7-0.2,1.5,0,2.2c0.5,1.8,2.1,3.3,3.4,4.5c1.2,1.1,2.4,8.5,3.7,9.4c1.4,1,2.4,2.5,3,3.8
						"/>
					<path class="st1" d="M27.1,250.5c0,0.3,0.1,0.6,0.1,0.9c0.5,1.8,2.1,3.3,3.4,4.5c1.2,1.1,2.4,8.5,3.7,9.4
						c1.5,1.1,2.5,2.7,3.1,4"/>
					<path class="st1" d="M48.6,274.6c0,0-1.4-1.9-4.2-2.6"/>
					<path class="st1" d="M48.6,276.5c0,0-2.2-2.3-5-3"/>
				</g>
				<path class="st1" d="M64.3,249.6c0.3-0.3,0.9-0.9,0.7-1.6s-1.5-1-1.8,0c-0.3,2-4,6.6-9.2,6.6s-5.5-2.9-5.5-2.9
					c2.1,0,2.9-1.3,2.9-1.6c0-0.3,0.3-1.2,1.2-1.1c0.9,0.1,0.7,1.6,0.4,1.7"/>
				<line class="st1" x1="52.9" y1="255.7" x2="52.9" y2="254.6"/>
				<path class="st1" d="M57,268.8c0,0-1.5,0.6-2.4-0.3c-0.2-0.3,0.6-1.2,0.7-1.4c0.1-0.2,1-1.9,0.7-2.1
					C56,264.9,57.3,265.7,57,268.8z"/>
				<path class="st1" d="M55.6,266.4c0,0-0.4-1.4-2.1-1c0,0-0.8-1-2.1-0.4c0,0-1.5-0.9-2.8-0.2v0.8c4.6,0,6.2,2,6.2,2"/>
				<line class="st1" x1="53.6" y1="265.3" x2="53.6" y2="266.6"/>
				<line class="st1" x1="51.4" y1="264.9" x2="51.4" y2="265.8"/>
				<path class="st1" d="M33,249.6c-0.3-0.3-0.9-0.9-0.7-1.6c0.1-0.7,1.5-1,1.8,0c0.3,2,4,6.6,9.2,6.6s5.4-2.9,5.4-2.9
					c-2.1,0-2.8-1.3-2.8-1.6c0-0.3-0.3-1.2-1.2-1.1c-0.9,0.1-0.7,1.6-0.4,1.7"/>
				<path class="st1" d="M46.2,254.1v1.3c1.5,0.4,2.4-0.4,2.4-0.4v-3.3l-0.1,0.6l-0.3,0.4l-0.6,0.7l-0.5,0.3l-0.7,0.3L46.2,254.1z"
					/>
				<path class="st1" d="M46.2,254.1v1.3c-0.7,0.7-1.8,0.3-1.8,0.3c-1.1,0.8-2,0-2,0v-1.2c0,0-1.2,1.5-1.8,2.6
					c-0.1,0.1-0.2,0.1-0.2,0c-0.1-0.5-0.4-1.6-0.1-3c0,0,1.3,0.4,1.8,0.4c0.5,0,1.8,0.1,1.8,0.1l1.6-0.3L46.2,254.1z"/>
				<path class="st1" d="M51,254.1v1.3c-1.5,0.4-2.4-0.4-2.4-0.4v-3.3l0.1,0.6l0.3,0.4l0.6,0.7l0.5,0.3l0.7,0.3L51,254.1z"/>
				<path class="st1" d="M51,254.1v1.3c0.7,0.7,1.8,0.3,1.8,0.3c1.1,0.8,2,0,2,0v-1.2c0,0,1.2,1.5,1.8,2.6c0.1,0.1,0.2,0.1,0.2,0
					c0.1-0.5,0.4-1.6,0.1-3c0,0-1.3,0.4-1.8,0.4c-0.5,0-1.8,0.1-1.8,0.1l-1.6-0.3L51,254.1z"/>
				<line class="st1" x1="44.4" y1="255.7" x2="44.4" y2="254.6"/>
				<path class="st1" d="M40.3,268.8c0,0,1.5,0.6,2.4-0.3c0.2-0.3-0.6-1.2-0.7-1.4c-0.1-0.2-1-1.9-0.7-2.1
					C41.3,264.9,40,265.7,40.3,268.8z"/>
				<path class="st1" d="M41.7,266.4c0,0,0.4-1.4,2.1-1c0,0,0.8-1,2.1-0.4c0,0,1.5-0.9,2.8-0.2v0.8c-4.6,0-6.3,2-6.3,2"/>
				<line class="st1" x1="43.7" y1="265.3" x2="43.7" y2="266.6"/>
				<line class="st1" x1="45.9" y1="264.9" x2="45.9" y2="265.8"/>
				<path class="st1" d="M48.6,251.7v3.3c0,0,1.1,0.8,2.5,0.4v-1.3"/>
				<path class="st1" d="M51.1,255.4c0.7,0.7,1.8,0.3,1.8,0.3c1.1,0.8,2,0,2,0v-1.2c0,0,1.2,1.5,1.8,2.6c0.1,0.1,0.2,0.1,0.2,0
					c0.1-0.5,0.4-1.6,0.1-3"/>
				<line class="st1" x1="52.9" y1="255.7" x2="52.9" y2="254.6"/>
				<path class="st1" d="M57,268.8c0,0-1.5,0.6-2.4-0.3c-0.2-0.3,0.6-1.2,0.7-1.4c0.1-0.2,1-1.9,0.7-2.1
					C56,264.9,57.3,265.7,57,268.8z"/>
				<path class="st1" d="M55.6,266.4c0,0-0.4-1.4-2.1-1c0,0-0.8-1-2.1-0.4c0,0-1.5-0.9-2.8-0.2v0.8c4.6,0,6.2,2,6.2,2"/>
				<line class="st1" x1="53.6" y1="265.3" x2="53.6" y2="266.6"/>
				<line class="st1" x1="51.4" y1="264.9" x2="51.4" y2="265.8"/>
				<path class="st1" d="M48.6,251.7v3.3c0,0-1,0.8-2.4,0.4v-1.3"/>
				<path class="st1" d="M46.2,255.4c-0.7,0.7-1.8,0.3-1.8,0.3c-1.1,0.8-2,0-2,0v-1.2c0,0-1.2,1.5-1.8,2.6c-0.1,0.1-0.2,0.1-0.2,0
					c-0.1-0.5-0.4-1.6-0.1-3"/>
				<line class="st1" x1="44.4" y1="255.7" x2="44.4" y2="254.6"/>
				<path class="st1" d="M40.3,268.8c0,0,1.5,0.6,2.4-0.3c0.2-0.3-0.6-1.2-0.7-1.4c-0.1-0.2-1-1.9-0.7-2.1
					C41.3,264.9,40,265.7,40.3,268.8z"/>
				<path class="st1" d="M41.7,266.4c0,0,0.4-1.4,2.1-1c0,0,0.8-1,2.1-0.4c0,0,1.5-0.9,2.8-0.2v0.8c-4.6,0-6.3,2-6.3,2"/>
				<line class="st1" x1="43.7" y1="265.3" x2="43.7" y2="266.6"/>
				<line class="st1" x1="45.9" y1="264.9" x2="45.9" y2="265.8"/>
				<path class="st1" d="M61.4,251.1c0,0,2.8,2.8,6.8,1c0.2-0.1,0.2-0.5,0-0.5c-1.3-0.4-4.1-1.5-5-3.3l-0.3,0.7l-0.5,1l-0.5,0.7
					L61.4,251.1z"/>
				<path class="st1" d="M35.9,251.1c0,0-2.8,2.8-6.8,1c-0.2-0.1-0.2-0.5,0-0.5c1.3-0.4,4.1-1.5,5-3.3"/>
				<path class="st1" d="M61.4,251.1c0,0,2.8,2.8,6.8,1c0.2-0.1,0.2-0.5,0-0.5c-1.3-0.4-4.1-1.5-5-3.3"/>
				<path class="st1" d="M35.8,251.1c0,0-2.8,2.8-6.8,1c-0.2-0.1-0.2-0.5,0-0.5c1.3-0.4,4.1-1.5,5-3.3l0.3,0.7l0.5,1l0.5,0.7
					L35.8,251.1z"/>
				<path class="st1" d="M35.8,251.1c0,0-2.8,2.8-6.8,1c-0.2-0.1-0.2-0.5,0-0.5c1.3-0.4,4.1-1.5,5-3.3"/>
				<path class="st1" d="M64.3,249.6c0.3-0.3,0.9-0.9,0.7-1.6s-1.5-1-1.8,0c-0.3,2-4,6.6-9.2,6.6s-5.5-2.9-5.5-2.9
					c2.1,0,2.9-1.3,2.9-1.6c0-0.3,0.3-1.2,1.2-1.1c0.9,0.1,0.7,1.6,0.4,1.7"/>
				<path class="st1" d="M33,249.6c-0.3-0.3-0.9-0.9-0.7-1.6c0.1-0.7,1.5-1,1.8,0c0.3,2,4,6.6,9.2,6.6s5.4-2.9,5.4-2.9
					c-2.1,0-2.8-1.3-2.8-1.6c0-0.3-0.3-1.2-1.2-1.1c-0.9,0.1-0.7,1.6-0.4,1.7"/>
				<path class="st1" d="M37.7,312.2c-3.5-1.5-6.6-3.6-9.2-6.2c-2.7-2.7-4.8-5.8-6.2-9.2c-1.5-3.6-2.3-7.4-2.3-11.3
					c0-3.9,0.8-7.7,2.3-11.3c1.5-3.5,3.6-6.6,6.2-9.2c2.7-2.7,5.8-4.8,9.2-6.2c3.6-1.5,7.4-2.3,11.3-2.3s7.7,0.8,11.3,2.3
					c3.5,1.5,6.6,3.6,9.2,6.2c2.7,2.7,4.8,5.8,6.2,9.2c1.5,3.6,2.3,7.4,2.3,11.3c0,3.9-0.8,7.7-2.3,11.3c-1.5,3.5-3.6,6.6-6.2,9.2
					c-2.7,2.7-5.8,4.8-9.2,6.2c-3.6,1.5-7.4,2.3-11.3,2.3S41.2,313.7,37.7,312.2z M33.9,270.3c-4,4-6.3,9.4-6.3,15.1
					c0,5.7,2.2,11.1,6.3,15.1c4,4,9.4,6.3,15.1,6.3s11.1-2.2,15.1-6.3c4-4,6.3-9.4,6.3-15.1c0-5.7-2.2-11.1-6.3-15.1
					c-4-4-9.4-6.3-15.1-6.3S37.9,266.3,33.9,270.3z"/>
			</g>
		</g>
	</g>
	<g>
		<circle class="st2" cx="155.2" cy="439.4" r="8.6"/>
		<circle class="st2" cx="113.1" cy="439.4" r="8.6"/>
		<circle class="st2" cx="71" cy="439.4" r="8.6"/>
		<circle class="st2" cx="29" cy="439.4" r="8.6"/>
	</g>
	<g>
		<circle class="st2" cx="155.2" cy="404.6" r="8.6"/>
		<circle class="st2" cx="113.1" cy="404.6" r="8.6"/>
		<circle class="st2" cx="71" cy="404.6" r="8.6"/>
		<circle class="st2" cx="29" cy="404.6" r="8.6"/>
	</g>
	<g>
		<circle class="st2" cx="155.2" cy="369.7" r="8.6"/>
		<circle class="st2" cx="113.1" cy="369.7" r="8.6"/>
		<circle class="st2" cx="71" cy="369.7" r="8.6"/>
		<circle class="st2" cx="29" cy="369.7" r="8.6"/>
	</g>
	<g>
		<circle class="st2" cx="155.2" cy="334.9" r="8.6"/>
		<circle class="st2" cx="113.1" cy="334.9" r="8.6"/>
		<circle class="st2" cx="71" cy="334.9" r="8.6"/>
		<circle class="st2" cx="29" cy="334.9" r="8.6"/>
	</g>
	<circle class="st2" cx="155.2" cy="300" r="8.6"/>
	<circle class="st2" cx="113.1" cy="300" r="8.6"/>
	<circle class="st2" cx="155.2" cy="265.2" r="8.6"/>
	<circle class="st2" cx="113.1" cy="265.2" r="8.6"/>
	<circle class="st2" cx="155.2" cy="230.3" r="8.6"/>
	<circle class="st2" cx="113.1" cy="230.3" r="8.6"/>
	<g>
		<circle class="st2" cx="155.2" cy="195.5" r="8.6"/>
		<circle class="st2" cx="113.1" cy="195.5" r="8.6"/>
		<circle class="st2" cx="71" cy="195.5" r="8.6"/>
		<circle class="st2" cx="29" cy="195.5" r="8.6"/>
	</g>
	<g>
		<circle class="st2" cx="155.2" cy="160.6" r="8.6"/>
		<circle class="st2" cx="113.1" cy="160.6" r="8.6"/>
		<circle class="st2" cx="71" cy="160.6" r="8.6"/>
		<circle class="st2" cx="29" cy="160.6" r="8.6"/>
	</g>
	<g>
		<circle class="st2" cx="155.2" cy="125.8" r="8.6"/>
		<circle class="st2" cx="113.1" cy="125.8" r="8.6"/>
		<circle class="st2" cx="71" cy="125.8" r="8.6"/>
		<circle class="st2" cx="29" cy="125.8" r="8.6"/>
	</g>
	<g>
		<circle class="st2" cx="113.1" cy="91" r="8.6"/>
		<circle class="st2" cx="71" cy="91" r="8.6"/>
		<circle class="st2" cx="29" cy="91" r="8.6"/>
	</g>
	<g>
		<circle class="st2" cx="71" cy="52.1" r="8.6"/>
		<circle class="st2" cx="29" cy="52.1" r="8.6"/>
	</g>
</g>
</svg>
