<?xml version="1.0" encoding="utf-8"?>
<!-- Generator: Adobe Illustrator 26.3.1, SVG Export Plug-In . SVG Version: 6.00 Build 0)  -->
<svg version="1.1" id="圖層_1" xmlns="http://www.w3.org/2000/svg" xmlns:xlink="http://www.w3.org/1999/xlink" x="0px" y="0px"
	 viewBox="0 0 193.8 464.5" style="enable-background:new 0 0 193.8 464.5;" xml:space="preserve">
<style type="text/css">
	.st0{fill:#B22227;stroke:#C2996B;stroke-width:3;stroke-miterlimit:10;}
	.st1{fill:#C2996B;stroke:#FDE626;stroke-width:6.425142e-02;stroke-miterlimit:10;}
	.st2{fill:#C2996B;stroke:#C2996B;stroke-width:3.4422;stroke-miterlimit:10;}
</style>
<g>
	<path class="st0" d="M1.5,192.3V463h190.8V1.5C86.9,1.5,1.5,86.9,1.5,192.3z"/>
	<g>
		<g>
			<g>
				<path class="st1" d="M169.7,246c0,0,1.8-0.9,1.2-3.9s-3.2-3.2-3.2-3.2c0.9-1.1,0.6-2.2,0.6-2.2c-0.5-2.5-2.6-2.2-2.6-2.2
					c0.1-1.9-1.9-1.7-1.9-1.7c2.2-1.9,2.2-6.2,0-5.4c-2.2,0.8-4.8,3.3-4.8,3.3s-0.1-0.8-0.7-1.7c-0.6-0.9-2.4-0.8-2.4-0.8
					s0.3-1.5-1.3-2.2c-1.6-0.7-2.6,0.4-2.6,0.4c0.6-1.3-0.8-2.4-0.8-2.4c-1.9-1.1-3.4-0.5-3.4-0.5c-0.7-1.3-2.6-1-2.6-1
					s-1.9-0.3-2.6,1c0,0-1.5-0.6-3.4,0.5c0,0-1.4,1.1-0.8,2.4c0,0-1-1.1-2.6-0.4c-1.6,0.7-1.3,2.2-1.3,2.2s-1.8-0.1-2.4,0.8
					c-0.6,0.9-0.7,1.7-0.7,1.7s-2.6-2.5-4.8-3.3c-2.2-0.8-2.2,3.4,0,5.4c0,0-2-0.2-1.9,1.7c0,0-2.2-0.3-2.6,2.2c0,0-0.3,1.1,0.6,2.2
					c0,0-2.5,0.2-3.2,3.2c-0.6,3,1.2,3.9,1.2,3.9s-2.1,1.4-2.1,4.5c0,3.1,4.8,6.5,4.8,6.5s2.9,8.6,3.5,9.3c0.6,0.7,2.1,2.3,2.6,4.7
					c0,0-1,1.7,0.1,3.8c1.1,2.1,5.2,3.1,8.5,1.1c0,0,1.3-0.8,2.1-2.4c0,0,3,1,4.8,2.7l0.2,0.3c0,0,0,0,0.1-0.1c0,0,0,0,0.1,0.1
					l0.2-0.3c1.7-1.7,4.8-2.7,4.8-2.7c0.8,1.6,2.1,2.4,2.1,2.4c3.3,2,7.4,1,8.5-1.1s0.1-3.8,0.1-3.8c0.5-2.4,2-3.9,2.6-4.7
					c0.6-0.7,3.5-9.3,3.5-9.3s4.7-3.4,4.8-6.5C171.9,247.4,169.7,246,169.7,246z"/>
				<g>
					<path class="st1" d="M137.9,241.2c0,0-1.3-0.3-2.3,0.4s-1.3,1.5-1.3,1.5l-0.2,0.7l-0.1,0.8l0.1,1c0,0,0.2,0.4,0.4,0.7
						s0.9,1.1,1.6,1.5c0,0,0.8,0.5,1.2,0l0.9-0.6l0.7-0.2l0.5,0c0,0,0.6,0.3,0.8-0.1c0,0,0.9-1.2,0.8-1.8c0,0,0.1-1.3-0.5-2.2
						c0,0-0.5-0.9-1.5-1.2S137.9,241.2,137.9,241.2z"/>
					<path class="st1" d="M152.6,241.2c0,0,1.3-0.3,2.3,0.4s1.3,1.5,1.3,1.5l0.2,0.7l0.1,0.8l-0.1,1c0,0-0.2,0.4-0.4,0.7
						c-0.2,0.3-0.9,1.1-1.6,1.5c0,0-0.8,0.5-1.2,0l-0.9-0.6l-0.7-0.2l-0.5,0c0,0-0.6,0.3-0.8-0.1c0,0-0.9-1.2-0.8-1.8
						c0,0-0.1-1.3,0.5-2.2c0,0,0.5-0.9,1.5-1.2C152.6,241.1,152.6,241.2,152.6,241.2z"/>
					<path class="st1" d="M140.5,236c0,0-1.2-4.4-3.3-4.3c-2.1,0.1-2.6,1.8-3,1.8s-5.9-6.8-8.4-6c-1.5,0.7-0.8,4.1,1.4,5.8
						c0,0-1.5,2.3,1.1,4.3"/>
					<path class="st1" d="M145.2,228.7c-0.8,0-5.2,0.5-7.2,3.2"/>
					<path class="st1" d="M141.6,237.2c0,0,1.9,2.3,3.6,2.3"/>
					<path class="st1" d="M140.3,238.9c0,0,2.1,3.2,4.9,3.2"/>
					<path class="st1" d="M132.2,238.4c0.6,0,0.4-0.8,0.1-1.1c-0.5-0.4-1.3-0.2-1.7,0.2c-0.7,0.8,0.2,2,1.1,2c0.7,0.1,1.4-0.4,1.8-1
						c0.8-1.2,0.3-2.8-1.2-3.1c-1.4-0.3-2.5,0.4-3.4,1.4c-0.9,1-0.4,4.2,2.2,4.8c1.1,0.2,2.2,0.2,3.3,0c1-0.1,1.9-0.5,2.9-0.5
						c1.8-0.1,3.4,0.9,4.7,2c1.6,1.4,2.5,1.7,3.4,1.7c0,0-2.7,0-3.8,1.8"/>
					<path class="st1" d="M135.7,237.8c0-0.2-0.3-0.6-0.8-0.5s-0.9,0.6-0.8,1.2c0.1,0.5,0.4,0.9,1,0.9c1.2,0.1,1.8-1.2,1.4-2.2
						c-0.5-1.4-1.9-1.4-3-0.7"/>
					<path class="st1" d="M138.4,238.5c0-0.2-0.3-0.6-0.8-0.5s-0.9,0.6-0.8,1.2c0.1,0.5,0.4,0.9,1,0.9c1.2,0.1,1.8-1.2,1.4-2.2
						c-0.4-1.2-1.6-1.4-2.6-0.9"/>
					<path class="st1" d="M145.2,249.5c-0.4,0-1.4-0.5-2-1.3c-0.6-0.8-1.3-1.5-2.2-1.4s-2,1-1.9,2.3c0,1.3,0.9,1.6,0.9,1.6"/>
					<path class="st1" d="M136.2,248.7c0,0,1.9-2.7,4-1.7"/>
					<path class="st1" d="M130.9,241.7c0,0,1.6,0.7,2.4,2.5c0.7,1.8,2,3.7,3.6,3.8"/>
					<path class="st1" d="M128.8,240.1c0,0-2.4,0.5-1.9,4.1c0,0-2,1.6-1.6,3.8c0.4,2.2,1.8,3,1.8,3"/>
					<path class="st1" d="M134.2,245.8c-0.2-0.4-0.2-0.8-0.2-1.3c0-1.4,0.9-2.7,2.1-3.2"/>
					<path class="st1" d="M139.3,241.6c1,0.6,1.6,1.7,1.6,2.9c0,0.9-0.4,1.8-1,2.4"/>
					<circle class="st1" cx="137.6" cy="244.7" r="1.3"/>
					<path class="st1" d="M129.6,249.6c-0.3-0.3-0.9-0.9-0.7-1.6s1.5-1,1.8,0c0.3,2,4,6.6,9.2,6.6c5.1,0,5.5-2.9,5.5-2.9
						c-2.1,0-2.9-1.3-2.9-1.6c0-0.3-0.3-1.2-1.2-1.1c-0.9,0.1-0.7,1.6-0.4,1.7"/>
					<path class="st1" d="M143.9,251.6c0,0-0.3,1.8-3.8,1.8c-1.9,0-3.8-0.6-5.4-1.7c-0.9-0.7-1.6-1.5-2.2-2.5
						c-0.5-0.8-0.9-2.1-1.7-2.7c-1-0.7-2.4-0.2-2.9,0.8c-0.5,1-0.1,2.2,0.7,2.9"/>
					<path class="st1" d="M132.5,251.1c0,0-2.8,2.8-6.8,1c-0.2-0.1-0.2-0.5,0-0.5c1.3-0.4,4.1-1.5,5-3.3"/>
					<path class="st1" d="M122.8,241.7c0,0-0.4,1.1,0.5,1.3c0.9,0.2,1.3-1.1,0.8-1.6s-1.6-0.7-2.3,0.3c-0.7,1,0.4,2.7,1.8,2.5
						c1.4-0.2,2.4-1.1,2.3-2.8s-2-2.6-3.3-2.4s-3.2,1.1-3.3,4.2s3.3,4.3,4.7,3.9"/>
					<path class="st1" d="M121.7,245.2c0,0,1.3,1.5,3.7,0.8"/>
					<path class="st1" d="M122.6,244c0,0,0.9,1.3,3.6,0.8"/>
					<path class="st1" d="M124.7,243.8c0,0,1.2,0.2,2.2-0.8"/>
					<path class="st1" d="M125.5,237.2c0,0,0.4-0.3,0.2-0.9s-1.1-0.7-1.5-0.3c-0.5,0.3-0.8,1.9,0.6,2.3c1.4,0.4,2.2-0.8,2.2-1.5
						s-0.3-2.4-2.6-2.2c-2.3,0.2-2.7,3.2-1.6,4.4"/>
					<path class="st1" d="M125.8,240.8c0,0,1.1,0.2,1.9,0"/>
					<path class="st1" d="M124.7,234.5c0,0-0.2-1.8,1.9-1.7"/>
					<path class="st1" d="M145.3,251.7v3.3c0,0-1.1,0.8-2.5,0.4v-1.3"/>
					<path class="st1" d="M142.7,255.4c-0.7,0.7-1.8,0.3-1.8,0.3c-1.1,0.8-2,0-2,0v-1.2c0,0-1.2,1.5-1.8,2.6c-0.1,0.1-0.2,0.1-0.2,0
						c-0.1-0.5-0.4-1.6-0.1-3"/>
					<line class="st1" x1="140.9" y1="255.7" x2="140.9" y2="254.6"/>
					<path class="st1" d="M140.9,227.4c0.4,0.7,1.4,0.8,2,0.3c0.8-0.8-0.2-1.4-1-1.3c-0.7,0.1-1.4,0.4-1.8,1.1
						c-0.6,1.3,1.7,1.8,2.6,1.6c0.9-0.2,2.2-1.1,2.5-2.5c0.3-1.5-2.7-2.2-4.6-1.4c-1.9,0.8-2.4,1.6-2.4,1.6"/>
					<path class="st1" d="M136.9,230c0,0,0.8,0.4,1.3,0s0.6-1.6-0.2-1.6c-0.8-0.1-1.6,0.6-1.8,1.5c-0.1,0.9,1,1.6,2.3,0.9
						c1.3-0.7,1.4-2.1,1.4-2.4c0-0.2,0-1.4-1.1-1.6s-3.6-0.1-4.2,2.6"/>
					<path class="st1" d="M135.6,230.9c0,0-0.9-0.3-1.4,0.2c-0.5,0.4-0.4,1.8,0.8,1.6"/>
					<path class="st1" d="M136.2,231.8c0,0,0.3-0.7,0.1-1.3c-0.1-0.6-0.9-1.3-2.1-0.8c-1.2,0.5-1.4,1.9-1.4,2.4"/>
					<path class="st1" d="M138.4,226.5c-0.7-1.3,0.9-3,2.9-3.1s1.8,1.5,1.8,1.5"/>
					<path class="st1" d="M134.8,229.1c0,0-0.8-1.6,0.4-2.6c1.1-1,2.4-0.7,2.8-0.3c0.5,0.3,0.5,0.3,0.5,0.3"/>
					<path class="st1" d="M145.2,223.5c-0.3,0-1.8,0-2.1,1.1"/>
					<path class="st1" d="M145.2,222.5c-0.3,0-1.9-0.1-2.6,1"/>
					<path class="st1" d="M134.5,228.2c0,0-1.5-0.2-2.4,0.8c-0.9,1-0.7,1.7-0.7,1.7"/>
					<path class="st1" d="M134.2,229.8c0,0-0.4-0.6-1.4-0.2c-1,0.4-0.6,2-0.6,2"/>
					<path class="st1" d="M136.9,268.8c0,0,1.5,0.6,2.4-0.3c0.2-0.3-0.6-1.2-0.7-1.4c-0.1-0.2-1-1.9-0.7-2.1
						C137.9,264.9,136.6,265.7,136.9,268.8z"/>
					<path class="st1" d="M131.5,251.7c0,0,3.5,10.6,5.6,14.5"/>
					<path class="st1" d="M130.5,252.3c0,0,4.6,11.8,6.4,15.9c0,0-0.6,1.2,0.4,1.6c1,0.4,2.3-0.3,2.9-1.5s4-1.6,5.1-1.6"/>
					<path class="st1" d="M138.2,266.4c0,0,0.4-1.4,2.1-1c0,0,0.8-1,2.1-0.4c0,0,1.5-0.9,2.8-0.2v0.8c-4.6,0-6.2,2-6.2,2"/>
					<line class="st1" x1="140.3" y1="265.3" x2="140.3" y2="266.6"/>
					<line class="st1" x1="142.4" y1="264.9" x2="142.4" y2="265.8"/>
					<path class="st1" d="M145.2,268.2c-0.6,0-2.6-0.1-3.7,1c0,0-0.7,9.6-9.5,7.5c-3.1-0.8-3.4-4.8-2.1-6.3c1.3-1.5,3.7-1.7,4.9-0.6
						c1.2,1.1,1.2,4.4-1.3,4.4s-2.2-2-2.2-2.2c0-0.2,0.6-1.6,1.9-1.1c1.3,0.5,1,2.3,0.1,2.2c-0.9-0.1-1-0.8-0.8-1.1"/>
					<path class="st1" d="M140.1,270.7c0,0-1,4.8-4.6,5.4c-2.5,0.4-3.9-0.8-3.9-0.8"/>
					<path class="st1" d="M139,271.3c0,0-0.9,2.8-3.1,3.4s-3.3-0.3-3.8-0.8"/>
					<path class="st1" d="M134.7,273.9c2.3-0.3,2.8-2.5,2.8-2.5s-1.5-0.2-2.4-1.2s-0.9-2.3-0.9-2.3s-1.9-0.7-2-2.6
						c-0.2-1.5-3.7-9.9-5.2-11.5"/>
					<path class="st1" d="M128.8,254.7c0.5,0.1,1.2-0.1,1-0.8c-0.2-0.6-0.9-0.7-1.4-0.5c-0.4,0.1-0.5,0.5-0.5,0.9
						c0,1,0.8,1.5,1.7,1.4"/>
					<path class="st1" d="M130.5,256.9c0.5,0.1,1.2-0.1,1-0.8c-0.2-0.6-0.9-0.7-1.4-0.5c-0.4,0.1-0.5,0.5-0.5,0.9
						c0,1,0.8,1.5,1.7,1.4c0,0,0.9,0,1.2-0.4"/>
					<path class="st1" d="M129.1,252.7c0,0,0.2,0.9,1,0.9"/>
					<path class="st1" d="M120.7,246c-1.4,1.3-2.5,3.4-2,5.4c0.5,1.8,2.1,3.3,3.4,4.5c1.2,1.1,2.4,8.5,3.7,9.4
						c2.5,1.8,3.7,5.1,3.7,5.6"/>
					<path class="st1" d="M120.1,248.2c-0.4,1-0.6,2.1-0.3,3.1c0.5,1.8,2.1,3.3,3.4,4.5c1.2,1.1,2.4,8.5,3.7,9.4
						c1.8,1.3,2.9,3.4,3.4,4.7"/>
					<path class="st1" d="M121.3,247.7c-0.6,1.1-0.9,2.4-0.6,3.6c0.5,1.8,2.1,3.3,3.4,4.5c1.2,1.1,2.4,8.5,3.7,9.4
						c1.5,1.1,2.6,2.8,3.2,4.1"/>
					<path class="st1" d="M122,248.4c-0.4,0.9-0.5,2-0.3,2.9c0.5,1.8,2.1,3.3,3.4,4.5c1.2,1.1,2.4,8.5,3.7,9.4
						c1.5,1.1,2.5,2.6,3.1,3.9"/>
					<path class="st1" d="M122.8,249.1c-0.2,0.7-0.2,1.5,0,2.2c0.5,1.8,2.1,3.3,3.4,4.5c1.2,1.1,2.4,8.5,3.7,9.4
						c1.4,1,2.4,2.5,3,3.8"/>
					<path class="st1" d="M123.7,250.5c0,0.3,0.1,0.6,0.1,0.9c0.5,1.8,2.1,3.3,3.4,4.5c1.2,1.1,2.4,8.5,3.7,9.4
						c1.5,1.1,2.5,2.7,3.1,4"/>
					<path class="st1" d="M145.3,274.6c0,0-1.6-1.9-4.3-2.6"/>
					<path class="st1" d="M145.3,276.5c0,0-2.3-2.3-5.1-3"/>
					<path class="st1" d="M149.9,236c0,0,1.2-4.4,3.3-4.3c2.1,0.1,2.6,1.8,3,1.8s5.9-6.8,8.4-6c1.5,0.7,0.8,4.1-1.4,5.8
						c0,0,1.5,2.3-1.1,4.3"/>
					<path class="st1" d="M145.2,228.7c0.8,0,5.2,0.5,7.2,3.2"/>
					<path class="st1" d="M148.8,237.2c0,0-1.9,2.3-3.6,2.3"/>
					<path class="st1" d="M150.1,238.9c0,0-2.1,3.2-4.9,3.2"/>
					<path class="st1" d="M158.2,238.4c-0.6,0-0.4-0.8-0.1-1.1c0.5-0.4,1.3-0.2,1.7,0.2c0.7,0.8-0.2,2-1.1,2c-0.7,0.1-1.4-0.4-1.8-1
						c-0.8-1.2-0.3-2.8,1.2-3.1c1.4-0.3,2.5,0.4,3.4,1.4c0.9,1,0.4,4.2-2.2,4.8c-1.1,0.2-2.2,0.2-3.3,0c-1-0.1-1.9-0.5-2.9-0.5
						c-1.8-0.1-3.4,0.9-4.7,2c-1.6,1.4-2.5,1.7-3.4,1.7c0,0,2.7,0,3.8,1.8"/>
					<path class="st1" d="M154.7,237.8c0-0.2,0.3-0.6,0.8-0.5s0.9,0.6,0.8,1.2c-0.1,0.5-0.4,0.9-1,0.9c-1.2,0.1-1.8-1.2-1.4-2.2
						c0.5-1.4,1.9-1.4,3-0.7"/>
					<path class="st1" d="M152,238.5c0-0.2,0.3-0.6,0.8-0.5s0.9,0.6,0.8,1.2c-0.1,0.5-0.4,0.9-1,0.9c-1.2,0.1-1.8-1.2-1.4-2.2
						c0.4-1.2,1.6-1.4,2.6-0.9"/>
					<path class="st1" d="M145.2,249.5c0.4,0,1.4-0.5,2-1.3c0.6-0.8,1.3-1.5,2.2-1.4s2,1,1.9,2.3c0,1.3-0.9,1.6-0.9,1.6"/>
					<path class="st1" d="M154.2,248.7c0,0-1.9-2.7-4-1.7"/>
					<path class="st1" d="M159.5,241.7c0,0-1.6,0.7-2.4,2.5c-0.7,1.8-2,3.7-3.6,3.8"/>
					<path class="st1" d="M161.6,240.1c0,0,2.4,0.5,1.9,4.1c0,0,2,1.6,1.6,3.8c-0.4,2.2-1.8,3-1.8,3"/>
					<path class="st1" d="M156.2,245.8c0.2-0.4,0.2-0.8,0.2-1.3c0-1.4-0.9-2.7-2.1-3.2"/>
					<path class="st1" d="M151.1,241.6c-1,0.6-1.6,1.7-1.6,2.9c0,0.9,0.4,1.8,1,2.4"/>
					<circle class="st1" cx="152.8" cy="244.7" r="1.3"/>
					<path class="st1" d="M160.9,249.6c0.3-0.3,0.9-0.9,0.7-1.6c-0.1-0.7-1.5-1-1.8,0c-0.3,2-4,6.6-9.2,6.6c-5.1,0-5.4-2.9-5.4-2.9
						c2.1,0,2.8-1.3,2.8-1.6c0-0.3,0.3-1.2,1.2-1.1s0.7,1.6,0.4,1.7"/>
					<path class="st1" d="M146.5,251.6c0,0,0.3,1.8,3.8,1.8c1.9,0,3.8-0.6,5.4-1.7c0.9-0.7,1.6-1.5,2.2-2.5c0.5-0.8,0.9-2.1,1.7-2.7
						c1-0.7,2.4-0.2,2.9,0.8c0.5,1,0.1,2.2-0.7,2.9"/>
					<path class="st1" d="M157.9,251.1c0,0,2.8,2.8,6.8,1c0.2-0.1,0.2-0.5,0-0.5c-1.3-0.4-4.1-1.5-5-3.3"/>
					<path class="st1" d="M167.6,241.7c0,0,0.4,1.1-0.5,1.3c-0.9,0.2-1.3-1.1-0.8-1.6s1.6-0.7,2.3,0.3c0.7,1-0.4,2.7-1.8,2.5
						s-2.4-1.1-2.3-2.8c0.1-1.7,2-2.6,3.3-2.4c1.2,0.2,3.2,1.1,3.3,4.2c0.1,3-3.3,4.3-4.7,3.9"/>
					<path class="st1" d="M168.7,245.2c0,0-1.3,1.5-3.7,0.8"/>
					<path class="st1" d="M167.8,244c0,0-0.9,1.3-3.6,0.8"/>
					<path class="st1" d="M165.7,243.8c0,0-1.2,0.2-2.2-0.8"/>
					<path class="st1" d="M164.9,237.2c0,0-0.4-0.3-0.2-0.9c0.2-0.6,1.1-0.7,1.5-0.3c0.5,0.3,0.8,1.9-0.6,2.3
						c-1.4,0.4-2.2-0.8-2.2-1.5s0.3-2.4,2.6-2.2c2.3,0.2,2.7,3.2,1.6,4.4"/>
					<path class="st1" d="M164.7,240.8c0,0-1.1,0.2-1.9,0"/>
					<path class="st1" d="M165.7,234.5c0,0,0.2-1.8-1.9-1.7"/>
					<path class="st1" d="M145.3,251.7v3.3c0,0,1,0.8,2.4,0.4v-1.3"/>
					<path class="st1" d="M147.7,255.4c0.7,0.7,1.8,0.3,1.8,0.3c1.1,0.8,2,0,2,0v-1.2c0,0,1.2,1.5,1.8,2.6c0.1,0.1,0.2,0.1,0.2,0
						c0.1-0.5,0.4-1.6,0.1-3"/>
					<line class="st1" x1="149.5" y1="255.7" x2="149.5" y2="254.6"/>
					<path class="st1" d="M149.5,227.4c-0.4,0.7-1.4,0.8-2,0.3c-0.8-0.8,0.2-1.4,1-1.3c0.7,0.1,1.4,0.4,1.8,1.1
						c0.6,1.3-1.7,1.8-2.6,1.6c-0.9-0.2-2.2-1.1-2.5-2.5c-0.3-1.5,2.7-2.2,4.6-1.4c1.9,0.8,2.4,1.6,2.4,1.6"/>
					<path class="st1" d="M153.5,230c0,0-0.8,0.4-1.3,0s-0.6-1.6,0.2-1.6s1.6,0.6,1.8,1.5s-1,1.6-2.3,0.9c-1.3-0.7-1.4-2.1-1.4-2.4
						c0-0.2,0-1.4,1.1-1.6c1.1-0.2,3.6-0.1,4.2,2.6"/>
					<path class="st1" d="M154.8,230.9c0,0,0.9-0.3,1.4,0.2c0.5,0.4,0.4,1.8-0.8,1.6"/>
					<path class="st1" d="M154.2,231.8c0,0-0.3-0.7-0.1-1.3c0.1-0.6,0.9-1.3,2.1-0.8c1.2,0.5,1.4,1.9,1.4,2.4"/>
					<path class="st1" d="M152,226.5c0.7-1.3-0.9-3-2.9-3.1c-2-0.1-1.8,1.5-1.8,1.5"/>
					<path class="st1" d="M155.6,229.1c0,0,0.8-1.6-0.4-2.6s-2.4-0.7-2.8-0.3c-0.5,0.3-0.5,0.3-0.5,0.3"/>
					<path class="st1" d="M145.2,223.5c0.3,0,1.8,0,2.1,1.1"/>
					<path class="st1" d="M145.2,222.5c0.3,0,1.9-0.1,2.6,1"/>
					<path class="st1" d="M155.9,228.2c0,0,1.5-0.2,2.4,0.8s0.7,1.7,0.7,1.7"/>
					<path class="st1" d="M156.2,229.8c0,0,0.4-0.6,1.4-0.2c1,0.4,0.6,2,0.6,2"/>
					<path class="st1" d="M153.5,268.8c0,0-1.5,0.6-2.4-0.3c-0.2-0.3,0.6-1.2,0.7-1.4c0.1-0.2,1-1.9,0.7-2.1
						C152.5,264.9,153.8,265.7,153.5,268.8z"/>
					<path class="st1" d="M159,251.7c0,0-3.5,10.6-5.6,14.5"/>
					<path class="st1" d="M159.9,252.3c0,0-4.6,11.8-6.4,15.9c0,0,0.6,1.2-0.4,1.6c-1,0.4-2.3-0.3-2.9-1.5s-4-1.6-5.1-1.6"/>
					<path class="st1" d="M152.2,266.4c0,0-0.4-1.4-2.1-1c0,0-0.8-1-2.1-0.4c0,0-1.5-0.9-2.8-0.2v0.8c4.6,0,6.3,2,6.3,2"/>
					<line class="st1" x1="150.1" y1="265.3" x2="150.1" y2="266.6"/>
					<line class="st1" x1="148" y1="264.9" x2="148" y2="265.8"/>
					<path class="st1" d="M145.2,268.2c0.6,0,2.6-0.1,3.8,1c0,0,0.7,9.6,9.5,7.5c3.1-0.8,3.4-4.8,2.1-6.3c-1.3-1.5-3.7-1.7-4.9-0.6
						c-1.2,1.1-1.2,4.4,1.3,4.4s2.2-2,2.2-2.2c0-0.2-0.6-1.6-1.9-1.1c-1.3,0.5-1,2.3-0.1,2.2c0.9-0.1,1-0.8,0.8-1.1"/>
					<path class="st1" d="M150.3,270.7c0,0,1,4.8,4.6,5.4c2.5,0.4,3.9-0.8,3.9-0.8"/>
					<path class="st1" d="M151.5,271.3c0,0,0.9,2.8,3.1,3.4s3.3-0.3,3.8-0.8"/>
					<path class="st1" d="M155.8,273.9c-2.3-0.3-2.8-2.5-2.8-2.5s1.5-0.2,2.4-1.2s0.9-2.3,0.9-2.3s1.9-0.7,2-2.6
						c0.2-1.5,3.7-9.9,5.2-11.5"/>
					<path class="st1" d="M161.5,254.7c-0.5,0.1-1.2-0.1-1-0.8c0.2-0.6,0.9-0.7,1.4-0.5c0.4,0.1,0.5,0.5,0.5,0.9
						c0,1-0.8,1.5-1.7,1.4"/>
					<path class="st1" d="M159.8,256.9c-0.5,0.1-1.2-0.1-1-0.8c0.2-0.6,0.9-0.7,1.4-0.5c0.4,0.1,0.5,0.5,0.5,0.9
						c0,1-0.8,1.5-1.7,1.4c0,0-0.9,0-1.2-0.4"/>
					<path class="st1" d="M161.3,252.7c0,0-0.2,0.9-1,0.9"/>
					<path class="st1" d="M169.7,246c1.4,1.3,2.5,3.4,2,5.4c-0.5,1.8-2.1,3.3-3.4,4.5c-1.2,1.1-2.4,8.5-3.7,9.4
						c-2.5,1.8-3.7,5.1-3.7,5.6"/>
					<path class="st1" d="M170.4,248.2c0.4,1,0.6,2.1,0.3,3.1c-0.5,1.8-2.1,3.3-3.4,4.5c-1.2,1.1-2.4,8.5-3.7,9.4
						c-1.8,1.3-2.9,3.4-3.4,4.7"/>
					<path class="st1" d="M169.1,247.7c0.6,1.1,0.9,2.4,0.6,3.6c-0.5,1.8-2.1,3.3-3.4,4.5c-1.2,1.1-2.4,8.5-3.7,9.4
						c-1.5,1.1-2.6,2.8-3.2,4.1"/>
					<path class="st1" d="M168.4,248.4c0.4,0.9,0.5,2,0.3,2.9c-0.5,1.8-2.1,3.3-3.4,4.5c-1.2,1.1-2.4,8.5-3.7,9.4
						c-1.5,1.1-2.5,2.6-3.1,3.9"/>
					<path class="st1" d="M167.6,249.1c0.2,0.7,0.2,1.5,0,2.2c-0.5,1.8-2.1,3.3-3.4,4.5c-1.2,1.1-2.4,8.5-3.7,9.4
						c-1.4,1-2.4,2.5-3,3.8"/>
					<path class="st1" d="M166.7,250.5c0,0.3-0.1,0.6-0.1,0.9c-0.5,1.8-2.1,3.3-3.4,4.5c-1.2,1.1-2.4,8.5-3.7,9.4
						c-1.5,1.1-2.5,2.7-3.1,4"/>
					<path class="st1" d="M145.3,274.6c0,0,1.4-1.9,4.2-2.6"/>
					<path class="st1" d="M145.3,276.5c0,0,2.2-2.3,5-3"/>
				</g>
				<path class="st1" d="M129.6,249.6c-0.3-0.3-0.9-0.9-0.7-1.6s1.5-1,1.8,0c0.3,2,4,6.6,9.2,6.6c5.1,0,5.5-2.9,5.5-2.9
					c-2.1,0-2.9-1.3-2.9-1.6c0-0.3-0.3-1.2-1.2-1.1c-0.9,0.1-0.7,1.6-0.4,1.7"/>
				<line class="st1" x1="140.9" y1="255.7" x2="140.9" y2="254.6"/>
				<path class="st1" d="M136.9,268.8c0,0,1.5,0.6,2.4-0.3c0.2-0.3-0.6-1.2-0.7-1.4c-0.1-0.2-1-1.9-0.7-2.1
					C137.9,264.9,136.6,265.7,136.9,268.8z"/>
				<path class="st1" d="M138.2,266.4c0,0,0.4-1.4,2.1-1c0,0,0.8-1,2.1-0.4c0,0,1.5-0.9,2.8-0.2v0.8c-4.6,0-6.2,2-6.2,2"/>
				<line class="st1" x1="140.3" y1="265.3" x2="140.3" y2="266.6"/>
				<line class="st1" x1="142.4" y1="264.9" x2="142.4" y2="265.8"/>
				<path class="st1" d="M160.9,249.6c0.3-0.3,0.9-0.9,0.7-1.6c-0.1-0.7-1.5-1-1.8,0c-0.3,2-4,6.6-9.2,6.6c-5.1,0-5.4-2.9-5.4-2.9
					c2.1,0,2.8-1.3,2.8-1.6c0-0.3,0.3-1.2,1.2-1.1s0.7,1.6,0.4,1.7"/>
				<path class="st1" d="M147.7,254.1v1.3c-1.5,0.4-2.4-0.4-2.4-0.4v-3.3l0.1,0.6l0.3,0.4l0.6,0.7l0.5,0.3l0.7,0.3L147.7,254.1z"/>
				<path class="st1" d="M147.7,254.1v1.3c0.7,0.7,1.8,0.3,1.8,0.3c1.1,0.8,2,0,2,0v-1.2c0,0,1.2,1.5,1.8,2.6c0.1,0.1,0.2,0.1,0.2,0
					c0.1-0.5,0.4-1.6,0.1-3c0,0-1.3,0.4-1.8,0.4c-0.5,0-1.8,0.1-1.8,0.1l-1.6-0.3L147.7,254.1z"/>
				<path class="st1" d="M142.8,254.1v1.3c1.5,0.4,2.4-0.4,2.4-0.4v-3.3l-0.1,0.6l-0.3,0.4l-0.6,0.7l-0.5,0.3l-0.7,0.3L142.8,254.1z
					"/>
				<path class="st1" d="M142.8,254.1v1.3c-0.7,0.7-1.8,0.3-1.8,0.3c-1.1,0.8-2,0-2,0v-1.2c0,0-1.2,1.5-1.8,2.6
					c-0.1,0.1-0.2,0.1-0.2,0c-0.1-0.5-0.4-1.6-0.1-3c0,0,1.3,0.4,1.8,0.4c0.5,0,1.8,0.1,1.8,0.1l1.6-0.3L142.8,254.1z"/>
				<line class="st1" x1="149.5" y1="255.7" x2="149.5" y2="254.6"/>
				<path class="st1" d="M153.5,268.8c0,0-1.5,0.6-2.4-0.3c-0.2-0.3,0.6-1.2,0.7-1.4c0.1-0.2,1-1.9,0.7-2.1
					C152.5,264.9,153.8,265.7,153.5,268.8z"/>
				<path class="st1" d="M152.2,266.4c0,0-0.4-1.4-2.1-1c0,0-0.8-1-2.1-0.4c0,0-1.5-0.9-2.8-0.2v0.8c4.6,0,6.3,2,6.3,2"/>
				<line class="st1" x1="150.1" y1="265.3" x2="150.1" y2="266.6"/>
				<line class="st1" x1="148" y1="264.9" x2="148" y2="265.8"/>
				<path class="st1" d="M145.3,251.7v3.3c0,0-1.1,0.8-2.5,0.4v-1.3"/>
				<path class="st1" d="M142.7,255.4c-0.7,0.7-1.8,0.3-1.8,0.3c-1.1,0.8-2,0-2,0v-1.2c0,0-1.2,1.5-1.8,2.6c-0.1,0.1-0.2,0.1-0.2,0
					c-0.1-0.5-0.4-1.6-0.1-3"/>
				<line class="st1" x1="140.9" y1="255.7" x2="140.9" y2="254.6"/>
				<path class="st1" d="M136.9,268.8c0,0,1.5,0.6,2.4-0.3c0.2-0.3-0.6-1.2-0.7-1.4c-0.1-0.2-1-1.9-0.7-2.1
					C137.9,264.9,136.6,265.7,136.9,268.8z"/>
				<path class="st1" d="M138.2,266.4c0,0,0.4-1.4,2.1-1c0,0,0.8-1,2.1-0.4c0,0,1.5-0.9,2.8-0.2v0.8c-4.6,0-6.2,2-6.2,2"/>
				<line class="st1" x1="140.3" y1="265.3" x2="140.3" y2="266.6"/>
				<line class="st1" x1="142.4" y1="264.9" x2="142.4" y2="265.8"/>
				<path class="st1" d="M145.3,251.7v3.3c0,0,1,0.8,2.4,0.4v-1.3"/>
				<path class="st1" d="M147.7,255.4c0.7,0.7,1.8,0.3,1.8,0.3c1.1,0.8,2,0,2,0v-1.2c0,0,1.2,1.5,1.8,2.6c0.1,0.1,0.2,0.1,0.2,0
					c0.1-0.5,0.4-1.6,0.1-3"/>
				<line class="st1" x1="149.5" y1="255.7" x2="149.5" y2="254.6"/>
				<path class="st1" d="M153.5,268.8c0,0-1.5,0.6-2.4-0.3c-0.2-0.3,0.6-1.2,0.7-1.4c0.1-0.2,1-1.9,0.7-2.1
					C152.5,264.9,153.8,265.7,153.5,268.8z"/>
				<path class="st1" d="M152.2,266.4c0,0-0.4-1.4-2.1-1c0,0-0.8-1-2.1-0.4c0,0-1.5-0.9-2.8-0.2v0.8c4.6,0,6.3,2,6.3,2"/>
				<line class="st1" x1="150.1" y1="265.3" x2="150.1" y2="266.6"/>
				<line class="st1" x1="148" y1="264.9" x2="148" y2="265.8"/>
				<path class="st1" d="M132.5,251.1c0,0-2.8,2.8-6.8,1c-0.2-0.1-0.2-0.5,0-0.5c1.3-0.4,4.1-1.5,5-3.3l0.3,0.7l0.5,1l0.5,0.7
					L132.5,251.1z"/>
				<path class="st1" d="M157.9,251.1c0,0,2.8,2.8,6.8,1c0.2-0.1,0.2-0.5,0-0.5c-1.3-0.4-4.1-1.5-5-3.3"/>
				<path class="st1" d="M132.5,251.1c0,0-2.8,2.8-6.8,1c-0.2-0.1-0.2-0.5,0-0.5c1.3-0.4,4.1-1.5,5-3.3"/>
				<path class="st1" d="M158,251.1c0,0,2.8,2.8,6.8,1c0.2-0.1,0.2-0.5,0-0.5c-1.3-0.4-4.1-1.5-5-3.3l-0.3,0.7l-0.5,1l-0.5,0.7
					L158,251.1z"/>
				<path class="st1" d="M158,251.1c0,0,2.8,2.8,6.8,1c0.2-0.1,0.2-0.5,0-0.5c-1.3-0.4-4.1-1.5-5-3.3"/>
				<path class="st1" d="M129.6,249.6c-0.3-0.3-0.9-0.9-0.7-1.6s1.5-1,1.8,0c0.3,2,4,6.6,9.2,6.6c5.1,0,5.5-2.9,5.5-2.9
					c-2.1,0-2.9-1.3-2.9-1.6c0-0.3-0.3-1.2-1.2-1.1c-0.9,0.1-0.7,1.6-0.4,1.7"/>
				<path class="st1" d="M160.9,249.6c0.3-0.3,0.9-0.9,0.7-1.6c-0.1-0.7-1.5-1-1.8,0c-0.3,2-4,6.6-9.2,6.6c-5.1,0-5.4-2.9-5.4-2.9
					c2.1,0,2.8-1.3,2.8-1.6c0-0.3,0.3-1.2,1.2-1.1s0.7,1.6,0.4,1.7"/>
				<path class="st1" d="M144.9,314.5c-3.9,0-7.7-0.8-11.3-2.3c-3.5-1.5-6.6-3.6-9.2-6.2c-2.7-2.7-4.8-5.8-6.2-9.2
					c-1.5-3.6-2.3-7.4-2.3-11.3c0-3.9,0.8-7.7,2.3-11.3c1.5-3.5,3.6-6.6,6.2-9.2c2.7-2.7,5.8-4.8,9.2-6.2c3.6-1.5,7.4-2.3,11.3-2.3
					s7.7,0.8,11.3,2.3c3.5,1.5,6.6,3.6,9.2,6.2c2.7,2.7,4.8,5.8,6.2,9.2c1.5,3.6,2.3,7.4,2.3,11.3c0,3.9-0.8,7.7-2.3,11.3
					c-1.5,3.5-3.6,6.6-6.2,9.2c-2.7,2.7-5.8,4.8-9.2,6.2C152.6,313.7,148.8,314.5,144.9,314.5z M144.9,264.1
					c-5.7,0-11.1,2.2-15.1,6.3c-4,4-6.3,9.4-6.3,15.1c0,5.7,2.2,11.1,6.3,15.1c4,4,9.4,6.3,15.1,6.3s11.1-2.2,15.1-6.3
					c4-4,6.3-9.4,6.3-15.1c0-5.7-2.2-11.1-6.3-15.1C155.9,266.3,150.6,264.1,144.9,264.1z"/>
			</g>
		</g>
	</g>
	<g>
		<circle class="st2" cx="38.6" cy="439.4" r="8.6"/>
		<circle class="st2" cx="80.7" cy="439.4" r="8.6"/>
		<circle class="st2" cx="122.8" cy="439.4" r="8.6"/>
		<circle class="st2" cx="164.9" cy="439.4" r="8.6"/>
	</g>
	<g>
		<circle class="st2" cx="38.6" cy="404.6" r="8.6"/>
		<circle class="st2" cx="80.7" cy="404.6" r="8.6"/>
		<circle class="st2" cx="122.8" cy="404.6" r="8.6"/>
		<circle class="st2" cx="164.9" cy="404.6" r="8.6"/>
	</g>
	<g>
		<circle class="st2" cx="38.6" cy="369.7" r="8.6"/>
		<circle class="st2" cx="80.7" cy="369.7" r="8.6"/>
		<circle class="st2" cx="122.8" cy="369.7" r="8.6"/>
		<circle class="st2" cx="164.9" cy="369.7" r="8.6"/>
	</g>
	<g>
		<circle class="st2" cx="38.6" cy="334.9" r="8.6"/>
		<circle class="st2" cx="80.7" cy="334.9" r="8.6"/>
		<circle class="st2" cx="122.8" cy="334.9" r="8.6"/>
		<circle class="st2" cx="164.9" cy="334.9" r="8.6"/>
	</g>
	<circle class="st2" cx="38.6" cy="300" r="8.6"/>
	<circle class="st2" cx="80.7" cy="300" r="8.6"/>
	<circle class="st2" cx="38.6" cy="265.2" r="8.6"/>
	<circle class="st2" cx="80.7" cy="265.2" r="8.6"/>
	<circle class="st2" cx="38.6" cy="230.3" r="8.6"/>
	<circle class="st2" cx="80.7" cy="230.3" r="8.6"/>
	<g>
		<circle class="st2" cx="38.6" cy="195.5" r="8.6"/>
		<circle class="st2" cx="80.7" cy="195.5" r="8.6"/>
		<circle class="st2" cx="122.8" cy="195.5" r="8.6"/>
		<circle class="st2" cx="164.9" cy="195.5" r="8.6"/>
	</g>
	<g>
		<circle class="st2" cx="38.6" cy="160.6" r="8.6"/>
		<circle class="st2" cx="80.7" cy="160.6" r="8.6"/>
		<circle class="st2" cx="122.8" cy="160.6" r="8.6"/>
		<circle class="st2" cx="164.9" cy="160.6" r="8.6"/>
	</g>
	<g>
		<circle class="st2" cx="38.6" cy="125.8" r="8.6"/>
		<circle class="st2" cx="80.7" cy="125.8" r="8.6"/>
		<circle class="st2" cx="122.8" cy="125.8" r="8.6"/>
		<circle class="st2" cx="164.9" cy="125.8" r="8.6"/>
	</g>
	<g>
		<circle class="st2" cx="80.7" cy="91" r="8.6"/>
		<circle class="st2" cx="122.8" cy="91" r="8.6"/>
		<circle class="st2" cx="164.9" cy="91" r="8.6"/>
	</g>
	<g>
		<circle class="st2" cx="122.8" cy="52.1" r="8.6"/>
		<circle class="st2" cx="164.9" cy="52.1" r="8.6"/>
	</g>
</g>
</svg>
