<?xml version="1.0" encoding="utf-8"?>
<!-- Generator: Adobe Illustrator 27.2.0, SVG Export Plug-In . SVG Version: 6.00 Build 0)  -->
<svg version="1.1" id="圖層_1" xmlns="http://www.w3.org/2000/svg" xmlns:xlink="http://www.w3.org/1999/xlink" x="0px" y="0px"
	 viewBox="0 0 22 72" style="enable-background:new 0 0 22 72;" xml:space="preserve">
<style type="text/css">
	.st0{fill:#431D31;}
</style>
<g>
	<path class="st0" d="M4.4,7.2C3.7,5.9,2.9,4.7,2.1,3.7C2,3.4,1.9,3.1,1.9,2.8c0.2-0.3,0.5-0.5,0.8-0.6c0.6,0.1,1.1,0.6,1.5,1.4
		C5,4.9,5.5,5.8,5.8,6.5C7,5.9,7.7,5.4,7.7,4.8c0-0.2-0.1-0.7-0.4-1.4C6.7,2,6.5,1.2,6.5,0.9c0-0.3,0.3-0.6,0.7-0.7
		c0.5,0,0.9,0.1,1,0.4C9,2.7,9.4,4.3,9.4,5.2c0,0.8-0.7,1.7-2.2,2.5c-3.5,1.9-5.6,2.8-6.3,2.8C0.4,10.5,0,10.3,0,9.7
		c0-0.3,0.2-0.6,0.6-0.8C1.5,8.5,2.8,8,4.4,7.2z M6.3,27.9v-0.1c0-0.2,0.2-0.9,0.6-2.1c0.3-0.8,0.5-1.7,0.7-2.8
		c0.2-0.8,0.3-1.6,0.4-2.2c0-0.1,0-0.1,0-0.1c-1.5-0.6-2.4-1.5-2.5-3c-0.2-1-0.3-2.5-0.3-4.4c0.1-0.5,0.4-0.7,0.8-0.7
		c0.6,0,0.9,0.3,0.9,0.9c0,0.2,0,0.4,0,0.7l8.8-0.1c0-0.3,0-0.5,0-0.7c0.1-0.5,0.4-0.8,1-0.9c0.6,0.1,0.8,0.5,0.8,1.2
		c0,1.9-0.2,3.3-0.5,4.4c-0.2,1.3-1.1,2.2-2.7,2.7c0,1.3,0.2,2.5,0.4,3.5c0.2,1.1,0.5,2,0.7,2.7c0.2,0.4,0.2,0.8,0.2,0.9
		c0,0.1,0,0.2,0,0.3c1.3,0,2.7,0,4.2,0c0.6,0.1,0.8,0.4,0.8,0.8s-0.3,0.7-0.8,0.7c-6.8,0-12.7,0.1-17.6,0.3c-0.4,0-0.7-0.3-0.7-1
		c0-0.4,0.4-0.6,1.2-0.7C3.5,27.9,4.7,27.9,6.3,27.9z M16.7,9.4c0.5,0.1,0.8,0.4,0.8,0.9c0,0.4-0.3,0.7-0.8,0.7
		c-4.5,0-8.4,0.1-11.6,0.3c-0.4,0-0.6-0.3-0.7-0.8c0-0.4,0.4-0.7,1.1-0.9C7.4,9.5,11.1,9.4,16.7,9.4z M15.6,15.2l-8.6,0.3
		C7,16.1,7,16.7,7.1,17c0.1,1.4,1.4,2.2,4.1,2.3c2.5,0,3.9-0.7,4.1-2.1C15.4,16.7,15.5,16.1,15.6,15.2z M13.9,27.9
		c-0.2-0.5-0.4-1.1-0.6-1.9c-0.3-1.3-0.5-3.1-0.8-5.3c-0.4,0.1-0.8,0.1-1.3,0.1c-0.5,0-1.1,0-1.6-0.1l0,0.1c0,0.7-0.2,2-0.7,3.9
		C8.7,26,8.4,27,8,27.9C9.7,27.9,11.6,27.9,13.9,27.9z M15.9,6.3c0-0.1,0.1-0.1,0.1-0.1c0.4-0.5,0.8-1.1,1.2-1.7
		c0.5-0.7,1-1.3,1.5-2.1c0.3-0.4,0.6-0.6,0.9-0.6c0.6,0.1,0.9,0.4,0.9,0.9c0,0.1-0.3,0.6-0.9,1.4c-0.7,0.8-1.3,1.7-2.1,2.5
		c-0.1,0.2-0.2,0.4-0.3,0.5c0.3,0.1,0.6,0.2,0.9,0.4c1.4,0.7,2.6,1.2,3.6,1.5C21.9,9.1,22,9.4,22,9.9c0,0.4-0.3,0.6-0.8,0.6
		c-0.6,0-1.9-0.5-3.8-1.4c-3.1-1.4-4.6-2.8-4.7-4.1c0-0.6,0.2-1.5,0.7-2.5C14.2,0.8,14.8,0,15.3,0C15.7,0,16,0.3,16,0.9
		c0,0.4-0.3,1.1-0.8,1.8c-0.5,0.8-0.7,1.5-0.8,2.1C14.4,5.2,14.9,5.7,15.9,6.3z"/>
	<path class="st0" d="M10.4,57.4c-4.4-0.2-6.7-1.7-7-4.4C3.2,51.6,3,49.7,3,47.3c0.1-0.5,0.4-0.7,0.8-0.7c0.6,0,0.9,0.2,1,0.7
		c0,2.6,0.1,4.4,0.3,5.4c0,0.8,0.4,1.4,1,1.9v-0.1c0-0.3,0.3-0.6,0.8-0.7c1-0.4,1.8-1.1,2.5-1.9c0.6-0.5,0.9-1.5,0.9-3.1
		c0-2.1,0-3.7-0.1-4.8c0.2-0.5,0.5-0.8,0.9-0.8c0.6,0,0.9,0.3,1,0.8C12,45.1,12,46.6,12,48.6c0,1.5,0.3,2.6,0.9,3.2
		c0.5,0.6,1.3,1.2,2.1,1.8c0.5,0.3,0.7,0.5,0.7,0.8v0.1c0.5-0.5,0.8-1.1,0.9-1.9c0.3-1,0.4-2.9,0.5-5.6c0.1-0.5,0.5-0.8,1.1-0.9
		c0.6,0.1,0.9,0.5,0.9,1.3c0,2.5-0.2,4.4-0.7,5.8c-0.4,2.5-2.5,3.9-6.5,4.1c0.1,0.1,0.1,0.2,0.1,0.4c-0.1,1.2-0.1,2.9-0.1,5
		c0,1.5,0.4,2.6,1.1,3.1c0.6,0.7,1.4,1.3,2.4,1.8c0.6,0.3,0.9,0.6,0.9,0.9c0,0.3-0.1,0.5-0.2,0.7c1.2-0.6,1.9-1.5,2-2.5
		c0.4-1.3,0.6-3.6,0.6-6.6c0.1-0.4,0.5-0.7,1.1-0.8c0.6,0.1,0.9,0.5,0.9,1.1c0,3-0.3,5.2-0.8,6.8C19.4,70.4,16.4,72,11,72
		c-5.4,0-8.3-1.7-8.6-5c-0.3-1.7-0.5-4-0.5-6.8c0.1-0.4,0.4-0.7,0.8-0.7c0.6,0,0.9,0.2,1,0.7c0,3.1,0.1,5.2,0.4,6.4
		c0.1,1.3,0.8,2.2,2.1,2.8c-0.1-0.2-0.2-0.4-0.2-0.7c0-0.3,0.3-0.5,0.8-0.7c1-0.5,1.9-1.1,2.6-1.9c0.6-0.5,0.9-1.6,0.9-3.1
		c0-2.3,0-4-0.1-5.2C10.2,57.7,10.3,57.5,10.4,57.4z M7,69.7c1,0.4,2.3,0.6,3.9,0.6c1.8,0,3.3-0.2,4.4-0.6c-0.3,0-0.7-0.2-1.2-0.7
		c-0.7-0.4-1.3-1-1.8-1.5c-0.5-0.6-0.9-0.9-1-0.9c-0.2,0-0.6,0.4-1.2,1.1c-0.6,0.7-1.2,1.2-1.8,1.5C7.8,69.5,7.4,69.7,7,69.7z
		 M7.4,55.3c0.9,0.3,2.1,0.5,3.7,0.6c1.5-0.1,2.6-0.3,3.6-0.6c-0.2-0.1-0.5-0.2-0.8-0.5c-0.7-0.5-1.2-1-1.6-1.5
		c-0.5-0.7-0.8-1-0.9-1c-0.2,0-0.6,0.4-1.1,1.1c-0.6,0.5-1.2,1-1.8,1.4C8,55,7.7,55.2,7.4,55.3z"/>
</g>
</svg>
