<?xml version="1.0" encoding="utf-8"?>
<!-- Generator: Adobe Illustrator 24.2.1, SVG Export Plug-In . SVG Version: 6.00 Build 0)  -->
<svg version="1.1" id="圖層_1" xmlns="http://www.w3.org/2000/svg" xmlns:xlink="http://www.w3.org/1999/xlink" x="0px" y="0px"
	 viewBox="0 0 24.5 75" style="enable-background:new 0 0 24.5 75;" xml:space="preserve">
<style type="text/css">
	.st0{fill:#431D31;}
</style>
<g>
	<path class="st0" d="M5.6,8.4C4.9,7.1,4.2,6,3.4,4.9C3.2,4.6,3.2,4.3,3.2,4.1c0.2-0.3,0.5-0.5,0.8-0.6C4.5,3.6,5,4.1,5.4,4.9
		C6.2,6.1,6.7,7.1,7,7.7C8.3,7.2,8.9,6.6,8.9,6c0-0.2-0.1-0.7-0.4-1.4C8,3.2,7.7,2.4,7.7,2.1c0-0.3,0.3-0.6,0.7-0.7
		c0.5,0,0.9,0.1,1,0.4c0.8,2.2,1.2,3.7,1.2,4.7c0,0.8-0.7,1.7-2.2,2.5c-3.5,1.9-5.6,2.8-6.3,2.8c-0.6,0-0.9-0.3-0.9-0.8
		c0-0.3,0.2-0.6,0.6-0.8C2.8,9.8,4,9.2,5.6,8.4z M7.5,29.1V29c0-0.2,0.2-0.9,0.6-2.1c0.3-0.8,0.5-1.7,0.7-2.8
		c0.2-0.8,0.3-1.6,0.4-2.2c0-0.1,0-0.1,0-0.1c-1.5-0.6-2.4-1.5-2.5-3c-0.2-1-0.3-2.5-0.3-4.4c0.1-0.5,0.4-0.7,0.8-0.7
		c0.6,0,0.9,0.3,0.9,0.9c0,0.2,0,0.4,0,0.7l8.8-0.1c0-0.3,0-0.5,0-0.7c0.1-0.5,0.4-0.8,1-0.9c0.6,0.1,0.8,0.5,0.8,1.2
		c0,1.9-0.2,3.3-0.5,4.4c-0.2,1.3-1.1,2.2-2.7,2.7c0,1.3,0.2,2.5,0.4,3.5c0.2,1.1,0.5,2,0.7,2.7c0.2,0.4,0.2,0.8,0.2,0.9
		c0,0.1,0,0.2,0,0.3c1.3,0,2.7,0,4.2,0c0.6,0.1,0.8,0.4,0.8,0.8s-0.3,0.7-0.8,0.7c-6.8,0-12.7,0.1-17.6,0.3c-0.4,0-0.7-0.3-0.7-1
		c0-0.4,0.4-0.6,1.2-0.7C4.7,29.2,6,29.1,7.5,29.1z M17.9,10.7c0.5,0.1,0.8,0.4,0.8,0.9c0,0.4-0.3,0.7-0.8,0.7
		c-4.5,0-8.4,0.1-11.6,0.3c-0.4,0-0.6-0.3-0.7-0.8c0-0.4,0.4-0.7,1.1-0.9C8.6,10.7,12.4,10.7,17.9,10.7z M16.8,16.4l-8.6,0.3
		c0,0.7,0.1,1.2,0.2,1.5c0.1,1.4,1.4,2.2,4.1,2.3c2.5,0,3.9-0.7,4.1-2.1C16.6,18,16.7,17.3,16.8,16.4z M15.1,29.1
		c-0.2-0.5-0.4-1.1-0.6-1.9c-0.3-1.3-0.5-3.1-0.8-5.3c-0.4,0.1-0.8,0.1-1.3,0.1c-0.5,0-1.1,0-1.6-0.1l0,0.1c0,0.7-0.2,2-0.7,3.9
		c-0.3,1.2-0.7,2.2-1,3.1C10.9,29.1,12.9,29.1,15.1,29.1z M17.1,7.6c0-0.1,0.1-0.1,0.1-0.1c0.4-0.5,0.8-1.1,1.2-1.7
		c0.5-0.7,1-1.3,1.5-2.1c0.3-0.4,0.6-0.6,0.9-0.6c0.6,0.1,0.9,0.4,0.9,0.9c0,0.1-0.3,0.6-0.9,1.4c-0.7,0.8-1.3,1.7-2.1,2.5
		c-0.1,0.2-0.2,0.4-0.3,0.5c0.3,0.1,0.6,0.2,0.9,0.4c1.4,0.7,2.6,1.2,3.6,1.5c0.2,0.1,0.4,0.4,0.4,0.8c0,0.4-0.3,0.6-0.8,0.6
		c-0.6,0-1.9-0.5-3.8-1.4C15.6,8.9,14,7.5,14,6.2c0-0.6,0.2-1.5,0.7-2.5c0.7-1.6,1.3-2.4,1.8-2.4c0.5,0,0.7,0.3,0.7,0.9
		c0,0.4-0.3,1.1-0.8,1.8c-0.5,0.8-0.7,1.5-0.8,2.1C15.6,6.4,16.1,6.9,17.1,7.6z"/>
	<path class="st0" d="M12,51.5c-0.1-0.4-0.2-0.8-0.2-1.1c-0.3-1.4-0.8-2.4-1.6-3c-0.4-0.4-1-0.6-1.6-0.6c-0.6,0-1.1-0.1-1.6-0.3
		c-0.7-0.3-1.1-0.7-1.1-1.2c0-0.5,0.2-0.8,0.7-0.9c0.3,0,0.7,0.1,1.3,0.4c0.4,0.3,1.1,0.5,2.1,0.5c1.2,0.2,2.1,0.7,2.6,1.5
		c0.6,0.8,1,2.2,1.4,4.2c0.7,3.3,1.7,6.8,3.2,10.5c0.7,1.7,1.6,3.6,2.7,5.8c0.9,1.7,1.7,3,2.4,3.8c0.5,0.8,0.8,1.4,0.8,1.8
		c0,0.5-0.2,0.7-0.6,0.7c-0.9,0-1.8-0.8-2.7-2.4c-1-1.6-2.2-4-3.7-7.1c-1.4-3.3-2.3-5.9-2.9-8c-0.1-0.5-0.2-0.9-0.3-1.3
		c-1,3-2.5,6.7-4.6,11.1c-2.3,4.9-4.1,7.3-5.4,7.3c-0.5,0-0.7-0.2-0.7-0.7c0-0.5,0.4-1.3,1.1-2.3c0.9-1.2,1.9-2.8,3.1-4.9
		C8.5,61.5,10.4,56.9,12,51.5z"/>
</g>
</svg>
