<?xml version="1.0" encoding="utf-8"?>
<!-- Generator: Adobe Illustrator 26.3.1, SVG Export Plug-In . SVG Version: 6.00 Build 0)  -->
<svg version="1.1" id="圖層_1" xmlns="http://www.w3.org/2000/svg" xmlns:xlink="http://www.w3.org/1999/xlink" x="0px" y="0px"
	 viewBox="0 0 793.2 793.6" style="enable-background:new 0 0 793.2 793.6;" xml:space="preserve">
<style type="text/css">
	.st0{fill:#431D31;stroke:#DFC378;stroke-width:3;stroke-miterlimit:10;}
	.st1{fill:none;stroke:#DFC378;stroke-width:2;stroke-miterlimit:10;}
	.st2{fill:#DFC378;}
</style>
<g>
	<g>
		<path class="st0" d="M412.8,357.7l-0.7-2.4l-15.6-53.9L381,355.3l-0.7,2.4c-22.8,7-39.3,28.1-39.3,53.2
			c0,30.7,24.9,55.6,55.6,55.6s55.6-24.9,55.6-55.6C452.1,385.9,435.6,364.7,412.8,357.7z"/>
		<path class="st1" d="M396.3,454.3c23.6,0,42.8-19.2,42.8-42.8c0-23.6-19.2-42.8-42.8-42.8c-23.6,0-42.8,19.2-42.8,42.8
			C353.5,435.1,372.6,454.3,396.3,454.3z"/>
		<path class="st2" d="M420.3,411.3c-8.1-1.6-15.6-5.3-21.7-9.5c-1.2-0.9-2.7-1-4.1,0.1c-5.2,4.1-12.7,7.5-21.5,9.3
			c-1.7,0.4-1.7-1.7-0.4-1.9c9.2-1.8,16.1-5.4,21.4-9.4c1.6-1.1,3.5-1.2,5.1-0.1c7,5.1,14.1,7.7,21.9,9.7
			C421.9,409.7,421.6,411.5,420.3,411.3z M386.3,393.6l2,6.1c0.4,1.3-1.4,2.2-2,0.6l-2.1-6.8H379c-1.6,2.4-3.3,4.7-5.4,6.6
			c-1.2,1.1-2.4-0.3-1.4-1.3c3.1-2.9,5.6-7,7.3-11.2c0.5-1.3,2.4-0.8,1.9,0.7c-0.4,1-0.9,2.3-1.4,3.3h14.7c1.4,0,1.5,1.9,0,1.9
			L386.3,393.6L386.3,393.6z M390.3,424.3h-4.3c-0.3,0.6-0.6,1.2-1,1.8c2.6,1.4,6.1,3.6,7.9,5.3c1.2,1-0.1,2.6-1.2,1.7
			c-1.9-1.6-4.9-3.6-7.8-5.4c-2.5,3.3-6.1,6.2-9.8,7.8c-1.4,0.6-2-1.1-0.7-1.7c4.7-2.3,7.8-5.3,10.4-9.5h-4c-1.8,0-3.3-1-3.3-3.1v-5
			c0-2.1,1.3-3.1,3.5-3.1h10.2c1.9,0,3.4,1.1,3.4,3.2v4.8C393.6,423.1,392.2,424.3,390.3,424.3z M391.6,416.5c0-0.9-0.6-1.4-1.3-1.4
			h-10.5c-0.7,0-1.3,0.5-1.3,1.4v4.5c0,0.8,0.5,1.3,1.3,1.3h10.5c0.8,0,1.3-0.5,1.3-1.3V416.5z M386.7,409.8c-1.5,0-1.4-1.9,0-1.9
			h19.1c1.4,0,1.5,1.9,0,1.9H386.7z M416.2,435.7c-3.5-2.5-7.4-4.9-11.2-6.9c-2.6,2.8-5.9,5-9.4,6.6c-1.4,0.6-2.2-1.1-0.9-1.7
			c4.7-2.2,8.4-5.1,11.1-9.1h-3.9c-1.8,0-3.2-1.1-3.2-3.1v-5.2c0-2.2,1.3-3.2,3.6-3.2h10.8c2.1,0,3.2,1,3.2,3.1v5.1
			c0,2.1-1.3,3.3-3.5,3.3h-4.8c-0.5,0.9-1.1,1.7-1.7,2.5c4.3,2.2,8.1,4.6,11,6.9C418.6,435,417.3,436.6,416.2,435.7z M408.6,393.4
			l2.8,7.6c0.5,1.3-1.3,2.2-1.9,0.8l-3.2-8.4h-5.5c-0.5,1.1-1.3,2.5-2.1,3.6c-0.9,1.3-2.5,0.3-1.7-1c1.5-2.4,2.9-5.6,3.6-8.4
			c0.3-1.3,2.2-1,1.8,0.6c-0.2,0.8-0.5,2.1-1,3.2h18.2c1.4,0,1.5,1.9,0,1.9H408.6z M414.4,416.5c0-0.9-0.4-1.4-1.3-1.4h-11
			c-0.8,0-1.4,0.6-1.4,1.4v4.7c0,0.7,0.5,1.4,1.4,1.4h10.9c0.9,0,1.3-0.5,1.3-1.4L414.4,416.5L414.4,416.5z"/>
	</g>
</g>
</svg>
