<?xml version="1.0" encoding="utf-8"?>
<!-- Generator: Adobe Illustrator 26.3.1, SVG Export Plug-In . SVG Version: 6.00 Build 0)  -->
<svg version="1.1" id="圖層_1" xmlns="http://www.w3.org/2000/svg" xmlns:xlink="http://www.w3.org/1999/xlink" x="0px" y="0px"
	 viewBox="0 0 346.3 351.2" style="enable-background:new 0 0 346.3 351.2;" xml:space="preserve">
<style type="text/css">
	.st0{fill:#431D31;stroke:#C39A6B;stroke-width:0.75;stroke-linecap:round;stroke-linejoin:round;stroke-miterlimit:10;}
	.st1{fill:#E2037E;stroke:#C39A6B;stroke-width:0.75;stroke-miterlimit:10;}
	.st2{stroke:#C39A6B;stroke-width:0.75;stroke-linecap:round;stroke-linejoin:round;stroke-miterlimit:10;}
	.st3{fill:#431D31;stroke:#C39A6B;stroke-width:0.75;stroke-miterlimit:10;}
	.st4{fill:none;stroke:#C39A6B;stroke-width:0.75;stroke-miterlimit:10;}
	.st5{fill:#FFFFFF;}
	.st6{fill:#FFFFFF;stroke:#C39A6B;stroke-width:0.75;stroke-miterlimit:10;}
	.st7{fill:none;stroke:#C39A6B;stroke-width:0.75;stroke-linecap:round;stroke-linejoin:round;stroke-miterlimit:10;}
	.st8{fill:#A7458C;stroke:#C39A6B;stroke-width:0.75;stroke-linecap:round;stroke-linejoin:round;stroke-miterlimit:10;}
	.st9{fill:#F477A0;stroke:#C39A6B;stroke-width:0.75;stroke-miterlimit:10;}
</style>
<g>
	<rect x="282.2" y="195.7" class="st0" width="43.5" height="20.7"/>
	<rect x="287.1" y="199" class="st0" width="34.4" height="17.4"/>
	<rect x="282.2" y="129.4" class="st0" width="43.5" height="5"/>
	<g>
		<rect x="282.2" y="133.6" class="st0" width="43.5" height="62.9"/>
		<rect x="286.3" y="137.1" class="st0" width="35.2" height="55.9"/>
		<g>
			<rect x="286.3" y="146.2" class="st0" width="35.2" height="1.7"/>
			<rect x="286.3" y="158.2" class="st0" width="35.2" height="1.7"/>
			<rect x="286.3" y="170.3" class="st0" width="35.2" height="1.7"/>
			<rect x="286.3" y="182.3" class="st0" width="35.2" height="1.7"/>
		</g>
	</g>
	<path class="st0" d="M281.7,157.8h-2.1c-0.2,0-0.4,0.2-0.4,0.4l0.4,6.2h0.1l0,0c-0.5,0.7-0.4,1.7,0.2,2.2l0.1,0.1v1.2
		c0,0.2,0.2,0.4,0.4,0.4h1.7v-3.9V164v-5.8C282.2,158,282,157.8,281.7,157.8z"/>
	<line class="st0" x1="280.1" y1="158.6" x2="281.6" y2="158.6"/>
	<line class="st0" x1="280.1" y1="159" x2="281.6" y2="159"/>
	<line class="st0" x1="280.1" y1="159.4" x2="281.6" y2="159.4"/>
	<line class="st0" x1="280.1" y1="164" x2="281.6" y2="164"/>
	<line class="st0" x1="280.1" y1="164.4" x2="281.6" y2="164.4"/>
	<circle class="st0" cx="304.5" cy="206.4" r="3.7"/>
	<circle class="st0" cx="311.8" cy="202.9" r="1"/>
	<circle class="st0" cx="316.3" cy="202.9" r="1"/>
	<circle class="st0" cx="288.4" cy="200.2" r="0.4"/>
	<circle class="st0" cx="288.4" cy="215.1" r="0.4"/>
	<circle class="st0" cx="320.2" cy="200.2" r="0.4"/>
	<circle class="st0" cx="320.2" cy="215.1" r="0.4"/>
</g>
<g>
	<polygon class="st1" points="246.3,216.4 211.8,216.4 209.9,201.2 248.1,201.2 	"/>
	<rect x="208" y="198.9" class="st1" width="42" height="3"/>
</g>
<g>
	<polygon class="st1" points="199.3,216.4 164.8,216.4 162.9,201.2 201.1,201.2 	"/>
	<rect x="161" y="198.9" class="st1" width="42" height="3"/>
</g>
<g>
	<circle class="st2" cx="307.9" cy="328.4" r="20.2"/>
	<circle class="st3" cx="307.9" cy="328.4" r="9.1"/>
	<path class="st3" d="M307.9,297.4h-7.2l2.2,31c0,2.8,2.3,5.1,5.1,5.1s5.1-2.3,5.1-5.1l2.2-31H307.9z"/>
	<circle class="st3" cx="307.9" cy="328.4" r="2.3"/>
</g>
<rect x="126.1" y="58.9" class="st0" width="4" height="226"/>
<g>
	<path class="st2" d="M102.1,341.8H69.5c-4.8,0-8.8-3.9-8.8-8.8v-71.4c0-21.9-4.6-33-13.6-33c-0.6,0-1-0.4-1-1s0.4-1,1-1
		c10.4,0,15.6,11.8,15.6,35V333c0,3.7,3,6.8,6.8,6.8h32.6c0.6,0,1,0.4,1,1S102.7,341.8,102.1,341.8z"/>
	<rect x="70.1" y="220.6" class="st0" width="259" height="80"/>
	<circle class="st4" cx="88.1" cy="235.6" r="3"/>
	<circle class="st4" cx="107.1" cy="235.6" r="3"/>
	<circle class="st4" cx="126.1" cy="235.6" r="3"/>
	<circle class="st4" cx="145.1" cy="235.6" r="3"/>
	<circle class="st4" cx="164.1" cy="235.6" r="3"/>
	<circle class="st4" cx="183.1" cy="235.6" r="3"/>
	<circle class="st4" cx="202.1" cy="235.6" r="3"/>
	<circle class="st4" cx="221.1" cy="235.6" r="3"/>
	<circle class="st4" cx="240.1" cy="235.6" r="3"/>
	<circle class="st4" cx="259.1" cy="235.6" r="3"/>
	<circle class="st4" cx="278.1" cy="235.6" r="3"/>
	<circle class="st4" cx="297.1" cy="235.6" r="3"/>
	<circle class="st4" cx="316.1" cy="235.6" r="3"/>
	<g>
		<g>
			<g>
				<polygon class="st5" points="76.8,173.6 64.8,173.6 65.9,176.4 67.5,178.6 71.8,181.6 81.8,181.6 84.1,180.2 87,177.7 88.4,174 
									"/>
				<path class="st4" d="M65.3,174.6c0,0,0.5,4,5,6"/>
				<path class="st4" d="M88.4,174.6c0,0-0.5,4-5,6"/>
			</g>
			<rect x="69.9" y="180.6" class="st6" width="13.5" height="2"/>
			<path class="st6" d="M88.7,174.6H64.5c-0.6,0-1-0.4-1-1l0,0c0-0.6,0.4-1,1-1h24.2c0.6,0,1,0.4,1,1l0,0
				C89.7,174.2,89.2,174.6,88.7,174.6z"/>
		</g>
		<g>
			<g>
				<polygon class="st5" points="76.8,176.6 64.8,176.6 65.9,179.4 67.5,181.6 71.8,184.6 81.8,184.6 84.1,183.2 87,180.7 88.4,177 
									"/>
				<path class="st4" d="M65.3,177.6c0,0,0.5,4,5,6"/>
				<path class="st4" d="M88.4,177.6c0,0-0.5,4-5,6"/>
			</g>
			<rect x="69.9" y="183.6" class="st6" width="13.5" height="2"/>
			<path class="st6" d="M88.7,177.6H64.5c-0.6,0-1-0.4-1-1l0,0c0-0.6,0.4-1,1-1h24.2c0.6,0,1,0.4,1,1l0,0
				C89.7,177.2,89.2,177.6,88.7,177.6z"/>
		</g>
		<g>
			<g>
				<polygon class="st5" points="76.8,179.6 64.8,179.6 65.9,182.4 67.5,184.6 71.8,187.6 81.8,187.6 84.1,186.2 87,183.7 88.4,180 
									"/>
				<path class="st4" d="M65.3,180.6c0,0,0.5,4,5,6"/>
				<path class="st4" d="M88.4,180.6c0,0-0.5,4-5,6"/>
			</g>
			<rect x="69.9" y="186.6" class="st6" width="13.5" height="2"/>
			<path class="st6" d="M88.7,180.6H64.5c-0.6,0-1-0.4-1-1l0,0c0-0.6,0.4-1,1-1h24.2c0.6,0,1,0.4,1,1l0,0
				C89.7,180.2,89.2,180.6,88.7,180.6z"/>
		</g>
		<g>
			<g>
				<polygon class="st5" points="76.8,182.6 64.8,182.6 65.9,185.4 67.5,187.6 71.8,190.6 81.8,190.6 84.1,189.2 87,186.7 88.4,183 
									"/>
				<path class="st4" d="M65.3,183.6c0,0,0.5,4,5,6"/>
				<path class="st4" d="M88.4,183.6c0,0-0.5,4-5,6"/>
			</g>
			<rect x="69.9" y="189.6" class="st6" width="13.5" height="2"/>
			<path class="st6" d="M88.7,183.6H64.5c-0.6,0-1-0.4-1-1l0,0c0-0.6,0.4-1,1-1h24.2c0.6,0,1,0.4,1,1l0,0
				C89.7,183.2,89.2,183.6,88.7,183.6z"/>
		</g>
		<g>
			<g>
				<polygon class="st5" points="76.8,185.6 64.8,185.6 65.9,188.4 67.5,190.6 71.8,193.6 81.8,193.6 84.1,192.2 87,189.7 88.4,186 
									"/>
				<path class="st4" d="M65.3,186.6c0,0,0.5,4,5,6"/>
				<path class="st4" d="M88.4,186.6c0,0-0.5,4-5,6"/>
			</g>
			<rect x="69.9" y="192.6" class="st6" width="13.5" height="2"/>
			<path class="st6" d="M88.7,186.6H64.5c-0.6,0-1-0.4-1-1l0,0c0-0.6,0.4-1,1-1h24.2c0.6,0,1,0.4,1,1l0,0
				C89.7,186.2,89.2,186.6,88.7,186.6z"/>
		</g>
		<g>
			<g>
				<polygon class="st5" points="76.8,188.6 64.8,188.6 65.9,191.4 67.5,193.6 71.8,196.6 81.8,196.6 84.1,195.2 87,192.7 88.4,189 
									"/>
				<path class="st4" d="M65.3,189.6c0,0,0.5,4,5,6"/>
				<path class="st4" d="M88.4,189.6c0,0-0.5,4-5,6"/>
			</g>
			<rect x="69.9" y="195.6" class="st6" width="13.5" height="2"/>
			<path class="st6" d="M88.7,189.6H64.5c-0.6,0-1-0.4-1-1l0,0c0-0.6,0.4-1,1-1h24.2c0.6,0,1,0.4,1,1l0,0
				C89.7,189.2,89.2,189.6,88.7,189.6z"/>
		</g>
		<g>
			<g>
				<polygon class="st5" points="76.8,191.6 64.8,191.6 65.9,194.4 67.5,196.6 71.8,199.6 81.8,199.6 84.1,198.2 87,195.7 88.4,192 
									"/>
				<path class="st4" d="M65.3,192.6c0,0,0.5,4,5,6"/>
				<path class="st4" d="M88.4,192.6c0,0-0.5,4-5,6"/>
			</g>
			<rect x="69.9" y="198.6" class="st6" width="13.5" height="2"/>
			<path class="st6" d="M88.7,192.6H64.5c-0.6,0-1-0.4-1-1l0,0c0-0.6,0.4-1,1-1h24.2c0.6,0,1,0.4,1,1l0,0
				C89.7,192.2,89.2,192.6,88.7,192.6z"/>
		</g>
		<g>
			<g>
				<polygon class="st5" points="76.8,194.6 64.8,194.6 65.9,197.4 67.5,199.6 71.8,202.6 81.8,202.6 84.1,201.2 87,198.7 88.4,195 
									"/>
				<path class="st4" d="M65.3,195.6c0,0,0.5,4,5,6"/>
				<path class="st4" d="M88.4,195.6c0,0-0.5,4-5,6"/>
			</g>
			<rect x="69.9" y="201.6" class="st6" width="13.5" height="2"/>
			<path class="st6" d="M88.7,195.6H64.5c-0.6,0-1-0.4-1-1l0,0c0-0.6,0.4-1,1-1h24.2c0.6,0,1,0.4,1,1l0,0
				C89.7,195.2,89.2,195.6,88.7,195.6z"/>
		</g>
		<g>
			<g>
				<polygon class="st5" points="76.8,197.6 64.8,197.6 65.9,200.4 67.5,202.6 71.8,205.6 81.8,205.6 84.1,204.2 87,201.7 88.4,198 
									"/>
				<path class="st4" d="M65.3,198.6c0,0,0.5,4,5,6"/>
				<path class="st4" d="M88.4,198.6c0,0-0.5,4-5,6"/>
			</g>
			<rect x="69.9" y="204.6" class="st6" width="13.5" height="2"/>
			<path class="st6" d="M88.7,198.6H64.5c-0.6,0-1-0.4-1-1l0,0c0-0.6,0.4-1,1-1h24.2c0.6,0,1,0.4,1,1l0,0
				C89.7,198.2,89.2,198.6,88.7,198.6z"/>
		</g>
		<g>
			<g>
				<polygon class="st5" points="76.8,200.6 64.8,200.6 65.9,203.4 67.5,205.6 71.8,208.6 81.8,208.6 84.1,207.2 87,204.7 88.4,201 
									"/>
				<path class="st4" d="M65.3,201.6c0,0,0.5,4,5,6"/>
				<path class="st4" d="M88.4,201.6c0,0-0.5,4-5,6"/>
			</g>
			<rect x="69.9" y="207.6" class="st6" width="13.5" height="2"/>
			<path class="st6" d="M88.7,201.6H64.5c-0.6,0-1-0.4-1-1l0,0c0-0.6,0.4-1,1-1h24.2c0.6,0,1,0.4,1,1l0,0
				C89.7,201.2,89.2,201.6,88.7,201.6z"/>
		</g>
		<g>
			<g>
				<polygon class="st5" points="76.8,203.6 64.8,203.6 65.9,206.4 67.5,208.6 71.8,211.6 81.8,211.6 84.1,210.2 87,207.7 88.4,204 
									"/>
				<path class="st4" d="M65.3,204.6c0,0,0.5,4,5,6"/>
				<path class="st4" d="M88.4,204.6c0,0-0.5,4-5,6"/>
			</g>
			<rect x="69.9" y="210.6" class="st6" width="13.5" height="2"/>
			<path class="st6" d="M88.7,204.6H64.5c-0.6,0-1-0.4-1-1l0,0c0-0.6,0.4-1,1-1h24.2c0.6,0,1,0.4,1,1l0,0
				C89.7,204.2,89.2,204.6,88.7,204.6z"/>
		</g>
		<g>
			<g>
				<polygon class="st5" points="76.8,206.6 64.8,206.6 65.9,209.4 67.5,211.6 71.8,214.6 81.8,214.6 84.1,213.2 87,210.7 88.4,207 
									"/>
				<path class="st4" d="M65.3,207.6c0,0,0.5,4,5,6"/>
				<path class="st4" d="M88.4,207.6c0,0-0.5,4-5,6"/>
			</g>
			<rect x="69.9" y="213.6" class="st6" width="13.5" height="2"/>
			<path class="st6" d="M88.7,207.6H64.5c-0.6,0-1-0.4-1-1l0,0c0-0.6,0.4-1,1-1h24.2c0.6,0,1,0.4,1,1l0,0
				C89.7,207.2,89.2,207.6,88.7,207.6z"/>
		</g>
	</g>
	<g>
		<g>
			<g>
				<polygon class="st5" points="109.8,173.6 97.8,173.6 98.9,176.4 100.5,178.6 104.8,181.6 114.8,181.6 117.1,180.2 120,177.7 
					121.4,174 				"/>
				<path class="st4" d="M98.3,174.6c0,0,0.5,4,5,6"/>
				<path class="st4" d="M121.4,174.6c0,0-0.5,4-5,6"/>
			</g>
			<rect x="102.9" y="180.6" class="st6" width="13.5" height="2"/>
			<path class="st6" d="M121.7,174.6H97.5c-0.6,0-1-0.4-1-1l0,0c0-0.6,0.4-1,1-1h24.2c0.6,0,1,0.4,1,1l0,0
				C122.7,174.2,122.2,174.6,121.7,174.6z"/>
		</g>
		<g>
			<g>
				<polygon class="st5" points="109.8,176.6 97.8,176.6 98.9,179.4 100.5,181.6 104.8,184.6 114.8,184.6 117.1,183.2 120,180.7 
					121.4,177 				"/>
				<path class="st4" d="M98.3,177.6c0,0,0.5,4,5,6"/>
				<path class="st4" d="M121.4,177.6c0,0-0.5,4-5,6"/>
			</g>
			<rect x="102.9" y="183.6" class="st6" width="13.5" height="2"/>
			<path class="st6" d="M121.7,177.6H97.5c-0.6,0-1-0.4-1-1l0,0c0-0.6,0.4-1,1-1h24.2c0.6,0,1,0.4,1,1l0,0
				C122.7,177.2,122.2,177.6,121.7,177.6z"/>
		</g>
		<g>
			<g>
				<polygon class="st5" points="109.8,179.6 97.8,179.6 98.9,182.4 100.5,184.6 104.8,187.6 114.8,187.6 117.1,186.2 120,183.7 
					121.4,180 				"/>
				<path class="st4" d="M98.3,180.6c0,0,0.5,4,5,6"/>
				<path class="st4" d="M121.4,180.6c0,0-0.5,4-5,6"/>
			</g>
			<rect x="102.9" y="186.6" class="st6" width="13.5" height="2"/>
			<path class="st6" d="M121.7,180.6H97.5c-0.6,0-1-0.4-1-1l0,0c0-0.6,0.4-1,1-1h24.2c0.6,0,1,0.4,1,1l0,0
				C122.7,180.2,122.2,180.6,121.7,180.6z"/>
		</g>
		<g>
			<g>
				<polygon class="st5" points="109.8,182.6 97.8,182.6 98.9,185.4 100.5,187.6 104.8,190.6 114.8,190.6 117.1,189.2 120,186.7 
					121.4,183 				"/>
				<path class="st4" d="M98.3,183.6c0,0,0.5,4,5,6"/>
				<path class="st4" d="M121.4,183.6c0,0-0.5,4-5,6"/>
			</g>
			<rect x="102.9" y="189.6" class="st6" width="13.5" height="2"/>
			<path class="st6" d="M121.7,183.6H97.5c-0.6,0-1-0.4-1-1l0,0c0-0.6,0.4-1,1-1h24.2c0.6,0,1,0.4,1,1l0,0
				C122.7,183.2,122.2,183.6,121.7,183.6z"/>
		</g>
		<g>
			<g>
				<polygon class="st5" points="109.8,185.6 97.8,185.6 98.9,188.4 100.5,190.6 104.8,193.6 114.8,193.6 117.1,192.2 120,189.7 
					121.4,186 				"/>
				<path class="st4" d="M98.3,186.6c0,0,0.5,4,5,6"/>
				<path class="st4" d="M121.4,186.6c0,0-0.5,4-5,6"/>
			</g>
			<rect x="102.9" y="192.6" class="st6" width="13.5" height="2"/>
			<path class="st6" d="M121.7,186.6H97.5c-0.6,0-1-0.4-1-1l0,0c0-0.6,0.4-1,1-1h24.2c0.6,0,1,0.4,1,1l0,0
				C122.7,186.2,122.2,186.6,121.7,186.6z"/>
		</g>
		<g>
			<g>
				<polygon class="st5" points="109.8,188.6 97.8,188.6 98.9,191.4 100.5,193.6 104.8,196.6 114.8,196.6 117.1,195.2 120,192.7 
					121.4,189 				"/>
				<path class="st4" d="M98.3,189.6c0,0,0.5,4,5,6"/>
				<path class="st4" d="M121.4,189.6c0,0-0.5,4-5,6"/>
			</g>
			<rect x="102.9" y="195.6" class="st6" width="13.5" height="2"/>
			<path class="st6" d="M121.7,189.6H97.5c-0.6,0-1-0.4-1-1l0,0c0-0.6,0.4-1,1-1h24.2c0.6,0,1,0.4,1,1l0,0
				C122.7,189.2,122.2,189.6,121.7,189.6z"/>
		</g>
		<g>
			<g>
				<polygon class="st5" points="109.8,191.6 97.8,191.6 98.9,194.4 100.5,196.6 104.8,199.6 114.8,199.6 117.1,198.2 120,195.7 
					121.4,192 				"/>
				<path class="st4" d="M98.3,192.6c0,0,0.5,4,5,6"/>
				<path class="st4" d="M121.4,192.6c0,0-0.5,4-5,6"/>
			</g>
			<rect x="102.9" y="198.6" class="st6" width="13.5" height="2"/>
			<path class="st6" d="M121.7,192.6H97.5c-0.6,0-1-0.4-1-1l0,0c0-0.6,0.4-1,1-1h24.2c0.6,0,1,0.4,1,1l0,0
				C122.7,192.2,122.2,192.6,121.7,192.6z"/>
		</g>
		<g>
			<g>
				<polygon class="st5" points="109.8,194.6 97.8,194.6 98.9,197.4 100.5,199.6 104.8,202.6 114.8,202.6 117.1,201.2 120,198.7 
					121.4,195 				"/>
				<path class="st4" d="M98.3,195.6c0,0,0.5,4,5,6"/>
				<path class="st4" d="M121.4,195.6c0,0-0.5,4-5,6"/>
			</g>
			<rect x="102.9" y="201.6" class="st6" width="13.5" height="2"/>
			<path class="st6" d="M121.7,195.6H97.5c-0.6,0-1-0.4-1-1l0,0c0-0.6,0.4-1,1-1h24.2c0.6,0,1,0.4,1,1l0,0
				C122.7,195.2,122.2,195.6,121.7,195.6z"/>
		</g>
		<g>
			<g>
				<polygon class="st5" points="109.8,197.6 97.8,197.6 98.9,200.4 100.5,202.6 104.8,205.6 114.8,205.6 117.1,204.2 120,201.7 
					121.4,198 				"/>
				<path class="st4" d="M98.3,198.6c0,0,0.5,4,5,6"/>
				<path class="st4" d="M121.4,198.6c0,0-0.5,4-5,6"/>
			</g>
			<rect x="102.9" y="204.6" class="st6" width="13.5" height="2"/>
			<path class="st6" d="M121.7,198.6H97.5c-0.6,0-1-0.4-1-1l0,0c0-0.6,0.4-1,1-1h24.2c0.6,0,1,0.4,1,1l0,0
				C122.7,198.2,122.2,198.6,121.7,198.6z"/>
		</g>
		<g>
			<g>
				<polygon class="st5" points="109.8,200.6 97.8,200.6 98.9,203.4 100.5,205.6 104.8,208.6 114.8,208.6 117.1,207.2 120,204.7 
					121.4,201 				"/>
				<path class="st4" d="M98.3,201.6c0,0,0.5,4,5,6"/>
				<path class="st4" d="M121.4,201.6c0,0-0.5,4-5,6"/>
			</g>
			<rect x="102.9" y="207.6" class="st6" width="13.5" height="2"/>
			<path class="st6" d="M121.7,201.6H97.5c-0.6,0-1-0.4-1-1l0,0c0-0.6,0.4-1,1-1h24.2c0.6,0,1,0.4,1,1l0,0
				C122.7,201.2,122.2,201.6,121.7,201.6z"/>
		</g>
		<g>
			<g>
				<polygon class="st5" points="109.8,203.6 97.8,203.6 98.9,206.4 100.5,208.6 104.8,211.6 114.8,211.6 117.1,210.2 120,207.7 
					121.4,204 				"/>
				<path class="st4" d="M98.3,204.6c0,0,0.5,4,5,6"/>
				<path class="st4" d="M121.4,204.6c0,0-0.5,4-5,6"/>
			</g>
			<rect x="102.9" y="210.6" class="st6" width="13.5" height="2"/>
			<path class="st6" d="M121.7,204.6H97.5c-0.6,0-1-0.4-1-1l0,0c0-0.6,0.4-1,1-1h24.2c0.6,0,1,0.4,1,1l0,0
				C122.7,204.2,122.2,204.6,121.7,204.6z"/>
		</g>
		<g>
			<g>
				<polygon class="st5" points="109.8,206.6 97.8,206.6 98.9,209.4 100.5,211.6 104.8,214.6 114.8,214.6 117.1,213.2 120,210.7 
					121.4,207 				"/>
				<path class="st4" d="M98.3,207.6c0,0,0.5,4,5,6"/>
				<path class="st4" d="M121.4,207.6c0,0-0.5,4-5,6"/>
			</g>
			<rect x="102.9" y="213.6" class="st6" width="13.5" height="2"/>
			<path class="st6" d="M121.7,207.6H97.5c-0.6,0-1-0.4-1-1l0,0c0-0.6,0.4-1,1-1h24.2c0.6,0,1,0.4,1,1l0,0
				C122.7,207.2,122.2,207.6,121.7,207.6z"/>
		</g>
	</g>
	<g>
		<g>
			<g>
				<polygon class="st5" points="142.8,185.6 130.8,185.6 131.9,188.4 133.5,190.6 137.8,193.6 147.8,193.6 150.1,192.2 153,189.7 
					154.4,186 				"/>
				<path class="st4" d="M131.3,186.6c0,0,0.5,4,5,6"/>
				<path class="st4" d="M154.4,186.6c0,0-0.5,4-5,6"/>
			</g>
			<rect x="135.9" y="192.6" class="st6" width="13.5" height="2"/>
			<path class="st6" d="M154.7,186.6h-24.2c-0.6,0-1-0.4-1-1l0,0c0-0.6,0.4-1,1-1h24.2c0.6,0,1,0.4,1,1l0,0
				C155.7,186.2,155.2,186.6,154.7,186.6z"/>
		</g>
		<g>
			<g>
				<polygon class="st5" points="142.8,188.6 130.8,188.6 131.9,191.4 133.5,193.6 137.8,196.6 147.8,196.6 150.1,195.2 153,192.7 
					154.4,189 				"/>
				<path class="st4" d="M131.3,189.6c0,0,0.5,4,5,6"/>
				<path class="st4" d="M154.4,189.6c0,0-0.5,4-5,6"/>
			</g>
			<rect x="135.9" y="195.6" class="st6" width="13.5" height="2"/>
			<path class="st6" d="M154.7,189.6h-24.2c-0.6,0-1-0.4-1-1l0,0c0-0.6,0.4-1,1-1h24.2c0.6,0,1,0.4,1,1l0,0
				C155.7,189.2,155.2,189.6,154.7,189.6z"/>
		</g>
		<g>
			<g>
				<polygon class="st5" points="142.8,191.6 130.8,191.6 131.9,194.4 133.5,196.6 137.8,199.6 147.8,199.6 150.1,198.2 153,195.7 
					154.4,192 				"/>
				<path class="st4" d="M131.3,192.6c0,0,0.5,4,5,6"/>
				<path class="st4" d="M154.4,192.6c0,0-0.5,4-5,6"/>
			</g>
			<rect x="135.9" y="198.6" class="st6" width="13.5" height="2"/>
			<path class="st6" d="M154.7,192.6h-24.2c-0.6,0-1-0.4-1-1l0,0c0-0.6,0.4-1,1-1h24.2c0.6,0,1,0.4,1,1l0,0
				C155.7,192.2,155.2,192.6,154.7,192.6z"/>
		</g>
		<g>
			<g>
				<polygon class="st5" points="142.8,194.6 130.8,194.6 131.9,197.4 133.5,199.6 137.8,202.6 147.8,202.6 150.1,201.2 153,198.7 
					154.4,195 				"/>
				<path class="st4" d="M131.3,195.6c0,0,0.5,4,5,6"/>
				<path class="st4" d="M154.4,195.6c0,0-0.5,4-5,6"/>
			</g>
			<rect x="135.9" y="201.6" class="st6" width="13.5" height="2"/>
			<path class="st6" d="M154.7,195.6h-24.2c-0.6,0-1-0.4-1-1l0,0c0-0.6,0.4-1,1-1h24.2c0.6,0,1,0.4,1,1l0,0
				C155.7,195.2,155.2,195.6,154.7,195.6z"/>
		</g>
		<g>
			<g>
				<polygon class="st5" points="142.8,197.6 130.8,197.6 131.9,200.4 133.5,202.6 137.8,205.6 147.8,205.6 150.1,204.2 153,201.7 
					154.4,198 				"/>
				<path class="st4" d="M131.3,198.6c0,0,0.5,4,5,6"/>
				<path class="st4" d="M154.4,198.6c0,0-0.5,4-5,6"/>
			</g>
			<rect x="135.9" y="204.6" class="st6" width="13.5" height="2"/>
			<path class="st6" d="M154.7,198.6h-24.2c-0.6,0-1-0.4-1-1l0,0c0-0.6,0.4-1,1-1h24.2c0.6,0,1,0.4,1,1l0,0
				C155.7,198.2,155.2,198.6,154.7,198.6z"/>
		</g>
		<g>
			<g>
				<polygon class="st5" points="142.8,200.6 130.8,200.6 131.9,203.4 133.5,205.6 137.8,208.6 147.8,208.6 150.1,207.2 153,204.7 
					154.4,201 				"/>
				<path class="st4" d="M131.3,201.6c0,0,0.5,4,5,6"/>
				<path class="st4" d="M154.4,201.6c0,0-0.5,4-5,6"/>
			</g>
			<rect x="135.9" y="207.6" class="st6" width="13.5" height="2"/>
			<path class="st6" d="M154.7,201.6h-24.2c-0.6,0-1-0.4-1-1l0,0c0-0.6,0.4-1,1-1h24.2c0.6,0,1,0.4,1,1l0,0
				C155.7,201.2,155.2,201.6,154.7,201.6z"/>
		</g>
		<g>
			<g>
				<polygon class="st5" points="142.8,203.6 130.8,203.6 131.9,206.4 133.5,208.6 137.8,211.6 147.8,211.6 150.1,210.2 153,207.7 
					154.4,204 				"/>
				<path class="st4" d="M131.3,204.6c0,0,0.5,4,5,6"/>
				<path class="st4" d="M154.4,204.6c0,0-0.5,4-5,6"/>
			</g>
			<rect x="135.9" y="210.6" class="st6" width="13.5" height="2"/>
			<path class="st6" d="M154.7,204.6h-24.2c-0.6,0-1-0.4-1-1l0,0c0-0.6,0.4-1,1-1h24.2c0.6,0,1,0.4,1,1l0,0
				C155.7,204.2,155.2,204.6,154.7,204.6z"/>
		</g>
		<g>
			<g>
				<polygon class="st5" points="142.8,206.6 130.8,206.6 131.9,209.4 133.5,211.6 137.8,214.6 147.8,214.6 150.1,213.2 153,210.7 
					154.4,207 				"/>
				<path class="st4" d="M131.3,207.6c0,0,0.5,4,5,6"/>
				<path class="st4" d="M154.4,207.6c0,0-0.5,4-5,6"/>
			</g>
			<rect x="135.9" y="213.6" class="st6" width="13.5" height="2"/>
			<path class="st6" d="M154.7,207.6h-24.2c-0.6,0-1-0.4-1-1l0,0c0-0.6,0.4-1,1-1h24.2c0.6,0,1,0.4,1,1l0,0
				C155.7,207.2,155.2,207.6,154.7,207.6z"/>
		</g>
	</g>
	<g>
		<line class="st0" x1="154.4" y1="304.1" x2="88.8" y2="304.1"/>
		<path class="st2" d="M121.6,260.6c-24,0-43.5,19.5-43.5,43.5s19.5,43.5,43.5,43.5s43.5-19.5,43.5-43.5S145.7,260.6,121.6,260.6z
			 M121.6,339.8c-19.7,0-35.7-16-35.7-35.7s16-35.7,35.7-35.7s35.7,16,35.7,35.7S141.3,339.8,121.6,339.8z"/>
		<circle class="st7" cx="121.6" cy="304.1" r="32.8"/>
		<line class="st0" x1="121.6" y1="271.3" x2="121.6" y2="336.9"/>
		<line class="st0" x1="150" y1="287.7" x2="93.2" y2="320.5"/>
		<line class="st0" x1="105.2" y1="275.7" x2="138" y2="332.5"/>
		<line class="st0" x1="138" y1="275.7" x2="105.2" y2="332.5"/>
		<line class="st0" x1="93.2" y1="287.7" x2="150" y2="320.5"/>
		<circle class="st0" cx="121.6" cy="304.1" r="5.3"/>
		<circle class="st0" cx="121.6" cy="304.1" r="2.4"/>
	</g>
	<rect x="57.6" y="216.1" class="st0" width="288" height="5"/>
	<g>
		<rect x="44.1" y="226.6" class="st0" width="3" height="2"/>
		<path class="st0" d="M37.1,217.6h-26v23h10v-2h13v2h7v-19C41.1,219.4,39.3,217.6,37.1,217.6z M36.1,229.6h-13v-8h11
			c1.1,0,2,0.9,2,2V229.6z"/>
		<ellipse class="st0" cx="37.9" cy="227.8" rx="5" ry="3.5"/>
		<rect x="31.9" y="226.3" class="st0" width="12" height="3"/>
		<path class="st0" d="M43.6,340.6h-37c-3,0-5.5-2.5-5.5-5.5v-86.5h48v86.5C49.1,338.1,46.7,340.6,43.6,340.6z"/>
		<rect x="6.1" y="340.6" class="st0" width="39" height="8"/>
		<path class="st0" d="M9.1,240.6h32c4.4,0,8,3.6,8,8l0,0h-48l0,0C1.1,244.2,4.7,240.6,9.1,240.6z"/>
		<path class="st0" d="M28.1,217.6h-18v23h2v-2h13v2h7v-19C32.1,219.4,30.3,217.6,28.1,217.6z M27.1,229.6h-13v-8h11
			c1.1,0,2,0.9,2,2V229.6z"/>
	</g>
</g>
<g>
	<path class="st6" d="M297,143.7c-0.3-0.2-0.5-0.3-0.8-0.4c-0.5-0.3-1-0.5-1.6-0.7c-0.2-0.1-0.5,0-0.6,0.1c-0.2,0.2-0.7,0.4-1.1,0.6
		c-0.6,0.2-1.2,0.3-1.7,0.6c-0.9,0.4-1.4,1.1-1.4,1.7c0,0.1,0,0.2,0,0.4c0.1,0.3,0.4,0.5,0.9,0.5h7.2c0.4,0,0.8-0.2,0.9-0.5
		c0-0.1,0-0.2,0-0.4C298.6,144.7,297.9,144.2,297,143.7z"/>
	<path class="st6" d="M294.6,143c0,0,1.3,1,1.9,1.9"/>
	<path class="st6" d="M294.1,142.8c0,0-0.5,1.5-1.7,1.8"/>
</g>
<g>
	<path class="st6" d="M307,143.7c-0.3-0.2-0.5-0.3-0.8-0.4c-0.5-0.3-1-0.5-1.6-0.7c-0.2-0.1-0.5,0-0.6,0.1c-0.2,0.2-0.7,0.4-1.1,0.6
		c-0.6,0.2-1.2,0.3-1.7,0.6c-0.9,0.4-1.4,1.1-1.4,1.7c0,0.1,0,0.2,0,0.4c0.1,0.3,0.4,0.5,0.9,0.5h7.2c0.4,0,0.8-0.2,0.9-0.5
		c0-0.1,0-0.2,0-0.4C308.6,144.7,307.9,144.2,307,143.7z"/>
	<path class="st6" d="M304.6,143c0,0,1.3,1,1.9,1.9"/>
	<path class="st6" d="M304.1,142.8c0,0-0.5,1.5-1.7,1.8"/>
</g>
<g>
	<path class="st6" d="M317,143.7c-0.3-0.2-0.5-0.3-0.8-0.4c-0.5-0.3-1-0.5-1.6-0.7c-0.2-0.1-0.5,0-0.6,0.1c-0.2,0.2-0.7,0.4-1.1,0.6
		c-0.6,0.2-1.2,0.3-1.7,0.6c-0.9,0.4-1.4,1.1-1.4,1.7c0,0.1,0,0.2,0,0.4c0.1,0.3,0.4,0.5,0.9,0.5h7.2c0.4,0,0.8-0.2,0.9-0.5
		c0-0.1,0-0.2,0-0.4C318.6,144.7,317.9,144.2,317,143.7z"/>
	<path class="st6" d="M314.6,143c0,0,1.3,1,1.9,1.9"/>
	<path class="st6" d="M314.1,142.8c0,0-0.5,1.5-1.7,1.8"/>
</g>
<g>
	<path class="st6" d="M297,155.7c-0.3-0.2-0.5-0.3-0.8-0.4c-0.5-0.3-1-0.5-1.6-0.7c-0.2-0.1-0.5,0-0.6,0.1c-0.2,0.2-0.7,0.4-1.1,0.6
		c-0.6,0.2-1.2,0.3-1.7,0.6c-0.9,0.4-1.4,1.1-1.4,1.7c0,0.1,0,0.2,0,0.4c0.1,0.3,0.4,0.5,0.9,0.5h7.2c0.4,0,0.8-0.2,0.9-0.5
		c0-0.1,0-0.2,0-0.4C298.6,156.7,297.9,156.2,297,155.7z"/>
	<path class="st6" d="M294.6,155c0,0,1.3,1,1.9,1.9"/>
	<path class="st6" d="M294.1,154.8c0,0-0.5,1.5-1.7,1.8"/>
</g>
<g>
	<path class="st6" d="M307,155.7c-0.3-0.2-0.5-0.3-0.8-0.4c-0.5-0.3-1-0.5-1.6-0.7c-0.2-0.1-0.5,0-0.6,0.1c-0.2,0.2-0.7,0.4-1.1,0.6
		c-0.6,0.2-1.2,0.3-1.7,0.6c-0.9,0.4-1.4,1.1-1.4,1.7c0,0.1,0,0.2,0,0.4c0.1,0.3,0.4,0.5,0.9,0.5h7.2c0.4,0,0.8-0.2,0.9-0.5
		c0-0.1,0-0.2,0-0.4C308.6,156.7,307.9,156.2,307,155.7z"/>
	<path class="st6" d="M304.6,155c0,0,1.3,1,1.9,1.9"/>
	<path class="st6" d="M304.1,154.8c0,0-0.5,1.5-1.7,1.8"/>
</g>
<g>
	<path class="st6" d="M317,155.7c-0.3-0.2-0.5-0.3-0.8-0.4c-0.5-0.3-1-0.5-1.6-0.7c-0.2-0.1-0.5,0-0.6,0.1c-0.2,0.2-0.7,0.4-1.1,0.6
		c-0.6,0.2-1.2,0.3-1.7,0.6c-0.9,0.4-1.4,1.1-1.4,1.7c0,0.1,0,0.2,0,0.4c0.1,0.3,0.4,0.5,0.9,0.5h7.2c0.4,0,0.8-0.2,0.9-0.5
		c0-0.1,0-0.2,0-0.4C318.6,156.7,317.9,156.2,317,155.7z"/>
	<path class="st6" d="M314.6,155c0,0,1.3,1,1.9,1.9"/>
	<path class="st6" d="M314.1,154.8c0,0-0.5,1.5-1.7,1.8"/>
</g>
<g>
	<path class="st6" d="M297,167.7c-0.3-0.2-0.5-0.3-0.8-0.4c-0.5-0.3-1-0.5-1.6-0.7c-0.2-0.1-0.5,0-0.6,0.1c-0.2,0.2-0.7,0.4-1.1,0.6
		c-0.6,0.2-1.2,0.3-1.7,0.6c-0.9,0.4-1.4,1.1-1.4,1.7c0,0.1,0,0.2,0,0.4c0.1,0.3,0.4,0.5,0.9,0.5h7.2c0.4,0,0.8-0.2,0.9-0.5
		c0-0.1,0-0.2,0-0.4C298.6,168.7,297.9,168.2,297,167.7z"/>
	<path class="st6" d="M294.6,167c0,0,1.3,1,1.9,1.9"/>
	<path class="st6" d="M294.1,166.8c0,0-0.5,1.5-1.7,1.8"/>
</g>
<g>
	<path class="st6" d="M307,167.7c-0.3-0.2-0.5-0.3-0.8-0.4c-0.5-0.3-1-0.5-1.6-0.7c-0.2-0.1-0.5,0-0.6,0.1c-0.2,0.2-0.7,0.4-1.1,0.6
		c-0.6,0.2-1.2,0.3-1.7,0.6c-0.9,0.4-1.4,1.1-1.4,1.7c0,0.1,0,0.2,0,0.4c0.1,0.3,0.4,0.5,0.9,0.5h7.2c0.4,0,0.8-0.2,0.9-0.5
		c0-0.1,0-0.2,0-0.4C308.6,168.7,307.9,168.2,307,167.7z"/>
	<path class="st6" d="M304.6,167c0,0,1.3,1,1.9,1.9"/>
	<path class="st6" d="M304.1,166.8c0,0-0.5,1.5-1.7,1.8"/>
</g>
<g>
	<path class="st6" d="M317,167.7c-0.3-0.2-0.5-0.3-0.8-0.4c-0.5-0.3-1-0.5-1.6-0.7c-0.2-0.1-0.5,0-0.6,0.1c-0.2,0.2-0.7,0.4-1.1,0.6
		c-0.6,0.2-1.2,0.3-1.7,0.6c-0.9,0.4-1.4,1.1-1.4,1.7c0,0.1,0,0.2,0,0.4c0.1,0.3,0.4,0.5,0.9,0.5h7.2c0.4,0,0.8-0.2,0.9-0.5
		c0-0.1,0-0.2,0-0.4C318.6,168.7,317.9,168.2,317,167.7z"/>
	<path class="st6" d="M314.6,167c0,0,1.3,1,1.9,1.9"/>
	<path class="st6" d="M314.1,166.8c0,0-0.5,1.5-1.7,1.8"/>
</g>
<g>
	<path class="st6" d="M297,179.7c-0.3-0.2-0.5-0.3-0.8-0.4c-0.5-0.3-1-0.5-1.6-0.7c-0.2-0.1-0.5,0-0.6,0.1c-0.2,0.2-0.7,0.4-1.1,0.6
		c-0.6,0.2-1.2,0.3-1.7,0.6c-0.9,0.4-1.4,1.1-1.4,1.7c0,0.1,0,0.2,0,0.4c0.1,0.3,0.4,0.5,0.9,0.5h7.2c0.4,0,0.8-0.2,0.9-0.5
		c0-0.1,0-0.2,0-0.4C298.6,180.7,297.9,180.2,297,179.7z"/>
	<path class="st6" d="M294.6,179c0,0,1.3,1,1.9,1.9"/>
	<path class="st6" d="M294.1,178.8c0,0-0.5,1.5-1.7,1.8"/>
</g>
<g>
	<path class="st6" d="M307,179.7c-0.3-0.2-0.5-0.3-0.8-0.4c-0.5-0.3-1-0.5-1.6-0.7c-0.2-0.1-0.5,0-0.6,0.1c-0.2,0.2-0.7,0.4-1.1,0.6
		c-0.6,0.2-1.2,0.3-1.7,0.6c-0.9,0.4-1.4,1.1-1.4,1.7c0,0.1,0,0.2,0,0.4c0.1,0.3,0.4,0.5,0.9,0.5h7.2c0.4,0,0.8-0.2,0.9-0.5
		c0-0.1,0-0.2,0-0.4C308.6,180.7,307.9,180.2,307,179.7z"/>
	<path class="st6" d="M304.6,179c0,0,1.3,1,1.9,1.9"/>
	<path class="st6" d="M304.1,178.8c0,0-0.5,1.5-1.7,1.8"/>
</g>
<g>
	<path class="st6" d="M317,179.7c-0.3-0.2-0.5-0.3-0.8-0.4c-0.5-0.3-1-0.5-1.6-0.7c-0.2-0.1-0.5,0-0.6,0.1c-0.2,0.2-0.7,0.4-1.1,0.6
		c-0.6,0.2-1.2,0.3-1.7,0.6c-0.9,0.4-1.4,1.1-1.4,1.7c0,0.1,0,0.2,0,0.4c0.1,0.3,0.4,0.5,0.9,0.5h7.2c0.4,0,0.8-0.2,0.9-0.5
		c0-0.1,0-0.2,0-0.4C318.6,180.7,317.9,180.2,317,179.7z"/>
	<path class="st6" d="M314.6,179c0,0,1.3,1,1.9,1.9"/>
	<path class="st6" d="M314.1,178.8c0,0-0.5,1.5-1.7,1.8"/>
</g>
<g>
	<path class="st8" d="M58.4,75.9H6.9c-3.4,0-6.1-2.7-6.1-6.1V58.4h63.6v11.4C64.5,73.2,61.8,75.9,58.4,75.9z"/>
	<path class="st9" d="M128,4.1c-22.6,0-78.6,0.1-127.1,54.3h63.6C82.6,5.3,125.2,4.1,128,4.1z"/>
	<path class="st9" d="M128.3,4.1c2.7,0,45.4,1.2,63.5,54.3h63.6C206.8,4.2,150.8,4.1,128.3,4.1z"/>
	<path class="st0" d="M128.1,4.1c0,0,0.1,0,0.1,0C128.2,4.1,128.1,4.1,128.1,4.1z"/>
	<path class="st0" d="M128,4.1c0,0,0.1,0,0.1,0C128.1,4.1,128.1,4.1,128,4.1z"/>
	<path class="st8" d="M128.3,4.1c0,0-0.1,0-0.1,0s-0.1,0-0.1,0c-2.7,0-45.4,1.2-63.5,54.3h63.6h63.6C173.7,5.3,131,4.1,128.3,4.1z"
		/>
	<path class="st8" d="M197.9,75.9h51.5c3.4,0,6.1-2.7,6.1-6.1V58.4h-63.6v11.4C191.8,73.2,194.5,75.9,197.9,75.9z"/>
	<path class="st1" d="M128.1,58.4H64.5v11.4c0,3.4,2.7,6.1,6.1,6.1h57.6h57.6c3.4,0,6.1-2.7,6.1-6.1V58.4H128.1z"/>
	<path class="st0" d="M129.5,0.4h-1.4h-1.4c-0.6,0-1.1,0.5-1.1,1.1v2.7h2.5h2.5V1.5C130.6,0.9,130.1,0.4,129.5,0.4z"/>
</g>
</svg>
