<svg width="174" height="29" viewBox="0 0 174 29" fill="none" xmlns="http://www.w3.org/2000/svg">
<path d="M14.4995 0L18.6007 10.3988L28.9995 14.5L18.6007 18.6012L14.4995 29L10.3983 18.6012L-0.000488281 14.5L10.3983 10.3988L14.4995 0Z" fill="#E4007E"/>
<path d="M43.4995 0L47.6007 10.3988L57.9995 14.5L47.6007 18.6012L43.4995 29L39.3983 18.6012L28.9995 14.5L39.3983 10.3988L43.4995 0Z" fill="#E4007E"/>
<path d="M72.4995 0L76.6007 10.3988L86.9995 14.5L76.6007 18.6012L72.4995 29L68.3983 18.6012L57.9995 14.5L68.3983 10.3988L72.4995 0Z" fill="#E4007E"/>
<path d="M101.5 0L105.601 10.3988L116 14.5L105.601 18.6012L101.5 29L97.3983 18.6012L86.9995 14.5L97.3983 10.3988L101.5 0Z" fill="#E4007E"/>
<path d="M130.5 0L134.601 10.3988L145 14.5L134.601 18.6012L130.5 29L126.398 18.6012L116 14.5L126.398 10.3988L130.5 0Z" fill="#E4007E"/>
<path d="M159.5 0L163.601 10.3988L174 14.5L163.601 18.6012L159.5 29L155.398 18.6012L145 14.5L155.398 10.3988L159.5 0Z" fill="#E4007E"/>
</svg>
