<?xml version="1.0" encoding="utf-8"?>
<!-- Generator: Adobe Illustrator 26.3.1, SVG Export Plug-In . SVG Version: 6.00 Build 0)  -->
<svg version="1.1" xmlns="http://www.w3.org/2000/svg" xmlns:xlink="http://www.w3.org/1999/xlink" x="0px" y="0px"
	 viewBox="0 0 1186 918" style="enable-background:new 0 0 1186 918;" xml:space="preserve">
<style type="text/css">
	.st0{display:none;}
	.st1{display:inline;}
	.st2{fill:#FFFFFF;stroke:#C1986B;stroke-width:2.5;stroke-linecap:round;stroke-linejoin:round;stroke-miterlimit:10;}
	.st3{fill:#BB2027;stroke:#C1986B;stroke-width:2.5;stroke-linecap:round;stroke-linejoin:round;stroke-miterlimit:10;}
	.st4{fill:#C1986B;}
	.st5{fill:none;stroke:#EDEADE;stroke-width:2.5;stroke-miterlimit:10;}
	.st6{fill:#E2007E;stroke:#C1986B;stroke-width:2.5;stroke-miterlimit:10;}
	.st7{fill:#47B78E;stroke:#C1986B;stroke-width:2.5;stroke-miterlimit:10;}
	.st8{fill:#E2007E;}
	.st9{fill:none;stroke:#C1986B;stroke-width:2.5;stroke-miterlimit:10;}
	.st10{fill:none;stroke:#C1986B;stroke-width:2.5;stroke-linecap:round;stroke-linejoin:round;stroke-miterlimit:10;}
	.st11{fill:#338773;}
	.st12{fill:#FFFFFF;filter:url(#Adobe_OpacityMaskFilter);}
	.st13{mask:url(#mask0_452_5915_00000060720408224991277540000016041009271186368643_);}
	.st14{fill:none;stroke:#C1986B;stroke-width:4.1981;stroke-linecap:round;stroke-linejoin:round;stroke-miterlimit:10;}
	.st15{fill:#FFFFFF;filter:url(#Adobe_OpacityMaskFilter_00000040541223796143060000000002356100588608411067_);}
	.st16{mask:url(#mask1_452_5915_00000095304223567074270600000004775010842253945247_);}
	.st17{fill:#47B78E;}
	.st18{fill:#FFFFFF;filter:url(#Adobe_OpacityMaskFilter_00000075161111746176042680000016838612981724838588_);}
	.st19{mask:url(#mask2_452_5915_00000167364210441351210140000001559278469785580177_);}
	.st20{fill:#338773;stroke:#C1986B;stroke-width:2.4286;stroke-miterlimit:10;}
	.st21{fill:#67CC67;stroke:#C1986B;stroke-width:2.4286;}
	.st22{fill:#FFFFFF;stroke:#C1986B;stroke-width:2.4286;stroke-miterlimit:10;}
	.st23{fill:#FFFFFF;stroke:#C1986B;stroke-width:2.4286;stroke-linecap:round;stroke-miterlimit:10;}
	.st24{fill:#C1986B;stroke:#EDEADE;stroke-width:1.7303;stroke-miterlimit:10;}
	.st25{fill:#338773;stroke:#C1986B;stroke-width:2.4868;stroke-miterlimit:10;}
	.st26{fill:#47B78E;stroke:#C1986B;stroke-width:2.4868;}
	.st27{fill:#FFFFFF;stroke:#C1986B;stroke-width:2.6126;stroke-miterlimit:10;}
	.st28{fill:#BB2027;stroke:#C1986B;stroke-width:2.4286;stroke-linecap:round;stroke-linejoin:round;stroke-miterlimit:10;}
	.st29{fill:#FFFFFF;filter:url(#Adobe_OpacityMaskFilter_00000029763839432158479620000011540513739154677940_);}
	.st30{mask:url(#mask0_452_5915_1_);}
	.st31{fill:none;stroke:#C1986B;stroke-width:2.9426;stroke-linecap:round;stroke-linejoin:round;stroke-miterlimit:10;}
	.st32{fill:#FFFFFF;filter:url(#Adobe_OpacityMaskFilter_00000117655060289156986810000000468426082961131673_);}
	.st33{mask:url(#mask1_452_5915_1_);}
	.st34{fill:#FFFFFF;filter:url(#Adobe_OpacityMaskFilter_00000081619015581503691420000014504915835255800199_);}
	.st35{mask:url(#mask2_452_5915_1_);}
	.st36{fill:#FFFFFF;stroke:#C1986B;stroke-width:2.9546;stroke-miterlimit:10;}
	.st37{fill:none;stroke:#C1986B;stroke-width:2.9546;stroke-miterlimit:10;}
	.st38{fill:#FFFFFF;stroke:#C1986B;stroke-width:1.163;stroke-miterlimit:10;}
	.st39{fill:none;stroke:#C1986B;stroke-width:1.163;stroke-miterlimit:10;}
	.st40{clip-path:url(#SVGID_00000167357772605592740820000010262051304722336401_);}
	.st41{fill:none;stroke:#E2007E;stroke-width:1.2005;stroke-linecap:round;stroke-linejoin:round;stroke-miterlimit:10;}
	.st42{fill:#431D31;}
	.st43{clip-path:url(#SVGID_00000096038750055047896750000017582649167776858025_);fill:#E2007E;}
	.st44{fill:#431D31;stroke:#431D31;stroke-width:4;stroke-linecap:round;stroke-linejoin:round;stroke-miterlimit:10;}
	.st45{fill:#FFFFFF;stroke:#C1986B;stroke-width:2.2592;stroke-miterlimit:10;}
	.st46{fill:none;stroke:#C1986B;stroke-width:2.2592;stroke-miterlimit:10;}
	.st47{fill:#FFFFFF;stroke:#C1986B;stroke-width:2.2351;stroke-miterlimit:10;}
	.st48{fill:none;stroke:#C1986B;stroke-width:2.2351;stroke-miterlimit:10;}
	.st49{fill:#FFFFFF;stroke:#C1986B;stroke-width:2.0394;stroke-miterlimit:10;}
	.st50{fill:none;stroke:#C1986B;stroke-width:2.0394;stroke-miterlimit:10;}
	.st51{fill:#FFFFFF;stroke:#C1986B;stroke-width:2.8232;stroke-linecap:round;stroke-linejoin:round;stroke-miterlimit:10;}
	.st52{fill:none;stroke:#C1986B;stroke-width:2.8232;stroke-linecap:round;stroke-linejoin:round;stroke-miterlimit:10;}
	.st53{clip-path:url(#SVGID_00000093149973678389897000000010590655697961630115_);}
	.st54{fill:none;stroke:#E2007E;stroke-width:0.5595;stroke-linecap:round;stroke-linejoin:round;stroke-miterlimit:10;}
	.st55{fill:#431D31;stroke:#C1986B;stroke-width:1.0417;stroke-miterlimit:10;}
	.st56{fill:#C1986B;stroke:#431D31;stroke-width:1.0417;stroke-miterlimit:10;}
	.st57{fill:#431D31;stroke:#C1986B;stroke-width:2.5;stroke-miterlimit:10;}
	.st58{fill:#FFFFFF;stroke:#C1986B;stroke-width:2.5;stroke-miterlimit:10;}
	.st59{clip-path:url(#SVGID_00000179615946375370043080000004063055165148074679_);}
	.st60{fill:#E4C16D;stroke:#C1986B;stroke-width:2;stroke-linecap:round;stroke-linejoin:round;stroke-miterlimit:10;}
	.st61{opacity:0.3;fill:#E4C16D;stroke:#C1986B;stroke-width:2;stroke-linecap:round;stroke-linejoin:round;stroke-miterlimit:10;}
	.st62{fill:#BB2027;stroke:#C1986B;stroke-width:2.317;stroke-linecap:round;stroke-linejoin:round;stroke-miterlimit:10;}
	.st63{fill:#FFFFFF;stroke:#C1986B;stroke-width:2.8724;stroke-miterlimit:10;}
	.st64{fill:#F4E62A;stroke:#C1986B;stroke-width:2.1135;stroke-miterlimit:10;}
	.st65{fill:none;stroke:#C1986B;stroke-width:2.1135;stroke-miterlimit:10;}
	.st66{fill:none;stroke:#C1986B;stroke-width:2.1135;stroke-linecap:square;stroke-miterlimit:10;}
	.st67{clip-path:url(#SVGID_00000031891631661217551780000003048011508960539833_);}
	.st68{fill:none;stroke:#BB2027;stroke-width:4;stroke-linecap:round;stroke-linejoin:round;stroke-miterlimit:10;}
	.st69{clip-path:url(#SVGID_00000085962354292100888740000002625852203130971839_);}
	.st70{fill:#BB2027;}
	.st71{fill:none;}
	.st72{fill:none;stroke:#E2007E;stroke-width:14;stroke-miterlimit:10;}
	.st73{fill:none;stroke:#C1986B;stroke-width:30;stroke-linecap:round;stroke-linejoin:round;stroke-miterlimit:10;}
	.st74{fill:#FC6931;stroke:#C1986B;stroke-width:2.2083;stroke-miterlimit:10;}
	.st75{fill:none;stroke:#C1986B;stroke-width:1.377;stroke-linecap:round;stroke-linejoin:round;stroke-miterlimit:10;}
	.st76{clip-path:url(#SVGID_00000046316614461010074510000012810224743241700535_);}
	.st77{fill:none;stroke:#E2007E;stroke-width:15;stroke-linecap:round;stroke-linejoin:round;stroke-miterlimit:10;}
	.st78{fill:none;stroke:#C1986B;stroke-width:2.4286;stroke-linecap:round;stroke-linejoin:round;stroke-miterlimit:10;}
	.st79{clip-path:url(#SVGID_00000142864528631485570330000014358911095626427578_);}
	.st80{fill:none;stroke:#F4E62A;stroke-width:15;stroke-linecap:round;stroke-linejoin:round;stroke-miterlimit:10;}
	.st81{fill:#E2007E;stroke:#C1986B;stroke-width:1.8104;stroke-miterlimit:10;}
	.st82{fill:#FFFFFF;stroke:#C1986B;stroke-width:2.2083;stroke-miterlimit:10;}
	.st83{fill:none;stroke:#C1986B;stroke-width:2.2083;stroke-miterlimit:10;}
</style>
<g id="圖層_3" class="st0">
	<g class="st1">
		<g>
			<g>
				<path class="st2" d="M524.26,890.93c-2.84,0-5.15-2.3-5.15-5.15V26.11c0-2.84,2.3-5.15,5.15-5.15c2.84,0,5.15,2.3,5.15,5.15
					v859.68C529.41,888.62,527.11,890.93,524.26,890.93z"/>
			</g>
			<g>
				<path class="st2" d="M517.42,890.93c-0.1,0-0.2,0-0.3-0.01c-2.84-0.17-5-2.6-4.84-5.44l50.2-859.68
					c0.17-2.84,2.62-4.99,5.44-4.84c2.84,0.17,5,2.6,4.84,5.44l-50.2,859.68C522.4,888.82,520.13,890.93,517.42,890.93z"/>
				<path class="st2" d="M511.37,890.93c-0.1,0-0.2,0-0.3-0.01c-2.84-0.17-5-2.6-4.84-5.44l50.2-859.68
					c0.17-2.84,2.62-4.99,5.44-4.84c2.84,0.17,5,2.6,4.84,5.44l-50.2,859.68C516.34,888.82,514.08,890.93,511.37,890.93z"/>
				<path class="st2" d="M505.32,890.93c-0.1,0-0.2,0-0.3-0.01c-2.84-0.17-5-2.6-4.84-5.44l50.2-859.68
					c0.17-2.84,2.62-4.99,5.44-4.84c2.84,0.17,5,2.6,4.84,5.44l-50.2,859.68C510.29,888.82,508.02,890.93,505.32,890.93z"/>
				<path class="st2" d="M499.27,890.93c-0.1,0-0.2,0-0.3-0.01c-2.84-0.17-5-2.6-4.84-5.44l50.2-859.68
					c0.17-2.84,2.62-4.99,5.44-4.84c2.84,0.17,5,2.6,4.84,5.44l-50.2,859.68C504.24,888.82,501.97,890.93,499.27,890.93z"/>
				<path class="st2" d="M493.22,890.93c-0.1,0-0.2,0-0.3-0.01c-2.84-0.17-5-2.6-4.84-5.44l50.2-859.68
					c0.17-2.84,2.62-4.99,5.44-4.84c2.84,0.17,5,2.6,4.84,5.44l-50.2,859.68C498.19,888.82,495.92,890.93,493.22,890.93z"/>
				<path class="st2" d="M487.16,890.93c-0.1,0-0.2,0-0.3-0.01c-2.84-0.17-5-2.6-4.84-5.44l50.2-859.68
					c0.17-2.84,2.62-4.99,5.44-4.84c2.84,0.17,5,2.6,4.84,5.44l-50.2,859.68C492.14,888.82,489.87,890.93,487.16,890.93z"/>
				<path class="st2" d="M481.11,890.93c-0.1,0-0.2,0-0.3-0.01c-2.84-0.17-5-2.6-4.84-5.44l50.2-859.68
					c0.17-2.84,2.61-4.99,5.44-4.84c2.84,0.17,5,2.6,4.84,5.44l-50.2,859.68C486.08,888.82,483.82,890.93,481.11,890.93z"/>
			</g>
			<g>
				<path class="st2" d="M531.3,890.93c-2.7,0-4.97-2.11-5.13-4.85l-50.2-859.68c-0.17-2.84,2-5.27,4.84-5.44
					c2.82-0.16,5.27,2,5.44,4.84l50.2,859.68c0.16,2.84-2,5.27-4.84,5.44C531.5,890.93,531.4,890.93,531.3,890.93z"/>
				<path class="st2" d="M537.35,890.93c-2.7,0-4.97-2.11-5.13-4.85l-50.2-859.68c-0.17-2.84,2-5.27,4.84-5.44
					c2.82-0.16,5.27,2,5.44,4.84l50.2,859.68c0.17,2.84-2,5.27-4.84,5.44C537.56,890.93,537.45,890.93,537.35,890.93z"/>
				<path class="st2" d="M543.4,890.93c-2.7,0-4.97-2.11-5.13-4.85l-50.2-859.68c-0.17-2.84,2-5.27,4.84-5.44
					c2.82-0.16,5.27,2,5.44,4.84l50.2,859.68c0.17,2.84-2,5.27-4.84,5.44C543.61,890.93,543.51,890.93,543.4,890.93z"/>
				<path class="st2" d="M549.46,890.93c-2.7,0-4.97-2.11-5.13-4.85l-50.2-859.68c-0.17-2.84,2-5.27,4.84-5.44
					c2.83-0.16,5.27,2,5.44,4.84l50.2,859.68c0.17,2.84-2,5.27-4.84,5.44C549.66,890.93,549.56,890.93,549.46,890.93z"/>
				<path class="st2" d="M555.51,890.93c-2.7,0-4.97-2.11-5.13-4.85l-50.2-859.68c-0.17-2.84,2-5.27,4.84-5.44
					c2.83-0.16,5.27,2,5.44,4.84l50.2,859.68c0.17,2.84-2,5.27-4.84,5.44C555.71,890.93,555.61,890.93,555.51,890.93z"/>
				<path class="st2" d="M561.56,890.93c-2.7,0-4.97-2.11-5.13-4.85l-50.2-859.68c-0.17-2.84,2-5.27,4.84-5.44
					c2.83-0.16,5.27,2,5.44,4.84l50.2,859.68c0.16,2.84-2,5.27-4.84,5.44C561.76,890.93,561.66,890.93,561.56,890.93z"/>
				<path class="st2" d="M567.61,890.93c-2.7,0-4.97-2.11-5.13-4.85l-50.2-859.68c-0.17-2.84,2-5.27,4.84-5.44
					c2.83-0.16,5.27,2,5.44,4.84l50.2,859.68c0.17,2.84-2,5.27-4.84,5.44C567.82,890.93,567.71,890.93,567.61,890.93z"/>
			</g>
			<rect x="493.46" y="393.73" class="st3" width="63.32" height="124.43"/>
		</g>
		<g>
			<g>
				<path class="st2" d="M376.45,887.53c-2.84,0-5.15-2.3-5.15-5.15V22.71c0-2.84,2.3-5.15,5.15-5.15c2.84,0,5.15,2.3,5.15,5.15
					v859.68C381.59,885.23,379.29,887.53,376.45,887.53z"/>
			</g>
			<g>
				<path class="st2" d="M369.61,887.53c-0.1,0-0.2,0-0.3-0.01c-2.84-0.17-5-2.6-4.84-5.44l50.2-859.68
					c0.17-2.84,2.62-4.99,5.44-4.84c2.84,0.17,5,2.6,4.84,5.44l-50.2,859.68C374.58,885.42,372.31,887.53,369.61,887.53z"/>
				<path class="st2" d="M363.55,887.53c-0.1,0-0.2,0-0.3-0.01c-2.84-0.17-5-2.6-4.84-5.44l50.2-859.68
					c0.17-2.84,2.62-4.99,5.44-4.84c2.84,0.17,5,2.6,4.84,5.44l-50.2,859.68C368.53,885.42,366.26,887.53,363.55,887.53z"/>
				<path class="st2" d="M357.5,887.53c-0.1,0-0.2,0-0.3-0.01c-2.84-0.17-5-2.6-4.84-5.44l50.2-859.68
					c0.17-2.84,2.62-4.99,5.44-4.84c2.84,0.17,5,2.6,4.84,5.44l-50.2,859.68C362.47,885.42,360.21,887.53,357.5,887.53z"/>
				<path class="st2" d="M351.45,887.53c-0.1,0-0.2,0-0.3-0.01c-2.84-0.17-5-2.6-4.84-5.44l50.2-859.68
					c0.17-2.84,2.62-4.99,5.44-4.84c2.84,0.17,5,2.6,4.84,5.44l-50.2,859.68C356.42,885.42,354.15,887.53,351.45,887.53z"/>
				<path class="st2" d="M345.4,887.53c-0.1,0-0.2,0-0.3-0.01c-2.84-0.17-5-2.6-4.84-5.44l50.2-859.68
					c0.17-2.84,2.62-4.99,5.44-4.84c2.84,0.17,5,2.6,4.84,5.44l-50.2,859.68C350.37,885.42,348.1,887.53,345.4,887.53z"/>
				<path class="st2" d="M339.35,887.53c-0.1,0-0.2,0-0.3-0.01c-2.84-0.17-5-2.6-4.84-5.44l50.2-859.68
					c0.17-2.84,2.62-4.99,5.44-4.84c2.84,0.17,5,2.6,4.84,5.44l-50.2,859.68C344.32,885.42,342.05,887.53,339.35,887.53z"/>
				<path class="st2" d="M333.29,887.53c-0.1,0-0.2,0-0.3-0.01c-2.84-0.17-5-2.6-4.84-5.44l50.2-859.68
					c0.17-2.84,2.62-4.99,5.44-4.84c2.84,0.17,5,2.6,4.84,5.44l-50.2,859.68C338.27,885.42,336,887.53,333.29,887.53z"/>
			</g>
			<g>
				<path class="st2" d="M383.48,887.53c-2.7,0-4.97-2.11-5.13-4.85l-50.2-859.68c-0.17-2.84,2-5.27,4.84-5.44
					c2.82-0.16,5.27,2,5.44,4.84l50.2,859.68c0.17,2.84-2,5.27-4.84,5.44C383.69,887.53,383.58,887.53,383.48,887.53z"/>
				<path class="st2" d="M389.54,887.53c-2.7,0-4.97-2.11-5.13-4.85L334.2,23.01c-0.17-2.84,2-5.27,4.84-5.44
					c2.82-0.16,5.27,2,5.44,4.84l50.2,859.68c0.17,2.84-2,5.27-4.84,5.44C389.74,887.53,389.64,887.53,389.54,887.53z"/>
				<path class="st2" d="M395.59,887.53c-2.7,0-4.97-2.11-5.13-4.85l-50.2-859.68c-0.17-2.84,2-5.27,4.84-5.44
					c2.82-0.16,5.27,2,5.44,4.84l50.2,859.68c0.17,2.84-2,5.27-4.84,5.44C395.79,887.53,395.69,887.53,395.59,887.53z"/>
				<path class="st2" d="M401.64,887.53c-2.7,0-4.97-2.11-5.13-4.85l-50.2-859.68c-0.17-2.84,2-5.27,4.84-5.44
					c2.83-0.16,5.27,2,5.44,4.84l50.2,859.68c0.17,2.84-2,5.27-4.84,5.44C401.84,887.53,401.74,887.53,401.64,887.53z"/>
				<path class="st2" d="M407.69,887.53c-2.7,0-4.97-2.11-5.13-4.85l-50.2-859.68c-0.17-2.84,2-5.27,4.84-5.44
					c2.83-0.16,5.27,2,5.44,4.84l50.2,859.68c0.17,2.84-2,5.27-4.84,5.44C407.89,887.53,407.79,887.53,407.69,887.53z"/>
				<path class="st2" d="M413.74,887.53c-2.7,0-4.97-2.11-5.13-4.85l-50.2-859.68c-0.17-2.84,2-5.27,4.84-5.44
					c2.83-0.16,5.27,2,5.44,4.84l50.2,859.68c0.17,2.84-2,5.27-4.84,5.44C413.95,887.53,413.84,887.53,413.74,887.53z"/>
				<path class="st2" d="M419.79,887.53c-2.7,0-4.97-2.11-5.13-4.85l-50.2-859.68c-0.17-2.84,2-5.27,4.84-5.44
					c2.83-0.16,5.27,2,5.44,4.84l50.2,859.68c0.17,2.84-2,5.27-4.84,5.44C420,887.53,419.9,887.53,419.79,887.53z"/>
			</g>
			<rect x="345.64" y="390.33" class="st3" width="63.32" height="124.43"/>
		</g>
		<g>
			<g>
				<path class="st2" d="M228.63,887.53c-2.84,0-5.15-2.3-5.15-5.15V22.71c0-2.84,2.3-5.15,5.15-5.15s5.15,2.3,5.15,5.15v859.68
					C233.77,885.23,231.47,887.53,228.63,887.53z"/>
			</g>
			<g>
				<path class="st2" d="M221.79,887.53c-0.1,0-0.2,0-0.3-0.01c-2.84-0.17-5-2.6-4.84-5.44l50.2-859.68
					c0.17-2.84,2.62-4.99,5.44-4.84c2.84,0.17,5,2.6,4.84,5.44l-50.2,859.68C226.76,885.42,224.49,887.53,221.79,887.53z"/>
				<path class="st2" d="M215.74,887.53c-0.1,0-0.2,0-0.3-0.01c-2.84-0.17-5-2.6-4.84-5.44l50.2-859.68
					c0.17-2.84,2.62-4.99,5.44-4.84c2.84,0.17,5,2.6,4.84,5.44l-50.2,859.68C220.71,885.42,218.44,887.53,215.74,887.53z"/>
				<path class="st2" d="M209.68,887.53c-0.1,0-0.2,0-0.3-0.01c-2.84-0.17-5-2.6-4.84-5.44l50.2-859.68
					c0.17-2.84,2.62-4.99,5.44-4.84c2.84,0.17,5,2.6,4.84,5.44l-50.2,859.68C214.66,885.42,212.39,887.53,209.68,887.53z"/>
				<path class="st2" d="M203.63,887.53c-0.1,0-0.2,0-0.3-0.01c-2.84-0.17-5-2.6-4.84-5.44l50.2-859.68
					c0.17-2.84,2.62-4.99,5.44-4.84c2.84,0.17,5,2.6,4.84,5.44l-50.2,859.68C208.6,885.42,206.34,887.53,203.63,887.53z"/>
				<path class="st2" d="M197.58,887.53c-0.1,0-0.2,0-0.3-0.01c-2.84-0.17-5-2.6-4.84-5.44l50.2-859.68
					c0.17-2.84,2.62-4.99,5.44-4.84c2.84,0.17,5,2.6,4.84,5.44l-50.2,859.68C202.55,885.42,200.28,887.53,197.58,887.53z"/>
				<path class="st2" d="M191.53,887.53c-0.1,0-0.2,0-0.3-0.01c-2.84-0.17-5-2.6-4.84-5.44l50.2-859.68
					c0.17-2.84,2.62-4.99,5.44-4.84c2.84,0.17,5,2.6,4.84,5.44l-50.2,859.68C196.5,885.42,194.23,887.53,191.53,887.53z"/>
				<path class="st2" d="M185.48,887.53c-0.1,0-0.2,0-0.3-0.01c-2.84-0.17-5-2.6-4.84-5.44l50.2-859.68
					c0.17-2.84,2.62-4.99,5.44-4.84c2.84,0.17,5,2.6,4.84,5.44l-50.2,859.68C190.45,885.42,188.18,887.53,185.48,887.53z"/>
			</g>
			<g>
				<path class="st2" d="M235.67,887.53c-2.7,0-4.97-2.11-5.13-4.85l-50.2-859.68c-0.17-2.84,2-5.27,4.84-5.44
					c2.82-0.16,5.27,2,5.44,4.84l50.2,859.68c0.17,2.84-2,5.27-4.84,5.44C235.87,887.53,235.77,887.53,235.67,887.53z"/>
				<path class="st2" d="M241.72,887.53c-2.7,0-4.97-2.11-5.13-4.85l-50.2-859.68c-0.17-2.84,2-5.27,4.84-5.44
					c2.82-0.16,5.27,2,5.44,4.84l50.2,859.68c0.17,2.84-2,5.27-4.84,5.44C241.92,887.53,241.82,887.53,241.72,887.53z"/>
				<path class="st2" d="M247.77,887.53c-2.7,0-4.97-2.11-5.13-4.85l-50.2-859.68c-0.17-2.84,2-5.27,4.84-5.44
					c2.82-0.16,5.27,2,5.44,4.84l50.2,859.68c0.17,2.84-2,5.27-4.84,5.44C247.97,887.53,247.87,887.53,247.77,887.53z"/>
				<path class="st2" d="M253.82,887.53c-2.7,0-4.97-2.11-5.13-4.85l-50.2-859.68c-0.17-2.84,2-5.27,4.84-5.44
					c2.83-0.16,5.27,2,5.44,4.84l50.2,859.68c0.17,2.84-2,5.27-4.84,5.44C254.02,887.53,253.92,887.53,253.82,887.53z"/>
				<path class="st2" d="M259.87,887.53c-2.7,0-4.97-2.11-5.13-4.85l-50.2-859.68c-0.17-2.84,2-5.27,4.84-5.44
					c2.83-0.16,5.27,2,5.44,4.84l50.2,859.68c0.17,2.84-2,5.27-4.84,5.44C260.08,887.53,259.97,887.53,259.87,887.53z"/>
				<path class="st2" d="M265.93,887.53c-2.7,0-4.97-2.11-5.13-4.85l-50.2-859.68c-0.17-2.84,2-5.27,4.84-5.44
					c2.83-0.16,5.27,2,5.44,4.84l50.2,859.68c0.17,2.84-2,5.27-4.84,5.44C266.13,887.53,266.03,887.53,265.93,887.53z"/>
				<path class="st2" d="M271.98,887.53c-2.7,0-4.97-2.11-5.13-4.85l-50.2-859.68c-0.17-2.84,2-5.27,4.84-5.44
					c2.83-0.16,5.27,2,5.44,4.84l50.2,859.68c0.17,2.84-2,5.27-4.84,5.44C272.18,887.53,272.08,887.53,271.98,887.53z"/>
			</g>
			<rect x="197.82" y="390.33" class="st3" width="63.32" height="124.43"/>
		</g>
		<g>
			<g>
				<g>
					<polygon class="st4" points="154.51,640.73 159.14,637.94 163.34,634.13 168.58,632.26 172.8,628.5 177.38,625.39 
						183.42,625.02 187.93,621.8 193.16,619.9 197.44,615.97 202.41,618.73 207.77,620.51 212.56,623.38 217.81,625.37 
						221.99,629.39 226.97,631.91 231.6,635.09 236.76,637.25 241.98,639.3 246.49,642.7 251.22,645.71 256.91,646.89 
						262.11,648.89 265.7,653.8 271.77,654.23 276.58,656.95 281.05,660.24 286.08,662.57 289.7,667.33 294.97,669.24 300.34,671 
						303.86,675.87 308.67,678.56 313.53,681.17 318.59,683.48 322.75,687.22 327.34,690.28 333.04,691.6 337.97,694.15 
						341.55,698.75 346.31,701.56 350.74,704.86 355.45,707.74 360.55,710.09 364.63,713.88 369.52,716.55 373.52,720.42 
						378.74,722.69 383.11,726.09 387.05,730.03 389.92,735.16 394.81,737.93 399.81,740.71 403.46,744.91 406.09,749.97 
						409,754.62 412.32,758.91 415.23,763.52 416.59,768.82 414.22,773.45 410.22,776.7 406.19,780.25 402.13,784.37 396.28,784.51 
						391.83,788.2 385.94,787.64 381.06,790.28 375.68,791.18 370.24,791.76 365.24,794.17 360.14,796.28 354.4,795.41 
						349.47,798.44 343.92,798.36 338.49,798.81 333.25,800.35 327.95,801.58 322.76,803.56 317.14,802.78 311.72,803.25 
						306.24,803.26 301.14,806.03 295.78,806.93 290.21,806.3 284.88,807.41 279.42,807.52 274.28,810.29 268.67,809.13 
						263.23,809.4 257.86,810.29 252.38,810.2 246.98,810.81 241.61,811.69 236.39,814.1 230.8,812.8 225.33,812.78 219.98,813.86 
						214.74,816.26 209.33,816.87 203.75,815.46 198.5,817.88 192.97,816.93 187.63,818.36 182.1,817.38 176.64,817.37 
						171.3,818.76 165.95,820.05 160.38,818.51 155.1,820.8 149.61,820.31 144.17,820.32 138.83,821.91 133.35,821.3 127.98,821.52 
						123.14,818.86 117.24,819 112.75,815.35 107.25,814.41 102.29,812.01 97.38,809.47 92.06,808.03 86.64,806.88 81.3,805.49 
						76.34,803.09 71.81,799.54 66.24,798.75 60.91,797.34 57,794.07 55.91,789.28 53.2,784.15 53,778.45 50.79,773.2 49.82,767.68 
						48.7,762.18 46.45,756.56 51.53,753.09 53.82,748.08 57.95,744.4 60.91,739.86 64.06,735.47 66.29,730.4 69.13,725.78 
						72.83,721.79 75.78,717.25 79.13,713.01 83.09,709.2 86.33,704.87 88.33,699.63 91.41,695.19 96.02,691.85 98.88,687.24 
						100.43,681.67 104.93,678.25 107.56,673.4 112.03,669.75 116.82,666.61 122.35,664.46 126.16,659.99 130.82,656.67 
						134.75,652.36 139.24,648.82 144.19,645.89 148.8,642.34 					"/>
					<polygon class="st5" points="154.51,640.73 159.14,637.94 163.34,634.13 168.58,632.26 172.8,628.5 177.38,625.39 
						183.42,625.02 187.93,621.8 193.16,619.9 197.44,615.97 202.41,618.73 207.77,620.51 212.56,623.38 217.81,625.37 
						221.99,629.39 226.97,631.91 231.6,635.09 236.76,637.25 241.98,639.3 246.49,642.7 251.22,645.71 256.91,646.89 
						262.11,648.89 265.7,653.8 271.77,654.23 276.58,656.95 281.05,660.24 286.08,662.57 289.7,667.33 294.97,669.24 300.34,671 
						303.86,675.87 308.67,678.56 313.53,681.17 318.59,683.48 322.75,687.22 327.34,690.28 333.04,691.6 337.97,694.15 
						341.55,698.75 346.31,701.56 350.74,704.86 355.45,707.74 360.55,710.09 364.63,713.88 369.52,716.55 373.52,720.42 
						378.74,722.69 383.11,726.09 387.05,730.03 389.92,735.16 394.81,737.93 399.81,740.71 403.46,744.91 406.09,749.97 
						409,754.62 412.32,758.91 415.23,763.52 416.59,768.82 414.22,773.45 410.22,776.7 406.19,780.25 402.13,784.37 396.28,784.51 
						391.83,788.2 385.94,787.64 381.06,790.28 375.68,791.18 370.24,791.76 365.24,794.17 360.14,796.28 354.4,795.41 
						349.47,798.44 343.92,798.36 338.49,798.81 333.25,800.35 327.95,801.58 322.76,803.56 317.14,802.78 311.72,803.25 
						306.24,803.26 301.14,806.03 295.78,806.93 290.21,806.3 284.88,807.41 279.42,807.52 274.28,810.29 268.67,809.13 
						263.23,809.4 257.86,810.29 252.38,810.2 246.98,810.81 241.61,811.69 236.39,814.1 230.8,812.8 225.33,812.78 219.98,813.86 
						214.74,816.26 209.33,816.87 203.75,815.46 198.5,817.88 192.97,816.93 187.63,818.36 182.1,817.38 176.64,817.37 
						171.3,818.76 165.95,820.05 160.38,818.51 155.1,820.8 149.61,820.31 144.17,820.32 138.83,821.91 133.35,821.3 127.98,821.52 
						123.14,818.86 117.24,819 112.75,815.35 107.25,814.41 102.29,812.01 97.38,809.47 92.06,808.03 86.64,806.88 81.3,805.49 
						76.34,803.09 71.81,799.54 66.24,798.75 60.91,797.34 57,794.07 55.91,789.28 53.2,784.15 53,778.45 50.79,773.2 49.82,767.68 
						48.7,762.18 46.45,756.56 51.53,753.09 53.82,748.08 57.95,744.4 60.91,739.86 64.06,735.47 66.29,730.4 69.13,725.78 
						72.83,721.79 75.78,717.25 79.13,713.01 83.09,709.2 86.33,704.87 88.33,699.63 91.41,695.19 96.02,691.85 98.88,687.24 
						100.43,681.67 104.93,678.25 107.56,673.4 112.03,669.75 116.82,666.61 122.35,664.46 126.16,659.99 130.82,656.67 
						134.75,652.36 139.24,648.82 144.19,645.89 148.8,642.34 					"/>
				</g>
				<g>
					<polygon class="st4" points="36.44,766.89 40.2,763.63 44.05,759.74 48.04,755.99 52.56,752.92 57.68,750.6 61.35,746.47 
						65.35,742.73 70.54,740.5 74.71,736.98 78.21,732.63 82.98,729.88 86.75,725.85 91.13,722.61 95.44,719.27 99.19,715.22 
						104.51,713.15 108.23,709.08 113.07,706.4 117.2,702.82 121.44,699.4 125.12,695.26 129.18,691.61 133.75,688.6 137.87,685.02 
						142.24,681.75 146.97,678.94 151.27,675.59 154.81,671.28 159.01,667.8 164.14,665.49 168.21,661.84 171.47,657.18 
						176.54,654.78 180.44,650.92 184.58,647.35 189.01,644.14 193.32,641.91 197.08,644.97 200.66,649.12 204.97,652.62 
						208.73,656.62 212.02,661.03 215.73,665.06 218.88,669.6 222.66,673.57 225.55,678.34 229.01,682.61 233.95,685.55 
						236.49,690.64 241.67,693.36 243.81,698.8 248.11,702.31 251.42,706.71 255.92,710.06 258.28,715.29 263.32,718.16 
						266.9,722.32 270.09,726.82 273.42,731.2 277.39,735.01 281.8,738.42 284.99,742.93 287.52,748.02 292.45,750.98 
						295.27,755.81 299.64,759.27 302.58,764 305.9,768.4 310.27,771.85 313.08,776.71 316.76,780.78 320.76,784.58 325.01,788.15 
						329.48,792.9 322.96,793.04 317.63,794.38 312.24,795.33 306.84,796.12 301.37,796.41 295.95,797.07 290.33,796.2 
						285.06,798.02 279.57,798.09 274.28,799.85 268.76,799.75 263.47,801.42 258,801.67 252.66,803 247.13,802.82 241.69,803.36 
						236.17,803.3 230.77,804.1 225.41,805.25 219.99,805.94 214.74,807.97 209.14,807.25 203.9,809.34 198.48,810.05 192.83,808.9 
						187.41,809.68 182.08,812.06 176.71,809.53 171.23,808.85 165.74,808.18 160.13,808.5 154.68,807.49 149.07,807.8 
						143.66,806.47 138.08,806.58 132.6,805.83 127.28,803.8 121.82,802.89 116.29,802.54 110.92,800.95 105.27,801.57 
						99.74,801.28 94.21,800.89 88.87,799.05 83.3,798.95 77.76,798.7 72.53,795.99 66.76,797.47 61.48,795.15 55.94,794.97 
						51.95,790.75 49.14,785.66 45.36,781.27 41.94,776.61 40.06,770.91 					"/>
					<polygon class="st5" points="36.44,766.89 40.2,763.63 44.05,759.74 48.04,755.99 52.56,752.92 57.68,750.6 61.35,746.47 
						65.35,742.73 70.54,740.5 74.71,736.98 78.21,732.63 82.98,729.88 86.75,725.85 91.13,722.61 95.44,719.27 99.19,715.22 
						104.51,713.15 108.23,709.08 113.07,706.4 117.2,702.82 121.44,699.4 125.12,695.26 129.18,691.61 133.75,688.6 137.87,685.02 
						142.24,681.75 146.97,678.94 151.27,675.59 154.81,671.28 159.01,667.8 164.14,665.49 168.21,661.84 171.47,657.18 
						176.54,654.78 180.44,650.92 184.58,647.35 189.01,644.14 193.32,641.91 197.08,644.97 200.66,649.12 204.97,652.62 
						208.73,656.62 212.02,661.03 215.73,665.06 218.88,669.6 222.66,673.57 225.55,678.34 229.01,682.61 233.95,685.55 
						236.49,690.64 241.67,693.36 243.81,698.8 248.11,702.31 251.42,706.71 255.92,710.06 258.28,715.29 263.32,718.16 
						266.9,722.32 270.09,726.82 273.42,731.2 277.39,735.01 281.8,738.42 284.99,742.93 287.52,748.02 292.45,750.98 
						295.27,755.81 299.64,759.27 302.58,764 305.9,768.4 310.27,771.85 313.08,776.71 316.76,780.78 320.76,784.58 325.01,788.15 
						329.48,792.9 322.96,793.04 317.63,794.38 312.24,795.33 306.84,796.12 301.37,796.41 295.95,797.07 290.33,796.2 
						285.06,798.02 279.57,798.09 274.28,799.85 268.76,799.75 263.47,801.42 258,801.67 252.66,803 247.13,802.82 241.69,803.36 
						236.17,803.3 230.77,804.1 225.41,805.25 219.99,805.94 214.74,807.97 209.14,807.25 203.9,809.34 198.48,810.05 192.83,808.9 
						187.41,809.68 182.08,812.06 176.71,809.53 171.23,808.85 165.74,808.18 160.13,808.5 154.68,807.49 149.07,807.8 
						143.66,806.47 138.08,806.58 132.6,805.83 127.28,803.8 121.82,802.89 116.29,802.54 110.92,800.95 105.27,801.57 
						99.74,801.28 94.21,800.89 88.87,799.05 83.3,798.95 77.76,798.7 72.53,795.99 66.76,797.47 61.48,795.15 55.94,794.97 
						51.95,790.75 49.14,785.66 45.36,781.27 41.94,776.61 40.06,770.91 					"/>
				</g>
				<g>
					<polyline class="st4" points="417,762.54 414.02,757.98 411.78,753.03 409.64,748.04 406.64,743.48 403.74,738.87 
						402.16,733.59 398.8,729.22 396.82,724.14 394.58,719.19 391.83,714.51 389.2,709.75 386.23,705.18 384.48,699.99 
						382.15,695.09 380.02,690.09 376.65,685.72 374.1,680.93 372.22,675.8 369.56,671.06 367.33,666.11 363.92,661.76 
						362.24,656.52 359.91,651.6 357.24,646.76 351.98,645.28 346.73,644.2 341.46,643.26 336.03,643.07 330.97,641.08 
						325.79,639.72 320.49,638.9 315.05,638.73 309.8,637.69 304.75,635.67 299.31,635.52 294.2,633.74 288.86,633.12 
						283.76,631.33 278.56,630.02 273.21,629.4 268.14,628.7 264.65,632.85 262.61,638.15 259.39,642.74 256.38,647.47 
						254.05,652.6 250.79,657.18 247.89,661.97 244.69,666.58 242.77,671.95 239.11,676.3 236.69,681.39 233.61,686.08 					"/>
					<polyline class="st5" points="417,762.54 414.02,757.98 411.78,753.03 409.64,748.04 406.64,743.48 403.74,738.87 
						402.16,733.59 398.8,729.22 396.82,724.14 394.58,719.19 391.83,714.51 389.2,709.75 386.23,705.18 384.48,699.99 
						382.15,695.09 380.02,690.09 376.65,685.72 374.1,680.93 372.22,675.8 369.56,671.06 367.33,666.11 363.92,661.76 
						362.24,656.52 359.91,651.6 357.24,646.76 351.98,645.28 346.73,644.2 341.46,643.26 336.03,643.07 330.97,641.08 
						325.79,639.72 320.49,638.9 315.05,638.73 309.8,637.69 304.75,635.67 299.31,635.52 294.2,633.74 288.86,633.12 
						283.76,631.33 278.56,630.02 273.21,629.4 268.14,628.7 264.65,632.85 262.61,638.15 259.39,642.74 256.38,647.47 
						254.05,652.6 250.79,657.18 247.89,661.97 244.69,666.58 242.77,671.95 239.11,676.3 236.69,681.39 233.61,686.08 					"/>
				</g>
				<g>
					<polyline class="st4" points="40.38,762.55 43.88,758.17 45.65,752.86 48.29,748.02 51.15,743.3 53.63,738.37 57.04,733.95 
						59.35,728.92 61.58,723.86 65.02,719.44 67.59,714.57 70.14,709.67 72.55,704.7 75.52,700.04 78.21,695.22 80.2,690.02 
						82.66,685.08 85.93,680.57 88.47,675.68 91.2,670.88 93.74,665.99 96.05,660.96 98.94,656.25 101.34,651.27 104.22,646.55 
						106.4,641.45 109.03,636.6 111.86,631.85 115.18,627.37 117.39,622.34 122.34,624.13 127.07,626.53 131.62,629.31 
						136.31,631.8 141.16,633.94 146.06,636 150.89,638.19 155.55,640.74 160.26,643.19 165.19,645.19 170.29,646.82 174.74,649.83 
						179.86,651.45 					"/>
					<polyline class="st5" points="40.38,762.55 43.88,758.17 45.65,752.86 48.29,748.02 51.15,743.3 53.63,738.37 57.04,733.95 
						59.35,728.92 61.58,723.86 65.02,719.44 67.59,714.57 70.14,709.67 72.55,704.7 75.52,700.04 78.21,695.22 80.2,690.02 
						82.66,685.08 85.93,680.57 88.47,675.68 91.2,670.88 93.74,665.99 96.05,660.96 98.94,656.25 101.34,651.27 104.22,646.55 
						106.4,641.45 109.03,636.6 111.86,631.85 115.18,627.37 117.39,622.34 122.34,624.13 127.07,626.53 131.62,629.31 
						136.31,631.8 141.16,633.94 146.06,636 150.89,638.19 155.55,640.74 160.26,643.19 165.19,645.19 170.29,646.82 174.74,649.83 
						179.86,651.45 					"/>
				</g>
			</g>
			<g>
				<path class="st6" d="M32.77,760.86c0,0.19-0.01,0.37-0.01,0.56v0c0,66.54,53.94,120.48,120.48,120.48h147.44
					c66.54,0,120.49-53.94,120.49-120.48v0c0-0.19-0.01-0.37-0.01-0.56H32.77z"/>
			</g>
			<g>
				<g>
					<path class="st6" d="M90.98,808.32c18.29,43.24,61.11,73.59,111.02,73.59"/>
				</g>
				<path class="st6" d="M145.37,808.32c10.97,43.24,36.67,73.59,66.61,73.59"/>
				<path class="st6" d="M199.77,808.32c3.66,43.24,12.22,73.59,22.2,73.59"/>
				<path class="st6" d="M254.17,808.32c-3.66,43.24-12.22,73.59-22.2,73.59"/>
				<path class="st6" d="M308.56,808.32c-10.97,43.24-36.67,73.59-66.61,73.59"/>
				<g>
					<path class="st6" d="M362.96,808.32c-18.29,43.24-61.11,73.59-111.02,73.59"/>
				</g>
			</g>
			<rect x="154.68" y="881.91" class="st6" width="144.57" height="18.62"/>
			<path class="st6" d="M423.59,761.08H30.35c-5.08,0-9.21-4.12-9.21-9.21v0c0-5.08,4.12-9.21,9.21-9.21h393.24
				c5.08,0,9.21,4.12,9.21,9.21v0C432.79,756.96,428.67,761.08,423.59,761.08z"/>
		</g>
		<g>
			<path class="st7" d="M542.2,809.76h-11.74h-70.04c-0.82,0-1.34,0.86-0.96,1.59c0.79,1.51,2.27,3.91,4.77,6.4
				c4.12,4.12,6.18,18.55,8.59,28.51c2.4,9.96,8.93,35.72,34.35,47.06h23.29h11.74h23.29c25.42-11.34,31.94-37.1,34.35-47.06
				c2.4-9.96,4.47-24.39,8.59-28.51c2.49-2.49,3.98-4.89,4.77-6.4c0.38-0.72-0.14-1.59-0.96-1.59H542.2z"/>
			<rect x="507.13" y="893.32" class="st7" width="58.39" height="7.21"/>
		</g>
		<g>
			<path class="st7" d="M717.05,809.76H705.3h-70.04c-0.82,0-1.34,0.86-0.96,1.59c0.79,1.51,2.27,3.91,4.77,6.4
				c4.12,4.12,6.18,18.55,8.59,28.51c2.4,9.96,8.93,35.72,34.35,47.06h23.29h11.74h23.29c25.42-11.34,31.94-37.1,34.35-47.06
				c2.4-9.96,4.47-24.39,8.59-28.51c2.49-2.49,3.98-4.89,4.77-6.4c0.38-0.72-0.14-1.59-0.96-1.59H717.05z"/>
			<rect x="681.98" y="893.32" class="st7" width="58.39" height="7.21"/>
		</g>
		<g>
			<path class="st7" d="M891.89,809.76h-11.74h-70.04c-0.82,0-1.34,0.86-0.96,1.59c0.79,1.51,2.27,3.91,4.77,6.4
				c4.12,4.12,6.18,18.55,8.59,28.51c2.4,9.96,8.93,35.72,34.35,47.06h23.29h11.74h23.29c25.42-11.34,31.94-37.1,34.35-47.06
				c2.4-9.96,4.47-24.39,8.59-28.51c2.49-2.49,3.98-4.89,4.77-6.4c0.38-0.72-0.14-1.59-0.96-1.59H891.89z"/>
			<rect x="856.82" y="893.32" class="st7" width="58.39" height="7.21"/>
		</g>
	</g>
</g>
<g id="圖層_1">
</g>
<g id="圖層_2">
	<g>
		<g>
			<g>
				<path class="st25" d="M919.57,66h19.35c0,0,2.92,111.88,24.92,145.2v41.58h-50.33v-81.15L919.57,66z"/>
				<path class="st25" d="M1032.78,66h-19.35c0,0-2.92,111.88-24.92,145.2v41.58h50.33v-81.15L1032.78,66z"/>
				<path class="st26" d="M874.86,66c0,11.46,0,98.17,0,112.09c0,13.92,9.89,52.48,30.11,72.34l39.67,5.54l12.58-13.36
					c0,0-32.03-27.62-41.18-62.49C906.9,145.23,894.41,66,894.41,66H874.86z"/>
				<path class="st26" d="M1077.48,66c0,11.46,0,98.17,0,112.09c0,13.92-9.89,52.48-30.11,72.34l-39.67,5.54l-12.58-13.36
					c0,0,32.03-27.62,41.18-62.49S1057.93,66,1057.93,66H1077.48z"/>
				<polygon class="st26" points="986.33,66 976.17,66 966.01,66 951.5,252.78 976.17,252.78 1000.85,252.78 				"/>
			</g>
			<path class="st27" d="M1163.38,451.07c0.19-7.57,0.29-14.58,0.29-20.93h-0.29V396.3c0-86.24-83.56-156.18-186.79-156.55v-0.01
				c-0.14,0-0.27,0-0.41,0c-0.14,0-0.27,0-0.41,0v0.01c-103.24,0.37-186.79,70.31-186.79,156.55v33.84h-0.29
				c0,6.35,0.1,13.36,0.29,20.93c-0.67,0.05-0.67,274.94-0.99,275.73c4.13,65.53,54.61,103.65,110.26,128.41c0,0,5.5,2.45,5.5,2.45
				l40.36,17.96c3.71,1.65,6.95,3.97,9.47,6.78c5.54,6.17,13.76,9.35,22.07,9.58V892c0.18,0,0.35-0.01,0.53-0.01
				c0.18,0,0.35,0.01,0.53,0.01v-0.02c8.31-0.22,16.53-3.41,22.07-9.58c2.53-2.81,5.76-5.12,9.47-6.78l40.36-17.96
				c0,0,5.5-2.45,5.5-2.45c55.65-24.76,106.13-62.88,110.26-128.41C1164.05,726.01,1164.05,451.12,1163.38,451.07z"/>
		</g>
		<g>
			<polygon class="st28" points="976.17,346.34 785.96,521.22 785.96,639.32 976.17,806.82 1166.38,639.32 1166.38,521.22 			"/>
		</g>
		<g>
			<path class="st4" d="M956.96,413.72c0,2.46-0.24,4.92-0.49,7.38h11.79c1.34,0.34,2.07,1.12,2.07,2.24
				c-0.24,13.75-4.26,26.27-11.79,37.45c-0.73,1.45-1.46,2.79-2.07,3.91c3.65,3.35,7.9,6.71,13.01,10.06
				c1.34,0.78,2.07,1.45,2.07,1.9c0,0.67-0.73,1.01-2.07,1.01c-4.62-2.24-9.12-5.03-13.25-8.38c-0.61-0.45-1.09-0.78-1.46-1.01
				c-4.26,9.17-6.93,18.11-8.15,26.61c-0.61,5.14-0.85,10.73-0.85,16.99c0,1.34-0.24,2.12-0.73,2.12c-0.49,0-0.73-0.67-0.85-1.9
				c-0.73-5.81-1.09-11.4-1.09-17.22c0.73-9.39,3.4-19.34,8.02-29.74c-2.8-2.35-5.11-4.81-7.05-7.49c-1.34-1.34-2.07-3.02-2.19-4.81
				c0-1.34,0.24-2.68,0.97-4.02c3.89-9.17,6.81-17.22,9-23.92h-9.48c-2.19,0-3.28-0.67-3.28-2.01c0-1.12,1.22-1.79,3.77-1.79h10.09
				c0.73-2.8,1.46-5.37,1.95-7.6c0-0.67,0.24-1.12,0.97-1.45C956.35,412.04,956.72,412.6,956.96,413.72z M955.5,456.08
				c6.08-9.95,10.21-20.12,12.4-30.41c-0.36-0.45-0.97-0.78-1.82-0.78h-10.21c-1.46,7.49-4.13,15.65-8.02,24.59
				c-0.61,1.12-0.97,2.12-1.09,3.02c0,0.89,0.24,1.45,0.73,1.9c1.34,2.24,3.16,4.47,5.47,6.82
				C953.68,459.55,954.53,457.87,955.5,456.08z M1005.72,413.94c2.55,0.67,3.89,1.68,3.89,3.02c0,1.23-1.46,2.46-4.26,3.58
				c-3.89,2.35-7.9,4.81-12.28,7.49c-0.36,0.45-0.73,0.78-0.97,0.89c0.97,2.24,2.07,4.25,3.28,6.04h16.05
				c1.95,0.22,3.04,0.78,3.04,1.79c0,1.34-0.85,1.9-2.55,1.9h-14.1c5.59,9.73,8.39,18.67,8.39,26.83c0,18.44-6.08,33.87-18.24,46.39
				c-0.97,0.67-1.7,1.12-2.31,1.12s-0.85-0.34-0.85-0.89c10.94-14.42,16.41-29.85,16.41-46.39c0-8.05-2.07-15.87-5.96-23.25
				c-0.85-1.34-1.58-2.57-2.07-3.8h-18.36c-1.7,0-2.55-0.56-2.55-1.9c0-1.01,1.09-1.56,3.53-1.79h15.68
				c-1.82-4.02-2.8-7.94-2.92-11.51c0-1.23,0.24-1.9,0.73-1.9c0.36,0,0.61,0.45,0.61,1.23c0.36,1.56,0.85,3.02,1.46,4.36
				c2.31-2.68,5.96-5.7,11.06-9.05c0-0.45-0.85-0.89-2.43-1.23c-2.19-0.11-4.26-0.22-6.2-0.22c-3.16,0-6.08,0.22-9,0.67
				c-3.89,0.78-6.93,1.45-8.88,2.01c-1.46,0-2.19-0.45-2.19-1.34c0-1.12,0.85-2.01,2.55-2.79c2.55-0.78,5.35-1.45,8.51-1.9
				c2.92-0.34,6.2-0.56,9.85-0.56C999.76,412.82,1003.53,413.27,1005.72,413.94z"/>
			<path class="st4" d="M959.03,547.86c0-0.67,0.12-1.34,0.12-1.79c0.24-1.34,0.73-2.01,1.22-2.01c0.24,0,0.49,0.67,0.85,1.79
				c0,0.67,0.12,1.34,0.24,2.01h14.83c1.95,0.22,2.92,0.78,2.92,1.79c0,1.12-0.85,1.68-2.43,1.68H961.7c0,0.67,0.12,1.23,0.12,1.9
				c0.49,0.22,1.09,0.45,1.82,0.78c3.41,2.24,6.2,5.92,8.27,11.07c1.82,4.36,3.53,10.84,5.23,19.56c0.36,7.6,0.85,13.86,1.58,18.78
				c1.22,8.05,2.8,14.2,4.86,18.56c0,0.56-0.24,0.89-0.61,0.89c-0.97,0-1.58-0.45-1.82-1.12c-2.19-2.91-4.13-7.71-5.84-14.53
				c-1.22-4.81-2.19-12.3-2.8-22.58c-0.73-8.27-2.19-14.98-4.13-20.23c-1.95-4.47-4.01-7.6-6.44-9.61
				c0.61,8.5,0.97,18.89,0.97,31.19c0,22.47-0.49,35.21-1.22,38.34c-0.36,1.34-0.73,2.12-1.09,2.12c-0.36-0.22-0.73-1.01-0.97-2.35
				c-0.97-5.03-1.46-17.66-1.46-38.12c0.12-13.19,0.36-23.59,0.61-31.3c-2.19,2.12-3.89,5.14-5.23,9.17
				c-1.7,5.03-2.92,11.51-3.41,19.34c-0.73,10.51-1.7,18.33-3.16,23.25c-1.95,7.04-4.13,11.96-6.57,14.98
				c-0.24,0.67-0.97,1.12-1.95,1.12c-0.49,0-0.61-0.34-0.61-0.89c2.43-4.47,4.26-10.84,5.71-19.12c0.73-4.92,1.34-11.4,1.82-19.34
				c1.34-8.27,2.8-14.42,4.38-18.67c1.7-4.92,4.01-8.38,6.93-10.62c0.85-0.34,1.58-0.56,2.07-0.78c0-0.56,0.12-1.12,0.12-1.79
				h-15.93c-1.7,0-2.43-0.56-2.43-1.68c0-1.01,1.09-1.56,3.41-1.79H959.03z M978.85,522.93c0,0.34-0.24,0.56-0.49,0.67
				c-3.16,4.81-7.3,7.15-12.52,7.15l-10.94,0.34c-6.69,0.45-9.97,1.79-9.97,4.25c0,1.34,1.22,3.35,3.65,5.81
				c0,0.67-0.24,0.89-0.49,0.89c-0.49,0-0.97-0.22-1.46-0.89c-3.4-2.46-5.11-4.58-5.11-6.48c0-4.58,4.38-6.93,13.38-7.15l11.67-0.34
				c4.38,0,8.15-1.56,11.31-4.92C978.48,522.26,978.85,522.48,978.85,522.93z M958.06,533.77l5.59,5.14
				c0.61,0.45,0.97,1.01,0.97,1.57c0,1.12-0.61,1.56-1.7,1.56c-0.73,0-1.34-0.22-1.95-0.89l-5.35-5.03
				c-0.85-0.56-1.22-1.12-1.22-1.56c0-0.89,0.49-1.45,1.7-1.68C956.6,532.88,957.2,533.21,958.06,533.77z M973.01,533.21l5.23,4.92
				c0.61,0.45,0.97,1.01,0.97,1.68c0,1.12-0.61,1.56-1.7,1.56c-0.73,0-1.34-0.22-1.95-0.89l-4.99-5.03
				c-0.85-0.56-1.22-1.12-1.22-1.56c0-0.89,0.49-1.34,1.7-1.57C971.55,532.32,972.16,532.65,973.01,533.21z M1007.3,526.17
				c0,0.22-0.36,0.56-0.85,1.01c-6.81,5.37-13.5,9.95-19.94,13.75c-0.73,0.56-1.22,0.78-1.58,0.78c-1.09-0.22-1.58-0.78-1.58-1.79
				c0-0.22,0.24-0.56,0.73-1.01c6.69-4.58,13.38-9.17,20.06-13.86c0.61-0.45,1.1-0.67,1.34-0.67
				C1006.69,524.38,1007.3,525.05,1007.3,526.17z M1010.34,540.48c0,0.22-0.36,0.67-0.97,1.12c-6.81,5.81-13.38,10.73-19.94,14.76
				c-0.73,0.56-1.22,0.78-1.46,0.78c-1.22-0.11-1.7-0.67-1.7-1.68c0-0.34,0.24-0.67,0.85-1.12c6.69-4.92,13.38-9.95,20.06-14.87
				c0.49-0.45,0.97-0.78,1.22-0.78C1009.61,538.69,1010.34,539.36,1010.34,540.48z M1013.01,558.48c0,0.22-0.36,0.45-1.1,0.67
				c-5.84,2.91-10.7,8.16-14.83,15.65c-3.16,7.38-4.99,17.22-5.59,29.29c0,7.71-0.49,13.75-1.46,18.44
				c-0.12,1.12-0.36,1.68-0.61,1.68c-0.37,0-0.61-0.45-0.73-1.12c-0.73-2.91-1.22-8.38-1.46-16.54c0-29.51,8.39-45.61,25.17-48.52
				C1012.77,558.03,1013.01,558.25,1013.01,558.48z"/>
			<path class="st4" d="M945.29,732.86c2.19-9.05,3.28-18.33,3.28-27.84c0-7.94-1.09-15.43-3.04-22.47c0-0.67,0.24-1.01,0.85-1.01
				c0.49,0,0.97,0.34,1.46,1.01c3.41,4.25,5.23,11.96,5.23,23.03c0,11.18-1.95,20.23-5.59,27.28h18.73
				c-3.16-7.83-4.74-17.89-4.74-29.96c0-8.61,1.58-15.32,4.74-20.23c0.24-0.67,0.73-1.01,1.34-1.01c0.49,0,0.85,0.34,0.85,1.01
				c-1.7,6.26-2.55,12.86-2.55,19.79c0,10.51,0.73,20.68,2.43,30.41h5.71c1.7,0,2.55,0.56,2.55,1.56c0,1.12-0.73,1.68-2.19,1.68
				h-33.19c-1.46,0-2.19-0.56-2.19-1.68c0-1.01,0.97-1.56,3.04-1.56H945.29z M969.48,636.83c1.95,0.22,2.92,0.78,2.92,1.79
				c0,1.23-0.85,1.79-2.43,1.79h-27.48c-1.7,0-2.43-0.56-2.43-1.79c0-1.01,1.09-1.57,3.41-1.79H969.48z M947.23,646.78
				c2.8-0.34,5.71-0.56,8.63-0.56c3.16,0,6.32,0.34,9.48,0.78c0.36-1.12,0.85-1.68,1.46-1.68c1.46,0,2.19,2.57,2.43,7.71v9.5
				c0,10.51-4.26,15.65-12.65,15.65c-8.75,0-13.01-5.37-13.01-16.1v-11.07c0-4.14,0.73-6.26,2.43-6.26
				C946.5,644.77,946.99,645.44,947.23,646.78z M955.74,649.47c-2.8,0-5.47,0.22-8.02,0.56c0,0.45,0.12,0.78,0.12,1.01v10.84
				c0,8.5,2.8,12.63,8.51,12.63c5.59,0,8.39-4.02,8.39-12.19v-9.28c0-1.12,0-2.01,0.12-2.91
				C961.7,649.69,958.66,649.47,955.74,649.47z M1011.19,636.61c1.82,0.22,2.8,0.78,2.8,1.68c0,1.12-0.85,1.68-2.31,1.68h-17.51
				c-1.09,2.91-2.92,5.48-5.59,7.71c2.07-0.11,4.01-0.22,5.96-0.22c4.38,0,8.75,0.34,13.13,0.78c0.36-1.23,0.85-1.9,1.58-1.9
				c1.34,0,2.07,2.57,2.31,7.49v38.68c0,17.66-3.04,28.62-8.88,32.87c0.73,3.58,2.8,7.27,6.2,11.07c-0.24,0.45-0.61,0.78-1.34,0.78
				c-0.61,0-1.34-0.45-2.07-1.23c-3.41-2.79-5.59-5.7-6.81-8.61c-1.22,0.22-2.31,0.45-3.53,0.45c-1.46,0-2.67-0.22-3.65-0.56
				c-1.22,3.13-3.28,6.15-5.96,8.83c-0.73,0.78-1.46,1.23-2.07,1.23c-0.73,0-1.22-0.34-1.34-0.78c2.8-3.8,4.62-7.6,5.35-11.18
				c-6.32-4.58-9.48-15.99-9.48-34.1v-39.24c0-4.02,0.73-6.04,2.43-6.04c0.49,0,0.97,0.78,1.22,2.24c1.09-0.11,2.19-0.22,3.16-0.34
				c2.31-2.68,3.89-5.37,4.62-7.94h-11.31c-1.46,0-2.19-0.56-2.19-1.68c0-0.89,0.97-1.45,3.16-1.68H1011.19z M994.29,650.92
				c-4.13,0-8.27,0.34-12.16,0.78v5.81h25.05v-5.81C1002.92,651.25,998.67,650.92,994.29,650.92z M982.13,660.98v6.93h25.05v-6.93
				H982.13z M982.13,671.49v19.56c0,21.91,4.26,32.87,12.89,32.87c8.02,0,12.16-10.51,12.16-31.64v-20.79H982.13z"/>
		</g>
	</g>
	<g>
		<path class="st20" d="M346.21,18v114.96c0,18.29,4.73,36.38,13.69,52.33l10.11,18.01V18.49h43.71v211.29v83.3l10.11-18.01
			c8.95-15.95,13.69-34.04,13.69-52.33v-12.96V18h43.71v211.77v12.96c0,25.77-6.67,51.26-19.28,73.73L437,360.91h-66.98v-68.33
			l-35.27-62.81l-12.96-23.08c-12.62-22.47-19.28-47.96-19.28-73.73V18H346.21z"/>
		<polygon class="st21" points="437,360.91 413.73,402.35 413.73,440.57 370.01,440.57 370.01,360.91 		"/>
		<path class="st22" d="M358.22,846.3c7.24-25.52,11.79-51.73,11.79-78.26V514.4v-73.83h43.71v73.83v253.64
			c0,26.53,4.55,52.74,11.79,78.26c0.86,3.04,1.32,6.24,1.32,9.55c0,11.04-5.12,20.88-13.11,27.29V885h-2.53h-38.66h-2.53v-1.85
			c-7.99-6.41-13.11-16.25-13.11-27.29C356.9,852.54,357.36,849.34,358.22,846.3z"/>
		<g>
			<path class="st23" d="M370.01,885v-1.85c-7.99-6.41-13.11-16.25-13.11-27.29c0-3.31,0.46-6.52,1.32-9.55
				c7.24-25.52,11.79-51.73,11.79-78.26"/>
			<path class="st23" d="M380.94,885v-1.85c-4-6.41-6.56-16.25-6.56-27.29c0-3.31,0.23-6.52,0.66-9.55
				c3.62-25.52,5.9-51.73,5.9-78.26"/>
			<path class="st23" d="M391.87,885v-1.85c0-6.41,0-16.25,0-27.29c0-3.31,0-6.52,0-9.55c0-25.52,0-51.73,0-78.26"/>
			<path class="st23" d="M402.8,885v-1.85c4-6.41,6.56-16.25,6.56-27.29c0-3.31-0.23-6.52-0.66-9.55
				c-3.62-25.52-5.9-51.73-5.9-78.26"/>
			<path class="st23" d="M413.73,885v-1.85c7.99-6.41,13.11-16.25,13.11-27.29c0-3.31-0.46-6.52-1.32-9.55
				c-7.24-25.52-11.79-51.73-11.79-78.26"/>
		</g>
	</g>
	<g>
		<path class="st20" d="M562.21,18v114.96c0,18.29,4.73,36.38,13.69,52.33l10.11,18.01V18.49h43.71v211.29v83.3l10.11-18.01
			c8.95-15.95,13.69-34.04,13.69-52.33v-12.96V18h43.71v211.77v12.96c0,25.77-6.67,51.26-19.28,73.73L653,360.91h-66.98v-68.33
			l-35.27-62.81l-12.96-23.08c-12.62-22.47-19.28-47.96-19.28-73.73V18H562.21z"/>
		<polygon class="st21" points="653,360.91 629.73,402.35 629.73,440.57 586.01,440.57 586.01,360.91 		"/>
		<path class="st22" d="M574.22,846.3c7.24-25.52,11.79-51.73,11.79-78.26V514.4v-73.83h43.71v73.83v253.64
			c0,26.53,4.55,52.74,11.79,78.26c0.86,3.04,1.32,6.24,1.32,9.55c0,11.04-5.12,20.88-13.11,27.29V885h-2.53h-38.66h-2.53v-1.85
			c-7.99-6.41-13.11-16.25-13.11-27.29C572.9,852.54,573.36,849.34,574.22,846.3z"/>
		<g>
			<path class="st23" d="M586.01,885v-1.85c-7.99-6.41-13.11-16.25-13.11-27.29c0-3.31,0.46-6.52,1.32-9.55
				c7.24-25.52,11.79-51.73,11.79-78.26"/>
			<path class="st23" d="M596.94,885v-1.85c-4-6.41-6.56-16.25-6.56-27.29c0-3.31,0.23-6.52,0.66-9.55
				c3.62-25.52,5.9-51.73,5.9-78.26"/>
			<path class="st23" d="M607.87,885v-1.85c0-6.41,0-16.25,0-27.29c0-3.31,0-6.52,0-9.55c0-25.52,0-51.73,0-78.26"/>
			<path class="st23" d="M618.8,885v-1.85c4-6.41,6.56-16.25,6.56-27.29c0-3.31-0.23-6.52-0.66-9.55
				c-3.62-25.52-5.9-51.73-5.9-78.26"/>
			<path class="st23" d="M629.73,885v-1.85c7.99-6.41,13.11-16.25,13.11-27.29c0-3.31-0.46-6.52-1.32-9.55
				c-7.24-25.52-11.79-51.73-11.79-78.26"/>
		</g>
	</g>
	<g>
		<path class="st24" d="M532.26,773.8L532.26,773.8L532.26,773.8c22.86-16.17,13.25-52.06-14.64-54.63h0l0,0
			c9.52-20.67-6.04-41.89-25.86-42.83v0h0c-0.87-0.04-1.75-0.04-2.64,0h-11.89c-2.97-16.37-17.86-25.63-32.31-24.47h-32.44v3.31
			c-5.12-2.72-10.79-3.76-16.33-3.31h-35.18v24.94c-22.79-4.25-43.18,19.39-32.61,42.36l0,0h0c-27.89,2.57-37.5,38.46-14.64,54.63h0
			l0,0c-22.86,16.17-13.25,52.06,14.64,54.63h0l0,0c-10.58,22.97,9.82,46.62,32.61,42.36v25.01h36.26
			c5.19,0.24,10.47-0.84,15.25-3.38v3.38h33.54c14.1,0.62,28.32-8.58,31.21-24.54h11.89c0.89,0.04,1.77,0.04,2.64,0h0v0
			c19.82-0.94,35.38-22.16,25.86-42.83l0,0h0C545.5,825.86,555.12,789.97,532.26,773.8z"/>
		<g>
			<path class="st24" d="M387.04,664.53L387.04,664.53c16.17-22.86,52.06-13.25,54.63,14.64l0,0h0
				c25.44-11.71,51.71,14.56,39.99,39.99l0,0l0,0c27.89,2.57,37.5,38.46,14.64,54.63l0,0l0,0c22.86,16.17,13.25,52.06-14.64,54.63h0
				l0,0c11.71,25.44-14.56,51.71-39.99,39.99l0,0l0,0c-2.57,27.89-38.46,37.5-54.63,14.64l0,0l0,0
				c-16.17,22.86-52.06,13.25-54.63-14.64v0l0,0c-25.44,11.71-51.71-14.56-39.99-39.99l0,0h0c-27.89-2.57-37.5-38.46-14.64-54.63
				l0,0l0,0c-22.86-16.17-13.25-52.06,14.64-54.63l0,0l0,0c-11.71-25.44,14.56-51.71,39.99-39.99h0v0
				C334.98,651.28,370.87,641.67,387.04,664.53L387.04,664.53z"/>
			<path class="st24" d="M487.55,764.2c-12.27-8.28-28.3-12.96-45.31-13.27c11.81-12.25,19.83-26.89,22.65-41.42
				c0.74-3.79-0.45-7.67-3.17-10.39c-2.72-2.72-6.61-3.91-10.39-3.17c-14.53,2.82-29.18,10.85-41.42,22.65
				c-0.31-17.01-4.99-33.04-13.27-45.31c-2.16-3.2-5.74-5.11-9.59-5.11c-3.85,0-7.44,1.91-9.59,5.11
				c-8.28,12.27-12.96,28.3-13.27,45.31c-12.25-11.81-26.89-19.83-41.42-22.65c-3.79-0.74-7.67,0.45-10.39,3.17
				c-2.72,2.72-3.91,6.61-3.17,10.39c2.82,14.53,10.85,29.18,22.65,41.42c-17.01,0.31-33.04,4.99-45.31,13.27
				c-3.2,2.16-5.11,5.74-5.11,9.59c0,3.85,1.91,7.44,5.11,9.59c12.27,8.28,28.3,12.96,45.31,13.27
				c-11.81,12.25-19.83,26.89-22.65,41.42c-0.74,3.79,0.45,7.67,3.17,10.39c2.19,2.19,5.13,3.39,8.17,3.39
				c0.74,0,1.48-0.07,2.22-0.21c14.53-2.82,29.18-10.85,41.42-22.65c0.31,17.01,4.99,33.04,13.27,45.31
				c2.16,3.2,5.74,5.11,9.59,5.11c3.85,0,7.44-1.91,9.59-5.11c8.28-12.27,12.96-28.3,13.27-45.31
				c12.25,11.81,26.89,19.83,41.42,22.65c0.74,0.14,1.48,0.21,2.22,0.21c3.04,0,5.98-1.2,8.17-3.39c2.72-2.72,3.91-6.61,3.17-10.39
				c-2.82-14.53-10.85-29.18-22.65-41.42c17.01-0.31,33.04-4.99,45.31-13.27c3.2-2.16,5.11-5.74,5.11-9.59
				C492.66,769.95,490.75,766.36,487.55,764.2z M417.36,728.61c10.44-10.44,22.88-17.61,35.15-20.28
				c-2.67,12.27-9.84,24.71-20.28,35.15c-3.49,3.49-7.25,6.65-11.18,9.4c-6.34,1.32-12.37,3.28-17.92,5.84
				c-0.33-0.35-0.66-0.68-1.01-1.01c2.56-5.55,4.53-11.57,5.84-17.92C410.72,735.86,413.87,732.1,417.36,728.61z M387.04,681.21
				c6.79,10.57,10.51,24.43,10.51,39.19c0,5.37-0.5,10.61-1.45,15.62c-0.02,0.11-0.04,0.21-0.06,0.32
				c-1.09,5.61-2.76,10.92-4.96,15.77c-1.31-0.24-2.66-0.38-4.05-0.38c-1.38,0-2.73,0.13-4.05,0.38c-2.2-4.85-3.87-10.16-4.96-15.77
				c-0.02-0.11-0.03-0.22-0.06-0.32c-0.95-5.01-1.45-10.25-1.45-15.62C376.53,705.64,380.25,691.78,387.04,681.21z M321.57,708.33
				c12.27,2.67,24.71,9.84,35.15,20.28c3.49,3.49,6.65,7.25,9.4,11.18c1.32,6.34,3.28,12.37,5.84,17.92
				c-0.35,0.33-0.68,0.66-1.01,1.01c-5.55-2.56-11.57-4.53-17.92-5.84c-3.93-2.75-7.69-5.9-11.18-9.4
				C331.41,733.03,324.24,720.6,321.57,708.33z M294.46,773.8c10.57-6.79,24.43-10.51,39.19-10.51c5.34,0,10.55,0.49,15.54,1.44
				c0.18,0.04,0.37,0.07,0.55,0.1c5.55,1.09,10.81,2.75,15.62,4.93c-0.24,1.31-0.38,2.66-0.38,4.05c0,1.38,0.13,2.73,0.38,4.05
				c-4.85,2.2-10.16,3.87-15.77,4.96c-0.11,0.02-0.21,0.03-0.32,0.06c-5.01,0.95-10.26,1.45-15.62,1.45
				C318.88,784.31,305.02,780.58,294.46,773.8z M356.72,818.98c-10.44,10.44-22.88,17.61-35.15,20.28
				c2.67-12.27,9.84-24.71,20.28-35.15c3.49-3.49,7.25-6.65,11.18-9.4c6.34-1.32,12.37-3.28,17.92-5.84
				c0.33,0.35,0.66,0.68,1.01,1.01c-2.56,5.55-4.53,11.57-5.84,17.92C363.37,811.73,360.21,815.49,356.72,818.98z M387.04,866.38
				c-6.79-10.57-10.51-24.43-10.51-39.19c0-5.37,0.5-10.61,1.45-15.62c0.02-0.11,0.04-0.21,0.06-0.32
				c1.09-5.61,2.76-10.92,4.96-15.77c1.31,0.24,2.66,0.38,4.05,0.38s2.73-0.13,4.05-0.38c2.2,4.85,3.87,10.16,4.96,15.77
				c0.02,0.11,0.03,0.22,0.06,0.32c0.95,5.01,1.45,10.25,1.45,15.62C397.55,841.95,393.83,855.82,387.04,866.38z M452.51,839.26
				c-12.27-2.67-24.71-9.84-35.15-20.28c-3.49-3.49-6.65-7.25-9.4-11.18c-1.32-6.34-3.28-12.37-5.84-17.92
				c0.35-0.33,0.68-0.66,1.01-1.01c5.55,2.56,11.57,4.53,17.92,5.84c3.93,2.75,7.69,5.9,11.18,9.4
				C442.67,814.56,449.84,826.99,452.51,839.26z M440.43,784.31c-5.37,0-10.61-0.5-15.62-1.45c-0.11-0.02-0.21-0.04-0.32-0.06
				c-5.61-1.09-10.92-2.76-15.77-4.96c0.24-1.31,0.38-2.66,0.38-4.05c0-1.38-0.13-2.74-0.38-4.05c4.81-2.18,10.07-3.84,15.62-4.93
				c0.19-0.02,0.37-0.06,0.55-0.1c4.99-0.94,10.2-1.44,15.54-1.44c14.77,0,28.63,3.73,39.19,10.51
				C469.06,780.58,455.2,784.31,440.43,784.31z"/>
		</g>
		<line class="st24" x1="517.4" y1="719.23" x2="481.45" y2="719.23"/>
		<line class="st24" x1="532.42" y1="773.96" x2="496.47" y2="773.96"/>
		<line class="st24" x1="517.4" y1="828.69" x2="481.45" y2="828.69"/>
		<line class="st24" x1="491.76" y1="676.33" x2="453.1" y2="676.33"/>
		<line class="st24" x1="491.76" y1="871.26" x2="453.1" y2="871.26"/>
	</g>
	<g>
		<path class="st11" d="M831.93,772.82l-59.29-92.15c-12.25-19.04-40.04-19.04-52.3,0l-58.81,91.4l85.86,64.8L831.93,772.82z"/>
		<defs>
			<filter id="Adobe_OpacityMaskFilter" filterUnits="userSpaceOnUse" x="663.79" y="628.27" width="152.11" height="327.16">
				<feColorMatrix  type="matrix" values="1 0 0 0 0  0 1 0 0 0  0 0 1 0 0  0 0 0 1 0"/>
			</filter>
		</defs>
		<mask maskUnits="userSpaceOnUse" x="663.79" y="628.27" width="152.11" height="327.16" id="mask0_452_5915_1_">
			<path class="st12" d="M831.94,772.82l-59.29-92.15c-12.25-19.04-40.04-19.04-52.3,0l-58.81,91.4l85.86,64.8L831.94,772.82z"/>
		</mask>
		<g class="st30">
			<path class="st31" d="M665.26,629.74v324.21"/>
			<path class="st31" d="M683.9,629.74v324.21"/>
			<path class="st31" d="M702.55,629.74v324.21"/>
			<path class="st31" d="M721.2,629.74v324.21"/>
			<path class="st31" d="M739.84,629.74v324.21"/>
			<path class="st31" d="M758.49,629.74v324.21"/>
			<path class="st31" d="M777.14,629.74v324.21"/>
			<path class="st31" d="M795.78,629.74v324.21"/>
			<path class="st31" d="M814.43,629.74v324.21"/>
		</g>
		<path class="st31" d="M831.93,772.82l-59.29-92.15c-12.25-19.04-40.04-19.04-52.3,0l-58.81,91.4l85.86,64.8L831.93,772.82z"/>
		<path class="st11" d="M748.18,827.14l-85.86-64.8l-0.67,1.03l-54.69,85.01c-13.35,20.74,1.51,48.06,26.15,48.06h23.61h90.55h92.72
			L748.18,827.14z"/>
		<defs>
			
				<filter id="Adobe_OpacityMaskFilter_00000064331538168929893430000011766679020649769913_" filterUnits="userSpaceOnUse" x="520.07" y="690.62" width="373.42" height="347.76">
				<feColorMatrix  type="matrix" values="1 0 0 0 0  0 1 0 0 0  0 0 1 0 0  0 0 0 1 0"/>
			</filter>
		</defs>
		<mask maskUnits="userSpaceOnUse" x="520.07" y="690.62" width="373.42" height="347.76" id="mask1_452_5915_1_">
			<path style="fill:#FFFFFF;filter:url(#Adobe_OpacityMaskFilter_00000064331538168929893430000011766679020649769913_);" d="
				M748.18,827.14l-85.86-64.8l-0.67,1.03l-54.69,85.01c-13.35,20.74,1.51,48.06,26.15,48.06h23.61h90.55h92.72L748.18,827.14z"/>
		</mask>
		<g class="st33">
			<path class="st31" d="M521.54,840.94l257.75,195.97"/>
			<path class="st31" d="M527.17,833.49l257.76,195.97"/>
			<path class="st31" d="M532.81,826.05l257.75,195.97"/>
			<path class="st31" d="M544.08,811.17l257.75,195.97"/>
			<path class="st31" d="M555.36,796.29l257.75,195.97"/>
			<path class="st31" d="M566.63,781.4l257.75,195.97"/>
			<path class="st31" d="M577.9,766.52l257.75,195.97"/>
			<path class="st31" d="M589.17,751.64l257.75,195.97"/>
			<path class="st31" d="M600.43,736.75l257.76,195.97"/>
			<path class="st31" d="M611.7,721.87l257.76,195.97"/>
			<path class="st31" d="M617.35,714.43L875.1,910.4"/>
			<path class="st31" d="M622.98,706.98l257.76,195.97"/>
			<path class="st31" d="M628.62,699.53l257.75,195.98"/>
			<path class="st31" d="M634.25,692.09l257.76,195.97"/>
		</g>
		<path class="st31" d="M748.18,827.14l-85.86-64.8l-0.67,1.03l-54.69,85.01c-13.35,20.74,1.51,48.06,26.15,48.06h23.61h90.55h92.72
			L748.18,827.14z"/>
		<path class="st17" d="M884.09,845.66l-54.69-85.01l-0.19-0.3l-84.52,64.07l91.82,69.3h21.44
			C882.58,893.72,897.44,866.4,884.09,845.66z"/>
		<defs>
			
				<filter id="Adobe_OpacityMaskFilter_00000132049918791255682060000002782832546582039949_" filterUnits="userSpaceOnUse" x="587.19" y="697.43" width="373.43" height="347.7">
				<feColorMatrix  type="matrix" values="1 0 0 0 0  0 1 0 0 0  0 0 1 0 0  0 0 0 1 0"/>
			</filter>
		</defs>
		<mask maskUnits="userSpaceOnUse" x="587.19" y="697.43" width="373.43" height="347.7" id="mask2_452_5915_1_">
			<path style="fill:#FFFFFF;filter:url(#Adobe_OpacityMaskFilter_00000132049918791255682060000002782832546582039949_);" d="
				M884.09,845.66l-54.69-85.01l-0.19-0.3l-84.52,64.07l91.82,69.3h21.44C882.58,893.72,897.44,866.4,884.09,845.66z"/>
		</mask>
		<g class="st35">
			<path class="st31" d="M846.49,698.9L588.66,894.78"/>
			<path class="st31" d="M852.12,706.35L594.29,902.22"/>
			<path class="st31" d="M857.76,713.79L599.92,909.66"/>
			<path class="st31" d="M863.39,721.23L605.56,917.12"/>
			<path class="st31" d="M869.02,728.68L611.19,924.55"/>
			<path class="st31" d="M880.29,743.57L622.45,939.45"/>
			<path class="st31" d="M891.55,758.46L633.73,954.33"/>
			<path class="st31" d="M902.83,773.35L644.98,969.22"/>
			<path class="st31" d="M914.08,788.23L656.26,984.11"/>
			<path class="st31" d="M925.34,803.13L667.52,999"/>
			<path class="st31" d="M936.62,818.02l-257.83,195.87"/>
			<path class="st31" d="M947.88,832.9l-257.83,195.88"/>
			<path class="st31" d="M953.52,840.35l-257.84,195.87"/>
			<path class="st31" d="M959.15,847.79l-257.83,195.87"/>
		</g>
		<path class="st31" d="M884.09,845.66l-54.69-85.01l-0.19-0.3l-84.52,64.07l91.82,69.3h21.44
			C882.58,893.72,897.44,866.4,884.09,845.66z"/>
	</g>
	<g>
		<path class="st36" d="M122.34,898.37c0.45,0.01,0.91,0.01,1.37,0.01v-0.03c7.64-0.17,14.29-1.01,18.52-1.69
			c3.05-0.49,6.17-0.41,9.19,0.28c32.03,7.27,74.55-13.27,74.55-52.51c0-41.04-24.17-52.43-38.76-67.02s-37.8-37.56-40.12-52.89
			c-2.28-15.05-1.82-19.15-1.82-33.74l-21.55,0"/>
		<path class="st36" d="M125.08,898.37c-0.45,0.01-0.91,0.01-1.37,0.01v-0.03c-7.64-0.17-14.29-1.01-18.52-1.69
			c-3.05-0.49-6.17-0.41-9.19,0.28c-32.03,7.28-74.55-13.27-74.55-52.51c0-41.04,24.16-52.43,38.75-67.03
			c14.59-14.59,37.8-37.56,40.12-52.89c2.28-15.05,1.82-19.15,1.82-33.74l21.55,0"/>
		<path class="st37" d="M139.48,690.77c0,23.71-1.52,50.15,20.37,75.69s48.33,52.89,48.33,81.16c0,28.27-26.77,49.85-34.36,49.85"/>
		<line class="st37" x1="123.71" y1="690.77" x2="123.71" y2="898.35"/>
		<path class="st37" d="M129.65,690.77c0,33.28-0.09,64.03,9.81,93.34c9.91,29.31,27.7,87.45-4.9,113.55"/>
		<path class="st37" d="M135.05,690.77c0,18.69-1.84,43.22,4.41,57.86c6.26,14.64,25.08,46.62,34.36,67.1
			c9.28,20.48,11.63,56.91-26.48,80.65"/>
		<path class="st37" d="M108.18,690.77c0,23.71,1.52,50.15-20.37,75.69c-21.89,25.53-48.33,52.89-48.33,81.16
			s26.78,49.85,34.36,49.85"/>
		<path class="st37" d="M118.01,690.77c0,33.28,0.09,64.03-9.81,93.34s-27.7,87.45,4.91,113.55"/>
		<path class="st37" d="M112.61,690.77c0,18.69,1.85,43.22-4.41,57.86s-25.08,46.62-34.36,67.1c-9.28,20.49-11.63,56.91,26.48,80.64
			"/>
	</g>
	<g>
		<path class="st36" d="M138,680.77c0.44-0.12,0.88-0.24,1.32-0.37l-0.01-0.03c7.3-2.28,13.45-4.93,17.33-6.75
			c2.8-1.32,5.82-2.1,8.91-2.27c32.79-1.87,67.97-33.37,57.11-71.08c-11.35-39.43-37.73-43.7-55.79-53.69s-46.72-25.64-53.19-39.73
			c-6.35-13.83-7.05-17.9-11.09-31.92l-20.71,5.96"/>
		<path class="st36" d="M140.63,680.02c-0.43,0.13-0.87,0.26-1.31,0.39l-0.01-0.03c-7.39,1.95-14.01,2.98-18.27,3.5
			c-3.07,0.37-6.04,1.32-8.75,2.81c-28.77,15.85-75.31,7.87-86.16-29.83c-11.35-39.43,8.72-57.07,18.7-75.13
			c9.98-18.06,25.93-46.55,23.93-61.93c-1.97-15.09-3.55-18.91-7.58-32.93l20.71-5.96"/>
		<path class="st37" d="M97.05,476.53c6.56,22.78,12.42,48.62,40.51,67.1s61.08,37.46,68.9,64.62
			c7.82,27.17-11.94,55.31-19.23,57.41"/>
		<line class="st37" x1="81.89" y1="480.9" x2="139.31" y2="680.37"/>
		<path class="st37" d="M87.6,479.25c9.21,31.99,17.62,61.56,35.25,86.98s50.81,76.37,26.7,110.47"/>
		<path class="st37" d="M92.78,477.76c5.17,17.96,10.19,42.05,20.25,54.38s37,37.86,51.58,54.98s26.92,51.47-3.13,84.82"/>
		<path class="st37" d="M66.97,485.19c6.56,22.78,15.33,47.78,1.36,78.37c-13.97,30.59-31.81,64.2-23.99,91.36
			s39.52,40.5,46.81,38.4"/>
		<path class="st37" d="M76.42,482.47c9.21,31.99,17.8,61.5,16.39,92.41s-2.43,91.7,36.13,107.76"/>
		<path class="st37" d="M71.23,483.96c5.17,17.96,13.73,41.03,11.77,56.82c-1.96,15.8-11.2,51.74-14.46,73.99
			s4.57,57.91,47.75,70.17"/>
	</g>
	<g>
		<path class="st36" d="M114.22,476.32c0.45,0.07,0.9,0.14,1.35,0.21l0-0.03c7.58,0.95,14.28,1.09,18.57,1.04
			c3.09-0.04,6.17,0.5,9.05,1.62c30.61,11.89,75.69-2.19,81.44-41c6.02-40.59-16.21-55.41-28.5-71.99
			c-12.29-16.57-31.88-42.7-31.93-58.2c-0.05-15.22,1.01-19.21,3.15-33.64l-21.32-3.16"/>
		<path class="st36" d="M116.93,476.72c-0.45-0.06-0.9-0.12-1.35-0.19l0-0.03c-7.53-1.29-13.99-3.1-18.07-4.39
			c-2.95-0.93-6.05-1.31-9.13-1.07c-32.75,2.5-71.8-24.06-66.04-62.87c6.02-40.59,31.6-48.32,48.17-60.61
			c16.57-12.29,42.9-31.61,47.45-46.43c4.46-14.55,4.61-18.68,6.75-33.11l21.32,3.16"/>
		<path class="st37" d="M161.63,273.48c-3.48,23.45-8.86,49.39,9.05,77.86s40.05,59.41,35.9,87.37
			c-4.15,27.96-33.8,45.38-41.3,44.27"/>
		<line class="st37" x1="146.03" y1="271.16" x2="115.58" y2="476.49"/>
		<path class="st37" d="M151.91,272.03c-4.88,32.92-9.49,63.32-3.99,93.77c5.5,30.45,14.57,90.56-21.51,111.6"/>
		<path class="st37" d="M157.25,272.83c-2.74,18.49-8.17,42.49-4.12,57.88s17.97,49.79,24.15,71.42c6.18,21.63,3.15,58-38.02,75.89"
			/>
		<path class="st37" d="M130.67,268.88c-3.48,23.45-5.86,49.83-31.25,71.88c-25.39,22.05-55.57,45.23-59.71,73.19
			s19.17,53.24,26.68,54.35"/>
		<path class="st37" d="M140.4,270.33c-4.88,32.92-9.3,63.35-23.4,90.89c-14.1,27.54-40.23,82.44-11.81,113.04"/>
		<path class="st37" d="M135.06,269.53c-2.74,18.49-4.52,43.03-12.85,56.59s-31.65,42.43-43.83,61.34s-19.85,54.59,14.36,83.66"/>
	</g>
</g>
<g id="圖層_4">
</g>
</svg>
