<?xml version="1.0" encoding="utf-8"?>
<!-- Generator: Adobe Illustrator 26.3.1, SVG Export Plug-In . SVG Version: 6.00 Build 0)  -->
<svg version="1.1" id="圖層_1" xmlns="http://www.w3.org/2000/svg" xmlns:xlink="http://www.w3.org/1999/xlink" x="0px" y="0px"
	 viewBox="0 0 4628.4 4628.4" style="enable-background:new 0 0 4628.4 4628.4;" xml:space="preserve">
<style type="text/css">
	.st0{fill:#431D31;stroke:#C39A6B;stroke-width:3;stroke-miterlimit:10;}
	.st1{fill:#ECEADE;stroke:#C39A6B;stroke-width:3;stroke-miterlimit:10;}
</style>
<g>
	<g>
		<line class="st0" x1="2912.7" y1="2623.2" x2="4988.2" y2="3575.2"/>
		<line class="st0" x1="2879.5" y1="2568.6" x2="4952.5" y2="3415.3"/>
		<line class="st0" x1="2846.2" y1="2514.1" x2="4953.5" y2="3256.3"/>
		<line class="st0" x1="2813" y1="2459.5" x2="4895.5" y2="3059.3"/>
		<line class="st0" x1="2779.7" y1="2404.9" x2="4895.5" y2="2860.3"/>
		<line class="st0" x1="2746.5" y1="2350.3" x2="4895.5" y2="2631.3"/>
		<line class="st0" x1="2713.2" y1="2295.7" x2="4895.5" y2="2366.3"/>
		<line class="st0" x1="2680" y1="2241.2" x2="4952.5" y2="2050.3"/>
		<line class="st0" x1="2646.7" y1="2186.6" x2="4953.5" y2="1671.3"/>
		<line class="st0" x1="2613.5" y1="2132" x2="4952.5" y2="1210.3"/>
		<line class="st0" x1="2580.2" y1="2077.4" x2="4988.5" y2="615.3"/>
		<line class="st0" x1="2547" y1="2022.8" x2="4895.5" y2="-46.7"/>
		<line class="st0" x1="2513.7" y1="1968.3" x2="4163.5" y2="-88.7"/>
		<line class="st0" x1="2480.5" y1="1913.7" x2="3595.5" y2="-46.7"/>
		<line class="st0" x1="2447.2" y1="1859.1" x2="3201.5" y2="-46.7"/>
		<line class="st0" x1="2414" y1="1804.5" x2="2900.5" y2="-46.7"/>
		<line class="st0" x1="2380.7" y1="1749.9" x2="2663.5" y2="-46.7"/>
		<line class="st0" x1="2347.5" y1="1695.4" x2="2474.5" y2="-88.7"/>
		<line class="st0" x1="2314.2" y1="1640.8" x2="2314.2" y2="-128.8"/>
	</g>
	<g>
		<line class="st0" x1="1715.3" y1="2623.2" x2="-360.2" y2="3575.2"/>
		<line class="st0" x1="1748.6" y1="2568.6" x2="-324.5" y2="3415.3"/>
		<line class="st0" x1="1781.8" y1="2514.1" x2="-325.5" y2="3256.3"/>
		<line class="st0" x1="1815.1" y1="2459.5" x2="-267.5" y2="3059.3"/>
		<line class="st0" x1="1848.3" y1="2404.9" x2="-267.5" y2="2860.3"/>
		<line class="st0" x1="1881.6" y1="2350.3" x2="-267.5" y2="2631.3"/>
		<line class="st0" x1="1914.8" y1="2295.7" x2="-267.5" y2="2366.3"/>
		<line class="st0" x1="1948.1" y1="2241.2" x2="-324.5" y2="2050.3"/>
		<line class="st0" x1="1981.3" y1="2186.6" x2="-325.5" y2="1671.3"/>
		<line class="st0" x1="2014.6" y1="2132" x2="-324.5" y2="1210.3"/>
		<line class="st0" x1="2047.8" y1="2077.4" x2="-360.5" y2="615.3"/>
		<line class="st0" x1="2081.1" y1="2022.8" x2="-267.5" y2="-46.7"/>
		<line class="st0" x1="2114.3" y1="1968.3" x2="464.5" y2="-88.7"/>
		<line class="st0" x1="2147.6" y1="1913.7" x2="1032.5" y2="-46.7"/>
		<line class="st0" x1="2180.8" y1="1859.1" x2="1426.5" y2="-46.7"/>
		<line class="st0" x1="2214.1" y1="1804.5" x2="1727.5" y2="-46.7"/>
		<line class="st0" x1="2247.3" y1="1749.9" x2="1964.5" y2="-46.7"/>
		<line class="st0" x1="2280.6" y1="1695.4" x2="2153.5" y2="-88.7"/>
	</g>
	<g>
		<line class="st0" x1="2580.2" y1="2551" x2="4988.5" y2="4013.1"/>
		<line class="st0" x1="2547" y1="2605.6" x2="4895.5" y2="4675.1"/>
		<line class="st0" x1="2513.7" y1="2660.2" x2="4163.5" y2="4717.1"/>
		<line class="st0" x1="2480.5" y1="2714.7" x2="3595.5" y2="4675.1"/>
		<line class="st0" x1="2447.2" y1="2769.3" x2="3201.5" y2="4675.1"/>
		<line class="st0" x1="2414" y1="2823.9" x2="2900.5" y2="4675.1"/>
		<line class="st0" x1="2380.7" y1="2878.5" x2="2663.5" y2="4675.1"/>
		<line class="st0" x1="2347.5" y1="2933.1" x2="2474.5" y2="4717.1"/>
		<line class="st0" x1="2314.2" y1="2987.7" x2="2314.2" y2="4757.2"/>
		<line class="st0" x1="2779.7" y1="2605.6" x2="5480.6" y2="4013.1"/>
	</g>
	<g>
		<line class="st0" x1="2048.2" y1="2551" x2="-360.1" y2="4013.1"/>
		<line class="st0" x1="2081.5" y1="2605.6" x2="-267.1" y2="4675.1"/>
		<line class="st0" x1="2114.7" y1="2660.2" x2="464.9" y2="4717.1"/>
		<line class="st0" x1="2148" y1="2714.7" x2="1032.9" y2="4675.1"/>
		<line class="st0" x1="2181.2" y1="2769.3" x2="1426.9" y2="4675.1"/>
		<line class="st0" x1="2214.5" y1="2823.9" x2="1727.9" y2="4675.1"/>
		<line class="st0" x1="2247.7" y1="2878.5" x2="1964.9" y2="4675.1"/>
		<line class="st0" x1="2281" y1="2933.1" x2="2153.9" y2="4717.1"/>
		<line class="st0" x1="1848.7" y1="2605.6" x2="-852.2" y2="4013.1"/>
	</g>
	<circle class="st1" cx="2314.2" cy="2314.2" r="673.4"/>
</g>
</svg>
