<svg width="478" height="467" viewBox="0 0 478 467" fill="none" xmlns="http://www.w3.org/2000/svg">
<path d="M465.45 69.5644H475.828V56.0312H1.74563V69.5644H12.1241L15.1435 74.3478C15.1435 74.3478 16.9184 77.0804 16.9184 80.7708C16.9184 84.4612 15.4141 87.3344 15.4141 87.3344L9.39694 93.8981L3.65577 105.656H1.74023V265.186C1.74023 265.186 3.37979 405.442 5.84184 429.229C8.30389 453.017 15.2734 472.291 15.2734 472.291H38.2381L46.0301 435.793C46.0301 435.793 36.1873 412.828 46.0301 384.94V331.9C50.267 336.002 55.1911 333.128 55.1911 333.128C58.8814 333.81 60.2504 329.162 60.2504 329.162C66.9494 327.934 64.3521 321.37 64.3521 321.37C72.2793 320.142 72.1441 310.705 72.1441 310.705C75.5639 313.026 78.9783 311.251 78.9783 311.251C88.4098 313.984 87.452 304.828 87.452 304.828C83.6264 304.828 82.6686 299.769 83.7617 294.85C84.8547 289.931 80.3419 282.957 80.3419 282.957C80.3419 282.957 85.5582 279.948 85.5582 273.249C85.5582 266.55 81.9814 263.953 81.9814 263.953C88.8157 263.953 89.1349 257.254 89.1349 257.254V185.865C90.1955 185.746 91.229 185.492 92.2246 185.097C114.978 175.968 133.176 182.905 139.945 186.314C141.601 187.148 143.468 187.591 145.335 187.591H172.607C175.285 187.591 177.926 186.677 180.052 185.01C182.969 182.727 187.59 180.005 193.055 180.005C199.348 180.005 206.123 183.625 209.602 185.779C211.518 186.964 213.715 187.591 215.955 187.591H261.608C263.848 187.591 266.045 186.964 267.961 185.779C271.44 183.62 278.22 180.005 284.508 180.005C289.979 180.005 294.6 182.727 297.511 185.01C299.632 186.677 302.278 187.591 304.957 187.591H332.229C334.101 187.591 335.962 187.148 337.618 186.314C344.382 182.905 362.579 175.968 385.339 185.097C386.329 185.497 387.368 185.746 388.428 185.865V257.254C388.428 257.254 388.747 263.953 395.582 263.953C395.582 263.953 392.005 266.55 392.005 273.249C392.005 279.948 397.221 282.957 397.221 282.957C397.221 282.957 392.708 289.926 393.801 294.85C394.895 299.769 393.937 304.828 390.111 304.828C390.111 304.828 389.153 313.989 398.585 311.251C398.585 311.251 402.005 313.026 405.419 310.705C405.419 310.705 405.284 320.136 413.211 321.37C413.211 321.37 410.614 327.934 417.313 329.162C417.313 329.162 418.682 333.81 422.372 333.128C422.372 333.128 427.291 336.002 431.533 331.9V384.94C441.376 412.828 431.533 435.793 431.533 435.793L439.325 472.291H462.29C462.29 472.291 469.259 453.017 471.721 429.229C474.183 405.442 475.823 265.186 475.823 265.186V105.656H473.907L468.166 93.8981L462.149 87.3344C462.149 87.3344 460.645 84.4612 460.645 80.7708C460.645 77.0804 462.42 74.3478 462.42 74.3478L465.439 69.5644H465.45Z" fill="#431D31" stroke="#BF9769" stroke-width="3" stroke-miterlimit="10"/>
<path d="M11.0419 67.6484L15.1435 74.3474H64.6984C68.2859 74.3474 71.1917 77.2531 71.1917 80.8407C71.1917 84.4283 68.2859 87.334 64.6984 87.334H15.4195L9.40234 93.8977H284.308" stroke="#BF9769" stroke-width="3" stroke-miterlimit="10"/>
<path d="M15.1436 74.3477C15.1436 74.3477 16.9184 77.0803 16.9184 80.7706C16.9184 84.461 15.4141 87.3343 15.4141 87.3343" stroke="#BF9769" stroke-width="3" stroke-miterlimit="10"/>
<path d="M9.40232 93.8965L3.66113 105.649H284.308" stroke="#BF9769" stroke-width="3" stroke-miterlimit="10"/>
<path d="M466.533 67.6484L462.431 74.3474H412.876C409.289 74.3474 406.383 77.2531 406.383 80.8407C406.383 84.4283 409.289 87.334 412.876 87.334H462.155L468.172 93.8977H193.267" stroke="#BF9769" stroke-width="3" stroke-miterlimit="10"/>
<path d="M462.43 74.3477C462.43 74.3477 460.655 77.0803 460.655 80.7706C460.655 84.461 462.16 87.3343 462.16 87.3343" stroke="#BF9769" stroke-width="3" stroke-miterlimit="10"/>
<path d="M468.172 93.8965L473.913 105.649H193.267" stroke="#BF9769" stroke-width="3" stroke-miterlimit="10"/>
<path d="M431.533 105.65H1.74609V265.18C1.74609 265.18 3.38567 405.436 5.84772 429.223C8.30977 453.011 15.2793 472.285 15.2793 472.285H38.244L46.0359 435.787C46.0359 435.787 36.1932 412.822 46.0359 384.934V140.92H431.533V384.934C441.376 412.822 431.533 435.787 431.533 435.787L439.325 472.285H462.29C462.29 472.285 469.26 453.011 471.722 429.223C474.184 405.436 475.823 265.18 475.823 265.18V105.65H431.533Z" stroke="#BF9769" stroke-width="3" stroke-miterlimit="10"/>
<path d="M241.658 187.591H215.96C213.72 187.591 211.523 186.963 209.608 185.778C206.128 183.619 199.348 180.004 193.061 180.004C187.59 180.004 182.969 182.726 180.058 185.01C177.937 186.676 175.291 187.591 172.612 187.591H145.34C143.468 187.591 141.606 187.147 139.951 186.314C133.187 182.905 114.989 175.968 92.2301 185.096C90.8178 185.664 89.3244 185.951 87.7876 185.951H45.9111V140.92H48.6167V183.246H87.7876C88.9781 183.246 90.1306 183.024 91.2183 182.585C114.995 173.046 134.063 180.324 141.163 183.9C142.445 184.544 143.89 184.885 145.335 184.885H172.607C174.679 184.885 176.735 184.171 178.386 182.878C181.638 180.329 186.822 177.293 193.061 177.293C200.025 177.293 207.308 181.168 211.036 183.473C212.524 184.393 214.223 184.88 215.96 184.88H241.658" stroke="#BF9769" stroke-width="3" stroke-miterlimit="10"/>
<path d="M45.916 305.581V186.033H89.1399V188.739H48.6216V305.581" stroke="#BF9769" stroke-width="3" stroke-miterlimit="10"/>
<path d="M89.14 188.738V257.254C89.14 257.254 88.8207 263.953 81.9865 263.953C81.9865 263.953 85.5633 266.55 85.5633 273.249C85.5633 279.948 80.3469 282.956 80.3469 282.956C80.3469 282.956 84.8598 289.926 83.7668 294.85C82.6737 299.774 83.6315 304.828 87.4571 304.828C87.4571 304.828 88.4149 313.989 78.9833 311.251C78.9833 311.251 75.5635 313.026 72.1491 310.704C72.1491 310.704 72.2844 320.136 64.3571 321.37C64.3571 321.37 66.9545 327.933 60.2555 329.162C60.2555 329.162 58.8865 333.81 55.1962 333.128C55.1962 333.128 50.2775 336.001 46.0352 331.9" stroke="#BF9769" stroke-width="3" stroke-miterlimit="10"/>
<path d="M48.6328 318.633L58.4756 327.247" stroke="#BF9769" stroke-width="3" stroke-miterlimit="10"/>
<path d="M48.6328 328.34L53.0104 331.754" stroke="#BF9769" stroke-width="3" stroke-miterlimit="10"/>
<path d="M61.8953 319.865L50.8242 310.975" stroke="#BF9769" stroke-width="3" stroke-miterlimit="10"/>
<path d="M74.8821 224.582C72.4417 226.709 70.0337 228.873 67.6529 231.07C64.4441 234.03 60.8457 236.941 58.3241 240.626C55.2885 245.063 55.0612 249.868 55.5645 255.079C55.9108 258.704 56.9226 262.638 59.7094 265.176" stroke="#BF9769" stroke-width="3" stroke-miterlimit="10"/>
<path d="M69.6875 277.621C69.6875 277.621 76.7977 283.498 77.7555 285.689C78.7132 287.881 78.9838 296.49 70.51 298.811" stroke="#BF9769" stroke-width="3" stroke-miterlimit="10"/>
<path d="M66.9541 305.582C66.9541 305.582 72.9712 310.025 79.2589 303.461" stroke="#BF9769" stroke-width="3" stroke-miterlimit="10"/>
<path d="M81.8522 304.416C81.8522 304.416 81.0297 308.788 79.2549 309.335" stroke="#BF9769" stroke-width="3" stroke-miterlimit="10"/>
<path d="M59.9795 270.516C59.9795 270.516 64.3517 274.341 65.7207 277.626C67.0897 280.91 62.4416 287.88 57.9287 288.973" stroke="#BF9769" stroke-width="3" stroke-miterlimit="10"/>
<path d="M53.5566 277.074C53.5566 277.074 55.3315 282.134 60.1203 281.176" stroke="#BF9769" stroke-width="3" stroke-miterlimit="10"/>
<path d="M54.2656 196.795C54.2656 196.795 55.5535 202.114 61.944 204.863C68.3345 207.612 76.4024 212.07 76.4024 215.847" stroke="#BF9769" stroke-width="3" stroke-miterlimit="10"/>
<path d="M72.6305 234.895C72.6305 234.895 67.4791 241.074 70.742 246.739C74.0049 252.405 80.5253 251.371 80.5253 251.371" stroke="#BF9769" stroke-width="3" stroke-miterlimit="10"/>
<path d="M60.1152 250.17C60.1152 250.17 62.8479 259.78 71.2567 257.892" stroke="#BF9769" stroke-width="3" stroke-miterlimit="10"/>
<path d="M76.4083 267.334C76.4083 267.334 72.0632 271.284 75.0934 276.257" stroke="#BF9769" stroke-width="3" stroke-miterlimit="10"/>
<path d="M66.9553 213.271C66.9553 213.271 68.2323 221.853 56.3604 231.464C56.3604 231.464 63.0214 224.597 71.2625 222.368" stroke="#BF9769" stroke-width="3" stroke-miterlimit="10"/>
<path d="M74.8818 200.572C74.8818 200.572 81.9 205.724 80.5256 213.272" stroke="#BF9769" stroke-width="3" stroke-miterlimit="10"/>
<path d="M61.9492 194.053C61.9492 194.053 67.3062 202.819 73.9564 206.325" stroke="#BF9769" stroke-width="3" stroke-miterlimit="10"/>
<path d="M77.793 233.179C77.793 233.179 84.6488 229.402 84.9897 237.984" stroke="#BF9769" stroke-width="3" stroke-miterlimit="10"/>
<path d="M61.9502 157.663C61.9502 157.663 56.1441 158.832 56.8367 164.254C57.5293 169.676 68.871 170.363 75.2128 154.914" stroke="#BF9769" stroke-width="3" stroke-miterlimit="10"/>
<path d="M65.9973 170.021C65.9973 170.021 64.7366 177.229 71.2624 178.257C76.4137 179.632 78.4699 171.737 76.4137 170.021" stroke="#BF9769" stroke-width="3" stroke-miterlimit="10"/>
<path d="M80.5254 164.252C80.5254 164.252 90.8227 173.608 101.807 174.219" stroke="#BF9769" stroke-width="3" stroke-miterlimit="10"/>
<path d="M92.8848 152.518C92.8848 152.518 97.6898 162.609 103.182 164.26" stroke="#BF9769" stroke-width="3" stroke-miterlimit="10"/>
<path d="M106.271 154.918C106.271 154.918 108.333 143.419 120.687 152.515" stroke="#BF9769" stroke-width="3" stroke-miterlimit="10"/>
<path d="M116.056 170.021C116.056 170.021 122.749 168.279 125.839 161.342" stroke="#BF9769" stroke-width="3" stroke-miterlimit="10"/>
<path d="M143.788 154.92C139.594 145.651 133.047 151.966 133.047 151.966" stroke="#BF9769" stroke-width="3" stroke-miterlimit="10"/>
<path d="M125.838 172.423C125.838 172.423 134.517 168.446 138.419 164.252" stroke="#BF9769" stroke-width="3" stroke-miterlimit="10"/>
<path d="M193.267 152.516C193.267 152.516 184.538 146.407 178.873 158.388" stroke="#BF9769" stroke-width="3" stroke-miterlimit="10"/>
<path d="M159.306 161.342C159.306 161.342 148.371 160.85 146.855 174.221" stroke="#BF9769" stroke-width="3" stroke-miterlimit="10"/>
<path d="M210.278 164.252C210.278 164.252 219.033 171.736 231.901 170.02" stroke="#BF9769" stroke-width="3" stroke-miterlimit="10"/>
<path d="M221.089 149.016C221.089 149.016 218 163.295 231.901 164.259" stroke="#BF9769" stroke-width="3" stroke-miterlimit="10"/>
<path d="M238.785 145.137C238.785 145.137 230.733 152.312 238.785 161.338" stroke="#BF9769" stroke-width="3" stroke-miterlimit="10"/>
<path d="M202.043 152.518L210.279 158.389L215.43 153.237" stroke="#BF9769" stroke-width="3" stroke-miterlimit="10"/>
<path d="M226.35 178.42L235.208 181.694" stroke="#BF9769" stroke-width="3" stroke-miterlimit="10"/>
<path d="M208.737 174.221C208.737 174.221 199.424 167.614 193.267 170.277" stroke="#BF9769" stroke-width="3" stroke-miterlimit="10"/>
<path d="M160.962 150.958C160.962 150.958 169.658 154.416 172.174 158.388C172.174 158.388 174.349 151.337 178.867 149.865" stroke="#BF9769" stroke-width="3" stroke-miterlimit="10"/>
<path d="M154.556 172.423C154.556 172.423 170.118 167.25 177.212 178.418" stroke="#BF9769" stroke-width="3" stroke-miterlimit="10"/>
<path d="M149.977 156.635C149.977 156.635 141.438 174.253 132.126 176.315" stroke="#BF9769" stroke-width="3" stroke-miterlimit="10"/>
<path d="M57.929 211.557C57.929 211.557 55.007 217.855 58.4756 222.368" stroke="#BF9769" stroke-width="3" stroke-miterlimit="10"/>
<path d="M235.792 187.591H261.489C263.729 187.591 265.926 186.963 267.842 185.778C271.321 183.619 278.101 180.004 284.389 180.004C289.86 180.004 294.481 182.726 297.392 185.01C299.513 186.676 302.159 187.591 304.838 187.591H332.11C333.982 187.591 335.843 187.147 337.499 186.314C344.263 182.905 362.46 175.968 385.22 185.096C386.632 185.664 388.125 185.951 389.662 185.951H431.539V140.92H428.833V183.246H389.662C388.472 183.246 387.319 183.024 386.231 182.585C362.455 173.046 343.386 180.324 336.287 183.9C335.004 184.544 333.56 184.885 332.115 184.885H304.843C302.771 184.885 300.714 184.171 299.064 182.878C295.812 180.329 290.628 177.293 284.389 177.293C277.425 177.293 270.142 181.168 266.413 183.473C264.925 184.393 263.226 184.88 261.489 184.88H235.792" stroke="#BF9769" stroke-width="3" stroke-miterlimit="10"/>
<path d="M431.538 305.581V186.033H388.309V188.739H428.832V305.581" stroke="#BF9769" stroke-width="3" stroke-miterlimit="10"/>
<path d="M388.309 188.738V257.254C388.309 257.254 388.628 263.953 395.462 263.953C395.462 263.953 391.885 266.55 391.885 273.249C391.885 279.948 397.102 282.956 397.102 282.956C397.102 282.956 392.589 289.926 393.682 294.85C394.775 299.769 393.817 304.828 389.991 304.828C389.991 304.828 389.034 313.989 398.465 311.251C398.465 311.251 401.885 313.026 405.299 310.704C405.299 310.704 405.164 320.136 413.091 321.37C413.091 321.37 410.494 327.933 417.193 329.162C417.193 329.162 418.562 333.81 422.252 333.128C422.252 333.128 427.171 336.001 431.413 331.9" stroke="#BF9769" stroke-width="3" stroke-miterlimit="10"/>
<path d="M428.817 318.633L418.975 327.247" stroke="#BF9769" stroke-width="3" stroke-miterlimit="10"/>
<path d="M428.816 328.34L424.444 331.754" stroke="#BF9769" stroke-width="3" stroke-miterlimit="10"/>
<path d="M415.56 319.865L426.631 310.975" stroke="#BF9769" stroke-width="3" stroke-miterlimit="10"/>
<path d="M402.572 224.582C405.013 226.709 407.421 228.873 409.801 231.07C413.01 234.03 416.609 236.941 419.13 240.626C422.166 245.063 422.393 249.868 421.89 255.079C421.544 258.704 420.532 262.638 417.745 265.176" stroke="#BF9769" stroke-width="3" stroke-miterlimit="10"/>
<path d="M407.768 277.621C407.768 277.621 400.658 283.498 399.7 285.689C398.743 287.875 398.472 296.49 406.946 298.811" stroke="#BF9769" stroke-width="3" stroke-miterlimit="10"/>
<path d="M410.5 305.582C410.5 305.582 404.483 310.025 398.195 303.461" stroke="#BF9769" stroke-width="3" stroke-miterlimit="10"/>
<path d="M395.599 304.416C395.599 304.416 396.421 308.788 398.196 309.335" stroke="#BF9769" stroke-width="3" stroke-miterlimit="10"/>
<path d="M417.47 270.516C417.47 270.516 413.098 274.341 411.729 277.626C410.36 280.905 415.008 287.88 419.521 288.973" stroke="#BF9769" stroke-width="3" stroke-miterlimit="10"/>
<path d="M423.899 277.074C423.899 277.074 422.124 282.134 417.335 281.176" stroke="#BF9769" stroke-width="3" stroke-miterlimit="10"/>
<path d="M423.184 196.795C423.184 196.795 421.896 202.114 415.505 204.863C409.109 207.606 401.047 212.07 401.047 215.847" stroke="#BF9769" stroke-width="3" stroke-miterlimit="10"/>
<path d="M404.819 234.895C404.819 234.895 409.97 241.074 406.707 246.739C403.444 252.405 396.924 251.371 396.924 251.371" stroke="#BF9769" stroke-width="3" stroke-miterlimit="10"/>
<path d="M417.335 250.17C417.335 250.17 414.602 259.78 406.193 257.892" stroke="#BF9769" stroke-width="3" stroke-miterlimit="10"/>
<path d="M401.041 267.334C401.041 267.334 405.386 271.284 402.356 276.257" stroke="#BF9769" stroke-width="3" stroke-miterlimit="10"/>
<path d="M410.501 213.271C410.501 213.271 409.224 221.853 421.095 231.464C421.095 231.464 414.434 224.597 406.193 222.368" stroke="#BF9769" stroke-width="3" stroke-miterlimit="10"/>
<path d="M402.572 200.572C402.572 200.572 395.554 205.724 396.928 213.272" stroke="#BF9769" stroke-width="3" stroke-miterlimit="10"/>
<path d="M415.505 194.053C415.505 194.053 410.148 202.819 403.498 206.325" stroke="#BF9769" stroke-width="3" stroke-miterlimit="10"/>
<path d="M399.656 233.179C399.656 233.179 392.8 229.402 392.459 237.984" stroke="#BF9769" stroke-width="3" stroke-miterlimit="10"/>
<path d="M415.506 157.663C415.506 157.663 421.312 158.832 420.619 164.254C419.927 169.676 408.585 170.363 402.243 154.914" stroke="#BF9769" stroke-width="3" stroke-miterlimit="10"/>
<path d="M411.453 170.021C411.453 170.021 412.714 177.229 406.188 178.257C401.037 179.632 398.981 171.737 401.037 170.021" stroke="#BF9769" stroke-width="3" stroke-miterlimit="10"/>
<path d="M396.923 164.252C396.923 164.252 386.626 173.608 375.642 174.219" stroke="#BF9769" stroke-width="3" stroke-miterlimit="10"/>
<path d="M384.565 152.518C384.565 152.518 379.76 162.609 374.268 164.26" stroke="#BF9769" stroke-width="3" stroke-miterlimit="10"/>
<path d="M371.178 154.918C371.178 154.918 369.116 143.419 356.763 152.515" stroke="#BF9769" stroke-width="3" stroke-miterlimit="10"/>
<path d="M361.395 170.021C361.395 170.021 354.701 168.279 351.611 161.342" stroke="#BF9769" stroke-width="3" stroke-miterlimit="10"/>
<path d="M333.668 154.92C337.862 145.651 344.409 151.966 344.409 151.966" stroke="#BF9769" stroke-width="3" stroke-miterlimit="10"/>
<path d="M351.617 172.423C351.617 172.423 342.938 168.446 339.036 164.252" stroke="#BF9769" stroke-width="3" stroke-miterlimit="10"/>
<path d="M284.188 152.516C284.188 152.516 292.917 146.407 298.582 158.388" stroke="#BF9769" stroke-width="3" stroke-miterlimit="10"/>
<path d="M318.149 161.342C318.149 161.342 329.085 160.85 330.6 174.221" stroke="#BF9769" stroke-width="3" stroke-miterlimit="10"/>
<path d="M267.171 164.252C267.171 164.252 258.415 171.736 245.548 170.02" stroke="#BF9769" stroke-width="3" stroke-miterlimit="10"/>
<path d="M256.359 149.016C256.359 149.016 259.449 163.295 245.548 164.259" stroke="#BF9769" stroke-width="3" stroke-miterlimit="10"/>
<path d="M238.666 145.137C238.666 145.137 246.718 152.312 238.666 161.338" stroke="#BF9769" stroke-width="3" stroke-miterlimit="10"/>
<path d="M275.412 152.518L267.171 158.389L262.025 153.237" stroke="#BF9769" stroke-width="3" stroke-miterlimit="10"/>
<path d="M251.099 178.42L242.241 181.694" stroke="#BF9769" stroke-width="3" stroke-miterlimit="10"/>
<path d="M268.719 174.221C268.719 174.221 278.031 167.614 284.189 170.277" stroke="#BF9769" stroke-width="3" stroke-miterlimit="10"/>
<path d="M316.487 150.958C316.487 150.958 307.792 154.416 305.276 158.388C305.276 158.388 303.1 151.337 298.582 149.865" stroke="#BF9769" stroke-width="3" stroke-miterlimit="10"/>
<path d="M322.895 172.423C322.895 172.423 307.332 167.25 300.238 178.418" stroke="#BF9769" stroke-width="3" stroke-miterlimit="10"/>
<path d="M327.473 156.635C327.473 156.635 336.011 174.253 345.324 176.315" stroke="#BF9769" stroke-width="3" stroke-miterlimit="10"/>
<path d="M419.521 211.557C419.521 211.557 422.443 217.855 418.975 222.368" stroke="#BF9769" stroke-width="3" stroke-miterlimit="10"/>
<path d="M284.308 56.0312H193.267H1.74609V69.5644H193.267H284.308H475.829V56.0312H284.308Z" stroke="#BF9769" stroke-width="3" stroke-miterlimit="10"/>
<path d="M419.798 34.7215C412.868 37.332 405.938 37.332 399.008 34.7215C401.66 25.778 401.66 17.4139 396.567 9.84005C405.125 5.86582 413.682 5.86582 422.245 9.84005C417.153 17.4139 417.153 25.778 419.804 34.7215H419.798Z" fill="#E4007E" stroke="#BF9769" stroke-width="3" stroke-miterlimit="10"/>
<path d="M409.807 11.7364C431.657 11.7364 450.252 9.47707 457.229 6.31641H362.386C369.363 9.47707 387.958 11.7364 409.807 11.7364Z" fill="#E4007E" stroke="#BF9769" stroke-width="3" stroke-miterlimit="10"/>
<path d="M459.839 2.03125H359.775C358.593 2.03125 357.633 2.99117 357.633 4.1735C357.633 5.35582 358.593 6.31571 359.775 6.31571H459.839C461.022 6.31571 461.981 5.35582 461.981 4.1735C461.981 2.99117 461.022 2.03125 459.839 2.03125Z" fill="#E4007E" stroke="#BF9769" stroke-width="3" stroke-miterlimit="10"/>
<path d="M398.236 29.7578H419.453C428.795 29.7578 436.38 37.3434 436.38 46.6849V57.4838H381.309V46.6849C381.309 37.3434 388.894 29.7578 398.236 29.7578Z" fill="#E4007E" stroke="#BF9769" stroke-width="3" stroke-miterlimit="10"/>
<path d="M436.386 50.9337H381.314C380.829 50.9337 380.437 50.5415 380.437 50.0557C380.437 49.5699 380.829 49.1777 381.314 49.1777H436.386C436.872 49.1777 437.264 49.5699 437.264 50.0557C437.264 50.5415 436.872 50.9337 436.386 50.9337Z" fill="#E4007E" stroke="#BF9769" stroke-width="3" stroke-miterlimit="10"/>
<path d="M77.7534 34.7215C70.8233 37.332 63.8933 37.332 56.9632 34.7215C59.6147 25.778 59.6146 17.4139 54.5225 9.84005C63.0797 5.86582 71.6369 5.86582 80.1999 9.84005C75.1077 17.4139 75.1078 25.778 77.7592 34.7215H77.7534Z" fill="#E4007E" stroke="#BF9769" stroke-width="3" stroke-miterlimit="10"/>
<path d="M67.7624 11.7364C89.612 11.7364 108.207 9.47707 115.184 6.31641H20.3408C27.3177 9.47707 45.9129 11.7364 67.7624 11.7364Z" fill="#E4007E" stroke="#BF9769" stroke-width="3" stroke-miterlimit="10"/>
<path d="M117.794 2.03125H17.7301C16.5478 2.03125 15.5879 2.99117 15.5879 4.1735C15.5879 5.35582 16.5478 6.31571 17.7301 6.31571H117.794C118.977 6.31571 119.937 5.35582 119.937 4.1735C119.937 2.99117 118.977 2.03125 117.794 2.03125Z" fill="#E4007E" stroke="#BF9769" stroke-width="3" stroke-miterlimit="10"/>
<path d="M56.1908 29.7578H77.4082C86.7497 29.7578 94.3353 37.3434 94.3353 46.6849V57.4838H39.2637V46.6849C39.2637 37.3434 46.8493 29.7578 56.1908 29.7578Z" fill="#E4007E" stroke="#BF9769" stroke-width="3" stroke-miterlimit="10"/>
<path d="M94.3411 50.9337H39.2696C38.7838 50.9337 38.3916 50.5415 38.3916 50.0557C38.3916 49.5699 38.7838 49.1777 39.2696 49.1777H94.3411C94.827 49.1777 95.2191 49.5699 95.2191 50.0557C95.2191 50.5415 94.827 50.9337 94.3411 50.9337Z" fill="#E4007E" stroke="#BF9769" stroke-width="3" stroke-miterlimit="10"/>
<path d="M248.776 34.7215C241.846 37.332 234.916 37.332 227.986 34.7215C230.637 25.778 230.637 17.4139 225.545 9.84005C234.102 5.86582 242.659 5.86582 251.222 9.84005C246.13 17.4139 246.13 25.778 248.782 34.7215H248.776Z" fill="#E4007E" stroke="#BF9769" stroke-width="3" stroke-miterlimit="10"/>
<path d="M238.785 11.7364C260.634 11.7364 279.23 9.47707 286.207 6.31641H191.363C198.34 9.47707 216.935 11.7364 238.785 11.7364Z" fill="#E4007E" stroke="#BF9769" stroke-width="3" stroke-miterlimit="10"/>
<path d="M288.817 2.03125H188.753C187.57 2.03125 186.61 2.99117 186.61 4.1735C186.61 5.35582 187.57 6.31571 188.753 6.31571H288.817C289.999 6.31571 290.959 5.35582 290.959 4.1735C290.959 2.99117 289.999 2.03125 288.817 2.03125Z" fill="#E4007E" stroke="#BF9769" stroke-width="3" stroke-miterlimit="10"/>
<path d="M227.213 29.7578H248.431C257.772 29.7578 265.358 37.3434 265.358 46.6849V57.4838H210.286V46.6849C210.286 37.3434 217.872 29.7578 227.213 29.7578Z" fill="#E4007E" stroke="#BF9769" stroke-width="3" stroke-miterlimit="10"/>
<path d="M265.364 50.9337H210.292C209.806 50.9337 209.414 50.5415 209.414 50.0557C209.414 49.5699 209.806 49.1777 210.292 49.1777H265.364C265.849 49.1777 266.242 49.5699 266.242 50.0557C266.242 50.5415 265.849 50.9337 265.364 50.9337Z" fill="#F4E62A" stroke="#BF9769" stroke-width="3" stroke-miterlimit="10"/>
</svg>
