<svg width="780" height="746" viewBox="0 0 780 746" fill="none" xmlns="http://www.w3.org/2000/svg">
<path d="M777.905 693.401V680.396H757.828C757.828 680.396 765.654 658.765 768.412 632.074C771.171 605.382 773.016 346.848 773.016 346.848V167.833H770.867L764.424 154.643L757.676 147.281C757.676 147.281 755.989 144.059 755.989 139.918C755.989 135.777 757.981 132.708 757.981 132.708L761.268 127.336H773.016V112.148H6.78204V127.336H18.5303L21.8179 132.708C21.8179 132.708 23.809 135.777 23.809 139.918C23.809 144.059 22.1222 147.281 22.1222 147.281L15.3749 154.643L8.93192 167.833H6.78204V346.848C6.78204 346.848 8.62101 605.382 11.3861 632.074C14.1445 658.765 21.9701 680.396 21.9701 680.396H1.89355V693.401H5.67071V732.026H1.89355V745.031H72.2837V732.026H66.6345V693.401H72.2837V680.396H47.7421L56.4871 639.443C56.4871 639.443 45.44 613.671 56.4871 582.382V496.36C61.2433 500.964 66.7668 497.743 66.7668 497.743C70.9078 498.51 72.4424 493.298 72.4424 493.298C79.9571 491.915 77.0465 484.553 77.0465 484.553C85.9437 483.17 85.7915 472.586 85.7915 472.586C89.6282 475.192 93.4583 473.201 93.4583 473.201C104.042 476.271 102.971 465.991 102.971 465.991C98.6775 465.991 97.5993 460.315 98.8297 454.792C100.053 449.268 94.993 441.449 94.993 441.449C94.993 441.449 100.847 438.076 100.847 430.561C100.847 423.046 96.8319 420.129 96.8319 420.129C104.499 420.129 104.856 412.615 104.856 412.615V258.049L103.341 257.956C105.068 257.956 106.741 257.632 108.322 256.997C133.856 246.75 154.277 254.536 161.864 258.366C163.723 259.306 165.813 259.795 167.917 259.795H198.518C201.521 259.795 204.491 258.77 206.872 256.898C210.14 254.338 215.326 251.282 221.465 251.282C228.523 251.282 236.13 255.343 240.033 257.758C242.183 259.087 244.644 259.788 247.158 259.788H315.338C317.065 259.788 318.738 259.464 320.319 258.829C345.853 248.583 366.274 256.368 373.861 260.199C375.72 261.138 377.81 261.627 379.907 261.627H399.878C401.975 261.627 404.065 261.131 405.924 260.199C413.518 256.375 433.932 248.589 459.472 258.829C461.053 259.464 462.734 259.788 464.453 259.788H532.634C535.148 259.788 537.615 259.087 539.759 257.758C543.661 255.337 551.269 251.282 558.327 251.282C564.466 251.282 569.652 254.338 572.919 256.898C575.301 258.763 578.271 259.795 581.274 259.795H611.875C613.972 259.795 616.062 259.299 617.928 258.366C625.522 254.543 645.936 246.757 671.47 256.997C673.051 257.632 674.731 257.956 676.451 257.956L674.936 258.049V412.615C674.936 412.615 675.293 420.129 682.96 420.129C682.96 420.129 678.945 423.046 678.945 430.561C678.945 438.076 684.799 441.449 684.799 441.449C684.799 441.449 679.738 449.275 680.962 454.792C682.193 460.315 681.114 465.991 676.821 465.991C676.821 465.991 675.75 476.271 686.333 473.201C686.333 473.201 690.17 475.192 694 472.586C694 472.586 693.848 483.17 702.745 484.553C702.745 484.553 699.828 491.915 707.349 493.298C707.349 493.298 708.884 498.51 713.025 497.743C713.025 497.743 718.549 500.964 723.305 496.36V582.382C734.352 613.677 723.305 639.443 723.305 639.443L732.05 680.396H707.508V693.401H713.157V732.026H707.508V745.031H777.898V732.026H774.121V693.401H777.898H777.905Z" fill="#431D31" stroke="#BF9769" stroke-width="3" stroke-miterlimit="10"/>
<path d="M17.214 125.195L21.818 132.71H77.4236C81.4455 132.71 84.7067 135.971 84.7067 139.993C84.7067 144.015 81.4455 147.276 77.4236 147.276H22.1223L15.375 154.639" stroke="#BF9769" stroke-width="3" stroke-miterlimit="10"/>
<path d="M21.8115 132.715C21.8115 132.715 23.8026 135.784 23.8026 139.925C23.8026 144.066 22.1158 147.288 22.1158 147.288" stroke="#BF9769" stroke-width="3" stroke-miterlimit="10"/>
<path d="M15.3678 154.65L8.9248 167.841" stroke="#BF9769" stroke-width="3" stroke-miterlimit="10"/>
<path d="M485.753 112.156H6.78125V127.344H485.753" stroke="#BF9769" stroke-width="3" stroke-miterlimit="10"/>
<path d="M485.753 167.842H6.78125V346.857C6.78125 346.857 8.62021 605.391 11.3853 632.082C14.1437 658.774 21.9693 680.405 21.9693 680.405H47.7413L56.4863 639.451C56.4863 639.451 45.4393 613.679 56.4863 582.39V207.433H485.76" stroke="#BF9769" stroke-width="3" stroke-miterlimit="10"/>
<path d="M275.985 259.782H247.151C244.637 259.782 242.17 259.08 240.026 257.751C236.124 255.33 228.516 251.275 221.458 251.275C215.319 251.275 210.133 254.331 206.865 256.891C204.484 258.756 201.514 259.788 198.511 259.788H167.91C165.813 259.788 163.722 259.292 161.864 258.359C154.27 254.536 133.856 246.75 108.322 256.99C106.741 257.625 105.061 257.949 103.341 257.949H56.3545V207.424H59.3908V254.913H103.341C104.677 254.913 105.974 254.662 107.191 254.172C133.876 243.469 155.268 251.632 163.233 255.647C164.668 256.368 166.289 256.752 167.916 256.752H198.517C200.846 256.752 203.148 255.951 205 254.503C208.645 251.645 214.466 248.238 221.465 248.238C229.277 248.238 237.453 252.584 241.634 255.171C243.301 256.203 245.213 256.752 247.164 256.752H275.999" stroke="#BF9769" stroke-width="3" stroke-miterlimit="10"/>
<path d="M56.3418 392.183V258.037H104.85V261.073H59.3781V392.183" stroke="#BF9769" stroke-width="3" stroke-miterlimit="10"/>
<path d="M104.849 261.072V412.602C104.849 412.602 104.492 420.116 96.8253 420.116C96.8253 420.116 100.841 423.034 100.841 430.548C100.841 438.063 94.9863 441.437 94.9863 441.437C94.9863 441.437 100.047 449.262 98.823 454.779C97.5992 460.296 98.6709 465.978 102.964 465.978C102.964 465.978 104.036 476.258 93.4517 473.189C93.4517 473.189 89.615 475.18 85.7849 472.573C85.7849 472.573 85.937 483.157 77.0399 484.54C77.0399 484.54 79.9571 491.902 72.4358 493.285C72.4358 493.285 70.9011 498.498 66.7602 497.73C66.7602 497.73 61.2366 500.952 56.4805 496.348" stroke="#BF9769" stroke-width="3" stroke-miterlimit="10"/>
<path d="M59.3975 481.479L70.4379 491.136" stroke="#BF9769" stroke-width="3" stroke-miterlimit="10"/>
<path d="M59.3975 492.367L64.3058 496.204" stroke="#BF9769" stroke-width="3" stroke-miterlimit="10"/>
<path d="M74.2755 482.854L61.8525 472.885" stroke="#BF9769" stroke-width="3" stroke-miterlimit="10"/>
<path d="M88.8475 375.941C86.1089 378.329 83.4034 380.757 80.7375 383.225C77.1323 386.545 73.1038 389.813 70.2726 393.947C66.8659 398.928 66.6145 404.313 67.1702 410.167C67.5604 414.236 68.6916 418.648 71.8205 421.499" stroke="#BF9769" stroke-width="3" stroke-miterlimit="10"/>
<path d="M83.0195 435.457C83.0195 435.457 90.9972 442.052 92.0688 444.506C93.1405 446.96 93.4514 456.625 83.939 459.231" stroke="#BF9769" stroke-width="3" stroke-miterlimit="10"/>
<path d="M79.9502 466.826C79.9502 466.826 86.6975 471.814 93.7557 464.451" stroke="#BF9769" stroke-width="3" stroke-miterlimit="10"/>
<path d="M96.6662 465.523C96.6662 465.523 95.7468 470.432 93.749 471.047" stroke="#BF9769" stroke-width="3" stroke-miterlimit="10"/>
<path d="M72.1253 427.479C72.1253 427.479 77.0336 431.772 78.5683 435.456C80.1029 439.141 74.8837 446.96 69.8232 448.19" stroke="#BF9769" stroke-width="3" stroke-miterlimit="10"/>
<path d="M64.915 434.844C64.915 434.844 66.9061 440.519 72.2775 439.448" stroke="#BF9769" stroke-width="3" stroke-miterlimit="10"/>
<path d="M65.7148 270.115C65.7148 270.115 67.1569 276.089 74.3342 279.165C81.5114 282.247 90.5608 287.255 90.5608 291.488" stroke="#BF9769" stroke-width="3" stroke-miterlimit="10"/>
<path d="M86.3211 387.512C86.3211 387.512 80.5462 394.444 84.2043 400.801C87.8624 407.158 95.1786 406.001 95.1786 406.001" stroke="#BF9769" stroke-width="3" stroke-miterlimit="10"/>
<path d="M72.2764 404.65C72.2764 404.65 75.3391 415.433 84.7787 413.316" stroke="#BF9769" stroke-width="3" stroke-miterlimit="10"/>
<path d="M90.56 423.914C90.56 423.914 85.6848 428.346 89.0849 433.929" stroke="#BF9769" stroke-width="3" stroke-miterlimit="10"/>
<path d="M79.9496 288.605C79.9496 288.605 81.3851 298.237 68.0625 309.019C68.0625 309.019 75.5374 301.313 84.7852 298.812" stroke="#BF9769" stroke-width="3" stroke-miterlimit="10"/>
<path d="M88.8477 274.35C88.8477 274.35 96.7261 280.124 95.1848 288.598" stroke="#BF9769" stroke-width="3" stroke-miterlimit="10"/>
<path d="M74.334 267.031C74.334 267.031 80.347 276.868 87.8021 280.804" stroke="#BF9769" stroke-width="3" stroke-miterlimit="10"/>
<path d="M92.1152 310.943C92.1152 310.943 99.8085 306.703 100.192 316.335" stroke="#BF9769" stroke-width="3" stroke-miterlimit="10"/>
<path d="M74.3343 226.206C74.3343 226.206 67.8251 227.515 68.5991 233.601C69.373 239.687 82.1069 240.454 89.2246 223.123" stroke="#BF9769" stroke-width="3" stroke-miterlimit="10"/>
<path d="M78.8786 240.07C78.8786 240.07 77.463 248.16 84.7858 249.311C90.5607 250.853 92.8759 241.995 90.5607 240.07" stroke="#BF9769" stroke-width="3" stroke-miterlimit="10"/>
<path d="M95.1846 233.602C95.1846 233.602 106.741 244.1 119.065 244.781" stroke="#BF9769" stroke-width="3" stroke-miterlimit="10"/>
<path d="M109.05 220.424C109.05 220.424 114.441 231.749 120.606 233.601" stroke="#BF9769" stroke-width="3" stroke-miterlimit="10"/>
<path d="M124.072 223.122C124.072 223.122 126.381 210.216 140.253 220.423" stroke="#BF9769" stroke-width="3" stroke-miterlimit="10"/>
<path d="M135.046 240.07C135.046 240.07 142.554 238.112 146.02 230.326" stroke="#BF9769" stroke-width="3" stroke-miterlimit="10"/>
<path d="M166.164 223.124C161.461 212.725 154.111 219.81 154.111 219.81" stroke="#BF9769" stroke-width="3" stroke-miterlimit="10"/>
<path d="M146.027 242.77C146.027 242.77 155.765 238.305 160.144 233.602" stroke="#BF9769" stroke-width="3" stroke-miterlimit="10"/>
<path d="M221.689 220.425C221.689 220.425 211.892 213.571 205.535 227.013" stroke="#BF9769" stroke-width="3" stroke-miterlimit="10"/>
<path d="M183.58 230.327C183.58 230.327 171.309 229.778 169.609 244.781" stroke="#BF9769" stroke-width="3" stroke-miterlimit="10"/>
<path d="M240.78 233.602C240.78 233.602 250.604 241.996 265.044 240.071" stroke="#BF9769" stroke-width="3" stroke-miterlimit="10"/>
<path d="M252.912 216.494C252.912 216.494 249.446 232.522 265.044 233.601" stroke="#BF9769" stroke-width="3" stroke-miterlimit="10"/>
<path d="M272.764 212.141C272.764 212.141 263.728 220.191 272.764 230.325" stroke="#BF9769" stroke-width="3" stroke-miterlimit="10"/>
<path d="M231.532 220.424L240.78 227.012L246.555 221.237" stroke="#BF9769" stroke-width="3" stroke-miterlimit="10"/>
<path d="M258.812 249.496L268.755 253.167" stroke="#BF9769" stroke-width="3" stroke-miterlimit="10"/>
<path d="M239.048 244.78C239.048 244.78 228.596 237.371 221.69 240.355" stroke="#BF9769" stroke-width="3" stroke-miterlimit="10"/>
<path d="M185.439 218.679C185.439 218.679 195.197 222.562 198.021 227.014C198.021 227.014 200.462 219.102 205.529 217.455" stroke="#BF9769" stroke-width="3" stroke-miterlimit="10"/>
<path d="M178.249 242.769C178.249 242.769 195.713 236.961 203.67 249.497" stroke="#BF9769" stroke-width="3" stroke-miterlimit="10"/>
<path d="M173.116 225.047C173.116 225.047 163.537 244.819 153.079 247.128" stroke="#BF9769" stroke-width="3" stroke-miterlimit="10"/>
<path d="M69.823 286.68C69.823 286.68 66.5486 293.751 70.4382 298.812" stroke="#BF9769" stroke-width="3" stroke-miterlimit="10"/>
<path d="M271.381 256.747H315.331C316.667 256.747 317.964 256.495 319.181 256.006C345.866 245.303 367.259 253.466 375.223 257.481C376.658 258.202 378.279 258.586 379.906 258.586H399.249" stroke="#BF9769" stroke-width="3" stroke-miterlimit="10"/>
<path d="M399.249 261.622H379.907C377.81 261.622 375.72 261.126 373.861 260.193C366.267 256.369 345.853 248.584 320.319 258.824C318.738 259.459 317.058 259.783 315.338 259.783H268.352" stroke="#BF9769" stroke-width="3" stroke-miterlimit="10"/>
<path d="M307.188 235.439C307.188 235.439 318.745 245.937 331.069 246.619" stroke="#BF9769" stroke-width="3" stroke-miterlimit="10"/>
<path d="M321.054 222.27C321.054 222.27 326.445 233.594 332.61 235.447" stroke="#BF9769" stroke-width="3" stroke-miterlimit="10"/>
<path d="M336.076 224.96C336.076 224.96 338.385 212.054 352.256 222.261" stroke="#BF9769" stroke-width="3" stroke-miterlimit="10"/>
<path d="M347.05 241.908C347.05 241.908 354.558 239.95 358.024 232.164" stroke="#BF9769" stroke-width="3" stroke-miterlimit="10"/>
<path d="M358.031 244.608C358.031 244.608 367.768 240.143 372.148 235.439" stroke="#BF9769" stroke-width="3" stroke-miterlimit="10"/>
<path d="M433.687 222.27C433.687 222.27 423.89 215.417 417.533 228.859" stroke="#BF9769" stroke-width="3" stroke-miterlimit="10"/>
<path d="M395.585 232.171C395.585 232.171 383.314 231.621 381.614 246.624" stroke="#BF9769" stroke-width="3" stroke-miterlimit="10"/>
<path d="M452.784 235.439C452.784 235.439 462.607 243.834 477.048 241.909" stroke="#BF9769" stroke-width="3" stroke-miterlimit="10"/>
<path d="M464.916 218.34C464.916 218.34 461.45 234.368 477.048 235.446" stroke="#BF9769" stroke-width="3" stroke-miterlimit="10"/>
<path d="M484.767 213.986C484.767 213.986 475.731 222.037 484.767 232.171" stroke="#BF9769" stroke-width="3" stroke-miterlimit="10"/>
<path d="M470.817 251.336L480.753 255.007" stroke="#BF9769" stroke-width="3" stroke-miterlimit="10"/>
<path d="M397.443 220.517C397.443 220.517 407.2 224.4 410.025 228.852C410.025 228.852 412.466 220.94 417.533 219.293" stroke="#BF9769" stroke-width="3" stroke-miterlimit="10"/>
<path d="M385.12 226.887C385.12 226.887 375.541 246.659 365.083 248.968" stroke="#BF9769" stroke-width="3" stroke-miterlimit="10"/>
<path d="M72.2768 680.396H1.88672V693.402H72.2768V680.396Z" stroke="#BF9769" stroke-width="3" stroke-miterlimit="10"/>
<path d="M72.2768 732.027H1.88672V745.032H72.2768V732.027Z" stroke="#BF9769" stroke-width="3" stroke-miterlimit="10"/>
<path d="M66.6269 693.402H5.66309V732.027H66.6269V693.402Z" stroke="#BF9769" stroke-width="3" stroke-miterlimit="10"/>
<path d="M761.95 125.195L757.346 132.71H701.74C697.718 132.71 694.457 135.971 694.457 139.993C694.457 144.015 697.718 147.276 701.74 147.276H757.041L763.789 154.639" stroke="#BF9769" stroke-width="3" stroke-miterlimit="10"/>
<path d="M757.352 132.715C757.352 132.715 755.361 135.784 755.361 139.925C755.361 144.066 757.048 147.288 757.048 147.288" stroke="#BF9769" stroke-width="3" stroke-miterlimit="10"/>
<path d="M763.795 154.65L770.238 167.841" stroke="#BF9769" stroke-width="3" stroke-miterlimit="10"/>
<path d="M293.41 112.156H772.382V127.344H293.41" stroke="#BF9769" stroke-width="3" stroke-miterlimit="10"/>
<path d="M293.41 167.842H722.683H772.382V207.419V346.857C772.382 346.857 770.543 605.391 767.778 632.082C765.019 658.774 757.194 680.405 757.194 680.405H731.422L722.677 639.451C722.677 639.451 733.724 613.679 722.677 582.39V346.863V207.426H293.403" stroke="#BF9769" stroke-width="3" stroke-miterlimit="10"/>
<path d="M503.178 259.783H532.013C534.527 259.783 536.994 259.082 539.137 257.753C543.04 255.332 550.647 251.277 557.706 251.277C563.844 251.277 569.03 254.333 572.298 256.893C574.68 258.758 577.65 259.79 580.653 259.79H611.254C613.351 259.79 615.441 259.294 617.3 258.361C624.894 254.538 645.308 246.752 670.842 256.992C672.423 257.627 674.103 257.951 675.823 257.951H722.809V207.426H719.773V254.915H675.823C674.487 254.915 673.19 254.663 671.973 254.174C645.288 243.471 623.895 251.634 615.931 255.649C614.495 256.37 612.875 256.754 611.247 256.754H580.646C578.318 256.754 576.016 255.953 574.164 254.505C570.519 251.647 564.698 248.24 557.699 248.24C549.887 248.24 541.711 252.586 537.53 255.173C535.863 256.205 533.951 256.754 532 256.754H503.165" stroke="#BF9769" stroke-width="3" stroke-miterlimit="10"/>
<path d="M722.822 392.183V258.037H674.314V261.073H719.786V392.183" stroke="#BF9769" stroke-width="3" stroke-miterlimit="10"/>
<path d="M674.314 261.072V412.602C674.314 412.602 674.672 420.116 682.338 420.116C682.338 420.116 678.323 423.034 678.323 430.548C678.323 438.063 684.177 441.437 684.177 441.437C684.177 441.437 679.117 449.262 680.341 454.779C681.571 460.303 680.493 465.978 676.2 465.978C676.2 465.978 675.128 476.258 685.712 473.189C685.712 473.189 689.549 475.18 693.379 472.573C693.379 472.573 693.227 483.157 702.124 484.54C702.124 484.54 699.207 491.902 706.728 493.285C706.728 493.285 708.263 498.498 712.404 497.73C712.404 497.73 717.927 500.952 722.683 496.348" stroke="#BF9769" stroke-width="3" stroke-miterlimit="10"/>
<path d="M719.766 481.479L708.726 491.136" stroke="#BF9769" stroke-width="3" stroke-miterlimit="10"/>
<path d="M719.766 492.367L714.857 496.204" stroke="#BF9769" stroke-width="3" stroke-miterlimit="10"/>
<path d="M704.889 482.854L717.312 472.885" stroke="#BF9769" stroke-width="3" stroke-miterlimit="10"/>
<path d="M690.316 375.941C693.055 378.329 695.761 380.757 698.426 383.225C702.032 386.545 706.06 389.813 708.891 393.947C712.298 398.928 712.549 404.313 711.994 410.167C711.603 414.236 710.472 418.648 707.343 421.499" stroke="#BF9769" stroke-width="3" stroke-miterlimit="10"/>
<path d="M696.144 435.457C696.144 435.457 688.166 442.052 687.095 444.506C686.023 446.96 685.712 456.625 695.224 459.231" stroke="#BF9769" stroke-width="3" stroke-miterlimit="10"/>
<path d="M699.214 466.826C699.214 466.826 692.466 471.814 685.408 464.451" stroke="#BF9769" stroke-width="3" stroke-miterlimit="10"/>
<path d="M682.498 465.523C682.498 465.523 683.417 470.432 685.415 471.047" stroke="#BF9769" stroke-width="3" stroke-miterlimit="10"/>
<path d="M707.039 427.479C707.039 427.479 702.131 431.772 700.596 435.456C699.061 439.141 704.28 446.96 709.341 448.19" stroke="#BF9769" stroke-width="3" stroke-miterlimit="10"/>
<path d="M714.249 434.844C714.249 434.844 712.258 440.519 706.887 439.448" stroke="#BF9769" stroke-width="3" stroke-miterlimit="10"/>
<path d="M713.449 270.115C713.449 270.115 712.007 276.089 704.83 279.165C697.653 282.241 688.604 287.255 688.604 291.488" stroke="#BF9769" stroke-width="3" stroke-miterlimit="10"/>
<path d="M692.843 387.512C692.843 387.512 698.618 394.444 694.96 400.801C691.302 407.158 683.985 406.001 683.985 406.001" stroke="#BF9769" stroke-width="3" stroke-miterlimit="10"/>
<path d="M706.886 404.65C706.886 404.65 703.823 415.433 694.384 413.316" stroke="#BF9769" stroke-width="3" stroke-miterlimit="10"/>
<path d="M688.604 423.914C688.604 423.914 693.479 428.346 690.079 433.929" stroke="#BF9769" stroke-width="3" stroke-miterlimit="10"/>
<path d="M699.214 288.605C699.214 288.605 697.778 298.237 711.101 309.019C711.101 309.019 703.626 301.313 694.378 298.812" stroke="#BF9769" stroke-width="3" stroke-miterlimit="10"/>
<path d="M690.316 274.35C690.316 274.35 682.438 280.124 683.979 288.598" stroke="#BF9769" stroke-width="3" stroke-miterlimit="10"/>
<path d="M704.829 267.033C704.829 267.033 698.816 276.87 691.361 280.806" stroke="#BF9769" stroke-width="3" stroke-miterlimit="10"/>
<path d="M687.049 310.943C687.049 310.943 679.355 306.703 678.972 316.335" stroke="#BF9769" stroke-width="3" stroke-miterlimit="10"/>
<path d="M704.829 226.206C704.829 226.206 711.338 227.515 710.564 233.601C709.79 239.687 697.056 240.454 689.938 223.123" stroke="#BF9769" stroke-width="3" stroke-miterlimit="10"/>
<path d="M700.285 240.07C700.285 240.07 701.701 248.16 694.378 249.311C688.603 250.853 686.288 241.995 688.603 240.07" stroke="#BF9769" stroke-width="3" stroke-miterlimit="10"/>
<path d="M683.98 233.602C683.98 233.602 672.423 244.1 660.1 244.781" stroke="#BF9769" stroke-width="3" stroke-miterlimit="10"/>
<path d="M670.114 220.424C670.114 220.424 664.723 231.749 658.558 233.601" stroke="#BF9769" stroke-width="3" stroke-miterlimit="10"/>
<path d="M655.091 223.122C655.091 223.122 652.783 210.216 638.911 220.423" stroke="#BF9769" stroke-width="3" stroke-miterlimit="10"/>
<path d="M644.117 240.07C644.117 240.07 636.609 238.112 633.143 230.326" stroke="#BF9769" stroke-width="3" stroke-miterlimit="10"/>
<path d="M613 223.124C617.703 212.725 625.052 219.81 625.052 219.81" stroke="#BF9769" stroke-width="3" stroke-miterlimit="10"/>
<path d="M633.137 242.77C633.137 242.77 623.4 238.305 619.021 233.602" stroke="#BF9769" stroke-width="3" stroke-miterlimit="10"/>
<path d="M557.48 220.425C557.48 220.425 567.277 213.571 573.634 227.013" stroke="#BF9769" stroke-width="3" stroke-miterlimit="10"/>
<path d="M595.582 230.327C595.582 230.327 607.853 229.778 609.553 244.781" stroke="#BF9769" stroke-width="3" stroke-miterlimit="10"/>
<path d="M538.383 233.602C538.383 233.602 528.56 241.996 514.119 240.071" stroke="#BF9769" stroke-width="3" stroke-miterlimit="10"/>
<path d="M526.251 216.494C526.251 216.494 529.717 232.522 514.119 233.601" stroke="#BF9769" stroke-width="3" stroke-miterlimit="10"/>
<path d="M506.399 212.141C506.399 212.141 515.435 220.191 506.399 230.325" stroke="#BF9769" stroke-width="3" stroke-miterlimit="10"/>
<path d="M547.631 220.424L538.383 227.012L532.608 221.237" stroke="#BF9769" stroke-width="3" stroke-miterlimit="10"/>
<path d="M520.35 249.496L510.407 253.167" stroke="#BF9769" stroke-width="3" stroke-miterlimit="10"/>
<path d="M540.116 244.78C540.116 244.78 550.568 237.371 557.474 240.355" stroke="#BF9769" stroke-width="3" stroke-miterlimit="10"/>
<path d="M593.724 218.679C593.724 218.679 583.967 222.562 581.143 227.014C581.143 227.014 578.702 219.102 573.635 217.455" stroke="#BF9769" stroke-width="3" stroke-miterlimit="10"/>
<path d="M600.915 242.769C600.915 242.769 583.451 236.961 575.493 249.497" stroke="#BF9769" stroke-width="3" stroke-miterlimit="10"/>
<path d="M606.048 225.047C606.048 225.047 615.626 244.819 626.085 247.128" stroke="#BF9769" stroke-width="3" stroke-miterlimit="10"/>
<path d="M709.341 286.68C709.341 286.68 712.615 293.751 708.726 298.812" stroke="#BF9769" stroke-width="3" stroke-miterlimit="10"/>
<path d="M507.782 256.747H463.832C462.496 256.747 461.2 256.495 459.983 256.006C433.298 245.303 411.905 253.466 403.94 257.481C402.505 258.202 400.884 258.586 399.257 258.586" stroke="#BF9769" stroke-width="3" stroke-miterlimit="10"/>
<path d="M399.25 261.622C401.347 261.622 403.437 261.126 405.296 260.193C412.89 256.369 433.304 248.584 458.838 258.824C460.419 259.459 462.099 259.783 463.819 259.783H510.805" stroke="#BF9769" stroke-width="3" stroke-miterlimit="10"/>
<path d="M471.982 235.439C471.982 235.439 460.425 245.937 448.102 246.619" stroke="#BF9769" stroke-width="3" stroke-miterlimit="10"/>
<path d="M458.11 222.27C458.11 222.27 452.719 233.594 446.554 235.447" stroke="#BF9769" stroke-width="3" stroke-miterlimit="10"/>
<path d="M443.087 224.96C443.087 224.96 440.779 212.054 426.907 222.261" stroke="#BF9769" stroke-width="3" stroke-miterlimit="10"/>
<path d="M432.113 241.908C432.113 241.908 424.605 239.95 421.139 232.164" stroke="#BF9769" stroke-width="3" stroke-miterlimit="10"/>
<path d="M421.132 244.608C421.132 244.608 411.395 240.143 407.016 235.439" stroke="#BF9769" stroke-width="3" stroke-miterlimit="10"/>
<path d="M345.477 222.27C345.477 222.27 355.273 215.417 361.63 228.859" stroke="#BF9769" stroke-width="3" stroke-miterlimit="10"/>
<path d="M383.579 232.171C383.579 232.171 395.85 231.621 397.55 246.624" stroke="#BF9769" stroke-width="3" stroke-miterlimit="10"/>
<path d="M326.38 235.439C326.38 235.439 316.557 243.834 302.116 241.909" stroke="#BF9769" stroke-width="3" stroke-miterlimit="10"/>
<path d="M314.248 218.34C314.248 218.34 317.714 234.368 302.116 235.446" stroke="#BF9769" stroke-width="3" stroke-miterlimit="10"/>
<path d="M294.396 213.986C294.396 213.986 303.432 222.037 294.396 232.171" stroke="#BF9769" stroke-width="3" stroke-miterlimit="10"/>
<path d="M308.347 251.336L298.411 255.007" stroke="#BF9769" stroke-width="3" stroke-miterlimit="10"/>
<path d="M381.72 220.517C381.72 220.517 371.963 224.4 369.138 228.852C369.138 228.852 366.697 220.94 361.63 219.293" stroke="#BF9769" stroke-width="3" stroke-miterlimit="10"/>
<path d="M394.044 226.887C394.044 226.887 403.622 246.659 414.081 248.968" stroke="#BF9769" stroke-width="3" stroke-miterlimit="10"/>
<path d="M706.879 693.396H777.27V680.391H706.879V693.396Z" stroke="#BF9769" stroke-width="3" stroke-miterlimit="10"/>
<path d="M706.879 745.033H777.27V732.028H706.879V745.033Z" stroke="#BF9769" stroke-width="3" stroke-miterlimit="10"/>
<path d="M712.536 732.021H773.5V693.397H712.536V732.021Z" stroke="#BF9769" stroke-width="3" stroke-miterlimit="10"/>
<path d="M68.5996 315.036C68.5996 315.036 83.3577 312.052 87.8029 320.883C92.2482 329.715 75.8099 345.683 72.2775 351.967C68.7451 358.252 69.0031 368.604 74.3282 372.52" stroke="#BF9769" stroke-width="3" stroke-miterlimit="10"/>
<path d="M86.0966 343.533C86.0966 343.533 78.5423 368.882 93.6509 370.84" stroke="#BF9769" stroke-width="3" stroke-miterlimit="10"/>
<path d="M77.8935 335.033C77.8935 335.033 66.9324 337.183 63.1553 344.777" stroke="#BF9769" stroke-width="3" stroke-miterlimit="10"/>
<path d="M64.915 377.838C64.915 377.838 66.9789 383.712 70.5245 384.83" stroke="#BF9769" stroke-width="3" stroke-miterlimit="10"/>
<path d="M708.012 315.036C708.012 315.036 693.254 312.052 688.809 320.883C684.363 329.715 700.802 345.683 704.334 351.967C707.866 358.252 707.608 368.604 702.283 372.52" stroke="#BF9769" stroke-width="3" stroke-miterlimit="10"/>
<path d="M690.514 343.533C690.514 343.533 698.069 368.882 682.96 370.84" stroke="#BF9769" stroke-width="3" stroke-miterlimit="10"/>
<path d="M698.718 335.033C698.718 335.033 709.679 337.183 713.456 344.777" stroke="#BF9769" stroke-width="3" stroke-miterlimit="10"/>
<path d="M711.69 377.838C711.69 377.838 709.626 383.712 706.08 384.83" stroke="#BF9769" stroke-width="3" stroke-miterlimit="10"/>
<path d="M593.167 35.4096H602.573C600.594 10.657 609.503 3.7035 609.503 3.7035L593.167 2.50947V2.24023L591.312 2.37486L589.456 2.24023V2.50947L573.12 3.7035C573.12 3.7035 582.029 10.657 580.05 35.4096H593.167Z" fill="#431D31" stroke="#BF9769" stroke-miterlimit="10"/>
<path d="M605.897 98.9219C603.614 96.8675 602.303 93.9409 602.303 90.8681C602.303 88.2693 604.99 85.7642 606.681 83.7975C610.509 79.355 617.176 70.435 617.176 62.1411C617.176 50.5052 610.737 42.0885 602.572 35.4102L591.311 35.9955L580.05 35.4102C571.879 42.0944 565.446 50.5111 565.446 62.1411C565.446 70.435 572.113 79.355 575.941 83.7975C577.638 85.7642 580.319 88.2693 580.319 90.8681C580.319 93.9409 579.014 96.8675 576.725 98.9219C574.665 100.777 572.148 103.429 570.369 106.584C570.234 106.824 570.17 107.093 570.17 107.362V110.564C570.17 111.436 570.878 112.144 571.75 112.144H610.872C611.744 112.144 612.452 111.436 612.452 110.564V107.362C612.452 107.087 612.388 106.818 612.253 106.584C610.48 103.429 607.957 100.777 605.897 98.9219Z" fill="#431D31" stroke="#BF9769" stroke-miterlimit="10"/>
<path d="M610.123 3.70388H572.499C571.692 3.70388 571.036 3.04834 571.036 2.24061C571.036 1.43289 571.692 0.777344 572.499 0.777344H610.123C610.931 0.777344 611.586 1.43289 611.586 2.24061C611.586 3.04834 610.931 3.70388 610.123 3.70388Z" fill="#431D31" stroke="#BF9769" stroke-miterlimit="10"/>
<path d="M604.802 38.6291H577.819C576.362 38.6291 575.186 37.4526 575.186 35.9952C575.186 34.5378 576.362 33.3613 577.819 33.3613H604.802C606.26 33.3613 607.436 34.5378 607.436 35.9952C607.436 37.4526 606.26 38.6291 604.802 38.6291Z" fill="#431D31" stroke="#BF9769" stroke-miterlimit="10"/>
<path d="M602.912 92.3654H579.71C578.738 92.3654 577.954 91.581 577.954 90.6094C577.954 89.6378 578.738 88.8535 579.71 88.8535H602.912C603.883 88.8535 604.668 89.6378 604.668 90.6094C604.668 91.581 603.883 92.3654 602.912 92.3654Z" fill="#431D31" stroke="#BF9769" stroke-miterlimit="10"/>
<path d="M190.486 35.4096H199.892C197.914 10.657 206.822 3.7035 206.822 3.7035L190.486 2.50947V2.24023L188.631 2.37486L186.775 2.24023V2.50947L170.439 3.7035C170.439 3.7035 179.348 10.657 177.37 35.4096H190.486Z" fill="#431D31" stroke="#BF9769" stroke-miterlimit="10"/>
<path d="M203.216 98.9219C200.934 96.8675 199.623 93.9409 199.623 90.8681C199.623 88.2693 202.309 85.7642 204.001 83.7975C207.829 79.355 214.495 70.435 214.495 62.1411C214.495 50.5052 208.057 42.0885 199.892 35.4102L188.63 35.9955L177.369 35.4102C169.198 42.0944 162.766 50.5111 162.766 62.1411C162.766 70.435 169.432 79.355 173.26 83.7975C174.958 85.7642 177.638 88.2693 177.638 90.8681C177.638 93.9409 176.333 96.8675 174.045 98.9219C171.984 100.777 169.467 103.429 167.688 106.584C167.553 106.824 167.489 107.093 167.489 107.362V110.564C167.489 111.436 168.197 112.144 169.069 112.144H208.191C209.063 112.144 209.772 111.436 209.772 110.564V107.362C209.772 107.087 209.707 106.818 209.573 106.584C207.799 103.429 205.277 100.777 203.216 98.9219Z" fill="#431D31" stroke="#BF9769" stroke-miterlimit="10"/>
<path d="M207.442 3.70388H169.819C169.011 3.70388 168.355 3.04834 168.355 2.24061C168.355 1.43289 169.011 0.777344 169.819 0.777344H207.442C208.25 0.777344 208.906 1.43289 208.906 2.24061C208.906 3.04834 208.25 3.70388 207.442 3.70388Z" fill="#431D31" stroke="#BF9769" stroke-miterlimit="10"/>
<path d="M202.121 38.6291H175.139C173.681 38.6291 172.505 37.4526 172.505 35.9952C172.505 34.5378 173.681 33.3613 175.139 33.3613H202.121C203.579 33.3613 204.755 34.5378 204.755 35.9952C204.755 37.4526 203.579 38.6291 202.121 38.6291Z" fill="#431D31" stroke="#BF9769" stroke-miterlimit="10"/>
<path d="M200.231 92.3654H177.029C176.058 92.3654 175.273 91.581 175.273 90.6094C175.273 89.6378 176.058 88.8535 177.029 88.8535H200.231C201.203 88.8535 201.987 89.6378 201.987 90.6094C201.987 91.581 201.203 92.3654 200.231 92.3654Z" fill="#431D31" stroke="#BF9769" stroke-miterlimit="10"/>
</svg>
