<svg width="478" height="413" viewBox="0 0 478 413" fill="none" xmlns="http://www.w3.org/2000/svg">
<path d="M465.45 15.5644H475.828V2.03125H1.74563V15.5644H12.1241L15.1435 20.3478C15.1435 20.3478 16.9184 23.0804 16.9184 26.7708C16.9184 30.4612 15.4141 33.3344 15.4141 33.3344L9.39694 39.8981L3.65577 51.6564H1.74023V211.186C1.74023 211.186 3.37979 351.442 5.84184 375.229C8.30389 399.017 15.2734 418.291 15.2734 418.291H38.2381L46.0301 381.793C46.0301 381.793 36.1873 358.828 46.0301 330.94V277.9C50.267 282.002 55.1911 279.128 55.1911 279.128C58.8814 279.81 60.2504 275.162 60.2504 275.162C66.9494 273.934 64.3521 267.37 64.3521 267.37C72.2793 266.142 72.1441 256.705 72.1441 256.705C75.5639 259.026 78.9783 257.251 78.9783 257.251C88.4098 259.984 87.452 250.828 87.452 250.828C83.6264 250.828 82.6686 245.769 83.7617 240.85C84.8547 235.931 80.3419 228.957 80.3419 228.957C80.3419 228.957 85.5582 225.948 85.5582 219.249C85.5582 212.55 81.9814 209.953 81.9814 209.953C88.8157 209.953 89.1349 203.254 89.1349 203.254V131.865C90.1955 131.746 91.229 131.492 92.2246 131.097C114.978 121.968 133.176 128.905 139.945 132.314C141.601 133.148 143.468 133.591 145.335 133.591H172.607C175.285 133.591 177.926 132.677 180.052 131.01C182.969 128.727 187.59 126.005 193.055 126.005C199.348 126.005 206.123 129.625 209.602 131.779C211.518 132.964 213.715 133.591 215.955 133.591H261.608C263.848 133.591 266.045 132.964 267.961 131.779C271.44 129.62 278.22 126.005 284.508 126.005C289.979 126.005 294.6 128.727 297.511 131.01C299.632 132.677 302.278 133.591 304.957 133.591H332.229C334.101 133.591 335.962 133.148 337.618 132.314C344.382 128.905 362.579 121.968 385.339 131.097C386.329 131.497 387.368 131.746 388.428 131.865V203.254C388.428 203.254 388.747 209.953 395.582 209.953C395.582 209.953 392.005 212.55 392.005 219.249C392.005 225.948 397.221 228.957 397.221 228.957C397.221 228.957 392.708 235.926 393.801 240.85C394.895 245.769 393.937 250.828 390.111 250.828C390.111 250.828 389.153 259.989 398.585 257.251C398.585 257.251 402.005 259.026 405.419 256.705C405.419 256.705 405.284 266.136 413.211 267.37C413.211 267.37 410.614 273.934 417.313 275.162C417.313 275.162 418.682 279.81 422.372 279.128C422.372 279.128 427.291 282.002 431.533 277.9V330.94C441.376 358.828 431.533 381.793 431.533 381.793L439.325 418.291H462.29C462.29 418.291 469.259 399.017 471.721 375.229C474.183 351.442 475.823 211.186 475.823 211.186V51.6564H473.907L468.166 39.8981L462.149 33.3344C462.149 33.3344 460.645 30.4612 460.645 26.7708C460.645 23.0804 462.42 20.3478 462.42 20.3478L465.439 15.5644H465.45Z" fill="#431D31" stroke="#BF9769" stroke-width="3" stroke-miterlimit="10"/>
<path d="M11.0419 13.6484L15.1435 20.3474H64.6984C68.2859 20.3474 71.1917 23.2531 71.1917 26.8407C71.1917 30.4283 68.2859 33.334 64.6984 33.334H15.4195L9.40234 39.8977H284.308" stroke="#BF9769" stroke-width="3" stroke-miterlimit="10"/>
<path d="M15.1436 20.3477C15.1436 20.3477 16.9184 23.0803 16.9184 26.7706C16.9184 30.461 15.4141 33.3343 15.4141 33.3343" stroke="#BF9769" stroke-width="3" stroke-miterlimit="10"/>
<path d="M9.40232 39.8965L3.66113 51.6494H284.308" stroke="#BF9769" stroke-width="3" stroke-miterlimit="10"/>
<path d="M466.533 13.6484L462.431 20.3474H412.876C409.289 20.3474 406.383 23.2531 406.383 26.8407C406.383 30.4283 409.289 33.334 412.876 33.334H462.155L468.172 39.8977H193.267" stroke="#BF9769" stroke-width="3" stroke-miterlimit="10"/>
<path d="M462.43 20.3477C462.43 20.3477 460.655 23.0803 460.655 26.7706C460.655 30.461 462.16 33.3343 462.16 33.3343" stroke="#BF9769" stroke-width="3" stroke-miterlimit="10"/>
<path d="M468.172 39.8965L473.913 51.6494H193.267" stroke="#BF9769" stroke-width="3" stroke-miterlimit="10"/>
<path d="M431.533 51.6504H1.74609V211.18C1.74609 211.18 3.38567 351.436 5.84772 375.223C8.30977 399.011 15.2793 418.285 15.2793 418.285H38.244L46.0359 381.787C46.0359 381.787 36.1932 358.822 46.0359 330.934V86.9199H431.533V330.934C441.376 358.822 431.533 381.787 431.533 381.787L439.325 418.285H462.29C462.29 418.285 469.26 399.011 471.722 375.223C474.184 351.436 475.823 211.18 475.823 211.18V51.6504H431.533Z" stroke="#BF9769" stroke-width="3" stroke-miterlimit="10"/>
<path d="M241.658 133.591H215.96C213.72 133.591 211.523 132.963 209.608 131.778C206.128 129.619 199.348 126.004 193.061 126.004C187.59 126.004 182.969 128.726 180.058 131.01C177.937 132.676 175.291 133.591 172.612 133.591H145.34C143.468 133.591 141.606 133.147 139.951 132.314C133.187 128.905 114.989 121.968 92.2301 131.096C90.8178 131.664 89.3244 131.951 87.7876 131.951H45.9111V86.9199H48.6167V129.246H87.7876C88.9781 129.246 90.1306 129.024 91.2183 128.585C114.995 119.046 134.063 126.324 141.163 129.9C142.445 130.544 143.89 130.885 145.335 130.885H172.607C174.679 130.885 176.735 130.171 178.386 128.878C181.638 126.329 186.822 123.293 193.061 123.293C200.025 123.293 207.308 127.168 211.036 129.473C212.524 130.393 214.223 130.88 215.96 130.88H241.658" stroke="#BF9769" stroke-width="3" stroke-miterlimit="10"/>
<path d="M45.916 251.581V132.033H89.1399V134.739H48.6216V251.581" stroke="#BF9769" stroke-width="3" stroke-miterlimit="10"/>
<path d="M89.14 134.738V203.254C89.14 203.254 88.8207 209.953 81.9865 209.953C81.9865 209.953 85.5633 212.55 85.5633 219.249C85.5633 225.948 80.3469 228.956 80.3469 228.956C80.3469 228.956 84.8598 235.926 83.7668 240.85C82.6737 245.774 83.6315 250.828 87.4571 250.828C87.4571 250.828 88.4149 259.989 78.9833 257.251C78.9833 257.251 75.5635 259.026 72.1491 256.704C72.1491 256.704 72.2844 266.136 64.3571 267.37C64.3571 267.37 66.9545 273.933 60.2555 275.162C60.2555 275.162 58.8865 279.81 55.1962 279.128C55.1962 279.128 50.2775 282.001 46.0352 277.9" stroke="#BF9769" stroke-width="3" stroke-miterlimit="10"/>
<path d="M48.6328 264.633L58.4756 273.247" stroke="#BF9769" stroke-width="3" stroke-miterlimit="10"/>
<path d="M48.6328 274.34L53.0104 277.754" stroke="#BF9769" stroke-width="3" stroke-miterlimit="10"/>
<path d="M61.8953 265.865L50.8242 256.975" stroke="#BF9769" stroke-width="3" stroke-miterlimit="10"/>
<path d="M74.8821 170.582C72.4417 172.709 70.0337 174.873 67.6529 177.07C64.4441 180.03 60.8457 182.941 58.3241 186.626C55.2885 191.063 55.0612 195.868 55.5645 201.079C55.9108 204.704 56.9226 208.638 59.7094 211.176" stroke="#BF9769" stroke-width="3" stroke-miterlimit="10"/>
<path d="M69.6875 223.621C69.6875 223.621 76.7977 229.498 77.7555 231.689C78.7132 233.881 78.9838 242.49 70.51 244.811" stroke="#BF9769" stroke-width="3" stroke-miterlimit="10"/>
<path d="M66.9541 251.582C66.9541 251.582 72.9712 256.025 79.2589 249.461" stroke="#BF9769" stroke-width="3" stroke-miterlimit="10"/>
<path d="M81.8522 250.416C81.8522 250.416 81.0297 254.788 79.2549 255.335" stroke="#BF9769" stroke-width="3" stroke-miterlimit="10"/>
<path d="M59.9795 216.516C59.9795 216.516 64.3517 220.341 65.7207 223.626C67.0897 226.91 62.4416 233.88 57.9287 234.973" stroke="#BF9769" stroke-width="3" stroke-miterlimit="10"/>
<path d="M53.5566 223.074C53.5566 223.074 55.3315 228.134 60.1203 227.176" stroke="#BF9769" stroke-width="3" stroke-miterlimit="10"/>
<path d="M54.2656 142.795C54.2656 142.795 55.5535 148.114 61.944 150.863C68.3345 153.612 76.4024 158.07 76.4024 161.847" stroke="#BF9769" stroke-width="3" stroke-miterlimit="10"/>
<path d="M72.6305 180.895C72.6305 180.895 67.4791 187.074 70.742 192.739C74.0049 198.405 80.5253 197.371 80.5253 197.371" stroke="#BF9769" stroke-width="3" stroke-miterlimit="10"/>
<path d="M60.1152 196.17C60.1152 196.17 62.8479 205.78 71.2567 203.892" stroke="#BF9769" stroke-width="3" stroke-miterlimit="10"/>
<path d="M76.4083 213.334C76.4083 213.334 72.0632 217.284 75.0934 222.257" stroke="#BF9769" stroke-width="3" stroke-miterlimit="10"/>
<path d="M66.9553 159.271C66.9553 159.271 68.2323 167.853 56.3604 177.464C56.3604 177.464 63.0214 170.597 71.2625 168.368" stroke="#BF9769" stroke-width="3" stroke-miterlimit="10"/>
<path d="M74.8818 146.572C74.8818 146.572 81.9 151.724 80.5256 159.272" stroke="#BF9769" stroke-width="3" stroke-miterlimit="10"/>
<path d="M61.9492 140.053C61.9492 140.053 67.3062 148.819 73.9564 152.325" stroke="#BF9769" stroke-width="3" stroke-miterlimit="10"/>
<path d="M77.793 179.179C77.793 179.179 84.6488 175.402 84.9897 183.984" stroke="#BF9769" stroke-width="3" stroke-miterlimit="10"/>
<path d="M61.9502 103.663C61.9502 103.663 56.1441 104.832 56.8367 110.254C57.5293 115.676 68.871 116.363 75.2128 100.914" stroke="#BF9769" stroke-width="3" stroke-miterlimit="10"/>
<path d="M65.9973 116.021C65.9973 116.021 64.7366 123.229 71.2624 124.257C76.4137 125.632 78.4699 117.737 76.4137 116.021" stroke="#BF9769" stroke-width="3" stroke-miterlimit="10"/>
<path d="M80.5254 110.252C80.5254 110.252 90.8227 119.608 101.807 120.219" stroke="#BF9769" stroke-width="3" stroke-miterlimit="10"/>
<path d="M92.8848 98.5176C92.8848 98.5176 97.6898 108.609 103.182 110.26" stroke="#BF9769" stroke-width="3" stroke-miterlimit="10"/>
<path d="M106.271 100.918C106.271 100.918 108.333 89.4194 120.687 98.5154" stroke="#BF9769" stroke-width="3" stroke-miterlimit="10"/>
<path d="M116.056 116.021C116.056 116.021 122.749 114.279 125.839 107.342" stroke="#BF9769" stroke-width="3" stroke-miterlimit="10"/>
<path d="M143.788 100.92C139.594 91.6508 133.047 97.9656 133.047 97.9656" stroke="#BF9769" stroke-width="3" stroke-miterlimit="10"/>
<path d="M125.838 118.423C125.838 118.423 134.517 114.446 138.419 110.252" stroke="#BF9769" stroke-width="3" stroke-miterlimit="10"/>
<path d="M193.267 98.5165C193.267 98.5165 184.538 92.4073 178.873 104.388" stroke="#BF9769" stroke-width="3" stroke-miterlimit="10"/>
<path d="M159.306 107.342C159.306 107.342 148.371 106.85 146.855 120.221" stroke="#BF9769" stroke-width="3" stroke-miterlimit="10"/>
<path d="M210.278 110.252C210.278 110.252 219.033 117.736 231.901 116.02" stroke="#BF9769" stroke-width="3" stroke-miterlimit="10"/>
<path d="M221.089 95.0156C221.089 95.0156 218 109.295 231.901 110.259" stroke="#BF9769" stroke-width="3" stroke-miterlimit="10"/>
<path d="M238.785 91.1367C238.785 91.1367 230.733 98.3118 238.785 107.338" stroke="#BF9769" stroke-width="3" stroke-miterlimit="10"/>
<path d="M202.043 98.5176L210.279 104.389L215.43 99.2372" stroke="#BF9769" stroke-width="3" stroke-miterlimit="10"/>
<path d="M226.35 124.42L235.208 127.694" stroke="#BF9769" stroke-width="3" stroke-miterlimit="10"/>
<path d="M208.737 120.221C208.737 120.221 199.424 113.614 193.267 116.277" stroke="#BF9769" stroke-width="3" stroke-miterlimit="10"/>
<path d="M160.962 96.9583C160.962 96.9583 169.658 100.416 172.174 104.388C172.174 104.388 174.349 97.3371 178.867 95.8652" stroke="#BF9769" stroke-width="3" stroke-miterlimit="10"/>
<path d="M154.556 118.423C154.556 118.423 170.118 113.25 177.212 124.418" stroke="#BF9769" stroke-width="3" stroke-miterlimit="10"/>
<path d="M149.977 102.635C149.977 102.635 141.438 120.253 132.126 122.315" stroke="#BF9769" stroke-width="3" stroke-miterlimit="10"/>
<path d="M57.929 157.557C57.929 157.557 55.007 163.855 58.4756 168.368" stroke="#BF9769" stroke-width="3" stroke-miterlimit="10"/>
<path d="M235.792 133.591H261.489C263.729 133.591 265.926 132.963 267.842 131.778C271.321 129.619 278.101 126.004 284.389 126.004C289.86 126.004 294.481 128.726 297.392 131.01C299.513 132.676 302.159 133.591 304.838 133.591H332.11C333.982 133.591 335.843 133.147 337.499 132.314C344.263 128.905 362.46 121.968 385.22 131.096C386.632 131.664 388.125 131.951 389.662 131.951H431.539V86.9199H428.833V129.246H389.662C388.472 129.246 387.319 129.024 386.231 128.585C362.455 119.046 343.386 126.324 336.287 129.9C335.004 130.544 333.56 130.885 332.115 130.885H304.843C302.771 130.885 300.714 130.171 299.064 128.878C295.812 126.329 290.628 123.293 284.389 123.293C277.425 123.293 270.142 127.168 266.413 129.473C264.925 130.393 263.226 130.88 261.489 130.88H235.792" stroke="#BF9769" stroke-width="3" stroke-miterlimit="10"/>
<path d="M431.538 251.581V132.033H388.309V134.739H428.832V251.581" stroke="#BF9769" stroke-width="3" stroke-miterlimit="10"/>
<path d="M388.309 134.738V203.254C388.309 203.254 388.628 209.953 395.462 209.953C395.462 209.953 391.885 212.55 391.885 219.249C391.885 225.948 397.102 228.956 397.102 228.956C397.102 228.956 392.589 235.926 393.682 240.85C394.775 245.769 393.817 250.828 389.991 250.828C389.991 250.828 389.034 259.989 398.465 257.251C398.465 257.251 401.885 259.026 405.299 256.704C405.299 256.704 405.164 266.136 413.091 267.37C413.091 267.37 410.494 273.933 417.193 275.162C417.193 275.162 418.562 279.81 422.252 279.128C422.252 279.128 427.171 282.001 431.413 277.9" stroke="#BF9769" stroke-width="3" stroke-miterlimit="10"/>
<path d="M428.817 264.633L418.975 273.247" stroke="#BF9769" stroke-width="3" stroke-miterlimit="10"/>
<path d="M428.816 274.34L424.444 277.754" stroke="#BF9769" stroke-width="3" stroke-miterlimit="10"/>
<path d="M415.56 265.865L426.631 256.975" stroke="#BF9769" stroke-width="3" stroke-miterlimit="10"/>
<path d="M402.572 170.582C405.013 172.709 407.421 174.873 409.801 177.07C413.01 180.03 416.609 182.941 419.13 186.626C422.166 191.063 422.393 195.868 421.89 201.079C421.544 204.704 420.532 208.638 417.745 211.176" stroke="#BF9769" stroke-width="3" stroke-miterlimit="10"/>
<path d="M407.768 223.621C407.768 223.621 400.658 229.498 399.7 231.689C398.743 233.875 398.472 242.49 406.946 244.811" stroke="#BF9769" stroke-width="3" stroke-miterlimit="10"/>
<path d="M410.5 251.582C410.5 251.582 404.483 256.025 398.195 249.461" stroke="#BF9769" stroke-width="3" stroke-miterlimit="10"/>
<path d="M395.599 250.416C395.599 250.416 396.421 254.788 398.196 255.335" stroke="#BF9769" stroke-width="3" stroke-miterlimit="10"/>
<path d="M417.47 216.516C417.47 216.516 413.098 220.341 411.729 223.626C410.36 226.905 415.008 233.88 419.521 234.973" stroke="#BF9769" stroke-width="3" stroke-miterlimit="10"/>
<path d="M423.899 223.074C423.899 223.074 422.124 228.134 417.335 227.176" stroke="#BF9769" stroke-width="3" stroke-miterlimit="10"/>
<path d="M423.184 142.795C423.184 142.795 421.896 148.114 415.505 150.863C409.109 153.606 401.047 158.07 401.047 161.847" stroke="#BF9769" stroke-width="3" stroke-miterlimit="10"/>
<path d="M404.819 180.895C404.819 180.895 409.97 187.074 406.707 192.739C403.444 198.405 396.924 197.371 396.924 197.371" stroke="#BF9769" stroke-width="3" stroke-miterlimit="10"/>
<path d="M417.335 196.17C417.335 196.17 414.602 205.78 406.193 203.892" stroke="#BF9769" stroke-width="3" stroke-miterlimit="10"/>
<path d="M401.041 213.334C401.041 213.334 405.386 217.284 402.356 222.257" stroke="#BF9769" stroke-width="3" stroke-miterlimit="10"/>
<path d="M410.501 159.271C410.501 159.271 409.224 167.853 421.095 177.464C421.095 177.464 414.434 170.597 406.193 168.368" stroke="#BF9769" stroke-width="3" stroke-miterlimit="10"/>
<path d="M402.572 146.572C402.572 146.572 395.554 151.724 396.928 159.272" stroke="#BF9769" stroke-width="3" stroke-miterlimit="10"/>
<path d="M415.505 140.053C415.505 140.053 410.148 148.819 403.498 152.325" stroke="#BF9769" stroke-width="3" stroke-miterlimit="10"/>
<path d="M399.656 179.179C399.656 179.179 392.8 175.402 392.459 183.984" stroke="#BF9769" stroke-width="3" stroke-miterlimit="10"/>
<path d="M415.506 103.663C415.506 103.663 421.312 104.832 420.619 110.254C419.927 115.676 408.585 116.363 402.243 100.914" stroke="#BF9769" stroke-width="3" stroke-miterlimit="10"/>
<path d="M411.453 116.021C411.453 116.021 412.714 123.229 406.188 124.257C401.037 125.632 398.981 117.737 401.037 116.021" stroke="#BF9769" stroke-width="3" stroke-miterlimit="10"/>
<path d="M396.923 110.252C396.923 110.252 386.626 119.608 375.642 120.219" stroke="#BF9769" stroke-width="3" stroke-miterlimit="10"/>
<path d="M384.565 98.5176C384.565 98.5176 379.76 108.609 374.268 110.26" stroke="#BF9769" stroke-width="3" stroke-miterlimit="10"/>
<path d="M371.178 100.918C371.178 100.918 369.116 89.4194 356.763 98.5154" stroke="#BF9769" stroke-width="3" stroke-miterlimit="10"/>
<path d="M361.395 116.021C361.395 116.021 354.701 114.279 351.611 107.342" stroke="#BF9769" stroke-width="3" stroke-miterlimit="10"/>
<path d="M333.668 100.92C337.862 91.6508 344.409 97.9656 344.409 97.9656" stroke="#BF9769" stroke-width="3" stroke-miterlimit="10"/>
<path d="M351.617 118.423C351.617 118.423 342.938 114.446 339.036 110.252" stroke="#BF9769" stroke-width="3" stroke-miterlimit="10"/>
<path d="M284.188 98.5165C284.188 98.5165 292.917 92.4073 298.582 104.388" stroke="#BF9769" stroke-width="3" stroke-miterlimit="10"/>
<path d="M318.149 107.342C318.149 107.342 329.085 106.85 330.6 120.221" stroke="#BF9769" stroke-width="3" stroke-miterlimit="10"/>
<path d="M267.171 110.252C267.171 110.252 258.415 117.736 245.548 116.02" stroke="#BF9769" stroke-width="3" stroke-miterlimit="10"/>
<path d="M256.359 95.0156C256.359 95.0156 259.449 109.295 245.548 110.259" stroke="#BF9769" stroke-width="3" stroke-miterlimit="10"/>
<path d="M238.666 91.1367C238.666 91.1367 246.718 98.3118 238.666 107.338" stroke="#BF9769" stroke-width="3" stroke-miterlimit="10"/>
<path d="M275.412 98.5176L267.171 104.389L262.025 99.2372" stroke="#BF9769" stroke-width="3" stroke-miterlimit="10"/>
<path d="M251.099 124.42L242.241 127.694" stroke="#BF9769" stroke-width="3" stroke-miterlimit="10"/>
<path d="M268.719 120.221C268.719 120.221 278.031 113.614 284.189 116.277" stroke="#BF9769" stroke-width="3" stroke-miterlimit="10"/>
<path d="M316.487 96.9583C316.487 96.9583 307.792 100.416 305.276 104.388C305.276 104.388 303.1 97.3371 298.582 95.8652" stroke="#BF9769" stroke-width="3" stroke-miterlimit="10"/>
<path d="M322.895 118.423C322.895 118.423 307.332 113.25 300.238 124.418" stroke="#BF9769" stroke-width="3" stroke-miterlimit="10"/>
<path d="M327.473 102.635C327.473 102.635 336.011 120.253 345.324 122.315" stroke="#BF9769" stroke-width="3" stroke-miterlimit="10"/>
<path d="M419.521 157.557C419.521 157.557 422.443 163.855 418.975 168.368" stroke="#BF9769" stroke-width="3" stroke-miterlimit="10"/>
<path d="M284.308 2.03125H193.267H1.74609V15.5644H193.267H284.308H475.829V2.03125H284.308Z" stroke="#BF9769" stroke-width="3" stroke-miterlimit="10"/>
</svg>
