<?xml version="1.0" encoding="utf-8"?>
<!-- Generator: Adobe Illustrator 26.3.1, SVG Export Plug-In . SVG Version: 6.00 Build 0)  -->
<svg version="1.1" id="圖層_1" xmlns="http://www.w3.org/2000/svg" xmlns:xlink="http://www.w3.org/1999/xlink" x="0px" y="0px"
	 viewBox="0 0 67 159.8" style="enable-background:new 0 0 67 159.8;" xml:space="preserve">
<style type="text/css">
	.st0{fill:#431D31;stroke:#C39A6B;stroke-width:0.75;stroke-linecap:round;stroke-linejoin:round;stroke-miterlimit:10;}
	.st1{fill:#F477A0;stroke:#C39A6B;stroke-width:0.75;stroke-miterlimit:10;}
	.st2{fill:#BD2027;stroke:#C39A6B;stroke-width:0.75;stroke-linecap:round;stroke-linejoin:round;stroke-miterlimit:10;}
	.st3{fill:#C39A6B;}
</style>
<g>
	<g>
		<path class="st0" d="M36.4,3.9h-5.7V2c0-0.9,0.7-1.7,1.7-1.7h2.4c0.9,0,1.7,0.7,1.7,1.7V3.9z"/>
		<g>
			<polygon class="st0" points="9.2,20.9 4.8,31.8 9.2,33.8 			"/>
			<g>
				<path class="st0" d="M9.2,34.4c-0.1,0-0.2,0-0.3-0.1l-4.4-2c-0.3-0.2-0.5-0.5-0.3-0.9S4.7,31,5,31.2l4.4,2
					c0.3,0.2,0.5,0.5,0.3,0.9C9.7,34.3,9.4,34.4,9.2,34.4z"/>
			</g>
			<polygon class="st0" points="57.8,20.9 62.3,31.8 57.8,33.8 			"/>
			<g>
				<path class="st0" d="M57.8,34.4c0.1,0,0.2,0,0.3-0.1l4.4-2c0.3-0.2,0.5-0.5,0.3-0.9S62.3,31,62,31.2l-4.4,2
					c-0.3,0.2-0.5,0.5-0.3,0.9C57.4,34.3,57.6,34.4,57.8,34.4z"/>
			</g>
			<path class="st0" d="M33.5,11H9.2v59.6c0,0.5,0.4,1,1,1h23.3h23.3c0.5,0,1-0.4,1-1V11H33.5z"/>
			<polygon class="st0" points="33.5,9.2 8.3,9.2 8.3,11 33.5,11 58.7,11 58.7,9.2 			"/>
			<polygon class="st0" points="33.4,15.9 8.2,15.9 8.2,17.6 33.4,17.6 58.6,17.6 58.6,15.9 			"/>
			<polygon class="st0" points="33.4,53.9 8.2,53.9 8.2,55.7 33.4,55.7 58.6,55.7 58.6,53.9 			"/>
			<polygon class="st0" points="33.4,64.5 8.2,64.5 8.2,66.3 33.4,66.3 58.6,66.3 58.6,64.5 			"/>
			<polygon class="st0" points="33.5,6.1 9.2,6.1 9.2,9.2 33.5,9.2 57.8,9.2 57.8,6.1 			"/>
			<path class="st0" d="M33.5,3.1c0,0-13.3,0-24.3,3.1h24.3h24.3C46.8,3,33.5,3.1,33.5,3.1z"/>
		</g>
	</g>
	<g>
		<circle class="st0" cx="32.8" cy="63.2" r="3.2"/>
		<rect x="31.6" y="57.4" class="st0" width="2.4" height="4.4"/>
		<path class="st0" d="M35,63.2c0-1.2-1-2.2-2.2-2.2c-1.2,0-2.2,1-2.2,2.2c0,0.8,0.4,1.5,1,1.9v3.5h2.4V65C34.6,64.6,35,64,35,63.2z
			"/>
		<polygon class="st0" points="33.9,57.2 31.6,57.2 31.6,59.4 33.9,59.4 33.9,58.8 37.5,56.9 37.5,55.2 		"/>
	</g>
	<g>
		<rect x="4.6" y="71.4" class="st1" width="57.8" height="5.4"/>
		<g>
			<path class="st1" d="M64.2,104.5c-0.6-13.3-1.7-19.9-3.8-23.5c-2.3-3.9-5.9-4.1-9.8-4.1v0H35.5v2.4h14.5c8,0,10.7,0,11.8,25.3
				c1.2,25.6,2.5,54.5,2.5,54.8l2.4-0.1C66.6,159,65.4,130.1,64.2,104.5z"/>
			<path class="st1" d="M2.9,104.5C3.5,91.2,4.6,84.6,6.7,81c2.3-3.9,5.9-4.1,9.8-4.1v0h15.1v2.4H17.1c-8,0-10.7,0-11.8,25.3
				c-1.2,25.6-2.5,54.5-2.5,54.8l-2.4-0.1C0.4,159,1.7,130.1,2.9,104.5z"/>
		</g>
		<rect x="29.5" y="76.8" class="st1" width="8" height="81.3"/>
	</g>
	<g>
		<rect x="20.5" y="21.4" transform="matrix(0.7071 -0.7071 0.7071 0.7071 -14.5008 33.7264)" class="st2" width="26" height="26"/>
		<g>
			<path class="st3" d="M32,27.4c-0.4,0.1-0.8,0.2-1,0.3c-0.6,0.2-0.9,0.2-1,0c-0.1-0.2-0.1-0.3,0-0.6c0.2-0.2,0.4-0.4,0.7-0.5
				c0.4,0,0.7,0,1,0c0.2,0,0.4,0,0.7,0c0.2,0,0.4,0,0.6,0c0-0.1,0-0.2,0-0.4c-0.5,0-0.9,0-1.2,0.1c-0.3,0.1-0.6,0-0.7-0.2
				c-0.1-0.2,0-0.3,0.1-0.4c0.1-0.1,0.7-0.2,1.7-0.1c0-0.1,0-0.2,0-0.4c-0.1,0-0.6,0.1-1.7,0.1c-0.3,0-0.5-0.1-0.6-0.2
				c-0.1-0.2,0-0.3,0.2-0.5c0.1-0.1,0.2-0.2,0.3-0.2c0.2-0.1,0.8,0,1.8,0c0-0.2,0.1-0.4,0.2-0.5c0.2-0.2,0.5-0.2,0.7,0
				c0.1,0.1,0.2,0.3,0.2,0.5c0.5,0,1.1,0,1.6,0c0.2,0,0.4,0,0.6,0.1c0.1,0.2,0.1,0.3,0.1,0.4c-0.2,0.2-0.4,0.2-0.7,0.2
				c-0.6,0-1.2,0-1.7,0c0,0.1,0,0.2,0,0.4c0.4,0,0.8,0,1.2,0c0.4,0,0.7,0,0.8,0.1c0.1,0.1,0.1,0.2,0,0.3c0,0.1-0.2,0.2-0.5,0.2
				c-0.6,0-1.1,0-1.6,0c0,0.2,0,0.3,0,0.4c1,0,1.9,0,2.9,0c0.4,0,0.5,0.1,0.5,0.2c0,0.2-0.2,0.4-0.5,0.6c-0.2,0.1-0.4,0.1-0.8,0.1
				c-0.3-0.1-0.6-0.1-0.8-0.1c0.1,0.1,0.2,0.1,0.3,0.2c1.3,0.9,2.4,1.6,3.4,2c0.3,0.2,0.4,0.3,0.2,0.5c-0.3,0.3-0.7,0.5-1.1,0.6
				c-0.3,0.1-0.7,0-1-0.5c-1.1-1.5-2.1-2.4-3-2.8c-0.1,0-0.1-0.1-0.1-0.1c-0.2,0-0.4,0-0.6,0c0,0.1-0.1,0.1-0.1,0.1
				c-0.4,0.5-0.7,0.8-0.8,0.9c-0.9,1-1.8,1.7-2.8,2.1c-0.4,0.1-0.8,0.1-1,0c-0.2-0.2-0.4-0.4-0.5-0.7c0-0.3,0.1-0.5,0.5-0.5
				c0.3,0,0.6-0.1,1-0.2h0C30.9,28.6,31.7,28,32,27.4z M31.9,31c-0.5,0.2-0.9,0.2-1,0c-0.1-0.2-0.1-0.3,0-0.6
				c0.2-0.2,0.4-0.4,0.7-0.4c0.3-0.1,0.8-0.1,1.5,0c0.1,0,0.1,0,0.1,0c0-0.2,0-0.4,0-0.5c-0.3,0-0.5,0.1-0.7,0.1
				c-0.3,0.1-0.5,0.1-0.7-0.1c-0.1-0.2,0-0.3,0.1-0.5c0.2-0.2,0.5-0.4,0.7-0.3c0.2,0,0.3,0,0.5,0c0-0.4,0.1-0.7,0.2-0.8
				c0.2-0.2,0.4-0.2,0.6,0c0.2,0.2,0.2,0.4,0.2,0.8c0.8,0,1.2,0,1.3,0.1c0.1,0.2,0,0.3,0,0.4s-0.3,0.2-0.6,0.2c-0.2,0-0.4,0-0.7,0
				c0,0.2,0,0.3,0,0.5c0.6,0,1.2,0,1.8,0c0.4,0,0.5,0.1,0.5,0.2c0,0.2-0.2,0.3-0.5,0.5c-0.2,0.1-0.4,0.1-0.8,0.1
				c-0.4-0.1-0.8-0.1-1.1-0.1c0,0.2,0,0.4,0,0.6c0.1,0.6,0,1-0.2,1.2c-0.2,0.2-0.4,0.1-0.6-0.1c-0.1-0.1-0.2-0.4-0.1-0.9
				c0-0.3,0-0.6,0-0.8C32.7,30.8,32.3,30.9,31.9,31z"/>
			<path class="st3" d="M32.4,39.4c-0.3,0.3-1.2,0.9-2.8,1.9c-0.4,0.2-0.7,0.3-0.8,0.2c-0.2,0-0.3-0.1-0.4-0.3
				c-0.2-0.2-0.3-0.3-0.2-0.5c0-0.1,0.2-0.2,0.4-0.3c0.3-0.1,0.7-0.2,1.1-0.4c1.8-0.8,2.8-1.4,3-1.9c0.1-0.2,0.2-0.3,0.2-0.4
				c0.1-0.1,0.2-0.2,0.4-0.2c0.1,0,0.2,0.1,0.3,0.2c0.2,0.1,0.2,0.2,0.3,0.4c0,0.2,0.3,0.4,0.9,0.8c0.8,0.5,1.6,0.8,2.2,1.1
				c0.9,0.3,1.5,0.5,1.7,0.6c0.2,0,0.3,0.1,0.2,0.2c-0.1,0.2-0.5,0.4-1.1,0.7c-0.5,0.2-0.8,0.2-1,0c-0.2-0.1-0.6-0.4-1.1-0.8
				c-0.3-0.2-0.8-0.6-1.3-0.9c-0.5-0.3-0.8-0.5-1-0.6C33.1,39,32.7,39.1,32.4,39.4z M29.9,38c-0.5,0.2-0.9,0.1-1,0
				c-0.1-0.2-0.1-0.3,0.1-0.5c0.7-0.5,1.2-0.8,1.7-0.7c0-0.1-0.1-0.2-0.1-0.2c0-0.2,0-0.4,0.1-0.5c0.3-0.2,0.6-0.1,0.9,0.1
				c0.1,0.1,0.2,0.3,0.1,0.5c0,0-0.1,0.1-0.1,0.2c0.1,0,0.2,0,0.3,0c0.4,0,0.6,0.1,0.6,0.3c0,0.2-0.1,0.2-0.4,0.3
				c-0.2,0.1-0.4,0.1-0.6,0.1c0,0.5-0.1,0.8-0.2,0.9c-0.2,0.1-0.3,0.1-0.4,0c-0.1-0.1-0.2-0.3-0.2-0.7C30.5,37.8,30.1,37.9,29.9,38z
				 M31.4,43.8c-0.4,0.3-0.7,0.4-0.9,0.4c-0.2-0.1-0.4-0.2-0.5-0.5c-0.1-0.3,0-0.5,0.4-0.7c0.5-0.2,0.8-0.3,1.1-0.5
				c0.2-0.2,0.3-0.2,0.4-0.2c0.1,0.1,0.1,0.2,0,0.4C31.9,43.1,31.7,43.5,31.4,43.8z M35.3,40.7c0.4,0,0.5,0.1,0.5,0.2
				c0,0.2-0.2,0.4-0.5,0.6c-0.2,0.1-0.4,0.1-0.8,0.1c-0.3,0-0.6,0-0.8,0c-0.1,1.7-0.1,2.5-0.1,2.6c-0.1,0.3-0.2,0.5-0.3,0.5
				c-0.2,0-0.3,0-0.4-0.1c-0.1-0.2-0.2-1.2-0.1-3c-0.3,0-0.7,0.1-1.1,0.2c-0.6,0.2-0.9,0.2-1,0c-0.1-0.2-0.1-0.3,0-0.6
				c0.1-0.2,0.2-0.3,0.4-0.3c0.2-0.1,0.8-0.1,1.8-0.1c0-0.3,0-0.5,0.1-0.6c0.1-0.2,0.2-0.3,0.3-0.4c0.2,0,0.3,0,0.4,0.1
				c0.1,0.2,0.2,0.5,0.2,0.8C34.3,40.7,34.8,40.7,35.3,40.7z M34.3,37.6c-0.2,0-0.3,0-0.4-0.1c-0.1-0.2,0-0.4,0.1-0.6
				c0.2-0.2,0.3-0.2,0.6-0.2c0.1,0,0.2,0,0.3,0v-0.1c0-0.3,0.1-0.5,0.4-0.6c0.2-0.1,0.4,0,0.7,0.1c0.2,0.2,0.2,0.4,0.1,0.6
				c0.6,0,1.1,0.1,1.7,0.1c0.2,0,0.3,0.2,0.1,0.4c-0.2,0.3-0.4,0.6-0.7,0.7c-0.3,0.2-0.6,0.2-0.9,0c-0.2-0.1-0.3-0.2-0.5-0.2
				c-0.1,0.5-0.2,0.8-0.3,0.9c-0.2,0.1-0.3,0.1-0.4,0c-0.1-0.2-0.2-0.3-0.1-0.6c0-0.2,0-0.3,0-0.5C34.6,37.6,34.5,37.6,34.3,37.6z
				 M36.3,42.8c0.3,0.1,0.5,0.3,0.6,0.6c0,0.2-0.1,0.4-0.3,0.6c-0.2,0.1-0.3,0.1-0.6,0c-0.1-0.1-0.2-0.2-0.5-0.4
				c-0.6-0.6-0.8-1-0.8-1.1c0-0.1,0-0.1,0.1,0C35.2,42.5,35.7,42.6,36.3,42.8z"/>
		</g>
	</g>
</g>
</svg>
