<?xml version="1.0" encoding="utf-8"?>
<!-- Generator: Adobe Illustrator 26.3.1, SVG Export Plug-In . SVG Version: 6.00 Build 0)  -->
<svg version="1.1" id="圖層_1" xmlns="http://www.w3.org/2000/svg" xmlns:xlink="http://www.w3.org/1999/xlink" x="0px" y="0px"
	 viewBox="0 0 588.4 546.2" style="enable-background:new 0 0 588.4 546.2;" xml:space="preserve">
<style type="text/css">
	.st0{fill:#FE6830;}
	.st1{stroke:#C39A6B;stroke-width:0.75;stroke-linecap:round;stroke-linejoin:round;stroke-miterlimit:10;}
	.st2{fill:none;stroke:#EEECE0;stroke-width:0.75;stroke-linecap:round;stroke-linejoin:round;stroke-miterlimit:10;}
	.st3{fill:none;stroke:#C39A6B;stroke-width:0.75;stroke-linecap:round;stroke-linejoin:round;stroke-miterlimit:10;}
</style>
<g>
	<polygon points="370.4,282.2 365.3,280.2 371.4,289.3 374.4,286.2 371.4,282.2 	"/>
	<path d="M303.1,249.3l-4,3c0,0,1,5.1,3,6.1c0,0,1,0-2,4c0,0-2,2-4,1l-8.1-4c0,0,1,2-1,3l2,1c0,0,7.1,4,9.1,5.1h2l8.1-7.1l5.1-4
		l5.1-2h6.1h1h6.1l8.1,2l7.1,2l5.1,2l-2-5.1l-1-2c0,0,0,1-4-1l-4-2l-2-7.1l-3-6.1l-9.1-9.1v1l3,5.1l5.1,8.1l1,3v3v2h-1l-5.1-1h-5.1
		l-5.1,1l-6.1,2l-4,2l-2,1l-2-2l-2-3V249.3"/>
	<path d="M495.4,178.4c0,0,8.1-1,12.1-15.2l4,1c0,0-2,5.1-4,8.1l-1,2c0,0,9.6-0.9,14.8-9.6l2.3-1.7l1.2,2.3c0,0-5.2,9.3-13.7,11.6
		c0,0-2.9,0.9-5.8,0.6l-8.7,7.6l-0.9-1.5L495.4,178.4z"/>
	<path d="M441.6,187.2c0,0-7.6,2-10.2,4.9c0,0-4.7-0.9-6.1-4.7c0,0-0.3-8.7,8.1-14.8l-2-2.3c0,0-3.5,0.9-8.4,9.6
		c0,0-1.7,2.9-6.1,1.2c0,0-1.2-3.2-7.3-4.9v-15.4c0,0-2.9-0.3-4.9-2.3l-4.9,17.8c0,0-4.9,2.6-9.6,2.6V168c0,0,7.6-9.3,4.1-21.8
		l-2.6,0.6c0,0,1.7,12.5-6.4,17.5c0,0-3.2-5.5-8.7-7.3c0,0-3.5-1.5-4.9-6.4l-3.2,0.3c0,0-1.5,3.5,3.8,8.7c5.2,5.2,7.3,6.1,7.6,11.9
		s-0.6,7.3-0.6,7.3l-9.6,4.9c0,0-2.9-7.3-2.9-16.9l-4.4,0.3c0,0-1.5,11.1,2.3,20.1l-8.1,8.7c0,0-4.1,2.9-3.2,10.2l7.9,14l5.8-2.3
		l-3.5-11.6l0.3-4.4l5.5-8.1l1.7,0.9l1.7,3.2l0.6,15.7v3.2c0,0,5.8-1.5,11.9,0.3l0.9-8.4l1.2-6.1l2.6-4.1l4.4-3.8
		c0,0,1.7-0.9,2.6-2.3c0.9-1.5,3.8-5.8,4.1-7c0,0,7-6.1,12.8-0.9l8.1,8.4c0,0,5.2,6.7,8.7,5.5s11.3-5.5,11.3-5.5
		S440.4,190.4,441.6,187.2z M379.3,195.9l-4.9-6.1c5.5-4.9,14.6-4.9,14.6-4.9C387.8,191,379.3,195.9,379.3,195.9z"/>
	<path d="M393.6,224.7c0,0,6.1-0.9,9.6-17.2c0,0,0.6,3.5,0,7.9l-2,4.7c0,0,3.8,2.3,9.9-2c6.1-4.4,5.5-3.8,5.5-3.8s1.5-7,6.4-9.3
		c0,0-2.6,2.6-3.8,7.6s-4.4,8.1-9.3,10.5c-4.9,2.3-9,2-9,2l-4.4,2.3H395L393.6,224.7z"/>
	<path d="M303.1,154.3c0,0-2,2.3-6.4,1.5l-1.2,1.5l10.2,7.9l7.6,7.3l5.2,6.4c0,0,0.3,1.2-2.6,0c-2.9-1.2-19.2-9.9-25.9-8.4
		c0,0,1.7,4.1,1.5,6.1c0,0,4.1-1.2,9.3,1.5c5.2,2.6,16.6,9.6,16.6,9.6l4.7-1.2l3.2,0.6l5.2,7l9.9,14.8l4.1,5.5l12.2,12.2
		c0,0,1.6-4.6,5-6.9l-7.1-14l-1.5,0.6l-9.3-11.6l-3.5-5.5l-9.9-12.5l-2-2.3l-0.9-11.6c0,0-1.5-2.3-1.7-5.5l-3.2,0.3l0.6,12.8
		L303.1,154.3z"/>
	<path d="M353.7,230.8c0,0-0.6-4.1-3.5-6.4c-2.9-2.3-4.4-6.1-19.2-10.5c-14.8-4.4-25.9-3.5-25.9-3.5s-6.1-4.7-14.6-4.9l-6.4-4.4
		c0,0,1.5,5.2,0,9.3l3.5-0.9l4.9-0.3l3.5,0.6c0,0,3.8,0.9,6.7,5.5c0,0,3.5,0,6.1,3.5c0,0,11.3-0.9,21.2,3.8s14.6,9.3,17.5,13.1
		c0,0,1.5-2.3,4.7-4.1L353.7,230.8z"/>
	<path class="st0" d="M402,232.9c0,0-1.5-5.8-7-5.5c0,0-3.9-10.2-13.7-11.2c0,0-14.8-0.1-20.3,3.9c0,0-4.7,2.3-4.9,9.6
		c0,0-10.8,3.8-10.8,12.8c0,0,0,7.5,5.2,15.6c0,0,2.6,8.9,8.2,11.8c0,0,1.5,9.6,12.8,12.2c0,0,6.1,12.2,21,8.4c0,0,6.7,3.5,16-1.2
		c0,0,4.9,1.5,9.9-3.5c0,0-3.2,11.1,5.8,13.1c0,0,3.8,8.4,17.8,2.6c0,0,9,2.3,10.2-7.3c0,0,5.8-5.2,0-17.2c0,0,8.1-6.1-4.7-18
		c0,0-2.6-2.3-7.3-4.1c0,0,5.8-3.2,1.7-11.9c0,0,3.2-7-3.2-11.9c0,0-1.5-8.7-13.4-6.1c0,0-8.4-4.7-13.4,2.3
		C411.9,227.4,407,225.3,402,232.9z"/>
	<path class="st0" d="M441.9,192.7l-4.5,2c0,0-4.8,8.2,6,15.2c10.8,7,15.7,2.3,18.3-0.6c0,0,7.3,0.6,5.8-8.1h1.2c0,0,3.5,3.2,7.6,2
		c0,0,4.4,2.9,8.4-2c0,0,8.1,0.9,10.2-9c0,0,4.4-2.6,0.6-8.4c0,0,2.3-5.2-4.9-9.9c0,0,4.1-4.1,3.5-8.7c0,0,6.7,0.6,11.3-3.2
		c0,0,5.8,4.4,11.1,1.2c0,0,2.6,4.9,7.3,0c0,0,1.5,5.2,8.4,6.1c0,0-3.5,5.5,1.2,10.8s9.9,2.3,13.4,1.7c0,0,3.2,4.9,10.5,2.6
		c2.6-1.2,5.8-5.5,5.8-5.5s2.9,4.9,11.9,1.2c0,0,2.9-1.5,3.5-7.3c0,0,6.1,2,9.6-6.7c1.2-5.2-2-13.1-9.6-14c0,0,2.3-4.7-2.6-6.7
		c0,0-3.5-1.2-6.1,0.9c0,0-1.2-3.5-4.7-3.8l1.2-3.5c0,0,12.8-5.2,8.4-24.2c-3.8-12.2-13.1-20.1-21.8-19.8c0,0-20.1-1.5-24.2,16
		c0,0-4.4-0.3-6.1,1.2c0,0-3.8-9.6-12.5-7l-3.5-2.9c0,0-5.8-7.9-14.6-8.4c-8.7-0.6-14.6,6.1-14.6,6.1s-7,0-9,8.4h-1.7
		c0,0,3.2-12.5-8.4-14.6c-8.4-1.2-11.3,2.3-16,8.4c0,0,0-3.2-3.5-3.5c0,0,1.2-9.9-9.6-12.2c0,0,1.2-12.5-7.6-16.9
		c0,0,0.9-11.3-9-16.9c0,0-6.4-4.1-15.1-2.6c0,0-4.9-9.6-18.3-6.1c0,0-3.8-3.2-11.1-2.3c0,0,4.4-9-3.5-14.6c0,0-3.8-26.8-25.3-24.4
		c0,0-10.5-6.1-18.3,1.5c0,0-8.7-5.5-18.6-0.6c0,0-7.6,3.2-6.7,12.5c0,0-10.8,1.7-9.9,14.8c0,0-9.6-4.1-15.4,9.6c0,0-2-0.6-3.8,0
		c0,0-9.6-9.3-22.1-2.6c0,0-8.7-11.9-27.9-2.3c0,0-11.6-2.9-18,7.3c0,0-4.1,5.2-2.3,13.4c0,0-7.3,7.3-2.6,18c0,0-9.3,3.2-7.6,18.3
		c0,0-1.7,11.6,7.6,14.3c0,0,4.1,9.9,18.3,4.1c0,0,16,3.5,17.2-11.1c0,0,6.4-1.5,13.1-7.3c0,0,7.6,3.2,17.2-0.6l-1.5,4.4
		c0,0-13.7,0-10.5,16.9c0,0-14.8,0.9-10.2,19.5c0,0-1.7,14.6,12.2,19.2c0,0,0.3,4.7,1.2,6.1l-3.5,3.8c0,0-4.9-3.8-8.4,1.2
		c0,0-10.2-3.5-14.8,1.2l-3.5,5.5l-3.8,0.6c0,0-5.8-14.8-18.3-9.6c0,0-3.2-1.5-6.4,0c0,0,3.2-8.7-8.1-11.1c0,0,2.3-9.9-7-13.4
		c0,0-9.6-14-23-8.4c0,0-12.5-2.6-17.5,7.3c0,0-16-0.3-16.9,16.9c0,0-5.2,6.1-2.3,12.2c0,0-9.3,0.3-8.4,13.4h-3.5
		c0,0-2.6-7.3-9.9-6.1c-7.3,1.2-6.7,8.4-6.1,11.1h-3.5c0,0-1.7-6.1-7.3-6.1c0,0-6.7-7-13.4,1.2c0,0-6.7,0.6-8.7,5.2c0,0-7-0.9-8.1,7
		l-3.5-0.9c0,0-2.6-13.4-17.5-11.3c-14.8,2-20.1,14.3-19.2,22.7c0.9,8.4,3.2,12.5,10.2,14.8c0,0-4.1,0-4.1,3.8
		c0,0-13.4,1.2-13.4,12.2c0,0,0,6.1,8.4,8.4c0,0,2.9,7.9,13.4,4.9c0,0,4.4,4.4,11.1,0c0,0,13.4,3.2,11.9-9.6c0,0,3.8,0,4.4-2.6
		c0,0,4.4,6.1,14,6.1c0,0,3.8,4.1,7.9,4.7c0,0,0.3,2.9,2,3.8c0,0-1.2,9,8.4,7.3c0,0,4.9,7.3,10.8,0c0,0,4.4,9.6,14.3,8.4
		c0,0,9.6-2,8.7-10.2c0,0-0.6-4.7-3.5-5.5c0,0,2.6-3.8,0-6.1c0,0,7.6-1.2,6.1-13.4c0,0,6.7,0,8.7-6.1c0,0,11.3,4.9,17.5-7.3
		c0,0,7.9,2.3,12.5-4.4c0,0,2.3,4.9,4.7,5.5c0,0-5.5-0.3-9.6,4.9c0,0-10.5,2-13.4,11.1c0,0-1.5,9.3,5.8,13.4c0,0,0,15.1,18.6,11.9
		c0,0,12.2,9.9,25.6-1.5c0,0,6.1,2,7.9-5.8c0,0,7.3,1.5,6.7-9.6c0,0,8.1,3.2,11.1-2c0,0,7.3,6.7,17.2,3.2c0,0-2.9,4.9-2.6,9.6
		c0,0-6.7,4.7-7.6,13.4c0,0-0.6,7.9,6.1,10.8c0,0,0.3,10.8,14.6,12.5c0,0,9.3,0.6,15.7-7.3c0,0,3.8,8.7,16.3,4.4
		c0,0,12.5-2.3,12.8-21.5c0,0,4.1-2.6,0-8.4c0,0,16,2.6,20.7-12.5c0,0,8.4-5.2,5.2-16.6c0,0-3.5-9.6-9.9-9.6c0,0-4.1-9.3-18.6-4.9
		c0,0,2.9-10.8-4.7-18.3c0,0,5.8-0.6,4.9-7.3c0,0,11.6-3.2,4.9-15.7c0,0,0.9-4.7-1.2-7.3c0,0,4.4,0,8.7-6.1c0,0,5.8,0.6,8.1-3.8
		c0,0,3.5,3.8,10.2,1.5c0,0,5.8,4.9,10.5,3.5c0,0-0.3,9.3,10.8,8.4c0,0,1.2,6.1,8.7,4.9c0,0,0.3,10.5,16.9,7.3l0-10.5
		c0,0,6.1,2,12.4-5.3c0.1-0.1-5.2-3.6-6.3-7.7l0-3.3h3.2l2.9,4.7c0,0,3.2,1.5,6.1-6.4c0,0,1.7,6.4,10.5,6.4c0,0,0.9-4.7,0.6-8.7
		l2.6-0.6l0.8,7.2c0,0,1.9,1.3,3.6,0.1c0,0-0.4,6.9,5.2,9.3l0.9-4.3c0,0,2,2.3,4.9,2.3l-0.1,6.2c0,0,5.3,1.1,10.8-3.8
		c0,0,2.6,7,11.1,5.2c0,0-0.9,4.7,4.9,5.8c0,0-4.1,8.7,5.8,10.8C442.2,184.9,440.4,189.5,441.9,192.7z"/>
	<path d="M228.9,248.2c0,0-8.4-5.1-16-3.6l-0.5-5l-2.6,1.2l-0.7,6.1l-7.3,0c0,0-2.3,2.7-5.2,2.4l0.1,1.5c0,0,10.1,1.7,13.6,0
		c0,0,8.3-1.8,15.3,2.7l3.3-3L228.9,248.2z"/>
	<path d="M152.7,218.9c0,0-2.4-2.8-3-4.9l-3.2,0.3l2.3,6.8l3.3-1L152.7,218.9z"/>
	<path d="M140.4,219.4c0,0,0.4,4.7,2.2,5.6c0,0-2,1.9-3.3,4.9s-0.7,6.5-0.7,6.5s-4.7,2.1-7.9,5.3c0,0-2,5.2-4.9,5.8c0,0-0.9,1.5-7,0
		l-6.7-0.6l1.1-3.9c0,0,2.3-0.8,8.7,0.1c0,0,3.2-1.7,3.5-4.7s-7.1-8.6-7.1-8.6l-0.2-2.5l4-0.9c0,0,5.9,5.6,6.5,9.1l7.3-4.4l-1.7-9
		L140.4,219.4z"/>
	<g>
		<path class="st1" d="M362.1,276.6c0,0,0.9,18.5-0.4,23.2c-4.5,16.5-5.3,34-12,48.5c-2.9,6.2-6.5,11.8-9.2,18
			c-3.7,8.3-6.4,15-7.3,24.3c-1.9,20.8-3.2,41.5-9,61.7c-6.6,23.3-18.7,49.4-9,73.5c0.5,1.3,1.1,2.7,1.1,4.1
			c-0.2,6.2-14.3,9.1-17.3,15.9h70.4c0,0-5.2-9.1-4.9-18.4c0.2-7.8-7.2-14.1-10-21c-5.6-13.6-2.6-28.4-1.4-42.6
			c1.4-16.6,3.2-33.2,6.4-49.6c3.4-9.9,3.2-2.8,2.5-19c-0.8-16.6,9.1-46.8,13.1-64.6c4.1-18.4,4.1-41.4,4.1-41.4"/>
		<path class="st2" d="M285.7,29.5c0,0-1.2-10.9,9.7-13.4c0,0-1.2-9.7,8.5-13.4c9.7-3.6,17,1.2,17,1.2s6.1-7.3,18.2-1.2
			c0,0,10.9-1.2,17,6.1c6.1,7.3,8.5,18.2,8.5,18.2s7.3,4.9,3.6,14.6"/>
		<path class="st2" d="M352.5,24.6c0,0,4.9,6.1-1.2,10.9c0,0,0,8.5-7.3,9.7"/>
		<path class="st2" d="M317.2,19.8c0,0-6.1,7.3-3.6,15.8"/>
		<path class="st2" d="M305.1,23.4c0,0-1.2,4.9,0,8.5"/>
		<path class="st2" d="M271.1,39.2c0,0,2.4-7.3,8.5-8.5c6.1-1.2,15.8,2.4,15.8,14.6"/>
		<path class="st2" d="M278.4,47.7c-4.9-9.7-12.1-7.3-12.1-7.3s-3.6-3.6-10.9-4.9c-7.3-1.2-15.8,6.1-15.8,6.1s-13.4,2.4-17,14.6
			c-3.6,12.1,2.4,20.6,2.4,20.6s0,13.4,13.4,13.4c0,0,7.3,6.1,18.2,2.4"/>
		<path class="st2" d="M244.4,56.2c0,0,1.2,13.4,9.7,12.1"/>
		<path class="st2" d="M227.4,64.7c0,0,0,8.5,4.9,9.7"/>
		<path class="st2" d="M232.3,80.5c0,0,2.4,7.3,9.7,6.1"/>
		<path class="st2" d="M260.2,90.2c0,0-9.7-1.2-9.7-12.1c0-6.1,3.6-7.3,3.6-7.3s0-8.5,4.9-13.4c4.9-4.9,13.4-4.9,13.4-4.9
			s3.6-6.1,13.4-4.9c9.7,1.2,12.1,9.7,12.1,9.7s6.1,1.2,7.3,7.3c0,0,10.9,2.4,8.5,13.4"/>
		<path class="st2" d="M271.1,57.4c0,0-3.6,7.3,0,12.1"/>
		<path class="st2" d="M260.2,70.8c0,0-1.2,9.7,4.9,13.4"/>
		<path class="st2" d="M255.3,79.3c0,0,1.2,6.1,4.9,7.3"/>
		<path class="st2" d="M288.1,62.3c0,0-3.6,0-6.1,2.4"/>
		<path class="st2" d="M302.7,64.7c0,0,1.2,7.3-1.2,9.7"/>
		<path class="st2" d="M303,60.4c0,0,3.3-6.7,10.6-4.2c0,0,10.9-3.6,17,6.1c0,0,6.1,1.2,4.9,8.5"/>
		<path class="st2" d="M288.1,47.5c0,0,6.1-2.3,10.9-2.3c0,0,2.4-8.5,10.9-9.7c8.5-1.2,18.2,2.4,19.4,14.6c0,0,4.9,1.2,4.9,4.9"/>
		<path class="st2" d="M352.5,50.1c0,0-12.1-3.6-15.8,4.9c0,0-7.2,0.2-7.9,4.9"/>
		<path class="st2" d="M227.4,47.5c0,0-6.1-1.1-8.5,3.8c0,0-12.1,1.2-14.6,15.8c0,0-9.7,10.9-2.4,19.4c0,0,6.1,2.4,9.7,7.3
			s17,11.4,30.4-1.6"/>
		<path class="st2" d="M212.8,78.1c0,0,0.3,12.1,15.9,8.5"/>
		<path class="st2" d="M244.4,37.9c0,0-8.5-12-27.9-2.3c0,0-13.4-3.6-19.4,9.7c-2.4,6.1-1.2,10.9-1.2,10.9s-7.3,8.5-2.4,18.2"/>
		<path class="st2" d="M228.8,99.6c0,0,1.1,13.7-17.1,11.3c0,0-10.9,6.1-18.2-3.6c0,0-9.7-3.6-7.3-14.6c0,0-2.4-10.9,4.9-17
			c4.9-3.6,9.1-1.2,9.1-1.2"/>
		<path class="st2" d="M211.6,93.8c0,0-3.6,9.7-12.1,7.3"/>
		<path class="st2" d="M249.3,59.9c0,0,0.6,3.6,5.8,4.9"/>
		<path class="st2" d="M301.5,92.6c0,0,0-10.9-7.3-14.6c-7.3-3.6-12.1,0-12.1,0s-13.4-4.9-17,8.5c0,0-6.1,2.4-7.3,9.7
			c0,0-13.4,0-10.9,17c0,0-14.6,1.2-9.7,19.4c0,0-2.4,13.4,12.1,19.4"/>
		<path class="st2" d="M282,92.6c0,0,1.2,7.3,7.3,4.9c0,0,1.2,6.1,7.3,2.4"/>
		<path class="st2" d="M277.2,90.2c0,0-1.2,6.1,2.4,6.1"/>
		<path class="st2" d="M308.7,84.1c0,0,7.3,2.4,4.9,8.5c0,0,3.6,3.6,0,7.3"/>
		<path class="st2" d="M294.2,78.1c0,0,7.3-6.1,14.6-4.9c4.9,1.2,4.9,8.5,4.9,8.5s7.3,0,7.3,10.9c0,0,7.3,15.8-18.2,21.9
			c0,0,8.5,1.2,6.1,8.5"/>
		<path class="st2" d="M296.6,110.8c2.6,4.6,3.5,10.8,1.6,15.8c-2.4,6.6-8.8,7.2-15,7.3c0,0-9.7,7.3-13.4-3.6"/>
		<path class="st2" d="M265,96.3c0,0-2.4,12.1,6.1,13.4c0,0,0,8.5,8.5,6.1"/>
		<path class="st2" d="M262.6,101.1c0,0,0,7.3,4.9,9.7"/>
		<path class="st2" d="M251.7,120.6c0,0-2.4,14.6,8.5,15.8"/>
		<path class="st2" d="M248,125.4c0,0-3.6,9.7,3.6,12.1"/>
		<path class="st2" d="M244.4,131.5c0,0,1.2,8.5,7.3,10.9"/>
		<path class="st2" d="M305.1,104.8c0,0,0,3.6-6.1,3.6"/>
		<path class="st2" d="M296.6,115.7c0,0,2.4,13.4-7.3,15.8"/>
		<path class="st2" d="M276,120.6c0,0-3.6,1.2-6.1-2.4"/>
		<path class="st2" d="M305.1,123c0,0,6.1-1.2,9.7,3.6c0,0,6.1-2.4,10.9,7.3c1.2,7.3-2.4,9.7-4.9,10.9c0,0-3.6,14.6-15.8,7.3
			c0,0-3.6,4.9-8.5,3.6c0,0-3.6,6.1-8.5,6.1"/>
		<path class="st2" d="M303.9,127.8c0,0,3.6,0,4.9,2.4c1.2,2.4,0,4.9,0,4.9s3.6,1.2,3.6,4.9"/>
		<path class="st2" d="M285.7,153.3c0,0,0-8.5-7.3-12.1c-7.3-3.6-14.6,1.2-14.6,1.2s-9.7-2.4-13.4,6.1c-2.4,4.9,0,9.7,0,9.7"/>
		<path class="st2" d="M282,155.8c0,0,8.5,3.6,7.3,13.4c0,0,7.3,10.9-4.9,15.8c0,0,1.2,6.1-4.9,7.3"/>
		<path class="st2" d="M255.3,147.3c0,0-2.4,4.9,1.2,7.3"/>
		<path class="st2" d="M265,148.5c0,0-1.2,2.4,0,3.6"/>
		<path class="st2" d="M279.6,147.3c0,0,1.2,1.2,1.2,3.6"/>
		<path class="st2" d="M280.8,158.2c0,0,4.9,3.6,6.1,9.7"/>
		<path class="st2" d="M286.9,175.2c0,0,0,6.1-6.1,7.3"/>
		<path class="st2" d="M246.8,175.2c0,0,7.3,0,8.5,4.9c0,0,8.5,0,10.9,7.3"/>
		<path class="st2" d="M271.1,172.8c0,0,1.2,4.9-1.2,7.3"/>
		<path class="st2" d="M271.1,158.2c0,0-3.6,4.9-6.1,3.6"/>
		<path class="st2" d="M276,161.8c0,0-2.4,1.2-3.6,1.2"/>
		<path class="st2" d="M251.7,182.5c0,0,3.6,1.2,6.1,6.1"/>
		<path class="st2" d="M261.4,177.6c0,0,3.6,0,3.6,2.4"/>
		<path class="st2" d="M229.8,177.6c0,0-2.4,13.4,7.3,15.8"/>
		<path class="st2" d="M222.5,204.3c0,0-3.6-6.1,0-12.1c3.6-6.1,8.7-3.3,8.7-3.3"/>
		<path class="st2" d="M238.3,176.4c0,0-1.2,1.2-1.2,3.6"/>
		<path class="st2" d="M235.9,186.1c0,0-1.2,3.6,0,3.6"/>
		<path class="st2" d="M231,217.7c-15.8,3.6-15.8-15.8-15.8-15.8c-3.6-13.4,4.9-21.9,4.9-21.9s-3.6-8.5,3.6-15.8
			c4.9-4.9,14.6-1.2,14.6-1.2s3.6-4.9,8.5-1.2c0,0,3.6-6.1,10.9-4.9c0,0,4.9-2.4,7.3,4.9c0,0,8.5,1.2,9.7,9.7c0,0,6.1,7.3-2.4,12.1"
			/>
		<path class="st2" d="M221.3,208c0,0,2.4,6.1,10.9,4.9"/>
		<path class="st2" d="M225,208c0,0,6.1,2.4,8.5,1.2"/>
		<path class="st2" d="M257.8,166.7c0,0,2.4,1.2,2.4,2.4"/>
		<path class="st2" d="M284.5,209.2c1.9-9.7-5-22.7-16.1-21.6c-1.2,0.1-2.3,0.3-3.4,0.6c-0.3,0.1-0.9,0.4-1.2,0.4
			c-6.1-1.2-9.7,3.6-9.7,3.6c-18.2,1.2-18.2,18.2-18.2,18.2s-6.1,4.9-4.9,12.1s7.3,10.9,7.3,10.9"/>
		<path class="st2" d="M273.5,205.5c0,0,2.4-4.9-3.6-8.5c-6.1-3.6-10.9,0-10.9,0s-4.9-2.4-8.5,1.2c-3.6,3.6,0,8.5,0,8.5"/>
		<path class="st2" d="M244.4,205.5c0,0,0,4.9,2.4,6.1"/>
		<path class="st2" d="M246.8,203.1c0,0,0,3.6,2.4,6.1"/>
		<path class="st2" d="M245.6,217.7c0,0,4.9,3.6,10.9,3.6"/>
		<path class="st2" d="M238.3,218.9c0,0,1.2,8.5,7.3,9.7"/>
		<path class="st2" d="M238.3,227.4c0,0,1.2,3.6,3.6,4.9"/>
		<path class="st2" d="M272.3,240.7c0,0-10.9,1.2-14.6-9.7c-3.6-10.9,6.1-17,6.1-17s7.3-10.9,20.6-3.6c0,0,12.1-4.9,18.2,4.9
			c0.2,0.4,1.4,0.4,1.8,0.5c0.9,0.3,1.7,0.8,2.4,1.3c4.1,2.8,6.5,7.8,6.6,12.7c0.1,5-2.5,8.7-5.9,12.1c0,0-4.9,14.6-20.6,12.1
			c0,0,3.6,4.9,0,8.5c-0.1,0.1,0,0.4,0,0.6c-0.1,6.4-1.7,12.6-6.6,17c-4.3,3.8-10.9,6.5-16.7,4.6c-1.8-0.6-3.3-1.7-4.5-3.2
			c-0.2-0.2-1.5-1.7-1.3-2c-1.2,2.4-7.3,7.3-14.6,7.3c-14.6,0-15.8-12.1-15.8-12.1s-4.9-2.4-6.1-8.5c-1.2-9.7,7.3-15.8,7.3-15.8
			s0-12.1,12.1-18.2c0,0,4.9-6.1,14.6-4.9"/>
		<path class="st2" d="M300.2,227.4c0,0,4.9,4.9,3.6,8.5"/>
		<path class="st2" d="M307.5,228.6c0,0,1.2,4.9,0,7.3"/>
		<path class="st2" d="M266.3,235.9c0,0,3.6,2.4,6.1,1.2"/>
		<path class="st2" d="M251.7,240.7c0,0-4.9,3.6-4.9,6.1"/>
		<path class="st2" d="M278.4,269.9c0,0-3.6,8.5-9.7,8.5s-8.5-2.4-8.5-2.4"/>
		<path class="st2" d="M248,276c0,0-9.7,9.7-13.4,1.2"/>
		<path class="st2" d="M251.7,268.7c0,0-4.9,3.6-8.5,1.2c-3.6-2.4-3.6-7.3-3.6-7.3"/>
		<path class="st2" d="M242,262.6c0,0,2.4,6.1,7.3,3.6"/>
		<path class="st2" d="M269.9,272.3c0,0-2.4,3.6-6.1,1.2"/>
		<path class="st2" d="M232.7,227.4c0,0-9,2.4-15-4.9"/>
		<path class="st2" d="M215.3,225c0,0-4.9,3.6-7.3-2.4c0,0-3.6,1.2-7.3-1.2c-3.6-2.4-1.2-7.3-1.2-7.3"/>
		<path class="st2" d="M203.1,217.7c0,0,0,2.4,3.6,2.4"/>
		<path class="st2" d="M231,238.3c0,0-8.5,1.2-10.9-3.6"/>
		<path class="st2" d="M231.5,240.7c0,0-11.4,4.9-21.1-7.3c0,0-9.7,4.9-17-2.4s-4.9-14.6-4.9-14.6s-2.4-4.9,2.4-8.5
			c0,0-1.2-10.9,7.3-15.8c8.5-4.9,16.3,0,16.3,0"/>
		<path class="st2" d="M220.1,169.8c0,0-8.5-0.7-8.5,10.2c0,0-9.7,0-8.5,10.3"/>
		<path class="st2" d="M171.6,211.6c0,0-7.3-6.1-7.3-13.4c0-6.1,2.4-7.3,2.4-7.3s-2.4-8.5,3.6-13.4c6.1-4.9,10.9-2.4,10.9-2.4
			s-1.2-7.3,6.1-12.1c7.3-4.9,10.9-2.4,10.9-2.4s4.9-2.4,9.7,0c4.9,2.4,8.3,10,8.3,10"/>
		<path class="st2" d="M176.4,186.1c0,0-1.2,7.3,6.1,9.7"/>
		<path class="st2" d="M174,189.8c0,0,0,4.9,3.6,6.1"/>
		<path class="st2" d="M187.3,182.5c0,0-1.2,4.9,3.6,6.1"/>
		<path class="st2" d="M191.6,201.1c0,0-6.7-1.6-11.6,4.5c0,0-9.7,2.4-10.9,13.4c-1.2,10.9,8.5,18.2,13.4,18.2c0,0,8.9,7.2,15.4-3.1
			"/>
		<path class="st2" d="M193.4,233.5c0,0-3.6,4.9-10.9,0"/>
		<path class="st2" d="M174,227.4c0,0,1.2,6.1,6.1,6.1"/>
		<path class="st2" d="M176.4,223.7c0,0,1.2,3.6,4.9,2.4"/>
		<path class="st2" d="M214.3,237.4c0,0-2.7,5.7-11.2,2.1c0,0,1.2,9.7-6.1,9.7c0,0-1.2,7.3-8.5,6.1c0,0-9.7,10.9-25.5,1.2
			c0,0-18.2,3.6-18.2-12.1c0,0-7.3-2.4-6.1-12.1c1.2-9.7,13.4-12.1,13.4-12.1s2.4-4.9,8.5-4.9c6.1,0,8.5,3.6,8.5,3.6"/>
		<path class="st2" d="M153.3,231c0,0-1.2,4.9,9.7,3.6"/>
		<path class="st2" d="M150.9,237.1c0,0-1.2,6.1,4.9,6.1c0,0,0,3.6,8.5,3.6"/>
		<path class="st2" d="M147.3,242c0,0,1.2,4.9,4.9,4.9"/>
		<path class="st2" d="M186.1,246.8c0,0-6.1,4.9-12.1,3.6"/>
		<path class="st2" d="M186.1,250.5c0,0-4.9,3.6-7.3,3.6"/>
		<path class="st2" d="M155.8,229.8c0,0,0,2.4,4.9,2.4"/>
		<path class="st2" d="M169,178.9c0,0-4.8-6.1-12-6.1c-7.3,0-8.5,2.4-8.5,2.4s-8.5-3.6-9.7,4.9c0,0-12.1,3.6-9.7,15.8
			c2.4,12.1,9.7,13.4,9.7,13.4s2.4,6.1,10.9,4.9c8.5-1.2,7.3-6.1,7.3-6.1s1.1,6.3,5.4,7.4"/>
		<path class="st2" d="M140,186.1c0,0-3.6,9.7,6.1,9.7c0,0,1.2,6.1,7.3,7.3s7.3-3.6,7.3-3.6"/>
		<path class="st2" d="M191.6,160.7c0,0,3-8.6-7.9-11c0,0,1.2-10.9-7.3-13.4c0,0-9.7-14.6-23.1-8.5c0,0-13.4-2.4-17,7.3
			c0,0-15.8-1.2-17,17c0,0-6.1,6.1-2.4,12.1c0,0-9.7,0-8.5,13.4h-3.6c0,0-1.2-7.3-9.7-6.1S89,182.5,89,182.5h-3.6
			c0,0-1.2-6.1-7.3-6.1c0,0-7.3-7.3-13.4,1.2c0,0-9.7,0-9.7,9.7c0,4.9,3.6,7.3,6.1,7.3"/>
		<path class="st2" d="M159.2,172.8c0,0-2.2-6.1,3.9-7.3c0,0,1.2-9.7,10.9-6.1c0,0,3.6-3.6,8.5,0c0,0,4.9,0,4.9,3.6"/>
		<path class="st2" d="M128.9,191c0,0-5.9,0-4.7-4.9c0,0-3.6-3.6-1.2-10.9c2.4-7.3,8.5-4.9,8.5-4.9s0-10.9,13.4-12.1
			c8.5,0,9.7,6.1,9.7,6.1s4.3-1.2,5.8,2.4"/>
		<path class="st2" d="M132.7,174c0,0-0.6,4.9,3.3,7.3"/>
		<path class="st2" d="M126.6,177.6c0,0-0.5,6.1,4,8.5"/>
		<path class="st2" d="M148.5,164.3c0,0,5.6,2.7,5.8,8.6"/>
		<path class="st2" d="M167.2,177c0,0-5.4,4.3-4.1,11.5"/>
		<path class="st2" d="M166.7,140c0,0,4.9,2.4,2.4,8.5"/>
		<path class="st2" d="M177.6,149.7c0,0,0,6.1-2.4,6.1"/>
		<path class="st2" d="M137.6,148.5c0,0-2.4,6.1,1.2,8.5"/>
		<path class="st2" d="M154.6,141.2c0,0,0,4.9-3.6,4.9"/>
		<path class="st2" d="M160.6,154.5c0,0-2.4,3.6-4.9,2.4"/>
		<path class="st2" d="M130.3,153.3c0,0-1.2,4.9,2.4,6.1"/>
		<path class="st2" d="M120.6,188.5c0,0-3.6-4.9-9.7-3.6s-6.1,7.3-6.1,7.3"/>
		<path class="st2" d="M116.9,164.3c0,0,7.7-1.8,11.1,5.8"/>
		<path class="st2" d="M109.6,198.3c-3.6-6.1-6.1-7.3-9.7-8.5c-9.7-1.2-12.1,4.9-12.1,4.9s-2.4-4.9-8.5-3.6
			c-6.1,1.2-8.5,10.9-2.4,14.6c0,0-1.2,12.1,10.9,9.7"/>
		<path class="st2" d="M84.1,227.4c-3.6,0-3.6-4.9-3.6-4.9c-12.1,3.6-12.1-8.5-12.1-8.5s-3.6,1.2-7.3-3.6c-3.6-4.9,0-9.7,0-9.7
			s-1.2-6.1,2.4-8.5c3.6-2.4,8.5,0,8.5,0"/>
		<path class="st2" d="M52.6,194.6c0,0-12.1-3.6-14.6,10.9c0,0-4.9,6.1,2.4,10.9c0,0,2.4,12.1,13.4,8.5c0,0,2.4,4.9,10.9,2.4
			c0,0,8,3.7,12.5-4.2"/>
		<path class="st2" d="M55.9,182.8c0,0-7-0.3-8.2,7c0,0-9.7-3.6-19.4,4.9c-7.3,6.1-6.1,15.8-6.1,15.8s-3.6,1.2-2.4,4.9
			c0,0-6.1-1.2-6.1,3.6c0,0-13.4,1.2-13.4,12.1c0,6.1,8.5,8.5,8.5,8.5s3.6,8.5,13.4,4.9c0,0,4.9,4.9,10.9,0c0,0,13.4,3.6,12.1-9.7
			c0,0,4.9,0,4.9-4.9c0,0,4.3,1.7,5.8-2.8"/>
		<path class="st2" d="M27.1,214c0,0-4.9,3.6-1.2,8.5c0,0,0,10.9,10.9,7.3"/>
		<path class="st2" d="M7.7,233.5c0,0,2.4,4.9,8.5,4.9c0,0,2.4,3.6,6.1,1.2"/>
		<path class="st2" d="M40.4,233.5c0,0-1.2,4.9-4.9,4.9"/>
		<path class="st2" d="M40.4,239.5c0,0-3.6,3.6-9.7,2.4"/>
		<path class="st2" d="M35.6,201.9c0,0-7.3,1.2-9.7,7.3"/>
		<path class="st2" d="M50.2,189.8c0,0,1.2,4.9,6.1,6.1"/>
		<path class="st2" d="M64.7,208c0,0,2.4,2.4,7.3,2.4"/>
		<path class="st2" d="M90.2,222.5c-3.6-6.1-2.4-14.6,3.6-18.2c6.1-3.6,13.4,1.2,13.4,1.2s0-8.5,6.1-8.5c6.1,0,7.3,4.9,7.3,4.9
			s6.1-1.2,8.5,1.2c2.4,2.4,3.6,10.9-1.2,13.4c0,0,1.2,9.7-9.7,10.9c0,0,2.4,10.9-6.1,13.4c0,0,2.4,2.4,0,6.1c0,0,3.6,1.2,3.6,7.3
			s-14.6,15.8-23.1,0c0,0-4.9,7.3-10.9,0c0,0-8.5,2.4-8.5-7.3c0,0-3.6-3.6-1.2-8.5c2.4-4.9,8.5-3.6,8.5-3.6s0-6.1,3.6-7.3"/>
		<path class="st2" d="M47.7,228.6c0,0-4.9,3.6-10.9,3.6"/>
		<path class="st2" d="M95.1,216.5c0,0,0,6.1,4.9,7.3"/>
		<path class="st2" d="M91.4,225c0,0,2.4,4.9,6.1,6.1"/>
		<path class="st2" d="M114.5,229.8c0,0-2.4,4.9-6.1,4.9"/>
		<path class="st2" d="M82.9,242c0,0,1.2,6.1,6.1,7.3"/>
		<path class="st2" d="M18.6,198.3c0,0,1.7,3.8,4.5,4.3"/>
		<path class="st2" d="M17.7,215.1c-7.2-1.9-10.1-9-10.1-15.9c0-7.9,3.1-13.7,9.5-18.2c0.5-0.3,1-0.7,1.5-1c7.3-4.9,23.3-3.8,25.6,9
			"/>
		<path class="st2" d="M74.5,226.4c0,0,2.4,5.8,6,8.3"/>
		<path class="st2" d="M72,227.8c0,0,2.5,4.9,4.3,7.1"/>
		<path class="st2" d="M63.1,227.8c0,0,1.6,6.9,8.9,10.5"/>
		<path class="st2" d="M49.6,232.2c0,0,6.6,7.3,13.9,6.1c0,0,4.7,4.6,7.8,4.7"/>
		<path class="st2" d="M53.2,229.9c0,0,3,4.7,10.3,4.7c0,0-2.8-2.4-4.4-6.7"/>
		<path class="st3" d="M112.1,246.8c0,0,6.1,0,10.9,1.2c0,0,3.6,1.2,6.1-3.6c2.4-4.9,9.7-8.1,9.7-8.1"/>
		<path class="st3" d="M118.4,229.9c0,0,4.6,2.4,7,8.5c0,0,0,3.6-3.6,4.9c0,0-5.2-1.4-8.7-0.1"/>
		<path class="st2" d="M144.4,214c0,0-4.7,11.3-17.3,7.5"/>
		<path class="st3" d="M149.7,214c0,0,1.2,3.6,3,4.9"/>
		<path class="st3" d="M146.5,214.2c-0.4-0.1,2.4,7,2.4,7"/>
		<path class="st3" d="M140.4,219.3c0,0,0,4.5,2.2,5.7"/>
		<path class="st3" d="M134.3,222.1l2.1,8.9c-3.6,1.2-7.3,4.9-7.3,4.9c-2.4-6.1-7-9.5-7-9.5"/>
		<path class="st2" d="M84.1,182.5c0,0-6,1.9-6,8.9"/>
		<path class="st2" d="M63.5,184.9c0,0-1.2,4.8,1.2,6.7"/>
		<path class="st2" d="M76.9,180c0,0,3.8,1.4,5,3.7"/>
		<path class="st2" d="M62.3,216.5c0,0,2.4,3.6,4.9,2.4"/>
		<path class="st2" d="M47.7,215.2c0,0,1.2,2.4,3.6,2.4"/>
		<path class="st2" d="M115.7,214c0,0,0,6.1-3.6,6.1"/>
		<path class="st3" d="M212.4,239.6l0.5,4.8c0,0,9-0.9,16,3.8"/>
		<path class="st3" d="M225.6,253.4c-0.6-0.5-6.7-4.1-12.7-2.9c-6.1,1.2-4.5,1.6-16.2,0.2"/>
		<polyline class="st3" points="209.7,240.7 209.2,246.8 201.8,246.8 		"/>
		<path class="st3" d="M286.9,262.6c0,0,9.7,6.1,12.1,6.1c2.4,0,8.5-8.5,15.8-12.1c7.3-3.6,30.4,0,37.6,6.1"/>
		<path class="st2" d="M298.8,252.3c0.2,0.6,1.4,5.5,3.9,6.7c0,0-3.6,4.9-4.9,4.9c-1.2,0-9.4-4.1-9.4-4.1"/>
		<path class="st3" d="M302.7,249.4c0,0,1.2,5.9,4.9,7.1c0,0,13.4-9.7,27.9-4.9c0,0,1.2-4.9-1.2-8.5c-2.4-3.6-8.5-14.6-8.5-14.6
			s4.9,4.9,7.3,7.3c2.4,2.4,7.3,8.5,7.3,15.8c0,0,4.9,1.2,8.5,3.6"/>
		<path class="st3" d="M284.2,201.1l6.3,4.5c0,0,7.3,0,14.6,4.9c0,0,41.3,0,48.6,19.4"/>
		<path class="st3" d="M347.6,235.9c0,0-12.9-18.2-38.6-17"/>
		<path class="st2" d="M368.2,125.4c0,0,3.6-1.2,2.4-8.5c-1.2-7.3-8.5-7.3-8.5-7.3s-3.6-12.1-17-10.9c-13.4,1.2-23.1,10.9-20.6,18.2
			c0,0-9.7,0-9.7,9.7"/>
		<path class="st2" d="M328.2,121.8c0,0-5.7-0.1-8.3,5.4"/>
		<path class="st2" d="M337.9,118.1c0,0-1.2,7.3,4.9,9.7s9.7-2.4,9.7-2.4"/>
		<path class="st2" d="M335.5,129.1c0,0-2.4,6.1,1.2,10.9c2.4,2.4,8.5,1.2,8.5,1.2s0,6.1,8.5,2.4"/>
		<path class="st2" d="M344,148.5c0,0-2.4,9.7-12.1,7.3"/>
		<path class="st2" d="M315.2,153.1c0,0,4.5,5,10.5,3.8c0,0,0,9.7,10.9,8.5c0,0,1.2,6.1,8.5,4.9c0,0,1.2,10.9,17,7.3"/>
		<path class="st2" d="M374.3,161.8c0,0-4.9,7.3-13.4,4.9"/>
		<path class="st2" d="M374.3,147.3c0,0-3.6,7.3-9.7,1.2"/>
		<path class="st2" d="M354.9,147.3c0,0,1.2,8.5,10.9,7.3"/>
		<path class="st2" d="M342.7,158.2c0,0-2.4,3.6-4.9,4.9"/>
		<path class="st3" d="M368.2,150.7c0,0-1.1,3.8,2.5,7.4c3.6,3.6,7.3,6.1,8.5,9.7c1.2,3.6,0,10.9,0,10.9l-9.7,4.9
			c0,0-3.4-10.4-2.9-16.7"/>
		<path class="st3" d="M362.2,167c0,0-1.2,14.3,2.4,20.4c0,0-9.7,9.7-10.9,12.1s0,7.3,0,7.3s-9.7-10.9-12.1-15.8
			c-2.4-4.9-13.4-17-13.4-17l-0.5-11.5"/>
		<polyline class="st3" points="322.7,157.1 323.3,170.3 303,154.2 		"/>
		<path class="st3" d="M295.5,157.3c0,0,15.6,10.6,22.9,21.6c0,0,1.2,2.4-10.9-3.6c-12.1-6.1-17.5-4.9-17.5-4.9"/>
		<path class="st3" d="M291.5,176.4c0,0,5.1-1.2,13.6,3.6c8.5,4.9,12.1,7.3,12.1,7.3s6.1-2.4,8.5,0c2.4,2.4,15.8,24.3,18.2,26.7
			c2.4,2.4,12.1,12.1,12.1,12.1"/>
		<path class="st2" d="M364.6,110c0,0,7.3-13.8,20.6-6.5c0,0,10.9-4.9,15.8,6.1c0,0,12.1,1.2,14.6,15.8s-14.6,17-14.6,17
			s-4.9,6.1-14.6,3.6"/>
		<path class="st3" d="M371.4,150.3c0,0,1.6,5.5,5.3,6.7c3.6,1.2,7.3,4.9,8.5,7.3c0,0,7.5-3.7,6.2-17.6"/>
		<path class="st3" d="M394.3,146.6c0,0,3.1,11.6-4.2,21.3v10.9c0,0,3.6,0,9.7-2.4c0,0,4.9-15.8,4.9-18.2"/>
		<path class="st2" d="M391,155.4c0,0-9.4,0.3-10.6-7c0,0-1.6,7.3-5.6,7.3"/>
		<path class="st2" d="M399.8,116.9c0,0,3.6,7.3,0,12.1c-3.6,4.9-7.3,4.9-7.3,4.9s-7.3,12.1-18.2,4.9"/>
		<path class="st2" d="M380.4,126.6c0,0-1.2,4.9-7.3,3.6"/>
		<path class="st2" d="M394.9,153.1c0,0,2.5,1.4,3.7,0.2c0,0-0.6,6.6,5.1,9.4"/>
		<path class="st3" d="M388.9,184.9c0,0-9.7,0-14.6,4.9l4.9,6.1C379.2,195.8,387.7,191,388.9,184.9z"/>
		<path class="st2" d="M403.4,155.8c0,0,1.2,6.1,8.5,4.9"/>
		<path class="st2" d="M420.4,163c0,0-4.9,4.9-10.9,3.6"/>
		<path class="st3" d="M409.5,160.6v15.8c0,0,6.1,1.2,7.3,4.9c0,0,4.9,1.2,6.1-1.2s4.9-8.5,8.5-9.7"/>
		<path class="st2" d="M483.6,178.8c2.4-6.1-3.6-8.5-3.6-8.5c-3.6-8.5-13.4-4.9-13.4-4.9c7.3-2.4,3.6-10.9,3.6-10.9
			s2.4-14.6-8.5-19.4c-10.9-4.9-15.8,4.9-15.8,4.9c-1.2-1.2-3.6-1.2-3.6-1.2s3.6-8.5-4.9-9.7c-8.5-1.2-9.7,3.6-9.7,3.6
			s-8.5-1.2-13.4,7.3c-4.9,8.5,1.2,17,4.9,17c0,0,0,8.5,6.1,10.9c2.4,1.2,6.1,0,6.1,0s-1.2,4.9,4.9,6.1c0,0-3.6,9.7,6.1,10.9
			c0,0-3.6,7.3,2.4,10.9c0,0,4.9,9.7,13.4,4.9c0,0,3.6,4.9,10.9,0c0,0,1.2,3.6,7.3,2.4c0,0,4.9,3.6,8.5-2.4c0,0,8.5,1.2,9.7-8.5
			c0,0,4.9-2.4,1.2-8.5c0,0,1.2-10.9-10.9-10.9"/>
		<path class="st2" d="M328.2,106.6c0,0-4.9-9.1,2.4-15.2c7.3-6.1,17-6.1,19.4-3.6c0,0,6.1-4.9,14.6-1.2c3.6,2.4,3.6,7.3,3.6,7.3
			s6.1,2.3,4.9,8.5"/>
		<path class="st2" d="M344,92.6c0,0-9.4,2.6-8.3,8.6"/>
		<path class="st2" d="M335.5,92.6c0,0-7.3,4.3-3.6,10.7"/>
		<path class="st2" d="M359.7,98.7c0,0,3.6,4.3,1.2,8.2"/>
		<path class="st2" d="M367,97.5c0,0,3.1,5.6,1.5,7.7"/>
		<path class="st2" d="M370.4,95.2c0,0,2.7-3.8,6.3-3.8c0,0,4.9-12.1,19.4-9.7c14.6,2.4,13.4,13.4,13.4,13.4s6.1-1.2,9.7,7.3
			c0,0,7.3,7.3,0,13.4c0,0,2.9,6.1-4,7.9"/>
		<path class="st2" d="M408.3,99.9c0,0,0.6,8.6-4.6,10.4"/>
		<path class="st2" d="M416.8,106c0,0,0.8,8.5-4.4,10.9"/>
		<path class="st2" d="M385.2,90.2c0,0-4.7,6.3-2.4,12.3"/>
		<path class="st2" d="M386.4,96.3c0,0-1.2,4,0,6.9"/>
		<path class="st2" d="M340.3,39.2c0,0-8.5,0.5-12.1,5.7"/>
		<path class="st2" d="M300.2,48.9c0,0-2.1,5.7-1,8.9"/>
		<path class="st2" d="M322.1,45.3c0,0,2.4,6.1,1.2,10.9"/>
		<path class="st2" d="M330.6,91.4c0,0-2.4,0-1.2-6.1c0,0-4.9-3.6-1.2-9.7s9.7-4.9,9.7-4.9s0-9.7,7.3-12.1c0,0-1.2-4.9,9.7-9.7
			c0,0,4.9-7.3,15.8-7.3c0,0,6.1,0,8.5,2.4c0,0,12.1-3.6,18.2,6.1c0,0,23.1-3.6,24.3,19.4c0,0,8.5,3.6,7.3,17"/>
		<path class="st2" d="M358.5,59.9c0,0-6.1,4.9-1.2,10.9c0,0-2.4,8.5,4.9,12.1"/>
		<path class="st2" d="M340.3,75.6c0,0-1.3,5.5,4.8,10.6"/>
		<path class="st2" d="M347.6,75.6c0,0,1.2,8.5,6.1,10.3"/>
		<path class="st2" d="M369.4,78.1c0,0-1.2,3.6,4.9,3.6c0,0,1.1,4.4,5.4,5.2"/>
		<path class="st2" d="M375.5,59.9c0,0,1.2,4.9,6.1,4.9"/>
		<path class="st2" d="M398.6,67.1c0,0,2.4,13.4-2.4,14.6"/>
		<path class="st2" d="M409.5,72c0,0,0,8.5-3.6,10.9"/>
		<path class="st2" d="M413.4,95.7c0,0,3.4-9.1,11.9-9.1c8.5,0,13.4,3.6,13.4,12.1c0,0,3.6,0,3.6,3.6c0,0,6.1-12.1,17-8.5
			c10.9,3.6,7.3,14.6,7.3,14.6s13.4-2.4,14.6,9.7"/>
		<path class="st2" d="M425.3,119.3c0,0,3.6-8.5,12.1-6.1c0,0,4.9,1.2,4.9,7.3"/>
		<path class="st2" d="M414.4,82.9c0,0-1.2,4.9-3.6,6.1"/>
		<path class="st2" d="M440.4,130c0,0,1.9-3.4,5.5-3.4c-0.2,0,0.8-4.1,0.9-4.3c0.8-2,2.2-3.7,4.3-4.7c6.9-3.1,13.5-0.1,17.9,5.4
			c0,0,4.9-8.5,14.6-3.6c9.7,4.9,2.4,15.8,2.4,15.8s1.7,17.1-15.6,16.4"/>
		<path class="st2" d="M482.4,189.8c0,0-6.1,10.9-15.8,2.4"/>
		<path class="st2" d="M439.9,171.5c0,0,0,6.1,7.3,7.3"/>
		<path class="st2" d="M435,152.1c0,0-1.2,6.1,4.9,8.5"/>
		<path class="st2" d="M461.7,153.3c0,0,2.4,7.3-3.6,8.5"/>
		<path class="st2" d="M461.7,170.3c0,0,1.2,3.6,4.9,2.4"/>
		<path class="st2" d="M489.6,188.5c0,0,0,6.1-6.1,4.9"/>
		<path class="st2" d="M492.1,192.2c0,0-1.2,6.1-7.3,3.6"/>
		<path class="st2" d="M490.9,116.9c0,0,7.3-4.9,13.4,0c6.1,4.9,1.2,10.9,1.2,10.9s4.9,4.9,2.4,12.1c-2.4,7.3-9.7,6.1-9.7,6.1
			s2.4,14.6-15.8,14.6c0,0-1.2,5.2-4.8,6.3"/>
		<path class="st2" d="M468.3,108.2c0,0,0.7-7.1,9.2-8.3c0,0,3.6-6.1,13.4-6.1c9.7,0,15.8,8.5,15.8,8.5s4.9,2.4,4.9,8.5
			s-2.4,8.5-2.4,8.5l-2,1.8"/>
		<path class="st2" d="M493,158.2c0,0,3.3,10.8-2.5,15.7"/>
		<path class="st2" d="M490.6,159.3c0,0,1.5,10-4,13.6"/>
		<path class="st3" d="M507.8,163c0,0-4.1,14.8-13,15.3"/>
		<path class="st3" d="M524.8,165.5c0,0-7.3,13.4-19.4,12.1l-8.5,7.3"/>
		<path class="st3" d="M521.2,165.5c0,0-7.3,9.7-14.6,8.5c0,0,3.6-4.9,4.9-9.7"/>
		<path class="st2" d="M509.7,105.1c0,0,9.1-2.8,12.7,7c0,0,2.4-1.2,6.1-1.2c0,0,1.2-13.4,20.6-15.8c19.4-2.4,27.9,20.6,26.7,29.1
			s-7.3,14.6-9.7,14.6l-1.2,3.6c0,0,3.6,0,4.9,3.6c0,0,3.6-2.4,7.3,0c3.6,2.4,1.2,6.1,1.2,6.1s9.7,0,9.7,12.1c0,6.1-6.1,9.7-9.7,8.5
			c0,0,0,7.3-6.1,8.5s-9.7-2.4-9.7-2.4s-2.4,6.1-8.5,6.1c-6.1,0-7.3-3.6-7.3-3.6s-8.5,4.9-13.4-1.2c-4.9-6.1-1.2-10.9-1.2-10.9
			s-6.1,0-8.5-6.1c0,0-3.6,4.9-7.3,0c0,0-3.6,3.6-10.9-1.2c0,0-3.5,3.8-11.5,3.1"/>
		<path class="st2" d="M510.5,116.7c0,0,4.6,0.2,5.8,2.6c0,0,8.5-3.6,17,4.9s2.4,20.6,2.4,20.6s1.2,19.4-21.9,13.4"/>
		<path class="st2" d="M538.2,129.1c0,0,8.5-2.4,13.4,3.6c0,0,6.1,0,7.3,4.9"/>
		<path class="st2" d="M575.8,169.1c0,0-1.2,3.6-7.3,2.4c0,0-2.4,6.1-9.7,2.4"/>
		<path class="st2" d="M534.6,172.8c0,0,1.2,7.3,8.5,7.3"/>
		<path class="st2" d="M538.2,165.5c10.9,1.2,10.9-8.5,10.9-8.5s7.3-1.2,6.1-8.5c-1.2-7.3-7.3-7.3-7.3-7.3"/>
		<path class="st2" d="M527.3,160.6c0,0,0,4.9,6.1,6.1"/>
		<path class="st2" d="M538.2,171.5c0,0,2.4,4.9,7.3,4.9"/>
		<path class="st2" d="M505.4,148.5c0,0-1.2,4.9-6.1,3.6"/>
		<path class="st2" d="M529.7,148.5c0,0-1.2,6.1-6.1,6.1"/>
		<path class="st2" d="M524.8,143.6c0,0,0,6.1-6.1,7.3"/>
		<path class="st2" d="M503,137.6c0,0-3.6,4.9-9.7,3.6"/>
		<path class="st2" d="M493.3,154.5c0,0-6.1,3.6-9.7,1.2"/>
		<path class="st2" d="M477.5,136.3c0,0-2.9,5.9-8.7,6"/>
		<path class="st2" d="M472.6,136.3c0,0-3.1,3.5-5.2,3.6"/>
		<path class="st2" d="M467.4,201.2c0,0,2.8,8-5.7,8c0,0-3.6,6.1-12.1,3.6c-8.5-2.4-15.8-9.7-12.1-18.2"/>
		<path class="st3" d="M385.2,216.5c0,0,0-12.1,3.6-17c3.6-4.9,7.3-3.6,12.1-14.6c0,0,7.3-6.1,13.4,0c6.1,6.1,12.1,14.6,15.8,13.4
			c3.6-1.2,7.5-4,11.6-5.7"/>
		<path class="st3" d="M441.5,187.3c0,0-7.7,2.4-10.1,4.9c0,0-6.1-1.2-6.1-6.1c0-4.9,4.9-12.1,7.9-13.4"/>
		<path class="st3" d="M373.1,216.5c0,0,0-10.9,0-15.8c0-4.9-3.6-7.3-3.6-7.3s-6.1,6.1-6.1,10.9c0,4.9,3.6,13.4,3.6,13.4"/>
		<path class="st2" d="M439.9,255.3c6.1-3.6,2.4-12.1,2.4-12.1c2.4-8.5-3.6-12.1-3.6-12.1c-2.4-8.5-13.4-6.1-13.4-6.1
			c-9.7-4.9-13.4,2.4-13.4,2.4c-7.3-1.2-9.7,6.1-9.7,6.1c-2.4-7.3-7.3-6.1-7.3-6.1s-1.2-3.6-6.1-8.5c-4.9-4.9-23.1-2.4-27.9,1.2
			s-4.9,9.7-4.9,9.7s-10.9,3.6-10.9,12.1s4.9,14.6,4.9,14.6s2.4,9.7,8.5,13.4c0,0,1.3,8.9,12.8,12.3"/>
		<path class="st2" d="M369.4,265c0,0-6.1-1.2-3.6-8.5c0,0-1.2-8.5,4.9-10.9c0,0,2.4-7.3,10.9-6.1c8.5,1.2,6.1,6.1,6.1,6.1
			s1.2-3.6,6.1-3.6c0,0,4.9-4.9,12.1-1.2c0,0,7.3,1.2,7.3,6.1c0,0,12.1,2.4,8.5,14.6c0,0,8.5,7.3-1.2,15.8c0,0,1.2,13.4-12.1,12.1
			c0,0-8.5,4.9-15.8,1.2c0,0-9.7,3.6-18.2-4.9c-8.5-8.5-6.1-14.6-6.1-14.6S365.8,266.2,369.4,265z"/>
		<path class="st2" d="M379.2,269.9c0,0,2.4,12.1,13.4,9.7"/>
		<path class="st2" d="M374.3,277.2c0,0,4.9,9.7,15.8,8.5"/>
		<path class="st2" d="M416.8,254.1c0,0,1.2,7.3-1.2,8.5c0,0,6.1,6.1,0,10.9"/>
		<path class="st2" d="M407.1,273.5c0,0,3.6,3.6,9.7,2.4"/>
		<path class="st2" d="M421.1,252.3c0,0,9.1-5.5,16.3,3c0,0,7.3-2.4,15.8,10.9c2.4,4.9,1.2,9.7-1.2,10.9c0,0,6.1,9.7,0,17
			c0,0,0,8.5-9.7,7.3c0,0-12.1,6.1-18.2-2.4c0,0-8.2-1-5.9-13.2"/>
		<path class="st2" d="M374.3,218.9c0,0-13.4,0-13.4,9.7"/>
		<path class="st2" d="M353.7,235.9c0,0-6.1,2.4-3.6,8.5"/>
		<path class="st3" d="M393.6,224.8c0,0,3.7-1.1,6.2-7.1c2.4-6.1,3.6-10.9,3.6-10.9s1.2,7.3-2.4,13.4c0,0,2.4,1.2,6.1,0
			s9.7-6.1,9.7-6.1s0-6.1,7.3-9.7c0,0-4.9,3.6-4.9,8.5c0,4.9-10.9,13.4-18.2,12.1l-4.4,2.4"/>
	</g>
</g>
</svg>
