<?xml version="1.0" encoding="utf-8"?>
<!-- Generator: Adobe Illustrator 26.3.1, SVG Export Plug-In . SVG Version: 6.00 Build 0)  -->
<svg version="1.1" id="圖層_1" xmlns="http://www.w3.org/2000/svg" xmlns:xlink="http://www.w3.org/1999/xlink" x="0px" y="0px"
	 viewBox="0 0 205.5 392.3" style="enable-background:new 0 0 205.5 392.3;" xml:space="preserve">
<style type="text/css">
	.st0{fill:#FE6830;stroke:#EEECE0;stroke-width:0.75;stroke-linecap:round;stroke-linejoin:round;stroke-miterlimit:10;}
	.st1{stroke:#C39A6B;stroke-width:0.75;stroke-linecap:round;stroke-linejoin:round;stroke-miterlimit:10;}
</style>
<g>
	<g>
		<path class="st0" d="M115.2,69.8c0,0,0.1-5.4-5.7-6.6s-8.1,2.3-9.3,4.6c0,0-5.8-3.5-10.5,2.3c0,0-7-4.6-10.5,2.3l-5.7,14.4l1,3
			l2.4,0.1c0,0,7,5.8,12.8,2.3c5.8-3.5,4.6-9.3,4.6-9.3s2.3,0,4.6-1.2c2.3-1.2,2.3-4.6,2.3-4.6c1.2,0,3.7-1,3.7-1l5.4-2.3
			L115.2,69.8z"/>
	</g>
	<path class="st0" d="M90.5,145c0,0-6.5-0.5-8.9,6.5c0,0-8.1-3.5-12.8,4.6s9.3,11.6,12.8,8.1c3.5-3.5,3.5-4.6,3.5-4.6s2.2,1.4,4,0.7
		"/>
	<g>
		<path class="st1" d="M174.6,99.2c0,0-5.8-1.2-9.3-2.3c-3.5-1.2-1.2-7-4.6-9.3c-3.5-2.3-3.5,3.5-3.5,8.1c0,4.6-11.6,9.3-20.9,11.6
			c-9.3,2.3-12.8,2.3-16.3,2.3c-3.5,0-4.6,1.2-7,7s-3.5,7-8.1,9.3c0,0-7,4.6-7,10.5c0,5.8-2.3,34.8-4.6,45.3
			C91,192.1,80.5,213,80.5,213s8.1-7,15.1-11.6c7-4.6,15.1-7,20.9-9.3c5.8-2.3,8.1-7,5.8-10.5s-2.3-5.8-1.2-9.3
			c0,0-6.6-2.5-6.6-10.5l3-2c0,0-1.1,7.9,2.4,9c3.5,1.2,3.5,1.2,3.5,1.2s8.1-3.5,11.6-3.5c2.2,0,8.6,4.8,12.4,6.9
			c2.8,1.5,5.9,2.4,9.1,2.4l-1-2l-1,7l-3-2c0,0-6.1-1.8-8.4-4.2c-2.3-2.3-5.8-5.8-8.1-5.8c-2.3,0-8.1,2.3-10.5,5.8s1.2,8.1,2.3,8.1
			c0,0,1.2,8.1-9.3,11.6s-17.4,8.1-24.4,13.9c-7,5.8-10.5,10.5-16.3,12.8c0,0-9.3,24.4-20.9,34.8c0,0-3.5,9.3-9.3,12.8
			c0,0-3.5,9.3-9.3,16.3c0,0-9.3,16.3-15.1,40.6c-5.8,24.4-7,48.8-5.8,52.3c1.2,3.5,5.8,13.9,5.8,13.9H0.4c0,0,1.2,1.2,4.6-27.9
			c3.5-29,5.8-48.8,20.9-77.8s32.5-47.6,38.3-60.4c5.8-12.8,3.5-9.3,5.8-12.8c2.3-3.5,16.3-25.5,18.6-47.6s4.6-46.5-1.2-62.7
			c0,0,3.5-4.6,3.5-8.1c0,0,12.8-13.9,17.4-24.4c0,0,3.5-1.2,9.3,0c5.8,1.2,7-4.6,5.8-8.1c-1.2-3.5,0-9.3,5.8-11.6
			c5.8-2.3,11.6-5.8,10.5-10.5c-1.2-4.6-1.2-5.8,0-9.3l-1.2-3.5l-1-3.3l2-1l0.1,3.2l2.3,4.6c0,0,4.6-2.3,12.8,0l2.3-1.2l4.4-3.7
			l-2.1,4.8L156,33c0,0,1.2,2.3,2.3,2.3c1.2,0,3.5-1.2,5.8,1.2c2.3,2.3,2.3,5.8,4.6,5.8c2.3,0,3.5,0,3.5,0l1.2-3.5l1.2-5l2,2l-0.9,3
			l-1.2,3.5h3.5l3.5,0.6l-2.4,1.8c0,0-4.6-1.2-9.3,0c-4.6,1.2-5.8-5.8-7-7c-1.2-1.2-5.8,1.2-7,0c-1.2-1.2-3.5-5.8-8.1-5.8
			s-8.1,1.2-7,4.6c1.2,3.5,2.3,9.3-1.2,11.6s-4.6,2.3-10.5,5.8c0,0-3.5,3.5-1.2,9.3c2.3,5.8-4.6,15.1-15.1,11.6
			c0,0-11.6,18.6-12.8,19.7c-1.2,1.2-3.5,5.8-4.6,8.1c-1.2,2.3,2.3,19.7,1.2,23.2c0,0,8.1-4.6,12.8-17.4c4.6-12.8,11.6-3.5,15.1-3.5
			s12.8-3.5,17.4-3.5s11.6-4.6,11.6-11.6c0-7,4.6-7,7-5.8c2.3,1.2,3.5,4.6,4.6,4.6s3.5,0,3.5,0l4.8-0.9l-3.7,3.2h-3.5
			c0,0-1.2,3.5,1.2,4.6c2.3,1.2,5.8,1.2,5.8,1.2l3.2,0L174.6,99.2z"/>
	</g>
	<path class="st0" d="M85.2,77.2c0,0,4.6-1.2,7,2.3"/>
	<path class="st0" d="M81.7,77.2c0,0-1.2-4.6-4.6-4.6s-5.8,1.2-8.1,4.6c-2.3,3.5,0,8.1,0,8.1s-2.3-1.2-4.6,0c0,0-3.5-5.8-10.5-3.5
		s-4.6,11.6-1.2,13.9c3.5,2.3,10.5,0,10.5,0s4.6,3.5,9.3,1.2s4.6-7,3.5-9.3c0,0,4.6-1.2,5.8-4.6"/>
	<g>
		<path class="st0" d="M139.7,71.3c0,0-5.8-2.3-9.3,3.5"/>
		<path class="st0" d="M139.7,73.7c0-5.8,3.5-9.3,5.8-10.5c2.3-1.2,5.8,1.2,5.8,1.2s4.6-3.5,9.3-2.3c2.3,1.2,3.5,3.5,3.5,3.5
			s7-2.3,9.3,4.6c0,0,5.8-1.2,8.1,3.5c2.3,4.6-2.3,8.1-2.3,8.1c4.6-1.2,9.3,0,10.5,5.8c1.2,5.8-3.5,8.1-3.5,8.1
			c2.3,8.1-5.8,10.5-9.3,7s-3.5-9.3-3.5-9.3c-4.6-2.3-4.6-7-4.6-7c-3.5-1.2-3.5-4.6-3.5-4.6c-3.5,1.2-5.8-1.2-5.8-1.2
			c-1.2,1.2-4.6,1.2-4.6,1.2c0,1.2-1.2,8.1-7,8.1c-5.8,0-8.1-4.6-8.1-4.6c-7,2.3-9.3-2.3-9.3-2.3c-4.6,1.2-7-2.3-7-2.3s0,5.8-5.8,7
			c-5.8,1.2-9.3-5.5-9.3-5.5l4.2-7.3l3,0.5c4.8,0.9,9.6-1.5,11.9-5.8l0.5-1c0,0,4.2,0.6,5.1,3.4l0.4-0.3c1.8-1.6,4.5-1.5,6.2,0.2h0"
			/>
	</g>
	<path class="st0" d="M163,71.3c0,0,1.2,5.8,7,4.6c0,0,0,3.5,1.2,3.5"/>
	<path class="st0" d="M152.5,74.8c0,1.2,0,3.5-1.2,4.6"/>
	<path class="st0" d="M143.2,81.8c0,0,2.3,2.3,5.8,1.2"/>
	<path class="st0" d="M181.5,86.4c0,0,1.2,7-3.5,7"/>
	<path class="st0" d="M156,13.3c0,0,2.3,2.3,2.3,4.6s-1.2,4.6-2.3,5.8"/>
	<path class="st0" d="M178.1,38.8c0,0-2.3,0-5.8-1.2c-3.5-1.2-5.8-5.8-5.8-5.8c-9.3,1.2-11.6-7-11.6-7c-5.8,3.5-10.5-2.3-10.5-2.3
		c-2.3,3.5-5.8,3.5-5.8,3.5l-7-1.2l-1.1-6.7l19.1-1.3l29,6l10,9l-1,10L178.1,38.8"/>
	<path class="st0" d="M125.8,18.4c0,0,1.2-2.8,3.5-2.8c0,0,0-4.6,3.5-5.8s7,0,7,0s-1.2-8.1,5.8-9.3s9.3,5.8,9.3,9.3
		c0,0,5.8-5.8,10.5-2.3s3.5,9.3,2.3,10.5l2.3,1.2c0,0,1.2-5.8,7-5.8c5.8,0,8.1,7,7,10.5c0,0,7,2.3,5.8,10.5"/>
	<path class="st0" d="M192,36.5c0,0-2.3-3.5-7-2.3c0,0-4.6-1.2-5.8,2.3c0,0-3.5,7,3.5,11.6c0,0,4.6,3.5,8.1-1.2c0,0,2.3,0,3.5-1.2
		c0,0,5.8,3.5,9.3-1.2c0,0,3.5-4.6,0-9.3c0,0-2.3-3.5-7-1.2C196.6,34.2,193.2,33,192,36.5z"/>
	<path class="st0" d="M172.3,26.1c0,0,3.5-2.3,8.1,1.2"/>
	<path class="st0" d="M192,38.8c0,0,1.2,2.3,1.2,4.6"/>
	<path class="st0" d="M95.6,26.1c0,0-1.2-3.5-4.6-3.5s-5.8,3.5-4.6,5.8c0,0-8.1-1.2-9.3,7c0,0-4.6,7,3.5,8.1c0,0,3.5,2.3,5.8,1.2
		c0,0,3.5,7,12.8,4.6s5.8-8.1,5.8-8.1s4.6,2.3,7-1.2c0,0,4.6,3.5,10.5,1.2c0,0,9.3,1.2,10.5-7c0,0,5.8-4.6,5.8-8.1s-2.3-5.8-4.6-5.8
		c0,0-4.6-4.6-9.3-1.2c0,0-4.6-5.8-10.5-2.3s-4.6,9.3-4.6,9.3h-2.3c0,0-1.2-3.5-3.5-3.5c-2.3,0-3.5,1.2-4.6,3.5H95.6z"/>
	<path class="st0" d="M94.4,31.9c0,0,0,4.6,3.5,5.8c0,0,1.2,2.3,3.5,2.3"/>
	<path class="st0" d="M120,24.9c0,0,0,1.2,2.3,2.3c0,0,0,3.5,3.5,3.5"/>
	<path class="st0" d="M91,37.7c0,0-1.2,3.5-3.5,4.6"/>
	<path class="st0" d="M136.3,151.5c0,0-1.2-9.3,7-9.3s8.1,8.1,8.1,8.1s5.8-1.2,8.1,4.6c2.3,5.8-2.3,9.3-2.3,9.3s2.3,2.3,1.2,4.6
		c0,0,8.1-2.3,9.3,5.8h2.3c0,0-3.5-9.3,5.8-10.5c9.3-1.2,8.1,8.1,7,10.5c-1.2,2.3-3.5,4.6-7,4.6v3.5c0,0,7-1.2,9.3,4.6
		c2.3,5.8-2.3,11.6-9.3,9.3c-7-2.3-7-7-7-7h-4.6c0,0-3.5,5.8-10.5,3.5c-7-2.3-7-9.3-4.6-12.8c2.3-3.5,3.5-3.5,3.5-3.5l-1.2-2.3
		c0,0-3.5,0-4.6-1.2c-1.2-1.2-4.6-4.6-2.3-9.3c0,0-7,1.2-9.3-3.5C132.8,156.1,133.9,152.6,136.3,151.5z"/>
	<path class="st0" d="M157.2,182.8c0,0,2.3,2.3,5.8,0"/>
	<path class="st0" d="M174.6,186.3c0,0-1.2,2.3-3.5,2.3"/>
	<path class="st0" d="M149,155c0,0,0,5.8-3.5,7"/>
	<path class="st0" d="M97.1,150.7c2.6-0.8,5.5,0.8,5.5,0.8c-2.3-4.6,1.2-13.9,9.3-11.6c8.1,2.3,7,10.5,7,10.5c4.6,0,5.8,3.5,5.8,3.5
		c8.1-1.2,7,7,4.6,9.3c-2.3,2.3-5.8,0-5.8,0c-2.3,1.2-4.6-1.2-4.6-1.2c-3.5,2.3-7,2.3-7,2.3s-2.3,3.5-10.5,1.2c0,0-4.4,1.1-5.7-0.6"
		/>
	<path class="st0" d="M104.9,152.6c0,0,3.5-1.2,5.8,0c0,0-1.2,4.6,0,5.8"/>
</g>
</svg>
