<?xml version="1.0" encoding="utf-8"?>
<!-- Generator: Adobe Illustrator 26.3.1, SVG Export Plug-In . SVG Version: 6.00 Build 0)  -->
<svg version="1.1" id="圖層_1" xmlns="http://www.w3.org/2000/svg" xmlns:xlink="http://www.w3.org/1999/xlink" x="0px" y="0px"
	 viewBox="0 0 532.1 476.2" style="enable-background:new 0 0 532.1 476.2;" xml:space="preserve">
<style type="text/css">
	.st0{fill:#FE6830;}
	.st1{fill:#FE6830;stroke:#EEECE0;stroke-width:0.75;stroke-linecap:round;stroke-linejoin:round;stroke-miterlimit:10;}
	.st2{fill:none;stroke:#EEECE0;stroke-width:0.75;stroke-linecap:round;stroke-linejoin:round;stroke-miterlimit:10;}
	.st3{stroke:#C39A6B;stroke-width:0.75;stroke-linecap:round;stroke-linejoin:round;stroke-miterlimit:10;}
</style>
<g>
	<path class="st0" d="M257.5,48.9l-5,2l-6,6l-11-2l-27.7,6c0,0-2.3,3-1.3,6l-9-2l-3,15l-13,10l21,24l24-8h13l9.7-0.7l4.3-4.3
		l7.6-1.3l9.4-18.7L257.5,48.9z"/>
	<path class="st1" d="M186.5,297.4c17.5-2.7,14-18.1,14-18.1l-10-8.4l-22,26L186.5,297.4z"/>
	<path class="st1" d="M293,233.5c1.9-3.7-1.9-7.4-1.9-7.4c5.6-9.3,0-20.4-11.1-22.2c-11.1-1.9-14.8,7.4-14.8,7.4
		c-7.4-5.6-14.7,2-14.7,2l-14,12.5l2,33l3,4"/>
	<path class="st1" d="M241.8,262.9c0,0,3.1,11.3,17.9,11.3c9.3,0,11.1-9.3,11.1-9.3s7.4,3.7,11.1-1.9c0,0,18.5,11.1,27.8-7.4
		c0,0,7.4,0,9.3-9.3c0,0,9.3,0,9.3-11.1c0-11.1-9.3-13-9.3-13s-3.7-7.4-11.1-3.7c0,0-5.3-10.1-14.7-2.3"/>
	<path class="st1" d="M167,236c0,0,20.3,2.4,17.6,23"/>
	<g>
		<path class="st1" d="M187.5,261.9l-38.9,35.8c0,0-14.8,2.4-18.5-8.7c0,0-7.4,16.7-29.6,1.9c0,0-1.9,13-16.7,13
			c0,0-5.6,11.1-22.2,7.4c-16.7-3.7-11.1-20.4-11.1-20.4s-5.6,5.6-16.7,3.7c0,0-9.3,13-24.1,3.7s-7.4-24.1-3.7-25.9
			c0,0-7.4-1.9-5.6-11.1s13-7.4,13-7.4s3.7-9.3,13-5.6c0,0-1.9-5.6,0-9.3c0,0-7.4-3.7-3.7-13c0,0-14.8,0-18.5-16.7
			s7.4-20.4,7.4-20.4s-3.7-14.8,9.3-20.4s16.7,0,16.7,0s7.4-9.3,16.7-7.4c9.3,1.9,13,11.1,13,11.1s7.4,1.9,7.4,11.1
			c0,0,3.7-7.4,9.3-5.6c0,0,5.6-7.4,16.7-3.7s7.4,14.8,7.4,14.8s9.7,12.8-0.7,21.2L94,215c0,0-6.4,1.9-10.1,0c0,0,0,7.4-5.6,7.4
			c0,0,3.7,5.6,1.9,9.3c0,0,3.7-3.7,9.3-3.7s9.3,5.6,9.3,5.6s3.7-7.4,13-7.4s9.3,14.8,9.3,14.8s9.3-3.7,16.7,5.6c0,0,4.8-8.7,13.5-9
			l15.4-2.6"/>
	</g>
	<path class="st2" d="M141.3,257.6c0,0,5.6,14.8-13,16.7"/>
	<path class="st2" d="M85.8,276.1c0,0-5.6,3.7-11.1,0c0,0-7.4,7.4-16.7,1.9c-9.3-5.6-5.6-18.5-5.6-18.5"/>
	<path class="st2" d="M19.2,259.4c0,0-7.4,5.6-3.7,14.8c0,0,0,18.5,16.7,9.3"/>
	<path class="st2" d="M54.3,203.9c0,0-3.7,13-16.7,7.4c-5.6-3.7-7.4-7.4-5.6-16.7"/>
	<path class="st2" d="M285.6,240.9c0,0-1.9,14.8-13,11.1"/>
	<g>
		<path class="st1" d="M308.3,165.2c9.8-3.5,3.2-13.1,3.2-13.1c-3.7-7.4-13-11.1-13-11.1c-5.6-7.4-16-4.8-16-4.8l-2.3,15.8
			c-1.6-2-7.6,3.9-7.6,3.9c1.9-7.4-9.3-13-13-5.6c-7.4,16.7,1.9,18.5,1.9,18.5c3.7,9.3,13,5.6,13,5.6s3.7,7.4,13,7.4
			c9.3,0,12.8-6.8,12.8-6.8"/>
	</g>
	<path class="st1" d="M257.8,48.5c0,0,16.7-5.6,24.1,1.9c0,0,20.4,0,20.4,20.4c0,0,7.4-3.7,11.1,7.4c0,0,9.3,3.7,3.7,20.4
		c-7.4,13-27.8,7.4-31.5-3.7c0,0-7.4,3.7-11.1,0c0,0-4.6,5.9-13.4,4.8"/>
	<path class="st2" d="M272.7,65.1c0,0-7.4,9.3,5.6,16.7"/>
	<path class="st2" d="M304.1,79.9c0,0,3.7,13-5.6,13"/>
	<path class="st1" d="M241.8,56c0,0-9.8-9.4-20.9-2c0,0-13-1.9-14.8,13l-5.6-1.9l-2,6.7"/>
	<path class="st1" d="M200.5,105.8c-1.9-9.3-9.3-11.1-9.3-11.1c-1.9-5.6-7.4-7.4-13-9.3c-5.6-1.9-13,1.9-13,1.9
		c1.9-5.6-3.7-11.1-3.7-11.1s5.6-1.9,5.6-7.4c0,0,14.8-3.7,3.7-18.5c0,0,3.7-9.3-9.3-9.3c0,0-3.7-16.7-18.5-7.4c0,0-3.7-3.7-7.4-1.9
		c0,0-1.9-14.8-16.7-14.8c0,0-3.7-16.7-25.9-16.7S67.3,20.7,67.3,20.7s-13,13,0,22.2c0,0-5.6,13,0,18.5c0,0-3.7,20.4,16.7,14.8
		c0,0-5.6,13,7.4,16.7c0,0-7.4,18.5,13,24.1c0,0-7.4,24.1,22.2,24.1c0,0,11.1,0,14.8-11.1c0,0,5.6,1.9,11.1-1.9
		c0,0,5.6,14.8,25.9,7.4c9.3-3.7,13-13,13-13s9.3,7.4,16.7,1.9c0,0,18.5,1.9,18.5-16.7c0,0,7.4,5.6,13-1.9c0,0,6.8,4.3,9.9-0.6"/>
	<path class="st2" d="M176.4,105.8c0,0-1.9,16.7-14.8,16.7"/>
	<g>
		<path class="st3" d="M94.5,229.9c0,0,0.5-5.6,4.2-7.5c0,0,3.7-7.4,9.3-7.4c2.2,0,4.3,1.1,6.1,2.5c3.2,2.4,7.5,2.7,11.2,1.2
			c4.3-1.8,10.1-2.3,14.1,3.7c0,0,0,5.6-9.3,3.7c-9.3-1.9-7.7,14.8-7.7,14.8s3.3-1.9,7.7,0v-9.3c11.1,3.7,16.7-5.6,16.7-5.6
			c0,9.3,1.9,14.8,16.7,11.1c14.8-3.7,13-16.7,9.3-24.1c-3.7-7.4,11.1-7.4,11.1-7.4c3.7,7.4,14.8,3.7,14.8,3.7
			c3.7,5.6,14.8,3.7,14.8,3.7c1.9,5.6,5.6,1.9,7.4,5.6c1.9,3.7,1.9,14.8,0,18.5c-1.9,3.7-13,0-16.7,3.7c-3.7,3.7-1.9,13-1.9,13
			s-37,5.6-50,33.3c-13,27.8,0,57.4,0,57.4s-5.6,13,0,27.8c0,0,1.9,24.1,11.1,29.6c0,0,0-11.1,11.1,0c11.1,11.1,16.7,16.7,14.8,31.5
			c-1.9,14.8,1.9,33.3,5.6,42.6H256c0,0,1.9-16.7-5.6-25.9c-7.4-9.3-16.7-25.9-14.8-31.5c1.9-5.6,0-22.2-7.4-31.5
			c-7.4-9.3-25.9-9.3-37-29.6c-10.1-18.5-14.1-40-0.9-70.1c2.5-5.6,8.3-8.9,14.4-8.3c3.6,0.4,7.5,0.7,10.5,0.7
			c7.4,0,25.9-13,33.3-25.9c7.4-13,1.9-18.5-3.7-18.5c0,0,16.7-31.5-7.4-40.7c0,0-24.1,3.7-29.6-14.8s3.7-29.6,11.1-25.9
			c7.4,3.7,14.8-5.6,14.8-5.6s9.3,5.6,16.7-11.1s11.1-1.9,11.1-1.9s7.4,0,9.3,5.6c0,0,7.4-1.9,5.6,9.3c0,0,11.1,3.7,18.5,13
			s5.6,20.4,9.3,27.8s14.8,5.6,24.1-1.9c9.3-7.4,3.7-24.1,5.6-37c1.9-13,14.8-24.1,22.2-27.8c0,0,11.1-7.4,13,3.7s-3,17.6,13.7,26.8
			c0,0,0-2,0-3s1.1-3.5,1.1-3.5c-13,0-11.1-20.4-9.3-20.4c1.9,0,3.7,1.9,7.4,3.7c3.7,1.9,9.7-2.9,9.7-2.9c-3-3-4.2-6.4-4.2-6.4
			s-5.6,5.6-9.3-1.9c-3.7-7.4-16.7-5.6-16.7-5.6s-9.3-13-22.2-13c-6.7,0-12.1,5.3-15.7,10.4c-4.1,5.8-4.6,12.1-7.7,18.2
			c-2.6,5.2-8.9,9.1-13.7,12.1l4.3,3c9.3-3.7,14.2-10.4,16.1-17.8c1.9-7.4,11.1-14.8,18.5-16.7c7.4-1.9,13,5.6,13,5.6
			s-20.4,5.6-25.9,24.1c-5.6,18.5-7.4,38.9-13,37c-5.6-1.9-5.6-16.7-13-22.2s-14.8-9.3-16.7-14.8s-7.4-7.4-9.3-13
			c-1.9-5.6,0-11.1-7.4-18.5c-7.4-7.4-7.4-9.3-9.3-13c-1.9-3.7-9.3-3.7-11.1-16.7c0,0,9.3-1.9,5.6-13c0,0,0-9.3,3.7-18.5
			c3.7-9.3-7.4-14.8-13-13c-5.6,1.9-9.3,7.4-16.7,0c-7.4-7.4-27.8-1.9-33.3,13c0,0-3.7,5.6,0,13c3.7,7.4,0,11.1-14.8,9.3
			c-14.8-1.9-14.8,11.1-14.8,11.1s1.2,3.1,0.2,5.1c0,0,2.7-0.9,5.4-1.4c0,0,1.9-7.3,7.4-9.2c5.6-1.9,11.1,1.9,11.1,1.9l-8.4,8.3
			l6.5,2.8c0,0,0-1.9,5.6-5.6c5.6-3.7,13-14.8,7.4-18.5c-5.6-3.7-3.7-29.6,14.8-25.9c0,0,20.4,13,31.5,7.4c0,0,5.6,3.7,0,7.4
			c0,0-9.3,1.9-7.4,7.4c0,0-13.3,0.2-18.8,9.4c0,0,0,4-1,6l-0.5,1.2c0,0,20.4-18.5,24.1-11.1c3.7,7.4-9.3,14.8-11.1,22.2
			c0,0,2.6,0.7,3.6,1.7s1.1,0.9,1.1,0.9c1-1.1,6.4-6.3,6.4-6.3l5.6,11.1c0,16.7,11.1,18.5,11.1,18.5s-16.7-5.6-24.1,16.7
			c0,0-9.3,0-11.1,3.7c0,0-25.9-3.7-38.9,16.7c-13,20.4,5.6,40.7,5.6,40.7l-3.7,5.6c0,0-16.7-1.9-22.2,7.4s7.4,13,0,20.4
			c-7.4,7.4-13,9.3-18.5-5.6c-3.8-10-13.5-9-19.4-7.3c-3.1,0.9-6.4,0.8-9.4-0.4c-4.6-1.8-11.8-3.8-17.5-1.5
			c-9.3,3.7-11.1,9.3-11.1,9.3s-9,2.6-9,6.3c0,0,1,3,0,5C80.5,231.9,87.5,224.9,94.5,229.9"/>
	</g>
	<path class="st2" d="M141.3,50.3c0,0,7.4,3.7,5.6,13"/>
	<path class="st2" d="M96.9,26.3c0,1.9-3.7,13,7.4,14.8c0,0,3.7,7.4,7.4,7.4"/>
	<path class="st2" d="M104.3,85.5c0,0,0,13,9.3,14.8s13,0,16.7-3.7"/>
	<path class="st1" d="M444.7,100.3c0,0,20.4-5.6,25.9,22.2c0,0,13-20.4,35.2-5.6c0,0,9.3,0,7.4,9.3c0,0,16.7,0,18.5,24.1
		c0,11.1-11.1,20.4-24.1,16.7c0,0,0,9.3-7.4,9.3c0,0-5.6,22.2-33.3,13c-9.3-3.7-14.8-13-11.1-24.1c0,0-7.4,1.9-11.1-3.7
		c0,0,3.7,22.2-18.5,20.4c-7.4-1.9-11.1-3.7-13-9.3c0,0-11.1,3.7-16.7-7.4c0,0-22.2,1.9-11.1-22.2c1.9-3.7,9.3-11.1,9.3-11.1
		s-11.1-7.4-9.3-20.4s18.5-18.5,25.9-11.1c0,0,3.7-7.4,14.8-3.7C426.2,96.6,441,91,444.7,100.3z"/>
	<path class="st2" d="M439.2,105.8c0,0-13-1.9-13,9.3c0,0-16.7,1.9-18.5,14.8c-1.9,13,5.6,18.5,5.6,18.5"/>
	<path class="st2" d="M496.5,161.3c0,0-9.3,11.1-24.1,3.7"/>
	<path class="st2" d="M433.6,161.3c0,0-5.6,5.6-13,3.7"/>
	<path class="st2" d="M213.4,65.1c0,0,14.8,5.6,1.9,16.7c0,0,5.6,5.6,3.7,9.3c0,0,16.7-7.4,20.4,5.6"/>
</g>
</svg>
