<svg width="94" height="282" viewBox="0 0 94 282" fill="none" xmlns="http://www.w3.org/2000/svg">
<path d="M63.9995 47.152L68.6075 50.608C65.7755 52.96 62.7515 55.504 60.3995 57.088L56.9915 54.304C59.1995 52.48 62.2715 49.408 63.9995 47.152ZM52.2395 23.152L58.7675 24.16C57.3755 26.8 55.7915 29.44 54.5435 31.168L49.6475 30.064C50.6075 28.048 51.7115 25.264 52.2395 23.152ZM48.2075 39.088V41.584H61.0715V39.088H48.2075ZM48.2075 32.416V34.96H61.0715V32.416H48.2075ZM43.0235 28H66.5435V46.048H43.0235V28ZM52.2875 44.08H57.4235V62.848C57.4235 65.296 57.0875 66.64 55.5515 67.456C53.9675 68.224 51.9035 68.32 48.9755 68.32C48.8315 66.88 48.2075 64.816 47.5835 63.376C49.2635 63.424 51.0395 63.424 51.5675 63.424C52.1435 63.424 52.2875 63.28 52.2875 62.8V44.08ZM41.7755 49.264H48.6875V53.968H41.7755V49.264ZM47.5835 49.264H48.5915L49.4555 49.12L52.5275 50.368C50.8475 58.144 47.1995 63.52 42.5435 66.4C41.8235 65.296 40.0475 63.328 38.9915 62.56C43.2155 60.208 46.3835 55.84 47.5835 50.032V49.264ZM56.9435 44.272C58.3355 50.608 61.6955 58.336 69.3275 61.696C68.2715 62.752 66.5915 64.912 65.8715 66.352C58.5755 62.272 55.1675 53.536 53.8235 47.344L56.9435 44.272ZM30.5915 23.296L35.5835 25.024C33.6155 28.768 31.4075 33.04 29.5835 35.728L25.7435 34.144C27.4235 31.264 29.4875 26.608 30.5915 23.296ZM36.0155 28.96L40.6715 31.12C37.1675 36.496 32.5115 43.168 28.8155 47.296L25.5035 45.424C29.1035 41.104 33.4715 34.096 36.0155 28.96ZM23.1515 34.48L25.9835 30.64C28.4795 32.896 31.4075 36.016 32.5595 38.272L29.4395 42.688C28.3835 40.336 25.5515 36.928 23.1515 34.48ZM34.3835 40.48L38.3675 38.8C40.2875 42.064 42.1115 46.288 42.6875 49.024L38.3675 50.992C37.8395 48.208 36.1595 43.792 34.3835 40.48ZM23.0075 44.32C27.3275 44.08 33.5195 43.744 39.5195 43.36L39.5675 48.064C33.9515 48.496 28.0955 48.928 23.6315 49.264L23.0075 44.32ZM35.6795 52.528L39.7115 51.28C40.8155 53.92 41.7755 57.28 42.0635 59.536L37.7915 60.88C37.6475 58.672 36.7355 55.168 35.6795 52.528ZM25.0715 51.472L29.6795 52.24C29.1995 56.848 28.1915 61.6 26.7995 64.672C25.8395 64.048 23.7275 63.136 22.6235 62.656C23.9675 59.824 24.6875 55.504 25.0715 51.472ZM30.3515 46.864H35.2955V68.32H30.3515V46.864ZM44.6075 100.648H64.5755V106.456H44.6075V100.648ZM24.0635 123.16H67.9355V128.968H24.0635V123.16ZM41.3435 86.824H47.5355V126.376H41.3435V86.824ZM40.9115 149.488L44.7995 154.288C39.0875 156.352 31.5035 157.6 24.9755 158.272C24.7355 156.88 23.9675 154.768 23.2955 153.472C29.5835 152.656 36.4955 151.264 40.9115 149.488ZM31.6955 154.576H37.2635V168.928C37.2635 177.856 36.4955 187.408 28.9595 194.368C27.8555 193.216 25.5995 191.44 24.1115 190.624C30.9275 184.528 31.6955 176.608 31.6955 168.88V154.576ZM24.3035 162.832H44.2715V168.304H24.3035V162.832ZM44.1275 151.168H67.8875V156.736H44.1275V151.168ZM45.4235 160.576H66.6875V165.952H45.4235V160.576ZM45.3275 169.984H66.8315V175.36H45.3275V169.984ZM42.4475 179.488H68.5595V185.056H42.4475V179.488ZM23.1035 175.792C28.5275 175.264 36.7355 174.304 44.5115 173.296L44.7035 178.48C37.4075 179.536 29.6315 180.64 23.8715 181.408L23.1035 175.792ZM52.7195 153.808H58.5755V194.32H52.7195V153.808ZM40.9115 212.488L44.7995 217.288C39.0875 219.352 31.5035 220.6 24.9755 221.272C24.7355 219.88 23.9675 217.768 23.2955 216.472C29.5835 215.656 36.4955 214.264 40.9115 212.488ZM31.6955 217.576H37.2635V231.928C37.2635 240.856 36.4955 250.408 28.9595 257.368C27.8555 256.216 25.5995 254.44 24.1115 253.624C30.9275 247.528 31.6955 239.608 31.6955 231.88V217.576ZM24.3035 225.832H44.2715V231.304H24.3035V225.832ZM44.1275 214.168H67.8875V219.736H44.1275V214.168ZM45.4235 223.576H66.6875V228.952H45.4235V223.576ZM45.3275 232.984H66.8315V238.36H45.3275V232.984ZM42.4475 242.488H68.5595V248.056H42.4475V242.488ZM23.1035 238.792C28.5275 238.264 36.7355 237.304 44.5115 236.296L44.7035 241.48C37.4075 242.536 29.6315 243.64 23.8715 244.408L23.1035 238.792ZM52.7195 216.808H58.5755V257.32H52.7195V216.808Z" fill="white"/>
<rect x="1.99951" y="2" width="90" height="278" stroke="white" stroke-width="4"/>
</svg>
