<svg width="81" height="64" viewBox="0 0 81 64" fill="none" xmlns="http://www.w3.org/2000/svg">
<path d="M63.6699 48.1465H44.1045H36.8947H17.332L8.58008 58.1803H36.8947H44.1045H72.4218L63.6699 48.1465Z" fill="#C39A6B" stroke="#431D31" stroke-miterlimit="10"/>
<path d="M72.4198 58.1797H8.57812V62.8951H72.4198V58.1797Z" fill="#C39A6B" stroke="#431D31" stroke-miterlimit="10"/>
<path d="M68.343 16.0384C66.2039 13.102 66.2337 10.1657 68.4322 7.22937C49.812 6.86886 31.1908 6.86886 12.5687 7.22937C14.7763 10.1603 14.8061 13.0966 12.658 16.0384C9.25105 17.4304 6.33588 19.8046 4.28388 22.8584C2.23189 25.9122 1.13597 29.5074 1.13574 33.1859V34.2891C1.13574 39.2014 3.08812 43.9126 6.56345 47.3864C10.0388 50.8602 14.7524 52.8121 19.6676 52.8129H61.3306C66.2463 52.8129 70.9606 50.8613 74.4365 47.3874C77.9124 43.9135 79.8652 39.2019 79.8652 34.2891V33.1859C79.865 29.5074 78.7691 25.9122 76.7171 22.8584C74.6651 19.8046 71.7499 17.4304 68.343 16.0384Z" fill="#431D31" stroke="#C39A6B" stroke-miterlimit="10"/>
<path d="M73.066 0.806641H7.93652V9.03973H73.066V0.806641Z" fill="#C39A6B" stroke="#431D31" stroke-miterlimit="10"/>
<path d="M18.7011 8.06339H14.3184V5.07298H17.7434V2.77204H15.341V3.58048H16.6964V4.60522H14.3184V1.75H18.7687V6.09772H15.341V7.04135H18.7011V8.06339Z" fill="#431D31"/>
<path d="M13.4445 8.06339H9.06178V7.04135H12.4219V6.09772H8.99414V1.75H13.4445V4.60522H11.0665V3.58048H12.4219V2.77204H10.0168V5.07298H13.4445V8.06339Z" fill="#431D31"/>
<path d="M29.4169 8.06339H24.9639V3.71837H28.3916V2.77204H25.1803V1.75H29.4169V4.74041H25.9892V7.04135H28.3916V6.23291H27.0389V5.20817H29.4169V8.06339Z" fill="#431D31"/>
<path d="M24.0927 8.06339H19.6396V5.20817H22.0177V6.23291H20.665V7.04135H23.0674V4.74041H19.6396V1.75H23.8763V2.77204H20.665V3.71837H24.0927V8.06339Z" fill="#431D31"/>
<path d="M39.995 8.06339H35.6123V5.07298H39.04V2.77204H36.6349V3.58048H37.9903V4.60522H35.6123V1.75H40.0627V6.09772H36.6349V7.04135H39.995V8.06339Z" fill="#431D31"/>
<path d="M34.7412 8.06339H30.3557V7.04135H33.7158V6.09772H30.2881V1.75H34.7412V4.60522H32.3604V3.58048H33.7158V2.77204H31.3134V5.07298H34.7412V8.06339Z" fill="#431D31"/>
<path d="M50.7111 8.06339H46.2607V3.71837H49.6885V2.77204H46.4745V1.75H50.7111V4.74041H47.2834V7.04135H49.6885V6.23291H48.3331V5.20817H50.7111V8.06339Z" fill="#431D31"/>
<path d="M45.3869 8.06339H40.9365V5.20817H43.3146V6.23291H41.9592V7.04135H44.3642V4.74041H40.9365V1.75H45.1705V2.77204H41.9592V3.71837H45.3869V8.06339Z" fill="#431D31"/>
<path d="M61.2919 8.06339H56.9092V5.07298H60.3342V2.77204H57.9318V3.58048H59.2872V4.60522H56.9092V1.75H61.3595V6.09772H57.9318V7.04135H61.2919V8.06339Z" fill="#431D31"/>
<path d="M56.0353 8.06339H51.6526V7.04135H55.0127V6.09772H51.585V1.75H56.0353V4.60522H53.6573V3.58048H55.0127V2.77204H52.6076V5.07298H56.0353V8.06339Z" fill="#431D31"/>
<path d="M72.0087 8.06339H67.5557V3.71837H70.9834V2.77204H67.7721V1.75H72.0087V4.74041H68.581V7.04135H70.9834V6.23291H69.628V5.20817H72.0087V8.06339Z" fill="#431D31"/>
<path d="M66.6845 8.06339H62.2314V5.20817H64.6122V6.23291H63.2568V7.04135H65.6592V4.74041H62.2314V1.75H66.4681V2.77204H63.2568V3.71837H66.6845V8.06339Z" fill="#431D31"/>
<path d="M12.6572 16.0391H68.3422" stroke="#C39A6B" stroke-miterlimit="10"/>
<path d="M40.521 25.4677L31.4189 34.5645L40.521 43.6612L49.623 34.5645L40.521 25.4677Z" fill="#C39A6B" stroke="#431D31" stroke-miterlimit="10"/>
<path d="M49.6007 27.0775L42.1094 34.5645L49.6007 42.0514L57.092 34.5645L49.6007 27.0775Z" fill="#C39A6B" stroke="#431D31" stroke-miterlimit="10"/>
<path d="M31.4034 27.0775L23.9121 34.5645L31.4034 42.0514L38.8947 34.5645L31.4034 27.0775Z" fill="#C39A6B" stroke="#431D31" stroke-miterlimit="10"/>
</svg>
