<svg width="124" height="418" viewBox="0 0 124 418" fill="none" xmlns="http://www.w3.org/2000/svg">
<path d="M70.2614 318.854H54.3926C49.5788 318.854 45.6946 314.973 45.6946 310.163V275.867H78.9925V310.163C78.9594 314.973 75.0751 318.854 70.2614 318.854Z" fill="#BF9769" stroke="#BF9769" stroke-width="3" stroke-miterlimit="10" stroke-linecap="round" stroke-linejoin="round"/>
<path d="M60.2357 117.222C65.5895 117.222 69.9296 112.886 69.9296 107.537C69.9296 102.188 65.5895 97.8516 60.2357 97.8516C54.8819 97.8516 50.5417 102.188 50.5417 107.537C50.5417 112.886 54.8819 117.222 60.2357 117.222Z" stroke="#BF9769" stroke-width="3" stroke-miterlimit="10" stroke-linecap="round" stroke-linejoin="round"/>
<path d="M64.9496 115.796L67.1075 113.674L64.9496 111.551L62.7585 113.674L64.9496 115.796Z" stroke="#BF9769" stroke-width="3" stroke-miterlimit="10" stroke-linecap="round" stroke-linejoin="round"/>
<path d="M62.7585 109.427L64.9496 111.55L67.1075 109.427L64.9496 107.305L62.7585 109.427Z" stroke="#BF9769" stroke-width="3" stroke-miterlimit="10" stroke-linecap="round" stroke-linejoin="round"/>
<path d="M54.0275 105.182L51.8364 107.304L54.0275 109.427L56.2186 107.304L54.0275 105.182Z" stroke="#BF9769" stroke-width="3" stroke-miterlimit="10" stroke-linecap="round" stroke-linejoin="round"/>
<path d="M58.3766 109.427L56.2187 107.305L54.0276 109.427L56.2187 111.55L58.3766 109.427Z" stroke="#BF9769" stroke-width="3" stroke-miterlimit="10" stroke-linecap="round" stroke-linejoin="round"/>
<path d="M58.3764 109.428L56.2185 111.551L58.3764 113.673L60.5675 111.551L58.3764 109.428Z" stroke="#BF9769" stroke-width="3" stroke-miterlimit="10" stroke-linecap="round" stroke-linejoin="round"/>
<path d="M58.3766 105.181L56.2187 103.059L54.0276 105.181L56.2187 107.304L58.3766 105.181Z" stroke="#BF9769" stroke-width="3" stroke-miterlimit="10" stroke-linecap="round" stroke-linejoin="round"/>
<path d="M60.5676 111.551L62.7587 113.673L64.9498 111.551L62.7587 109.428L60.5676 111.551Z" stroke="#BF9769" stroke-width="3" stroke-miterlimit="10" stroke-linecap="round" stroke-linejoin="round"/>
<path d="M54.0275 109.428L51.8364 111.551L54.0275 113.673L56.2186 111.551L54.0275 109.428Z" stroke="#BF9769" stroke-width="3" stroke-miterlimit="10" stroke-linecap="round" stroke-linejoin="round"/>
<path d="M54.0276 113.674L56.2187 115.796L58.3766 113.674L56.2187 111.551L54.0276 113.674Z" stroke="#BF9769" stroke-width="3" stroke-miterlimit="10" stroke-linecap="round" stroke-linejoin="round"/>
<path d="M58.3765 113.674L60.5676 115.796L62.7587 113.674L60.5676 111.551L58.3765 113.674Z" stroke="#BF9769" stroke-width="3" stroke-miterlimit="10" stroke-linecap="round" stroke-linejoin="round"/>
<path d="M64.9496 107.304L67.1075 105.181L64.9496 103.059L62.7585 105.181L64.9496 107.304Z" stroke="#BF9769" stroke-width="3" stroke-miterlimit="10" stroke-linecap="round" stroke-linejoin="round"/>
<path d="M64.7506 98.9794C63.7547 98.4487 62.6259 98.0838 61.4308 97.9512L60.5676 98.7804L62.7587 100.903L64.7506 98.9794Z" stroke="#BF9769" stroke-width="3" stroke-miterlimit="10" stroke-linecap="round" stroke-linejoin="round"/>
<path d="M60.5676 107.304L62.7587 109.427L64.9498 107.304L62.7587 105.182L60.5676 107.304Z" stroke="#BF9769" stroke-width="3" stroke-miterlimit="10" stroke-linecap="round" stroke-linejoin="round"/>
<path d="M54.0275 100.936L51.8364 103.058L54.0275 105.181L56.2186 103.058L54.0275 100.936Z" stroke="#BF9769" stroke-width="3" stroke-miterlimit="10" stroke-linecap="round" stroke-linejoin="round"/>
<path d="M62.7587 105.181L60.5676 103.059L58.3765 105.181L60.5676 107.304L62.7587 105.181Z" stroke="#BF9769" stroke-width="3" stroke-miterlimit="10" stroke-linecap="round" stroke-linejoin="round"/>
<path d="M58.3764 105.182L56.2185 107.304L58.3764 109.427L60.5675 107.304L58.3764 105.182Z" stroke="#BF9769" stroke-width="3" stroke-miterlimit="10" stroke-linecap="round" stroke-linejoin="round"/>
<path d="M60.2355 97.8848C60.0363 97.8848 59.8371 97.9179 59.6379 97.9179L60.5675 98.8135L61.4307 97.9843C61.0323 97.9179 60.6339 97.8848 60.2355 97.8848Z" stroke="#BF9769" stroke-width="3" stroke-miterlimit="10" stroke-linecap="round" stroke-linejoin="round"/>
<path d="M58.3765 109.427L60.5676 111.55L62.7587 109.427L60.5676 107.305L58.3765 109.427Z" stroke="#BF9769" stroke-width="3" stroke-miterlimit="10" stroke-linecap="round" stroke-linejoin="round"/>
<path d="M58.3764 105.181L60.5675 103.058L58.3764 100.936L56.2185 103.058L58.3764 105.181Z" stroke="#BF9769" stroke-width="3" stroke-miterlimit="10" stroke-linecap="round" stroke-linejoin="round"/>
<path d="M62.7587 100.935L60.5676 98.8125L58.3765 100.935L60.5676 103.058L62.7587 100.935Z" stroke="#BF9769" stroke-width="3" stroke-miterlimit="10" stroke-linecap="round" stroke-linejoin="round"/>
<path d="M58.3766 100.935L56.2187 98.8125L54.0276 100.935L56.2187 103.058L58.3766 100.935Z" stroke="#BF9769" stroke-width="3" stroke-miterlimit="10" stroke-linecap="round" stroke-linejoin="round"/>
<path d="M60.2357 117.221C60.8001 117.221 61.3312 117.155 61.8624 117.055L60.5677 115.795L59.1733 117.155C59.5385 117.221 59.8705 117.221 60.2357 117.221Z" stroke="#BF9769" stroke-width="3" stroke-miterlimit="10" stroke-linecap="round" stroke-linejoin="round"/>
<path d="M50.5417 107.538C50.5417 107.869 50.5749 108.168 50.5749 108.499L51.8033 107.305L50.6745 106.145C50.6081 106.609 50.5417 107.073 50.5417 107.538Z" stroke="#BF9769" stroke-width="3" stroke-miterlimit="10" stroke-linecap="round" stroke-linejoin="round"/>
<path d="M62.7587 105.181L64.9498 103.058L62.7587 100.936L60.5676 103.058L62.7587 105.181Z" stroke="#BF9769" stroke-width="3" stroke-miterlimit="10" stroke-linecap="round" stroke-linejoin="round"/>
<path d="M54.0276 109.427L51.8365 107.305L50.6082 108.499C50.6746 109.328 50.8737 110.124 51.1725 110.854L51.8697 111.517L54.0276 109.427Z" stroke="#BF9769" stroke-width="3" stroke-miterlimit="10" stroke-linecap="round" stroke-linejoin="round"/>
<path d="M60.5675 115.797L58.3764 113.674L56.1853 115.797L57.1149 116.692C57.7788 116.924 58.4428 117.057 59.14 117.157L60.5675 115.797Z" stroke="#BF9769" stroke-width="3" stroke-miterlimit="10" stroke-linecap="round" stroke-linejoin="round"/>
<path d="M55.8201 116.16C56.2516 116.359 56.6832 116.558 57.1148 116.724L56.1853 115.828L55.8201 116.16Z" stroke="#BF9769" stroke-width="3" stroke-miterlimit="10" stroke-linecap="round" stroke-linejoin="round"/>
<path d="M51.8363 107.304L54.0274 105.181L51.8363 103.059L51.5043 103.39C51.1059 104.253 50.8071 105.181 50.6743 106.176L51.8363 107.304Z" stroke="#BF9769" stroke-width="3" stroke-miterlimit="10" stroke-linecap="round" stroke-linejoin="round"/>
<path d="M51.1392 110.887C51.272 111.218 51.4047 111.517 51.5375 111.849L51.8363 111.583L51.1392 110.887Z" stroke="#BF9769" stroke-width="3" stroke-miterlimit="10" stroke-linecap="round" stroke-linejoin="round"/>
<path d="M62.7587 113.674L60.5676 115.797L61.8624 117.09C62.7919 116.924 63.6883 116.626 64.485 116.228L64.9166 115.797L62.7587 113.674Z" stroke="#BF9769" stroke-width="3" stroke-miterlimit="10" stroke-linecap="round" stroke-linejoin="round"/>
<path d="M67.4397 114.004C67.9708 113.407 68.4356 112.743 68.8008 112.047L67.1077 113.705L67.4397 114.004Z" stroke="#BF9769" stroke-width="3" stroke-miterlimit="10" stroke-linecap="round" stroke-linejoin="round"/>
<path d="M67.1076 109.428L64.9165 111.551L67.1076 113.673L68.8007 112.015C68.9003 111.816 68.9999 111.584 69.0995 111.385L67.1076 109.428Z" stroke="#BF9769" stroke-width="3" stroke-miterlimit="10" stroke-linecap="round" stroke-linejoin="round"/>
<path d="M64.9497 115.797L65.0825 115.929C65.9789 115.399 66.7756 114.768 67.4728 114.006L67.1408 113.674L64.9497 115.797Z" stroke="#BF9769" stroke-width="3" stroke-miterlimit="10" stroke-linecap="round" stroke-linejoin="round"/>
<path d="M67.1076 105.182L64.9497 107.304L67.1076 109.427L69.2987 107.304L67.1076 105.182Z" stroke="#BF9769" stroke-width="3" stroke-miterlimit="10" stroke-linecap="round" stroke-linejoin="round"/>
<path d="M64.5181 116.226C64.7173 116.127 64.8832 116.027 65.0824 115.928L64.9496 115.795L64.5181 116.226Z" stroke="#BF9769" stroke-width="3" stroke-miterlimit="10" stroke-linecap="round" stroke-linejoin="round"/>
<path d="M51.7036 102.926C51.6372 103.058 51.5708 103.224 51.5044 103.357L51.8364 103.025L51.7036 102.926Z" stroke="#BF9769" stroke-width="3" stroke-miterlimit="10" stroke-linecap="round" stroke-linejoin="round"/>
<path d="M67.1077 105.182L69.2988 107.305L69.8631 106.741C69.7635 105.547 69.4316 104.419 68.9336 103.391L67.1077 105.182Z" stroke="#BF9769" stroke-width="3" stroke-miterlimit="10" stroke-linecap="round" stroke-linejoin="round"/>
<path d="M64.9497 103.058L67.1408 105.181L68.9999 103.39C68.7343 102.826 68.4023 102.295 68.0372 101.798L67.1408 100.936L64.9497 103.058Z" stroke="#BF9769" stroke-width="3" stroke-miterlimit="10" stroke-linecap="round" stroke-linejoin="round"/>
<path d="M68.004 101.798C67.7716 101.466 67.506 101.168 67.2073 100.869L67.1077 100.969L68.004 101.798Z" stroke="#BF9769" stroke-width="3" stroke-miterlimit="10" stroke-linecap="round" stroke-linejoin="round"/>
<path d="M69.8964 107.901C69.8964 107.802 69.9296 107.669 69.9296 107.569C69.9296 107.304 69.8964 107.039 69.8964 106.773L69.332 107.337L69.8964 107.901Z" stroke="#BF9769" stroke-width="3" stroke-miterlimit="10" stroke-linecap="round" stroke-linejoin="round"/>
<path d="M67.1077 109.427L69.0996 111.384C69.5643 110.323 69.8299 109.129 69.8631 107.902L69.2656 107.305L67.1077 109.427Z" stroke="#BF9769" stroke-width="3" stroke-miterlimit="10" stroke-linecap="round" stroke-linejoin="round"/>
<path d="M54.0275 100.937L53.5959 100.506C52.8656 101.202 52.2016 102.032 51.7036 102.927L51.8364 103.06L54.0275 100.937Z" stroke="#BF9769" stroke-width="3" stroke-miterlimit="10" stroke-linecap="round" stroke-linejoin="round"/>
<path d="M56.2186 98.8125C55.2227 99.2105 54.3595 99.8076 53.5959 100.537L54.0275 100.935L56.2186 98.8125Z" stroke="#BF9769" stroke-width="3" stroke-miterlimit="10" stroke-linecap="round" stroke-linejoin="round"/>
<path d="M67.2073 100.837C66.7757 100.372 66.311 99.9742 65.7798 99.6094L67.1077 100.903L67.2073 100.837Z" stroke="#BF9769" stroke-width="3" stroke-miterlimit="10" stroke-linecap="round" stroke-linejoin="round"/>
<path d="M56.2849 98.7148C56.2517 98.7482 56.2185 98.7482 56.1853 98.7815L56.2185 98.8149L56.2849 98.7148Z" stroke="#BF9769" stroke-width="3" stroke-miterlimit="10" stroke-linecap="round" stroke-linejoin="round"/>
<path d="M62.7585 100.935L64.9496 103.058L67.1407 100.935L65.8128 99.6419C65.4808 99.4097 65.1156 99.1776 64.7836 99.0117L62.7585 100.935Z" stroke="#BF9769" stroke-width="3" stroke-miterlimit="10" stroke-linecap="round" stroke-linejoin="round"/>
<path d="M58.3764 100.936L60.5675 98.8135L59.6379 97.918C58.4428 97.9843 57.3141 98.2828 56.2849 98.7472L56.1853 98.8135L58.3764 100.936Z" stroke="#BF9769" stroke-width="3" stroke-miterlimit="10" stroke-linecap="round" stroke-linejoin="round"/>
<path d="M50.5417 107.537C50.5417 107.537 45.6615 112.181 42.906 112.181C40.1506 112.181 37.9263 109.959 37.9263 107.206C37.9263 104.453 40.1506 102.23 42.906 102.23C45.6615 102.23 50.5417 107.537 50.5417 107.537Z" stroke="#BF9769" stroke-width="3" stroke-miterlimit="10" stroke-linecap="round" stroke-linejoin="round"/>
<path d="M52.8656 114.005C52.8656 114.801 51.7037 116.526 49.3798 116.526C47.0559 116.526 45.1636 114.635 45.1636 112.313L50.5085 107.537L52.8656 114.005Z" stroke="#BF9769" stroke-width="3" stroke-miterlimit="10" stroke-linecap="round" stroke-linejoin="round"/>
<path d="M52.8656 101.103C52.8656 100.307 51.7037 98.582 49.3798 98.582C47.0559 98.582 45.1636 100.473 45.1636 102.794L50.5085 107.571L52.8656 101.103Z" stroke="#BF9769" stroke-width="3" stroke-miterlimit="10" stroke-linecap="round" stroke-linejoin="round"/>
<path d="M70.5603 107.537C70.5603 107.537 75.4405 112.181 78.1959 112.181C80.9514 112.181 83.1757 109.959 83.1757 107.206C83.1757 104.453 80.9514 102.23 78.1959 102.23C75.4405 102.23 70.5603 107.537 70.5603 107.537Z" stroke="#BF9769" stroke-width="3" stroke-miterlimit="10" stroke-linecap="round" stroke-linejoin="round"/>
<path d="M68.2363 114.005C68.2363 114.801 69.3983 116.526 71.7222 116.526C74.046 116.526 75.9384 114.635 75.9384 112.313L70.5934 107.537L68.2363 114.005Z" stroke="#BF9769" stroke-width="3" stroke-miterlimit="10" stroke-linecap="round" stroke-linejoin="round"/>
<path d="M68.2363 101.103C68.2363 100.307 69.3983 98.582 71.7222 98.582C74.046 98.582 75.9384 100.473 75.9384 102.794L70.5934 107.571L68.2363 101.103Z" stroke="#BF9769" stroke-width="3" stroke-miterlimit="10" stroke-linecap="round" stroke-linejoin="round"/>
<path d="M53.5626 92.6443C55.176 92.6443 56.484 91.3375 56.484 89.7255C56.484 88.1134 55.176 86.8066 53.5626 86.8066C51.9491 86.8066 50.6411 88.1134 50.6411 89.7255C50.6411 91.3375 51.9491 92.6443 53.5626 92.6443Z" stroke="#BF9769" stroke-width="3" stroke-miterlimit="10" stroke-linecap="round"/>
<path d="M66.5101 92.6443C68.1236 92.6443 69.4315 91.3375 69.4315 89.7255C69.4315 88.1134 68.1236 86.8066 66.5101 86.8066C64.8966 86.8066 63.5886 88.1134 63.5886 89.7255C63.5886 91.3375 64.8966 92.6443 66.5101 92.6443Z" stroke="#BF9769" stroke-width="3" stroke-miterlimit="10" stroke-linecap="round"/>
<path d="M60.1027 84.8497C62.1563 84.8497 63.821 83.1865 63.821 81.1348C63.821 79.0831 62.1563 77.4199 60.1027 77.4199C58.0492 77.4199 56.3845 79.0831 56.3845 81.1348C56.3845 83.1865 58.0492 84.8497 60.1027 84.8497Z" stroke="#BF9769" stroke-width="3" stroke-miterlimit="10" stroke-linecap="round"/>
<path d="M60.0363 92.1142C61.3564 92.1142 62.4266 91.045 62.4266 89.726C62.4266 88.4071 61.3564 87.3379 60.0363 87.3379C58.7162 87.3379 57.646 88.4071 57.646 89.726C57.646 91.045 58.7162 92.1142 60.0363 92.1142Z" stroke="#BF9769" stroke-width="3" stroke-miterlimit="10" stroke-linecap="round"/>
<path d="M60.1027 96.3257C61.2578 96.3257 62.1942 95.3902 62.1942 94.2361C62.1942 93.082 61.2578 92.1465 60.1027 92.1465C58.9476 92.1465 58.0112 93.082 58.0112 94.2361C58.0112 95.3902 58.9476 96.3257 60.1027 96.3257Z" stroke="#BF9769" stroke-width="3" stroke-miterlimit="10" stroke-linecap="round" stroke-linejoin="round"/>
<path d="M56.3845 98.4156C57.5396 98.4156 58.476 97.48 58.476 96.3259C58.476 95.1719 57.5396 94.2363 56.3845 94.2363C55.2294 94.2363 54.293 95.1719 54.293 96.3259C54.293 97.48 55.2294 98.4156 56.3845 98.4156Z" stroke="#BF9769" stroke-width="3" stroke-miterlimit="10" stroke-linecap="round" stroke-linejoin="round"/>
<path d="M63.821 98.4156C64.9761 98.4156 65.9125 97.48 65.9125 96.3259C65.9125 95.1719 64.9761 94.2363 63.821 94.2363C62.6659 94.2363 61.7295 95.1719 61.7295 96.3259C61.7295 97.48 62.6659 98.4156 63.821 98.4156Z" stroke="#BF9769" stroke-width="3" stroke-miterlimit="10" stroke-linecap="round" stroke-linejoin="round"/>
<path d="M60.3021 122.031C63.3895 122.031 65.8794 124.518 65.8794 127.603C65.8794 130.688 63.3895 133.175 60.3021 133.175C57.2146 133.175 54.7247 130.688 54.7247 127.603C54.7247 124.551 57.2146 122.031 60.3021 122.031ZM60.3021 119.51C55.8203 119.51 52.2017 123.158 52.2017 127.603C52.2017 132.081 55.8535 135.696 60.3021 135.696C64.7838 135.696 68.4025 132.047 68.4025 127.603C68.4025 123.158 64.7838 119.51 60.3021 119.51Z" fill="#BF9769"/>
<path d="M60.302 131.086C62.2272 131.086 63.7878 129.527 63.7878 127.604C63.7878 125.68 62.2272 124.121 60.302 124.121C58.3768 124.121 56.8162 125.68 56.8162 127.604C56.8162 129.527 58.3768 131.086 60.302 131.086Z" stroke="#BF9769" stroke-width="3" stroke-miterlimit="10" stroke-linecap="round"/>
<path d="M54.7246 127.604H65.8793" stroke="#BF9769" stroke-width="3" stroke-miterlimit="10" stroke-linecap="round"/>
<path d="M60.2356 117.223V142.53" stroke="#BF9769" stroke-width="3" stroke-miterlimit="10" stroke-linecap="round" stroke-linejoin="round"/>
<path d="M60.2356 97.8846V92.1133" stroke="#BF9769" stroke-width="3" stroke-miterlimit="10" stroke-linecap="round" stroke-linejoin="round"/>
<path d="M60.0364 87.3367V84.3184" stroke="#BF9769" stroke-width="3" stroke-miterlimit="10"/>
<path d="M60.1028 77.4197V2.35938" stroke="#BF9769" stroke-width="3" stroke-miterlimit="10" stroke-linecap="round"/>
<path d="M74.1456 293.446H50.0104C45.761 293.446 42.3416 289.996 42.3416 285.784V278.785H81.8144V285.784C81.8144 289.996 78.3618 293.446 74.1456 293.446Z" fill="#B32227" stroke="#BF9769" stroke-width="3" stroke-miterlimit="10" stroke-linecap="round"/>
<path d="M50.0104 139.941H74.1124C78.3618 139.941 81.7812 143.391 81.7812 147.603V154.602H42.3416V147.603C42.3416 143.391 45.7942 139.941 50.0104 139.941Z" fill="#B32227" stroke="#BF9769" stroke-width="3" stroke-miterlimit="10" stroke-linecap="round"/>
<path d="M74.4445 326.814C75.5996 326.814 76.536 325.878 76.536 324.724C76.536 323.57 75.5996 322.635 74.4445 322.635C73.2894 322.635 72.353 323.57 72.353 324.724C72.353 325.878 73.2894 326.814 74.4445 326.814Z" stroke="#BF9769" stroke-width="3" stroke-miterlimit="10" stroke-linecap="round"/>
<path d="M74.4445 332.751C75.5996 332.751 76.536 331.816 76.536 330.662C76.536 329.508 75.5996 328.572 74.4445 328.572C73.2894 328.572 72.353 329.508 72.353 330.662C72.353 331.816 73.2894 332.751 74.4445 332.751Z" stroke="#BF9769" stroke-width="3" stroke-miterlimit="10" stroke-linecap="round"/>
<path d="M74.4445 338.689C75.5996 338.689 76.536 337.753 76.536 336.599C76.536 335.445 75.5996 334.51 74.4445 334.51C73.2894 334.51 72.353 335.445 72.353 336.599C72.353 337.753 73.2894 338.689 74.4445 338.689Z" stroke="#BF9769" stroke-width="3" stroke-miterlimit="10" stroke-linecap="round"/>
<path d="M74.4445 344.625C75.5996 344.625 76.536 343.689 76.536 342.535C76.536 341.381 75.5996 340.445 74.4445 340.445C73.2894 340.445 72.353 341.381 72.353 342.535C72.353 343.689 73.2894 344.625 74.4445 344.625Z" stroke="#BF9769" stroke-width="3" stroke-miterlimit="10" stroke-linecap="round"/>
<path d="M74.4445 350.562C75.5996 350.562 76.536 349.627 76.536 348.472C76.536 347.318 75.5996 346.383 74.4445 346.383C73.2894 346.383 72.353 347.318 72.353 348.472C72.353 349.627 73.2894 350.562 74.4445 350.562Z" stroke="#BF9769" stroke-width="3" stroke-miterlimit="10" stroke-linecap="round"/>
<path d="M74.4445 356.5C75.5996 356.5 76.536 355.564 76.536 354.41C76.536 353.256 75.5996 352.32 74.4445 352.32C73.2894 352.32 72.353 353.256 72.353 354.41C72.353 355.564 73.2894 356.5 74.4445 356.5Z" stroke="#BF9769" stroke-width="3" stroke-miterlimit="10" stroke-linecap="round"/>
<path d="M74.4445 362.437C75.5996 362.437 76.536 361.501 76.536 360.347C76.536 359.193 75.5996 358.258 74.4445 358.258C73.2894 358.258 72.353 359.193 72.353 360.347C72.353 361.501 73.2894 362.437 74.4445 362.437Z" stroke="#BF9769" stroke-width="3" stroke-miterlimit="10" stroke-linecap="round"/>
<path d="M74.4445 368.375C75.5996 368.375 76.536 367.439 76.536 366.285C76.536 365.131 75.5996 364.195 74.4445 364.195C73.2894 364.195 72.353 365.131 72.353 366.285C72.353 367.439 73.2894 368.375 74.4445 368.375Z" stroke="#BF9769" stroke-width="3" stroke-miterlimit="10" stroke-linecap="round"/>
<path d="M74.4445 374.343C75.5996 374.343 76.536 373.408 76.536 372.254C76.536 371.1 75.5996 370.164 74.4445 370.164C73.2894 370.164 72.353 371.1 72.353 372.254C72.353 373.408 73.2894 374.343 74.4445 374.343Z" stroke="#BF9769" stroke-width="3" stroke-miterlimit="10" stroke-linecap="round"/>
<path d="M74.4445 380.281C75.5996 380.281 76.536 379.345 76.536 378.191C76.536 377.037 75.5996 376.102 74.4445 376.102C73.2894 376.102 72.353 377.037 72.353 378.191C72.353 379.345 73.2894 380.281 74.4445 380.281Z" stroke="#BF9769" stroke-width="3" stroke-miterlimit="10" stroke-linecap="round"/>
<path d="M74.4445 386.218C75.5996 386.218 76.536 385.283 76.536 384.129C76.536 382.975 75.5996 382.039 74.4445 382.039C73.2894 382.039 72.353 382.975 72.353 384.129C72.353 385.283 73.2894 386.218 74.4445 386.218Z" stroke="#BF9769" stroke-width="3" stroke-miterlimit="10" stroke-linecap="round"/>
<path d="M74.4445 392.156C75.5996 392.156 76.536 391.22 76.536 390.066C76.536 388.912 75.5996 387.977 74.4445 387.977C73.2894 387.977 72.353 388.912 72.353 390.066C72.353 391.22 73.2894 392.156 74.4445 392.156Z" stroke="#BF9769" stroke-width="3" stroke-miterlimit="10" stroke-linecap="round"/>
<path d="M74.4445 398.093C75.5996 398.093 76.536 397.158 76.536 396.004C76.536 394.85 75.5996 393.914 74.4445 393.914C73.2894 393.914 72.353 394.85 72.353 396.004C72.353 397.158 73.2894 398.093 74.4445 398.093Z" stroke="#BF9769" stroke-width="3" stroke-miterlimit="10" stroke-linecap="round"/>
<path d="M74.4445 404.031C75.5996 404.031 76.536 403.095 76.536 401.941C76.536 400.787 75.5996 399.852 74.4445 399.852C73.2894 399.852 72.353 400.787 72.353 401.941C72.353 403.095 73.2894 404.031 74.4445 404.031Z" stroke="#BF9769" stroke-width="3" stroke-miterlimit="10" stroke-linecap="round"/>
<path d="M74.4445 409.966C75.5996 409.966 76.536 409.031 76.536 407.877C76.536 406.723 75.5996 405.787 74.4445 405.787C73.2894 405.787 72.353 406.723 72.353 407.877C72.353 409.031 73.2894 409.966 74.4445 409.966Z" stroke="#BF9769" stroke-width="3" stroke-miterlimit="10" stroke-linecap="round"/>
<path d="M74.4445 415.904C75.5996 415.904 76.536 414.968 76.536 413.814C76.536 412.66 75.5996 411.725 74.4445 411.725C73.2894 411.725 72.353 412.66 72.353 413.814C72.353 414.968 73.2894 415.904 74.4445 415.904Z" stroke="#BF9769" stroke-width="3" stroke-miterlimit="10" stroke-linecap="round"/>
<path d="M66.4768 326.814C67.6319 326.814 68.5683 325.878 68.5683 324.724C68.5683 323.57 67.6319 322.635 66.4768 322.635C65.3217 322.635 64.3853 323.57 64.3853 324.724C64.3853 325.878 65.3217 326.814 66.4768 326.814Z" stroke="#BF9769" stroke-width="3" stroke-miterlimit="10" stroke-linecap="round"/>
<path d="M66.4768 332.751C67.6319 332.751 68.5683 331.816 68.5683 330.662C68.5683 329.508 67.6319 328.572 66.4768 328.572C65.3217 328.572 64.3853 329.508 64.3853 330.662C64.3853 331.816 65.3217 332.751 66.4768 332.751Z" stroke="#BF9769" stroke-width="3" stroke-miterlimit="10" stroke-linecap="round"/>
<path d="M66.4768 338.689C67.6319 338.689 68.5683 337.753 68.5683 336.599C68.5683 335.445 67.6319 334.51 66.4768 334.51C65.3217 334.51 64.3853 335.445 64.3853 336.599C64.3853 337.753 65.3217 338.689 66.4768 338.689Z" stroke="#BF9769" stroke-width="3" stroke-miterlimit="10" stroke-linecap="round"/>
<path d="M66.4768 344.625C67.6319 344.625 68.5683 343.689 68.5683 342.535C68.5683 341.381 67.6319 340.445 66.4768 340.445C65.3217 340.445 64.3853 341.381 64.3853 342.535C64.3853 343.689 65.3217 344.625 66.4768 344.625Z" stroke="#BF9769" stroke-width="3" stroke-miterlimit="10" stroke-linecap="round"/>
<path d="M66.4768 350.562C67.6319 350.562 68.5683 349.627 68.5683 348.472C68.5683 347.318 67.6319 346.383 66.4768 346.383C65.3217 346.383 64.3853 347.318 64.3853 348.472C64.3853 349.627 65.3217 350.562 66.4768 350.562Z" stroke="#BF9769" stroke-width="3" stroke-miterlimit="10" stroke-linecap="round"/>
<path d="M66.4768 356.5C67.6319 356.5 68.5683 355.564 68.5683 354.41C68.5683 353.256 67.6319 352.32 66.4768 352.32C65.3217 352.32 64.3853 353.256 64.3853 354.41C64.3853 355.564 65.3217 356.5 66.4768 356.5Z" stroke="#BF9769" stroke-width="3" stroke-miterlimit="10" stroke-linecap="round"/>
<path d="M66.4768 362.437C67.6319 362.437 68.5683 361.501 68.5683 360.347C68.5683 359.193 67.6319 358.258 66.4768 358.258C65.3217 358.258 64.3853 359.193 64.3853 360.347C64.3853 361.501 65.3217 362.437 66.4768 362.437Z" stroke="#BF9769" stroke-width="3" stroke-miterlimit="10" stroke-linecap="round"/>
<path d="M66.4768 368.375C67.6319 368.375 68.5683 367.439 68.5683 366.285C68.5683 365.131 67.6319 364.195 66.4768 364.195C65.3217 364.195 64.3853 365.131 64.3853 366.285C64.3853 367.439 65.3217 368.375 66.4768 368.375Z" stroke="#BF9769" stroke-width="3" stroke-miterlimit="10" stroke-linecap="round"/>
<path d="M66.4768 374.343C67.6319 374.343 68.5683 373.408 68.5683 372.254C68.5683 371.1 67.6319 370.164 66.4768 370.164C65.3217 370.164 64.3853 371.1 64.3853 372.254C64.3853 373.408 65.3217 374.343 66.4768 374.343Z" stroke="#BF9769" stroke-width="3" stroke-miterlimit="10" stroke-linecap="round"/>
<path d="M66.4768 380.281C67.6319 380.281 68.5683 379.345 68.5683 378.191C68.5683 377.037 67.6319 376.102 66.4768 376.102C65.3217 376.102 64.3853 377.037 64.3853 378.191C64.3853 379.345 65.3217 380.281 66.4768 380.281Z" stroke="#BF9769" stroke-width="3" stroke-miterlimit="10" stroke-linecap="round"/>
<path d="M66.4768 386.218C67.6319 386.218 68.5683 385.283 68.5683 384.129C68.5683 382.975 67.6319 382.039 66.4768 382.039C65.3217 382.039 64.3853 382.975 64.3853 384.129C64.3853 385.283 65.3217 386.218 66.4768 386.218Z" stroke="#BF9769" stroke-width="3" stroke-miterlimit="10" stroke-linecap="round"/>
<path d="M66.4768 392.156C67.6319 392.156 68.5683 391.22 68.5683 390.066C68.5683 388.912 67.6319 387.977 66.4768 387.977C65.3217 387.977 64.3853 388.912 64.3853 390.066C64.3853 391.22 65.3217 392.156 66.4768 392.156Z" stroke="#BF9769" stroke-width="3" stroke-miterlimit="10" stroke-linecap="round"/>
<path d="M66.4768 398.093C67.6319 398.093 68.5683 397.158 68.5683 396.004C68.5683 394.85 67.6319 393.914 66.4768 393.914C65.3217 393.914 64.3853 394.85 64.3853 396.004C64.3853 397.158 65.3217 398.093 66.4768 398.093Z" stroke="#BF9769" stroke-width="3" stroke-miterlimit="10" stroke-linecap="round"/>
<path d="M66.4768 404.031C67.6319 404.031 68.5683 403.095 68.5683 401.941C68.5683 400.787 67.6319 399.852 66.4768 399.852C65.3217 399.852 64.3853 400.787 64.3853 401.941C64.3853 403.095 65.3217 404.031 66.4768 404.031Z" stroke="#BF9769" stroke-width="3" stroke-miterlimit="10" stroke-linecap="round"/>
<path d="M66.4768 409.966C67.6319 409.966 68.5683 409.031 68.5683 407.877C68.5683 406.723 67.6319 405.787 66.4768 405.787C65.3217 405.787 64.3853 406.723 64.3853 407.877C64.3853 409.031 65.3217 409.966 66.4768 409.966Z" stroke="#BF9769" stroke-width="3" stroke-miterlimit="10" stroke-linecap="round"/>
<path d="M66.4768 415.904C67.6319 415.904 68.5683 414.968 68.5683 413.814C68.5683 412.66 67.6319 411.725 66.4768 411.725C65.3217 411.725 64.3853 412.66 64.3853 413.814C64.3853 414.968 65.3217 415.904 66.4768 415.904Z" stroke="#BF9769" stroke-width="3" stroke-miterlimit="10" stroke-linecap="round"/>
<path d="M58.5092 326.814C59.6643 326.814 60.6007 325.878 60.6007 324.724C60.6007 323.57 59.6643 322.635 58.5092 322.635C57.3541 322.635 56.4177 323.57 56.4177 324.724C56.4177 325.878 57.3541 326.814 58.5092 326.814Z" stroke="#BF9769" stroke-width="3" stroke-miterlimit="10" stroke-linecap="round"/>
<path d="M58.5092 332.751C59.6643 332.751 60.6007 331.816 60.6007 330.662C60.6007 329.508 59.6643 328.572 58.5092 328.572C57.3541 328.572 56.4177 329.508 56.4177 330.662C56.4177 331.816 57.3541 332.751 58.5092 332.751Z" stroke="#BF9769" stroke-width="3" stroke-miterlimit="10" stroke-linecap="round"/>
<path d="M58.5092 338.689C59.6643 338.689 60.6007 337.753 60.6007 336.599C60.6007 335.445 59.6643 334.51 58.5092 334.51C57.3541 334.51 56.4177 335.445 56.4177 336.599C56.4177 337.753 57.3541 338.689 58.5092 338.689Z" stroke="#BF9769" stroke-width="3" stroke-miterlimit="10" stroke-linecap="round"/>
<path d="M58.5092 344.625C59.6643 344.625 60.6007 343.689 60.6007 342.535C60.6007 341.381 59.6643 340.445 58.5092 340.445C57.3541 340.445 56.4177 341.381 56.4177 342.535C56.4177 343.689 57.3541 344.625 58.5092 344.625Z" stroke="#BF9769" stroke-width="3" stroke-miterlimit="10" stroke-linecap="round"/>
<path d="M58.5092 350.562C59.6643 350.562 60.6007 349.627 60.6007 348.472C60.6007 347.318 59.6643 346.383 58.5092 346.383C57.3541 346.383 56.4177 347.318 56.4177 348.472C56.4177 349.627 57.3541 350.562 58.5092 350.562Z" stroke="#BF9769" stroke-width="3" stroke-miterlimit="10" stroke-linecap="round"/>
<path d="M58.5092 356.5C59.6643 356.5 60.6007 355.564 60.6007 354.41C60.6007 353.256 59.6643 352.32 58.5092 352.32C57.3541 352.32 56.4177 353.256 56.4177 354.41C56.4177 355.564 57.3541 356.5 58.5092 356.5Z" stroke="#BF9769" stroke-width="3" stroke-miterlimit="10" stroke-linecap="round"/>
<path d="M58.5092 362.437C59.6643 362.437 60.6007 361.501 60.6007 360.347C60.6007 359.193 59.6643 358.258 58.5092 358.258C57.3541 358.258 56.4177 359.193 56.4177 360.347C56.4177 361.501 57.3541 362.437 58.5092 362.437Z" stroke="#BF9769" stroke-width="3" stroke-miterlimit="10" stroke-linecap="round"/>
<path d="M58.5092 368.375C59.6643 368.375 60.6007 367.439 60.6007 366.285C60.6007 365.131 59.6643 364.195 58.5092 364.195C57.3541 364.195 56.4177 365.131 56.4177 366.285C56.4177 367.439 57.3541 368.375 58.5092 368.375Z" stroke="#BF9769" stroke-width="3" stroke-miterlimit="10" stroke-linecap="round"/>
<path d="M58.5092 374.343C59.6643 374.343 60.6007 373.408 60.6007 372.254C60.6007 371.1 59.6643 370.164 58.5092 370.164C57.3541 370.164 56.4177 371.1 56.4177 372.254C56.4177 373.408 57.3541 374.343 58.5092 374.343Z" stroke="#BF9769" stroke-width="3" stroke-miterlimit="10" stroke-linecap="round"/>
<path d="M58.5092 380.281C59.6643 380.281 60.6007 379.345 60.6007 378.191C60.6007 377.037 59.6643 376.102 58.5092 376.102C57.3541 376.102 56.4177 377.037 56.4177 378.191C56.4177 379.345 57.3541 380.281 58.5092 380.281Z" stroke="#BF9769" stroke-width="3" stroke-miterlimit="10" stroke-linecap="round"/>
<path d="M58.5092 386.218C59.6643 386.218 60.6007 385.283 60.6007 384.129C60.6007 382.975 59.6643 382.039 58.5092 382.039C57.3541 382.039 56.4177 382.975 56.4177 384.129C56.4177 385.283 57.3541 386.218 58.5092 386.218Z" stroke="#BF9769" stroke-width="3" stroke-miterlimit="10" stroke-linecap="round"/>
<path d="M58.5092 392.156C59.6643 392.156 60.6007 391.22 60.6007 390.066C60.6007 388.912 59.6643 387.977 58.5092 387.977C57.3541 387.977 56.4177 388.912 56.4177 390.066C56.4177 391.22 57.3541 392.156 58.5092 392.156Z" stroke="#BF9769" stroke-width="3" stroke-miterlimit="10" stroke-linecap="round"/>
<path d="M58.5092 398.093C59.6643 398.093 60.6007 397.158 60.6007 396.004C60.6007 394.85 59.6643 393.914 58.5092 393.914C57.3541 393.914 56.4177 394.85 56.4177 396.004C56.4177 397.158 57.3541 398.093 58.5092 398.093Z" stroke="#BF9769" stroke-width="3" stroke-miterlimit="10" stroke-linecap="round"/>
<path d="M58.5092 404.031C59.6643 404.031 60.6007 403.095 60.6007 401.941C60.6007 400.787 59.6643 399.852 58.5092 399.852C57.3541 399.852 56.4177 400.787 56.4177 401.941C56.4177 403.095 57.3541 404.031 58.5092 404.031Z" stroke="#BF9769" stroke-width="3" stroke-miterlimit="10" stroke-linecap="round"/>
<path d="M58.5092 409.966C59.6643 409.966 60.6007 409.031 60.6007 407.877C60.6007 406.723 59.6643 405.787 58.5092 405.787C57.3541 405.787 56.4177 406.723 56.4177 407.877C56.4177 409.031 57.3541 409.966 58.5092 409.966Z" stroke="#BF9769" stroke-width="3" stroke-miterlimit="10" stroke-linecap="round"/>
<path d="M58.5092 415.904C59.6643 415.904 60.6007 414.968 60.6007 413.814C60.6007 412.66 59.6643 411.725 58.5092 411.725C57.3541 411.725 56.4177 412.66 56.4177 413.814C56.4177 414.968 57.3541 415.904 58.5092 415.904Z" stroke="#BF9769" stroke-width="3" stroke-miterlimit="10" stroke-linecap="round"/>
<path d="M50.5417 326.814C51.6968 326.814 52.6332 325.878 52.6332 324.724C52.6332 323.57 51.6968 322.635 50.5417 322.635C49.3866 322.635 48.4502 323.57 48.4502 324.724C48.4502 325.878 49.3866 326.814 50.5417 326.814Z" stroke="#BF9769" stroke-width="3" stroke-miterlimit="10" stroke-linecap="round"/>
<path d="M50.5417 332.751C51.6968 332.751 52.6332 331.816 52.6332 330.662C52.6332 329.508 51.6968 328.572 50.5417 328.572C49.3866 328.572 48.4502 329.508 48.4502 330.662C48.4502 331.816 49.3866 332.751 50.5417 332.751Z" stroke="#BF9769" stroke-width="3" stroke-miterlimit="10" stroke-linecap="round"/>
<path d="M50.5417 338.689C51.6968 338.689 52.6332 337.753 52.6332 336.599C52.6332 335.445 51.6968 334.51 50.5417 334.51C49.3866 334.51 48.4502 335.445 48.4502 336.599C48.4502 337.753 49.3866 338.689 50.5417 338.689Z" stroke="#BF9769" stroke-width="3" stroke-miterlimit="10" stroke-linecap="round"/>
<path d="M50.5417 344.625C51.6968 344.625 52.6332 343.689 52.6332 342.535C52.6332 341.381 51.6968 340.445 50.5417 340.445C49.3866 340.445 48.4502 341.381 48.4502 342.535C48.4502 343.689 49.3866 344.625 50.5417 344.625Z" stroke="#BF9769" stroke-width="3" stroke-miterlimit="10" stroke-linecap="round"/>
<path d="M50.5417 350.562C51.6968 350.562 52.6332 349.627 52.6332 348.472C52.6332 347.318 51.6968 346.383 50.5417 346.383C49.3866 346.383 48.4502 347.318 48.4502 348.472C48.4502 349.627 49.3866 350.562 50.5417 350.562Z" stroke="#BF9769" stroke-width="3" stroke-miterlimit="10" stroke-linecap="round"/>
<path d="M50.5417 356.5C51.6968 356.5 52.6332 355.564 52.6332 354.41C52.6332 353.256 51.6968 352.32 50.5417 352.32C49.3866 352.32 48.4502 353.256 48.4502 354.41C48.4502 355.564 49.3866 356.5 50.5417 356.5Z" stroke="#BF9769" stroke-width="3" stroke-miterlimit="10" stroke-linecap="round"/>
<path d="M50.5417 362.437C51.6968 362.437 52.6332 361.501 52.6332 360.347C52.6332 359.193 51.6968 358.258 50.5417 358.258C49.3866 358.258 48.4502 359.193 48.4502 360.347C48.4502 361.501 49.3866 362.437 50.5417 362.437Z" stroke="#BF9769" stroke-width="3" stroke-miterlimit="10" stroke-linecap="round"/>
<path d="M50.5417 368.375C51.6968 368.375 52.6332 367.439 52.6332 366.285C52.6332 365.131 51.6968 364.195 50.5417 364.195C49.3866 364.195 48.4502 365.131 48.4502 366.285C48.4502 367.439 49.3866 368.375 50.5417 368.375Z" stroke="#BF9769" stroke-width="3" stroke-miterlimit="10" stroke-linecap="round"/>
<path d="M50.5417 374.343C51.6968 374.343 52.6332 373.408 52.6332 372.254C52.6332 371.1 51.6968 370.164 50.5417 370.164C49.3866 370.164 48.4502 371.1 48.4502 372.254C48.4502 373.408 49.3866 374.343 50.5417 374.343Z" stroke="#BF9769" stroke-width="3" stroke-miterlimit="10" stroke-linecap="round"/>
<path d="M50.5417 380.281C51.6968 380.281 52.6332 379.345 52.6332 378.191C52.6332 377.037 51.6968 376.102 50.5417 376.102C49.3866 376.102 48.4502 377.037 48.4502 378.191C48.4502 379.345 49.3866 380.281 50.5417 380.281Z" stroke="#BF9769" stroke-width="3" stroke-miterlimit="10" stroke-linecap="round"/>
<path d="M50.5417 386.218C51.6968 386.218 52.6332 385.283 52.6332 384.129C52.6332 382.975 51.6968 382.039 50.5417 382.039C49.3866 382.039 48.4502 382.975 48.4502 384.129C48.4502 385.283 49.3866 386.218 50.5417 386.218Z" stroke="#BF9769" stroke-width="3" stroke-miterlimit="10" stroke-linecap="round"/>
<path d="M50.5417 392.156C51.6968 392.156 52.6332 391.22 52.6332 390.066C52.6332 388.912 51.6968 387.977 50.5417 387.977C49.3866 387.977 48.4502 388.912 48.4502 390.066C48.4502 391.22 49.3866 392.156 50.5417 392.156Z" stroke="#BF9769" stroke-width="3" stroke-miterlimit="10" stroke-linecap="round"/>
<path d="M50.5417 398.093C51.6968 398.093 52.6332 397.158 52.6332 396.004C52.6332 394.85 51.6968 393.914 50.5417 393.914C49.3866 393.914 48.4502 394.85 48.4502 396.004C48.4502 397.158 49.3866 398.093 50.5417 398.093Z" stroke="#BF9769" stroke-width="3" stroke-miterlimit="10" stroke-linecap="round"/>
<path d="M50.5417 404.031C51.6968 404.031 52.6332 403.095 52.6332 401.941C52.6332 400.787 51.6968 399.852 50.5417 399.852C49.3866 399.852 48.4502 400.787 48.4502 401.941C48.4502 403.095 49.3866 404.031 50.5417 404.031Z" stroke="#BF9769" stroke-width="3" stroke-miterlimit="10" stroke-linecap="round"/>
<path d="M50.5417 409.966C51.6968 409.966 52.6332 409.031 52.6332 407.877C52.6332 406.723 51.6968 405.787 50.5417 405.787C49.3866 405.787 48.4502 406.723 48.4502 407.877C48.4502 409.031 49.3866 409.966 50.5417 409.966Z" stroke="#BF9769" stroke-width="3" stroke-miterlimit="10" stroke-linecap="round"/>
<path d="M50.5417 415.904C51.6968 415.904 52.6332 414.968 52.6332 413.814C52.6332 412.66 51.6968 411.725 50.5417 411.725C49.3866 411.725 48.4502 412.66 48.4502 413.814C48.4502 414.968 49.3866 415.904 50.5417 415.904Z" stroke="#BF9769" stroke-width="3" stroke-miterlimit="10" stroke-linecap="round"/>
<path d="M122.084 216.297C122.084 218.585 121.951 220.808 121.752 223.063C121.52 225.352 122.449 227.773 122.051 229.995C121.653 232.251 120.756 234.44 120.291 236.629C119.793 238.884 119.163 241.074 118.532 243.23C117.901 245.452 116.606 247.409 115.776 249.465C114.913 251.588 114.515 253.91 113.419 255.867C112.291 257.857 111.029 259.781 109.668 261.605C108.307 263.429 106.614 264.988 105.02 266.613C103.427 268.239 101.468 269.4 99.6753 270.826C97.9157 272.219 96.3554 273.944 94.3967 275.138C92.4712 276.299 90.3797 277.161 88.255 278.09C86.1967 279.018 84.1052 279.748 81.8477 280.378C79.723 281.008 77.5319 281.34 75.208 281.639C73.0169 281.937 70.8259 283.198 68.502 283.297C66.2777 283.397 63.987 282.169 61.6299 282.169C59.306 282.169 57.0485 282.468 54.8906 282.236C52.5667 282.004 50.3093 282.037 48.1514 281.639C45.8939 281.208 43.7692 280.378 41.6445 279.781C39.4202 279.118 37.0631 278.985 35.0712 278.09C32.9797 277.161 31.4526 275.237 29.5935 274.076C27.668 272.882 25.6429 271.92 23.8833 270.527C22.1238 269.101 20.0323 268.04 18.4056 266.514C16.7457 264.955 15.9821 262.6 14.5546 260.875C13.1271 259.15 11.1684 257.791 10.0396 255.8C8.94407 253.843 7.94812 251.754 7.11816 249.631C6.2882 247.541 6.35459 245.153 5.75702 242.931C5.15945 240.775 4.79427 238.586 4.2963 236.33C3.83152 234.141 2.86876 232.052 2.60318 229.796C2.33759 227.574 2.70277 225.319 2.60318 223.03C2.50358 220.808 2.43719 218.585 2.43719 216.297C2.43719 214.008 1.93921 211.719 2.00561 209.497C2.072 207.209 1.93921 204.92 2.1716 202.698C2.40399 200.409 2.86876 198.154 3.36674 195.998C3.86472 193.742 4.66148 191.619 5.32544 189.463C6.02261 187.274 6.255 184.919 7.15136 182.863C8.04771 180.74 10.0064 179.181 11.102 177.224C12.2307 175.234 13.1271 173.178 14.455 171.353C15.8161 169.529 17.6088 168.136 19.1692 166.511C20.7295 164.886 21.6922 162.564 23.485 161.171C25.2445 159.778 27.6016 159.247 29.5935 158.086C31.4194 156.892 33.2785 155.565 35.4032 154.67C37.4615 153.807 39.553 153.011 41.8105 152.348C43.9352 151.718 46.0931 150.922 48.3837 150.424C50.5416 149.96 52.7659 149.23 55.0898 148.931C57.2809 148.666 59.638 148.799 61.9619 148.799C64.319 148.799 66.6097 148.998 68.8008 149.197C71.1246 149.429 73.4153 149.694 75.6064 150.126C77.8971 150.59 79.9886 151.618 82.1133 152.248C84.3376 152.912 86.3959 153.874 88.4542 154.736C90.6121 155.632 92.9028 156.063 94.8615 157.157C96.8866 158.318 98.5797 159.844 100.339 161.237C102.132 162.663 104.091 163.89 105.618 165.582C107.145 167.274 108.772 168.932 110.066 170.823C111.361 172.68 111.859 175.068 112.988 177.058C114.083 179.015 115.776 180.74 116.64 182.83C117.47 184.886 118.134 187.108 118.764 189.331C119.395 191.453 119.993 193.676 120.491 195.931C120.955 198.12 121.321 200.376 121.719 202.631C122.117 204.854 121.852 207.175 122.084 209.464C122.317 211.753 122.084 214.008 122.084 216.297Z" fill="#B32227"/>
<path d="M122.084 216.297C122.084 218.585 121.951 220.808 121.752 223.063C121.52 225.352 122.449 227.773 122.051 229.995C121.653 232.251 120.756 234.44 120.291 236.629C119.793 238.884 119.163 241.074 118.532 243.23C117.901 245.452 116.606 247.409 115.776 249.465C114.913 251.588 114.515 253.91 113.419 255.867C112.291 257.857 111.029 259.781 109.668 261.605C108.307 263.429 106.614 264.988 105.02 266.613C103.427 268.239 101.468 269.4 99.6753 270.826C97.9157 272.219 96.3554 273.944 94.3967 275.138C92.4712 276.299 90.3797 277.161 88.255 278.09C86.1967 279.018 84.1052 279.748 81.8477 280.378C79.723 281.009 77.5319 281.34 75.208 281.639C73.0169 281.937 70.8259 283.198 68.502 283.297C66.2777 283.397 63.987 282.169 61.6299 282.169C59.306 282.169 57.0485 282.468 54.8906 282.236C52.5667 282.004 50.3093 282.037 48.1514 281.639C45.8939 281.208 43.7692 280.378 41.6445 279.781C39.4202 279.118 37.0631 278.985 35.0712 278.09C32.9797 277.161 31.4526 275.237 29.5935 274.076C27.668 272.882 25.6429 271.92 23.8833 270.527C22.1238 269.101 20.0323 268.04 18.4056 266.514C16.7457 264.955 15.9821 262.6 14.5546 260.875C13.1271 259.15 11.1684 257.791 10.0396 255.8C8.94407 253.843 7.94812 251.754 7.11816 249.631C6.2882 247.541 6.35459 245.153 5.75702 242.931C5.15945 240.775 4.79427 238.586 4.2963 236.33C3.83152 234.141 2.86876 232.052 2.60318 229.796C2.33759 227.574 2.70277 225.319 2.60318 223.03C2.50358 220.808 2.43719 218.585 2.43719 216.297C2.43719 214.008 1.93921 211.719 2.00561 209.497C2.072 207.209 1.93921 204.92 2.1716 202.698C2.40399 200.409 2.86876 198.154 3.36674 195.998C3.86472 193.742 4.66148 191.619 5.32545 189.463C6.02261 187.274 6.255 184.919 7.15136 182.863C8.04771 180.74 10.0064 179.181 11.102 177.224C12.2307 175.234 13.1271 173.178 14.455 171.353C15.8161 169.529 17.6088 168.136 19.1692 166.511C20.7295 164.886 21.6922 162.564 23.485 161.171C25.2445 159.778 27.6016 159.247 29.5935 158.086C31.4194 156.892 33.2785 155.565 35.4032 154.67C37.4615 153.807 39.553 153.011 41.8105 152.348C43.9352 151.718 46.0931 150.922 48.3837 150.424C50.5416 149.96 52.7659 149.23 55.0898 148.931C57.2809 148.666 59.638 148.799 61.9619 148.799C64.319 148.799 66.6097 148.998 68.8008 149.197C71.1246 149.429 73.4153 149.694 75.6064 150.126C77.8971 150.59 79.9886 151.618 82.1133 152.248C84.3376 152.912 86.3959 153.874 88.4542 154.736C90.6121 155.632 92.9028 156.063 94.8615 157.157C96.8866 158.318 98.5797 159.844 100.339 161.237C102.132 162.663 104.091 163.89 105.618 165.582C107.145 167.274 108.772 168.932 110.066 170.823C111.361 172.68 111.859 175.068 112.988 177.058C114.083 179.015 115.776 180.74 116.64 182.83C117.47 184.886 118.134 187.108 118.764 189.331C119.395 191.453 119.993 193.676 120.491 195.931C120.955 198.12 121.321 200.376 121.719 202.631C122.117 204.854 121.852 207.175 122.084 209.464C122.317 211.753 122.084 214.008 122.084 216.297Z" stroke="#BF9769" stroke-width="3" stroke-miterlimit="10" stroke-linecap="round"/>
<path d="M60.4347 149.363C57.978 149.363 55.5546 149.197 53.3635 149.794C51.0728 150.424 48.9481 151.685 46.9562 152.846C44.9643 154.007 43.3044 155.698 41.578 157.357C39.9513 158.915 38.8558 160.939 37.4614 162.896C36.1667 164.72 33.8428 166.047 32.7805 168.203C31.7513 170.193 31.2201 172.581 30.3902 174.836C29.5934 176.959 29.0955 179.248 28.4315 181.57C27.7675 183.792 27.2695 186.08 26.7716 188.402C26.2736 190.625 25.2112 192.847 24.8793 195.202C24.5805 197.457 24.4145 199.812 24.2153 202.2C24.0161 204.489 24.3813 206.877 24.3149 209.265C24.2485 211.587 23.9165 213.909 23.9165 216.297C23.9165 218.685 24.9457 220.941 25.1448 223.262C25.3772 225.617 25.6096 227.906 25.9416 230.195C26.2736 232.55 25.9416 234.971 26.2404 237.226C26.5724 239.581 26.9044 241.903 27.2695 244.159C27.6679 246.514 28.0995 248.835 28.6639 251.024C29.2282 253.346 30.191 255.502 30.9878 257.625C31.8177 259.88 32.5813 262.136 33.544 264.226C34.5732 266.448 35.7019 268.504 36.9303 270.395C38.2582 272.451 39.5861 274.375 41.2461 275.967C42.9724 277.626 45.0971 278.72 47.1886 279.881C49.2469 281.042 51.1392 282.8 53.4963 283.397C55.7538 283.961 58.2768 283.032 60.7335 283.032" stroke="#BF9769" stroke-width="3" stroke-miterlimit="10" stroke-linecap="round"/>
<path d="M60.5676 149.628C63.0243 149.628 65.4809 149.296 67.7052 149.794C70.0291 150.324 72.021 151.916 74.0461 153.011C76.1044 154.106 77.6979 155.731 79.4243 157.356C81.0842 158.915 82.4785 160.607 83.7732 162.663C85.0016 164.554 86.8939 166.146 87.923 168.368C88.8858 170.424 89.4502 172.746 90.2801 175.002C91.0769 177.125 92.3716 179.148 93.1352 181.436C93.8323 183.592 94.2639 185.947 94.8283 188.269C95.3595 190.491 95.957 192.813 96.289 195.168C96.5878 197.457 96.2558 199.845 96.3222 202.233C96.3886 204.522 95.8906 206.877 95.8574 209.232C95.8243 211.553 95.8243 213.875 95.8243 216.263C95.8243 218.652 96.621 221.006 96.5546 223.295C96.4882 225.683 96.289 228.005 96.0898 230.294C95.8907 232.649 94.7619 234.871 94.4299 237.16C94.0979 239.514 93.6996 241.77 93.2016 243.992C92.6704 246.314 92.8364 248.769 92.1724 250.924C91.4753 253.213 90.0145 255.17 89.2178 257.293C88.3878 259.548 87.7238 261.771 86.7611 263.827C85.7319 266.016 85.234 268.404 84.0056 270.295C82.6777 272.318 81.0842 274.109 79.4575 275.668C77.7311 277.327 75.6728 278.488 73.6477 279.615C71.6226 280.743 69.3651 281.141 67.0413 281.705C64.8502 282.236 62.6591 282.567 60.2024 282.567" stroke="#BF9769" stroke-width="3" stroke-miterlimit="10" stroke-linecap="round"/>
<path d="M60.302 149.992C58.7749 149.992 57.115 151.02 56.0194 153.375C55.3887 154.735 55.3555 156.725 54.7911 158.848C54.4923 160.009 53.762 161.137 53.3968 162.464C53.098 163.624 53.3304 165.018 53.0316 166.311C52.766 167.505 51.9692 168.666 51.8032 169.993C51.6373 171.22 51.7037 172.514 51.6041 173.84C51.5045 175.068 51.9028 176.394 51.8364 177.721C51.7701 178.981 51.7037 180.275 51.6041 181.569C51.5045 182.829 50.9069 184.056 50.8405 185.35C50.7741 186.61 50.8073 187.904 50.7741 189.197C50.7077 190.458 51.3717 191.785 51.3053 193.078C51.2389 194.338 50.1433 195.566 50.1101 196.859C50.0769 198.12 50.6413 199.413 50.6081 200.707C50.5749 201.967 50.9401 203.261 50.9069 204.554C50.8737 205.815 49.6122 207.042 49.4794 208.336C49.3798 209.596 50.1765 210.956 50.1101 212.249C50.0105 213.51 49.6786 214.77 49.6786 216.064C49.6786 217.357 49.5126 218.651 49.4794 219.945C49.4794 221.238 49.8445 222.532 49.8113 223.792C49.8113 225.086 49.3134 226.379 49.3134 227.64C49.3466 228.933 48.9814 230.26 49.0146 231.52C49.0478 232.814 49.1806 234.108 49.2138 235.368C49.247 236.662 50.1101 237.922 50.1765 239.182C50.2429 240.476 50.0769 241.803 50.2429 243.063C50.4421 244.357 50.8737 245.584 51.0729 246.844C51.2721 248.138 51.8696 249.398 51.9692 250.625C52.0688 251.952 51.8364 253.246 51.936 254.506C52.0356 255.833 52.6 257.06 52.7328 258.287C52.8656 259.614 52.102 260.974 52.268 262.201C52.434 263.528 52.6664 264.788 52.7992 266.016C52.9652 267.342 52.766 268.702 52.9652 269.896C53.1644 271.256 54.3927 272.318 54.6915 273.479C55.0567 274.838 54.7911 276.298 55.2227 277.392C55.7871 278.786 56.7498 279.747 57.4138 280.61C58.3765 281.937 59.2729 282.733 60.3684 282.733" stroke="#BF9769" stroke-width="3" stroke-miterlimit="10" stroke-linecap="round"/>
<path d="M60.3352 149.662C61.8623 149.662 63.2566 151.055 64.3522 153.443C65.0162 154.836 64.9166 156.827 65.4809 158.949C65.7797 160.11 66.8753 161.138 67.1077 162.498C67.3068 163.692 66.6429 165.085 66.8421 166.412C67.0081 167.606 68.004 168.767 68.2032 170.094C68.3692 171.321 68.3692 172.615 68.5684 173.908C68.7676 175.136 68.5684 176.462 68.7676 177.756C68.9668 178.983 69.166 180.243 69.2656 181.537C69.3652 182.797 69.6639 184.025 69.7303 185.351C69.7967 186.612 70.4275 187.872 70.4607 189.166C70.5271 190.426 70.0955 191.72 70.1619 193.047C70.2283 194.307 70.2283 195.6 70.3279 196.894C70.4275 198.154 70.8591 199.415 70.9587 200.708C71.0583 201.969 71.1579 203.262 71.1911 204.556C71.2243 205.816 71.357 207.143 71.2575 208.437C71.1579 209.697 70.7263 210.958 70.5935 212.251C70.4939 213.511 70.1287 214.805 70.1287 216.099C70.1287 217.392 70.3279 218.686 70.3279 219.979C70.3279 221.273 70.7595 222.566 70.7595 223.827C70.7595 225.12 70.7595 226.414 70.7263 227.674C70.6931 228.935 70.2615 230.228 70.2615 231.489C70.2615 232.782 70.7595 234.076 70.7595 235.336C70.7595 236.63 69.8299 237.89 69.7635 239.151C69.6971 240.444 69.5975 241.738 69.5311 242.998C69.4315 244.292 69.6307 245.585 69.5311 246.846C69.4315 248.139 69.2324 249.433 69.1328 250.66C69.0332 251.987 68.834 253.247 68.7012 254.508C68.6016 255.835 68.6348 257.095 68.502 258.355C68.3692 259.682 68.8008 261.009 68.6348 262.236C68.4688 263.563 68.004 264.823 67.7052 266.017C67.4064 267.344 66.5765 268.439 66.2445 269.599C65.8793 270.893 65.3481 272.087 65.0162 273.248C64.4518 275.371 65.0162 277.56 64.4518 278.986C63.4558 281.474 61.7295 282.701 60.2024 282.668" stroke="#BF9769" stroke-width="3" stroke-miterlimit="10" stroke-linecap="round"/>
</svg>
