<svg width="2014" height="692" viewBox="0 0 2014 692" fill="none" xmlns="http://www.w3.org/2000/svg">
<g clip-path="url(#clip0_452_10281)">
<path d="M837.044 456.418C837.044 456.418 894.568 466.561 921.656 449.648C936.9 440.499 967.413 458.274 981.585 463.424C1016.83 476.259 1055.61 481.043 1092.97 483.004C1121.68 484.52 1154.91 480.52 1167.86 450.824C1167.86 450.824 1221.14 455.817 1233.85 432.421C1246.53 409.025 1254.12 366.729 1196.17 369.265C1178.84 368.428 1175.47 371.801 1175.47 371.801V358.26C1175.47 358.26 1202.53 358.26 1209.3 348.117C1209.3 348.117 1229.77 393.184 1297.36 387.563C1310.83 385.342 1317.57 381.943 1317.57 381.943C1317.57 381.943 1361.58 425.938 1415.7 408.999C1469.85 392.086 1488.26 339.647 1501.05 332.04C1513.83 324.433 1540.97 322.734 1540.95 354.025C1540.92 385.315 1537.52 402.229 1595.07 422.54C1652.6 442.851 1730.44 415.769 1750.75 388.714C1771.07 361.658 1827.44 365.03 1860.15 419.168C1899.63 459.764 1978.13 451.321 1999.8 418.331C2021.48 385.342 2024.25 317.689 1939.95 310.919C1899.63 310.919 1880.1 326.995 1880.1 326.995C1880.1 326.995 1865.8 277.092 1808.28 283.863C1791.36 283.863 1772.53 305.743 1772.53 305.743C1772.53 305.743 1762.05 266.95 1700.58 266.95C1700.58 266.95 1724.13 261.878 1720.53 235.659C1716.92 209.44 1676.31 192.527 1625.56 199.297C1574.81 206.068 1510.67 218.171 1483.5 201.964C1456.34 185.756 1459.74 175.614 1480.03 172.215C1500.32 168.817 1546.86 178.986 1618.34 172.215C1689.83 165.445 1801.5 168.843 1845.51 175.588C1889.51 182.332 1908.1 185.129 1930.96 168.503C1953.81 151.904 1939.95 141.735 1939.95 141.735C1939.95 141.735 1957.18 138.363 1957.18 124.822C1957.18 111.281 1967.33 84.2253 1855.65 87.5975C1743.98 90.9697 1743.61 77.5333 1738.72 65.6392C1733.83 53.7451 1741.6 25.8529 1800.33 21.1998C1859.05 16.5467 1936.89 13.1746 1950.44 16.5467C1950.44 16.5467 1886.25 -0.261817 1781.29 1.38505C1676.34 3.03193 1613.35 0.470127 1600.85 38.9756C1588.35 77.4549 1625.48 88.4602 1640.75 91.4141C1656.02 94.368 1679.71 94.368 1679.71 94.368C1679.71 94.368 1698.98 112.379 1746.86 110.131C1794.76 107.909 1848.91 101.138 1855.68 114.653C1862.45 128.194 1859.05 141.709 1821.85 145.107C1784.61 148.479 1637.67 153.943 1585.92 135.984C1534.2 118.025 1524.03 104.511 1513.89 84.1992C1503.74 63.8878 1480.76 46.6348 1429.64 51.8891C1378.52 57.1434 1361.45 78.2914 1361.45 78.2914C1361.45 78.2914 1290.54 60.5417 1243.16 90.9697C1243.16 90.9697 1175.49 84.1992 1141.63 107.883C1107.77 131.566 1104.4 165.393 1124.71 178.934C1134.86 185.704 1151.57 181.469 1151.57 181.469C1151.57 181.469 1161.45 205.101 1197.22 214.015C1232.99 222.929 1290.51 224.811 1322.67 201.859C1322.67 201.859 1361.58 219.53 1381.9 216.132C1381.9 216.132 1398.81 236.443 1442.82 236.443C1486.82 236.443 1527.43 229.673 1527.43 229.673C1527.43 229.673 1537.58 253.356 1554.49 256.729C1554.49 256.729 1555.98 271.943 1501.1 274.478C1446.22 277.014 1410.81 253.252 1391.28 251.605C1371.75 249.958 1327.77 243.188 1314.23 263.499C1314.23 263.499 1263.48 233.045 1233.01 246.586C1202.55 260.127 1192.41 273.642 1192.41 273.642C1192.41 273.642 1183.1 256.729 1164.07 266.871C1145.03 277.014 1151.8 290.555 1151.8 290.555C1151.8 290.555 1121.34 270.243 1084.13 290.555C1046.9 310.866 1046.9 351.463 1046.9 351.463C1046.9 351.463 985.978 354.835 948.771 354.835C911.563 354.835 891.247 361.606 847.242 337.922" fill="white"/>
<path d="M837.044 456.418C837.044 456.418 894.568 466.561 921.656 449.648C936.9 440.499 967.413 458.274 981.585 463.424C1016.83 476.259 1055.61 481.043 1092.97 483.004C1121.68 484.52 1154.91 480.52 1167.86 450.824C1167.86 450.824 1221.14 455.817 1233.85 432.421C1246.53 409.025 1254.12 366.729 1196.17 369.265C1178.84 368.428 1175.47 371.801 1175.47 371.801V358.26C1175.47 358.26 1202.53 358.26 1209.3 348.117C1209.3 348.117 1229.77 393.184 1297.36 387.563C1310.83 385.342 1317.57 381.943 1317.57 381.943C1317.57 381.943 1361.58 425.938 1415.7 408.999C1469.85 392.086 1488.26 339.647 1501.05 332.04C1513.83 324.433 1540.97 322.734 1540.95 354.025C1540.92 385.315 1537.52 402.229 1595.07 422.54C1652.6 442.851 1730.44 415.769 1750.75 388.714C1771.07 361.658 1827.44 365.03 1860.15 419.168C1899.63 459.764 1978.13 451.321 1999.8 418.331C2021.48 385.342 2024.25 317.689 1939.95 310.919C1899.63 310.919 1880.1 326.995 1880.1 326.995C1880.1 326.995 1865.8 277.092 1808.28 283.863C1791.36 283.863 1772.53 305.743 1772.53 305.743C1772.53 305.743 1762.05 266.95 1700.58 266.95C1700.58 266.95 1724.13 261.878 1720.53 235.659C1716.92 209.44 1676.31 192.527 1625.56 199.297C1574.81 206.068 1510.67 218.171 1483.5 201.964C1456.34 185.756 1459.74 175.614 1480.03 172.215C1500.32 168.817 1546.86 178.986 1618.34 172.215C1689.83 165.445 1801.5 168.843 1845.51 175.588C1889.51 182.332 1908.1 185.129 1930.96 168.503C1953.81 151.904 1939.95 141.735 1939.95 141.735C1939.95 141.735 1957.18 138.363 1957.18 124.822C1957.18 111.281 1967.33 84.2253 1855.65 87.5975C1743.98 90.9697 1743.61 77.5333 1738.72 65.6392C1733.83 53.7451 1741.6 25.8529 1800.33 21.1998C1859.05 16.5467 1936.89 13.1746 1950.44 16.5467C1950.44 16.5467 1886.25 -0.261817 1781.29 1.38505C1676.34 3.03193 1613.35 0.470127 1600.85 38.9756C1588.35 77.4549 1625.48 88.4602 1640.75 91.4141C1656.02 94.368 1679.71 94.368 1679.71 94.368C1679.71 94.368 1698.98 112.379 1746.86 110.131C1794.76 107.909 1848.91 101.138 1855.68 114.653C1862.45 128.194 1859.05 141.709 1821.85 145.107C1784.61 148.479 1637.67 153.943 1585.92 135.984C1534.2 118.025 1524.03 104.511 1513.89 84.1992C1503.74 63.8878 1480.76 46.6348 1429.64 51.8891C1378.52 57.1434 1361.45 78.2914 1361.45 78.2914C1361.45 78.2914 1290.54 60.5417 1243.16 90.9697C1243.16 90.9697 1175.49 84.1992 1141.63 107.883C1107.77 131.566 1104.4 165.393 1124.71 178.934C1134.86 185.704 1151.57 181.469 1151.57 181.469C1151.57 181.469 1161.45 205.101 1197.22 214.015C1232.99 222.929 1290.51 224.811 1322.67 201.859C1322.67 201.859 1361.58 219.53 1381.9 216.132C1381.9 216.132 1398.81 236.443 1442.82 236.443C1486.82 236.443 1527.43 229.673 1527.43 229.673C1527.43 229.673 1537.58 253.356 1554.49 256.729C1554.49 256.729 1555.98 271.943 1501.1 274.478C1446.22 277.014 1410.81 253.252 1391.28 251.605C1371.75 249.958 1327.77 243.188 1314.23 263.499C1314.23 263.499 1263.48 233.045 1233.01 246.586C1202.55 260.127 1192.41 273.642 1192.41 273.642C1192.41 273.642 1183.1 256.729 1164.07 266.871C1145.03 277.014 1151.8 290.555 1151.8 290.555C1151.8 290.555 1121.34 270.243 1084.13 290.555C1046.9 310.866 1046.9 351.463 1046.9 351.463C1046.9 351.463 985.978 354.835 948.771 354.835C911.563 354.835 891.247 361.606 847.242 337.922" stroke="#C39A6B" stroke-width="3" stroke-linecap="round" stroke-linejoin="round"/>
<path d="M837.044 415.377C840.417 415.795 867.506 432.708 904.713 429.336C941.946 425.964 979.153 425.964 999.47 436.107C1019.79 446.249 1038.38 436.107 1038.38 436.107" fill="white"/>
<path d="M837.044 415.377C840.417 415.795 867.506 432.708 904.713 429.336C941.946 425.964 979.153 425.964 999.47 436.107C1019.79 446.249 1038.38 436.107 1038.38 436.107" stroke="#C39A6B" stroke-width="3" stroke-linecap="round" stroke-linejoin="round"/>
<path d="M1046.87 446.249C1046.87 446.249 1026.56 436.107 1033.33 409.025C1036.7 388.739 1077.28 395.484 1077.34 395.484C1077.57 395.536 1083.82 388.06 1084.6 387.485C1089.91 383.433 1096.76 382.753 1102.7 386.125C1111.69 391.249 1111.17 400.111 1111.17 409.025" fill="white"/>
<path d="M1046.87 446.249C1046.87 446.249 1026.56 436.107 1033.33 409.025C1036.7 388.739 1077.28 395.484 1077.34 395.484C1077.57 395.536 1083.82 388.06 1084.6 387.485C1089.91 383.433 1096.76 382.753 1102.7 386.125C1111.69 391.249 1111.17 400.111 1111.17 409.025" stroke="#C39A6B" stroke-width="3" stroke-linecap="round" stroke-linejoin="round"/>
<path d="M1094.25 456.418C1094.25 456.418 1078.17 431.898 1098.07 415.403C1117.94 398.908 1138.26 405.679 1138.26 405.679" fill="white"/>
<path d="M1094.25 456.418C1094.25 456.418 1078.17 431.898 1098.07 415.403C1117.94 398.908 1138.26 405.679 1138.26 405.679" stroke="#C39A6B" stroke-width="3" stroke-linecap="round" stroke-linejoin="round"/>
<path d="M840.444 381.97C840.444 381.97 881.05 395.511 918.283 392.112C955.517 388.74 1002.9 358.286 1046.87 371.801" fill="white"/>
<path d="M840.444 381.97C840.444 381.97 881.05 395.511 918.283 392.112C955.517 388.74 1002.9 358.286 1046.87 371.801" stroke="#C39A6B" stroke-width="3" stroke-linecap="round" stroke-linejoin="round"/>
<path d="M1073.1 368.376C1073.1 368.376 1077.34 351.516 1046.87 351.516L1073.1 368.376Z" fill="white"/>
<path d="M1073.1 368.376C1073.1 368.376 1077.34 351.516 1046.87 351.516" stroke="#C39A6B" stroke-width="3" stroke-linecap="round" stroke-linejoin="round"/>
<path d="M1067.16 324.46C1067.16 324.46 1091.48 295.705 1113.16 299.94C1134.83 304.175 1144.98 310.945 1144.98 310.945C1144.98 310.945 1151.75 287.261 1182.21 287.261C1212.67 287.261 1212.67 294.032 1212.67 294.032C1212.67 294.032 1226.22 263.578 1270.2 270.348C1314.2 277.119 1327.72 294.032 1324.35 327.858C1324.35 327.858 1319.38 285.719 1367.54 283.105C1415.7 280.491 1455.84 288.934 1461.15 323.623C1466.46 358.312 1453.77 379.068 1433.04 380.532" fill="white"/>
<path d="M1067.16 324.46C1067.16 324.46 1091.48 295.705 1113.16 299.94C1134.83 304.175 1144.98 310.945 1144.98 310.945C1144.98 310.945 1151.75 287.261 1182.21 287.261C1212.67 287.261 1212.67 294.032 1212.67 294.032C1212.67 294.032 1226.22 263.578 1270.2 270.348C1314.2 277.119 1327.72 294.032 1324.35 327.858C1324.35 327.858 1319.38 285.719 1367.54 283.105C1415.7 280.491 1455.84 288.934 1461.15 323.623C1466.46 358.312 1453.77 379.068 1433.04 380.532" stroke="#C39A6B" stroke-width="3" stroke-linecap="round" stroke-linejoin="round"/>
<path d="M1351.43 365.057C1351.43 365.057 1310.83 371.827 1310.83 344.745L1351.43 365.057Z" fill="white"/>
<path d="M1351.43 365.057C1351.43 365.057 1310.83 371.827 1310.83 344.745" stroke="#C39A6B" stroke-width="3" stroke-linecap="round" stroke-linejoin="round"/>
<path d="M1266.82 344.771C1266.82 344.771 1283.74 344.77 1287.14 334.628C1290.51 324.485 1287.14 297.403 1253.3 297.403C1219.47 297.403 1212.7 314.316 1209.3 348.143" fill="white"/>
<path d="M1266.82 344.771C1266.82 344.771 1283.74 344.77 1287.14 334.628C1290.51 324.485 1287.14 297.403 1253.3 297.403C1219.47 297.403 1212.7 314.316 1209.3 348.143" stroke="#C39A6B" stroke-width="3" stroke-linecap="round" stroke-linejoin="round"/>
<path d="M1191.96 415.378C1191.96 415.378 1165.32 419.194 1161.92 395.511C1158.52 371.827 1183.05 369.579 1183.05 369.579" fill="white"/>
<path d="M1191.96 415.378C1191.96 415.378 1165.32 419.194 1161.92 395.511C1158.52 371.827 1183.05 369.579 1183.05 369.579" stroke="#C39A6B" stroke-width="3" stroke-linecap="round" stroke-linejoin="round"/>
<path d="M1128.09 404.293C1128.09 404.293 1135.41 364.769 1167.28 376.741L1128.09 404.293Z" fill="white"/>
<path d="M1128.09 404.293C1128.09 404.293 1135.41 364.769 1167.28 376.741" stroke="#C39A6B" stroke-width="3" stroke-linecap="round" stroke-linejoin="round"/>
<path d="M1381.9 216.21C1381.9 216.21 1397.98 210.825 1393.32 199.976C1388.67 189.128 1371.75 195.898 1371.75 195.898" fill="white"/>
<path d="M1381.9 216.21C1381.9 216.21 1397.98 210.825 1393.32 199.976C1388.67 189.128 1371.75 195.898 1371.75 195.898" stroke="#C39A6B" stroke-width="3" stroke-linecap="round" stroke-linejoin="round"/>
<path d="M1322.67 201.911C1322.67 201.911 1294.93 182.07 1306.28 150.074C1317.6 118.077 1392.98 93.5572 1421.3 99.0467C1449.62 104.536 1456.36 121.449 1456.36 121.449C1456.36 121.449 1484.92 107.699 1501.1 111.176C1517.29 114.679 1534.2 138.363 1557.89 145.133C1581.58 151.903 1598.5 155.276 1605.27 155.276" fill="white"/>
<path d="M1322.67 201.911C1322.67 201.911 1294.93 182.07 1306.28 150.074C1317.6 118.077 1392.98 93.5572 1421.3 99.0467C1449.62 104.536 1456.36 121.449 1456.36 121.449C1456.36 121.449 1484.92 107.699 1501.1 111.176C1517.29 114.679 1534.2 138.363 1557.89 145.133C1581.58 151.903 1598.5 155.276 1605.27 155.276" stroke="#C39A6B" stroke-width="3" stroke-linecap="round" stroke-linejoin="round"/>
<path d="M1182.24 134.991C1182.24 134.991 1185.61 168.817 1229.62 162.046C1273.62 155.276 1270.38 139.565 1270.38 139.565C1270.38 139.565 1293.91 138.363 1290.54 111.307C1287.17 84.2512 1243.16 90.9955 1243.16 90.9955" fill="white"/>
<path d="M1182.24 134.991C1182.24 134.991 1185.61 168.817 1229.62 162.046C1273.62 155.276 1270.38 139.565 1270.38 139.565C1270.38 139.565 1293.91 138.363 1290.54 111.307C1287.17 84.2512 1243.16 90.9955 1243.16 90.9955" stroke="#C39A6B" stroke-width="3" stroke-linecap="round" stroke-linejoin="round"/>
<path d="M1584.93 283.863C1584.93 283.863 1611.99 280.491 1611.99 246.639L1584.93 283.863Z" fill="white"/>
<path d="M1584.93 283.863C1584.93 283.863 1611.99 280.491 1611.99 246.639" stroke="#C39A6B" stroke-width="3" stroke-linecap="round" stroke-linejoin="round"/>
<path d="M1643.89 287.261C1643.89 287.261 1661.9 280.464 1662.32 246.638C1662.74 212.812 1620.85 201.074 1582.57 205.257" fill="white"/>
<path d="M1643.89 287.261C1643.89 287.261 1661.9 280.464 1662.32 246.638C1662.74 212.812 1620.85 201.074 1582.57 205.257" stroke="#C39A6B" stroke-width="3" stroke-linecap="round" stroke-linejoin="round"/>
<path d="M1584.93 216.21C1584.93 216.21 1530.78 213.988 1524 210.015L1584.93 216.21Z" fill="white"/>
<path d="M1584.93 216.21C1584.93 216.21 1530.78 213.988 1524 210.015" stroke="#C39A6B" stroke-width="3" stroke-linecap="round" stroke-linejoin="round"/>
<path d="M1579.02 365.814C1579.02 365.814 1595.1 405.653 1652.62 395.51C1710.15 385.367 1705.07 355.279 1705.07 355.279" fill="white"/>
<path d="M1579.02 365.814C1579.02 365.814 1595.1 405.653 1652.62 395.51C1710.15 385.367 1705.07 355.279 1705.07 355.279" stroke="#C39A6B" stroke-width="3" stroke-linecap="round" stroke-linejoin="round"/>
<path d="M1622.47 355.28C1622.47 355.28 1600.8 315.911 1650.4 308.331C1700 300.776 1707.09 324.93 1707.09 324.93C1707.09 324.93 1728.55 309.089 1744.74 316.774C1760.92 324.46 1792.25 353.371 1756.27 382.91" fill="white"/>
<path d="M1622.47 355.28C1622.47 355.28 1600.8 315.911 1650.4 308.331C1700 300.776 1707.09 324.93 1707.09 324.93C1707.09 324.93 1728.55 309.089 1744.74 316.774C1760.92 324.46 1792.25 353.371 1756.27 382.91" stroke="#C39A6B" stroke-width="3" stroke-linecap="round" stroke-linejoin="round"/>
<path d="M1883.08 324.93C1883.08 324.93 1862.43 338 1865.83 358.285C1869.2 378.597 1889.51 388.739 1906.43 388.739C1923.35 388.739 1933.49 375.198 1926.75 361.684C1919.98 348.143 1894.67 353.214 1897.18 369.291" fill="white"/>
<path d="M1883.08 324.93C1883.08 324.93 1862.43 338 1865.83 358.285C1869.2 378.597 1889.51 388.739 1906.43 388.739C1923.35 388.739 1933.49 375.198 1926.75 361.684C1919.98 348.143 1894.67 353.214 1897.18 369.291" stroke="#C39A6B" stroke-width="3" stroke-linecap="round" stroke-linejoin="round"/>
<path d="M1744.82 110.236C1744.82 110.236 1706.77 97.7667 1713.54 67.3388C1716.92 53.7979 1723.69 53.7979 1723.69 53.7979" fill="white"/>
<path d="M1744.82 110.236C1744.82 110.236 1706.77 97.7667 1713.54 67.3388C1716.92 53.7979 1723.69 53.7979 1723.69 53.7979" stroke="#C39A6B" stroke-width="3" stroke-linecap="round" stroke-linejoin="round"/>
<path d="M1679.68 94.3944C1665.77 85.7418 1654.37 72.3577 1660.02 55.157C1665.7 37.8779 1679.24 24.9121 1696.6 19.9453" fill="white"/>
<path d="M1679.68 94.3944C1665.77 85.7418 1654.37 72.3577 1660.02 55.157C1665.7 37.8779 1679.24 24.9121 1696.6 19.9453" stroke="#C39A6B" stroke-width="3" stroke-linecap="round" stroke-linejoin="round"/>
<path d="M175.917 389.107C162.373 385.735 148.855 399.249 155.601 416.162C162.347 433.076 189.435 439.846 202.979 429.703C216.497 419.561 219.896 409.444 219.896 409.418C219.138 411.719 228.525 413.914 229.963 414.15C235.062 414.96 240.448 414.019 244.919 411.405C255.064 405.471 258.254 391.956 257.313 380.977C256.319 369.344 250.201 358.156 240.186 351.908C240.186 351.908 230.041 345.138 219.87 345.138C219.87 345.138 200.208 314.03 145.743 321.114C91.2792 328.199 101.424 351.882 101.424 351.882C101.424 351.882 40.5017 338.341 16.8125 365.423C-6.87665 392.479 -6.87665 436.474 40.5017 456.759C87.8801 477.071 111.569 453.387 111.569 453.387C111.569 453.387 152.176 510.897 219.87 504.126C253.704 500.754 277.394 490.585 294.311 480.443C294.311 480.443 328.145 497.356 348.461 477.071C358.606 466.928 362.005 456.759 358.606 450.015C358.606 450.015 378.923 460.157 399.213 456.785C399.213 456.785 341.689 483.841 361.979 548.121C382.269 612.402 477.026 602.259 490.57 581.948C490.57 581.948 531.177 669.911 642.85 666.539C642.85 666.539 674.567 701.437 731.463 687.374C754.524 680.08 768.068 669.938 768.068 669.938C768.068 669.938 795.131 700.392 842.509 683.479C889.887 666.565 906.805 632.739 903.432 612.428C900.059 592.116 893.287 588.744 893.287 588.744C893.287 588.744 921.185 574.785 903.85 546.239C903.85 546.239 974.499 568.433 998.188 517.693C1011.73 490.638 1008.33 470.326 1008.33 470.326C1008.33 470.326 1052.34 480.469 1069.26 450.015C1076.03 436.474 1076.03 422.959 1076.03 409.418C1076.03 409.418 1143.7 426.331 1177.56 406.046C1211.39 385.735 1221.56 348.536 1211.39 321.454C1208.02 311.312 1204.62 307.913 1204.62 307.913C1204.62 307.913 1224.94 318.056 1241.85 311.285V243.633C1241.85 243.633 1204.62 233.49 1170.78 243.633C1170.63 243.685 1167.26 239.032 1166.99 238.745C1163.62 234.902 1159.78 231.451 1155.51 228.628C1143.04 220.315 1127.88 219.427 1113.84 224.001C1099.72 228.602 1085.18 236.941 1075.22 248.077C1072.34 251.266 1068.68 255.919 1069.26 260.546L1001.04 261.278C1001.04 261.278 977.872 223.322 903.432 233.464C876.369 236.836 869.597 257.148 869.597 263.918C869.597 263.918 822.219 257.148 801.929 290.974C795.157 301.117 790.921 320.147 791.339 324.173C791.339 324.173 747.778 314.658 724.089 345.112C724.089 345.112 720.716 331.571 713.944 328.199C713.944 328.199 737.633 257.148 649.649 216.551C561.664 175.954 493.969 223.322 493.969 223.322C493.969 223.322 446.591 213.179 399.213 236.863C351.834 260.546 372.386 301.169 372.386 301.169C372.386 301.169 321.373 294.372 314.601 334.969C314.601 334.969 263.85 290.974 219.844 341.74" fill="white"/>
<path d="M1241.9 243.633C1241.9 243.633 1204.67 233.49 1170.84 243.633C1170.68 243.685 1167.31 239.032 1167.05 238.745C1163.67 234.902 1159.83 231.451 1155.57 228.628C1143.1 220.315 1127.93 219.427 1113.89 224.001C1099.77 228.602 1085.23 236.941 1075.27 248.077C1072.39 251.266 1068.73 255.919 1069.31 260.546L1001.09 261.278C1001.09 261.278 977.924 223.322 903.484 233.464C876.422 236.836 869.65 257.148 869.65 263.918C869.65 263.918 822.271 257.148 801.981 290.974C795.209 301.117 790.973 320.147 791.392 324.173C791.392 324.173 747.831 314.658 724.142 345.112C724.142 345.112 720.769 331.571 713.996 328.199C713.996 328.199 737.686 257.148 649.701 216.551C561.716 175.954 494.022 223.322 494.022 223.322C494.022 223.322 446.643 213.179 399.265 236.863C351.886 260.546 372.438 301.169 372.438 301.169C372.438 301.169 321.425 294.372 314.653 334.969C314.653 334.969 263.902 290.974 219.896 341.739" stroke="#C39A6B" stroke-width="3" stroke-linecap="round" stroke-linejoin="round"/>
<path d="M175.917 389.107C162.373 385.734 148.855 399.249 155.601 416.162C162.347 433.075 189.435 439.846 202.979 429.703C216.497 419.561 219.896 409.444 219.896 409.418C219.138 411.718 228.525 413.914 229.963 414.149C235.062 414.96 240.448 414.019 244.919 411.405C255.064 405.471 258.254 391.956 257.313 380.977C256.319 369.344 250.201 358.156 240.186 351.908C240.186 351.908 230.041 345.138 219.87 345.138C219.87 345.138 200.208 314.03 145.743 321.114C91.2792 328.198 101.424 351.882 101.424 351.882C101.424 351.882 40.5017 338.341 16.8125 365.423C-6.87665 392.479 -6.87665 436.474 40.5017 456.759C87.8801 477.07 111.569 453.387 111.569 453.387C111.569 453.387 152.176 510.897 219.87 504.126C253.704 500.754 277.394 490.585 294.311 480.443C294.311 480.443 328.145 497.356 348.461 477.07C358.606 466.928 362.005 456.759 358.606 450.015C358.606 450.015 378.923 460.157 399.213 456.785C399.213 456.785 341.689 483.841 361.979 548.121C382.269 612.401 477.026 602.259 490.57 581.947C490.57 581.947 531.177 669.911 642.85 666.539C642.85 666.539 674.567 701.437 731.463 687.373C754.524 680.08 768.068 669.937 768.068 669.937C768.068 669.937 795.131 700.391 842.509 683.478C889.887 666.565 906.805 632.739 903.432 612.428C900.059 592.116 893.287 588.744 893.287 588.744C893.287 588.744 921.185 574.785 903.85 546.239C903.85 546.239 974.499 568.433 998.188 517.693C1011.73 490.637 1008.33 470.326 1008.33 470.326C1008.33 470.326 1052.34 480.469 1069.26 450.015C1076.03 436.474 1076.03 422.959 1076.03 409.418C1076.03 409.418 1143.7 426.331 1177.56 406.046C1211.39 385.734 1221.56 348.536 1211.39 321.454C1208.02 311.311 1204.62 307.913 1204.62 307.913C1204.62 307.913 1224.94 318.056 1241.85 311.285" stroke="#C39A6B" stroke-width="3" stroke-linecap="round" stroke-linejoin="round"/>
<path d="M280.819 412.79C280.819 412.79 285.891 457.726 329.034 445.414C341.715 439.872 341.715 433.101 341.715 433.101" fill="white"/>
<path d="M280.819 412.79C280.819 412.79 285.891 457.726 329.034 445.414C341.715 439.872 341.715 433.101 341.715 433.101" stroke="#C39A6B" stroke-width="3" stroke-linecap="round" stroke-linejoin="round"/>
<path d="M332.538 397.55C332.538 397.55 318.052 416.162 348.487 433.075C378.949 449.988 416.156 422.933 412.783 392.479" fill="white"/>
<path d="M332.538 397.55C332.538 397.55 318.052 416.162 348.487 433.075C378.949 449.988 416.156 422.933 412.783 392.479" stroke="#C39A6B" stroke-width="3" stroke-linecap="round" stroke-linejoin="round"/>
<path d="M314.653 334.969C314.653 334.969 333.27 346.418 345.951 361.005L314.653 334.969Z" fill="white"/>
<path d="M314.653 334.969C314.653 334.969 333.27 346.418 345.951 361.005" stroke="#C39A6B" stroke-width="3" stroke-linecap="round" stroke-linejoin="round"/>
<path d="M341.741 365.841C341.741 365.841 345.114 358.652 355.286 358.652L341.741 365.841Z" fill="white"/>
<path d="M341.741 365.841C341.741 365.841 345.114 358.652 355.286 358.652" stroke="#C39A6B" stroke-width="3" stroke-linecap="round" stroke-linejoin="round"/>
<path d="M329.086 345.268C329.086 345.268 331.57 314.683 375.576 324.826C419.581 334.969 419.581 351.882 419.581 351.882C419.581 351.882 460.187 331.57 483.877 355.254C507.566 378.937 495.721 428.134 454.278 415.378" fill="white"/>
<path d="M329.086 345.268C329.086 345.268 331.57 314.683 375.576 324.826C419.581 334.969 419.581 351.882 419.581 351.882C419.581 351.882 460.187 331.57 483.877 355.254C507.566 378.937 495.721 428.134 454.278 415.378" stroke="#C39A6B" stroke-width="3" stroke-linecap="round" stroke-linejoin="round"/>
<path d="M466.96 287.602C466.96 287.602 453.415 280.832 460.187 263.919C466.96 247.005 480.504 253.776 480.504 253.776C480.504 253.776 477.131 216.551 524.509 230.092C571.888 243.633 554.97 267.317 554.97 267.317C554.97 267.317 592.204 280.858 582.033 314.684C571.861 348.51 544.799 345.138 544.799 345.138" fill="white"/>
<path d="M466.96 287.602C466.96 287.602 453.415 280.832 460.187 263.919C466.96 247.005 480.504 253.776 480.504 253.776C480.504 253.776 477.131 216.551 524.509 230.092C571.888 243.633 554.97 267.317 554.97 267.317C554.97 267.317 592.204 280.858 582.033 314.684C571.861 348.51 544.799 345.138 544.799 345.138" stroke="#C39A6B" stroke-width="3" stroke-linecap="round" stroke-linejoin="round"/>
<path d="M619.24 328.198C619.24 328.198 649.701 311.808 634.457 286.164C619.24 260.52 583.628 255.239 557.428 261.278" fill="white"/>
<path d="M619.24 328.198C619.24 328.198 649.701 311.808 634.457 286.164C619.24 260.52 583.628 255.239 557.428 261.278" stroke="#C39A6B" stroke-width="3" stroke-linecap="round" stroke-linejoin="round"/>
<path d="M565.089 490.611C555.598 488.572 546.133 483.501 539.857 476.051C526.627 460.34 530.967 435.115 543.936 420.842C543.936 420.842 526.183 382.781 559.154 362.26C592.125 341.739 662.513 334.132 691.615 356.561" fill="white"/>
<path d="M565.089 490.611C555.598 488.572 546.133 483.501 539.857 476.051C526.627 460.34 530.967 435.114 543.936 420.842C543.936 420.842 526.183 382.781 559.154 362.26C592.125 341.739 662.513 334.132 691.615 356.561" stroke="#C39A6B" stroke-width="3" stroke-linecap="round" stroke-linejoin="round"/>
<path d="M439.034 440.787C441.283 451.322 445.963 461.7 452.369 470.326C466.986 489.984 489.707 494.454 512.769 488.416C523.149 485.697 531.02 481.332 537.321 472.574" fill="white"/>
<path d="M439.034 440.787C441.283 451.322 445.963 461.7 452.369 470.326C466.986 489.984 489.707 494.454 512.769 488.416C523.149 485.697 531.02 481.332 537.321 472.574" stroke="#C39A6B" stroke-width="3" stroke-linecap="round" stroke-linejoin="round"/>
<path d="M507.566 514.295C507.566 514.295 468.659 537.978 439.034 514.295C409.436 490.611 429.857 449.962 441.649 449.988" fill="white"/>
<path d="M507.566 514.295C507.566 514.295 468.659 537.978 439.034 514.295C409.436 490.611 429.857 449.962 441.649 449.988" stroke="#C39A6B" stroke-width="3" stroke-linecap="round" stroke-linejoin="round"/>
<path d="M575.234 453.387C575.234 453.387 558.317 426.331 595.551 409.392C632.784 392.479 724.142 378.938 724.142 426.305" fill="white"/>
<path d="M575.234 453.387C575.234 453.387 558.317 426.331 595.551 409.392C632.784 392.479 724.142 378.938 724.142 426.305" stroke="#C39A6B" stroke-width="3" stroke-linecap="round" stroke-linejoin="round"/>
<path d="M636.157 443.245C636.157 443.245 659.846 439.873 664.919 443.245C664.919 443.245 732.587 410.334 777.429 430.174C822.271 450.015 823.971 460.733 823.971 460.733C823.971 460.733 836.652 453.387 844.706 453.387C844.706 453.387 839.215 428.894 876.422 420.842C913.655 412.791 994.868 419.561 1008.41 470.301" fill="white"/>
<path d="M636.157 443.245C636.157 443.245 659.846 439.873 664.919 443.245C664.919 443.245 732.587 410.334 777.429 430.174C822.271 450.015 823.971 460.733 823.971 460.733C823.971 460.733 836.652 453.387 844.706 453.387C844.706 453.387 839.215 428.894 876.422 420.842C913.655 412.791 994.868 419.561 1008.41 470.301" stroke="#C39A6B" stroke-width="3" stroke-linecap="round" stroke-linejoin="round"/>
<path d="M764.748 378.964C764.748 378.964 779.966 412.79 809.59 397.577C839.189 382.363 828.181 333.714 791.392 324.199" fill="white"/>
<path d="M764.748 378.964C764.748 378.964 779.966 412.79 809.59 397.577C839.189 382.363 828.181 333.714 791.392 324.199" stroke="#C39A6B" stroke-width="3" stroke-linecap="round" stroke-linejoin="round"/>
<path d="M854.432 560.433C854.432 560.433 865.44 474.012 777.874 487.37C758.002 490.585 757.139 500.597 757.139 500.597C757.139 500.597 724.141 487.213 717.369 531.182" fill="white"/>
<path d="M854.432 560.433C854.432 560.433 865.44 474.012 777.874 487.37C758.002 490.585 757.139 500.597 757.139 500.597C757.139 500.597 724.141 487.213 717.369 531.182" stroke="#C39A6B" stroke-width="3" stroke-linecap="round" stroke-linejoin="round"/>
<path d="M826.559 537.534C834.064 556.878 835.659 583.542 818.402 598.259C812.518 603.278 805.38 606.624 798.059 609.055C779.756 615.172 760.146 615.93 741.059 614.284C721.971 612.637 704.924 605.735 686.464 600.324C683.326 599.409 679.587 601.082 676.476 601.553C672.266 602.206 667.873 602.311 663.611 602.311C636.784 602.18 614.638 590.809 598.74 569.347C585.249 551.127 577.065 527.705 578.79 504.884C579.287 498.218 580.699 491.578 583.157 485.357C586.268 477.462 591.445 470.587 598.034 465.229" fill="white"/>
<path d="M826.559 537.534C834.064 556.878 835.659 583.542 818.402 598.259C812.518 603.278 805.38 606.624 798.059 609.055C779.756 615.172 760.146 615.93 741.059 614.284C721.971 612.637 704.924 605.735 686.464 600.324C683.326 599.409 679.587 601.082 676.476 601.553C672.266 602.206 667.873 602.311 663.611 602.311C636.784 602.18 614.638 590.809 598.74 569.347C585.249 551.127 577.065 527.705 578.79 504.884C579.287 498.218 580.699 491.578 583.157 485.357C586.268 477.462 591.445 470.587 598.034 465.229" stroke="#C39A6B" stroke-width="3" stroke-linecap="round" stroke-linejoin="round"/>
<path d="M891.143 460.732C891.143 460.732 917.891 464.471 922.545 486.011C927.199 507.551 914.518 520.072 909.001 520.569" fill="white"/>
<path d="M891.143 460.732C891.143 460.732 917.891 464.471 922.545 486.011C927.199 507.551 914.518 520.072 909.001 520.569" stroke="#C39A6B" stroke-width="3" stroke-linecap="round" stroke-linejoin="round"/>
<path d="M1014.32 440.787C1014.32 440.787 1045.67 446.617 1050.72 426.331C1055.76 406.02 1033.57 385.735 1010.82 387.434C988.07 389.133 982.16 399.328 981.742 406.072" fill="white"/>
<path d="M1014.32 440.787C1014.32 440.787 1045.67 446.617 1050.72 426.331C1055.76 406.02 1033.57 385.735 1010.82 387.434C988.07 389.133 982.16 399.328 981.742 406.072" stroke="#C39A6B" stroke-width="3" stroke-linecap="round" stroke-linejoin="round"/>
<path d="M881.965 419.796C881.965 419.796 915.302 410.228 911.093 374.285C911.093 374.285 950.392 394.492 970.943 341.034C970.943 341.034 985.481 382.31 1030.79 365.397C1030.79 365.397 1060.86 419.535 1124.32 397.55C1187.78 375.566 1155.62 313.821 1124.32 334.525" fill="white"/>
<path d="M881.965 419.796C881.965 419.796 915.302 410.228 911.093 374.285C911.093 374.285 950.392 394.492 970.943 341.034C970.943 341.034 985.481 382.31 1030.79 365.397C1030.79 365.397 1060.86 419.535 1124.32 397.55C1187.78 375.566 1155.62 313.821 1124.32 334.525" stroke="#C39A6B" stroke-width="3" stroke-linecap="round" stroke-linejoin="round"/>
<path d="M1070.67 352.745C1070.67 352.745 1043.92 302.999 1097.23 293.615C1150.52 284.23 1191.49 295.471 1208.23 313.534" fill="white"/>
<path d="M1070.67 352.745C1070.67 352.745 1043.92 302.999 1097.23 293.615C1150.52 284.23 1191.49 295.471 1208.23 313.534" stroke="#C39A6B" stroke-width="3" stroke-linecap="round" stroke-linejoin="round"/>
<path d="M886.567 307.913C886.567 307.913 896.712 280.857 869.65 263.918L886.567 307.913Z" fill="white"/>
<path d="M886.567 307.913C886.567 307.913 896.712 280.857 869.65 263.918" stroke="#C39A6B" stroke-width="3" stroke-linecap="round" stroke-linejoin="round"/>
<path d="M1064 328.199C1064 328.199 1035.45 334.969 1005.01 314.658C974.552 294.346 924.14 275.917 888.423 293.588" fill="white"/>
<path d="M1064 328.199C1064 328.199 1035.45 334.969 1005.01 314.658C974.552 294.346 924.14 275.917 888.423 293.588" stroke="#C39A6B" stroke-width="3" stroke-linecap="round" stroke-linejoin="round"/>
<path d="M880.919 273.852C880.919 273.852 899.248 254.116 936.9 259.03C959.752 262.01 979.598 274.218 1000.15 283.707C1020.36 293.039 1048.73 302.11 1070.67 293.64C1070.67 293.64 1069.31 243.659 1113.29 243.659C1157.27 243.659 1163.2 259.056 1163.2 259.056" fill="white"/>
<path d="M880.919 273.852C880.919 273.852 899.248 254.116 936.9 259.03C959.752 262.01 979.598 274.218 1000.15 283.707C1020.36 293.039 1048.73 302.11 1070.67 293.64C1070.67 293.64 1069.31 243.659 1113.29 243.659C1157.27 243.659 1163.2 259.056 1163.2 259.056" stroke="#C39A6B" stroke-width="3" stroke-linecap="round" stroke-linejoin="round"/>
</g>
<defs>
<clipPath id="clip0_452_10281">
<rect width="2014" height="692" fill="white"/>
</clipPath>
</defs>
</svg>
