<?xml version="1.0" encoding="utf-8"?>
<!-- Generator: Adobe Illustrator 26.3.1, SVG Export Plug-In . SVG Version: 6.00 Build 0)  -->
<svg version="1.1" id="圖層_3" xmlns="http://www.w3.org/2000/svg" xmlns:xlink="http://www.w3.org/1999/xlink" x="0px" y="0px"
	 viewBox="0 0 334 393" style="enable-background:new 0 0 334 393;" xml:space="preserve">
<style type="text/css">
	.st0{fill:#338973;}
	.st1{fill:#FFFFFF;filter:url(#Adobe_OpacityMaskFilter);}
	.st2{mask:url(#mask0_452_5915_00000111874544696763562030000015971123983880710026_);}
	.st3{fill:none;stroke:#C39A6B;stroke-width:1.4486;stroke-linecap:round;stroke-linejoin:round;stroke-miterlimit:10;}
	.st4{fill:#FFFFFF;filter:url(#Adobe_OpacityMaskFilter_00000174584764774672773320000014097577115046175416_);}
	.st5{mask:url(#mask1_452_5915_00000098913943507549522930000001200095694620156859_);}
	.st6{fill:#47B990;}
	.st7{fill:#FFFFFF;filter:url(#Adobe_OpacityMaskFilter_00000129926197029623745840000008696775043413940116_);}
	.st8{mask:url(#mask2_452_5915_00000062185747997441640360000009593661673095846544_);}
</style>
<g>
	<path class="st0" d="M257.3,184.2l-58.4-90.8c-12.1-18.8-39.5-18.8-51.5,0l-58,90.1l84.6,63.9L257.3,184.2z"/>
	<defs>
		<filter id="Adobe_OpacityMaskFilter" filterUnits="userSpaceOnUse" x="92.3" y="42.4" width="157.7" height="321">
			<feColorMatrix  type="matrix" values="1 0 0 0 0  0 1 0 0 0  0 0 1 0 0  0 0 0 1 0"/>
		</filter>
	</defs>
	
		<mask maskUnits="userSpaceOnUse" x="92.3" y="42.4" width="157.7" height="321" id="mask0_452_5915_00000111874544696763562030000015971123983880710026_">
		<path class="st1" d="M257.3,184.2l-58.4-90.8c-12.1-18.8-39.5-18.8-51.5,0l-58,90.1l84.6,63.9L257.3,184.2z"/>
	</mask>
	<g class="st2">
		<path class="st3" d="M93,43.2v319.5"/>
		<path class="st3" d="M102.2,43.2v319.5"/>
		<path class="st3" d="M111.4,43.2v319.5"/>
		<path class="st3" d="M120.6,43.2v319.5"/>
		<path class="st3" d="M129.8,43.2v319.5"/>
		<path class="st3" d="M138.9,43.2v319.5"/>
		<path class="st3" d="M148.1,43.2v319.5"/>
		<path class="st3" d="M157.3,43.2v319.5"/>
		<path class="st3" d="M166.5,43.2v319.5"/>
		<path class="st3" d="M175.7,43.2v319.5"/>
		<path class="st3" d="M184.9,43.2v319.5"/>
		<path class="st3" d="M194.1,43.2v319.5"/>
		<path class="st3" d="M203.3,43.2v319.5"/>
		<path class="st3" d="M212.4,43.2v319.5"/>
		<path class="st3" d="M221.6,43.2v319.5"/>
		<path class="st3" d="M230.8,43.2v319.5"/>
		<path class="st3" d="M240,43.2v319.5"/>
		<path class="st3" d="M249.2,43.2v319.5"/>
	</g>
	<path class="st3" d="M257.3,184.2l-58.4-90.8c-12.1-18.8-39.5-18.8-51.5,0l-58,90.1l84.6,63.9L257.3,184.2z"/>
	<path class="st0" d="M174.7,237.7l-84.6-63.9l-0.7,1l-53.9,83.8C22.4,279.1,37,306,61.3,306h23.3h89.2h91.4L174.7,237.7z"/>
	<defs>
		
			<filter id="Adobe_OpacityMaskFilter_00000036971077605469513530000012988277022030964624_" filterUnits="userSpaceOnUse" x="-49.4" y="103.9" width="366.6" height="341.3">
			<feColorMatrix  type="matrix" values="1 0 0 0 0  0 1 0 0 0  0 0 1 0 0  0 0 0 1 0"/>
		</filter>
	</defs>
	
		<mask maskUnits="userSpaceOnUse" x="-49.4" y="103.9" width="366.6" height="341.3" id="mask1_452_5915_00000098913943507549522930000001200095694620156859_">
		<path style="fill:#FFFFFF;filter:url(#Adobe_OpacityMaskFilter_00000036971077605469513530000012988277022030964624_);" d="
			M174.7,237.7l-84.6-63.9l-0.7,1l-53.9,83.8C22.4,279.1,37,306,61.3,306h23.3h89.2h91.4L174.7,237.7z"/>
	</mask>
	<g class="st5">
		<path class="st3" d="M-48.6,251.3l254,193.1"/>
		<path class="st3" d="M-43.1,244l254,193.1"/>
		<path class="st3" d="M-37.5,236.6l254,193.1"/>
		<path class="st3" d="M-32,229.3l254,193.1"/>
		<path class="st3" d="M-26.4,222l254,193.1"/>
		<path class="st3" d="M-20.9,214.6l254,193.1"/>
		<path class="st3" d="M-15.3,207.3l254,193.1"/>
		<path class="st3" d="M-9.8,199.9l254,193.1"/>
		<path class="st3" d="M-4.2,192.6l254,193.1"/>
		<path class="st3" d="M1.3,185.3l254,193.1"/>
		<path class="st3" d="M6.9,177.9l254,193.1"/>
		<path class="st3" d="M12.5,170.6l254,193.1"/>
		<path class="st3" d="M18,163.3l254,193.1"/>
		<path class="st3" d="M23.6,155.9l254,193.1"/>
		<path class="st3" d="M29.1,148.6l254,193.1"/>
		<path class="st3" d="M34.7,141.3l254,193.1"/>
		<path class="st3" d="M40.2,133.9l254,193.1"/>
		<path class="st3" d="M45.8,126.6l254,193.1"/>
		<path class="st3" d="M51.3,119.3l254,193.1"/>
		<path class="st3" d="M56.9,111.9l254,193.2"/>
		<path class="st3" d="M62.4,104.6l254,193.1"/>
	</g>
	<path class="st3" d="M174.7,237.7l-84.6-63.9l-0.7,1l-53.9,83.8C22.4,279.1,37,306,61.3,306h23.3h89.2h91.4L174.7,237.7z"/>
	<path class="st6" d="M308.7,255.9l-53.9-83.8l-0.2-0.3L171.3,235l90.5,68.3h21.1C307.2,303.3,321.8,276.4,308.7,255.9z"/>
	<defs>
		
			<filter id="Adobe_OpacityMaskFilter_00000078759171923957618980000008229033430945070727_" filterUnits="userSpaceOnUse" x="16.8" y="110.6" width="366.6" height="341.2">
			<feColorMatrix  type="matrix" values="1 0 0 0 0  0 1 0 0 0  0 0 1 0 0  0 0 0 1 0"/>
		</filter>
	</defs>
	
		<mask maskUnits="userSpaceOnUse" x="16.8" y="110.6" width="366.6" height="341.2" id="mask2_452_5915_00000062185747997441640360000009593661673095846544_">
		<path style="fill:#FFFFFF;filter:url(#Adobe_OpacityMaskFilter_00000078759171923957618980000008229033430945070727_);" d="
			M308.7,255.9l-53.9-83.8l-0.2-0.3L171.3,235l90.5,68.3h21.1C307.2,303.3,321.8,276.4,308.7,255.9z"/>
	</mask>
	<g class="st8">
		<path class="st3" d="M271.6,111.3l-254.1,193"/>
		<path class="st3" d="M277.2,118.7l-254.1,193"/>
		<path class="st3" d="M282.7,126L28.6,319"/>
		<path class="st3" d="M288.3,133.3l-254.1,193"/>
		<path class="st3" d="M293.8,140.7l-254.1,193"/>
		<path class="st3" d="M299.4,148L45.3,341"/>
		<path class="st3" d="M304.9,155.3l-254.1,193"/>
		<path class="st3" d="M310.5,162.7l-254.1,193"/>
		<path class="st3" d="M316,170L61.9,363"/>
		<path class="st3" d="M321.6,177.3l-254.1,193"/>
		<path class="st3" d="M327.1,184.7L73,377.7"/>
		<path class="st3" d="M332.7,192l-254.1,193"/>
		<path class="st3" d="M338.2,199.3l-254.1,193"/>
		<path class="st3" d="M343.8,206.7l-254.1,193"/>
		<path class="st3" d="M349.3,214l-254.1,193"/>
		<path class="st3" d="M354.9,221.4l-254.1,193"/>
		<path class="st3" d="M360.4,228.7l-254.1,193"/>
		<path class="st3" d="M366,236l-254.1,193"/>
		<path class="st3" d="M371.5,243.4l-254.1,193"/>
		<path class="st3" d="M377.1,250.7L123,443.8"/>
		<path class="st3" d="M382.6,258l-254.1,193"/>
	</g>
	<path class="st3" d="M308.7,255.9l-53.9-83.8l-0.2-0.3L171.3,235l90.5,68.3h21.1C307.2,303.3,321.8,276.4,308.7,255.9z"/>
</g>
</svg>
